<svg id="ff13d26c-1ac9-4176-ba1d-b4ba1d495776" data-name="Layer 1" xmlns="http://www.w3.org/2000/svg" xmlns:xlink="http://www.w3.org/1999/xlink" viewBox="0 0 481.22 725.53"><defs><clipPath id="4103bd9c-db3f-4a25-b3a0-4ef887308772"><polygon points="-113.16 9.7 -112.18 9.7 -113.16 10.67 -113.16 9.7" fill="none"/></clipPath><linearGradient id="aa975308-7208-4636-a706-485d2f28986e" x1="102.51" y1="115.54" x2="221.27" y2="115.54" gradientUnits="userSpaceOnUse"><stop offset="0" stop-color="#ed9898"/><stop offset="1" stop-color="#be747b"/></linearGradient><linearGradient id="96332910-3df7-4489-91c4-69e56d7d6f7f" x1="102.51" y1="0.58" x2="141.82" y2="0.58" gradientUnits="userSpaceOnUse"><stop offset="0" stop-color="#ed2526"/><stop offset="1" stop-color="#be1e2d"/></linearGradient><linearGradient id="a0f86408-59ef-49b6-a159-9d5795635817" x1="141.82" y1="0.49" x2="181.12" y2="0.49" gradientUnits="userSpaceOnUse"><stop offset="0" stop-color="#fff"/><stop offset="1" stop-color="#bbbdbf"/></linearGradient><linearGradient id="224aa448-0b8a-4e1b-bb77-f51d9a89a373" x1="141.82" y1="115.5" x2="260.56" y2="115.5" xlink:href="#a0f86408-59ef-49b6-a159-9d5795635817"/><linearGradient id="d90cc860-1b13-4341-bfd5-3a37ca23efed" x1="181.12" y1="115.45" x2="299.94" y2="115.45" gradientUnits="userSpaceOnUse"><stop offset="0" stop-color="#3c92a5"/><stop offset="1" stop-color="#28628f"/></linearGradient><linearGradient id="27ad7cbf-a437-41d3-87aa-0a7c92c6cf9c" x1="181.12" y1="0.4" x2="220.42" y2="0.4" gradientUnits="userSpaceOnUse"><stop offset="0" stop-color="#3c56a5"/><stop offset="1" stop-color="#2b388f"/></linearGradient><linearGradient id="896c1446-d2d3-4a7b-934d-3c8724454589" x1="199.52" y1="585.12" x2="299.26" y2="410.94" gradientTransform="matrix(1, 0, 0, -1, 0, 750)" gradientUnits="userSpaceOnUse"><stop offset="0" stop-color="#ddbf24"/><stop offset="0.44" stop-color="#e0bf44"/><stop offset="1" stop-color="#815020"/></linearGradient><linearGradient id="b85db087-133a-4bff-854d-d7d73f6ca7c4" x1="196.24" y1="593.17" x2="302.33" y2="407.91" gradientTransform="matrix(1, 0, 0, -1, 0, 750)" gradientUnits="userSpaceOnUse"><stop offset="0" stop-color="#fbd73b"/><stop offset="0.37" stop-color="#fde66e"/><stop offset="0.53" stop-color="#fde558"/><stop offset="1" stop-color="#bd852c"/></linearGradient><linearGradient id="92d0d5d9-a782-4510-ba2b-4edb45c38856" x1="213.07" y1="564.26" x2="283.87" y2="440.62" gradientTransform="matrix(1, 0, 0, -1, 0, 750)" gradientUnits="userSpaceOnUse"><stop offset="0" stop-color="#ffe36c"/><stop offset="0.37" stop-color="#ffed9e"/><stop offset="0.53" stop-color="#fdec88"/><stop offset="1" stop-color="#fdbe36"/></linearGradient><linearGradient id="10a44428-52c5-4c3b-9c63-d3498e5f364f" x1="222.44" y1="553.05" x2="276.34" y2="458.93" xlink:href="#92d0d5d9-a782-4510-ba2b-4edb45c38856"/><linearGradient id="60b04aeb-a620-48b9-a16e-e9f36785f901" x1="113.52" y1="462.65" x2="398.94" y2="50.27" gradientTransform="matrix(1, 0, 0, -1, -9.74, 750.19)" xlink:href="#896c1446-d2d3-4a7b-934d-3c8724454589"/><linearGradient id="301bbdc4-b901-4b46-a9c7-9d0feb99abcf" x1="136.25" y1="567.63" x2="282.48" y2="179.73" gradientTransform="matrix(1, 0, 0, -1, -9.74, 750.19)" xlink:href="#b85db087-133a-4bff-854d-d7d73f6ca7c4"/><linearGradient id="d76dbd42-8647-4c73-ad9b-bf4de0ec4f27" x1="83.33" y1="431.47" x2="417.23" y2="97.57" xlink:href="#92d0d5d9-a782-4510-ba2b-4edb45c38856"/><clipPath id="3cd649cb-796e-459c-9fa3-780a99eb08a8" transform="translate(-9.74 0.19)"><polygon points="-115.11 7.75 -116.08 7.75 -115.11 6.77 -115.11 7.75" fill="none" clip-path="url(#4103bd9c-db3f-4a25-b3a0-4ef887308772)"/></clipPath><linearGradient id="7147c8f7-2d6a-4420-9b5d-5068500c2141" x1="67.49" y1="417.45" x2="255.77" y2="256.26" gradientTransform="matrix(1, 0, 0, -1, 0, 750)" gradientUnits="userSpaceOnUse"><stop offset="0"/><stop offset="1" stop-color="#f6f6f6"/></linearGradient><linearGradient id="05188344-f95f-4e7a-ae7c-1f90a193fa90" x1="67.49" y1="417.45" x2="255.77" y2="256.26" gradientTransform="matrix(1, 0, 0, -1, 0, 750)" gradientUnits="userSpaceOnUse"><stop offset="0" stop-color="#fff9bf"/><stop offset="1" stop-color="#ffe56f"/></linearGradient><linearGradient id="05c780ef-e874-4fa6-8d71-ee6dcb24d982" x1="187.02" y1="472.96" x2="297.7" y2="109.44" gradientTransform="matrix(1, 0, 0, -1, -9.74, 750.19)" gradientUnits="userSpaceOnUse"><stop offset="0" stop-color="#ab7f20"/><stop offset="0.58" stop-color="#ffe660"/><stop offset="0.78" stop-color="#fde66e"/><stop offset="1" stop-color="#fbd73b"/></linearGradient><linearGradient id="973348bf-c58f-44ac-8161-fa0d10a09387" x1="171.7" y1="513.22" x2="307.77" y2="83.7" gradientTransform="matrix(1, 0, 0, -1, -9.74, 750.19)" gradientUnits="userSpaceOnUse"><stop offset="0" stop-color="#efbf21"/><stop offset="0.31" stop-color="#f5d254"/><stop offset="0.56" stop-color="#e4ba3d"/><stop offset="1" stop-color="#b57129"/></linearGradient><linearGradient id="d301b8b1-6d13-4b26-a275-22450a190dbf" x1="42.73" y1="265.01" x2="458.3" y2="265.01" gradientTransform="matrix(1, 0, 0, -1, 0, 750)" gradientUnits="userSpaceOnUse"><stop offset="0" stop-color="#ffe36c"/><stop offset="0.37" stop-color="#ffec9d"/><stop offset="0.53" stop-color="#fdec87"/><stop offset="1" stop-color="#fdbe34"/></linearGradient><linearGradient id="6aa03aa6-2320-4b9c-975d-97d8930daad1" x1="205.54" y1="84.9" x2="205.54" y2="103.59" gradientTransform="matrix(1, 0, 0, -1, 0, 750)" gradientUnits="userSpaceOnUse"><stop offset="0" stop-color="#855e25"/><stop offset="1" stop-color="#ae872e"/></linearGradient><linearGradient id="91890936-91cb-4aad-8535-ac388be92137" x1="212.54" y1="106.45" x2="212.54" y2="130.62" xlink:href="#6aa03aa6-2320-4b9c-975d-97d8930daad1"/><linearGradient id="de555913-f78c-4b50-a29b-31d136e123f1" x1="183.29" y1="93.79" x2="183.29" y2="110.57" xlink:href="#6aa03aa6-2320-4b9c-975d-97d8930daad1"/><linearGradient id="5dade4ee-c6d5-49b3-ad70-bf9467095e73" x1="193.4" y1="112.97" x2="193.4" y2="137.22" xlink:href="#6aa03aa6-2320-4b9c-975d-97d8930daad1"/><linearGradient id="2b5b3c79-62fb-4bd3-9d87-a098001ead97" x1="162.55" y1="105.06" x2="162.55" y2="120.36" xlink:href="#6aa03aa6-2320-4b9c-975d-97d8930daad1"/><linearGradient id="e5db48fb-d272-4361-936d-b3263adae972" x1="175.42" y1="122.11" x2="175.42" y2="146.22" xlink:href="#6aa03aa6-2320-4b9c-975d-97d8930daad1"/><linearGradient id="5bdab42b-e2e6-4365-b410-8216263f0c20" x1="143.22" y1="118.73" x2="143.22" y2="133.05" xlink:href="#6aa03aa6-2320-4b9c-975d-97d8930daad1"/><linearGradient id="3be7fc5d-ce66-40d3-a360-c7a68cb990ab" x1="158.81" y1="133.42" x2="158.81" y2="157.06" xlink:href="#6aa03aa6-2320-4b9c-975d-97d8930daad1"/><linearGradient id="42d85780-9eb3-4c8b-ae18-84605e401dae" x1="125.94" y1="134.35" x2="125.94" y2="148.14" xlink:href="#6aa03aa6-2320-4b9c-975d-97d8930daad1"/><linearGradient id="2ff92a99-21e1-4dd2-85dd-b6c3f67c5bd4" x1="143.73" y1="147.08" x2="143.73" y2="169.95" xlink:href="#6aa03aa6-2320-4b9c-975d-97d8930daad1"/><linearGradient id="fd892dc4-e4a9-46ef-bc0d-6531d1978142" x1="110.76" y1="151.98" x2="110.76" y2="165.38" xlink:href="#6aa03aa6-2320-4b9c-975d-97d8930daad1"/><linearGradient id="a068a01f-6fca-4a87-93e0-a206b218de00" x1="130.87" y1="162.68" x2="130.87" y2="184.29" xlink:href="#6aa03aa6-2320-4b9c-975d-97d8930daad1"/><linearGradient id="c15ceb2f-e7e6-4f52-8591-303b8cf47205" x1="97.98" y1="171.25" x2="97.98" y2="184.69" xlink:href="#6aa03aa6-2320-4b9c-975d-97d8930daad1"/><linearGradient id="e1e0f4d8-e210-4fcc-806d-7fe80f26dc9b" x1="120.14" y1="180.05" x2="120.14" y2="200.13" xlink:href="#6aa03aa6-2320-4b9c-975d-97d8930daad1"/><linearGradient id="bb3dad68-0580-4f18-aa6a-fed1d5d01c04" x1="87.92" y1="191.94" x2="87.92" y2="205.52" xlink:href="#6aa03aa6-2320-4b9c-975d-97d8930daad1"/><linearGradient id="31380257-d819-4c11-878c-220d2e91136b" x1="111.73" y1="198.84" x2="111.73" y2="216.96" xlink:href="#6aa03aa6-2320-4b9c-975d-97d8930daad1"/><linearGradient id="1699a53a-48af-4780-b522-a839996d96bd" x1="80.85" y1="213.68" x2="80.85" y2="227.71" xlink:href="#6aa03aa6-2320-4b9c-975d-97d8930daad1"/><linearGradient id="91da4872-20ec-47c7-b0af-5c01f5c758f6" x1="105.7" y1="218.59" x2="105.7" y2="234.69" xlink:href="#6aa03aa6-2320-4b9c-975d-97d8930daad1"/><linearGradient id="893fd703-9461-4d91-ac40-e7e84e494fc1" x1="76.75" y1="236.11" x2="76.75" y2="250.77" xlink:href="#6aa03aa6-2320-4b9c-975d-97d8930daad1"/><linearGradient id="f72588b9-2b56-4bbb-8b3a-8cf7a4ba096d" x1="102.08" y1="238.89" x2="102.08" y2="253.29" xlink:href="#6aa03aa6-2320-4b9c-975d-97d8930daad1"/><linearGradient id="92e44c4e-2a0c-4dbb-8b33-a114e33d77db" x1="75.62" y1="258.84" x2="75.62" y2="274.39" xlink:href="#6aa03aa6-2320-4b9c-975d-97d8930daad1"/><linearGradient id="87ff2615-62f0-4ce2-a290-8f378775a222" x1="101" y1="259.43" x2="101" y2="272.75" xlink:href="#6aa03aa6-2320-4b9c-975d-97d8930daad1"/><linearGradient id="f9a47c7f-e3fe-4121-b49d-43112fc95324" x1="77.53" y1="281.49" x2="77.53" y2="298.29" xlink:href="#6aa03aa6-2320-4b9c-975d-97d8930daad1"/><linearGradient id="f37e4701-451e-4e33-bc43-0273fa33c8dc" x1="102.52" y1="279.85" x2="102.52" y2="292.45" xlink:href="#6aa03aa6-2320-4b9c-975d-97d8930daad1"/><linearGradient id="7d8a61a7-9db4-454f-a7f7-10bda5125ed0" x1="82.43" y1="303.64" x2="82.43" y2="322.14" xlink:href="#6aa03aa6-2320-4b9c-975d-97d8930daad1"/><linearGradient id="89455bb8-8d3f-420f-844d-785cf386092a" x1="106.71" y1="299.81" x2="106.71" y2="311.98" xlink:href="#6aa03aa6-2320-4b9c-975d-97d8930daad1"/><linearGradient id="1fbbd5c1-4379-474d-9f5b-04d720ee9424" x1="90.37" y1="324.91" x2="90.37" y2="345.19" xlink:href="#6aa03aa6-2320-4b9c-975d-97d8930daad1"/><linearGradient id="e0dbb328-a833-49c2-a09a-8025f8a000b4" x1="113.35" y1="318.9" x2="113.35" y2="330.96" xlink:href="#6aa03aa6-2320-4b9c-975d-97d8930daad1"/><linearGradient id="333720d4-c672-4a01-9280-84b99079d133" x1="101.06" y1="344.9" x2="101.06" y2="366.83" xlink:href="#6aa03aa6-2320-4b9c-975d-97d8930daad1"/><linearGradient id="b9cee0f2-cf91-4ac7-ae19-c2cd4b5d481a" x1="122.38" y1="336.85" x2="122.38" y2="349.04" xlink:href="#6aa03aa6-2320-4b9c-975d-97d8930daad1"/><linearGradient id="efb53e9f-de12-44a6-b1fc-b8301bbf087b" x1="114.07" y1="363.39" x2="114.07" y2="386.71" xlink:href="#6aa03aa6-2320-4b9c-975d-97d8930daad1"/><linearGradient id="5c4486e5-fd16-4c53-869b-66add86175ab" x1="133.51" y1="353.27" x2="133.51" y2="365.83" xlink:href="#6aa03aa6-2320-4b9c-975d-97d8930daad1"/><linearGradient id="7742680c-4466-44c1-a995-2b6cc365ad61" x1="133.57" y1="371.15" x2="133.57" y2="392.77" xlink:href="#6aa03aa6-2320-4b9c-975d-97d8930daad1"/><linearGradient id="7e4b806a-c2b5-4957-b8eb-35f2156ad320" x1="31.86" y1="394.03" x2="233.05" y2="41.95" gradientTransform="matrix(1, 0, 0, -1, 0, 750)" gradientUnits="userSpaceOnUse"><stop offset="0" stop-color="#ffe367"/><stop offset="0.53" stop-color="#fceb83"/><stop offset="1" stop-color="#fdbd30"/></linearGradient><linearGradient id="e725a50b-9d0f-42c3-bf2f-d1da2d8edf15" x1="47.28" y1="402.81" x2="248.46" y2="50.75" xlink:href="#7e4b806a-c2b5-4957-b8eb-35f2156ad320"/><linearGradient id="091b2b4c-a5a0-4af3-8f0f-566044b4d66b" x1="18.58" y1="386.48" x2="219.78" y2="34.38" xlink:href="#7e4b806a-c2b5-4957-b8eb-35f2156ad320"/><linearGradient id="25f78ad9-7c44-468c-aa30-21233340b3f5" x1="35.99" y1="396.34" x2="237.15" y2="44.31" xlink:href="#7e4b806a-c2b5-4957-b8eb-35f2156ad320"/><linearGradient id="50539b5b-ae1c-4298-92e6-06e5ae3aae3b" x1="7.49" y1="380.19" x2="208.71" y2="28.05" xlink:href="#7e4b806a-c2b5-4957-b8eb-35f2156ad320"/><linearGradient id="60004fa9-9f19-4f88-849d-f6673a775bc7" x1="26.6" y1="390.96" x2="227.74" y2="38.96" xlink:href="#7e4b806a-c2b5-4957-b8eb-35f2156ad320"/><linearGradient id="56cbe644-831f-487c-998a-af104a456ebe" x1="-1.44" y1="375.12" x2="199.8" y2="22.95" xlink:href="#7e4b806a-c2b5-4957-b8eb-35f2156ad320"/><linearGradient id="c318b2ae-40f4-4612-941a-c65faaac9c2c" x1="19.34" y1="386.8" x2="220.47" y2="34.83" xlink:href="#7e4b806a-c2b5-4957-b8eb-35f2156ad320"/><linearGradient id="2112158a-87af-4372-92d9-619bbdc6f4e9" x1="-7.58" y1="371.62" x2="193.67" y2="19.44" xlink:href="#7e4b806a-c2b5-4957-b8eb-35f2156ad320"/><linearGradient id="81417438-2f73-4397-80a8-7e18168eaafb" x1="13.91" y1="383.68" x2="215.02" y2="31.74" xlink:href="#7e4b806a-c2b5-4957-b8eb-35f2156ad320"/><linearGradient id="f671b682-a88d-4ce3-9d00-ee14b8ab1c7a" x1="-11.29" y1="369.52" x2="189.97" y2="17.32" xlink:href="#7e4b806a-c2b5-4957-b8eb-35f2156ad320"/><linearGradient id="b77ab6b9-a48d-4495-8f99-a19608627f38" x1="10.73" y1="381.92" x2="211.87" y2="29.93" xlink:href="#7e4b806a-c2b5-4957-b8eb-35f2156ad320"/><linearGradient id="cf01373c-3de0-4f8d-bbf7-cb05c51aab0f" x1="-12.41" y1="368.89" x2="188.86" y2="16.67" xlink:href="#7e4b806a-c2b5-4957-b8eb-35f2156ad320"/><linearGradient id="32a48bde-44ea-4269-a08f-b0d48f23d843" x1="9.75" y1="381.4" x2="210.91" y2="29.37" xlink:href="#7e4b806a-c2b5-4957-b8eb-35f2156ad320"/><linearGradient id="5306d367-7b27-4ef4-9769-40fad0d18777" x1="-10.87" y1="369.78" x2="190.41" y2="17.53" xlink:href="#7e4b806a-c2b5-4957-b8eb-35f2156ad320"/><linearGradient id="27ec432a-b241-44b2-bf63-94a5046ccc8c" x1="10.98" y1="382.13" x2="212.16" y2="30.06" xlink:href="#7e4b806a-c2b5-4957-b8eb-35f2156ad320"/><linearGradient id="405915d6-49d2-435d-a80f-d9c047c782d2" x1="-6.75" y1="372.13" x2="194.54" y2="19.88" xlink:href="#7e4b806a-c2b5-4957-b8eb-35f2156ad320"/><linearGradient id="8c4ba177-cb08-49f0-a712-919189681a70" x1="14.51" y1="384.17" x2="215.71" y2="32.07" xlink:href="#7e4b806a-c2b5-4957-b8eb-35f2156ad320"/><linearGradient id="6fd31ac0-cc27-4447-8089-e3797cf71d48" x1="0.16" y1="376.06" x2="201.45" y2="23.8" xlink:href="#7e4b806a-c2b5-4957-b8eb-35f2156ad320"/><linearGradient id="2256ddd1-1b76-4015-a9e1-2805f6253720" x1="20.09" y1="387.37" x2="221.31" y2="35.25" xlink:href="#7e4b806a-c2b5-4957-b8eb-35f2156ad320"/><linearGradient id="42014203-fe6e-45e5-9494-6eb82c818cf4" x1="9.26" y1="381.24" x2="210.54" y2="29" xlink:href="#7e4b806a-c2b5-4957-b8eb-35f2156ad320"/><linearGradient id="7db5ff8f-1dc0-4fa4-b90b-47d6d1ab87be" x1="27.94" y1="391.86" x2="229.17" y2="39.71" xlink:href="#7e4b806a-c2b5-4957-b8eb-35f2156ad320"/><linearGradient id="3826eb3e-54b6-48bc-8928-c5ab04b0d134" x1="20.54" y1="387.66" x2="221.8" y2="35.45" xlink:href="#7e4b806a-c2b5-4957-b8eb-35f2156ad320"/><linearGradient id="2f8a25f5-e5dc-47db-aafc-486c8bbc3449" x1="37.47" y1="397.31" x2="238.72" y2="45.13" xlink:href="#7e4b806a-c2b5-4957-b8eb-35f2156ad320"/><linearGradient id="134b557d-854a-497c-abb7-bc030de4d924" x1="33.8" y1="395.21" x2="235.05" y2="43.04" xlink:href="#7e4b806a-c2b5-4957-b8eb-35f2156ad320"/><linearGradient id="3fa91e7c-e12b-4f23-9292-be736b4c7cda" x1="48.94" y1="403.87" x2="250.2" y2="51.65" xlink:href="#7e4b806a-c2b5-4957-b8eb-35f2156ad320"/><linearGradient id="e23098a9-2e93-415b-889b-c45c3062aeaf" x1="48.98" y1="403.86" x2="250.2" y2="51.71" xlink:href="#7e4b806a-c2b5-4957-b8eb-35f2156ad320"/><linearGradient id="51886970-c77c-4649-8316-fa9f83a7cd45" x1="61.93" y1="411.29" x2="263.22" y2="59.03" xlink:href="#7e4b806a-c2b5-4957-b8eb-35f2156ad320"/><linearGradient id="2787abf5-575e-4a60-9454-afdedbd547a5" x1="65.7" y1="413.4" x2="266.91" y2="61.27" xlink:href="#7e4b806a-c2b5-4957-b8eb-35f2156ad320"/><linearGradient id="2cf55fbf-d884-4782-9493-239faff2da8a" x1="76.28" y1="419.48" x2="277.59" y2="67.18" xlink:href="#7e4b806a-c2b5-4957-b8eb-35f2156ad320"/><linearGradient id="dc75c3c6-1d7b-4299-93df-f375f5922ca4" x1="83.7" y1="423.67" x2="284.91" y2="71.55" xlink:href="#7e4b806a-c2b5-4957-b8eb-35f2156ad320"/><linearGradient id="eaedec43-aecd-448f-9158-cf3a1c98c0d9" x1="91.78" y1="428.32" x2="293.08" y2="76.04" xlink:href="#7e4b806a-c2b5-4957-b8eb-35f2156ad320"/><linearGradient id="167ab106-5f89-4928-b5e0-ce5bb82b59de" x1="102.67" y1="434.48" x2="303.83" y2="82.45" xlink:href="#7e4b806a-c2b5-4957-b8eb-35f2156ad320"/><linearGradient id="b8f9f8cb-8d3e-4988-b76e-c49d65ffb545" x1="162.63" y1="84.9" x2="162.63" y2="103.59" gradientTransform="translate(457.79 750) rotate(180)" xlink:href="#6aa03aa6-2320-4b9c-975d-97d8930daad1"/><linearGradient id="51db18c8-b546-4f0c-a907-3f55228ea65c" x1="169.54" y1="106.45" x2="169.54" y2="130.62" gradientTransform="translate(457.79 750) rotate(180)" xlink:href="#6aa03aa6-2320-4b9c-975d-97d8930daad1"/><linearGradient id="e75e8f8d-6de1-4c42-b14c-5064eaef5319" x1="140.38" y1="93.79" x2="140.38" y2="110.57" gradientTransform="translate(457.79 750) rotate(180)" xlink:href="#6aa03aa6-2320-4b9c-975d-97d8930daad1"/><linearGradient id="042d87bf-187c-4e03-a7f1-71c8ea4efa37" x1="150.49" y1="112.97" x2="150.49" y2="137.22" gradientTransform="translate(457.79 750) rotate(180)" xlink:href="#6aa03aa6-2320-4b9c-975d-97d8930daad1"/><linearGradient id="2611153c-876c-4eb1-a2c5-6d42a1c54ba2" x1="119.54" y1="105.06" x2="119.54" y2="120.36" gradientTransform="translate(457.79 750) rotate(180)" xlink:href="#6aa03aa6-2320-4b9c-975d-97d8930daad1"/><linearGradient id="e849ad94-b1c4-403a-9491-a3f72970dc13" x1="132.5" y1="122.11" x2="132.5" y2="146.22" gradientTransform="translate(457.79 750) rotate(180)" xlink:href="#6aa03aa6-2320-4b9c-975d-97d8930daad1"/><linearGradient id="26a1bdbb-fee3-4ae9-aeff-12eec06445d2" x1="100.31" y1="118.73" x2="100.31" y2="133.05" gradientTransform="translate(457.79 750) rotate(180)" xlink:href="#6aa03aa6-2320-4b9c-975d-97d8930daad1"/><linearGradient id="5252c1d6-bad5-4e0d-88ef-7d13e0d3353e" x1="115.81" y1="133.42" x2="115.81" y2="157.06" gradientTransform="translate(457.79 750) rotate(180)" xlink:href="#6aa03aa6-2320-4b9c-975d-97d8930daad1"/><linearGradient id="c376ccad-428e-4180-8dad-378bdbfdf15e" x1="83.03" y1="134.35" x2="83.03" y2="148.14" gradientTransform="translate(457.79 750) rotate(180)" xlink:href="#6aa03aa6-2320-4b9c-975d-97d8930daad1"/><linearGradient id="19d537cc-1a62-44ed-9600-fa9252a9b731" x1="100.82" y1="147.08" x2="100.82" y2="169.95" gradientTransform="translate(457.79 750) rotate(180)" xlink:href="#6aa03aa6-2320-4b9c-975d-97d8930daad1"/><linearGradient id="aa3b3e06-925d-4a68-bf84-da976e4b6b03" x1="67.76" y1="151.98" x2="67.76" y2="165.38" gradientTransform="translate(457.79 750) rotate(180)" xlink:href="#6aa03aa6-2320-4b9c-975d-97d8930daad1"/><linearGradient id="c759d9a3-837e-48a8-a400-cae65fe71899" x1="87.86" y1="162.68" x2="87.86" y2="184.29" gradientTransform="translate(457.79 750) rotate(180)" xlink:href="#6aa03aa6-2320-4b9c-975d-97d8930daad1"/><linearGradient id="75ebe009-e517-4893-85d4-e519c6503ce3" x1="55.07" y1="171.25" x2="55.07" y2="184.69" gradientTransform="translate(457.79 750) rotate(180)" xlink:href="#6aa03aa6-2320-4b9c-975d-97d8930daad1"/><linearGradient id="6f13a301-0c50-40a0-870c-07be8825c251" x1="77.13" y1="180.05" x2="77.13" y2="200.13" gradientTransform="translate(457.79 750) rotate(180)" xlink:href="#6aa03aa6-2320-4b9c-975d-97d8930daad1"/><linearGradient id="6de067f0-fe35-44c7-99e9-1130d07ca41f" x1="45.01" y1="191.94" x2="45.01" y2="205.52" gradientTransform="translate(457.79 750) rotate(180)" xlink:href="#6aa03aa6-2320-4b9c-975d-97d8930daad1"/><linearGradient id="50b0576b-2650-4798-9bea-7d3f0da02f01" x1="68.82" y1="198.84" x2="68.82" y2="216.96" gradientTransform="translate(457.79 750) rotate(180)" xlink:href="#6aa03aa6-2320-4b9c-975d-97d8930daad1"/><linearGradient id="78f6a0e2-3cd6-4a4e-afc1-6723c4529142" x1="37.94" y1="213.68" x2="37.94" y2="227.71" gradientTransform="translate(457.79 750) rotate(180)" xlink:href="#6aa03aa6-2320-4b9c-975d-97d8930daad1"/><linearGradient id="6b791e62-02b4-4650-b949-ae66ab0dfb42" x1="62.79" y1="218.59" x2="62.79" y2="234.69" gradientTransform="translate(457.79 750) rotate(180)" xlink:href="#6aa03aa6-2320-4b9c-975d-97d8930daad1"/><linearGradient id="86bcad5b-e31b-47ed-ba37-81c7ebcde165" x1="33.84" y1="236.11" x2="33.84" y2="250.77" gradientTransform="translate(457.79 750) rotate(180)" xlink:href="#6aa03aa6-2320-4b9c-975d-97d8930daad1"/><linearGradient id="da504137-190a-4f78-af8b-2ab9a957be80" x1="59.17" y1="238.89" x2="59.17" y2="253.29" gradientTransform="translate(457.79 750) rotate(180)" xlink:href="#6aa03aa6-2320-4b9c-975d-97d8930daad1"/><linearGradient id="f58b3d28-8bcb-4db0-bc30-e2f1b79cf89e" x1="32.71" y1="258.84" x2="32.71" y2="274.39" gradientTransform="translate(457.79 750) rotate(180)" xlink:href="#6aa03aa6-2320-4b9c-975d-97d8930daad1"/><linearGradient id="94f7d929-98a3-495f-819f-8c893677081d" x1="58.09" y1="259.43" x2="58.09" y2="272.75" gradientTransform="translate(457.79 750) rotate(180)" xlink:href="#6aa03aa6-2320-4b9c-975d-97d8930daad1"/><linearGradient id="e620b88c-1e0b-49ba-8557-bee22e312bf4" x1="34.52" y1="281.49" x2="34.52" y2="298.29" gradientTransform="translate(457.79 750) rotate(180)" xlink:href="#6aa03aa6-2320-4b9c-975d-97d8930daad1"/><linearGradient id="5cb45e0f-f880-4abd-9272-622ab8fcf802" x1="59.61" y1="279.85" x2="59.61" y2="292.45" gradientTransform="translate(457.79 750) rotate(180)" xlink:href="#6aa03aa6-2320-4b9c-975d-97d8930daad1"/><linearGradient id="ead087ac-e9f7-48b3-a47e-681f55abe02e" x1="39.43" y1="303.64" x2="39.43" y2="322.14" gradientTransform="translate(457.79 750) rotate(180)" xlink:href="#6aa03aa6-2320-4b9c-975d-97d8930daad1"/><linearGradient id="ba3dab86-b4ce-478e-b33e-2130620e64df" x1="63.8" y1="299.81" x2="63.8" y2="311.98" gradientTransform="translate(457.79 750) rotate(180)" xlink:href="#6aa03aa6-2320-4b9c-975d-97d8930daad1"/><linearGradient id="3c033095-c487-4471-949a-5e1a827d4dbf" x1="47.46" y1="324.91" x2="47.46" y2="345.19" gradientTransform="translate(457.79 750) rotate(180)" xlink:href="#6aa03aa6-2320-4b9c-975d-97d8930daad1"/><linearGradient id="f42f5f88-ebe8-4032-ae94-33da435b9faa" x1="70.44" y1="318.9" x2="70.44" y2="330.96" gradientTransform="translate(457.79 750) rotate(180)" xlink:href="#6aa03aa6-2320-4b9c-975d-97d8930daad1"/><linearGradient id="67279e02-cb82-4084-9e09-01791d07aad5" x1="58.05" y1="344.9" x2="58.05" y2="366.83" gradientTransform="translate(457.79 750) rotate(180)" xlink:href="#6aa03aa6-2320-4b9c-975d-97d8930daad1"/><linearGradient id="13428778-08e6-462b-adcd-6e990043f498" x1="79.37" y1="336.85" x2="79.37" y2="349.04" gradientTransform="translate(457.79 750) rotate(180)" xlink:href="#6aa03aa6-2320-4b9c-975d-97d8930daad1"/><linearGradient id="29cfadd5-9659-4c32-903d-54aa30044b45" x1="71.16" y1="363.39" x2="71.16" y2="386.71" gradientTransform="translate(457.79 750) rotate(180)" xlink:href="#6aa03aa6-2320-4b9c-975d-97d8930daad1"/><linearGradient id="13ac2783-43d5-47fc-83ac-58f3275d2782" x1="90.6" y1="353.27" x2="90.6" y2="365.83" gradientTransform="translate(457.79 750) rotate(180)" xlink:href="#6aa03aa6-2320-4b9c-975d-97d8930daad1"/><linearGradient id="977a0776-1b7b-40d3-9044-18d78c839ad5" x1="90.66" y1="371.15" x2="90.66" y2="392.77" gradientTransform="translate(457.79 750) rotate(180)" xlink:href="#6aa03aa6-2320-4b9c-975d-97d8930daad1"/><linearGradient id="a1e59328-ebe2-4eda-b02e-07b9029982b3" x1="-11.06" y1="394.04" x2="190.13" y2="41.96" gradientTransform="translate(457.79 750) rotate(180)" xlink:href="#7e4b806a-c2b5-4957-b8eb-35f2156ad320"/><linearGradient id="e9cb06db-64c5-4262-bb2f-f8f3b92e0025" x1="4.37" y1="402.82" x2="205.54" y2="50.76" gradientTransform="translate(457.79 750) rotate(180)" xlink:href="#7e4b806a-c2b5-4957-b8eb-35f2156ad320"/><linearGradient id="1af46a3f-46a3-4778-9998-ea1be3fdd8ca" x1="-24.41" y1="386.45" x2="176.8" y2="34.34" gradientTransform="translate(457.79 750) rotate(180)" xlink:href="#7e4b806a-c2b5-4957-b8eb-35f2156ad320"/><linearGradient id="a8730a8e-f0b6-4bf0-97b8-c3692dd0170b" x1="-6.93" y1="396.35" x2="194.24" y2="44.32" gradientTransform="translate(457.79 750) rotate(180)" xlink:href="#7e4b806a-c2b5-4957-b8eb-35f2156ad320"/><linearGradient id="f4e30492-5949-4b54-b9b5-02df68e9ca14" x1="-35.43" y1="380.19" x2="165.79" y2="28.06" gradientTransform="translate(457.79 750) rotate(180)" xlink:href="#7e4b806a-c2b5-4957-b8eb-35f2156ad320"/><linearGradient id="9bf3c8aa-10b5-4e23-98da-4de8a0d7b7e3" x1="-16.31" y1="390.96" x2="184.83" y2="38.97" gradientTransform="translate(457.79 750) rotate(180)" xlink:href="#7e4b806a-c2b5-4957-b8eb-35f2156ad320"/><linearGradient id="57455399-3a14-4620-94e0-49590111e44e" x1="-44.35" y1="375.12" x2="156.89" y2="22.96" gradientTransform="translate(457.79 750) rotate(180)" xlink:href="#7e4b806a-c2b5-4957-b8eb-35f2156ad320"/><linearGradient id="3fe2f311-563b-405b-ac56-f7e41bb4fb58" x1="-23.57" y1="386.81" x2="177.56" y2="34.84" gradientTransform="translate(457.79 750) rotate(180)" xlink:href="#7e4b806a-c2b5-4957-b8eb-35f2156ad320"/><linearGradient id="040c0886-f5dd-4c8c-a9bc-38fded360d91" x1="-50.49" y1="371.63" x2="150.76" y2="19.45" gradientTransform="translate(457.79 750) rotate(180)" xlink:href="#7e4b806a-c2b5-4957-b8eb-35f2156ad320"/><linearGradient id="a84b911b-9c07-455f-a179-610bc62d82ac" x1="-29" y1="383.69" x2="172.11" y2="31.75" gradientTransform="translate(457.79 750) rotate(180)" xlink:href="#7e4b806a-c2b5-4957-b8eb-35f2156ad320"/><linearGradient id="fff56c7f-3c6b-4848-9acf-8bc521a0f341" x1="-54.21" y1="369.53" x2="147.05" y2="17.32" gradientTransform="translate(457.79 750) rotate(180)" xlink:href="#7e4b806a-c2b5-4957-b8eb-35f2156ad320"/><linearGradient id="d5354151-21e6-4f47-afc6-688a691d844a" x1="-32.18" y1="381.93" x2="168.95" y2="29.94" gradientTransform="translate(457.79 750) rotate(180)" xlink:href="#7e4b806a-c2b5-4957-b8eb-35f2156ad320"/><linearGradient id="a886f127-065b-48e1-9529-3658ebded996" x1="-55.4" y1="368.86" x2="145.87" y2="16.63" gradientTransform="translate(457.79 750) rotate(180)" xlink:href="#7e4b806a-c2b5-4957-b8eb-35f2156ad320"/><linearGradient id="30d045da-1247-4078-8b2e-c5d67a6b416b" x1="-33.16" y1="381.41" x2="168" y2="29.38" gradientTransform="translate(457.79 750) rotate(180)" xlink:href="#7e4b806a-c2b5-4957-b8eb-35f2156ad320"/><linearGradient id="c15e2e2d-2972-4bdc-99a4-5bdbbc586c4d" x1="-53.79" y1="369.79" x2="147.5" y2="17.53" gradientTransform="translate(457.79 750) rotate(180)" xlink:href="#7e4b806a-c2b5-4957-b8eb-35f2156ad320"/><linearGradient id="280d4de8-97bc-46dd-b52c-0854f3294a32" x1="-31.94" y1="382.14" x2="169.24" y2="30.07" gradientTransform="translate(457.79 750) rotate(180)" xlink:href="#7e4b806a-c2b5-4957-b8eb-35f2156ad320"/><linearGradient id="16ffc67e-568e-4325-a232-6a98f30cca54" x1="-49.66" y1="372.14" x2="151.63" y2="19.89" gradientTransform="translate(457.79 750) rotate(180)" xlink:href="#7e4b806a-c2b5-4957-b8eb-35f2156ad320"/><linearGradient id="eec54804-cce5-4143-9526-c93ed5f79367" x1="-28.4" y1="384.18" x2="172.8" y2="32.08" gradientTransform="translate(457.79 750) rotate(180)" xlink:href="#7e4b806a-c2b5-4957-b8eb-35f2156ad320"/><linearGradient id="92c0f28a-5021-4320-8d18-ce18c08aef33" x1="-42.75" y1="376.07" x2="158.53" y2="23.81" gradientTransform="translate(457.79 750) rotate(180)" xlink:href="#7e4b806a-c2b5-4957-b8eb-35f2156ad320"/><linearGradient id="6934e1fd-37a3-4658-a709-f1be28a5afb0" x1="-22.82" y1="387.38" x2="178.39" y2="35.25" gradientTransform="translate(457.79 750) rotate(180)" xlink:href="#7e4b806a-c2b5-4957-b8eb-35f2156ad320"/><linearGradient id="83956d29-e32b-41b6-8967-6b5afb20ed59" x1="-33.65" y1="381.24" x2="167.63" y2="29.01" gradientTransform="translate(457.79 750) rotate(180)" xlink:href="#7e4b806a-c2b5-4957-b8eb-35f2156ad320"/><linearGradient id="a6a722f7-8656-4221-8853-8b71dde8c409" x1="-14.97" y1="391.87" x2="186.26" y2="39.72" gradientTransform="translate(457.79 750) rotate(180)" xlink:href="#7e4b806a-c2b5-4957-b8eb-35f2156ad320"/><linearGradient id="0af049bc-5a27-4ea7-a2d2-8ec53ed69d86" x1="-22.37" y1="387.67" x2="178.89" y2="35.46" gradientTransform="translate(457.79 750) rotate(180)" xlink:href="#7e4b806a-c2b5-4957-b8eb-35f2156ad320"/><linearGradient id="3a8f7e49-d1b3-416b-8afb-33cc2ab2f8e9" x1="-5.45" y1="397.32" x2="195.8" y2="45.13" gradientTransform="translate(457.79 750) rotate(180)" xlink:href="#7e4b806a-c2b5-4957-b8eb-35f2156ad320"/><linearGradient id="2d207f20-0939-4de2-8415-9630ff82b946" x1="-9.11" y1="395.22" x2="192.13" y2="43.04" gradientTransform="translate(457.79 750) rotate(180)" xlink:href="#7e4b806a-c2b5-4957-b8eb-35f2156ad320"/><linearGradient id="58a529e4-8585-4b60-97f2-079ce8b53cf3" x1="6.02" y1="403.87" x2="207.29" y2="51.66" gradientTransform="translate(457.79 750) rotate(180)" xlink:href="#7e4b806a-c2b5-4957-b8eb-35f2156ad320"/><linearGradient id="4a18df55-9386-40a3-b5b7-196d1fb6cb98" x1="6.06" y1="403.87" x2="207.29" y2="51.72" gradientTransform="translate(457.79 750) rotate(180)" xlink:href="#7e4b806a-c2b5-4957-b8eb-35f2156ad320"/><linearGradient id="d55523fb-b6b2-4ff3-be3d-3090314b2d80" x1="18.94" y1="411.26" x2="220.24" y2="58.99" gradientTransform="translate(457.79 750) rotate(180)" xlink:href="#7e4b806a-c2b5-4957-b8eb-35f2156ad320"/><linearGradient id="e7368c1b-0894-4d62-aace-717b766626a5" x1="22.78" y1="413.4" x2="224" y2="61.28" gradientTransform="translate(457.79 750) rotate(180)" xlink:href="#7e4b806a-c2b5-4957-b8eb-35f2156ad320"/><linearGradient id="3e7a3998-628b-42bd-a342-cf75aa023422" x1="33.36" y1="419.49" x2="234.68" y2="67.19" gradientTransform="translate(457.79 750) rotate(180)" xlink:href="#7e4b806a-c2b5-4957-b8eb-35f2156ad320"/><linearGradient id="41daa1c4-e805-4666-ac90-60f40222f6cb" x1="40.79" y1="423.68" x2="242" y2="71.56" gradientTransform="translate(457.79 750) rotate(180)" xlink:href="#7e4b806a-c2b5-4957-b8eb-35f2156ad320"/><linearGradient id="5efde931-e89c-4f55-8924-7982b76c0a61" x1="48.79" y1="428.29" x2="250.1" y2="76" gradientTransform="translate(457.79 750) rotate(180)" xlink:href="#7e4b806a-c2b5-4957-b8eb-35f2156ad320"/><linearGradient id="341e8e52-915f-47d3-9acf-6092b92531a1" x1="59.76" y1="434.49" x2="260.92" y2="82.45" gradientTransform="translate(457.79 750) rotate(180)" xlink:href="#7e4b806a-c2b5-4957-b8eb-35f2156ad320"/><linearGradient id="d3ca434d-e9e5-4ff9-98d4-e3f62b956611" x1="167.16" y1="99.11" x2="167.16" y2="371.2" xlink:href="#6aa03aa6-2320-4b9c-975d-97d8930daad1"/><linearGradient id="ec380cfc-c009-4f20-a03d-b8acf7117123" x1="167.9" y1="99.08" x2="167.9" y2="371.2" gradientTransform="matrix(1, 0, 0, -1, 0, 750)" gradientUnits="userSpaceOnUse"><stop offset="0" stop-color="#fdbd30"/><stop offset="0.47" stop-color="#fceb83"/><stop offset="1" stop-color="#ffe367"/></linearGradient><linearGradient id="ec6f2b04-7f6d-487e-9526-f026ceb17dfc" x1="99.66" y1="99.11" x2="99.66" y2="371.2" gradientTransform="translate(433.19 750) rotate(180)" xlink:href="#6aa03aa6-2320-4b9c-975d-97d8930daad1"/><linearGradient id="cbd6b1a8-21e4-40e3-a8e5-1d4a8a62d2f8" x1="100.29" y1="99.08" x2="100.29" y2="371.2" gradientTransform="translate(433.19 750) rotate(180)" xlink:href="#ec380cfc-c009-4f20-a03d-b8acf7117123"/><linearGradient id="a6f32ff5-2937-4812-b393-524e80b039b5" x1="261.44" y1="0.22" x2="300.81" y2="0.22" xlink:href="#96332910-3df7-4489-91c4-69e56d7d6f7f"/><linearGradient id="2d07882c-bde3-4293-ac8f-509a34261fb9" x1="181.89" y1="115.36" x2="300.81" y2="115.36" xlink:href="#aa975308-7208-4636-a706-485d2f28986e"/><linearGradient id="c6065385-5032-40ae-b038-7499564be260" x1="221.27" y1="115.32" x2="340.17" y2="115.32" xlink:href="#a0f86408-59ef-49b6-a159-9d5795635817"/><linearGradient id="7f3ff21d-8414-4b0e-a94b-7007b68edc67" x1="300.81" y1="0.13" x2="340.17" y2="0.13" xlink:href="#a0f86408-59ef-49b6-a159-9d5795635817"/><linearGradient id="6c5c45a1-4223-4efa-b8ca-1df87afbcf77" x1="260.56" y1="115.27" x2="379.53" y2="115.27" xlink:href="#d90cc860-1b13-4341-bfd5-3a37ca23efed"/><linearGradient id="4b856808-9a12-4cba-bcf0-45b8f13503af" x1="340.17" y1="0.04" x2="379.53" y2="0.04" xlink:href="#27ad7cbf-a437-41d3-87aa-0a7c92c6cf9c"/><linearGradient id="166dffbe-5d1f-45ba-b16b-e68b1e905857" x1="142.89" y1="547.88" x2="176.73" y2="547.88" gradientTransform="matrix(1, 0, 0, 1, 0, 0)" xlink:href="#7e4b806a-c2b5-4957-b8eb-35f2156ad320"/><linearGradient id="eb24e619-84aa-4721-bbed-d63cf0e1aa0a" x1="184.62" y1="523.37" x2="226.24" y2="523.37" gradientTransform="matrix(1, 0, 0, 1, 0, 0)" xlink:href="#7e4b806a-c2b5-4957-b8eb-35f2156ad320"/><linearGradient id="78851de9-f3ba-4531-b501-1b7267b59598" x1="244.74" y1="484.19" x2="313.94" y2="484.19" gradientTransform="matrix(1, 0, 0, 1, 0, 0)" xlink:href="#7e4b806a-c2b5-4957-b8eb-35f2156ad320"/><linearGradient id="275c9138-c425-4301-b6eb-bf9f211ba215" x1="166.19" y1="528.3" x2="191" y2="528.3" gradientTransform="matrix(1, 0, 0, 1, 0, 0)" xlink:href="#7e4b806a-c2b5-4957-b8eb-35f2156ad320"/><linearGradient id="8fc7e5c1-ce6b-49c2-a676-347e39639b00" x1="212.72" y1="487.76" x2="247.68" y2="487.76" gradientTransform="matrix(1, 0, 0, 1, 0, 0)" xlink:href="#7e4b806a-c2b5-4957-b8eb-35f2156ad320"/><linearGradient id="9f5a2f54-ff96-4a45-a422-c43cfef1f357" x1="322.87" y1="424.51" x2="333.19" y2="424.51" gradientTransform="matrix(1, 0, 0, 1, 0, 0)" xlink:href="#7e4b806a-c2b5-4957-b8eb-35f2156ad320"/><linearGradient id="20b0afff-50bb-43fa-81c6-cd60b664bc03" x1="142.89" y1="478.18" x2="324.42" y2="478.18" gradientTransform="matrix(1, 0, 0, 1, 0, 0)" xlink:href="#7e4b806a-c2b5-4957-b8eb-35f2156ad320"/></defs><title>arrow_gold</title><polygon points="102.51 0.63 181.89 230.54 221.27 230.54 141.82 0.54 102.51 0.63" fill="url(#aa975308-7208-4636-a706-485d2f28986e)"/><line x1="102.51" y1="0.63" x2="141.82" y2="0.54" fill="url(#96332910-3df7-4489-91c4-69e56d7d6f7f)"/><line x1="141.82" y1="0.54" x2="181.12" y2="0.45" fill="url(#a0f86408-59ef-49b6-a159-9d5795635817)"/><polygon points="141.82 0.54 221.27 230.54 260.56 230.54 181.12 0.45 141.82 0.54" fill="url(#224aa448-0b8a-4e1b-bb77-f51d9a89a373)"/><polygon points="181.12 0.45 260.56 230.54 299.94 230.54 220.42 0.36 181.12 0.45" fill="url(#d90cc860-1b13-4341-bfd5-3a37ca23efed)"/><line x1="181.12" y1="0.45" x2="220.42" y2="0.36" fill="url(#27ad7cbf-a437-41d3-87aa-0a7c92c6cf9c)"/><g id="a207888b-5b45-4d37-bd4e-d1ce06cc7fe7" data-name="guld"><path d="M333,277.88H167.09V234.69c0-13.84,11.61-25.05,26-25.05H307c14.35,0,26,11.21,26,25.05v43.19ZM180.75,264.72H319.26V234.79A12.16,12.16,0,0,0,307,222.9H193.15a12.09,12.09,0,0,0-12.3,11.89v29.93Z" transform="translate(-9.74 0.19)" fill="url(#896c1446-d2d3-4a7b-934d-3c8724454589)"/><path d="M336.73,277.88H163.38V230.8a27.33,27.33,0,0,1,27.33-27.3H309.3a27.34,27.34,0,0,1,27.34,27.3v47.08ZM177.82,263.55H322.29V230.89a13,13,0,0,0-13-13H190.8a13,13,0,0,0-13,13Z" transform="translate(-9.74 0.19)" fill="url(#b85db087-133a-4bff-854d-d7d73f6ca7c4)"/><path d="M336.73,278l-18.45.19-18.44.1-36.8.2c-12.3.09-50.47-.1-62.77-.1l-36.8-.2h-.29v-.29c.1-11.31.2-22.71.1-34v-8.48a63.59,63.59,0,0,1,.29-8.58,27.95,27.95,0,0,1,22.55-23.4,42.72,42.72,0,0,1,8.59-.49l8.49-.09,60-.1h46.86l2.14.1,2.15.29A27.87,27.87,0,0,1,337,226.6a63.7,63.7,0,0,1,.29,8.58l-.1,8.48Zm-.09-.2-.3-34-.09-8.48a47.56,47.56,0,0,0-.4-8.38,26.48,26.48,0,0,0-7.32-14.63,27.07,27.07,0,0,0-14.44-7.6l-2-.29-2.15-.1c-1.37-.1-2.83,0-4.2,0H263.13l-60-.1-8.49-.1a40.37,40.37,0,0,0-8.39.39,27,27,0,0,0-14.64,7.61,26.52,26.52,0,0,0-7.42,14.72,59.5,59.5,0,0,0-.39,8.48v8.48c-.1,11.31,0,22.72.09,34l-.29-.29,36.8-.19c12.3,0,50.47-.2,62.76-.1l36.8.19,18.45.1Z" transform="translate(-9.74 0.19)" fill="url(#92d0d5d9-a782-4510-ba2b-4edb45c38856)"/><path d="M177.92,263.45c9.86-.19,19.72-.29,29.58-.39l55.54-.19c9.86,0,19.71.1,29.67.1l29.67.19-.29.29c.1-8.28,0-16.57,0-24.86v-6.24a16.93,16.93,0,0,0-.78-5.94,12.38,12.38,0,0,0-8.59-7.7,20.69,20.69,0,0,0-6.05-.39l-6.25.09-12.39.1-24.9.1H200l-6.25-.1c-2,0-4.19-.19-6,.39a12.52,12.52,0,0,0-8.49,7.61,13.31,13.31,0,0,0-.78,5.94l-.1,6.24Zm-.2.1-.29-24.86-.1-6.24a15.08,15.08,0,0,1,.79-6.24,13.53,13.53,0,0,1,9.17-8.48,23.8,23.8,0,0,1,6.35-.49l6.24-.09H263l24.89.09,12.39.1,6.25.1a22.38,22.38,0,0,1,6.25.49,13.46,13.46,0,0,1,9.08,8.38,15.22,15.22,0,0,1,.78,6.24v6.24c0,8.29-.1,16.57,0,24.86v.29h-.3l-29.67.2c-9.86,0-19.72.19-29.67.09L207.5,264c-10-.1-19.82-.29-29.78-.49Z" transform="translate(-9.74 0.19)" fill="url(#10a44428-52c5-4c3b-9c63-d3498e5f364f)"/><ellipse cx="240.61" cy="485.23" rx="240.61" ry="240.3" fill="url(#60b04aeb-a620-48b9-a16e-e9f36785f901)"/><ellipse cx="240.61" cy="485.23" rx="235.24" ry="234.94" fill="url(#301bbdc4-b901-4b46-a9c7-9d0feb99abcf)"/><path d="M485.69,485s0,1.46-.1,4.19,0,6.92-.49,12.38a219.08,219.08,0,0,1-7.81,46.21c-.68,2.44-1.36,5-2.14,7.51s-1.76,5.07-2.64,7.8-1.95,5.26-3,8-2.05,5.56-3.41,8.29a225.3,225.3,0,0,1-18.74,34.7,238.4,238.4,0,0,1-66.09,67,244.09,244.09,0,0,1-48,24.86c-2.15.88-4.39,1.56-6.64,2.34s-4.49,1.56-6.73,2.25-4.59,1.26-6.93,2l-3.52,1-3.51.78c-2.34.58-4.69,1.07-7.13,1.66s-4.78.87-7.22,1.36c-4.78,1-9.76,1.46-14.64,2.15-2.44.39-5,.48-7.42.68l-7.52.58c-2.53.1-5.07.1-7.61.2l-3.81.1c-1.27,0-2.54-.1-3.8-.1-2.54-.1-5.08-.1-7.62-.2s-5.17-.39-7.71-.58c-5.17-.29-10.35-1.07-15.52-1.76A245.94,245.94,0,0,1,185,711.6c-5.18-1.37-10.15-3.22-15.33-5-2.53-1-5-2-7.51-2.93l-3.81-1.46-3.71-1.66a235.66,235.66,0,0,1-55.83-34.9,247.39,247.39,0,0,1-24.11-23.39,265.26,265.26,0,0,1-20.79-26.81A247.63,247.63,0,0,1,37,585.74a236.6,236.6,0,0,1-12.4-32.07A248.21,248.21,0,0,1,17,519.94a273.28,273.28,0,0,1-2.64-34.51,257.28,257.28,0,0,1,2.44-34.51,233.79,233.79,0,0,1,7.52-33.73A245.87,245.87,0,0,1,36.58,385a249.32,249.32,0,0,1,16.79-29.93,235.89,235.89,0,0,1,101-85.2l3.71-1.66,3.8-1.46c2.54-1,5-2,7.52-2.93,5.07-1.65,10.15-3.6,15.32-4.87a231.22,231.22,0,0,1,30.95-6.73c5.17-.68,10.34-1.46,15.52-1.65,2.53-.2,5.17-.49,7.71-.59s5.17-.1,7.71-.19c1.27,0,2.54-.1,3.81-.1l3.8.1c2.54.09,5.08.09,7.52.19l7.51.59c2.54.19,5,.29,7.52.68,5,.58,9.86,1.17,14.64,2.14,2.44.49,4.88.78,7.23,1.37s4.78,1.07,7.12,1.65l3.51.78,3.52,1c2.34.68,4.59,1.27,6.93,1.95s4.49,1.46,6.73,2.24,4.49,1.46,6.64,2.34a242.74,242.74,0,0,1,48,24.86,237,237,0,0,1,66,67.07,225.38,225.38,0,0,1,18.74,34.71c1.27,2.72,2.35,5.55,3.42,8.28s2.15,5.36,3,8,1.75,5.26,2.63,7.79c.68,2.54,1.46,5.07,2.15,7.51a226.55,226.55,0,0,1,7.81,46.21c.49,5.36.39,9.55.49,12.38A27.76,27.76,0,0,1,485.69,485Zm-.2,0s0-1.46-.1-4.19,0-6.92-.58-12.29a221.12,221.12,0,0,0-8-46c-.69-2.44-1.47-4.87-2.15-7.41-.88-2.53-1.76-5.07-2.64-7.7s-1.95-5.26-3-8-2.15-5.46-3.42-8.19a223.54,223.54,0,0,0-18.84-34.41,236.73,236.73,0,0,0-66.08-66.3,239.83,239.83,0,0,0-47.83-24.37A234.86,234.86,0,0,0,277,252.83c-2.44-.39-4.89-.49-7.42-.69l-7.42-.58c-2.54-.1-5.08-.1-7.52-.2l-3.8-.09c-1.18,0-2.54.09-3.81.09-2.54.1-5.08.1-7.61.2s-5.08.39-7.62.49c-5.17.29-10.25,1.07-15.42,1.65a228,228,0,0,0-30.75,6.63c-5.17,1.37-10.15,3.22-15.23,4.88-2.53.88-5,2-7.51,2.92l-3.71,1.46-3.71,1.66a234.8,234.8,0,0,0-79.55,57.81,241.17,241.17,0,0,0-20.7,26.71,233.13,233.13,0,0,0-16.79,29.64A229.16,229.16,0,0,0,26,417.29a245.45,245.45,0,0,0-7.62,33.53,268.48,268.48,0,0,0-2.63,34.41,254.2,254.2,0,0,0,2.44,34.42,249.59,249.59,0,0,0,7.42,33.63,229.24,229.24,0,0,0,12.3,32A259.79,259.79,0,0,0,54.64,615a235.21,235.21,0,0,0,100.63,84.52l3.71,1.66,3.71,1.46c2.54,1,5,2,7.52,2.92,5.07,1.66,10,3.51,15.23,4.88a244.33,244.33,0,0,0,30.74,6.63c5.18.58,10.25,1.36,15.43,1.65,2.53.2,5.07.39,7.61.49s5.08.1,7.61.2c1.27,0,2.54.09,3.81.09l3.81-.09c2.54-.1,5.07-.1,7.51-.2l7.52-.58c2.44-.2,5-.3,7.42-.69a237.12,237.12,0,0,0,103.66-37.82,236,236,0,0,0,84.92-100.7c1.37-2.73,2.35-5.56,3.42-8.19s2.15-5.36,3-8,1.76-5.16,2.64-7.7,1.46-5.07,2.15-7.41a228.08,228.08,0,0,0,8-46c.49-5.36.39-9.55.59-12.28C485.49,486.5,485.49,485,485.49,485Z" transform="translate(-9.74 0.19)" fill="url(#d76dbd42-8647-4c73-ad9b-bf4de0ec4f27)"/><g id="9fd6198a-facd-4585-b2a1-377155e26c53" data-name="SVGID"><g clip-path="url(#3cd649cb-796e-459c-9fa3-780a99eb08a8)"><path d="M361.72,271.93a240.22,240.22,0,0,0-111.37-27.19C117.4,244.74,9.74,352.36,9.74,485A239.77,239.77,0,0,0,91.92,666c3-.78,6.06-1.65,9.08-2.53a298.37,298.37,0,0,0,129.63-78C290.27,524.13,308,440.29,331.07,360.74,339.37,331.79,349,301.18,361.72,271.93Z" transform="translate(-9.74 0.19)" fill="url(#7147c8f7-2d6a-4420-9b5d-5068500c2141)"/></g></g><path d="M361.72,271.93a240.22,240.22,0,0,0-111.37-27.19C117.4,244.74,9.74,352.36,9.74,485A239.77,239.77,0,0,0,91.92,666c3-.78,6.06-1.65,9.08-2.53a298.37,298.37,0,0,0,129.63-78C290.27,524.13,308,440.29,331.07,360.74,339.37,331.79,349,301.18,361.72,271.93Z" transform="translate(-9.74 0.19)" opacity="0.6" fill="url(#05188344-f95f-4e7a-ae7c-1f90a193fa90)" style="isolation:isolate"/><ellipse cx="240.61" cy="485.23" rx="206.74" ry="206.48" fill="url(#05c780ef-e874-4fa6-8d71-ee6dcb24d982)"/><ellipse cx="240.61" cy="485.23" rx="201.37" ry="201.11" fill="url(#973348bf-c58f-44ac-8161-fa0d10a09387)"/><path d="M457.19,485s0,1.27-.1,3.7,0,6.15-.49,10.83a193.72,193.72,0,0,1-6.83,40.55c-.59,2.14-1.27,4.29-1.86,6.63-.78,2.24-1.46,4.48-2.24,6.82a69.12,69.12,0,0,1-2.64,7c-1,2.34-1.85,4.88-3,7.31a204.86,204.86,0,0,1-16.4,30.52,207.06,207.06,0,0,1-100.35,80.81c-1.85.78-3.9,1.37-5.85,2s-3.91,1.36-6,2-4,1.17-6.05,1.75-4.1,1.17-6.15,1.56L293,688c-2.05.48-4.19.78-6.34,1.17-4.2.87-8.59,1.26-12.89,1.85-2.14.29-4.39.39-6.54.58s-4.39.3-6.63.49-4.49.1-6.64.2l-3.32.09c-1.17,0-2.24-.09-3.42-.09-2.24-.1-4.49-.1-6.73-.2s-4.49-.29-6.83-.49c-4.59-.29-9.08-1-13.67-1.56a205.38,205.38,0,0,1-27.23-5.94c-4.49-1.17-9-2.83-13.47-4.39-2.25-.78-4.4-1.75-6.64-2.63l-3.32-1.37-3.22-1.46A206.85,206.85,0,0,1,117,643.55,210.71,210.71,0,0,1,95.83,623a237,237,0,0,1-18.25-23.59,213.55,213.55,0,0,1-14.84-26.13,204.44,204.44,0,0,1-10.93-28.17,216.66,216.66,0,0,1-6.74-29.63,242.36,242.36,0,0,1-2.34-30.32,225.93,225.93,0,0,1,2.15-30.42A220.84,220.84,0,0,1,51.42,425a205.25,205.25,0,0,1,10.83-28.27A223.63,223.63,0,0,1,77,370.4a207.8,207.8,0,0,1,88.83-75L169,294l3.32-1.27c2.24-.88,4.39-1.76,6.63-2.63,4.49-1.47,8.89-3.12,13.47-4.29a205.56,205.56,0,0,1,27.24-5.95c4.59-.58,9.08-1.27,13.66-1.46,2.25-.2,4.49-.39,6.84-.49s4.49-.1,6.73-.19c1.17,0,2.25-.1,3.42-.1l3.32.1c2.24.09,4.39.09,6.63.19s4.4.29,6.64.49,4.39.29,6.54.58A202.84,202.84,0,0,1,323,290.85a206,206,0,0,1,42.27,21.93,211.4,211.4,0,0,1,58.07,59,198.7,198.7,0,0,1,16.4,30.51c1.17,2.44,2.05,4.88,3,7.32s1.85,4.67,2.63,7,1.57,4.59,2.25,6.83,1.27,4.48,1.85,6.63a200,200,0,0,1,6.84,40.55c.39,4.78.29,8.39.48,10.82A24,24,0,0,1,457.19,485Zm-.2,0s0-1.27-.1-3.7,0-6.15-.49-10.83a201.1,201.1,0,0,0-7-40.45c-.59-2.15-1.27-4.29-1.86-6.53-.78-2.25-1.56-4.49-2.34-6.83s-1.76-4.68-2.64-7-1.85-4.87-3-7.21a204.39,204.39,0,0,0-16.6-30.32A206.53,206.53,0,0,0,273.68,280.9c-2.15-.29-4.3-.39-6.54-.58s-4.4-.29-6.54-.49-4.4-.1-6.64-.19l-3.32-.1-3.32.1c-2.24.09-4.49.09-6.73.19s-4.49.29-6.74.49c-4.49.19-9,.88-13.47,1.46a187.86,187.86,0,0,0-26.94,5.85c-4.49,1.17-8.88,2.83-13.37,4.29-2.25.78-4.39,1.75-6.54,2.53l-3.32,1.27L167,297.18a204.3,204.3,0,0,0-48.81,30.42A220.22,220.22,0,0,0,97.1,348a209.79,209.79,0,0,0-33,49.43,201.23,201.23,0,0,0-17.57,57.52,239.19,239.19,0,0,0-2.35,30.22,224.62,224.62,0,0,0,2.15,30.22,218.16,218.16,0,0,0,6.54,29.54,204.52,204.52,0,0,0,10.84,28.17A214.14,214.14,0,0,0,78.45,599.2a206.49,206.49,0,0,0,88.44,74.28l3.22,1.46,3.32,1.27c2.25.88,4.39,1.76,6.64,2.53,4.49,1.47,8.88,3.12,13.37,4.29a205.34,205.34,0,0,0,27,5.76c4.49.58,9,1.26,13.57,1.46,2.24.1,4.49.39,6.73.49s4.49.09,6.74.19c1.07,0,2.24.1,3.32.1l3.31-.1c2.25-.1,4.4-.1,6.64-.19s4.39-.3,6.54-.49,4.39-.29,6.54-.59a206.87,206.87,0,0,0,149.25-91.44,194.79,194.79,0,0,0,16.59-30.32c1.17-2.43,2.05-4.87,3-7.21a69,69,0,0,0,2.63-7c.79-2.34,1.57-4.58,2.35-6.82s1.27-4.39,1.85-6.54a195,195,0,0,0,7-40.45c.49-4.68.39-8.39.49-10.82C457,486.31,457,485,457,485Z" transform="translate(-9.74 0.19)" fill="url(#d301b8b1-6d13-4b26-a275-22450a190dbf)"/><path d="M196.27,665.1a41.09,41.09,0,0,0,6.83-1,19.49,19.49,0,0,0,5-2,13.64,13.64,0,0,0,5.37-5.16,12.65,12.65,0,0,0,.88-9.17,55,55,0,0,0-9.76,9,28.17,28.17,0,0,1,1.85-3.21,38.12,38.12,0,0,1,6.35-7.12,16.44,16.44,0,0,0-4,.39,13.06,13.06,0,0,0-5.18,2C200.08,651.06,196.66,655.64,196.27,665.1Z" transform="translate(-9.74 0.19)" fill="url(#6aa03aa6-2320-4b9c-975d-97d8930daad1)"/><path d="M210.82,619.38a35,35,0,0,1,3.61,4.38,26.21,26.21,0,0,1,2.44,3.9,14.75,14.75,0,0,1,1.75,6.83,13.09,13.09,0,0,1-3.22,8.58,31.4,31.4,0,0,1-3.51-12.19,16.52,16.52,0,0,0-.2,3.7,25.21,25.21,0,0,0,1.86,9,13.33,13.33,0,0,1-3.32-2,11.58,11.58,0,0,1-3-4.59C205.74,633,206.13,627.47,210.82,619.38Z" transform="translate(-9.74 0.19)" fill="url(#91890936-91cb-4aad-8535-ac388be92137)"/><path d="M173.14,656.23c10.73.29,15.71-2.64,18.15-6a12.67,12.67,0,0,0,2.05-9,49.5,49.5,0,0,0-10.73,7.41,15.52,15.52,0,0,1,2.24-2.93,34.17,34.17,0,0,1,7.13-6,15.07,15.07,0,0,0-9.47,1.07C178.8,642.77,174.7,647,173.14,656.23Z" transform="translate(-9.74 0.19)" fill="url(#de555913-f78c-4b50-a29b-31d136e123f1)"/><path d="M193.54,612.75c5.07,6.43,6.34,12,5.76,16.08a12.74,12.74,0,0,1-4.3,8,37.48,37.48,0,0,1-1.85-12.77,27.78,27.78,0,0,0-.69,3.6,26.6,26.6,0,0,0,.59,9.26,12.83,12.83,0,0,1-5.37-7.41C186.71,625.61,187.88,620.25,193.54,612.75Z" transform="translate(-9.74 0.19)" fill="url(#5dade4ee-c6d5-49b3-ad70-bf9467095e73)"/><path d="M151.57,644.14a39.23,39.23,0,0,0,6.83.78,22.49,22.49,0,0,0,5.37-.69,13.94,13.94,0,0,0,6.54-3.6,12.58,12.58,0,0,0,3.22-8.58,55.42,55.42,0,0,0-11.72,6.14,26.29,26.29,0,0,1,2.64-2.63,38.23,38.23,0,0,1,8-5.17,16,16,0,0,0-4-.68,12.58,12.58,0,0,0-5.56.58C158.89,631.56,154.3,635.17,151.57,644.14Z" transform="translate(-9.74 0.19)" fill="url(#2b5b3c79-62fb-4bd3-9d87-a098001ead97)"/><path d="M177.43,603.78a44.41,44.41,0,0,1,2.34,5.16,35.69,35.69,0,0,1,1.37,4.39,13.93,13.93,0,0,1-.1,7,13.57,13.57,0,0,1-5.36,7.51,32.61,32.61,0,0,1-.2-12.77,22.09,22.09,0,0,0-1.17,3.51,25.87,25.87,0,0,0-.59,9.16,15.55,15.55,0,0,1-2.63-2.83,11.6,11.6,0,0,1-1.76-5.26C169,615.67,170.89,610.31,177.43,603.78Z" transform="translate(-9.74 0.19)" fill="url(#e5db48fb-d272-4361-936d-b3263adae972)"/><path d="M131.55,629.61c10.25,3,15.92,1.46,19-1.07a12.65,12.65,0,0,0,4.29-8.09,47.75,47.75,0,0,0-12.39,4.39,19,19,0,0,1,2.93-2.25,36.89,36.89,0,0,1,8.49-4,14.15,14.15,0,0,0-9.37-1.37C140.44,618.21,135.56,620.94,131.55,629.61Z" transform="translate(-9.74 0.19)" fill="url(#5bdab42b-e2e6-4365-b410-8216263f0c20)"/><path d="M162.5,593c3.32,7.5,3,13.16,1.46,17a12.94,12.94,0,0,1-6.25,6.63,36.35,36.35,0,0,1,1.57-12.77,17.3,17.3,0,0,0-1.57,3.31,28.46,28.46,0,0,0-1.85,9.07,13,13,0,0,1-3.32-8.48C152.54,603.68,155.18,598.51,162.5,593Z" transform="translate(-9.74 0.19)" fill="url(#3be7fc5d-ce66-40d3-a360-c7a68cb990ab)"/><path d="M113.79,612.36c9.47,4.68,15.52,3.51,19,1.36a12.47,12.47,0,0,0,5.27-7.5A56.49,56.49,0,0,0,125.21,609a20.25,20.25,0,0,1,3.22-1.85,39.61,39.61,0,0,1,3.81-1.46,48.43,48.43,0,0,1,5.17-1.37c-1.66-.87-4.88-2.82-9.08-2.63C124.14,602.12,118.77,604.46,113.79,612.36Z" transform="translate(-9.74 0.19)" fill="url(#42d85780-9eb3-4c8b-ae18-84605e401dae)"/><path d="M149.22,580.09c1.95,8.19,1.37,13.45-.78,17.06a12.9,12.9,0,0,1-7.12,5.85,31.36,31.36,0,0,1,3.12-12.38,24.42,24.42,0,0,0-2.05,3.12,23.41,23.41,0,0,0-1.76,3.8,31.23,31.23,0,0,0-1.27,5,11.7,11.7,0,0,1-2.14-9C138,589.35,141.22,584.77,149.22,580.09Z" transform="translate(-9.74 0.19)" fill="url(#2ff92a99-21e1-4dd2-85dd-b6c3f67c5bd4)"/><path d="M98.27,593.15c9.08,5.66,14.93,5.46,18.74,3.8a12.44,12.44,0,0,0,6.25-6.72,50.63,50.63,0,0,0-13.08,1.07,28.91,28.91,0,0,1,3.41-1.46,38.29,38.29,0,0,1,9.28-1.66,14.78,14.78,0,0,0-8.79-3.7C109.79,584.38,104.32,585.84,98.27,593.15Z" transform="translate(-9.74 0.19)" fill="url(#fd892dc4-e4a9-46ef-bc0d-6531d1978142)"/><path d="M137.61,565.76c1.17,8.09-.39,13.45-2.93,16.77A13.5,13.5,0,0,1,127,587.4a34.05,34.05,0,0,1,4.78-11.89,21,21,0,0,0-2.44,2.82,26.1,26.1,0,0,0-4.1,8.29,13.24,13.24,0,0,1-1.07-9.07C125.21,573.46,129.11,569.27,137.61,565.76Z" transform="translate(-9.74 0.19)" fill="url(#a068a01f-6fca-4a87-93e0-a206b218de00)"/><path d="M85.48,572c4.1,3.41,7.42,5.36,10.45,6.24a14,14,0,0,0,7.51.09,12.52,12.52,0,0,0,7-5.85,52.13,52.13,0,0,0-5.37-.58,69.76,69.76,0,0,0-7.81,0,25,25,0,0,1,3.62-1,37.31,37.31,0,0,1,9.37-.49c-1.37-1.27-3.91-4.1-8.11-4.88C98.17,564.78,92.41,565.56,85.48,572Z" transform="translate(-9.74 0.19)" fill="url(#c15ceb2f-e7e6-4f52-8591-303b8cf47205)"/><path d="M128.14,549.87a35.87,35.87,0,0,1-1.56,10.23,15.13,15.13,0,0,1-3.61,6,13,13,0,0,1-8.4,3.8,28,28,0,0,1,2-4.78,38.61,38.61,0,0,1,4.3-6.43,18,18,0,0,0-2.74,2.44,27,27,0,0,0-5.17,7.7,11.93,11.93,0,0,1,.29-9.17C114.86,555.91,119.16,552.31,128.14,549.87Z" transform="translate(-9.74 0.19)" fill="url(#e1e0f4d8-e210-4fcc-806d-7fe80f26dc9b)"/><path d="M75.43,549.38c7.22,7.8,13.08,9.16,17.08,8.58a12.84,12.84,0,0,0,7.81-4.87,49.87,49.87,0,0,0-13-2.34,17.51,17.51,0,0,1,3.71-.49,38.24,38.24,0,0,1,9.37.78,14.85,14.85,0,0,0-7.62-5.85C88.9,543.82,83.24,543.92,75.43,549.38Z" transform="translate(-9.74 0.19)" fill="url(#bb3dad68-0580-4f18-aa6a-fed1d5d01c04)"/><path d="M120.62,533c-1.07,8.19-3.9,12.87-7.22,15.41a12.86,12.86,0,0,1-8.79,2.63,34.45,34.45,0,0,1,7.72-10.24,23.84,23.84,0,0,0-3,2.05,29.73,29.73,0,0,0-6.15,6.92,12.62,12.62,0,0,1,1.27-9C106.66,537.29,111.45,534.27,120.62,533Z" transform="translate(-9.74 0.19)" fill="url(#31380257-d819-4c11-878c-220d2e91136b)"/><path d="M68.69,525.59c3,4.39,5.76,7.12,8.5,8.68a14.37,14.37,0,0,0,7.22,2.05,12.27,12.27,0,0,0,8.3-3.8,42.12,42.12,0,0,0-5.08-1.95,55.29,55.29,0,0,0-7.52-2.05,17.87,17.87,0,0,1,3.71,0A39.52,39.52,0,0,1,93,530.57c-1-1.66-2.64-5-6.54-6.83C82.75,521.89,77,521.21,68.69,525.59Z" transform="translate(-9.74 0.19)" fill="url(#1699a53a-48af-4780-b522-a839996d96bd)"/><path d="M115.55,515.36a32.07,32.07,0,0,1-4.2,9.45,13.59,13.59,0,0,1-14.06,6.44,27.12,27.12,0,0,1,3.13-4.1,40.51,40.51,0,0,1,5.85-5.07,21.36,21.36,0,0,0-3.32,1.66,26.39,26.39,0,0,0-7,6A11.84,11.84,0,0,1,98.66,521C101.2,517.7,106.27,515.36,115.55,515.36Z" transform="translate(-9.74 0.19)" fill="url(#91da4872-20ec-47c7-b0af-5c01f5c758f6)"/><path d="M64.89,501.12c5.07,9.46,10.25,12.29,14.25,12.68a13,13,0,0,0,8.78-2.63A52,52,0,0,0,76,505.51a19.22,19.22,0,0,1,3.71.49,37.05,37.05,0,0,1,8.89,3.22,14.69,14.69,0,0,0-5.76-7.61C79.24,499.37,73.87,497.91,64.89,501.12Z" transform="translate(-9.74 0.19)" fill="url(#893fd703-9461-4d91-ac40-e7e84e494fc1)"/><path d="M112.72,497.13c-3,7.6-7.13,11.4-10.94,13.06a13.48,13.48,0,0,1-9.17.29,34,34,0,0,1,10-7.89,19.35,19.35,0,0,0-3.51,1.26,27.19,27.19,0,0,0-7.71,5.07,12.59,12.59,0,0,1,3.61-8.38C98.07,497.62,103.64,495.86,112.72,497.13Z" transform="translate(-9.74 0.19)" fill="url(#f72588b9-2b56-4bbb-8b3a-8cf7a4ba096d)"/><path d="M64.4,476.46C67.91,486.4,73,489.91,77,490.89a12.28,12.28,0,0,0,9.08-1.56,59.52,59.52,0,0,0-11.23-7.12,21.84,21.84,0,0,1,3.61,1,42.48,42.48,0,0,1,8.4,4.29,15.83,15.83,0,0,0-4.69-8.29C78.94,476.56,73.57,474.32,64.4,476.46Z" transform="translate(-9.74 0.19)" fill="url(#92e44c4e-2a0c-4dbb-8b33-a114e33d77db)"/><path d="M112.33,478.61c-4.3,7.21-8.5,10.43-12.5,11.5a13.77,13.77,0,0,1-9.17-.88,30.39,30.39,0,0,1,10.93-6.53,17,17,0,0,0-3.61.78,26.92,26.92,0,0,0-8.3,4.09,11.74,11.74,0,0,1,4.78-7.79C97.88,477.24,103.35,476.27,112.33,478.61Z" transform="translate(-9.74 0.19)" fill="url(#87ff2615-62f0-4ce2-a290-8f378775a222)"/><path d="M67.13,451.89c2.34,10.44,6.54,14.43,10.54,15.89a12.76,12.76,0,0,0,9.18-.29,57.4,57.4,0,0,0-10-8.48,20.36,20.36,0,0,1,3.41,1.46,35.15,35.15,0,0,1,7.71,5.36,14.54,14.54,0,0,0-3.51-8.77C81.48,453.84,76.6,451,67.13,451.89Z" transform="translate(-9.74 0.19)" fill="url(#f9a47c7f-e3fe-4121-b49d-43112fc95324)"/><path d="M114.38,460.28a29.44,29.44,0,0,1-7.42,7.11,15.8,15.8,0,0,1-6.54,2.64,13.06,13.06,0,0,1-9-2,32.67,32.67,0,0,1,11.81-5.07,17.12,17.12,0,0,0-3.71.29,31.79,31.79,0,0,0-8.88,2.93A13,13,0,0,1,96.41,459C100.12,457.06,105.79,456.77,114.38,460.28Z" transform="translate(-9.74 0.19)" fill="url(#f37e4701-451e-4e33-bc43-0273fa33c8dc)"/><path d="M73.09,427.91a27.75,27.75,0,0,0,3.12,11.8,12.85,12.85,0,0,0,5.08,5.36,12.63,12.63,0,0,0,9.17.88,49.65,49.65,0,0,0-8.88-9.75,27.66,27.66,0,0,1,3.22,1.85,35.55,35.55,0,0,1,6.93,6.34,15.27,15.27,0,0,0-2.34-9.17C87.14,431.71,82.46,428.21,73.09,427.91Z" transform="translate(-9.74 0.19)" fill="url(#7d8a61a7-9db4-454f-a7f7-10bda5125ed0)"/><path d="M118.77,442.34a38.84,38.84,0,0,1-8.2,6.14,15.45,15.45,0,0,1-6.93,1.76A13.08,13.08,0,0,1,95.05,447a36,36,0,0,1,12.4-3.51,16.37,16.37,0,0,0-3.71-.19,28.52,28.52,0,0,0-9.08,1.75,12.31,12.31,0,0,1,6.64-6.34C105.2,437.27,110.76,437.76,118.77,442.34Z" transform="translate(-9.74 0.19)" fill="url(#89455bb8-8d3f-420f-844d-785cf386092a)"/><path d="M82.07,404.81c-.59,10.62,2.63,15.69,6,18.13A12.83,12.83,0,0,0,97,425a54.46,54.46,0,0,0-7.52-10.82,15.52,15.52,0,0,1,2.93,2.24,38.47,38.47,0,0,1,6,7.21,15.61,15.61,0,0,0-1.07-9.45C95.44,410.46,91.34,406.37,82.07,404.81Z" transform="translate(-9.74 0.19)" fill="url(#1fbbd5c1-4379-474d-9f5b-04d720ee9424)"/><path d="M125.5,425.18c-6.63,5-11.91,6.34-16,5.85a13.38,13.38,0,0,1-8.1-4.29,34.23,34.23,0,0,1,12.69-1.85,26.17,26.17,0,0,0-12.88-.1,11.83,11.83,0,0,1,7.42-5.36C112.62,418.36,118.08,419.53,125.5,425.18Z" transform="translate(-9.74 0.19)" fill="url(#e0dbb328-a833-49c2-a09a-8025f8a000b4)"/><path d="M94.07,383.17c-1.85,10.43.49,15.89,3.52,18.71a12.59,12.59,0,0,0,8.59,3.22,51.43,51.43,0,0,0-6.06-11.7,17.56,17.56,0,0,1,2.64,2.63,33.76,33.76,0,0,1,5.08,7.9,14.37,14.37,0,0,0,.09-9.46C106.57,390.48,103.05,386,94.07,383.17Z" transform="translate(-9.74 0.19)" fill="url(#333720d4-c672-4a01-9280-84b99079d133)"/><path d="M134.48,409c-7.22,4.09-12.78,4.68-16.69,3.61a13.58,13.58,0,0,1-7.51-5.36,33.68,33.68,0,0,1,12.88-.1,22.59,22.59,0,0,0-3.51-1.17,26.28,26.28,0,0,0-9.28-.68,12.92,12.92,0,0,1,8-4.39C122.57,400.62,127.85,402.47,134.48,409Z" transform="translate(-9.74 0.19)" fill="url(#b9cee0f2-cf91-4ac7-ae19-c2cd4b5d481a)"/><path d="M108.71,363.28a48.76,48.76,0,0,0-1.66,6.73,25.16,25.16,0,0,0,0,5.36,13,13,0,0,0,2.74,6.92,12.65,12.65,0,0,0,8.1,4.29,53.37,53.37,0,0,0-4.49-12.38,18.81,18.81,0,0,1,2.24,2.92,35.58,35.58,0,0,1,4,8.58,15.87,15.87,0,0,0,1.27-3.8,15.11,15.11,0,0,0,.09-5.56C120.23,372.25,117.3,367.18,108.71,363.28Z" transform="translate(-9.74 0.19)" fill="url(#efb53e9f-de12-44a6-b1fc-b8301bbf087b)"/><path d="M145.42,394.18a35.5,35.5,0,0,1-5.47,1.76,28.45,28.45,0,0,1-4.59.78,15.34,15.34,0,0,1-7-1.08,13.69,13.69,0,0,1-6.73-6.23,35,35,0,0,1,12.69,1.46,20.61,20.61,0,0,0-3.32-1.66,30.45,30.45,0,0,0-9.08-1.85,14.08,14.08,0,0,1,3.22-2.15,11.51,11.51,0,0,1,5.37-1.07C134.78,384.34,139.75,386.87,145.42,394.18Z" transform="translate(-9.74 0.19)" fill="url(#5c4486e5-fd16-4c53-869b-66add86175ab)"/><path d="M141.12,357.24a29.83,29.83,0,0,0-10.93,5.36,13.35,13.35,0,0,0-4.2,6.14,12.68,12.68,0,0,0,1,9.06,54.68,54.68,0,0,0,7.71-10.62,23,23,0,0,1-1.17,3.51,35.41,35.41,0,0,1-4.79,8,15.27,15.27,0,0,0,8.59-4.09C140.24,371.66,142.68,366.59,141.12,357.24Z" transform="translate(-9.74 0.19)" fill="url(#7742680c-4466-44c1-a995-2b6cc365ad61)"/><path d="M194.51,665.1a41.38,41.38,0,0,0,6.84-1,19.8,19.8,0,0,0,5-2,13.61,13.61,0,0,0,5.36-5.16,12.6,12.6,0,0,0,.88-9.17,55.31,55.31,0,0,0-9.76,9,29.53,29.53,0,0,1,1.86-3.21,37.65,37.65,0,0,1,6.34-7.12,16.48,16.48,0,0,0-4,.39,13.06,13.06,0,0,0-5.18,2C198.42,651.06,194.9,655.64,194.51,665.1Z" transform="translate(-9.74 0.19)" fill="url(#7e4b806a-c2b5-4957-b8eb-35f2156ad320)"/><path d="M209.06,619.38a35,35,0,0,1,3.61,4.38,25.41,25.41,0,0,1,2.44,3.9,14.78,14.78,0,0,1,1.76,6.83,13.15,13.15,0,0,1-3.22,8.58,31.54,31.54,0,0,1-3.52-12.19,16.24,16.24,0,0,0-.19,3.7,25.16,25.16,0,0,0,1.85,9,13.33,13.33,0,0,1-3.32-2,11.46,11.46,0,0,1-3-4.59C204,633,204.47,627.47,209.06,619.38Z" transform="translate(-9.74 0.19)" fill="url(#e725a50b-9d0f-42c3-bf2f-d1da2d8edf15)"/><path d="M171.48,656.23c10.74.29,15.71-2.64,18.15-6a12.67,12.67,0,0,0,2.05-9A49.5,49.5,0,0,0,181,648.72a15.52,15.52,0,0,1,2.24-2.93,34.17,34.17,0,0,1,7.13-6,15.07,15.07,0,0,0-9.47,1.07C177,642.77,173,647,171.48,656.23Z" transform="translate(-9.74 0.19)" fill="url(#091b2b4c-a5a0-4af3-8f0f-566044b4d66b)"/><path d="M191.78,612.75c5.08,6.43,6.35,12,5.76,16.08a12.79,12.79,0,0,1-4.29,8,37.43,37.43,0,0,1-1.86-12.77,27,27,0,0,0-.68,3.6,26.31,26.31,0,0,0,.58,9.26,12.83,12.83,0,0,1-5.37-7.41C185.05,625.61,186.12,620.25,191.78,612.75Z" transform="translate(-9.74 0.19)" fill="url(#25f78ad9-7c44-468c-aa30-21233340b3f5)"/><path d="M149.81,644.14a39.23,39.23,0,0,0,6.83.78,22.42,22.42,0,0,0,5.37-.69,13.84,13.84,0,0,0,6.54-3.6,12.58,12.58,0,0,0,3.22-8.58,55.4,55.4,0,0,0-11.71,6.14,26.72,26.72,0,0,1,2.63-2.63,38.08,38.08,0,0,1,8-5.17,16.16,16.16,0,0,0-4-.68,12.6,12.6,0,0,0-5.56.58C157.13,631.56,152.64,635.17,149.81,644.14Z" transform="translate(-9.74 0.19)" fill="url(#50539b5b-ae1c-4298-92e6-06e5ae3aae3b)"/><path d="M175.68,603.78a48,48,0,0,1,2.34,5.16,37.3,37.3,0,0,1,1.36,4.39,14.06,14.06,0,0,1-.09,7,13.62,13.62,0,0,1-5.37,7.51,32.81,32.81,0,0,1-.2-12.77,23.45,23.45,0,0,0-1.17,3.51,26.14,26.14,0,0,0-.58,9.16,15.2,15.2,0,0,1-2.64-2.83,11.6,11.6,0,0,1-1.76-5.26C167.28,615.67,169.14,610.31,175.68,603.78Z" transform="translate(-9.74 0.19)" fill="url(#60004fa9-9f19-4f88-849d-f6673a775bc7)"/><path d="M129.8,629.61c10.25,3,15.91,1.46,19-1.07a12.73,12.73,0,0,0,4.3-8.09,47.78,47.78,0,0,0-12.4,4.39,19.68,19.68,0,0,1,2.93-2.25,36.89,36.89,0,0,1,8.49-4,14.14,14.14,0,0,0-9.37-1.37C138.68,618.21,133.8,620.94,129.8,629.61Z" transform="translate(-9.74 0.19)" fill="url(#56cbe644-831f-487c-998a-af104a456ebe)"/><path d="M160.74,593c3.32,7.5,3,13.16,1.46,17a12.93,12.93,0,0,1-6.24,6.63,36,36,0,0,1,1.56-12.77,17,17,0,0,0-1.56,3.31,28.42,28.42,0,0,0-1.86,9.07,13.06,13.06,0,0,1-3.32-8.48C150.78,603.68,153.42,598.51,160.74,593Z" transform="translate(-9.74 0.19)" fill="url(#c318b2ae-40f4-4612-941a-c65faaac9c2c)"/><path d="M112,612.36c9.47,4.68,15.52,3.51,19,1.36a12.56,12.56,0,0,0,5.27-7.5A56.44,56.44,0,0,0,123.45,609a20.25,20.25,0,0,1,3.22-1.85,40.66,40.66,0,0,1,3.81-1.46,48.43,48.43,0,0,1,5.17-1.37c-1.65-.87-4.88-2.82-9.07-2.63C122.38,602.12,117.11,604.46,112,612.36Z" transform="translate(-9.74 0.19)" fill="url(#2112158a-87af-4372-92d9-619bbdc6f4e9)"/><path d="M147.47,580.09c1.95,8.19,1.36,13.45-.79,17.06a12.9,12.9,0,0,1-7.12,5.85,31.54,31.54,0,0,1,3.12-12.38,24.42,24.42,0,0,0-2.05,3.12,23.47,23.47,0,0,0-1.75,3.8,30.2,30.2,0,0,0-1.27,5,11.74,11.74,0,0,1-2.15-9C136.34,589.35,139.46,584.77,147.47,580.09Z" transform="translate(-9.74 0.19)" fill="url(#81417438-2f73-4397-80a8-7e18168eaafb)"/><path d="M96.51,593.15c9.08,5.66,14.94,5.46,18.74,3.8a12.4,12.4,0,0,0,6.25-6.72,50.68,50.68,0,0,0-13.08,1.07,28.68,28.68,0,0,1,3.42-1.46,38.2,38.2,0,0,1,9.27-1.66,14.77,14.77,0,0,0-8.78-3.7C108,584.38,102.66,585.84,96.51,593.15Z" transform="translate(-9.74 0.19)" fill="url(#f671b682-a88d-4ce3-9d00-ee14b8ab1c7a)"/><path d="M135.85,565.76c1.17,8.09-.39,13.45-2.93,16.77a13.47,13.47,0,0,1-7.71,4.87A34.05,34.05,0,0,1,130,575.51a21,21,0,0,0-2.44,2.82,26.53,26.53,0,0,0-4.1,8.29,13.3,13.3,0,0,1-1.07-9.07C123.45,573.46,127.36,569.27,135.85,565.76Z" transform="translate(-9.74 0.19)" fill="url(#b77ab6b9-a48d-4495-8f99-a19608627f38)"/><path d="M83.82,572c4.1,3.41,7.42,5.36,10.45,6.24a14,14,0,0,0,7.51.09,12.52,12.52,0,0,0,7-5.85,51.81,51.81,0,0,0-5.37-.58,69.76,69.76,0,0,0-7.81,0,25,25,0,0,1,3.62-1,37.31,37.31,0,0,1,9.37-.49c-1.37-1.27-3.91-4.1-8.11-4.88S90.66,565.56,83.82,572Z" transform="translate(-9.74 0.19)" fill="url(#cf01373c-3de0-4f8d-bbf7-cb05c51aab0f)"/><path d="M126.38,549.87a35.87,35.87,0,0,1-1.56,10.23,15.13,15.13,0,0,1-3.61,6,12.93,12.93,0,0,1-8.4,3.8,27.34,27.34,0,0,1,2-4.78,38.49,38.49,0,0,1,4.29-6.43,17.74,17.74,0,0,0-2.73,2.44,27,27,0,0,0-5.18,7.7,11.94,11.94,0,0,1,.3-9.17C113.11,555.91,117.4,552.31,126.38,549.87Z" transform="translate(-9.74 0.19)" fill="url(#32a48bde-44ea-4269-a08f-b0d48f23d843)"/><path d="M73.77,549.38c7.22,7.8,13.08,9.16,17.08,8.58a12.84,12.84,0,0,0,7.81-4.87,49.87,49.87,0,0,0-13-2.34,17.51,17.51,0,0,1,3.71-.49,38.24,38.24,0,0,1,9.37.78,14.85,14.85,0,0,0-7.62-5.85C87.24,543.82,81.58,543.92,73.77,549.38Z" transform="translate(-9.74 0.19)" fill="url(#5306d367-7b27-4ef4-9769-40fad0d18777)"/><path d="M118.87,533c-1.08,8.19-3.91,12.87-7.23,15.41a12.85,12.85,0,0,1-8.78,2.63,34.2,34.2,0,0,1,7.71-10.24,23.84,23.84,0,0,0-3,2.05,30,30,0,0,0-6.15,6.92,12.62,12.62,0,0,1,1.27-9C105,537.29,109.79,534.27,118.87,533Z" transform="translate(-9.74 0.19)" fill="url(#27ec432a-b241-44b2-bf63-94a5046ccc8c)"/><path d="M66.94,525.59c3,4.39,5.76,7.12,8.49,8.68a14.37,14.37,0,0,0,7.22,2.05,12.27,12.27,0,0,0,8.3-3.8,42.12,42.12,0,0,0-5.08-1.95,55.52,55.52,0,0,0-7.51-2.05,17.82,17.82,0,0,1,3.71,0,39.56,39.56,0,0,1,9.17,2.05c-1-1.66-2.63-5-6.54-6.83C81.09,521.89,75.33,521.21,66.94,525.59Z" transform="translate(-9.74 0.19)" fill="url(#405915d6-49d2-435d-a80f-d9c047c782d2)"/><path d="M113.89,515.36a32.07,32.07,0,0,1-4.2,9.45,13.59,13.59,0,0,1-14.06,6.44,27.12,27.12,0,0,1,3.13-4.1,40.51,40.51,0,0,1,5.85-5.07,21.06,21.06,0,0,0-3.31,1.66,26.25,26.25,0,0,0-7,6A11.88,11.88,0,0,1,97,521C99.54,517.7,104.52,515.36,113.89,515.36Z" transform="translate(-9.74 0.19)" fill="url(#8c4ba177-cb08-49f0-a712-919189681a70)"/><path d="M63.13,501.12c5.08,9.46,10.25,12.29,14.25,12.68a13.08,13.08,0,0,0,8.79-2.63,52.24,52.24,0,0,0-11.91-5.66A19.31,19.31,0,0,1,78,506a37.16,37.16,0,0,1,8.88,3.22,14.69,14.69,0,0,0-5.76-7.61C77.58,499.37,72.11,497.91,63.13,501.12Z" transform="translate(-9.74 0.19)" fill="url(#6fd31ac0-cc27-4447-8089-e3797cf71d48)"/><path d="M111,497.13c-3,7.6-7.13,11.4-10.93,13.06a13.5,13.5,0,0,1-9.18.29,33.91,33.91,0,0,1,10.06-7.89,19.26,19.26,0,0,0-3.52,1.26,27.19,27.19,0,0,0-7.71,5.07,12.64,12.64,0,0,1,3.61-8.38C96.41,497.62,101.88,495.86,111,497.13Z" transform="translate(-9.74 0.19)" fill="url(#2256ddd1-1b76-4015-a9e1-2805f6253720)"/><path d="M62.64,476.46c3.52,9.94,8.59,13.45,12.59,14.43a12.28,12.28,0,0,0,9.08-1.56,59.7,59.7,0,0,0-11.22-7.12,22.13,22.13,0,0,1,3.61,1,42.73,42.73,0,0,1,8.39,4.29,15.8,15.8,0,0,0-4.68-8.29C77.28,476.56,71.82,474.32,62.64,476.46Z" transform="translate(-9.74 0.19)" fill="url(#42014203-fe6e-45e5-9494-6eb82c818cf4)"/><path d="M110.67,478.61c-4.3,7.21-8.5,10.43-12.5,11.5a13.77,13.77,0,0,1-9.17-.88,30.39,30.39,0,0,1,10.93-6.53,17,17,0,0,0-3.61.78,26.92,26.92,0,0,0-8.3,4.09,11.74,11.74,0,0,1,4.78-7.79C96.12,477.24,101.59,476.27,110.67,478.61Z" transform="translate(-9.74 0.19)" fill="url(#7db5ff8f-1dc0-4fa4-b90b-47d6d1ab87be)"/><path d="M65.37,451.89c2.35,10.44,6.54,14.43,10.55,15.89a12.73,12.73,0,0,0,9.17-.29A57.4,57.4,0,0,0,75,459a20.36,20.36,0,0,1,3.41,1.46,35.18,35.18,0,0,1,7.72,5.36,14.63,14.63,0,0,0-3.52-8.77C79.72,453.84,74.84,451,65.37,451.89Z" transform="translate(-9.74 0.19)" fill="url(#3826eb3e-54b6-48bc-8928-c5ab04b0d134)"/><path d="M112.62,460.28a29.44,29.44,0,0,1-7.42,7.11A15.75,15.75,0,0,1,98.66,470a13.06,13.06,0,0,1-9-2,32.67,32.67,0,0,1,11.81-5.07,17.14,17.14,0,0,0-3.71.29,31.89,31.89,0,0,0-8.88,2.93A13,13,0,0,1,94.66,459C98.37,457.06,104.13,456.77,112.62,460.28Z" transform="translate(-9.74 0.19)" fill="url(#2f8a25f5-e5dc-47db-aafc-486c8bbc3449)"/><path d="M71.33,427.91a27.75,27.75,0,0,0,3.12,11.8,12.91,12.91,0,0,0,5.08,5.36,12.63,12.63,0,0,0,9.17.88,49.65,49.65,0,0,0-8.88-9.75A27.66,27.66,0,0,1,83,438.05,35.55,35.55,0,0,1,90,444.39a15.13,15.13,0,0,0-2.34-9.17C85.38,431.71,80.8,428.21,71.33,427.91Z" transform="translate(-9.74 0.19)" fill="url(#134b557d-854a-497c-abb7-bc030de4d924)"/><path d="M117.11,442.34a38.84,38.84,0,0,1-8.2,6.14,15.45,15.45,0,0,1-6.93,1.76A13.1,13.1,0,0,1,93.39,447a36,36,0,0,1,12.4-3.51,16.37,16.37,0,0,0-3.71-.19A28.52,28.52,0,0,0,93,445.07a12.31,12.31,0,0,1,6.64-6.34C103.44,437.27,109,437.76,117.11,442.34Z" transform="translate(-9.74 0.19)" fill="url(#3fa91e7c-e12b-4f23-9292-be736b4c7cda)"/><path d="M80.31,404.81c-.59,10.62,2.63,15.69,6,18.13a12.83,12.83,0,0,0,9,2.05,54.74,54.74,0,0,0-7.51-10.82,15.52,15.52,0,0,1,2.93,2.24,38.86,38.86,0,0,1,6,7.21,15.71,15.71,0,0,0-1.08-9.45C93.78,410.46,89.58,406.37,80.31,404.81Z" transform="translate(-9.74 0.19)" fill="url(#e23098a9-2e93-415b-889b-c45c3062aeaf)"/><path d="M123.84,425.18c-6.63,5-11.9,6.34-16,5.85a13.38,13.38,0,0,1-8.11-4.29,34.23,34.23,0,0,1,12.69-1.85,26.17,26.17,0,0,0-12.88-.1,11.83,11.83,0,0,1,7.42-5.36C111,418.36,116.33,419.53,123.84,425.18Z" transform="translate(-9.74 0.19)" fill="url(#51886970-c77c-4649-8316-fa9f83a7cd45)"/><path d="M92.32,383.17c-1.86,10.43.48,15.89,3.51,18.71a12.61,12.61,0,0,0,8.59,3.22,51.71,51.71,0,0,0-6-11.7A17.84,17.84,0,0,1,101,396a33.76,33.76,0,0,1,5.08,7.9,14.42,14.42,0,0,0,.1-9.46C104.91,390.48,101.39,386,92.32,383.17Z" transform="translate(-9.74 0.19)" fill="url(#2787abf5-575e-4a60-9454-afdedbd547a5)"/><path d="M132.73,409c-7.23,4.09-12.79,4.68-16.7,3.61a13.58,13.58,0,0,1-7.51-5.36,33.7,33.7,0,0,1,12.88-.1,22.59,22.59,0,0,0-3.51-1.17,26.24,26.24,0,0,0-9.27-.68,12.89,12.89,0,0,1,8-4.39C120.92,400.62,126.19,402.47,132.73,409Z" transform="translate(-9.74 0.19)" fill="url(#2cf55fbf-d884-4782-9493-239faff2da8a)"/><path d="M107,363.28A47.35,47.35,0,0,0,105.3,370a23.91,23.91,0,0,0,0,5.36,12.89,12.89,0,0,0,2.73,6.92,12.7,12.7,0,0,0,8.1,4.29,52.9,52.9,0,0,0-4.49-12.38,19.16,19.16,0,0,1,2.25,2.92,35.61,35.61,0,0,1,4,8.58,15.43,15.43,0,0,0,1.27-3.8,15.1,15.1,0,0,0,.1-5.56C118.48,372.25,115.55,367.18,107,363.28Z" transform="translate(-9.74 0.19)" fill="url(#dc75c3c6-1d7b-4299-93df-f375f5922ca4)"/><path d="M143.76,394.18a35.5,35.5,0,0,1-5.47,1.76,28.45,28.45,0,0,1-4.59.78,15.34,15.34,0,0,1-7-1.08,13.69,13.69,0,0,1-6.73-6.23,35,35,0,0,1,12.69,1.46,20.61,20.61,0,0,0-3.32-1.66,30.45,30.45,0,0,0-9.08-1.85,14.31,14.31,0,0,1,3.22-2.15,11.51,11.51,0,0,1,5.37-1.07C133,384.34,138,386.87,143.76,394.18Z" transform="translate(-9.74 0.19)" fill="url(#eaedec43-aecd-448f-9158-cf3a1c98c0d9)"/><path d="M139.46,357.24a29.83,29.83,0,0,0-10.93,5.36,13.35,13.35,0,0,0-4.2,6.14,12.68,12.68,0,0,0,1,9.06A54.68,54.68,0,0,0,133,367.18a23,23,0,0,1-1.17,3.51,35.41,35.41,0,0,1-4.79,8,15.27,15.27,0,0,0,8.59-4.09C138.49,371.66,140.93,366.59,139.46,357.24Z" transform="translate(-9.74 0.19)" fill="url(#167ab106-5f89-4928-b5e0-ce5bb82b59de)"/><path d="M304.42,665.1a41.24,41.24,0,0,1-6.83-1,19.8,19.8,0,0,1-5-2,13.71,13.71,0,0,1-5.37-5.16,12.63,12.63,0,0,1-.87-9.17,55.31,55.31,0,0,1,9.76,9,29.53,29.53,0,0,0-1.86-3.21,38,38,0,0,0-6.34-7.12,16.52,16.52,0,0,1,4,.39,13,13,0,0,1,5.17,2C300.62,651.06,304.13,655.64,304.42,665.1Z" transform="translate(-9.74 0.19)" fill="url(#b8f9f8cb-8d3e-4988-b76e-c49d65ffb545)"/><path d="M290,619.38a33.3,33.3,0,0,0-3.61,4.38,24.66,24.66,0,0,0-2.44,3.9,14.78,14.78,0,0,0-1.76,6.83,13.09,13.09,0,0,0,3.22,8.58,31.4,31.4,0,0,0,3.51-12.19,15.8,15.8,0,0,1,.2,3.7,25.21,25.21,0,0,1-1.86,9,13.33,13.33,0,0,0,3.32-2,11.48,11.48,0,0,0,3-4.59C295.05,633,294.57,627.47,290,619.38Z" transform="translate(-9.74 0.19)" fill="url(#51db18c8-b546-4f0c-a907-3f55228ea65c)"/><path d="M327.56,656.23c-10.74.29-15.72-2.64-18.16-6a12.72,12.72,0,0,1-2-9,49.26,49.26,0,0,1,10.74,7.41,15.36,15.36,0,0,0-2.25-2.93,34.08,34.08,0,0,0-7.12-6,15.08,15.08,0,0,1,9.47,1.07C321.9,642.77,326,647,327.56,656.23Z" transform="translate(-9.74 0.19)" fill="url(#e75e8f8d-6de1-4c42-b14c-5064eaef5319)"/><path d="M307.16,612.75c-5.08,6.43-6.35,12-5.76,16.08a12.79,12.79,0,0,0,4.29,8,37.43,37.43,0,0,0,1.86-12.77,26.07,26.07,0,0,1,.1,12.86,12.78,12.78,0,0,0,5.36-7.41C314,625.61,312.82,620.25,307.16,612.75Z" transform="translate(-9.74 0.19)" fill="url(#042d87bf-187c-4e03-a7f1-71c8ea4efa37)"/><path d="M349.23,644.14a39.33,39.33,0,0,1-6.84.78,22.33,22.33,0,0,1-5.36-.69,13.84,13.84,0,0,1-6.54-3.6,12.58,12.58,0,0,1-3.22-8.58A55.64,55.64,0,0,1,339,638.19a26.29,26.29,0,0,0-2.64-2.63,38,38,0,0,0-8-5.17,16.07,16.07,0,0,1,4-.68,12.58,12.58,0,0,1,5.56.58C341.81,631.56,346.4,635.17,349.23,644.14Z" transform="translate(-9.74 0.19)" fill="url(#2611153c-876c-4eb1-a2c5-6d42a1c54ba2)"/><path d="M323.26,603.78a48,48,0,0,0-2.34,5.16,37.5,37.5,0,0,0-1.37,4.39,14.16,14.16,0,0,0,.1,7,13.62,13.62,0,0,0,5.37,7.51,32.81,32.81,0,0,0,.2-12.77,23.45,23.45,0,0,1,1.17,3.51,26.14,26.14,0,0,1,.58,9.16,15.2,15.2,0,0,0,2.64-2.83,11.48,11.48,0,0,0,1.75-5.26C331.76,615.67,329.8,610.31,323.26,603.78Z" transform="translate(-9.74 0.19)" fill="url(#e849ad94-b1c4-403a-9491-a3f72970dc13)"/><path d="M369.14,629.61c-10.25,3-15.91,1.46-19-1.07a12.63,12.63,0,0,1-4.3-8.09,47.78,47.78,0,0,1,12.4,4.39,19.68,19.68,0,0,0-2.93-2.25,36.89,36.89,0,0,0-8.49-4,14.14,14.14,0,0,1,9.37-1.37C360.36,618.21,365.14,620.94,369.14,629.61Z" transform="translate(-9.74 0.19)" fill="url(#26a1bdbb-fee3-4ae9-aeff-12eec06445d2)"/><path d="M338.3,593c-3.32,7.5-3,13.16-1.47,17a12.94,12.94,0,0,0,6.25,6.63,36.28,36.28,0,0,0-1.56-12.77,17,17,0,0,1,1.56,3.31,28.18,28.18,0,0,1,1.85,9.07,13,13,0,0,0,3.32-8.48C348.25,603.68,345.52,598.51,338.3,593Z" transform="translate(-9.74 0.19)" fill="url(#5252c1d6-bad5-4e0d-88ef-7d13e0d3353e)"/><path d="M386.91,612.36c-9.47,4.68-15.52,3.51-19,1.36a12.56,12.56,0,0,1-5.27-7.5A56.49,56.49,0,0,1,375.48,609a20.25,20.25,0,0,0-3.22-1.85,39.34,39.34,0,0,0-3.8-1.46,48,48,0,0,0-5.18-1.37c1.66-.87,4.88-2.82,9.08-2.63C376.56,602.12,381.93,604.46,386.91,612.36Z" transform="translate(-9.74 0.19)" fill="url(#c376ccad-428e-4180-8dad-378bdbfdf15e)"/><path d="M351.47,580.09c-2,8.19-1.36,13.45.78,17.06a12.88,12.88,0,0,0,7.13,5.85,31.72,31.72,0,0,0-3.12-12.38,25.84,25.84,0,0,1,2.05,3.12,23.47,23.47,0,0,1,1.75,3.8,30.2,30.2,0,0,1,1.27,5,11.74,11.74,0,0,0,2.15-9C362.7,589.35,359.57,584.77,351.47,580.09Z" transform="translate(-9.74 0.19)" fill="url(#19d537cc-1a62-44ed-9600-fa9252a9b731)"/><path d="M402.52,593.15c-9.07,5.66-14.93,5.46-18.74,3.8a12.44,12.44,0,0,1-6.25-6.72,50.63,50.63,0,0,1,13.08,1.07,28,28,0,0,0-3.41-1.46,38.29,38.29,0,0,0-9.27-1.66,14.74,14.74,0,0,1,8.78-3.7C391,584.38,396.37,585.84,402.52,593.15Z" transform="translate(-9.74 0.19)" fill="url(#aa3b3e06-925d-4a68-bf84-da976e4b6b03)"/><path d="M363.19,565.76c-1.18,8.09.39,13.45,2.92,16.77a13.49,13.49,0,0,0,7.72,4.87A33.92,33.92,0,0,0,369,575.51a20.12,20.12,0,0,1,2.44,2.82,26.1,26.1,0,0,1,4.1,8.29,13.29,13.29,0,0,0,1.08-9.07C375.48,573.46,371.58,569.27,363.19,565.76Z" transform="translate(-9.74 0.19)" fill="url(#c759d9a3-837e-48a8-a400-cae65fe71899)"/><path d="M415.21,572c-4.1,3.41-7.42,5.36-10.44,6.24a14,14,0,0,1-7.52.09,12.56,12.56,0,0,1-7-5.85,52.45,52.45,0,0,1,5.37-.58,69.78,69.78,0,0,1,7.81,0,25,25,0,0,0-3.61-1,37.34,37.34,0,0,0-9.37-.49c1.37-1.27,3.9-4.1,8.1-4.88S408.28,565.56,415.21,572Z" transform="translate(-9.74 0.19)" fill="url(#75ebe009-e517-4893-85d4-e519c6503ce3)"/><path d="M372.65,549.87a35.84,35.84,0,0,0,1.57,10.23,14.9,14.9,0,0,0,3.61,6,12.93,12.93,0,0,0,8.39,3.8,27.19,27.19,0,0,0-2-4.78,39.12,39.12,0,0,0-4.29-6.43,17.74,17.74,0,0,1,2.73,2.44,26.8,26.8,0,0,1,5.17,7.7,11.93,11.93,0,0,0-.29-9.17C385.83,555.91,381.63,552.31,372.65,549.87Z" transform="translate(-9.74 0.19)" fill="url(#6f13a301-0c50-40a0-870c-07be8825c251)"/><path d="M425.27,549.38c-7.23,7.8-13.08,9.16-17.09,8.58a12.81,12.81,0,0,1-7.8-4.87,49.78,49.78,0,0,1,13-2.34,17.66,17.66,0,0,0-3.71-.49,38.24,38.24,0,0,0-9.37.78,14.77,14.77,0,0,1,7.61-5.85C411.8,543.82,417.46,543.92,425.27,549.38Z" transform="translate(-9.74 0.19)" fill="url(#6de067f0-fe35-44c7-99e9-1130d07ca41f)"/><path d="M380.07,533c1.08,8.19,3.91,12.87,7.23,15.41a12.83,12.83,0,0,0,8.78,2.63,34.37,34.37,0,0,0-7.71-10.24,23.84,23.84,0,0,1,3,2.05,29.73,29.73,0,0,1,6.14,6.92,12.56,12.56,0,0,0-1.26-9C394,537.29,389.25,534.27,380.07,533Z" transform="translate(-9.74 0.19)" fill="url(#50b0576b-2650-4798-9bea-7d3f0da02f01)"/><path d="M432,525.59c-3,4.39-5.76,7.12-8.49,8.68a14.37,14.37,0,0,1-7.22,2.05,12.27,12.27,0,0,1-8.3-3.8,42.12,42.12,0,0,1,5.08-1.95,55.11,55.11,0,0,1,7.51-2.05,17.87,17.87,0,0,0-3.71,0,39.46,39.46,0,0,0-9.17,2.05c1-1.66,2.63-5,6.54-6.83C418,521.89,423.7,521.21,432,525.59Z" transform="translate(-9.74 0.19)" fill="url(#78f6a0e2-3cd6-4a4e-afc1-6723c4529142)"/><path d="M385.15,515.36a31.56,31.56,0,0,0,4.2,9.45,13.57,13.57,0,0,0,14,6.44,26.94,26.94,0,0,0-3.12-4.1,41.21,41.21,0,0,0-5.86-5.07,20.86,20.86,0,0,1,3.32,1.66,26.41,26.41,0,0,1,7,6A11.92,11.92,0,0,0,402,521C399.5,517.7,394.42,515.36,385.15,515.36Z" transform="translate(-9.74 0.19)" fill="url(#6b791e62-02b4-4650-b949-ae66ab0dfb42)"/><path d="M435.81,501.12c-5.08,9.46-10.25,12.29-14.25,12.68a13.08,13.08,0,0,1-8.79-2.63,52.24,52.24,0,0,1,11.91-5.66A19.31,19.31,0,0,0,421,506a37.16,37.16,0,0,0-8.88,3.22,14.63,14.63,0,0,1,5.76-7.61C421.46,499.37,426.83,497.91,435.81,501.12Z" transform="translate(-9.74 0.19)" fill="url(#86bcad5b-e31b-47ed-ba37-81c7ebcde165)"/><path d="M388,497.13c3,7.6,7.12,11.4,10.93,13.06a13.5,13.5,0,0,0,9.18.29A33.91,33.91,0,0,0,398,502.59a19.26,19.26,0,0,1,3.52,1.26,27.19,27.19,0,0,1,7.71,5.07,12.64,12.64,0,0,0-3.61-8.38C402.62,497.62,397.06,495.86,388,497.13Z" transform="translate(-9.74 0.19)" fill="url(#da504137-190a-4f78-af8b-2ab9a957be80)"/><path d="M436.3,476.46c-3.52,9.94-8.59,13.45-12.6,14.43a12.27,12.27,0,0,1-9.07-1.56,59.36,59.36,0,0,1,11.22-7.12,22.13,22.13,0,0,0-3.61,1,42.18,42.18,0,0,0-8.39,4.29,15.73,15.73,0,0,1,4.68-8.29C421.75,476.56,427.12,474.32,436.3,476.46Z" transform="translate(-9.74 0.19)" fill="url(#f58b3d28-8bcb-4db0-bc30-e2f1b79cf89e)"/><path d="M388.37,478.61c4.29,7.21,8.49,10.43,12.49,11.5a13.81,13.81,0,0,0,9.18-.88,30.39,30.39,0,0,0-10.93-6.53,17.16,17.16,0,0,1,3.61.78,27,27,0,0,1,8.3,4.09,11.76,11.76,0,0,0-4.79-7.79C402.82,477.24,397.35,476.27,388.37,478.61Z" transform="translate(-9.74 0.19)" fill="url(#94f7d929-98a3-495f-819f-8c893677081d)"/><path d="M433.66,451.89c-2.34,10.44-6.54,14.43-10.54,15.89a12.76,12.76,0,0,1-9.18-.29A57.57,57.57,0,0,1,424,459a20.21,20.21,0,0,0-3.42,1.46,35.15,35.15,0,0,0-7.71,5.36,14.61,14.61,0,0,1,3.51-8.77C419.21,453.84,424.19,451,433.66,451.89Z" transform="translate(-9.74 0.19)" fill="url(#e620b88c-1e0b-49ba-8557-bee22e312bf4)"/><path d="M386.32,460.28a29.44,29.44,0,0,0,7.42,7.11,15.75,15.75,0,0,0,6.54,2.64,13.06,13.06,0,0,0,9-2,32.67,32.67,0,0,0-11.81-5.07,17.14,17.14,0,0,1,3.71.29,31.89,31.89,0,0,1,8.88,2.93,13.08,13.08,0,0,0-5.76-7.12C400.57,457.06,394.91,456.77,386.32,460.28Z" transform="translate(-9.74 0.19)" fill="url(#5cb45e0f-f880-4abd-9272-622ab8fcf802)"/><path d="M427.71,427.91a27.73,27.73,0,0,1-3.13,11.8,12.9,12.9,0,0,1-5.07,5.36,12.66,12.66,0,0,1-9.18.88,50.32,50.32,0,0,1,8.88-9.75,28.7,28.7,0,0,0-3.22,1.85,35.55,35.55,0,0,0-6.93,6.34,15.22,15.22,0,0,1,2.35-9.17C413.65,431.71,418.24,428.21,427.71,427.91Z" transform="translate(-9.74 0.19)" fill="url(#ead087ac-e9f7-48b3-a47e-681f55abe02e)"/><path d="M381.93,442.34a38.58,38.58,0,0,0,8.2,6.14,15.42,15.42,0,0,0,6.93,1.76,13.1,13.1,0,0,0,8.59-3.22,36,36,0,0,0-12.4-3.51,16.37,16.37,0,0,1,3.71-.19,28.57,28.57,0,0,1,9.08,1.75,12.34,12.34,0,0,0-6.64-6.34C395.59,437.27,389.93,437.76,381.93,442.34Z" transform="translate(-9.74 0.19)" fill="url(#ba3dab86-b4ce-478e-b33e-2130620e64df)"/><path d="M418.63,404.81c.58,10.62-2.64,15.69-6,18.13a12.81,12.81,0,0,1-9,2.05,55.35,55.35,0,0,1,7.52-10.82,15.52,15.52,0,0,0-2.93,2.24,38.86,38.86,0,0,0-6,7.21,15.77,15.77,0,0,1,1.07-9.45C405.26,410.46,409.36,406.37,418.63,404.81Z" transform="translate(-9.74 0.19)" fill="url(#3c033095-c487-4471-949a-5e1a827d4dbf)"/><path d="M375.19,425.18c6.64,5,11.91,6.34,16,5.85a13.35,13.35,0,0,0,8.1-4.29,34.23,34.23,0,0,0-12.69-1.85,27.38,27.38,0,0,1,3.61-.68,26.71,26.71,0,0,1,9.28.58,11.86,11.86,0,0,0-7.42-5.36C388.08,418.36,382.61,419.53,375.19,425.18Z" transform="translate(-9.74 0.19)" fill="url(#f42f5f88-ebe8-4032-ae94-33da435b9faa)"/><path d="M406.72,383.17c1.86,10.43-.49,15.89-3.51,18.71a12.62,12.62,0,0,1-8.59,3.22,51.28,51.28,0,0,1,6.05-11.7A18.13,18.13,0,0,0,398,396a33.77,33.77,0,0,0-5.07,7.9,14.35,14.35,0,0,1-.1-9.46C394.13,390.48,397.64,386,406.72,383.17Z" transform="translate(-9.74 0.19)" fill="url(#67279e02-cb82-4084-9e09-01791d07aad5)"/><path d="M366.31,409c7.22,4.09,12.79,4.68,16.69,3.61a13.65,13.65,0,0,0,7.52-5.36,33.75,33.75,0,0,0-12.89-.1,22.51,22.51,0,0,1,3.52-1.17,26.19,26.19,0,0,1,9.27-.68,12.89,12.89,0,0,0-8-4.39C378.12,400.62,372.85,402.47,366.31,409Z" transform="translate(-9.74 0.19)" fill="url(#13428778-08e6-462b-adcd-6e990043f498)"/><path d="M392,363.28a47.35,47.35,0,0,1,1.66,6.73,23.91,23.91,0,0,1,0,5.36,13,13,0,0,1-2.73,6.92,12.7,12.7,0,0,1-8.1,4.29,52.43,52.43,0,0,1,4.49-12.38,19.16,19.16,0,0,0-2.25,2.92,35.61,35.61,0,0,0-4,8.58,15.43,15.43,0,0,1-1.27-3.8,15.1,15.1,0,0,1-.1-5.56C380.46,372.25,383.49,367.18,392,363.28Z" transform="translate(-9.74 0.19)" fill="url(#29cfadd5-9659-4c32-903d-54aa30044b45)"/><path d="M355.28,394.18a35.16,35.16,0,0,0,5.47,1.76,28.52,28.52,0,0,0,4.58.78,15.32,15.32,0,0,0,7-1.08,13.67,13.67,0,0,0,6.74-6.23,35,35,0,0,0-12.69,1.46,20.61,20.61,0,0,1,3.32-1.66,30.38,30.38,0,0,1,9.07-1.85,13.86,13.86,0,0,0-3.22-2.15,11.48,11.48,0,0,0-5.37-1.07C365.92,384.34,360.94,386.87,355.28,394.18Z" transform="translate(-9.74 0.19)" fill="url(#13ac2783-43d5-47fc-83ac-58f3275d2782)"/><path d="M359.57,357.24a29.89,29.89,0,0,1,10.94,5.36,13.24,13.24,0,0,1,4.19,6.14,12.64,12.64,0,0,1-1,9.06A54.26,54.26,0,0,1,366,367.18a23,23,0,0,0,1.17,3.51,35.69,35.69,0,0,0,4.78,8,15.32,15.32,0,0,1-8.59-4.09C360.45,371.66,358,366.59,359.57,357.24Z" transform="translate(-9.74 0.19)" fill="url(#977a0776-1b7b-40d3-9044-18d78c839ad5)"/><path d="M306.18,665.1a41.24,41.24,0,0,1-6.83-1,19.8,19.8,0,0,1-5-2,13.71,13.71,0,0,1-5.37-5.16,12.7,12.7,0,0,1-.88-9.17,55,55,0,0,1,9.76,9A28.17,28.17,0,0,0,296,653.5a38.12,38.12,0,0,0-6.35-7.12,16.55,16.55,0,0,1,4,.39,13,13,0,0,1,5.17,2C302.28,651.06,305.79,655.64,306.18,665.1Z" transform="translate(-9.74 0.19)" fill="url(#a1e59328-ebe2-4eda-b02e-07b9029982b3)"/><path d="M291.64,619.38a33.3,33.3,0,0,0-3.61,4.38,24.66,24.66,0,0,0-2.44,3.9,14.78,14.78,0,0,0-1.76,6.83,13.09,13.09,0,0,0,3.22,8.58,31.4,31.4,0,0,0,3.51-12.19,15.8,15.8,0,0,1,.2,3.7,25.21,25.21,0,0,1-1.86,9,13.33,13.33,0,0,0,3.32-2,11.48,11.48,0,0,0,3-4.59C296.71,633,296.32,627.47,291.64,619.38Z" transform="translate(-9.74 0.19)" fill="url(#e9cb06db-64c5-4262-bb2f-f8f3b92e0025)"/><path d="M329.31,656.23c-10.73.29-15.71-2.64-18.15-6a12.67,12.67,0,0,1-2.05-9,49.5,49.5,0,0,1,10.74,7.41,15.91,15.91,0,0,0-2.25-2.93,34.08,34.08,0,0,0-7.12-6,15,15,0,0,1,9.46,1.07C323.65,642.77,327.75,647,329.31,656.23Z" transform="translate(-9.74 0.19)" fill="url(#1af46a3f-46a3-4778-9998-ea1be3fdd8ca)"/><path d="M308.91,612.75c-5.07,6.43-6.34,12-5.75,16.08a12.69,12.69,0,0,0,4.29,8,37.48,37.48,0,0,0,1.85-12.77,25.8,25.8,0,0,1,.69,3.6,26.6,26.6,0,0,1-.59,9.26,12.83,12.83,0,0,0,5.37-7.41C315.75,625.61,314.58,620.25,308.91,612.75Z" transform="translate(-9.74 0.19)" fill="url(#a8730a8e-f0b6-4bf0-97b8-c3692dd0170b)"/><path d="M350.89,644.14a39.33,39.33,0,0,1-6.84.78,22.33,22.33,0,0,1-5.36-.69,13.84,13.84,0,0,1-6.54-3.6,12.55,12.55,0,0,1-3.23-8.58,55.42,55.42,0,0,1,11.72,6.14,26.29,26.29,0,0,0-2.64-2.63,38,38,0,0,0-8-5.17,16.07,16.07,0,0,1,4-.68,12.58,12.58,0,0,1,5.56.58C343.57,631.56,348.06,635.17,350.89,644.14Z" transform="translate(-9.74 0.19)" fill="url(#f4e30492-5949-4b54-b9b5-02df68e9ca14)"/><path d="M325,603.78a44.41,44.41,0,0,0-2.34,5.16,35.69,35.69,0,0,0-1.37,4.39,14,14,0,0,0,.1,7,13.57,13.57,0,0,0,5.37,7.51,32.86,32.86,0,0,0,.19-12.77,22.09,22.09,0,0,1,1.17,3.51,25.87,25.87,0,0,1,.59,9.16,15.2,15.2,0,0,0,2.63-2.83,11.49,11.49,0,0,0,1.76-5.26C333.41,615.67,331.56,610.31,325,603.78Z" transform="translate(-9.74 0.19)" fill="url(#9bf3c8aa-10b5-4e23-98da-4de8a0d7b7e3)"/><path d="M370.9,629.61c-10.25,3-15.91,1.46-19-1.07a12.65,12.65,0,0,1-4.29-8.09A47.75,47.75,0,0,1,360,624.84a19.16,19.16,0,0,0-2.92-2.25,37,37,0,0,0-8.5-4,14.15,14.15,0,0,1,9.37-1.37C362,618.21,366.9,620.94,370.9,629.61Z" transform="translate(-9.74 0.19)" fill="url(#57455399-3a14-4620-94e0-49590111e44e)"/><path d="M340,593c-3.31,7.5-3,13.16-1.46,17a12.94,12.94,0,0,0,6.25,6.63,36.28,36.28,0,0,0-1.56-12.77,17,17,0,0,1,1.56,3.31,28.46,28.46,0,0,1,1.85,9.07,13,13,0,0,0,3.32-8.48C349.91,603.68,347.28,598.51,340,593Z" transform="translate(-9.74 0.19)" fill="url(#3fe2f311-563b-405b-ac56-f7e41bb4fb58)"/><path d="M388.66,612.36c-9.47,4.68-15.52,3.51-19,1.36a12.51,12.51,0,0,1-5.27-7.5A56.49,56.49,0,0,1,377.24,609a20.25,20.25,0,0,0-3.22-1.85,38.61,38.61,0,0,0-3.81-1.46,48.43,48.43,0,0,0-5.17-1.37c1.66-.87,4.88-2.82,9.08-2.63C378.32,602.12,383.59,604.46,388.66,612.36Z" transform="translate(-9.74 0.19)" fill="url(#040c0886-f5dd-4c8c-a9bc-38fded360d91)"/><path d="M353.23,580.09c-2,8.19-1.37,13.45.78,17.06a12.88,12.88,0,0,0,7.13,5.85A31.6,31.6,0,0,0,358,590.62a24.42,24.42,0,0,1,2.05,3.12,23.41,23.41,0,0,1,1.76,3.8,30.2,30.2,0,0,1,1.27,5,11.74,11.74,0,0,0,2.15-9C364.45,589.35,361.23,584.77,353.23,580.09Z" transform="translate(-9.74 0.19)" fill="url(#a84b911b-9c07-455f-a179-610bc62d82ac)"/><path d="M404.18,593.15c-9.08,5.66-14.93,5.46-18.74,3.8a12.44,12.44,0,0,1-6.25-6.72,50.63,50.63,0,0,1,13.08,1.07,28,28,0,0,0-3.41-1.46,38.29,38.29,0,0,0-9.28-1.66,14.78,14.78,0,0,1,8.79-3.7C392.66,584.38,398,585.84,404.18,593.15Z" transform="translate(-9.74 0.19)" fill="url(#fff56c7f-3c6b-4848-9acf-8bc521a0f341)"/><path d="M364.85,565.76c-1.18,8.09.39,13.45,2.92,16.77a13.5,13.5,0,0,0,7.71,4.87,33.65,33.65,0,0,0-4.78-11.89,20.12,20.12,0,0,1,2.44,2.82,26.1,26.1,0,0,1,4.1,8.29,13.29,13.29,0,0,0,1.08-9.07C377.24,573.46,373.34,569.27,364.85,565.76Z" transform="translate(-9.74 0.19)" fill="url(#d5354151-21e6-4f47-afc6-688a691d844a)"/><path d="M417,572c-4.1,3.41-7.42,5.36-10.44,6.24a14,14,0,0,1-7.52.09,12.56,12.56,0,0,1-7-5.85,52.13,52.13,0,0,1,5.37-.58,69.76,69.76,0,0,1,7.81,0,25,25,0,0,0-3.61-1,37.38,37.38,0,0,0-9.37-.49c1.36-1.27,3.9-4.1,8.1-4.88C404.28,564.78,410,565.56,417,572Z" transform="translate(-9.74 0.19)" fill="url(#a886f127-065b-48e1-9529-3658ebded996)"/><path d="M374.31,549.87a35.49,35.49,0,0,0,1.57,10.23,14.9,14.9,0,0,0,3.61,6,12.93,12.93,0,0,0,8.39,3.8,27.19,27.19,0,0,0-1.95-4.78,38.61,38.61,0,0,0-4.3-6.43,17.47,17.47,0,0,1,2.74,2.44,26.8,26.8,0,0,1,5.17,7.7,11.93,11.93,0,0,0-.29-9.17C387.59,555.91,383.29,552.31,374.31,549.87Z" transform="translate(-9.74 0.19)" fill="url(#30d045da-1247-4078-8b2e-c5d67a6b416b)"/><path d="M426.93,549.38c-7.23,7.8-13.08,9.16-17.09,8.58a12.81,12.81,0,0,1-7.8-4.87,49.78,49.78,0,0,1,13-2.34,17.66,17.66,0,0,0-3.71-.49,38.24,38.24,0,0,0-9.37.78,14.77,14.77,0,0,1,7.61-5.85C413.46,543.82,419.21,543.92,426.93,549.38Z" transform="translate(-9.74 0.19)" fill="url(#c15e2e2d-2972-4bdc-99a4-5bdbbc586c4d)"/><path d="M381.83,533c1.07,8.19,3.9,12.87,7.22,15.41a12.86,12.86,0,0,0,8.79,2.63,34.37,34.37,0,0,0-7.71-10.24,23.4,23.4,0,0,1,3,2.05,29.73,29.73,0,0,1,6.15,6.92,12.62,12.62,0,0,0-1.27-9C395.79,537.29,390.91,534.27,381.83,533Z" transform="translate(-9.74 0.19)" fill="url(#280d4de8-97bc-46dd-b52c-0854f3294a32)"/><path d="M433.76,525.59c-3,4.39-5.76,7.12-8.49,8.68a14.42,14.42,0,0,1-7.23,2.05,12.27,12.27,0,0,1-8.29-3.8,41.87,41.87,0,0,1,5.07-1.95,55.29,55.29,0,0,1,7.52-2.05,17.87,17.87,0,0,0-3.71,0,39.63,39.63,0,0,0-9.18,2.05c1-1.66,2.64-5,6.54-6.83C419.7,521.89,425.46,521.21,433.76,525.59Z" transform="translate(-9.74 0.19)" fill="url(#16ffc67e-568e-4325-a232-6a98f30cca54)"/><path d="M386.81,515.36a31.56,31.56,0,0,0,4.2,9.45,13.57,13.57,0,0,0,14.05,6.44,26.94,26.94,0,0,0-3.12-4.1,41.21,41.21,0,0,0-5.86-5.07,20.86,20.86,0,0,1,3.32,1.66,26.56,26.56,0,0,1,7,6,11.9,11.9,0,0,0-2.74-8.78C401.25,517.7,396.18,515.36,386.81,515.36Z" transform="translate(-9.74 0.19)" fill="url(#eec54804-cce5-4143-9526-c93ed5f79367)"/><path d="M437.57,501.12c-5.08,9.46-10.25,12.29-14.26,12.68a13,13,0,0,1-8.78-2.63,52,52,0,0,1,11.91-5.66,19.22,19.22,0,0,0-3.71.49,36.86,36.86,0,0,0-8.88,3.22,14.58,14.58,0,0,1,5.76-7.61C423.12,499.37,428.59,497.91,437.57,501.12Z" transform="translate(-9.74 0.19)" fill="url(#92c0f28a-5021-4320-8d18-ce18c08aef33)"/><path d="M389.74,497.13c3,7.6,7.12,11.4,10.93,13.06a13.47,13.47,0,0,0,9.17.29,33.83,33.83,0,0,0-10-7.89,19.05,19.05,0,0,1,3.51,1.26,27.35,27.35,0,0,1,7.72,5.07,12.66,12.66,0,0,0-3.62-8.38C404.38,497.62,398.81,495.86,389.74,497.13Z" transform="translate(-9.74 0.19)" fill="url(#6934e1fd-37a3-4658-a709-f1be28a5afb0)"/><path d="M438.05,476.46c-3.51,9.94-8.59,13.45-12.59,14.43a12.28,12.28,0,0,1-9.08-1.56,59.52,59.52,0,0,1,11.23-7.12,21.84,21.84,0,0,0-3.61,1,42.48,42.48,0,0,0-8.4,4.29,15.83,15.83,0,0,1,4.69-8.29C423.51,476.56,428.88,474.32,438.05,476.46Z" transform="translate(-9.74 0.19)" fill="url(#83956d29-e32b-41b6-8967-6b5afb20ed59)"/><path d="M390,478.61c4.29,7.21,8.49,10.43,12.49,11.5a13.81,13.81,0,0,0,9.18-.88,30.39,30.39,0,0,0-10.93-6.53,17.16,17.16,0,0,1,3.61.78,26.89,26.89,0,0,1,8.29,4.09,11.7,11.7,0,0,0-4.78-7.79C404.57,477.24,399.11,476.27,390,478.61Z" transform="translate(-9.74 0.19)" fill="url(#a6a722f7-8656-4221-8853-8b71dde8c409)"/><path d="M435.32,451.89c-2.34,10.44-6.54,14.43-10.54,15.89a12.76,12.76,0,0,1-9.18-.29A57.57,57.57,0,0,1,425.66,459a20.21,20.21,0,0,0-3.42,1.46,35.15,35.15,0,0,0-7.71,5.36,14.61,14.61,0,0,1,3.51-8.77C421,453.84,425.85,451,435.32,451.89Z" transform="translate(-9.74 0.19)" fill="url(#0af049bc-5a27-4ea7-a2d2-8ec53ed69d86)"/><path d="M388.08,460.28a29.12,29.12,0,0,0,7.42,7.11A15.75,15.75,0,0,0,402,470a13.09,13.09,0,0,0,9-2,32.74,32.74,0,0,0-11.82-5.07,17.12,17.12,0,0,1,3.71.29,31.94,31.94,0,0,1,8.89,2.93A13.08,13.08,0,0,0,406,459C402.33,457.06,396.57,456.77,388.08,460.28Z" transform="translate(-9.74 0.19)" fill="url(#3a8f7e49-d1b3-416b-8afb-33cc2ab2f8e9)"/><path d="M429.37,427.91a27.73,27.73,0,0,1-3.13,11.8,12.9,12.9,0,0,1-5.07,5.36A12.66,12.66,0,0,1,412,446a50.32,50.32,0,0,1,8.88-9.75,28.7,28.7,0,0,0-3.22,1.85,35.55,35.55,0,0,0-6.93,6.34,15.22,15.22,0,0,1,2.35-9.17C415.31,431.71,419.9,428.21,429.37,427.91Z" transform="translate(-9.74 0.19)" fill="url(#2d207f20-0939-4de2-8415-9630ff82b946)"/><path d="M383.59,442.34a38.58,38.58,0,0,0,8.2,6.14,15.42,15.42,0,0,0,6.93,1.76,13.1,13.1,0,0,0,8.59-3.22,36,36,0,0,0-12.4-3.51,16.37,16.37,0,0,1,3.71-.19,28.62,28.62,0,0,1,9.08,1.75,12.34,12.34,0,0,0-6.64-6.34C397.25,437.27,391.69,437.76,383.59,442.34Z" transform="translate(-9.74 0.19)" fill="url(#58a529e4-8585-4b60-97f2-079ce8b53cf3)"/><path d="M420.39,404.81c.58,10.62-2.64,15.69-6,18.13a12.81,12.81,0,0,1-9,2.05A54.46,54.46,0,0,1,413,414.17a15.52,15.52,0,0,0-2.93,2.24,38.47,38.47,0,0,0-6.05,7.21,15.69,15.69,0,0,1,1.07-9.45C407,410.46,411.11,406.37,420.39,404.81Z" transform="translate(-9.74 0.19)" fill="url(#4a18df55-9386-40a3-b5b7-196d1fb6cb98)"/><path d="M377,425.18c6.64,5,11.91,6.34,16,5.85a13.35,13.35,0,0,0,8.1-4.29,34.23,34.23,0,0,0-12.69-1.85,27.38,27.38,0,0,1,3.61-.68,26.65,26.65,0,0,1,9.27.58,11.8,11.8,0,0,0-7.41-5.36C389.83,418.36,384.37,419.53,377,425.18Z" transform="translate(-9.74 0.19)" fill="url(#d55523fb-b6b2-4ff3-be3d-3090314b2d80)"/><path d="M408.38,383.17c1.85,10.43-.49,15.89-3.51,18.71a12.62,12.62,0,0,1-8.59,3.22,50.87,50.87,0,0,1,6.05-11.7,18.13,18.13,0,0,0-2.64,2.63,33.77,33.77,0,0,0-5.07,7.9,14.29,14.29,0,0,1-.1-9.46C395.79,390.48,399.4,386,408.38,383.17Z" transform="translate(-9.74 0.19)" fill="url(#e7368c1b-0894-4d62-aace-717b766626a5)"/><path d="M368,409c7.22,4.09,12.79,4.68,16.69,3.61a13.65,13.65,0,0,0,7.52-5.36,33.75,33.75,0,0,0-12.89-.1,22.51,22.51,0,0,1,3.52-1.17,26.19,26.19,0,0,1,9.27-.68,12.89,12.89,0,0,0-8-4.39C379.88,400.62,374.51,402.47,368,409Z" transform="translate(-9.74 0.19)" fill="url(#3e7a3998-628b-42bd-a342-cf75aa023422)"/><path d="M393.74,363.28A48.76,48.76,0,0,1,395.4,370a25.16,25.16,0,0,1,0,5.36,12.89,12.89,0,0,1-2.74,6.92,12.65,12.65,0,0,1-8.1,4.29,53.37,53.37,0,0,1,4.49-12.38,19.61,19.61,0,0,0-2.24,2.92,35.61,35.61,0,0,0-4,8.58,15.43,15.43,0,0,1-1.27-3.8,14.88,14.88,0,0,1-.1-5.56C382.22,372.25,385.15,367.18,393.74,363.28Z" transform="translate(-9.74 0.19)" fill="url(#41daa1c4-e805-4666-ac90-60f40222f6cb)"/><path d="M357,394.18a35.41,35.41,0,0,0,5.46,1.76,28.63,28.63,0,0,0,4.59.78,15.34,15.34,0,0,0,7-1.08,13.6,13.6,0,0,0,6.73-6.23,35.06,35.06,0,0,0-12.69,1.46,21.2,21.2,0,0,1,3.32-1.66,30.52,30.52,0,0,1,9.08-1.85,14.08,14.08,0,0,0-3.22-2.15,11.48,11.48,0,0,0-5.37-1.07C367.68,384.34,362.7,386.87,357,394.18Z" transform="translate(-9.74 0.19)" fill="url(#5efde931-e89c-4f55-8924-7982b76c0a61)"/><path d="M361.23,357.24a29.89,29.89,0,0,1,10.94,5.36,13.24,13.24,0,0,1,4.19,6.14,12.69,12.69,0,0,1-1,9.06,53.84,53.84,0,0,1-7.71-10.62,23,23,0,0,0,1.17,3.51,35.69,35.69,0,0,0,4.78,8,15.32,15.32,0,0,1-8.59-4.09C362.21,371.66,359.77,366.59,361.23,357.24Z" transform="translate(-9.74 0.19)" fill="url(#341e8e52-915f-47d3-9acf-6092b92531a1)"/><path d="M126,379.66s-.88,1.17-2.54,3.31-4,5.36-6.83,9.65a180.83,180.83,0,0,0-9.27,15.8,173.86,173.86,0,0,0-9.28,21.83,161.57,161.57,0,0,0-6.83,27.1,169.84,169.84,0,0,0-2,31.1A163.65,163.65,0,0,0,144.63,608,164.85,164.85,0,0,0,195,638.68a176.74,176.74,0,0,0,22.75,6.82c3.41.78,6.73,1.37,9.76,1.85s5.85.88,8.29,1.17,4.79.39,6.74.59,3.61.19,5,.29v.1c-1.37,0-3,0-5.08-.1s-4.29-.29-6.83-.39-5.37-.58-8.4-1-6.34-1-9.85-1.66a168.9,168.9,0,0,1-23-6.43A164.38,164.38,0,0,1,143,609.63a159.79,159.79,0,0,1-23-24.76,157.31,157.31,0,0,1-18-29.93,162.78,162.78,0,0,1-11.13-33.05,165.82,165.82,0,0,1-4-33.54,163.83,163.83,0,0,1,9.76-58.78A159.33,159.33,0,0,1,116,392.23c2.93-4.19,5.37-7.31,7.13-9.45C125.11,380.73,126,379.66,126,379.66Z" transform="translate(-9.74 0.19)" fill="url(#d3ca434d-e9e5-4ff9-98d4-e3f62b956611)"/><path d="M124.62,379.66s-.87,1.17-2.53,3.31-4,5.36-6.84,9.65a180.83,180.83,0,0,0-9.27,15.8,172.43,172.43,0,0,0-9.27,21.83,161.57,161.57,0,0,0-6.83,27.1,168.09,168.09,0,0,0-2,31.1A163.54,163.54,0,0,0,143.27,608a164.62,164.62,0,0,0,50.37,30.71,176.63,176.63,0,0,0,22.74,6.82c3.42.78,6.73,1.37,9.76,1.85s5.86.88,8.3,1.17,4.78.39,6.73.59,3.61.19,5,.29c2.73.1,4.2.2,4.2.2h-4.2c-1.37,0-3,0-5.08-.1s-4.29-.29-6.83-.39-5.37-.59-8.39-1-6.35-1-9.86-1.65A168,168,0,0,1,193,640a164.11,164.11,0,0,1-51.34-30.32,159.34,159.34,0,0,1-23-24.76,156.69,156.69,0,0,1-18-29.93,162.49,162.49,0,0,1-11.13-33,167.26,167.26,0,0,1-4-33.54,163.79,163.79,0,0,1,9.76-58.78A159.33,159.33,0,0,1,105,407.93a155.77,155.77,0,0,1,9.67-15.6c2.93-4.19,5.37-7.31,7.12-9.46S124.62,379.66,124.62,379.66Z" transform="translate(-9.74 0.19)" fill="url(#ec380cfc-c009-4f20-a03d-b8acf7117123)"/><path d="M374.7,379.66s.88,1.17,2.54,3.31,4,5.36,6.83,9.65a178.17,178.17,0,0,1,9.28,15.8,172.43,172.43,0,0,1,9.27,21.83,161.57,161.57,0,0,1,6.83,27.1,168.09,168.09,0,0,1,2.05,31.1A163.54,163.54,0,0,1,356.06,608a164.62,164.62,0,0,1-50.37,30.71A176.63,176.63,0,0,1,283,645.5c-3.42.78-6.74,1.37-9.76,1.85s-5.86.88-8.3,1.17-4.78.39-6.73.59-3.62.19-5,.29v.1c1.36,0,3,0,5.07-.1s4.3-.29,6.84-.39,5.37-.58,8.39-1,6.35-1,9.86-1.66a169.29,169.29,0,0,0,23-6.43,164.61,164.61,0,0,0,51.34-30.32,159.79,159.79,0,0,0,23-24.76,157.83,157.83,0,0,0,18-29.93,162.75,162.75,0,0,0,11.12-33.05,166.56,166.56,0,0,0,4-33.54,164,164,0,0,0-9.76-58.78,158.09,158.09,0,0,0-9.77-21.74,155.2,155.2,0,0,0-9.66-15.6c-2.93-4.19-5.37-7.31-7.13-9.45C375.58,380.73,374.7,379.66,374.7,379.66Z" transform="translate(-9.74 0.19)" fill="url(#ec6f2b04-7f6d-487e-9526-f026ceb17dfc)"/><path d="M376.17,379.66s.88,1.17,2.54,3.31,4,5.36,6.83,9.65a180.83,180.83,0,0,1,9.27,15.8,173.86,173.86,0,0,1,9.28,21.83,161.57,161.57,0,0,1,6.83,27.1,169.84,169.84,0,0,1,2.05,31.1,165.76,165.76,0,0,1-32.8,95.05A159.47,159.47,0,0,1,357.52,608a164.7,164.7,0,0,1-50.36,30.71,176.74,176.74,0,0,1-22.75,6.82c-3.41.78-6.73,1.37-9.76,1.85s-5.85.88-8.29,1.17-4.79.39-6.74.59-3.61.19-5,.29c-2.73.1-4.19.2-4.19.2h4.19c1.37,0,3,0,5.08-.1s4.29-.29,6.83-.39,5.37-.59,8.4-1,6.34-1,9.85-1.65a168,168,0,0,0,23-6.44,164,164,0,0,0,51.34-30.32,159.34,159.34,0,0,0,23-24.76,156.69,156.69,0,0,0,18-29.93,162.49,162.49,0,0,0,11.13-33,165.82,165.82,0,0,0,4-33.54,163.79,163.79,0,0,0-9.76-58.78,158.12,158.12,0,0,0-9.76-21.74,155.77,155.77,0,0,0-9.67-15.6c-2.92-4.19-5.36-7.31-7.12-9.46C377.05,380.73,376.17,379.66,376.17,379.66Z" transform="translate(-9.74 0.19)" fill="url(#cbd6b1a8-21e4-40e3-a8e5-1d4a8a62d2f8)"/></g><line x1="261.44" y1="0.27" x2="300.81" y2="0.18" fill="url(#a6f32ff5-2937-4812-b393-524e80b039b5)"/><polygon points="261.44 0.27 181.89 230.54 221.27 230.54 300.81 0.18 261.44 0.27" fill="url(#2d07882c-bde3-4293-ac8f-509a34261fb9)"/><polygon points="221.27 230.54 260.56 230.54 340.17 0.09 300.81 0.18 221.27 230.54" fill="url(#c6065385-5032-40ae-b038-7499564be260)"/><line x1="300.81" y1="0.18" x2="340.17" y2="0.09" fill="url(#7f3ff21d-8414-4b0e-a94b-7007b68edc67)"/><polygon points="260.56 230.54 299.94 230.54 379.53 0 340.17 0.09 260.56 230.54" fill="url(#6c5c45a1-4223-4efa-b8ca-1df87afbcf77)"/><line x1="340.17" y1="0.09" x2="379.53" fill="url(#4b856808-9a12-4cba-bcf0-45b8f13503af)"/><g id="c6832697-d0b1-45f6-878d-3b35e5157f5b" data-name="icon layer"><g id="95c2b9da-931f-4cb0-b345-d8f9511e0a76" data-name="&lt;Group&gt;"><g id="4e903192-c61d-4828-87d8-5e3adc2cf992" data-name="&lt;Group&gt;"><polygon id="df094170-aea3-4676-b634-b13c832a62f5" data-name="&lt;Path&gt;" points="142.89 567.38 151.72 562.26 176.73 528.39 167.9 533.5 142.89 567.38" fill="url(#166dffbe-5d1f-45ba-b16b-e68b1e905857)"/><polygon id="6cf32a08-24a1-44a4-a0a6-858062a581ac" data-name="&lt;Path&gt;" points="187.05 544.85 184.62 548.14 193.44 543.03 195.87 539.73 226.24 498.59 217.41 503.71 187.05 544.85" fill="url(#eb24e619-84aa-4721-bbed-d63cf0e1aa0a)"/><polygon id="98f56199-2d17-4f64-aa58-a991267d7c37" data-name="&lt;Path&gt;" points="250.6 519.71 244.74 527.64 253.56 522.53 259.42 514.59 313.94 440.74 305.12 445.86 250.6 519.71" fill="url(#78851de9-f3ba-4531-b501-1b7267b59598)"/></g><g id="b82aeff4-d6be-4a15-a3cc-f821e2d38799" data-name="&lt;Group&gt;"><polygon id="f6212b39-5d52-4c91-a923-456f1dc9abb2" data-name="&lt;Path&gt;" points="175.02 520.17 166.19 525.29 168.75 527.07 182.17 536.42 191 531.3 177.57 521.95 175.02 520.17" fill="url(#275c9138-c425-4301-b6eb-bf9f211ba215)"/><polygon id="3c93e1fb-a87e-4161-bfbb-4a9bc2ceeb80" data-name="&lt;Path&gt;" points="221.55 476.1 212.72 481.22 219.73 486.1 238.86 499.43 247.68 494.31 228.56 480.98 221.55 476.1" fill="url(#8fc7e5c1-ce6b-49c2-a676-347e39639b00)"/><polygon id="1e9911c3-5fe7-4e29-96be-a282414ca257" data-name="&lt;Path&gt;" points="324.42 388.98 322.87 460.04 331.69 454.92 333.19 391.44 324.42 388.98" fill="url(#9f5a2f54-ff96-4a45-a422-c43cfef1f357)"/></g><polygon id="fa0e15a7-8c20-41b3-bcb5-468f271e1636" data-name="&lt;Path&gt;" points="262.28 411.61 324.42 388.98 322.87 460.04 305.12 445.86 250.6 519.71 244.74 527.64 237.53 521.33 217.41 503.71 187.05 544.85 184.62 548.14 181.62 545.52 167.9 533.5 142.89 567.38 164.94 527.54 166.19 525.29 168.75 527.07 182.17 536.42 209.31 487.39 212.72 481.22 219.73 486.1 238.86 499.43 279.74 425.57 262.28 411.61" fill="url(#20b0afff-50bb-43fa-81c6-cd60b664bc03)"/></g></g></svg>