<svg id="84b51178-9807-41a9-aaa9-7f4bf6910e50" data-name="Layer 1" xmlns="http://www.w3.org/2000/svg" xmlns:xlink="http://www.w3.org/1999/xlink" viewBox="0 0 481.22 725.53"><defs><clipPath id="3012f12f-2a10-4c54-9a32-84e02df2b913"><polygon points="-113.16 9.7 -112.18 9.7 -113.16 10.67 -113.16 9.7" fill="none"/></clipPath><linearGradient id="dad6f965-94b4-45d1-b8be-9c5504294161" x1="102.51" y1="115.54" x2="221.27" y2="115.54" gradientUnits="userSpaceOnUse"><stop offset="0" stop-color="#ed9898"/><stop offset="1" stop-color="#be747b"/></linearGradient><linearGradient id="59a1651b-8218-466f-a544-b121808dc1d3" x1="102.51" y1="0.58" x2="141.82" y2="0.58" gradientUnits="userSpaceOnUse"><stop offset="0" stop-color="#ed2526"/><stop offset="1" stop-color="#be1e2d"/></linearGradient><linearGradient id="258c3af2-895b-41cd-b3ac-4b36c8b9a9f6" x1="141.82" y1="0.49" x2="181.12" y2="0.49" gradientUnits="userSpaceOnUse"><stop offset="0" stop-color="#fff"/><stop offset="1" stop-color="#bbbdbf"/></linearGradient><linearGradient id="d64af923-dc78-442a-89f0-df37740eeb81" x1="141.82" y1="115.5" x2="260.56" y2="115.5" xlink:href="#258c3af2-895b-41cd-b3ac-4b36c8b9a9f6"/><linearGradient id="88a43e1c-4d6a-45a4-8caa-ec70c49cebfa" x1="181.12" y1="115.45" x2="299.94" y2="115.45" gradientUnits="userSpaceOnUse"><stop offset="0" stop-color="#3c92a5"/><stop offset="1" stop-color="#28628f"/></linearGradient><linearGradient id="0278113c-57f2-4c4d-a9bf-53b69807cd47" x1="181.12" y1="0.4" x2="220.42" y2="0.4" gradientUnits="userSpaceOnUse"><stop offset="0" stop-color="#3c56a5"/><stop offset="1" stop-color="#2b388f"/></linearGradient><linearGradient id="c973fe46-b8eb-48a1-ba3d-3f183b6ff202" x1="199.52" y1="585.12" x2="299.26" y2="410.94" gradientTransform="matrix(1, 0, 0, -1, 0, 750)" gradientUnits="userSpaceOnUse"><stop offset="0" stop-color="#ddbf24"/><stop offset="0.44" stop-color="#e0bf44"/><stop offset="1" stop-color="#815020"/></linearGradient><linearGradient id="7f5cdd1b-8e52-4ef5-a55a-5ed22cc879b2" x1="196.24" y1="593.17" x2="302.33" y2="407.91" gradientTransform="matrix(1, 0, 0, -1, 0, 750)" gradientUnits="userSpaceOnUse"><stop offset="0" stop-color="#fbd73b"/><stop offset="0.37" stop-color="#fde66e"/><stop offset="0.53" stop-color="#fde558"/><stop offset="1" stop-color="#bd852c"/></linearGradient><linearGradient id="4b100e80-06a9-482e-9b54-6699eec85c08" x1="213.07" y1="564.26" x2="283.87" y2="440.62" gradientTransform="matrix(1, 0, 0, -1, 0, 750)" gradientUnits="userSpaceOnUse"><stop offset="0" stop-color="#ffe36c"/><stop offset="0.37" stop-color="#ffed9e"/><stop offset="0.53" stop-color="#fdec88"/><stop offset="1" stop-color="#fdbe36"/></linearGradient><linearGradient id="5a1c137a-ec62-4353-b417-0b8c60ce00c9" x1="222.44" y1="553.05" x2="276.34" y2="458.93" xlink:href="#4b100e80-06a9-482e-9b54-6699eec85c08"/><linearGradient id="74498871-4394-40f6-9e4f-5e7ed00eea87" x1="113.52" y1="462.65" x2="398.94" y2="50.27" gradientTransform="matrix(1, 0, 0, -1, -9.74, 750.19)" xlink:href="#c973fe46-b8eb-48a1-ba3d-3f183b6ff202"/><linearGradient id="3ac8b756-f1b8-4479-a151-3c5cae1cff87" x1="136.25" y1="567.63" x2="282.48" y2="179.73" gradientTransform="matrix(1, 0, 0, -1, -9.74, 750.19)" xlink:href="#7f5cdd1b-8e52-4ef5-a55a-5ed22cc879b2"/><linearGradient id="0d3bdf54-39a4-4dd7-bf75-2dd934bb8c59" x1="83.33" y1="431.47" x2="417.23" y2="97.57" xlink:href="#4b100e80-06a9-482e-9b54-6699eec85c08"/><clipPath id="45c63841-0f84-4740-8475-dc50150d4eac" transform="translate(-9.74 0.19)"><polygon points="-115.11 7.75 -116.08 7.75 -115.11 6.77 -115.11 7.75" fill="none" clip-path="url(#3012f12f-2a10-4c54-9a32-84e02df2b913)"/></clipPath><linearGradient id="7f01a240-dcd7-4307-9620-0eb2021588d8" x1="67.49" y1="417.45" x2="255.77" y2="256.26" gradientTransform="matrix(1, 0, 0, -1, 0, 750)" gradientUnits="userSpaceOnUse"><stop offset="0"/><stop offset="1" stop-color="#f6f6f6"/></linearGradient><linearGradient id="b9a2cf5d-13e5-4bb6-9dfb-0557ca51f7c0" x1="67.49" y1="417.45" x2="255.77" y2="256.26" gradientTransform="matrix(1, 0, 0, -1, 0, 750)" gradientUnits="userSpaceOnUse"><stop offset="0" stop-color="#fff9bf"/><stop offset="1" stop-color="#ffe56f"/></linearGradient><linearGradient id="87889226-b486-4a23-97f5-e9391b6ca79b" x1="187.02" y1="472.96" x2="297.7" y2="109.44" gradientTransform="matrix(1, 0, 0, -1, -9.74, 750.19)" gradientUnits="userSpaceOnUse"><stop offset="0" stop-color="#ab7f20"/><stop offset="0.58" stop-color="#ffe660"/><stop offset="0.78" stop-color="#fde66e"/><stop offset="1" stop-color="#fbd73b"/></linearGradient><linearGradient id="47ff464e-2ad8-4193-940e-259a25ae3e8f" x1="171.7" y1="513.22" x2="307.77" y2="83.7" gradientTransform="matrix(1, 0, 0, -1, -9.74, 750.19)" gradientUnits="userSpaceOnUse"><stop offset="0" stop-color="#efbf21"/><stop offset="0.31" stop-color="#f5d254"/><stop offset="0.56" stop-color="#e4ba3d"/><stop offset="1" stop-color="#b57129"/></linearGradient><linearGradient id="bd252af7-953c-40a3-ba54-863e87673dab" x1="42.73" y1="265.01" x2="458.3" y2="265.01" gradientTransform="matrix(1, 0, 0, -1, 0, 750)" gradientUnits="userSpaceOnUse"><stop offset="0" stop-color="#ffe36c"/><stop offset="0.37" stop-color="#ffec9d"/><stop offset="0.53" stop-color="#fdec87"/><stop offset="1" stop-color="#fdbe34"/></linearGradient><linearGradient id="56a5c09a-58b2-43e2-9217-68ef174e420a" x1="205.54" y1="84.9" x2="205.54" y2="103.59" gradientTransform="matrix(1, 0, 0, -1, 0, 750)" gradientUnits="userSpaceOnUse"><stop offset="0" stop-color="#855e25"/><stop offset="1" stop-color="#ae872e"/></linearGradient><linearGradient id="59977cc9-1567-4216-a8fe-0bab0f55de74" x1="212.54" y1="106.45" x2="212.54" y2="130.62" xlink:href="#56a5c09a-58b2-43e2-9217-68ef174e420a"/><linearGradient id="cfb0bec2-a6bc-459f-95a5-ac81ced5ba06" x1="183.29" y1="93.79" x2="183.29" y2="110.57" xlink:href="#56a5c09a-58b2-43e2-9217-68ef174e420a"/><linearGradient id="c227c07a-a050-4c72-9634-e131389d3529" x1="193.4" y1="112.97" x2="193.4" y2="137.22" xlink:href="#56a5c09a-58b2-43e2-9217-68ef174e420a"/><linearGradient id="731ee316-8bbb-4c1a-a2cb-3888b664d725" x1="162.55" y1="105.06" x2="162.55" y2="120.36" xlink:href="#56a5c09a-58b2-43e2-9217-68ef174e420a"/><linearGradient id="127718ec-24b8-4a87-a0ab-add0dec59a6b" x1="175.42" y1="122.11" x2="175.42" y2="146.22" xlink:href="#56a5c09a-58b2-43e2-9217-68ef174e420a"/><linearGradient id="ac3e2782-5600-46f0-8189-977c5a7bbd43" x1="143.22" y1="118.73" x2="143.22" y2="133.05" xlink:href="#56a5c09a-58b2-43e2-9217-68ef174e420a"/><linearGradient id="d94ee053-a977-4c83-8951-e60f08246dda" x1="158.81" y1="133.42" x2="158.81" y2="157.06" xlink:href="#56a5c09a-58b2-43e2-9217-68ef174e420a"/><linearGradient id="bb4ef0e7-5f30-4d3d-a5fe-56548e2b13b7" x1="125.94" y1="134.35" x2="125.94" y2="148.14" xlink:href="#56a5c09a-58b2-43e2-9217-68ef174e420a"/><linearGradient id="bf2f3b59-bf94-4883-b7f0-034fd1534104" x1="143.73" y1="147.08" x2="143.73" y2="169.95" xlink:href="#56a5c09a-58b2-43e2-9217-68ef174e420a"/><linearGradient id="164b7a33-d5d7-42d5-bf02-6ebc1e1b99a4" x1="110.76" y1="151.98" x2="110.76" y2="165.38" xlink:href="#56a5c09a-58b2-43e2-9217-68ef174e420a"/><linearGradient id="cf658be2-b16a-43a8-b8a8-5b8ddb62e9b7" x1="130.87" y1="162.68" x2="130.87" y2="184.29" xlink:href="#56a5c09a-58b2-43e2-9217-68ef174e420a"/><linearGradient id="f7e9bf24-eecd-4f27-b965-ee564b26c0da" x1="97.98" y1="171.25" x2="97.98" y2="184.69" xlink:href="#56a5c09a-58b2-43e2-9217-68ef174e420a"/><linearGradient id="aaaaaefd-24c7-403f-976a-060f61914b54" x1="120.14" y1="180.05" x2="120.14" y2="200.13" xlink:href="#56a5c09a-58b2-43e2-9217-68ef174e420a"/><linearGradient id="341cc172-eed3-449d-8b35-e61a2df56885" x1="87.92" y1="191.94" x2="87.92" y2="205.52" xlink:href="#56a5c09a-58b2-43e2-9217-68ef174e420a"/><linearGradient id="2dfccbe9-5563-4b03-8234-32ec70269533" x1="111.73" y1="198.84" x2="111.73" y2="216.96" xlink:href="#56a5c09a-58b2-43e2-9217-68ef174e420a"/><linearGradient id="e1acef20-7cfe-421d-b036-eee03c393fb9" x1="80.85" y1="213.68" x2="80.85" y2="227.71" xlink:href="#56a5c09a-58b2-43e2-9217-68ef174e420a"/><linearGradient id="081a05f7-c714-4087-bbab-3abf09a93702" x1="105.7" y1="218.59" x2="105.7" y2="234.69" xlink:href="#56a5c09a-58b2-43e2-9217-68ef174e420a"/><linearGradient id="01740570-7c88-4322-8abb-0299258c6368" x1="76.75" y1="236.11" x2="76.75" y2="250.77" xlink:href="#56a5c09a-58b2-43e2-9217-68ef174e420a"/><linearGradient id="60b074a3-3332-4919-a4ea-8c4ec11688e9" x1="102.08" y1="238.89" x2="102.08" y2="253.29" xlink:href="#56a5c09a-58b2-43e2-9217-68ef174e420a"/><linearGradient id="749edbb0-2ec1-4ce7-b8dc-2c6acc7fdb48" x1="75.62" y1="258.84" x2="75.62" y2="274.39" xlink:href="#56a5c09a-58b2-43e2-9217-68ef174e420a"/><linearGradient id="92db9511-6059-4e79-898b-a19da08efa7d" x1="101" y1="259.43" x2="101" y2="272.75" xlink:href="#56a5c09a-58b2-43e2-9217-68ef174e420a"/><linearGradient id="41cc9d10-e2b0-4110-92bf-f07cb5fe5713" x1="77.53" y1="281.49" x2="77.53" y2="298.29" xlink:href="#56a5c09a-58b2-43e2-9217-68ef174e420a"/><linearGradient id="f85ac597-6f26-45ff-b5fb-899c006d9044" x1="102.52" y1="279.85" x2="102.52" y2="292.45" xlink:href="#56a5c09a-58b2-43e2-9217-68ef174e420a"/><linearGradient id="d0bbc145-22c0-4d66-9e9e-18b107337728" x1="82.43" y1="303.64" x2="82.43" y2="322.14" xlink:href="#56a5c09a-58b2-43e2-9217-68ef174e420a"/><linearGradient id="7ffb1871-c9f9-4234-971f-a61575466016" x1="106.71" y1="299.81" x2="106.71" y2="311.98" xlink:href="#56a5c09a-58b2-43e2-9217-68ef174e420a"/><linearGradient id="80b6e4a7-dfd0-4ea6-b514-6280658b9745" x1="90.37" y1="324.91" x2="90.37" y2="345.19" xlink:href="#56a5c09a-58b2-43e2-9217-68ef174e420a"/><linearGradient id="f2fac379-c2d0-4c60-be32-8971f07e7675" x1="113.35" y1="318.9" x2="113.35" y2="330.96" xlink:href="#56a5c09a-58b2-43e2-9217-68ef174e420a"/><linearGradient id="dc79a907-57fd-4bf8-b004-33f54d37f4c6" x1="101.06" y1="344.9" x2="101.06" y2="366.83" xlink:href="#56a5c09a-58b2-43e2-9217-68ef174e420a"/><linearGradient id="78b4a38d-bdf0-4481-bb39-b807f51a2466" x1="122.38" y1="336.85" x2="122.38" y2="349.04" xlink:href="#56a5c09a-58b2-43e2-9217-68ef174e420a"/><linearGradient id="a2fbbcdf-28b4-4f7d-830c-f0c7fa58f984" x1="114.07" y1="363.39" x2="114.07" y2="386.71" xlink:href="#56a5c09a-58b2-43e2-9217-68ef174e420a"/><linearGradient id="c52ae1fa-4b3d-43f9-947a-fdc5163e1c46" x1="133.51" y1="353.27" x2="133.51" y2="365.83" xlink:href="#56a5c09a-58b2-43e2-9217-68ef174e420a"/><linearGradient id="03169924-68ab-4691-b326-fa4d6fc2731a" x1="133.57" y1="371.15" x2="133.57" y2="392.77" xlink:href="#56a5c09a-58b2-43e2-9217-68ef174e420a"/><linearGradient id="4cfe9f1f-f3af-4c88-be26-a3b288857bbc" x1="31.86" y1="394.03" x2="233.05" y2="41.95" gradientTransform="matrix(1, 0, 0, -1, 0, 750)" gradientUnits="userSpaceOnUse"><stop offset="0" stop-color="#ffe367"/><stop offset="0.53" stop-color="#fceb83"/><stop offset="1" stop-color="#fdbd30"/></linearGradient><linearGradient id="1ea65a08-1b4e-4425-9d16-1bfdf7556b46" x1="47.28" y1="402.81" x2="248.46" y2="50.75" xlink:href="#4cfe9f1f-f3af-4c88-be26-a3b288857bbc"/><linearGradient id="d197e1bf-7711-4e66-b509-51d88ffa4e87" x1="18.58" y1="386.48" x2="219.78" y2="34.38" xlink:href="#4cfe9f1f-f3af-4c88-be26-a3b288857bbc"/><linearGradient id="c3625d4b-093d-4266-acb9-d8062cefab6d" x1="35.99" y1="396.34" x2="237.15" y2="44.31" xlink:href="#4cfe9f1f-f3af-4c88-be26-a3b288857bbc"/><linearGradient id="3e306fcb-c3f4-4aef-83f4-e03e3beaef92" x1="7.49" y1="380.19" x2="208.71" y2="28.05" xlink:href="#4cfe9f1f-f3af-4c88-be26-a3b288857bbc"/><linearGradient id="e12cfed9-512b-43a1-b4c6-afd927df1634" x1="26.6" y1="390.96" x2="227.74" y2="38.96" xlink:href="#4cfe9f1f-f3af-4c88-be26-a3b288857bbc"/><linearGradient id="c567fcb9-0747-461c-88d5-94bc2252800b" x1="-1.44" y1="375.12" x2="199.8" y2="22.95" xlink:href="#4cfe9f1f-f3af-4c88-be26-a3b288857bbc"/><linearGradient id="b0912b18-da8c-4712-b8f1-0f71fb352066" x1="19.34" y1="386.8" x2="220.47" y2="34.83" xlink:href="#4cfe9f1f-f3af-4c88-be26-a3b288857bbc"/><linearGradient id="14f30d8a-9dfd-49ce-b3fe-bb80f039af78" x1="-7.58" y1="371.62" x2="193.67" y2="19.44" xlink:href="#4cfe9f1f-f3af-4c88-be26-a3b288857bbc"/><linearGradient id="fb7e0e14-a968-4170-82a3-669e7c5fba88" x1="13.91" y1="383.68" x2="215.02" y2="31.74" xlink:href="#4cfe9f1f-f3af-4c88-be26-a3b288857bbc"/><linearGradient id="6fc5670d-0c88-4587-9c8e-5be03138ec81" x1="-11.29" y1="369.52" x2="189.97" y2="17.32" xlink:href="#4cfe9f1f-f3af-4c88-be26-a3b288857bbc"/><linearGradient id="3d305108-97a7-457c-95ef-170c5637daaf" x1="10.73" y1="381.92" x2="211.87" y2="29.93" xlink:href="#4cfe9f1f-f3af-4c88-be26-a3b288857bbc"/><linearGradient id="5f03467f-3600-4599-b7d4-9dc39b968e52" x1="-12.41" y1="368.89" x2="188.86" y2="16.67" xlink:href="#4cfe9f1f-f3af-4c88-be26-a3b288857bbc"/><linearGradient id="2c971658-1a01-4b46-bd04-3ace94159d2a" x1="9.75" y1="381.4" x2="210.91" y2="29.37" xlink:href="#4cfe9f1f-f3af-4c88-be26-a3b288857bbc"/><linearGradient id="88806957-29c6-4eb9-bf6d-1fc135747837" x1="-10.87" y1="369.78" x2="190.41" y2="17.53" xlink:href="#4cfe9f1f-f3af-4c88-be26-a3b288857bbc"/><linearGradient id="c79fbc35-651a-4629-abe1-46849928780e" x1="10.98" y1="382.13" x2="212.16" y2="30.06" xlink:href="#4cfe9f1f-f3af-4c88-be26-a3b288857bbc"/><linearGradient id="f15196fd-65c6-40ca-ba36-923953349797" x1="-6.75" y1="372.13" x2="194.54" y2="19.88" xlink:href="#4cfe9f1f-f3af-4c88-be26-a3b288857bbc"/><linearGradient id="4956668a-5921-4af7-af32-33c208c5dafc" x1="14.51" y1="384.17" x2="215.71" y2="32.07" xlink:href="#4cfe9f1f-f3af-4c88-be26-a3b288857bbc"/><linearGradient id="0c04f73d-a2e4-4ffc-9e89-fe4696fd692f" x1="0.16" y1="376.06" x2="201.45" y2="23.8" xlink:href="#4cfe9f1f-f3af-4c88-be26-a3b288857bbc"/><linearGradient id="b36609e8-e981-4a43-ac47-85f48b4d5ff1" x1="20.09" y1="387.37" x2="221.31" y2="35.25" xlink:href="#4cfe9f1f-f3af-4c88-be26-a3b288857bbc"/><linearGradient id="9950cd12-ca79-4abc-b8dd-261be3e2ca0b" x1="9.26" y1="381.24" x2="210.54" y2="29" xlink:href="#4cfe9f1f-f3af-4c88-be26-a3b288857bbc"/><linearGradient id="2ff82376-a98c-4fe7-90df-0df19ea16010" x1="27.94" y1="391.86" x2="229.17" y2="39.71" xlink:href="#4cfe9f1f-f3af-4c88-be26-a3b288857bbc"/><linearGradient id="49b0efcd-4784-4f1d-bcfa-60c6a87ca41c" x1="20.54" y1="387.66" x2="221.8" y2="35.45" xlink:href="#4cfe9f1f-f3af-4c88-be26-a3b288857bbc"/><linearGradient id="8c8e8528-9a59-4c10-a663-88e2ed8cac5e" x1="37.47" y1="397.31" x2="238.72" y2="45.13" xlink:href="#4cfe9f1f-f3af-4c88-be26-a3b288857bbc"/><linearGradient id="4c4c315f-ca2c-41d5-9633-4039f7781c44" x1="33.8" y1="395.21" x2="235.05" y2="43.04" xlink:href="#4cfe9f1f-f3af-4c88-be26-a3b288857bbc"/><linearGradient id="e3df24a3-9ec4-4ee0-bae4-d2db390cda26" x1="48.94" y1="403.87" x2="250.2" y2="51.65" xlink:href="#4cfe9f1f-f3af-4c88-be26-a3b288857bbc"/><linearGradient id="2e3de62c-874b-489a-ab71-80d705f298c3" x1="48.98" y1="403.86" x2="250.2" y2="51.71" xlink:href="#4cfe9f1f-f3af-4c88-be26-a3b288857bbc"/><linearGradient id="10c3e6d4-3ee6-47d4-896b-8ea6876e1514" x1="61.93" y1="411.29" x2="263.22" y2="59.03" xlink:href="#4cfe9f1f-f3af-4c88-be26-a3b288857bbc"/><linearGradient id="31bf8937-3724-4a75-858f-781d7d1675c7" x1="65.7" y1="413.4" x2="266.91" y2="61.27" xlink:href="#4cfe9f1f-f3af-4c88-be26-a3b288857bbc"/><linearGradient id="4957b6f3-cf15-4fc0-ae65-87b415735b2a" x1="76.28" y1="419.48" x2="277.59" y2="67.18" xlink:href="#4cfe9f1f-f3af-4c88-be26-a3b288857bbc"/><linearGradient id="c015c346-83a0-43ba-9d0e-3c9349969163" x1="83.7" y1="423.67" x2="284.91" y2="71.55" xlink:href="#4cfe9f1f-f3af-4c88-be26-a3b288857bbc"/><linearGradient id="1f9ea895-dc5b-4790-a59f-6420ff10ca7c" x1="91.78" y1="428.32" x2="293.08" y2="76.04" xlink:href="#4cfe9f1f-f3af-4c88-be26-a3b288857bbc"/><linearGradient id="ea13fc69-227d-43ca-850b-00d3f6e3582c" x1="102.67" y1="434.48" x2="303.83" y2="82.45" xlink:href="#4cfe9f1f-f3af-4c88-be26-a3b288857bbc"/><linearGradient id="57aa81a3-01f4-4186-8a79-fac13f89d0d6" x1="162.63" y1="84.9" x2="162.63" y2="103.59" gradientTransform="translate(457.79 750) rotate(180)" xlink:href="#56a5c09a-58b2-43e2-9217-68ef174e420a"/><linearGradient id="978c1306-9ba1-43f6-906d-ae6ca1538d66" x1="169.54" y1="106.45" x2="169.54" y2="130.62" gradientTransform="translate(457.79 750) rotate(180)" xlink:href="#56a5c09a-58b2-43e2-9217-68ef174e420a"/><linearGradient id="f5b850b0-8f69-4abe-988d-070691f96701" x1="140.38" y1="93.79" x2="140.38" y2="110.57" gradientTransform="translate(457.79 750) rotate(180)" xlink:href="#56a5c09a-58b2-43e2-9217-68ef174e420a"/><linearGradient id="4342af9f-fd2f-4845-b394-1a1c5904b9a8" x1="150.49" y1="112.97" x2="150.49" y2="137.22" gradientTransform="translate(457.79 750) rotate(180)" xlink:href="#56a5c09a-58b2-43e2-9217-68ef174e420a"/><linearGradient id="16cefeba-de78-4c87-8dd0-bc6e22a0927e" x1="119.54" y1="105.06" x2="119.54" y2="120.36" gradientTransform="translate(457.79 750) rotate(180)" xlink:href="#56a5c09a-58b2-43e2-9217-68ef174e420a"/><linearGradient id="0f0593a3-dba1-4479-b0bd-166f8f8e5d99" x1="132.5" y1="122.11" x2="132.5" y2="146.22" gradientTransform="translate(457.79 750) rotate(180)" xlink:href="#56a5c09a-58b2-43e2-9217-68ef174e420a"/><linearGradient id="848f2064-d7d0-4620-9bd5-c6b8cb01a9c8" x1="100.31" y1="118.73" x2="100.31" y2="133.05" gradientTransform="translate(457.79 750) rotate(180)" xlink:href="#56a5c09a-58b2-43e2-9217-68ef174e420a"/><linearGradient id="6b511dc7-6a55-4865-aeb0-03e5267a027d" x1="115.81" y1="133.42" x2="115.81" y2="157.06" gradientTransform="translate(457.79 750) rotate(180)" xlink:href="#56a5c09a-58b2-43e2-9217-68ef174e420a"/><linearGradient id="2bf690c5-f9aa-46c6-816c-1280a2394bde" x1="83.03" y1="134.35" x2="83.03" y2="148.14" gradientTransform="translate(457.79 750) rotate(180)" xlink:href="#56a5c09a-58b2-43e2-9217-68ef174e420a"/><linearGradient id="baba6905-9af3-4c01-aa5d-1c426f6ca916" x1="100.82" y1="147.08" x2="100.82" y2="169.95" gradientTransform="translate(457.79 750) rotate(180)" xlink:href="#56a5c09a-58b2-43e2-9217-68ef174e420a"/><linearGradient id="56928f9a-7904-4048-a7c3-4a34cfd212f7" x1="67.76" y1="151.98" x2="67.76" y2="165.38" gradientTransform="translate(457.79 750) rotate(180)" xlink:href="#56a5c09a-58b2-43e2-9217-68ef174e420a"/><linearGradient id="6356c37d-2921-400d-a7a0-ac579eaa935b" x1="87.86" y1="162.68" x2="87.86" y2="184.29" gradientTransform="translate(457.79 750) rotate(180)" xlink:href="#56a5c09a-58b2-43e2-9217-68ef174e420a"/><linearGradient id="9125c6bf-b9d2-4367-a79e-37891f628ff3" x1="55.07" y1="171.25" x2="55.07" y2="184.69" gradientTransform="translate(457.79 750) rotate(180)" xlink:href="#56a5c09a-58b2-43e2-9217-68ef174e420a"/><linearGradient id="1385c02f-97db-4f31-a236-1dff857286c0" x1="77.13" y1="180.05" x2="77.13" y2="200.13" gradientTransform="translate(457.79 750) rotate(180)" xlink:href="#56a5c09a-58b2-43e2-9217-68ef174e420a"/><linearGradient id="4c0cb077-1fb9-413b-8c51-8e5935ac3121" x1="45.01" y1="191.94" x2="45.01" y2="205.52" gradientTransform="translate(457.79 750) rotate(180)" xlink:href="#56a5c09a-58b2-43e2-9217-68ef174e420a"/><linearGradient id="c04d45a7-8ec1-4930-a70b-d97d7a34f948" x1="68.82" y1="198.84" x2="68.82" y2="216.96" gradientTransform="translate(457.79 750) rotate(180)" xlink:href="#56a5c09a-58b2-43e2-9217-68ef174e420a"/><linearGradient id="4e537553-b0c3-4c18-ad28-edfdae986c75" x1="37.94" y1="213.68" x2="37.94" y2="227.71" gradientTransform="translate(457.79 750) rotate(180)" xlink:href="#56a5c09a-58b2-43e2-9217-68ef174e420a"/><linearGradient id="335bb14c-c72c-4fec-921e-bb62d8f647d9" x1="62.79" y1="218.59" x2="62.79" y2="234.69" gradientTransform="translate(457.79 750) rotate(180)" xlink:href="#56a5c09a-58b2-43e2-9217-68ef174e420a"/><linearGradient id="a71c517c-dc9b-4261-aba4-955d825c439c" x1="33.84" y1="236.11" x2="33.84" y2="250.77" gradientTransform="translate(457.79 750) rotate(180)" xlink:href="#56a5c09a-58b2-43e2-9217-68ef174e420a"/><linearGradient id="73003dd6-89a9-4d09-a250-17136357d9e2" x1="59.17" y1="238.89" x2="59.17" y2="253.29" gradientTransform="translate(457.79 750) rotate(180)" xlink:href="#56a5c09a-58b2-43e2-9217-68ef174e420a"/><linearGradient id="c7c685e5-3910-4bef-8d7f-b780e4e98061" x1="32.71" y1="258.84" x2="32.71" y2="274.39" gradientTransform="translate(457.79 750) rotate(180)" xlink:href="#56a5c09a-58b2-43e2-9217-68ef174e420a"/><linearGradient id="13bdacaa-3ab7-4312-9dbd-c15e79fe9cd0" x1="58.09" y1="259.43" x2="58.09" y2="272.75" gradientTransform="translate(457.79 750) rotate(180)" xlink:href="#56a5c09a-58b2-43e2-9217-68ef174e420a"/><linearGradient id="9f453b91-d904-4cad-85ca-ea78d037c2e9" x1="34.52" y1="281.49" x2="34.52" y2="298.29" gradientTransform="translate(457.79 750) rotate(180)" xlink:href="#56a5c09a-58b2-43e2-9217-68ef174e420a"/><linearGradient id="b2696081-c2f4-4690-ac68-ba5397876018" x1="59.61" y1="279.85" x2="59.61" y2="292.45" gradientTransform="translate(457.79 750) rotate(180)" xlink:href="#56a5c09a-58b2-43e2-9217-68ef174e420a"/><linearGradient id="4bdbbccc-aec5-4298-aaa7-f7ab90a85f67" x1="39.43" y1="303.64" x2="39.43" y2="322.14" gradientTransform="translate(457.79 750) rotate(180)" xlink:href="#56a5c09a-58b2-43e2-9217-68ef174e420a"/><linearGradient id="ef9d4287-501e-4c7d-bb75-43fb7dea67e6" x1="63.8" y1="299.81" x2="63.8" y2="311.98" gradientTransform="translate(457.79 750) rotate(180)" xlink:href="#56a5c09a-58b2-43e2-9217-68ef174e420a"/><linearGradient id="6141dd02-ceaf-4ad5-8ce0-1c18234461b9" x1="47.46" y1="324.91" x2="47.46" y2="345.19" gradientTransform="translate(457.79 750) rotate(180)" xlink:href="#56a5c09a-58b2-43e2-9217-68ef174e420a"/><linearGradient id="72d2dc7e-e5ef-4bfb-a48f-08b0834f0664" x1="70.44" y1="318.9" x2="70.44" y2="330.96" gradientTransform="translate(457.79 750) rotate(180)" xlink:href="#56a5c09a-58b2-43e2-9217-68ef174e420a"/><linearGradient id="b800266c-def2-418f-ac92-32943157bbd8" x1="58.05" y1="344.9" x2="58.05" y2="366.83" gradientTransform="translate(457.79 750) rotate(180)" xlink:href="#56a5c09a-58b2-43e2-9217-68ef174e420a"/><linearGradient id="dac41235-6ad2-4a40-b06d-bbaf00cd369a" x1="79.37" y1="336.85" x2="79.37" y2="349.04" gradientTransform="translate(457.79 750) rotate(180)" xlink:href="#56a5c09a-58b2-43e2-9217-68ef174e420a"/><linearGradient id="320b17b6-1419-4d6b-b9cd-945b8d125092" x1="71.16" y1="363.39" x2="71.16" y2="386.71" gradientTransform="translate(457.79 750) rotate(180)" xlink:href="#56a5c09a-58b2-43e2-9217-68ef174e420a"/><linearGradient id="818cdeb3-8cbb-4c1e-aa0c-e0bea77f0c4c" x1="90.6" y1="353.27" x2="90.6" y2="365.83" gradientTransform="translate(457.79 750) rotate(180)" xlink:href="#56a5c09a-58b2-43e2-9217-68ef174e420a"/><linearGradient id="28fa6a9e-7a24-4277-a38e-81fde182da30" x1="90.66" y1="371.15" x2="90.66" y2="392.77" gradientTransform="translate(457.79 750) rotate(180)" xlink:href="#56a5c09a-58b2-43e2-9217-68ef174e420a"/><linearGradient id="2e1b728b-29f3-42eb-9a4e-58e7092ad7f0" x1="-11.06" y1="394.04" x2="190.13" y2="41.96" gradientTransform="translate(457.79 750) rotate(180)" xlink:href="#4cfe9f1f-f3af-4c88-be26-a3b288857bbc"/><linearGradient id="fa306da4-6d33-4d3e-86b9-0ca8b36f3489" x1="4.37" y1="402.82" x2="205.54" y2="50.76" gradientTransform="translate(457.79 750) rotate(180)" xlink:href="#4cfe9f1f-f3af-4c88-be26-a3b288857bbc"/><linearGradient id="e5690af6-5802-4f19-85e5-3e048269efbb" x1="-24.41" y1="386.45" x2="176.8" y2="34.34" gradientTransform="translate(457.79 750) rotate(180)" xlink:href="#4cfe9f1f-f3af-4c88-be26-a3b288857bbc"/><linearGradient id="84c99d52-ad6e-42f9-8797-bef1485418e0" x1="-6.93" y1="396.35" x2="194.24" y2="44.32" gradientTransform="translate(457.79 750) rotate(180)" xlink:href="#4cfe9f1f-f3af-4c88-be26-a3b288857bbc"/><linearGradient id="015801f4-0dfe-49f4-8a09-bfdd38f1016f" x1="-35.43" y1="380.19" x2="165.79" y2="28.06" gradientTransform="translate(457.79 750) rotate(180)" xlink:href="#4cfe9f1f-f3af-4c88-be26-a3b288857bbc"/><linearGradient id="2b5bdf9f-7cea-4563-8134-55b0b50a5c29" x1="-16.31" y1="390.96" x2="184.83" y2="38.97" gradientTransform="translate(457.79 750) rotate(180)" xlink:href="#4cfe9f1f-f3af-4c88-be26-a3b288857bbc"/><linearGradient id="46e3fd28-d168-4e33-92e2-ef89f77c8881" x1="-44.35" y1="375.12" x2="156.89" y2="22.96" gradientTransform="translate(457.79 750) rotate(180)" xlink:href="#4cfe9f1f-f3af-4c88-be26-a3b288857bbc"/><linearGradient id="4b23294b-5992-402c-8daa-eaa9618a64b4" x1="-23.57" y1="386.81" x2="177.56" y2="34.84" gradientTransform="translate(457.79 750) rotate(180)" xlink:href="#4cfe9f1f-f3af-4c88-be26-a3b288857bbc"/><linearGradient id="43dbf7cc-0f2f-4dda-b54c-5038ac81bdca" x1="-50.49" y1="371.63" x2="150.76" y2="19.45" gradientTransform="translate(457.79 750) rotate(180)" xlink:href="#4cfe9f1f-f3af-4c88-be26-a3b288857bbc"/><linearGradient id="8802612e-1ad7-46d9-96b7-e72349a26e1b" x1="-29" y1="383.69" x2="172.11" y2="31.75" gradientTransform="translate(457.79 750) rotate(180)" xlink:href="#4cfe9f1f-f3af-4c88-be26-a3b288857bbc"/><linearGradient id="e39cad46-fbfb-429c-b52b-c05d140569bc" x1="-54.21" y1="369.53" x2="147.05" y2="17.32" gradientTransform="translate(457.79 750) rotate(180)" xlink:href="#4cfe9f1f-f3af-4c88-be26-a3b288857bbc"/><linearGradient id="26d80255-b24e-4f25-8150-32b9fc100d30" x1="-32.18" y1="381.93" x2="168.95" y2="29.94" gradientTransform="translate(457.79 750) rotate(180)" xlink:href="#4cfe9f1f-f3af-4c88-be26-a3b288857bbc"/><linearGradient id="76b3af53-0bbb-4b33-9bb5-bc92343b2439" x1="-55.4" y1="368.86" x2="145.87" y2="16.63" gradientTransform="translate(457.79 750) rotate(180)" xlink:href="#4cfe9f1f-f3af-4c88-be26-a3b288857bbc"/><linearGradient id="0483ec1f-53ff-4a51-9c99-e067858cc800" x1="-33.16" y1="381.41" x2="168" y2="29.38" gradientTransform="translate(457.79 750) rotate(180)" xlink:href="#4cfe9f1f-f3af-4c88-be26-a3b288857bbc"/><linearGradient id="87ebd8ad-1cc6-4b3d-afd6-ddd763463c38" x1="-53.79" y1="369.79" x2="147.5" y2="17.53" gradientTransform="translate(457.79 750) rotate(180)" xlink:href="#4cfe9f1f-f3af-4c88-be26-a3b288857bbc"/><linearGradient id="0053cf97-c9c1-4eca-8d9a-364e2ee822be" x1="-31.94" y1="382.14" x2="169.24" y2="30.07" gradientTransform="translate(457.79 750) rotate(180)" xlink:href="#4cfe9f1f-f3af-4c88-be26-a3b288857bbc"/><linearGradient id="cb250fa0-f778-4e27-86cc-c13b3525385b" x1="-49.66" y1="372.14" x2="151.63" y2="19.89" gradientTransform="translate(457.79 750) rotate(180)" xlink:href="#4cfe9f1f-f3af-4c88-be26-a3b288857bbc"/><linearGradient id="646fb94e-406c-4064-a962-ca998e379e01" x1="-28.4" y1="384.18" x2="172.8" y2="32.08" gradientTransform="translate(457.79 750) rotate(180)" xlink:href="#4cfe9f1f-f3af-4c88-be26-a3b288857bbc"/><linearGradient id="5b8f39cd-ef35-408d-8a44-7826d823c964" x1="-42.75" y1="376.07" x2="158.53" y2="23.81" gradientTransform="translate(457.79 750) rotate(180)" xlink:href="#4cfe9f1f-f3af-4c88-be26-a3b288857bbc"/><linearGradient id="8f6c8a9e-395c-4eaf-a9d1-0973caee95d3" x1="-22.82" y1="387.38" x2="178.39" y2="35.25" gradientTransform="translate(457.79 750) rotate(180)" xlink:href="#4cfe9f1f-f3af-4c88-be26-a3b288857bbc"/><linearGradient id="5786933c-d8aa-476c-a782-318b1742388a" x1="-33.65" y1="381.24" x2="167.63" y2="29.01" gradientTransform="translate(457.79 750) rotate(180)" xlink:href="#4cfe9f1f-f3af-4c88-be26-a3b288857bbc"/><linearGradient id="640da15c-b813-4e07-b386-88918d0d50a7" x1="-14.97" y1="391.87" x2="186.26" y2="39.72" gradientTransform="translate(457.79 750) rotate(180)" xlink:href="#4cfe9f1f-f3af-4c88-be26-a3b288857bbc"/><linearGradient id="dedce46e-4bee-4778-94f3-44729cab82ac" x1="-22.37" y1="387.67" x2="178.89" y2="35.46" gradientTransform="translate(457.79 750) rotate(180)" xlink:href="#4cfe9f1f-f3af-4c88-be26-a3b288857bbc"/><linearGradient id="ebd80c5b-c302-4d23-a7bc-a9a58eb72942" x1="-5.45" y1="397.32" x2="195.8" y2="45.13" gradientTransform="translate(457.79 750) rotate(180)" xlink:href="#4cfe9f1f-f3af-4c88-be26-a3b288857bbc"/><linearGradient id="9b2e344b-eaa6-4cbd-8c89-64d4e115c0f7" x1="-9.11" y1="395.22" x2="192.13" y2="43.04" gradientTransform="translate(457.79 750) rotate(180)" xlink:href="#4cfe9f1f-f3af-4c88-be26-a3b288857bbc"/><linearGradient id="91da4ad1-ef77-4e7a-813c-02fe72e9f87a" x1="6.02" y1="403.87" x2="207.29" y2="51.66" gradientTransform="translate(457.79 750) rotate(180)" xlink:href="#4cfe9f1f-f3af-4c88-be26-a3b288857bbc"/><linearGradient id="d58d3b55-6881-4df2-a2ba-6a2271e5d8b8" x1="6.06" y1="403.87" x2="207.29" y2="51.72" gradientTransform="translate(457.79 750) rotate(180)" xlink:href="#4cfe9f1f-f3af-4c88-be26-a3b288857bbc"/><linearGradient id="603e85ff-c263-4965-b76e-4bc63e300bad" x1="18.94" y1="411.26" x2="220.24" y2="58.99" gradientTransform="translate(457.79 750) rotate(180)" xlink:href="#4cfe9f1f-f3af-4c88-be26-a3b288857bbc"/><linearGradient id="49326055-873a-49b0-b116-b73f4a821f13" x1="22.78" y1="413.4" x2="224" y2="61.28" gradientTransform="translate(457.79 750) rotate(180)" xlink:href="#4cfe9f1f-f3af-4c88-be26-a3b288857bbc"/><linearGradient id="67c92b14-5446-4305-afc5-51e60180bd5c" x1="33.36" y1="419.49" x2="234.68" y2="67.19" gradientTransform="translate(457.79 750) rotate(180)" xlink:href="#4cfe9f1f-f3af-4c88-be26-a3b288857bbc"/><linearGradient id="9df2669e-34e3-4477-8eb2-97c086dc2ea4" x1="40.79" y1="423.68" x2="242" y2="71.56" gradientTransform="translate(457.79 750) rotate(180)" xlink:href="#4cfe9f1f-f3af-4c88-be26-a3b288857bbc"/><linearGradient id="0190aff0-5e1b-4808-b355-3b64fb83f0a7" x1="48.79" y1="428.29" x2="250.1" y2="76" gradientTransform="translate(457.79 750) rotate(180)" xlink:href="#4cfe9f1f-f3af-4c88-be26-a3b288857bbc"/><linearGradient id="03402a30-c923-4dcc-9e98-63198a88f0b6" x1="59.76" y1="434.49" x2="260.92" y2="82.45" gradientTransform="translate(457.79 750) rotate(180)" xlink:href="#4cfe9f1f-f3af-4c88-be26-a3b288857bbc"/><linearGradient id="69aac6ee-5d4b-438b-91f5-edbb6848b461" x1="167.16" y1="99.11" x2="167.16" y2="371.2" xlink:href="#56a5c09a-58b2-43e2-9217-68ef174e420a"/><linearGradient id="4e2a7870-136a-4a18-896d-26e267c1ac59" x1="167.9" y1="99.08" x2="167.9" y2="371.2" gradientTransform="matrix(1, 0, 0, -1, 0, 750)" gradientUnits="userSpaceOnUse"><stop offset="0" stop-color="#fdbd30"/><stop offset="0.47" stop-color="#fceb83"/><stop offset="1" stop-color="#ffe367"/></linearGradient><linearGradient id="e15068b2-6a38-4ff3-b8bc-62510ffbbf63" x1="99.66" y1="99.11" x2="99.66" y2="371.2" gradientTransform="translate(433.19 750) rotate(180)" xlink:href="#56a5c09a-58b2-43e2-9217-68ef174e420a"/><linearGradient id="088121a1-dbde-4a90-863a-7ee9eff80745" x1="100.29" y1="99.08" x2="100.29" y2="371.2" gradientTransform="translate(433.19 750) rotate(180)" xlink:href="#4e2a7870-136a-4a18-896d-26e267c1ac59"/><linearGradient id="a860887d-7554-4e71-9be9-4996ca19eb3e" x1="261.44" y1="0.22" x2="300.81" y2="0.22" xlink:href="#59a1651b-8218-466f-a544-b121808dc1d3"/><linearGradient id="82df8f95-e273-4903-afc9-f3ea8c023762" x1="181.89" y1="115.36" x2="300.81" y2="115.36" xlink:href="#dad6f965-94b4-45d1-b8be-9c5504294161"/><linearGradient id="94349335-ffee-4579-a2a6-2c39315f00bd" x1="221.27" y1="115.32" x2="340.17" y2="115.32" xlink:href="#258c3af2-895b-41cd-b3ac-4b36c8b9a9f6"/><linearGradient id="8b6b8a9c-792f-4bb8-9d85-56f6fe33c250" x1="300.81" y1="0.13" x2="340.17" y2="0.13" xlink:href="#258c3af2-895b-41cd-b3ac-4b36c8b9a9f6"/><linearGradient id="1f550a45-1925-4780-add0-d6b1dc7d52f0" x1="260.56" y1="115.27" x2="379.53" y2="115.27" xlink:href="#88a43e1c-4d6a-45a4-8caa-ec70c49cebfa"/><linearGradient id="932e1708-604e-4e02-875d-e5235d96a7d5" x1="340.17" y1="0.04" x2="379.53" y2="0.04" xlink:href="#0278113c-57f2-4c4d-a9bf-53b69807cd47"/><linearGradient id="9ad0f22b-04ac-49ca-8aa6-38e762d3ea4b" x1="165.25" y1="467.98" x2="336.57" y2="467.98" gradientTransform="matrix(1, 0, 0, 1, 0, 0)" xlink:href="#4cfe9f1f-f3af-4c88-be26-a3b288857bbc"/></defs><title>house_gold</title><polygon points="102.51 0.63 181.89 230.54 221.27 230.54 141.82 0.54 102.51 0.63" fill="url(#dad6f965-94b4-45d1-b8be-9c5504294161)"/><line x1="102.51" y1="0.63" x2="141.82" y2="0.54" fill="url(#59a1651b-8218-466f-a544-b121808dc1d3)"/><line x1="141.82" y1="0.54" x2="181.12" y2="0.45" fill="url(#258c3af2-895b-41cd-b3ac-4b36c8b9a9f6)"/><polygon points="141.82 0.54 221.27 230.54 260.56 230.54 181.12 0.45 141.82 0.54" fill="url(#d64af923-dc78-442a-89f0-df37740eeb81)"/><polygon points="181.12 0.45 260.56 230.54 299.94 230.54 220.42 0.36 181.12 0.45" fill="url(#88a43e1c-4d6a-45a4-8caa-ec70c49cebfa)"/><line x1="181.12" y1="0.45" x2="220.42" y2="0.36" fill="url(#0278113c-57f2-4c4d-a9bf-53b69807cd47)"/><g id="30915497-ff03-4098-b7c5-ec423870095f" data-name="guld"><path d="M333,277.88H167.09V234.69c0-13.84,11.61-25.05,26-25.05H307c14.35,0,26,11.21,26,25.05v43.19ZM180.75,264.72H319.26V234.79A12.16,12.16,0,0,0,307,222.9H193.15a12.09,12.09,0,0,0-12.3,11.89v29.93Z" transform="translate(-9.74 0.19)" fill="url(#c973fe46-b8eb-48a1-ba3d-3f183b6ff202)"/><path d="M336.73,277.88H163.38V230.8a27.33,27.33,0,0,1,27.33-27.3H309.3a27.34,27.34,0,0,1,27.34,27.3v47.08ZM177.82,263.55H322.29V230.89a13,13,0,0,0-13-13H190.8a13,13,0,0,0-13,13Z" transform="translate(-9.74 0.19)" fill="url(#7f5cdd1b-8e52-4ef5-a55a-5ed22cc879b2)"/><path d="M336.73,278l-18.45.19-18.44.1-36.8.2c-12.3.09-50.47-.1-62.77-.1l-36.8-.2h-.29v-.29c.1-11.31.2-22.71.1-34v-8.48a63.59,63.59,0,0,1,.29-8.58,27.95,27.95,0,0,1,22.55-23.4,42.72,42.72,0,0,1,8.59-.49l8.49-.09,60-.1h46.86l2.14.1,2.15.29A27.87,27.87,0,0,1,337,226.6a63.7,63.7,0,0,1,.29,8.58l-.1,8.48Zm-.09-.2-.3-34-.09-8.48a47.56,47.56,0,0,0-.4-8.38,26.48,26.48,0,0,0-7.32-14.63,27.07,27.07,0,0,0-14.44-7.6l-2-.29-2.15-.1c-1.37-.1-2.83,0-4.2,0H263.13l-60-.1-8.49-.1a40.37,40.37,0,0,0-8.39.39,27,27,0,0,0-14.64,7.61,26.52,26.52,0,0,0-7.42,14.72,59.5,59.5,0,0,0-.39,8.48v8.48c-.1,11.31,0,22.72.09,34l-.29-.29,36.8-.19c12.3,0,50.47-.2,62.76-.1l36.8.19,18.45.1Z" transform="translate(-9.74 0.19)" fill="url(#4b100e80-06a9-482e-9b54-6699eec85c08)"/><path d="M177.92,263.45c9.86-.19,19.72-.29,29.58-.39l55.54-.19c9.86,0,19.71.1,29.67.1l29.67.19-.29.29c.1-8.28,0-16.57,0-24.86v-6.24a16.93,16.93,0,0,0-.78-5.94,12.38,12.38,0,0,0-8.59-7.7,20.69,20.69,0,0,0-6.05-.39l-6.25.09-12.39.1-24.9.1H200l-6.25-.1c-2,0-4.19-.19-6,.39a12.52,12.52,0,0,0-8.49,7.61,13.31,13.31,0,0,0-.78,5.94l-.1,6.24Zm-.2.1-.29-24.86-.1-6.24a15.08,15.08,0,0,1,.79-6.24,13.53,13.53,0,0,1,9.17-8.48,23.8,23.8,0,0,1,6.35-.49l6.24-.09H263l24.89.09,12.39.1,6.25.1a22.38,22.38,0,0,1,6.25.49,13.46,13.46,0,0,1,9.08,8.38,15.22,15.22,0,0,1,.78,6.24v6.24c0,8.29-.1,16.57,0,24.86v.29h-.3l-29.67.2c-9.86,0-19.72.19-29.67.09L207.5,264c-10-.1-19.82-.29-29.78-.49Z" transform="translate(-9.74 0.19)" fill="url(#5a1c137a-ec62-4353-b417-0b8c60ce00c9)"/><ellipse cx="240.61" cy="485.23" rx="240.61" ry="240.3" fill="url(#74498871-4394-40f6-9e4f-5e7ed00eea87)"/><ellipse cx="240.61" cy="485.23" rx="235.24" ry="234.94" fill="url(#3ac8b756-f1b8-4479-a151-3c5cae1cff87)"/><path d="M485.69,485s0,1.46-.1,4.19,0,6.92-.49,12.38a219.08,219.08,0,0,1-7.81,46.21c-.68,2.44-1.36,5-2.14,7.51s-1.76,5.07-2.64,7.8-1.95,5.26-3,8-2.05,5.56-3.41,8.29a225.3,225.3,0,0,1-18.74,34.7,238.4,238.4,0,0,1-66.09,67,244.09,244.09,0,0,1-48,24.86c-2.15.88-4.39,1.56-6.64,2.34s-4.49,1.56-6.73,2.25-4.59,1.26-6.93,2l-3.52,1-3.51.78c-2.34.58-4.69,1.07-7.13,1.66s-4.78.87-7.22,1.36c-4.78,1-9.76,1.46-14.64,2.15-2.44.39-5,.48-7.42.68l-7.52.58c-2.53.1-5.07.1-7.61.2l-3.81.1c-1.27,0-2.54-.1-3.8-.1-2.54-.1-5.08-.1-7.62-.2s-5.17-.39-7.71-.58c-5.17-.29-10.35-1.07-15.52-1.76A245.94,245.94,0,0,1,185,711.6c-5.18-1.37-10.15-3.22-15.33-5-2.53-1-5-2-7.51-2.93l-3.81-1.46-3.71-1.66a235.66,235.66,0,0,1-55.83-34.9,247.39,247.39,0,0,1-24.11-23.39,265.26,265.26,0,0,1-20.79-26.81A247.63,247.63,0,0,1,37,585.74a236.6,236.6,0,0,1-12.4-32.07A248.21,248.21,0,0,1,17,519.94a273.28,273.28,0,0,1-2.64-34.51,257.28,257.28,0,0,1,2.44-34.51,233.79,233.79,0,0,1,7.52-33.73A245.87,245.87,0,0,1,36.58,385a249.32,249.32,0,0,1,16.79-29.93,235.89,235.89,0,0,1,101-85.2l3.71-1.66,3.8-1.46c2.54-1,5-2,7.52-2.93,5.07-1.65,10.15-3.6,15.32-4.87a231.22,231.22,0,0,1,30.95-6.73c5.17-.68,10.34-1.46,15.52-1.65,2.53-.2,5.17-.49,7.71-.59s5.17-.1,7.71-.19c1.27,0,2.54-.1,3.81-.1l3.8.1c2.54.09,5.08.09,7.52.19l7.51.59c2.54.19,5,.29,7.52.68,5,.58,9.86,1.17,14.64,2.14,2.44.49,4.88.78,7.23,1.37s4.78,1.07,7.12,1.65l3.51.78,3.52,1c2.34.68,4.59,1.27,6.93,1.95s4.49,1.46,6.73,2.24,4.49,1.46,6.64,2.34a242.74,242.74,0,0,1,48,24.86,237,237,0,0,1,66,67.07,225.38,225.38,0,0,1,18.74,34.71c1.27,2.72,2.35,5.55,3.42,8.28s2.15,5.36,3,8,1.75,5.26,2.63,7.79c.68,2.54,1.46,5.07,2.15,7.51a226.55,226.55,0,0,1,7.81,46.21c.49,5.36.39,9.55.49,12.38A27.76,27.76,0,0,1,485.69,485Zm-.2,0s0-1.46-.1-4.19,0-6.92-.58-12.29a221.12,221.12,0,0,0-8-46c-.69-2.44-1.47-4.87-2.15-7.41-.88-2.53-1.76-5.07-2.64-7.7s-1.95-5.26-3-8-2.15-5.46-3.42-8.19a223.54,223.54,0,0,0-18.84-34.41,236.73,236.73,0,0,0-66.08-66.3,239.83,239.83,0,0,0-47.83-24.37A234.86,234.86,0,0,0,277,252.83c-2.44-.39-4.89-.49-7.42-.69l-7.42-.58c-2.54-.1-5.08-.1-7.52-.2l-3.8-.09c-1.18,0-2.54.09-3.81.09-2.54.1-5.08.1-7.61.2s-5.08.39-7.62.49c-5.17.29-10.25,1.07-15.42,1.65a228,228,0,0,0-30.75,6.63c-5.17,1.37-10.15,3.22-15.23,4.88-2.53.88-5,2-7.51,2.92l-3.71,1.46-3.71,1.66a234.8,234.8,0,0,0-79.55,57.81,241.17,241.17,0,0,0-20.7,26.71,233.13,233.13,0,0,0-16.79,29.64A229.16,229.16,0,0,0,26,417.29a245.45,245.45,0,0,0-7.62,33.53,268.48,268.48,0,0,0-2.63,34.41,254.2,254.2,0,0,0,2.44,34.42,249.59,249.59,0,0,0,7.42,33.63,229.24,229.24,0,0,0,12.3,32A259.79,259.79,0,0,0,54.64,615a235.21,235.21,0,0,0,100.63,84.52l3.71,1.66,3.71,1.46c2.54,1,5,2,7.52,2.92,5.07,1.66,10,3.51,15.23,4.88a244.33,244.33,0,0,0,30.74,6.63c5.18.58,10.25,1.36,15.43,1.65,2.53.2,5.07.39,7.61.49s5.08.1,7.61.2c1.27,0,2.54.09,3.81.09l3.81-.09c2.54-.1,5.07-.1,7.51-.2l7.52-.58c2.44-.2,5-.3,7.42-.69a237.12,237.12,0,0,0,103.66-37.82,236,236,0,0,0,84.92-100.7c1.37-2.73,2.35-5.56,3.42-8.19s2.15-5.36,3-8,1.76-5.16,2.64-7.7,1.46-5.07,2.15-7.41a228.08,228.08,0,0,0,8-46c.49-5.36.39-9.55.59-12.28C485.49,486.5,485.49,485,485.49,485Z" transform="translate(-9.74 0.19)" fill="url(#0d3bdf54-39a4-4dd7-bf75-2dd934bb8c59)"/><g id="192cfc60-96fa-470a-8e41-42b31065c510" data-name="SVGID"><g clip-path="url(#45c63841-0f84-4740-8475-dc50150d4eac)"><path d="M361.72,271.93a240.22,240.22,0,0,0-111.37-27.19C117.4,244.74,9.74,352.36,9.74,485A239.77,239.77,0,0,0,91.92,666c3-.78,6.06-1.65,9.08-2.53a298.37,298.37,0,0,0,129.63-78C290.27,524.13,308,440.29,331.07,360.74,339.37,331.79,349,301.18,361.72,271.93Z" transform="translate(-9.74 0.19)" fill="url(#7f01a240-dcd7-4307-9620-0eb2021588d8)"/></g></g><path d="M361.72,271.93a240.22,240.22,0,0,0-111.37-27.19C117.4,244.74,9.74,352.36,9.74,485A239.77,239.77,0,0,0,91.92,666c3-.78,6.06-1.65,9.08-2.53a298.37,298.37,0,0,0,129.63-78C290.27,524.13,308,440.29,331.07,360.74,339.37,331.79,349,301.18,361.72,271.93Z" transform="translate(-9.74 0.19)" opacity="0.6" fill="url(#b9a2cf5d-13e5-4bb6-9dfb-0557ca51f7c0)" style="isolation:isolate"/><ellipse cx="240.61" cy="485.23" rx="206.74" ry="206.48" fill="url(#87889226-b486-4a23-97f5-e9391b6ca79b)"/><ellipse cx="240.61" cy="485.23" rx="201.37" ry="201.11" fill="url(#47ff464e-2ad8-4193-940e-259a25ae3e8f)"/><path d="M457.19,485s0,1.27-.1,3.7,0,6.15-.49,10.83a193.72,193.72,0,0,1-6.83,40.55c-.59,2.14-1.27,4.29-1.86,6.63-.78,2.24-1.46,4.48-2.24,6.82a69.12,69.12,0,0,1-2.64,7c-1,2.34-1.85,4.88-3,7.31a204.86,204.86,0,0,1-16.4,30.52,207.06,207.06,0,0,1-100.35,80.81c-1.85.78-3.9,1.37-5.85,2s-3.91,1.36-6,2-4,1.17-6.05,1.75-4.1,1.17-6.15,1.56L293,688c-2.05.48-4.19.78-6.34,1.17-4.2.87-8.59,1.26-12.89,1.85-2.14.29-4.39.39-6.54.58s-4.39.3-6.63.49-4.49.1-6.64.2l-3.32.09c-1.17,0-2.24-.09-3.42-.09-2.24-.1-4.49-.1-6.73-.2s-4.49-.29-6.83-.49c-4.59-.29-9.08-1-13.67-1.56a205.38,205.38,0,0,1-27.23-5.94c-4.49-1.17-9-2.83-13.47-4.39-2.25-.78-4.4-1.75-6.64-2.63l-3.32-1.37-3.22-1.46A206.85,206.85,0,0,1,117,643.55,210.71,210.71,0,0,1,95.83,623a237,237,0,0,1-18.25-23.59,213.55,213.55,0,0,1-14.84-26.13,204.44,204.44,0,0,1-10.93-28.17,216.66,216.66,0,0,1-6.74-29.63,242.36,242.36,0,0,1-2.34-30.32,225.93,225.93,0,0,1,2.15-30.42A220.84,220.84,0,0,1,51.42,425a205.25,205.25,0,0,1,10.83-28.27A223.63,223.63,0,0,1,77,370.4a207.8,207.8,0,0,1,88.83-75L169,294l3.32-1.27c2.24-.88,4.39-1.76,6.63-2.63,4.49-1.47,8.89-3.12,13.47-4.29a205.56,205.56,0,0,1,27.24-5.95c4.59-.58,9.08-1.27,13.66-1.46,2.25-.2,4.49-.39,6.84-.49s4.49-.1,6.73-.19c1.17,0,2.25-.1,3.42-.1l3.32.1c2.24.09,4.39.09,6.63.19s4.4.29,6.64.49,4.39.29,6.54.58A202.84,202.84,0,0,1,323,290.85a206,206,0,0,1,42.27,21.93,211.4,211.4,0,0,1,58.07,59,198.7,198.7,0,0,1,16.4,30.51c1.17,2.44,2.05,4.88,3,7.32s1.85,4.67,2.63,7,1.57,4.59,2.25,6.83,1.27,4.48,1.85,6.63a200,200,0,0,1,6.84,40.55c.39,4.78.29,8.39.48,10.82A24,24,0,0,1,457.19,485Zm-.2,0s0-1.27-.1-3.7,0-6.15-.49-10.83a201.1,201.1,0,0,0-7-40.45c-.59-2.15-1.27-4.29-1.86-6.53-.78-2.25-1.56-4.49-2.34-6.83s-1.76-4.68-2.64-7-1.85-4.87-3-7.21a204.39,204.39,0,0,0-16.6-30.32A206.53,206.53,0,0,0,273.68,280.9c-2.15-.29-4.3-.39-6.54-.58s-4.4-.29-6.54-.49-4.4-.1-6.64-.19l-3.32-.1-3.32.1c-2.24.09-4.49.09-6.73.19s-4.49.29-6.74.49c-4.49.19-9,.88-13.47,1.46a187.86,187.86,0,0,0-26.94,5.85c-4.49,1.17-8.88,2.83-13.37,4.29-2.25.78-4.39,1.75-6.54,2.53l-3.32,1.27L167,297.18a204.3,204.3,0,0,0-48.81,30.42A220.22,220.22,0,0,0,97.1,348a209.79,209.79,0,0,0-33,49.43,201.23,201.23,0,0,0-17.57,57.52,239.19,239.19,0,0,0-2.35,30.22,224.62,224.62,0,0,0,2.15,30.22,218.16,218.16,0,0,0,6.54,29.54,204.52,204.52,0,0,0,10.84,28.17A214.14,214.14,0,0,0,78.45,599.2a206.49,206.49,0,0,0,88.44,74.28l3.22,1.46,3.32,1.27c2.25.88,4.39,1.76,6.64,2.53,4.49,1.47,8.88,3.12,13.37,4.29a205.34,205.34,0,0,0,27,5.76c4.49.58,9,1.26,13.57,1.46,2.24.1,4.49.39,6.73.49s4.49.09,6.74.19c1.07,0,2.24.1,3.32.1l3.31-.1c2.25-.1,4.4-.1,6.64-.19s4.39-.3,6.54-.49,4.39-.29,6.54-.59a206.87,206.87,0,0,0,149.25-91.44,194.79,194.79,0,0,0,16.59-30.32c1.17-2.43,2.05-4.87,3-7.21a69,69,0,0,0,2.63-7c.79-2.34,1.57-4.58,2.35-6.82s1.27-4.39,1.85-6.54a195,195,0,0,0,7-40.45c.49-4.68.39-8.39.49-10.82C457,486.31,457,485,457,485Z" transform="translate(-9.74 0.19)" fill="url(#bd252af7-953c-40a3-ba54-863e87673dab)"/><path d="M196.27,665.1a41.09,41.09,0,0,0,6.83-1,19.49,19.49,0,0,0,5-2,13.64,13.64,0,0,0,5.37-5.16,12.65,12.65,0,0,0,.88-9.17,55,55,0,0,0-9.76,9,28.17,28.17,0,0,1,1.85-3.21,38.12,38.12,0,0,1,6.35-7.12,16.44,16.44,0,0,0-4,.39,13.06,13.06,0,0,0-5.18,2C200.08,651.06,196.66,655.64,196.27,665.1Z" transform="translate(-9.74 0.19)" fill="url(#56a5c09a-58b2-43e2-9217-68ef174e420a)"/><path d="M210.82,619.38a35,35,0,0,1,3.61,4.38,26.21,26.21,0,0,1,2.44,3.9,14.75,14.75,0,0,1,1.75,6.83,13.09,13.09,0,0,1-3.22,8.58,31.4,31.4,0,0,1-3.51-12.19,16.52,16.52,0,0,0-.2,3.7,25.21,25.21,0,0,0,1.86,9,13.33,13.33,0,0,1-3.32-2,11.58,11.58,0,0,1-3-4.59C205.74,633,206.13,627.47,210.82,619.38Z" transform="translate(-9.74 0.19)" fill="url(#59977cc9-1567-4216-a8fe-0bab0f55de74)"/><path d="M173.14,656.23c10.73.29,15.71-2.64,18.15-6a12.67,12.67,0,0,0,2.05-9,49.5,49.5,0,0,0-10.73,7.41,15.52,15.52,0,0,1,2.24-2.93,34.17,34.17,0,0,1,7.13-6,15.07,15.07,0,0,0-9.47,1.07C178.8,642.77,174.7,647,173.14,656.23Z" transform="translate(-9.74 0.19)" fill="url(#cfb0bec2-a6bc-459f-95a5-ac81ced5ba06)"/><path d="M193.54,612.75c5.07,6.43,6.34,12,5.76,16.08a12.74,12.74,0,0,1-4.3,8,37.48,37.48,0,0,1-1.85-12.77,27.78,27.78,0,0,0-.69,3.6,26.6,26.6,0,0,0,.59,9.26,12.83,12.83,0,0,1-5.37-7.41C186.71,625.61,187.88,620.25,193.54,612.75Z" transform="translate(-9.74 0.19)" fill="url(#c227c07a-a050-4c72-9634-e131389d3529)"/><path d="M151.57,644.14a39.23,39.23,0,0,0,6.83.78,22.49,22.49,0,0,0,5.37-.69,13.94,13.94,0,0,0,6.54-3.6,12.58,12.58,0,0,0,3.22-8.58,55.42,55.42,0,0,0-11.72,6.14,26.29,26.29,0,0,1,2.64-2.63,38.23,38.23,0,0,1,8-5.17,16,16,0,0,0-4-.68,12.58,12.58,0,0,0-5.56.58C158.89,631.56,154.3,635.17,151.57,644.14Z" transform="translate(-9.74 0.19)" fill="url(#731ee316-8bbb-4c1a-a2cb-3888b664d725)"/><path d="M177.43,603.78a44.41,44.41,0,0,1,2.34,5.16,35.69,35.69,0,0,1,1.37,4.39,13.93,13.93,0,0,1-.1,7,13.57,13.57,0,0,1-5.36,7.51,32.61,32.61,0,0,1-.2-12.77,22.09,22.09,0,0,0-1.17,3.51,25.87,25.87,0,0,0-.59,9.16,15.55,15.55,0,0,1-2.63-2.83,11.6,11.6,0,0,1-1.76-5.26C169,615.67,170.89,610.31,177.43,603.78Z" transform="translate(-9.74 0.19)" fill="url(#127718ec-24b8-4a87-a0ab-add0dec59a6b)"/><path d="M131.55,629.61c10.25,3,15.92,1.46,19-1.07a12.65,12.65,0,0,0,4.29-8.09,47.75,47.75,0,0,0-12.39,4.39,19,19,0,0,1,2.93-2.25,36.89,36.89,0,0,1,8.49-4,14.15,14.15,0,0,0-9.37-1.37C140.44,618.21,135.56,620.94,131.55,629.61Z" transform="translate(-9.74 0.19)" fill="url(#ac3e2782-5600-46f0-8189-977c5a7bbd43)"/><path d="M162.5,593c3.32,7.5,3,13.16,1.46,17a12.94,12.94,0,0,1-6.25,6.63,36.35,36.35,0,0,1,1.57-12.77,17.3,17.3,0,0,0-1.57,3.31,28.46,28.46,0,0,0-1.85,9.07,13,13,0,0,1-3.32-8.48C152.54,603.68,155.18,598.51,162.5,593Z" transform="translate(-9.74 0.19)" fill="url(#d94ee053-a977-4c83-8951-e60f08246dda)"/><path d="M113.79,612.36c9.47,4.68,15.52,3.51,19,1.36a12.47,12.47,0,0,0,5.27-7.5A56.49,56.49,0,0,0,125.21,609a20.25,20.25,0,0,1,3.22-1.85,39.61,39.61,0,0,1,3.81-1.46,48.43,48.43,0,0,1,5.17-1.37c-1.66-.87-4.88-2.82-9.08-2.63C124.14,602.12,118.77,604.46,113.79,612.36Z" transform="translate(-9.74 0.19)" fill="url(#bb4ef0e7-5f30-4d3d-a5fe-56548e2b13b7)"/><path d="M149.22,580.09c1.95,8.19,1.37,13.45-.78,17.06a12.9,12.9,0,0,1-7.12,5.85,31.36,31.36,0,0,1,3.12-12.38,24.42,24.42,0,0,0-2.05,3.12,23.41,23.41,0,0,0-1.76,3.8,31.23,31.23,0,0,0-1.27,5,11.7,11.7,0,0,1-2.14-9C138,589.35,141.22,584.77,149.22,580.09Z" transform="translate(-9.74 0.19)" fill="url(#bf2f3b59-bf94-4883-b7f0-034fd1534104)"/><path d="M98.27,593.15c9.08,5.66,14.93,5.46,18.74,3.8a12.44,12.44,0,0,0,6.25-6.72,50.63,50.63,0,0,0-13.08,1.07,28.91,28.91,0,0,1,3.41-1.46,38.29,38.29,0,0,1,9.28-1.66,14.78,14.78,0,0,0-8.79-3.7C109.79,584.38,104.32,585.84,98.27,593.15Z" transform="translate(-9.74 0.19)" fill="url(#164b7a33-d5d7-42d5-bf02-6ebc1e1b99a4)"/><path d="M137.61,565.76c1.17,8.09-.39,13.45-2.93,16.77A13.5,13.5,0,0,1,127,587.4a34.05,34.05,0,0,1,4.78-11.89,21,21,0,0,0-2.44,2.82,26.1,26.1,0,0,0-4.1,8.29,13.24,13.24,0,0,1-1.07-9.07C125.21,573.46,129.11,569.27,137.61,565.76Z" transform="translate(-9.74 0.19)" fill="url(#cf658be2-b16a-43a8-b8a8-5b8ddb62e9b7)"/><path d="M85.48,572c4.1,3.41,7.42,5.36,10.45,6.24a14,14,0,0,0,7.51.09,12.52,12.52,0,0,0,7-5.85,52.13,52.13,0,0,0-5.37-.58,69.76,69.76,0,0,0-7.81,0,25,25,0,0,1,3.62-1,37.31,37.31,0,0,1,9.37-.49c-1.37-1.27-3.91-4.1-8.11-4.88C98.17,564.78,92.41,565.56,85.48,572Z" transform="translate(-9.74 0.19)" fill="url(#f7e9bf24-eecd-4f27-b965-ee564b26c0da)"/><path d="M128.14,549.87a35.87,35.87,0,0,1-1.56,10.23,15.13,15.13,0,0,1-3.61,6,13,13,0,0,1-8.4,3.8,28,28,0,0,1,2-4.78,38.61,38.61,0,0,1,4.3-6.43,18,18,0,0,0-2.74,2.44,27,27,0,0,0-5.17,7.7,11.93,11.93,0,0,1,.29-9.17C114.86,555.91,119.16,552.31,128.14,549.87Z" transform="translate(-9.74 0.19)" fill="url(#aaaaaefd-24c7-403f-976a-060f61914b54)"/><path d="M75.43,549.38c7.22,7.8,13.08,9.16,17.08,8.58a12.84,12.84,0,0,0,7.81-4.87,49.87,49.87,0,0,0-13-2.34,17.51,17.51,0,0,1,3.71-.49,38.24,38.24,0,0,1,9.37.78,14.85,14.85,0,0,0-7.62-5.85C88.9,543.82,83.24,543.92,75.43,549.38Z" transform="translate(-9.74 0.19)" fill="url(#341cc172-eed3-449d-8b35-e61a2df56885)"/><path d="M120.62,533c-1.07,8.19-3.9,12.87-7.22,15.41a12.86,12.86,0,0,1-8.79,2.63,34.45,34.45,0,0,1,7.72-10.24,23.84,23.84,0,0,0-3,2.05,29.73,29.73,0,0,0-6.15,6.92,12.62,12.62,0,0,1,1.27-9C106.66,537.29,111.45,534.27,120.62,533Z" transform="translate(-9.74 0.19)" fill="url(#2dfccbe9-5563-4b03-8234-32ec70269533)"/><path d="M68.69,525.59c3,4.39,5.76,7.12,8.5,8.68a14.37,14.37,0,0,0,7.22,2.05,12.27,12.27,0,0,0,8.3-3.8,42.12,42.12,0,0,0-5.08-1.95,55.29,55.29,0,0,0-7.52-2.05,17.87,17.87,0,0,1,3.71,0A39.52,39.52,0,0,1,93,530.57c-1-1.66-2.64-5-6.54-6.83C82.75,521.89,77,521.21,68.69,525.59Z" transform="translate(-9.74 0.19)" fill="url(#e1acef20-7cfe-421d-b036-eee03c393fb9)"/><path d="M115.55,515.36a32.07,32.07,0,0,1-4.2,9.45,13.59,13.59,0,0,1-14.06,6.44,27.12,27.12,0,0,1,3.13-4.1,40.51,40.51,0,0,1,5.85-5.07,21.36,21.36,0,0,0-3.32,1.66,26.39,26.39,0,0,0-7,6A11.84,11.84,0,0,1,98.66,521C101.2,517.7,106.27,515.36,115.55,515.36Z" transform="translate(-9.74 0.19)" fill="url(#081a05f7-c714-4087-bbab-3abf09a93702)"/><path d="M64.89,501.12c5.07,9.46,10.25,12.29,14.25,12.68a13,13,0,0,0,8.78-2.63A52,52,0,0,0,76,505.51a19.22,19.22,0,0,1,3.71.49,37.05,37.05,0,0,1,8.89,3.22,14.69,14.69,0,0,0-5.76-7.61C79.24,499.37,73.87,497.91,64.89,501.12Z" transform="translate(-9.74 0.19)" fill="url(#01740570-7c88-4322-8abb-0299258c6368)"/><path d="M112.72,497.13c-3,7.6-7.13,11.4-10.94,13.06a13.48,13.48,0,0,1-9.17.29,34,34,0,0,1,10-7.89,19.35,19.35,0,0,0-3.51,1.26,27.19,27.19,0,0,0-7.71,5.07,12.59,12.59,0,0,1,3.61-8.38C98.07,497.62,103.64,495.86,112.72,497.13Z" transform="translate(-9.74 0.19)" fill="url(#60b074a3-3332-4919-a4ea-8c4ec11688e9)"/><path d="M64.4,476.46C67.91,486.4,73,489.91,77,490.89a12.28,12.28,0,0,0,9.08-1.56,59.52,59.52,0,0,0-11.23-7.12,21.84,21.84,0,0,1,3.61,1,42.48,42.48,0,0,1,8.4,4.29,15.83,15.83,0,0,0-4.69-8.29C78.94,476.56,73.57,474.32,64.4,476.46Z" transform="translate(-9.74 0.19)" fill="url(#749edbb0-2ec1-4ce7-b8dc-2c6acc7fdb48)"/><path d="M112.33,478.61c-4.3,7.21-8.5,10.43-12.5,11.5a13.77,13.77,0,0,1-9.17-.88,30.39,30.39,0,0,1,10.93-6.53,17,17,0,0,0-3.61.78,26.92,26.92,0,0,0-8.3,4.09,11.74,11.74,0,0,1,4.78-7.79C97.88,477.24,103.35,476.27,112.33,478.61Z" transform="translate(-9.74 0.19)" fill="url(#92db9511-6059-4e79-898b-a19da08efa7d)"/><path d="M67.13,451.89c2.34,10.44,6.54,14.43,10.54,15.89a12.76,12.76,0,0,0,9.18-.29,57.4,57.4,0,0,0-10-8.48,20.36,20.36,0,0,1,3.41,1.46,35.15,35.15,0,0,1,7.71,5.36,14.54,14.54,0,0,0-3.51-8.77C81.48,453.84,76.6,451,67.13,451.89Z" transform="translate(-9.74 0.19)" fill="url(#41cc9d10-e2b0-4110-92bf-f07cb5fe5713)"/><path d="M114.38,460.28a29.44,29.44,0,0,1-7.42,7.11,15.8,15.8,0,0,1-6.54,2.64,13.06,13.06,0,0,1-9-2,32.67,32.67,0,0,1,11.81-5.07,17.12,17.12,0,0,0-3.71.29,31.79,31.79,0,0,0-8.88,2.93A13,13,0,0,1,96.41,459C100.12,457.06,105.79,456.77,114.38,460.28Z" transform="translate(-9.74 0.19)" fill="url(#f85ac597-6f26-45ff-b5fb-899c006d9044)"/><path d="M73.09,427.91a27.75,27.75,0,0,0,3.12,11.8,12.85,12.85,0,0,0,5.08,5.36,12.63,12.63,0,0,0,9.17.88,49.65,49.65,0,0,0-8.88-9.75,27.66,27.66,0,0,1,3.22,1.85,35.55,35.55,0,0,1,6.93,6.34,15.27,15.27,0,0,0-2.34-9.17C87.14,431.71,82.46,428.21,73.09,427.91Z" transform="translate(-9.74 0.19)" fill="url(#d0bbc145-22c0-4d66-9e9e-18b107337728)"/><path d="M118.77,442.34a38.84,38.84,0,0,1-8.2,6.14,15.45,15.45,0,0,1-6.93,1.76A13.08,13.08,0,0,1,95.05,447a36,36,0,0,1,12.4-3.51,16.37,16.37,0,0,0-3.71-.19,28.52,28.52,0,0,0-9.08,1.75,12.31,12.31,0,0,1,6.64-6.34C105.2,437.27,110.76,437.76,118.77,442.34Z" transform="translate(-9.74 0.19)" fill="url(#7ffb1871-c9f9-4234-971f-a61575466016)"/><path d="M82.07,404.81c-.59,10.62,2.63,15.69,6,18.13A12.83,12.83,0,0,0,97,425a54.46,54.46,0,0,0-7.52-10.82,15.52,15.52,0,0,1,2.93,2.24,38.47,38.47,0,0,1,6,7.21,15.61,15.61,0,0,0-1.07-9.45C95.44,410.46,91.34,406.37,82.07,404.81Z" transform="translate(-9.74 0.19)" fill="url(#80b6e4a7-dfd0-4ea6-b514-6280658b9745)"/><path d="M125.5,425.18c-6.63,5-11.91,6.34-16,5.85a13.38,13.38,0,0,1-8.1-4.29,34.23,34.23,0,0,1,12.69-1.85,26.17,26.17,0,0,0-12.88-.1,11.83,11.83,0,0,1,7.42-5.36C112.62,418.36,118.08,419.53,125.5,425.18Z" transform="translate(-9.74 0.19)" fill="url(#f2fac379-c2d0-4c60-be32-8971f07e7675)"/><path d="M94.07,383.17c-1.85,10.43.49,15.89,3.52,18.71a12.59,12.59,0,0,0,8.59,3.22,51.43,51.43,0,0,0-6.06-11.7,17.56,17.56,0,0,1,2.64,2.63,33.76,33.76,0,0,1,5.08,7.9,14.37,14.37,0,0,0,.09-9.46C106.57,390.48,103.05,386,94.07,383.17Z" transform="translate(-9.74 0.19)" fill="url(#dc79a907-57fd-4bf8-b004-33f54d37f4c6)"/><path d="M134.48,409c-7.22,4.09-12.78,4.68-16.69,3.61a13.58,13.58,0,0,1-7.51-5.36,33.68,33.68,0,0,1,12.88-.1,22.59,22.59,0,0,0-3.51-1.17,26.28,26.28,0,0,0-9.28-.68,12.92,12.92,0,0,1,8-4.39C122.57,400.62,127.85,402.47,134.48,409Z" transform="translate(-9.74 0.19)" fill="url(#78b4a38d-bdf0-4481-bb39-b807f51a2466)"/><path d="M108.71,363.28a48.76,48.76,0,0,0-1.66,6.73,25.16,25.16,0,0,0,0,5.36,13,13,0,0,0,2.74,6.92,12.65,12.65,0,0,0,8.1,4.29,53.37,53.37,0,0,0-4.49-12.38,18.81,18.81,0,0,1,2.24,2.92,35.58,35.58,0,0,1,4,8.58,15.87,15.87,0,0,0,1.27-3.8,15.11,15.11,0,0,0,.09-5.56C120.23,372.25,117.3,367.18,108.71,363.28Z" transform="translate(-9.74 0.19)" fill="url(#a2fbbcdf-28b4-4f7d-830c-f0c7fa58f984)"/><path d="M145.42,394.18a35.5,35.5,0,0,1-5.47,1.76,28.45,28.45,0,0,1-4.59.78,15.34,15.34,0,0,1-7-1.08,13.69,13.69,0,0,1-6.73-6.23,35,35,0,0,1,12.69,1.46,20.61,20.61,0,0,0-3.32-1.66,30.45,30.45,0,0,0-9.08-1.85,14.08,14.08,0,0,1,3.22-2.15,11.51,11.51,0,0,1,5.37-1.07C134.78,384.34,139.75,386.87,145.42,394.18Z" transform="translate(-9.74 0.19)" fill="url(#c52ae1fa-4b3d-43f9-947a-fdc5163e1c46)"/><path d="M141.12,357.24a29.83,29.83,0,0,0-10.93,5.36,13.35,13.35,0,0,0-4.2,6.14,12.68,12.68,0,0,0,1,9.06,54.68,54.68,0,0,0,7.71-10.62,23,23,0,0,1-1.17,3.51,35.41,35.41,0,0,1-4.79,8,15.27,15.27,0,0,0,8.59-4.09C140.24,371.66,142.68,366.59,141.12,357.24Z" transform="translate(-9.74 0.19)" fill="url(#03169924-68ab-4691-b326-fa4d6fc2731a)"/><path d="M194.51,665.1a41.38,41.38,0,0,0,6.84-1,19.8,19.8,0,0,0,5-2,13.61,13.61,0,0,0,5.36-5.16,12.6,12.6,0,0,0,.88-9.17,55.31,55.31,0,0,0-9.76,9,29.53,29.53,0,0,1,1.86-3.21,37.65,37.65,0,0,1,6.34-7.12,16.48,16.48,0,0,0-4,.39,13.06,13.06,0,0,0-5.18,2C198.42,651.06,194.9,655.64,194.51,665.1Z" transform="translate(-9.74 0.19)" fill="url(#4cfe9f1f-f3af-4c88-be26-a3b288857bbc)"/><path d="M209.06,619.38a35,35,0,0,1,3.61,4.38,25.41,25.41,0,0,1,2.44,3.9,14.78,14.78,0,0,1,1.76,6.83,13.15,13.15,0,0,1-3.22,8.58,31.54,31.54,0,0,1-3.52-12.19,16.24,16.24,0,0,0-.19,3.7,25.16,25.16,0,0,0,1.85,9,13.33,13.33,0,0,1-3.32-2,11.46,11.46,0,0,1-3-4.59C204,633,204.47,627.47,209.06,619.38Z" transform="translate(-9.74 0.19)" fill="url(#1ea65a08-1b4e-4425-9d16-1bfdf7556b46)"/><path d="M171.48,656.23c10.74.29,15.71-2.64,18.15-6a12.67,12.67,0,0,0,2.05-9A49.5,49.5,0,0,0,181,648.72a15.52,15.52,0,0,1,2.24-2.93,34.17,34.17,0,0,1,7.13-6,15.07,15.07,0,0,0-9.47,1.07C177,642.77,173,647,171.48,656.23Z" transform="translate(-9.74 0.19)" fill="url(#d197e1bf-7711-4e66-b509-51d88ffa4e87)"/><path d="M191.78,612.75c5.08,6.43,6.35,12,5.76,16.08a12.79,12.79,0,0,1-4.29,8,37.43,37.43,0,0,1-1.86-12.77,27,27,0,0,0-.68,3.6,26.31,26.31,0,0,0,.58,9.26,12.83,12.83,0,0,1-5.37-7.41C185.05,625.61,186.12,620.25,191.78,612.75Z" transform="translate(-9.74 0.19)" fill="url(#c3625d4b-093d-4266-acb9-d8062cefab6d)"/><path d="M149.81,644.14a39.23,39.23,0,0,0,6.83.78,22.42,22.42,0,0,0,5.37-.69,13.84,13.84,0,0,0,6.54-3.6,12.58,12.58,0,0,0,3.22-8.58,55.4,55.4,0,0,0-11.71,6.14,26.72,26.72,0,0,1,2.63-2.63,38.08,38.08,0,0,1,8-5.17,16.16,16.16,0,0,0-4-.68,12.6,12.6,0,0,0-5.56.58C157.13,631.56,152.64,635.17,149.81,644.14Z" transform="translate(-9.74 0.19)" fill="url(#3e306fcb-c3f4-4aef-83f4-e03e3beaef92)"/><path d="M175.68,603.78a48,48,0,0,1,2.34,5.16,37.3,37.3,0,0,1,1.36,4.39,14.06,14.06,0,0,1-.09,7,13.62,13.62,0,0,1-5.37,7.51,32.81,32.81,0,0,1-.2-12.77,23.45,23.45,0,0,0-1.17,3.51,26.14,26.14,0,0,0-.58,9.16,15.2,15.2,0,0,1-2.64-2.83,11.6,11.6,0,0,1-1.76-5.26C167.28,615.67,169.14,610.31,175.68,603.78Z" transform="translate(-9.74 0.19)" fill="url(#e12cfed9-512b-43a1-b4c6-afd927df1634)"/><path d="M129.8,629.61c10.25,3,15.91,1.46,19-1.07a12.73,12.73,0,0,0,4.3-8.09,47.78,47.78,0,0,0-12.4,4.39,19.68,19.68,0,0,1,2.93-2.25,36.89,36.89,0,0,1,8.49-4,14.14,14.14,0,0,0-9.37-1.37C138.68,618.21,133.8,620.94,129.8,629.61Z" transform="translate(-9.74 0.19)" fill="url(#c567fcb9-0747-461c-88d5-94bc2252800b)"/><path d="M160.74,593c3.32,7.5,3,13.16,1.46,17a12.93,12.93,0,0,1-6.24,6.63,36,36,0,0,1,1.56-12.77,17,17,0,0,0-1.56,3.31,28.42,28.42,0,0,0-1.86,9.07,13.06,13.06,0,0,1-3.32-8.48C150.78,603.68,153.42,598.51,160.74,593Z" transform="translate(-9.74 0.19)" fill="url(#b0912b18-da8c-4712-b8f1-0f71fb352066)"/><path d="M112,612.36c9.47,4.68,15.52,3.51,19,1.36a12.56,12.56,0,0,0,5.27-7.5A56.44,56.44,0,0,0,123.45,609a20.25,20.25,0,0,1,3.22-1.85,40.66,40.66,0,0,1,3.81-1.46,48.43,48.43,0,0,1,5.17-1.37c-1.65-.87-4.88-2.82-9.07-2.63C122.38,602.12,117.11,604.46,112,612.36Z" transform="translate(-9.74 0.19)" fill="url(#14f30d8a-9dfd-49ce-b3fe-bb80f039af78)"/><path d="M147.47,580.09c1.95,8.19,1.36,13.45-.79,17.06a12.9,12.9,0,0,1-7.12,5.85,31.54,31.54,0,0,1,3.12-12.38,24.42,24.42,0,0,0-2.05,3.12,23.47,23.47,0,0,0-1.75,3.8,30.2,30.2,0,0,0-1.27,5,11.74,11.74,0,0,1-2.15-9C136.34,589.35,139.46,584.77,147.47,580.09Z" transform="translate(-9.74 0.19)" fill="url(#fb7e0e14-a968-4170-82a3-669e7c5fba88)"/><path d="M96.51,593.15c9.08,5.66,14.94,5.46,18.74,3.8a12.4,12.4,0,0,0,6.25-6.72,50.68,50.68,0,0,0-13.08,1.07,28.68,28.68,0,0,1,3.42-1.46,38.2,38.2,0,0,1,9.27-1.66,14.77,14.77,0,0,0-8.78-3.7C108,584.38,102.66,585.84,96.51,593.15Z" transform="translate(-9.74 0.19)" fill="url(#6fc5670d-0c88-4587-9c8e-5be03138ec81)"/><path d="M135.85,565.76c1.17,8.09-.39,13.45-2.93,16.77a13.47,13.47,0,0,1-7.71,4.87A34.05,34.05,0,0,1,130,575.51a21,21,0,0,0-2.44,2.82,26.53,26.53,0,0,0-4.1,8.29,13.3,13.3,0,0,1-1.07-9.07C123.45,573.46,127.36,569.27,135.85,565.76Z" transform="translate(-9.74 0.19)" fill="url(#3d305108-97a7-457c-95ef-170c5637daaf)"/><path d="M83.82,572c4.1,3.41,7.42,5.36,10.45,6.24a14,14,0,0,0,7.51.09,12.52,12.52,0,0,0,7-5.85,51.81,51.81,0,0,0-5.37-.58,69.76,69.76,0,0,0-7.81,0,25,25,0,0,1,3.62-1,37.31,37.31,0,0,1,9.37-.49c-1.37-1.27-3.91-4.1-8.11-4.88S90.66,565.56,83.82,572Z" transform="translate(-9.74 0.19)" fill="url(#5f03467f-3600-4599-b7d4-9dc39b968e52)"/><path d="M126.38,549.87a35.87,35.87,0,0,1-1.56,10.23,15.13,15.13,0,0,1-3.61,6,12.93,12.93,0,0,1-8.4,3.8,27.34,27.34,0,0,1,2-4.78,38.49,38.49,0,0,1,4.29-6.43,17.74,17.74,0,0,0-2.73,2.44,27,27,0,0,0-5.18,7.7,11.94,11.94,0,0,1,.3-9.17C113.11,555.91,117.4,552.31,126.38,549.87Z" transform="translate(-9.74 0.19)" fill="url(#2c971658-1a01-4b46-bd04-3ace94159d2a)"/><path d="M73.77,549.38c7.22,7.8,13.08,9.16,17.08,8.58a12.84,12.84,0,0,0,7.81-4.87,49.87,49.87,0,0,0-13-2.34,17.51,17.51,0,0,1,3.71-.49,38.24,38.24,0,0,1,9.37.78,14.85,14.85,0,0,0-7.62-5.85C87.24,543.82,81.58,543.92,73.77,549.38Z" transform="translate(-9.74 0.19)" fill="url(#88806957-29c6-4eb9-bf6d-1fc135747837)"/><path d="M118.87,533c-1.08,8.19-3.91,12.87-7.23,15.41a12.85,12.85,0,0,1-8.78,2.63,34.2,34.2,0,0,1,7.71-10.24,23.84,23.84,0,0,0-3,2.05,30,30,0,0,0-6.15,6.92,12.62,12.62,0,0,1,1.27-9C105,537.29,109.79,534.27,118.87,533Z" transform="translate(-9.74 0.19)" fill="url(#c79fbc35-651a-4629-abe1-46849928780e)"/><path d="M66.94,525.59c3,4.39,5.76,7.12,8.49,8.68a14.37,14.37,0,0,0,7.22,2.05,12.27,12.27,0,0,0,8.3-3.8,42.12,42.12,0,0,0-5.08-1.95,55.52,55.52,0,0,0-7.51-2.05,17.82,17.82,0,0,1,3.71,0,39.56,39.56,0,0,1,9.17,2.05c-1-1.66-2.63-5-6.54-6.83C81.09,521.89,75.33,521.21,66.94,525.59Z" transform="translate(-9.74 0.19)" fill="url(#f15196fd-65c6-40ca-ba36-923953349797)"/><path d="M113.89,515.36a32.07,32.07,0,0,1-4.2,9.45,13.59,13.59,0,0,1-14.06,6.44,27.12,27.12,0,0,1,3.13-4.1,40.51,40.51,0,0,1,5.85-5.07,21.06,21.06,0,0,0-3.31,1.66,26.25,26.25,0,0,0-7,6A11.88,11.88,0,0,1,97,521C99.54,517.7,104.52,515.36,113.89,515.36Z" transform="translate(-9.74 0.19)" fill="url(#4956668a-5921-4af7-af32-33c208c5dafc)"/><path d="M63.13,501.12c5.08,9.46,10.25,12.29,14.25,12.68a13.08,13.08,0,0,0,8.79-2.63,52.24,52.24,0,0,0-11.91-5.66A19.31,19.31,0,0,1,78,506a37.16,37.16,0,0,1,8.88,3.22,14.69,14.69,0,0,0-5.76-7.61C77.58,499.37,72.11,497.91,63.13,501.12Z" transform="translate(-9.74 0.19)" fill="url(#0c04f73d-a2e4-4ffc-9e89-fe4696fd692f)"/><path d="M111,497.13c-3,7.6-7.13,11.4-10.93,13.06a13.5,13.5,0,0,1-9.18.29,33.91,33.91,0,0,1,10.06-7.89,19.26,19.26,0,0,0-3.52,1.26,27.19,27.19,0,0,0-7.71,5.07,12.64,12.64,0,0,1,3.61-8.38C96.41,497.62,101.88,495.86,111,497.13Z" transform="translate(-9.74 0.19)" fill="url(#b36609e8-e981-4a43-ac47-85f48b4d5ff1)"/><path d="M62.64,476.46c3.52,9.94,8.59,13.45,12.59,14.43a12.28,12.28,0,0,0,9.08-1.56,59.7,59.7,0,0,0-11.22-7.12,22.13,22.13,0,0,1,3.61,1,42.73,42.73,0,0,1,8.39,4.29,15.8,15.8,0,0,0-4.68-8.29C77.28,476.56,71.82,474.32,62.64,476.46Z" transform="translate(-9.74 0.19)" fill="url(#9950cd12-ca79-4abc-b8dd-261be3e2ca0b)"/><path d="M110.67,478.61c-4.3,7.21-8.5,10.43-12.5,11.5a13.77,13.77,0,0,1-9.17-.88,30.39,30.39,0,0,1,10.93-6.53,17,17,0,0,0-3.61.78,26.92,26.92,0,0,0-8.3,4.09,11.74,11.74,0,0,1,4.78-7.79C96.12,477.24,101.59,476.27,110.67,478.61Z" transform="translate(-9.74 0.19)" fill="url(#2ff82376-a98c-4fe7-90df-0df19ea16010)"/><path d="M65.37,451.89c2.35,10.44,6.54,14.43,10.55,15.89a12.73,12.73,0,0,0,9.17-.29A57.4,57.4,0,0,0,75,459a20.36,20.36,0,0,1,3.41,1.46,35.18,35.18,0,0,1,7.72,5.36,14.63,14.63,0,0,0-3.52-8.77C79.72,453.84,74.84,451,65.37,451.89Z" transform="translate(-9.74 0.19)" fill="url(#49b0efcd-4784-4f1d-bcfa-60c6a87ca41c)"/><path d="M112.62,460.28a29.44,29.44,0,0,1-7.42,7.11A15.75,15.75,0,0,1,98.66,470a13.06,13.06,0,0,1-9-2,32.67,32.67,0,0,1,11.81-5.07,17.14,17.14,0,0,0-3.71.29,31.89,31.89,0,0,0-8.88,2.93A13,13,0,0,1,94.66,459C98.37,457.06,104.13,456.77,112.62,460.28Z" transform="translate(-9.74 0.19)" fill="url(#8c8e8528-9a59-4c10-a663-88e2ed8cac5e)"/><path d="M71.33,427.91a27.75,27.75,0,0,0,3.12,11.8,12.91,12.91,0,0,0,5.08,5.36,12.63,12.63,0,0,0,9.17.88,49.65,49.65,0,0,0-8.88-9.75A27.66,27.66,0,0,1,83,438.05,35.55,35.55,0,0,1,90,444.39a15.13,15.13,0,0,0-2.34-9.17C85.38,431.71,80.8,428.21,71.33,427.91Z" transform="translate(-9.74 0.19)" fill="url(#4c4c315f-ca2c-41d5-9633-4039f7781c44)"/><path d="M117.11,442.34a38.84,38.84,0,0,1-8.2,6.14,15.45,15.45,0,0,1-6.93,1.76A13.1,13.1,0,0,1,93.39,447a36,36,0,0,1,12.4-3.51,16.37,16.37,0,0,0-3.71-.19A28.52,28.52,0,0,0,93,445.07a12.31,12.31,0,0,1,6.64-6.34C103.44,437.27,109,437.76,117.11,442.34Z" transform="translate(-9.74 0.19)" fill="url(#e3df24a3-9ec4-4ee0-bae4-d2db390cda26)"/><path d="M80.31,404.81c-.59,10.62,2.63,15.69,6,18.13a12.83,12.83,0,0,0,9,2.05,54.74,54.74,0,0,0-7.51-10.82,15.52,15.52,0,0,1,2.93,2.24,38.86,38.86,0,0,1,6,7.21,15.71,15.71,0,0,0-1.08-9.45C93.78,410.46,89.58,406.37,80.31,404.81Z" transform="translate(-9.74 0.19)" fill="url(#2e3de62c-874b-489a-ab71-80d705f298c3)"/><path d="M123.84,425.18c-6.63,5-11.9,6.34-16,5.85a13.38,13.38,0,0,1-8.11-4.29,34.23,34.23,0,0,1,12.69-1.85,26.17,26.17,0,0,0-12.88-.1,11.83,11.83,0,0,1,7.42-5.36C111,418.36,116.33,419.53,123.84,425.18Z" transform="translate(-9.74 0.19)" fill="url(#10c3e6d4-3ee6-47d4-896b-8ea6876e1514)"/><path d="M92.32,383.17c-1.86,10.43.48,15.89,3.51,18.71a12.61,12.61,0,0,0,8.59,3.22,51.71,51.71,0,0,0-6-11.7A17.84,17.84,0,0,1,101,396a33.76,33.76,0,0,1,5.08,7.9,14.42,14.42,0,0,0,.1-9.46C104.91,390.48,101.39,386,92.32,383.17Z" transform="translate(-9.74 0.19)" fill="url(#31bf8937-3724-4a75-858f-781d7d1675c7)"/><path d="M132.73,409c-7.23,4.09-12.79,4.68-16.7,3.61a13.58,13.58,0,0,1-7.51-5.36,33.7,33.7,0,0,1,12.88-.1,22.59,22.59,0,0,0-3.51-1.17,26.24,26.24,0,0,0-9.27-.68,12.89,12.89,0,0,1,8-4.39C120.92,400.62,126.19,402.47,132.73,409Z" transform="translate(-9.74 0.19)" fill="url(#4957b6f3-cf15-4fc0-ae65-87b415735b2a)"/><path d="M107,363.28A47.35,47.35,0,0,0,105.3,370a23.91,23.91,0,0,0,0,5.36,12.89,12.89,0,0,0,2.73,6.92,12.7,12.7,0,0,0,8.1,4.29,52.9,52.9,0,0,0-4.49-12.38,19.16,19.16,0,0,1,2.25,2.92,35.61,35.61,0,0,1,4,8.58,15.43,15.43,0,0,0,1.27-3.8,15.1,15.1,0,0,0,.1-5.56C118.48,372.25,115.55,367.18,107,363.28Z" transform="translate(-9.74 0.19)" fill="url(#c015c346-83a0-43ba-9d0e-3c9349969163)"/><path d="M143.76,394.18a35.5,35.5,0,0,1-5.47,1.76,28.45,28.45,0,0,1-4.59.78,15.34,15.34,0,0,1-7-1.08,13.69,13.69,0,0,1-6.73-6.23,35,35,0,0,1,12.69,1.46,20.61,20.61,0,0,0-3.32-1.66,30.45,30.45,0,0,0-9.08-1.85,14.31,14.31,0,0,1,3.22-2.15,11.51,11.51,0,0,1,5.37-1.07C133,384.34,138,386.87,143.76,394.18Z" transform="translate(-9.74 0.19)" fill="url(#1f9ea895-dc5b-4790-a59f-6420ff10ca7c)"/><path d="M139.46,357.24a29.83,29.83,0,0,0-10.93,5.36,13.35,13.35,0,0,0-4.2,6.14,12.68,12.68,0,0,0,1,9.06A54.68,54.68,0,0,0,133,367.18a23,23,0,0,1-1.17,3.51,35.41,35.41,0,0,1-4.79,8,15.27,15.27,0,0,0,8.59-4.09C138.49,371.66,140.93,366.59,139.46,357.24Z" transform="translate(-9.74 0.19)" fill="url(#ea13fc69-227d-43ca-850b-00d3f6e3582c)"/><path d="M304.42,665.1a41.24,41.24,0,0,1-6.83-1,19.8,19.8,0,0,1-5-2,13.71,13.71,0,0,1-5.37-5.16,12.63,12.63,0,0,1-.87-9.17,55.31,55.31,0,0,1,9.76,9,29.53,29.53,0,0,0-1.86-3.21,38,38,0,0,0-6.34-7.12,16.52,16.52,0,0,1,4,.39,13,13,0,0,1,5.17,2C300.62,651.06,304.13,655.64,304.42,665.1Z" transform="translate(-9.74 0.19)" fill="url(#57aa81a3-01f4-4186-8a79-fac13f89d0d6)"/><path d="M290,619.38a33.3,33.3,0,0,0-3.61,4.38,24.66,24.66,0,0,0-2.44,3.9,14.78,14.78,0,0,0-1.76,6.83,13.09,13.09,0,0,0,3.22,8.58,31.4,31.4,0,0,0,3.51-12.19,15.8,15.8,0,0,1,.2,3.7,25.21,25.21,0,0,1-1.86,9,13.33,13.33,0,0,0,3.32-2,11.48,11.48,0,0,0,3-4.59C295.05,633,294.57,627.47,290,619.38Z" transform="translate(-9.74 0.19)" fill="url(#978c1306-9ba1-43f6-906d-ae6ca1538d66)"/><path d="M327.56,656.23c-10.74.29-15.72-2.64-18.16-6a12.72,12.72,0,0,1-2-9,49.26,49.26,0,0,1,10.74,7.41,15.36,15.36,0,0,0-2.25-2.93,34.08,34.08,0,0,0-7.12-6,15.08,15.08,0,0,1,9.47,1.07C321.9,642.77,326,647,327.56,656.23Z" transform="translate(-9.74 0.19)" fill="url(#f5b850b0-8f69-4abe-988d-070691f96701)"/><path d="M307.16,612.75c-5.08,6.43-6.35,12-5.76,16.08a12.79,12.79,0,0,0,4.29,8,37.43,37.43,0,0,0,1.86-12.77,26.07,26.07,0,0,1,.1,12.86,12.78,12.78,0,0,0,5.36-7.41C314,625.61,312.82,620.25,307.16,612.75Z" transform="translate(-9.74 0.19)" fill="url(#4342af9f-fd2f-4845-b394-1a1c5904b9a8)"/><path d="M349.23,644.14a39.33,39.33,0,0,1-6.84.78,22.33,22.33,0,0,1-5.36-.69,13.84,13.84,0,0,1-6.54-3.6,12.58,12.58,0,0,1-3.22-8.58A55.64,55.64,0,0,1,339,638.19a26.29,26.29,0,0,0-2.64-2.63,38,38,0,0,0-8-5.17,16.07,16.07,0,0,1,4-.68,12.58,12.58,0,0,1,5.56.58C341.81,631.56,346.4,635.17,349.23,644.14Z" transform="translate(-9.74 0.19)" fill="url(#16cefeba-de78-4c87-8dd0-bc6e22a0927e)"/><path d="M323.26,603.78a48,48,0,0,0-2.34,5.16,37.5,37.5,0,0,0-1.37,4.39,14.16,14.16,0,0,0,.1,7,13.62,13.62,0,0,0,5.37,7.51,32.81,32.81,0,0,0,.2-12.77,23.45,23.45,0,0,1,1.17,3.51,26.14,26.14,0,0,1,.58,9.16,15.2,15.2,0,0,0,2.64-2.83,11.48,11.48,0,0,0,1.75-5.26C331.76,615.67,329.8,610.31,323.26,603.78Z" transform="translate(-9.74 0.19)" fill="url(#0f0593a3-dba1-4479-b0bd-166f8f8e5d99)"/><path d="M369.14,629.61c-10.25,3-15.91,1.46-19-1.07a12.63,12.63,0,0,1-4.3-8.09,47.78,47.78,0,0,1,12.4,4.39,19.68,19.68,0,0,0-2.93-2.25,36.89,36.89,0,0,0-8.49-4,14.14,14.14,0,0,1,9.37-1.37C360.36,618.21,365.14,620.94,369.14,629.61Z" transform="translate(-9.74 0.19)" fill="url(#848f2064-d7d0-4620-9bd5-c6b8cb01a9c8)"/><path d="M338.3,593c-3.32,7.5-3,13.16-1.47,17a12.94,12.94,0,0,0,6.25,6.63,36.28,36.28,0,0,0-1.56-12.77,17,17,0,0,1,1.56,3.31,28.18,28.18,0,0,1,1.85,9.07,13,13,0,0,0,3.32-8.48C348.25,603.68,345.52,598.51,338.3,593Z" transform="translate(-9.74 0.19)" fill="url(#6b511dc7-6a55-4865-aeb0-03e5267a027d)"/><path d="M386.91,612.36c-9.47,4.68-15.52,3.51-19,1.36a12.56,12.56,0,0,1-5.27-7.5A56.49,56.49,0,0,1,375.48,609a20.25,20.25,0,0,0-3.22-1.85,39.34,39.34,0,0,0-3.8-1.46,48,48,0,0,0-5.18-1.37c1.66-.87,4.88-2.82,9.08-2.63C376.56,602.12,381.93,604.46,386.91,612.36Z" transform="translate(-9.74 0.19)" fill="url(#2bf690c5-f9aa-46c6-816c-1280a2394bde)"/><path d="M351.47,580.09c-2,8.19-1.36,13.45.78,17.06a12.88,12.88,0,0,0,7.13,5.85,31.72,31.72,0,0,0-3.12-12.38,25.84,25.84,0,0,1,2.05,3.12,23.47,23.47,0,0,1,1.75,3.8,30.2,30.2,0,0,1,1.27,5,11.74,11.74,0,0,0,2.15-9C362.7,589.35,359.57,584.77,351.47,580.09Z" transform="translate(-9.74 0.19)" fill="url(#baba6905-9af3-4c01-aa5d-1c426f6ca916)"/><path d="M402.52,593.15c-9.07,5.66-14.93,5.46-18.74,3.8a12.44,12.44,0,0,1-6.25-6.72,50.63,50.63,0,0,1,13.08,1.07,28,28,0,0,0-3.41-1.46,38.29,38.29,0,0,0-9.27-1.66,14.74,14.74,0,0,1,8.78-3.7C391,584.38,396.37,585.84,402.52,593.15Z" transform="translate(-9.74 0.19)" fill="url(#56928f9a-7904-4048-a7c3-4a34cfd212f7)"/><path d="M363.19,565.76c-1.18,8.09.39,13.45,2.92,16.77a13.49,13.49,0,0,0,7.72,4.87A33.92,33.92,0,0,0,369,575.51a20.12,20.12,0,0,1,2.44,2.82,26.1,26.1,0,0,1,4.1,8.29,13.29,13.29,0,0,0,1.08-9.07C375.48,573.46,371.58,569.27,363.19,565.76Z" transform="translate(-9.74 0.19)" fill="url(#6356c37d-2921-400d-a7a0-ac579eaa935b)"/><path d="M415.21,572c-4.1,3.41-7.42,5.36-10.44,6.24a14,14,0,0,1-7.52.09,12.56,12.56,0,0,1-7-5.85,52.45,52.45,0,0,1,5.37-.58,69.78,69.78,0,0,1,7.81,0,25,25,0,0,0-3.61-1,37.34,37.34,0,0,0-9.37-.49c1.37-1.27,3.9-4.1,8.1-4.88S408.28,565.56,415.21,572Z" transform="translate(-9.74 0.19)" fill="url(#9125c6bf-b9d2-4367-a79e-37891f628ff3)"/><path d="M372.65,549.87a35.84,35.84,0,0,0,1.57,10.23,14.9,14.9,0,0,0,3.61,6,12.93,12.93,0,0,0,8.39,3.8,27.19,27.19,0,0,0-2-4.78,39.12,39.12,0,0,0-4.29-6.43,17.74,17.74,0,0,1,2.73,2.44,26.8,26.8,0,0,1,5.17,7.7,11.93,11.93,0,0,0-.29-9.17C385.83,555.91,381.63,552.31,372.65,549.87Z" transform="translate(-9.74 0.19)" fill="url(#1385c02f-97db-4f31-a236-1dff857286c0)"/><path d="M425.27,549.38c-7.23,7.8-13.08,9.16-17.09,8.58a12.81,12.81,0,0,1-7.8-4.87,49.78,49.78,0,0,1,13-2.34,17.66,17.66,0,0,0-3.71-.49,38.24,38.24,0,0,0-9.37.78,14.77,14.77,0,0,1,7.61-5.85C411.8,543.82,417.46,543.92,425.27,549.38Z" transform="translate(-9.74 0.19)" fill="url(#4c0cb077-1fb9-413b-8c51-8e5935ac3121)"/><path d="M380.07,533c1.08,8.19,3.91,12.87,7.23,15.41a12.83,12.83,0,0,0,8.78,2.63,34.37,34.37,0,0,0-7.71-10.24,23.84,23.84,0,0,1,3,2.05,29.73,29.73,0,0,1,6.14,6.92,12.56,12.56,0,0,0-1.26-9C394,537.29,389.25,534.27,380.07,533Z" transform="translate(-9.74 0.19)" fill="url(#c04d45a7-8ec1-4930-a70b-d97d7a34f948)"/><path d="M432,525.59c-3,4.39-5.76,7.12-8.49,8.68a14.37,14.37,0,0,1-7.22,2.05,12.27,12.27,0,0,1-8.3-3.8,42.12,42.12,0,0,1,5.08-1.95,55.11,55.11,0,0,1,7.51-2.05,17.87,17.87,0,0,0-3.71,0,39.46,39.46,0,0,0-9.17,2.05c1-1.66,2.63-5,6.54-6.83C418,521.89,423.7,521.21,432,525.59Z" transform="translate(-9.74 0.19)" fill="url(#4e537553-b0c3-4c18-ad28-edfdae986c75)"/><path d="M385.15,515.36a31.56,31.56,0,0,0,4.2,9.45,13.57,13.57,0,0,0,14,6.44,26.94,26.94,0,0,0-3.12-4.1,41.21,41.21,0,0,0-5.86-5.07,20.86,20.86,0,0,1,3.32,1.66,26.41,26.41,0,0,1,7,6A11.92,11.92,0,0,0,402,521C399.5,517.7,394.42,515.36,385.15,515.36Z" transform="translate(-9.74 0.19)" fill="url(#335bb14c-c72c-4fec-921e-bb62d8f647d9)"/><path d="M435.81,501.12c-5.08,9.46-10.25,12.29-14.25,12.68a13.08,13.08,0,0,1-8.79-2.63,52.24,52.24,0,0,1,11.91-5.66A19.31,19.31,0,0,0,421,506a37.16,37.16,0,0,0-8.88,3.22,14.63,14.63,0,0,1,5.76-7.61C421.46,499.37,426.83,497.91,435.81,501.12Z" transform="translate(-9.74 0.19)" fill="url(#a71c517c-dc9b-4261-aba4-955d825c439c)"/><path d="M388,497.13c3,7.6,7.12,11.4,10.93,13.06a13.5,13.5,0,0,0,9.18.29A33.91,33.91,0,0,0,398,502.59a19.26,19.26,0,0,1,3.52,1.26,27.19,27.19,0,0,1,7.71,5.07,12.64,12.64,0,0,0-3.61-8.38C402.62,497.62,397.06,495.86,388,497.13Z" transform="translate(-9.74 0.19)" fill="url(#73003dd6-89a9-4d09-a250-17136357d9e2)"/><path d="M436.3,476.46c-3.52,9.94-8.59,13.45-12.6,14.43a12.27,12.27,0,0,1-9.07-1.56,59.36,59.36,0,0,1,11.22-7.12,22.13,22.13,0,0,0-3.61,1,42.18,42.18,0,0,0-8.39,4.29,15.73,15.73,0,0,1,4.68-8.29C421.75,476.56,427.12,474.32,436.3,476.46Z" transform="translate(-9.74 0.19)" fill="url(#c7c685e5-3910-4bef-8d7f-b780e4e98061)"/><path d="M388.37,478.61c4.29,7.21,8.49,10.43,12.49,11.5a13.81,13.81,0,0,0,9.18-.88,30.39,30.39,0,0,0-10.93-6.53,17.16,17.16,0,0,1,3.61.78,27,27,0,0,1,8.3,4.09,11.76,11.76,0,0,0-4.79-7.79C402.82,477.24,397.35,476.27,388.37,478.61Z" transform="translate(-9.74 0.19)" fill="url(#13bdacaa-3ab7-4312-9dbd-c15e79fe9cd0)"/><path d="M433.66,451.89c-2.34,10.44-6.54,14.43-10.54,15.89a12.76,12.76,0,0,1-9.18-.29A57.57,57.57,0,0,1,424,459a20.21,20.21,0,0,0-3.42,1.46,35.15,35.15,0,0,0-7.71,5.36,14.61,14.61,0,0,1,3.51-8.77C419.21,453.84,424.19,451,433.66,451.89Z" transform="translate(-9.74 0.19)" fill="url(#9f453b91-d904-4cad-85ca-ea78d037c2e9)"/><path d="M386.32,460.28a29.44,29.44,0,0,0,7.42,7.11,15.75,15.75,0,0,0,6.54,2.64,13.06,13.06,0,0,0,9-2,32.67,32.67,0,0,0-11.81-5.07,17.14,17.14,0,0,1,3.71.29,31.89,31.89,0,0,1,8.88,2.93,13.08,13.08,0,0,0-5.76-7.12C400.57,457.06,394.91,456.77,386.32,460.28Z" transform="translate(-9.74 0.19)" fill="url(#b2696081-c2f4-4690-ac68-ba5397876018)"/><path d="M427.71,427.91a27.73,27.73,0,0,1-3.13,11.8,12.9,12.9,0,0,1-5.07,5.36,12.66,12.66,0,0,1-9.18.88,50.32,50.32,0,0,1,8.88-9.75,28.7,28.7,0,0,0-3.22,1.85,35.55,35.55,0,0,0-6.93,6.34,15.22,15.22,0,0,1,2.35-9.17C413.65,431.71,418.24,428.21,427.71,427.91Z" transform="translate(-9.74 0.19)" fill="url(#4bdbbccc-aec5-4298-aaa7-f7ab90a85f67)"/><path d="M381.93,442.34a38.58,38.58,0,0,0,8.2,6.14,15.42,15.42,0,0,0,6.93,1.76,13.1,13.1,0,0,0,8.59-3.22,36,36,0,0,0-12.4-3.51,16.37,16.37,0,0,1,3.71-.19,28.57,28.57,0,0,1,9.08,1.75,12.34,12.34,0,0,0-6.64-6.34C395.59,437.27,389.93,437.76,381.93,442.34Z" transform="translate(-9.74 0.19)" fill="url(#ef9d4287-501e-4c7d-bb75-43fb7dea67e6)"/><path d="M418.63,404.81c.58,10.62-2.64,15.69-6,18.13a12.81,12.81,0,0,1-9,2.05,55.35,55.35,0,0,1,7.52-10.82,15.52,15.52,0,0,0-2.93,2.24,38.86,38.86,0,0,0-6,7.21,15.77,15.77,0,0,1,1.07-9.45C405.26,410.46,409.36,406.37,418.63,404.81Z" transform="translate(-9.74 0.19)" fill="url(#6141dd02-ceaf-4ad5-8ce0-1c18234461b9)"/><path d="M375.19,425.18c6.64,5,11.91,6.34,16,5.85a13.35,13.35,0,0,0,8.1-4.29,34.23,34.23,0,0,0-12.69-1.85,27.38,27.38,0,0,1,3.61-.68,26.71,26.71,0,0,1,9.28.58,11.86,11.86,0,0,0-7.42-5.36C388.08,418.36,382.61,419.53,375.19,425.18Z" transform="translate(-9.74 0.19)" fill="url(#72d2dc7e-e5ef-4bfb-a48f-08b0834f0664)"/><path d="M406.72,383.17c1.86,10.43-.49,15.89-3.51,18.71a12.62,12.62,0,0,1-8.59,3.22,51.28,51.28,0,0,1,6.05-11.7A18.13,18.13,0,0,0,398,396a33.77,33.77,0,0,0-5.07,7.9,14.35,14.35,0,0,1-.1-9.46C394.13,390.48,397.64,386,406.72,383.17Z" transform="translate(-9.74 0.19)" fill="url(#b800266c-def2-418f-ac92-32943157bbd8)"/><path d="M366.31,409c7.22,4.09,12.79,4.68,16.69,3.61a13.65,13.65,0,0,0,7.52-5.36,33.75,33.75,0,0,0-12.89-.1,22.51,22.51,0,0,1,3.52-1.17,26.19,26.19,0,0,1,9.27-.68,12.89,12.89,0,0,0-8-4.39C378.12,400.62,372.85,402.47,366.31,409Z" transform="translate(-9.74 0.19)" fill="url(#dac41235-6ad2-4a40-b06d-bbaf00cd369a)"/><path d="M392,363.28a47.35,47.35,0,0,1,1.66,6.73,23.91,23.91,0,0,1,0,5.36,13,13,0,0,1-2.73,6.92,12.7,12.7,0,0,1-8.1,4.29,52.43,52.43,0,0,1,4.49-12.38,19.16,19.16,0,0,0-2.25,2.92,35.61,35.61,0,0,0-4,8.58,15.43,15.43,0,0,1-1.27-3.8,15.1,15.1,0,0,1-.1-5.56C380.46,372.25,383.49,367.18,392,363.28Z" transform="translate(-9.74 0.19)" fill="url(#320b17b6-1419-4d6b-b9cd-945b8d125092)"/><path d="M355.28,394.18a35.16,35.16,0,0,0,5.47,1.76,28.52,28.52,0,0,0,4.58.78,15.32,15.32,0,0,0,7-1.08,13.67,13.67,0,0,0,6.74-6.23,35,35,0,0,0-12.69,1.46,20.61,20.61,0,0,1,3.32-1.66,30.38,30.38,0,0,1,9.07-1.85,13.86,13.86,0,0,0-3.22-2.15,11.48,11.48,0,0,0-5.37-1.07C365.92,384.34,360.94,386.87,355.28,394.18Z" transform="translate(-9.74 0.19)" fill="url(#818cdeb3-8cbb-4c1e-aa0c-e0bea77f0c4c)"/><path d="M359.57,357.24a29.89,29.89,0,0,1,10.94,5.36,13.24,13.24,0,0,1,4.19,6.14,12.64,12.64,0,0,1-1,9.06A54.26,54.26,0,0,1,366,367.18a23,23,0,0,0,1.17,3.51,35.69,35.69,0,0,0,4.78,8,15.32,15.32,0,0,1-8.59-4.09C360.45,371.66,358,366.59,359.57,357.24Z" transform="translate(-9.74 0.19)" fill="url(#28fa6a9e-7a24-4277-a38e-81fde182da30)"/><path d="M306.18,665.1a41.24,41.24,0,0,1-6.83-1,19.8,19.8,0,0,1-5-2,13.71,13.71,0,0,1-5.37-5.16,12.7,12.7,0,0,1-.88-9.17,55,55,0,0,1,9.76,9A28.17,28.17,0,0,0,296,653.5a38.12,38.12,0,0,0-6.35-7.12,16.55,16.55,0,0,1,4,.39,13,13,0,0,1,5.17,2C302.28,651.06,305.79,655.64,306.18,665.1Z" transform="translate(-9.74 0.19)" fill="url(#2e1b728b-29f3-42eb-9a4e-58e7092ad7f0)"/><path d="M291.64,619.38a33.3,33.3,0,0,0-3.61,4.38,24.66,24.66,0,0,0-2.44,3.9,14.78,14.78,0,0,0-1.76,6.83,13.09,13.09,0,0,0,3.22,8.58,31.4,31.4,0,0,0,3.51-12.19,15.8,15.8,0,0,1,.2,3.7,25.21,25.21,0,0,1-1.86,9,13.33,13.33,0,0,0,3.32-2,11.48,11.48,0,0,0,3-4.59C296.71,633,296.32,627.47,291.64,619.38Z" transform="translate(-9.74 0.19)" fill="url(#fa306da4-6d33-4d3e-86b9-0ca8b36f3489)"/><path d="M329.31,656.23c-10.73.29-15.71-2.64-18.15-6a12.67,12.67,0,0,1-2.05-9,49.5,49.5,0,0,1,10.74,7.41,15.91,15.91,0,0,0-2.25-2.93,34.08,34.08,0,0,0-7.12-6,15,15,0,0,1,9.46,1.07C323.65,642.77,327.75,647,329.31,656.23Z" transform="translate(-9.74 0.19)" fill="url(#e5690af6-5802-4f19-85e5-3e048269efbb)"/><path d="M308.91,612.75c-5.07,6.43-6.34,12-5.75,16.08a12.69,12.69,0,0,0,4.29,8,37.48,37.48,0,0,0,1.85-12.77,25.8,25.8,0,0,1,.69,3.6,26.6,26.6,0,0,1-.59,9.26,12.83,12.83,0,0,0,5.37-7.41C315.75,625.61,314.58,620.25,308.91,612.75Z" transform="translate(-9.74 0.19)" fill="url(#84c99d52-ad6e-42f9-8797-bef1485418e0)"/><path d="M350.89,644.14a39.33,39.33,0,0,1-6.84.78,22.33,22.33,0,0,1-5.36-.69,13.84,13.84,0,0,1-6.54-3.6,12.55,12.55,0,0,1-3.23-8.58,55.42,55.42,0,0,1,11.72,6.14,26.29,26.29,0,0,0-2.64-2.63,38,38,0,0,0-8-5.17,16.07,16.07,0,0,1,4-.68,12.58,12.58,0,0,1,5.56.58C343.57,631.56,348.06,635.17,350.89,644.14Z" transform="translate(-9.74 0.19)" fill="url(#015801f4-0dfe-49f4-8a09-bfdd38f1016f)"/><path d="M325,603.78a44.41,44.41,0,0,0-2.34,5.16,35.69,35.69,0,0,0-1.37,4.39,14,14,0,0,0,.1,7,13.57,13.57,0,0,0,5.37,7.51,32.86,32.86,0,0,0,.19-12.77,22.09,22.09,0,0,1,1.17,3.51,25.87,25.87,0,0,1,.59,9.16,15.2,15.2,0,0,0,2.63-2.83,11.49,11.49,0,0,0,1.76-5.26C333.41,615.67,331.56,610.31,325,603.78Z" transform="translate(-9.74 0.19)" fill="url(#2b5bdf9f-7cea-4563-8134-55b0b50a5c29)"/><path d="M370.9,629.61c-10.25,3-15.91,1.46-19-1.07a12.65,12.65,0,0,1-4.29-8.09A47.75,47.75,0,0,1,360,624.84a19.16,19.16,0,0,0-2.92-2.25,37,37,0,0,0-8.5-4,14.15,14.15,0,0,1,9.37-1.37C362,618.21,366.9,620.94,370.9,629.61Z" transform="translate(-9.74 0.19)" fill="url(#46e3fd28-d168-4e33-92e2-ef89f77c8881)"/><path d="M340,593c-3.31,7.5-3,13.16-1.46,17a12.94,12.94,0,0,0,6.25,6.63,36.28,36.28,0,0,0-1.56-12.77,17,17,0,0,1,1.56,3.31,28.46,28.46,0,0,1,1.85,9.07,13,13,0,0,0,3.32-8.48C349.91,603.68,347.28,598.51,340,593Z" transform="translate(-9.74 0.19)" fill="url(#4b23294b-5992-402c-8daa-eaa9618a64b4)"/><path d="M388.66,612.36c-9.47,4.68-15.52,3.51-19,1.36a12.51,12.51,0,0,1-5.27-7.5A56.49,56.49,0,0,1,377.24,609a20.25,20.25,0,0,0-3.22-1.85,38.61,38.61,0,0,0-3.81-1.46,48.43,48.43,0,0,0-5.17-1.37c1.66-.87,4.88-2.82,9.08-2.63C378.32,602.12,383.59,604.46,388.66,612.36Z" transform="translate(-9.74 0.19)" fill="url(#43dbf7cc-0f2f-4dda-b54c-5038ac81bdca)"/><path d="M353.23,580.09c-2,8.19-1.37,13.45.78,17.06a12.88,12.88,0,0,0,7.13,5.85A31.6,31.6,0,0,0,358,590.62a24.42,24.42,0,0,1,2.05,3.12,23.41,23.41,0,0,1,1.76,3.8,30.2,30.2,0,0,1,1.27,5,11.74,11.74,0,0,0,2.15-9C364.45,589.35,361.23,584.77,353.23,580.09Z" transform="translate(-9.74 0.19)" fill="url(#8802612e-1ad7-46d9-96b7-e72349a26e1b)"/><path d="M404.18,593.15c-9.08,5.66-14.93,5.46-18.74,3.8a12.44,12.44,0,0,1-6.25-6.72,50.63,50.63,0,0,1,13.08,1.07,28,28,0,0,0-3.41-1.46,38.29,38.29,0,0,0-9.28-1.66,14.78,14.78,0,0,1,8.79-3.7C392.66,584.38,398,585.84,404.18,593.15Z" transform="translate(-9.74 0.19)" fill="url(#e39cad46-fbfb-429c-b52b-c05d140569bc)"/><path d="M364.85,565.76c-1.18,8.09.39,13.45,2.92,16.77a13.5,13.5,0,0,0,7.71,4.87,33.65,33.65,0,0,0-4.78-11.89,20.12,20.12,0,0,1,2.44,2.82,26.1,26.1,0,0,1,4.1,8.29,13.29,13.29,0,0,0,1.08-9.07C377.24,573.46,373.34,569.27,364.85,565.76Z" transform="translate(-9.74 0.19)" fill="url(#26d80255-b24e-4f25-8150-32b9fc100d30)"/><path d="M417,572c-4.1,3.41-7.42,5.36-10.44,6.24a14,14,0,0,1-7.52.09,12.56,12.56,0,0,1-7-5.85,52.13,52.13,0,0,1,5.37-.58,69.76,69.76,0,0,1,7.81,0,25,25,0,0,0-3.61-1,37.38,37.38,0,0,0-9.37-.49c1.36-1.27,3.9-4.1,8.1-4.88C404.28,564.78,410,565.56,417,572Z" transform="translate(-9.74 0.19)" fill="url(#76b3af53-0bbb-4b33-9bb5-bc92343b2439)"/><path d="M374.31,549.87a35.49,35.49,0,0,0,1.57,10.23,14.9,14.9,0,0,0,3.61,6,12.93,12.93,0,0,0,8.39,3.8,27.19,27.19,0,0,0-1.95-4.78,38.61,38.61,0,0,0-4.3-6.43,17.47,17.47,0,0,1,2.74,2.44,26.8,26.8,0,0,1,5.17,7.7,11.93,11.93,0,0,0-.29-9.17C387.59,555.91,383.29,552.31,374.31,549.87Z" transform="translate(-9.74 0.19)" fill="url(#0483ec1f-53ff-4a51-9c99-e067858cc800)"/><path d="M426.93,549.38c-7.23,7.8-13.08,9.16-17.09,8.58a12.81,12.81,0,0,1-7.8-4.87,49.78,49.78,0,0,1,13-2.34,17.66,17.66,0,0,0-3.71-.49,38.24,38.24,0,0,0-9.37.78,14.77,14.77,0,0,1,7.61-5.85C413.46,543.82,419.21,543.92,426.93,549.38Z" transform="translate(-9.74 0.19)" fill="url(#87ebd8ad-1cc6-4b3d-afd6-ddd763463c38)"/><path d="M381.83,533c1.07,8.19,3.9,12.87,7.22,15.41a12.86,12.86,0,0,0,8.79,2.63,34.37,34.37,0,0,0-7.71-10.24,23.4,23.4,0,0,1,3,2.05,29.73,29.73,0,0,1,6.15,6.92,12.62,12.62,0,0,0-1.27-9C395.79,537.29,390.91,534.27,381.83,533Z" transform="translate(-9.74 0.19)" fill="url(#0053cf97-c9c1-4eca-8d9a-364e2ee822be)"/><path d="M433.76,525.59c-3,4.39-5.76,7.12-8.49,8.68a14.42,14.42,0,0,1-7.23,2.05,12.27,12.27,0,0,1-8.29-3.8,41.87,41.87,0,0,1,5.07-1.95,55.29,55.29,0,0,1,7.52-2.05,17.87,17.87,0,0,0-3.71,0,39.63,39.63,0,0,0-9.18,2.05c1-1.66,2.64-5,6.54-6.83C419.7,521.89,425.46,521.21,433.76,525.59Z" transform="translate(-9.74 0.19)" fill="url(#cb250fa0-f778-4e27-86cc-c13b3525385b)"/><path d="M386.81,515.36a31.56,31.56,0,0,0,4.2,9.45,13.57,13.57,0,0,0,14.05,6.44,26.94,26.94,0,0,0-3.12-4.1,41.21,41.21,0,0,0-5.86-5.07,20.86,20.86,0,0,1,3.32,1.66,26.56,26.56,0,0,1,7,6,11.9,11.9,0,0,0-2.74-8.78C401.25,517.7,396.18,515.36,386.81,515.36Z" transform="translate(-9.74 0.19)" fill="url(#646fb94e-406c-4064-a962-ca998e379e01)"/><path d="M437.57,501.12c-5.08,9.46-10.25,12.29-14.26,12.68a13,13,0,0,1-8.78-2.63,52,52,0,0,1,11.91-5.66,19.22,19.22,0,0,0-3.71.49,36.86,36.86,0,0,0-8.88,3.22,14.58,14.58,0,0,1,5.76-7.61C423.12,499.37,428.59,497.91,437.57,501.12Z" transform="translate(-9.74 0.19)" fill="url(#5b8f39cd-ef35-408d-8a44-7826d823c964)"/><path d="M389.74,497.13c3,7.6,7.12,11.4,10.93,13.06a13.47,13.47,0,0,0,9.17.29,33.83,33.83,0,0,0-10-7.89,19.05,19.05,0,0,1,3.51,1.26,27.35,27.35,0,0,1,7.72,5.07,12.66,12.66,0,0,0-3.62-8.38C404.38,497.62,398.81,495.86,389.74,497.13Z" transform="translate(-9.74 0.19)" fill="url(#8f6c8a9e-395c-4eaf-a9d1-0973caee95d3)"/><path d="M438.05,476.46c-3.51,9.94-8.59,13.45-12.59,14.43a12.28,12.28,0,0,1-9.08-1.56,59.52,59.52,0,0,1,11.23-7.12,21.84,21.84,0,0,0-3.61,1,42.48,42.48,0,0,0-8.4,4.29,15.83,15.83,0,0,1,4.69-8.29C423.51,476.56,428.88,474.32,438.05,476.46Z" transform="translate(-9.74 0.19)" fill="url(#5786933c-d8aa-476c-a782-318b1742388a)"/><path d="M390,478.61c4.29,7.21,8.49,10.43,12.49,11.5a13.81,13.81,0,0,0,9.18-.88,30.39,30.39,0,0,0-10.93-6.53,17.16,17.16,0,0,1,3.61.78,26.89,26.89,0,0,1,8.29,4.09,11.7,11.7,0,0,0-4.78-7.79C404.57,477.24,399.11,476.27,390,478.61Z" transform="translate(-9.74 0.19)" fill="url(#640da15c-b813-4e07-b386-88918d0d50a7)"/><path d="M435.32,451.89c-2.34,10.44-6.54,14.43-10.54,15.89a12.76,12.76,0,0,1-9.18-.29A57.57,57.57,0,0,1,425.66,459a20.21,20.21,0,0,0-3.42,1.46,35.15,35.15,0,0,0-7.71,5.36,14.61,14.61,0,0,1,3.51-8.77C421,453.84,425.85,451,435.32,451.89Z" transform="translate(-9.74 0.19)" fill="url(#dedce46e-4bee-4778-94f3-44729cab82ac)"/><path d="M388.08,460.28a29.12,29.12,0,0,0,7.42,7.11A15.75,15.75,0,0,0,402,470a13.09,13.09,0,0,0,9-2,32.74,32.74,0,0,0-11.82-5.07,17.12,17.12,0,0,1,3.71.29,31.94,31.94,0,0,1,8.89,2.93A13.08,13.08,0,0,0,406,459C402.33,457.06,396.57,456.77,388.08,460.28Z" transform="translate(-9.74 0.19)" fill="url(#ebd80c5b-c302-4d23-a7bc-a9a58eb72942)"/><path d="M429.37,427.91a27.73,27.73,0,0,1-3.13,11.8,12.9,12.9,0,0,1-5.07,5.36A12.66,12.66,0,0,1,412,446a50.32,50.32,0,0,1,8.88-9.75,28.7,28.7,0,0,0-3.22,1.85,35.55,35.55,0,0,0-6.93,6.34,15.22,15.22,0,0,1,2.35-9.17C415.31,431.71,419.9,428.21,429.37,427.91Z" transform="translate(-9.74 0.19)" fill="url(#9b2e344b-eaa6-4cbd-8c89-64d4e115c0f7)"/><path d="M383.59,442.34a38.58,38.58,0,0,0,8.2,6.14,15.42,15.42,0,0,0,6.93,1.76,13.1,13.1,0,0,0,8.59-3.22,36,36,0,0,0-12.4-3.51,16.37,16.37,0,0,1,3.71-.19,28.62,28.62,0,0,1,9.08,1.75,12.34,12.34,0,0,0-6.64-6.34C397.25,437.27,391.69,437.76,383.59,442.34Z" transform="translate(-9.74 0.19)" fill="url(#91da4ad1-ef77-4e7a-813c-02fe72e9f87a)"/><path d="M420.39,404.81c.58,10.62-2.64,15.69-6,18.13a12.81,12.81,0,0,1-9,2.05A54.46,54.46,0,0,1,413,414.17a15.52,15.52,0,0,0-2.93,2.24,38.47,38.47,0,0,0-6.05,7.21,15.69,15.69,0,0,1,1.07-9.45C407,410.46,411.11,406.37,420.39,404.81Z" transform="translate(-9.74 0.19)" fill="url(#d58d3b55-6881-4df2-a2ba-6a2271e5d8b8)"/><path d="M377,425.18c6.64,5,11.91,6.34,16,5.85a13.35,13.35,0,0,0,8.1-4.29,34.23,34.23,0,0,0-12.69-1.85,27.38,27.38,0,0,1,3.61-.68,26.65,26.65,0,0,1,9.27.58,11.8,11.8,0,0,0-7.41-5.36C389.83,418.36,384.37,419.53,377,425.18Z" transform="translate(-9.74 0.19)" fill="url(#603e85ff-c263-4965-b76e-4bc63e300bad)"/><path d="M408.38,383.17c1.85,10.43-.49,15.89-3.51,18.71a12.62,12.62,0,0,1-8.59,3.22,50.87,50.87,0,0,1,6.05-11.7,18.13,18.13,0,0,0-2.64,2.63,33.77,33.77,0,0,0-5.07,7.9,14.29,14.29,0,0,1-.1-9.46C395.79,390.48,399.4,386,408.38,383.17Z" transform="translate(-9.74 0.19)" fill="url(#49326055-873a-49b0-b116-b73f4a821f13)"/><path d="M368,409c7.22,4.09,12.79,4.68,16.69,3.61a13.65,13.65,0,0,0,7.52-5.36,33.75,33.75,0,0,0-12.89-.1,22.51,22.51,0,0,1,3.52-1.17,26.19,26.19,0,0,1,9.27-.68,12.89,12.89,0,0,0-8-4.39C379.88,400.62,374.51,402.47,368,409Z" transform="translate(-9.74 0.19)" fill="url(#67c92b14-5446-4305-afc5-51e60180bd5c)"/><path d="M393.74,363.28A48.76,48.76,0,0,1,395.4,370a25.16,25.16,0,0,1,0,5.36,12.89,12.89,0,0,1-2.74,6.92,12.65,12.65,0,0,1-8.1,4.29,53.37,53.37,0,0,1,4.49-12.38,19.61,19.61,0,0,0-2.24,2.92,35.61,35.61,0,0,0-4,8.58,15.43,15.43,0,0,1-1.27-3.8,14.88,14.88,0,0,1-.1-5.56C382.22,372.25,385.15,367.18,393.74,363.28Z" transform="translate(-9.74 0.19)" fill="url(#9df2669e-34e3-4477-8eb2-97c086dc2ea4)"/><path d="M357,394.18a35.41,35.41,0,0,0,5.46,1.76,28.63,28.63,0,0,0,4.59.78,15.34,15.34,0,0,0,7-1.08,13.6,13.6,0,0,0,6.73-6.23,35.06,35.06,0,0,0-12.69,1.46,21.2,21.2,0,0,1,3.32-1.66,30.52,30.52,0,0,1,9.08-1.85,14.08,14.08,0,0,0-3.22-2.15,11.48,11.48,0,0,0-5.37-1.07C367.68,384.34,362.7,386.87,357,394.18Z" transform="translate(-9.74 0.19)" fill="url(#0190aff0-5e1b-4808-b355-3b64fb83f0a7)"/><path d="M361.23,357.24a29.89,29.89,0,0,1,10.94,5.36,13.24,13.24,0,0,1,4.19,6.14,12.69,12.69,0,0,1-1,9.06,53.84,53.84,0,0,1-7.71-10.62,23,23,0,0,0,1.17,3.51,35.69,35.69,0,0,0,4.78,8,15.32,15.32,0,0,1-8.59-4.09C362.21,371.66,359.77,366.59,361.23,357.24Z" transform="translate(-9.74 0.19)" fill="url(#03402a30-c923-4dcc-9e98-63198a88f0b6)"/><path d="M126,379.66s-.88,1.17-2.54,3.31-4,5.36-6.83,9.65a180.83,180.83,0,0,0-9.27,15.8,173.86,173.86,0,0,0-9.28,21.83,161.57,161.57,0,0,0-6.83,27.1,169.84,169.84,0,0,0-2,31.1A163.65,163.65,0,0,0,144.63,608,164.85,164.85,0,0,0,195,638.68a176.74,176.74,0,0,0,22.75,6.82c3.41.78,6.73,1.37,9.76,1.85s5.85.88,8.29,1.17,4.79.39,6.74.59,3.61.19,5,.29v.1c-1.37,0-3,0-5.08-.1s-4.29-.29-6.83-.39-5.37-.58-8.4-1-6.34-1-9.85-1.66a168.9,168.9,0,0,1-23-6.43A164.38,164.38,0,0,1,143,609.63a159.79,159.79,0,0,1-23-24.76,157.31,157.31,0,0,1-18-29.93,162.78,162.78,0,0,1-11.13-33.05,165.82,165.82,0,0,1-4-33.54,163.83,163.83,0,0,1,9.76-58.78A159.33,159.33,0,0,1,116,392.23c2.93-4.19,5.37-7.31,7.13-9.45C125.11,380.73,126,379.66,126,379.66Z" transform="translate(-9.74 0.19)" fill="url(#69aac6ee-5d4b-438b-91f5-edbb6848b461)"/><path d="M124.62,379.66s-.87,1.17-2.53,3.31-4,5.36-6.84,9.65a180.83,180.83,0,0,0-9.27,15.8,172.43,172.43,0,0,0-9.27,21.83,161.57,161.57,0,0,0-6.83,27.1,168.09,168.09,0,0,0-2,31.1A163.54,163.54,0,0,0,143.27,608a164.62,164.62,0,0,0,50.37,30.71,176.63,176.63,0,0,0,22.74,6.82c3.42.78,6.73,1.37,9.76,1.85s5.86.88,8.3,1.17,4.78.39,6.73.59,3.61.19,5,.29c2.73.1,4.2.2,4.2.2h-4.2c-1.37,0-3,0-5.08-.1s-4.29-.29-6.83-.39-5.37-.59-8.39-1-6.35-1-9.86-1.65A168,168,0,0,1,193,640a164.11,164.11,0,0,1-51.34-30.32,159.34,159.34,0,0,1-23-24.76,156.69,156.69,0,0,1-18-29.93,162.49,162.49,0,0,1-11.13-33,167.26,167.26,0,0,1-4-33.54,163.79,163.79,0,0,1,9.76-58.78A159.33,159.33,0,0,1,105,407.93a155.77,155.77,0,0,1,9.67-15.6c2.93-4.19,5.37-7.31,7.12-9.46S124.62,379.66,124.62,379.66Z" transform="translate(-9.74 0.19)" fill="url(#4e2a7870-136a-4a18-896d-26e267c1ac59)"/><path d="M374.7,379.66s.88,1.17,2.54,3.31,4,5.36,6.83,9.65a178.17,178.17,0,0,1,9.28,15.8,172.43,172.43,0,0,1,9.27,21.83,161.57,161.57,0,0,1,6.83,27.1,168.09,168.09,0,0,1,2.05,31.1A163.54,163.54,0,0,1,356.06,608a164.62,164.62,0,0,1-50.37,30.71A176.63,176.63,0,0,1,283,645.5c-3.42.78-6.74,1.37-9.76,1.85s-5.86.88-8.3,1.17-4.78.39-6.73.59-3.62.19-5,.29v.1c1.36,0,3,0,5.07-.1s4.3-.29,6.84-.39,5.37-.58,8.39-1,6.35-1,9.86-1.66a169.29,169.29,0,0,0,23-6.43,164.61,164.61,0,0,0,51.34-30.32,159.79,159.79,0,0,0,23-24.76,157.83,157.83,0,0,0,18-29.93,162.75,162.75,0,0,0,11.12-33.05,166.56,166.56,0,0,0,4-33.54,164,164,0,0,0-9.76-58.78,158.09,158.09,0,0,0-9.77-21.74,155.2,155.2,0,0,0-9.66-15.6c-2.93-4.19-5.37-7.31-7.13-9.45C375.58,380.73,374.7,379.66,374.7,379.66Z" transform="translate(-9.74 0.19)" fill="url(#e15068b2-6a38-4ff3-b8bc-62510ffbbf63)"/><path d="M376.17,379.66s.88,1.17,2.54,3.31,4,5.36,6.83,9.65a180.83,180.83,0,0,1,9.27,15.8,173.86,173.86,0,0,1,9.28,21.83,161.57,161.57,0,0,1,6.83,27.1,169.84,169.84,0,0,1,2.05,31.1,165.76,165.76,0,0,1-32.8,95.05A159.47,159.47,0,0,1,357.52,608a164.7,164.7,0,0,1-50.36,30.71,176.74,176.74,0,0,1-22.75,6.82c-3.41.78-6.73,1.37-9.76,1.85s-5.85.88-8.29,1.17-4.79.39-6.74.59-3.61.19-5,.29c-2.73.1-4.19.2-4.19.2h4.19c1.37,0,3,0,5.08-.1s4.29-.29,6.83-.39,5.37-.59,8.4-1,6.34-1,9.85-1.65a168,168,0,0,0,23-6.44,164,164,0,0,0,51.34-30.32,159.34,159.34,0,0,0,23-24.76,156.69,156.69,0,0,0,18-29.93,162.49,162.49,0,0,0,11.13-33,165.82,165.82,0,0,0,4-33.54,163.79,163.79,0,0,0-9.76-58.78,158.12,158.12,0,0,0-9.76-21.74,155.77,155.77,0,0,0-9.67-15.6c-2.92-4.19-5.36-7.31-7.12-9.46C377.05,380.73,376.17,379.66,376.17,379.66Z" transform="translate(-9.74 0.19)" fill="url(#088121a1-dbde-4a90-863a-7ee9eff80745)"/></g><line x1="261.44" y1="0.27" x2="300.81" y2="0.18" fill="url(#a860887d-7554-4e71-9be9-4996ca19eb3e)"/><polygon points="261.44 0.27 181.89 230.54 221.27 230.54 300.81 0.18 261.44 0.27" fill="url(#82df8f95-e273-4903-afc9-f3ea8c023762)"/><polygon points="221.27 230.54 260.56 230.54 340.17 0.09 300.81 0.18 221.27 230.54" fill="url(#94349335-ffee-4579-a2a6-2c39315f00bd)"/><line x1="300.81" y1="0.18" x2="340.17" y2="0.09" fill="url(#8b6b8a9c-792f-4bb8-9d85-56f6fe33c250)"/><polygon points="260.56 230.54 299.94 230.54 379.53 0 340.17 0.09 260.56 230.54" fill="url(#1f550a45-1925-4780-add0-d6b1dc7d52f0)"/><line x1="340.17" y1="0.09" x2="379.53" fill="url(#932e1708-604e-4e02-875d-e5235d96a7d5)"/><g id="02652e8d-65c8-4a80-87c1-6259f4b8ba68" data-name="icon layer"><path d="M334.38,459.32,255.83,384a7.11,7.11,0,0,0-9.83,0l-78.56,75.33a7.11,7.11,0,0,0,4.91,12.23H181v75.3a7.1,7.1,0,0,0,7.1,7.1H313.76a7.1,7.1,0,0,0,7.1-7.1v-75.3h8.61a7.1,7.1,0,0,0,4.91-12.23ZM270,502.65c-9.91,7.35-16.53,9.93-19.11,10.74-2.57-.81-9.2-3.39-19.11-10.74-12.14-9-12.35-17.88-11.58-25.51.56-5.6,4.63-11.63,12.24-11.63,7.78,0,12.64,6,12.8,6.22a7.07,7.07,0,0,0,11.26,0c.2-.26,5.06-6.27,12.84-6.27,7.61,0,11.69,6,12.25,11.63.76,7.63.55,16.51-11.59,25.51Zm0,0" transform="translate(-9.74 0.19)" fill="url(#9ad0f22b-04ac-49ca-8aa6-38e762d3ea4b)"/></g></svg>