<svg id="5693e327-680a-4714-8d07-a979eae3e08c" data-name="Layer 1" xmlns="http://www.w3.org/2000/svg" xmlns:xlink="http://www.w3.org/1999/xlink" viewBox="0 0 480.61 725.53"><defs><linearGradient id="519b26a4-b180-4492-bcea-e8ee519d467f" x1="101.9" y1="115.54" x2="220.66" y2="115.54" gradientUnits="userSpaceOnUse"><stop offset="0" stop-color="#ed9898"/><stop offset="1" stop-color="#be747b"/></linearGradient><linearGradient id="225ac3bb-051d-4606-929f-59e72377765d" x1="101.9" y1="0.58" x2="141.21" y2="0.58" gradientUnits="userSpaceOnUse"><stop offset="0" stop-color="#ed2526"/><stop offset="1" stop-color="#be1e2d"/></linearGradient><linearGradient id="6322f777-44ee-42ef-b26c-7765217613c5" x1="141.21" y1="0.49" x2="180.51" y2="0.49" gradientUnits="userSpaceOnUse"><stop offset="0" stop-color="#fff"/><stop offset="1" stop-color="#bbbdbf"/></linearGradient><linearGradient id="cecd685f-a55f-4769-9481-983853c9db01" x1="141.21" y1="115.5" x2="259.95" y2="115.5" xlink:href="#6322f777-44ee-42ef-b26c-7765217613c5"/><linearGradient id="62d60926-fb78-4808-a94f-419a87e1075d" x1="180.51" y1="115.45" x2="299.33" y2="115.45" gradientUnits="userSpaceOnUse"><stop offset="0" stop-color="#3c92a5"/><stop offset="1" stop-color="#28628f"/></linearGradient><linearGradient id="57d5c44b-7b41-4f84-b469-437f7b8c213c" x1="180.51" y1="0.4" x2="219.81" y2="0.4" gradientUnits="userSpaceOnUse"><stop offset="0" stop-color="#3c56a5"/><stop offset="1" stop-color="#2b388f"/></linearGradient><linearGradient id="c6802e54-452e-48c6-8518-94726583c6a8" x1="199.91" y1="585.11" x2="299.57" y2="411.07" gradientTransform="matrix(1, 0, 0, -1, 0, 750)" gradientUnits="userSpaceOnUse"><stop offset="0" stop-color="#dad7c7"/><stop offset="0.44" stop-color="#dddddc"/><stop offset="1" stop-color="#7e7e7e"/></linearGradient><linearGradient id="48874d53-32b3-490e-b673-069e7d96b4eb" x1="196.6" y1="593.15" x2="302.61" y2="408.03" gradientTransform="matrix(1, 0, 0, -1, 0, 750)" gradientUnits="userSpaceOnUse"><stop offset="0" stop-color="#f6f6f5"/><stop offset="0.37" stop-color="#f9fafb"/><stop offset="0.53" stop-color="#f9f9f9"/><stop offset="1" stop-color="#bab9b7"/></linearGradient><linearGradient id="9c292df9-e405-4e3b-8fe3-5126894b554c" x1="213.37" y1="564.23" x2="284.11" y2="440.69" gradientTransform="matrix(1, 0, 0, -1, 0, 750)" gradientUnits="userSpaceOnUse"><stop offset="0" stop-color="#f9fafb"/><stop offset="0.37" stop-color="#fafbfb"/><stop offset="0.53" stop-color="#f9f9f9"/><stop offset="1" stop-color="#fbf8f1"/></linearGradient><linearGradient id="302aadbc-1430-4672-b019-aca7f4983f73" x1="222.77" y1="552.92" x2="276.62" y2="458.88" xlink:href="#9c292df9-e405-4e3b-8fe3-5126894b554c"/><linearGradient id="53beb4d2-4c76-4af0-8cb6-9b4a13a04bcf" x1="113.88" y1="462.58" x2="399.16" y2="50.4" gradientTransform="matrix(1, 0, 0, -1, -10.35, 750.19)" xlink:href="#c6802e54-452e-48c6-8518-94726583c6a8"/><linearGradient id="c4b4711c-9fea-45cb-b2b3-2c38eaadfcad" x1="136.57" y1="567.61" x2="282.76" y2="179.8" gradientTransform="matrix(1, 0, 0, -1, -10.35, 750.19)" xlink:href="#48874d53-32b3-490e-b673-069e7d96b4eb"/><linearGradient id="57fe4228-a128-49ea-afed-687cd7befcc8" x1="84.41" y1="431.86" x2="418.06" y2="98.21" xlink:href="#9c292df9-e405-4e3b-8fe3-5126894b554c"/><linearGradient id="f8a60514-aa96-4dfc-a83b-73f7b8275b36" x1="187.32" y1="472.96" x2="297.98" y2="109.52" gradientTransform="matrix(1, 0, 0, -1, -10.35, 750.19)" gradientUnits="userSpaceOnUse"><stop offset="0" stop-color="#a7a49c"/><stop offset="0.58" stop-color="#f9fafb"/><stop offset="0.78" stop-color="#f9fafb"/><stop offset="1" stop-color="#f6f6f5"/></linearGradient><linearGradient id="012bc051-095c-4a14-8a64-659b4112be06" x1="172.01" y1="513.22" x2="308.05" y2="83.79" gradientTransform="matrix(1, 0, 0, -1, -10.35, 750.19)" gradientUnits="userSpaceOnUse"><stop offset="0" stop-color="#eae5d1"/><stop offset="0.31" stop-color="#f1f1f1"/><stop offset="0.56" stop-color="#e0e0e0"/><stop offset="1" stop-color="#b0afad"/></linearGradient><linearGradient id="c4d2cf48-d9d1-4294-8f37-b86aeb78a731" x1="43.16" y1="264.92" x2="458.16" y2="264.92" gradientTransform="matrix(1, 0, 0, -1, 0, 750)" gradientUnits="userSpaceOnUse"><stop offset="0" stop-color="#f9fafb"/><stop offset="0.37" stop-color="#fafbfb"/><stop offset="0.53" stop-color="#f9f9f9"/><stop offset="1" stop-color="#fbf8f0"/></linearGradient><linearGradient id="ef885d17-0af7-4048-812e-24e5b4f49745" x1="205.85" y1="84.97" x2="205.85" y2="103.66" gradientTransform="matrix(1, 0, 0, -1, 0, 750)" gradientUnits="userSpaceOnUse"><stop offset="0" stop-color="#818282"/><stop offset="1" stop-color="#a9aaaa"/></linearGradient><linearGradient id="cf2051c5-fbe1-4adc-a1a3-37b56f9c14b0" x1="212.86" y1="106.48" x2="212.86" y2="130.66" xlink:href="#ef885d17-0af7-4048-812e-24e5b4f49745"/><linearGradient id="a437f896-daec-4372-8e34-dec6f3cf51c1" x1="183.67" y1="93.86" x2="183.67" y2="110.64" xlink:href="#ef885d17-0af7-4048-812e-24e5b4f49745"/><linearGradient id="9382f7ab-2542-41d6-8b1f-8f3ec574a1a7" x1="193.79" y1="113.04" x2="193.79" y2="137.28" xlink:href="#ef885d17-0af7-4048-812e-24e5b4f49745"/><linearGradient id="930c6361-0b4e-4b8c-9a36-291edbd3dc13" x1="162.93" y1="105.13" x2="162.93" y2="120.42" xlink:href="#ef885d17-0af7-4048-812e-24e5b4f49745"/><linearGradient id="11b52eda-1952-4cc8-88e6-8f9a99b39b68" x1="175.88" y1="122.18" x2="175.88" y2="146.29" xlink:href="#ef885d17-0af7-4048-812e-24e5b4f49745"/><linearGradient id="50950a7e-bef2-43f6-977c-65d3b7f2fb3a" x1="143.72" y1="118.79" x2="143.72" y2="133.1" xlink:href="#ef885d17-0af7-4048-812e-24e5b4f49745"/><linearGradient id="eafbbac2-74c6-4e1b-a297-37308fb554bf" x1="159.14" y1="133.5" x2="159.14" y2="157.14" xlink:href="#ef885d17-0af7-4048-812e-24e5b4f49745"/><linearGradient id="69ae8109-74ee-4145-b256-c1babacf6721" x1="126.43" y1="134.41" x2="126.43" y2="148.2" xlink:href="#ef885d17-0af7-4048-812e-24e5b4f49745"/><linearGradient id="3ae15bdd-0383-438a-8ba3-8b6548fcc01a" x1="144.27" y1="147.14" x2="144.27" y2="170.02" xlink:href="#ef885d17-0af7-4048-812e-24e5b4f49745"/><linearGradient id="39d26578-3624-4327-b588-1154f2954f6f" x1="111.24" y1="152.04" x2="111.24" y2="165.45" xlink:href="#ef885d17-0af7-4048-812e-24e5b4f49745"/><linearGradient id="588ecc8d-5b9c-474b-b55c-1cf73585ad3c" x1="131.28" y1="162.74" x2="131.28" y2="184.35" xlink:href="#ef885d17-0af7-4048-812e-24e5b4f49745"/><linearGradient id="13e660db-a7ed-403e-bed4-fba4c6f229e1" x1="98.54" y1="171.32" x2="98.54" y2="184.75" xlink:href="#ef885d17-0af7-4048-812e-24e5b4f49745"/><linearGradient id="6e234c48-f801-4743-a5e7-0711fcd9e449" x1="120.59" y1="180.11" x2="120.59" y2="200.19" xlink:href="#ef885d17-0af7-4048-812e-24e5b4f49745"/><linearGradient id="1dcb91e0-3d03-4d66-9714-67cd9bb820ff" x1="88.48" y1="191.99" x2="88.48" y2="205.58" xlink:href="#ef885d17-0af7-4048-812e-24e5b4f49745"/><linearGradient id="d0b5a7df-7d21-4c22-a66d-4df52f60bfcb" x1="112.24" y1="198.9" x2="112.24" y2="217.03" xlink:href="#ef885d17-0af7-4048-812e-24e5b4f49745"/><linearGradient id="67acb7b9-d714-46ca-9ddb-c7826fa21766" x1="81.44" y1="213.74" x2="81.44" y2="227.77" xlink:href="#ef885d17-0af7-4048-812e-24e5b4f49745"/><linearGradient id="c54b54bd-16c9-42fc-b165-e1bbe0c8c800" x1="106.12" y1="218.65" x2="106.12" y2="234.75" xlink:href="#ef885d17-0af7-4048-812e-24e5b4f49745"/><linearGradient id="258bdba0-4685-4ba2-84b0-33a307f6c75b" x1="77.32" y1="236.17" x2="77.32" y2="250.84" xlink:href="#ef885d17-0af7-4048-812e-24e5b4f49745"/><linearGradient id="fbb68c52-269f-42ad-9b20-6a53ed0e6f8e" x1="102.66" y1="238.95" x2="102.66" y2="253.35" xlink:href="#ef885d17-0af7-4048-812e-24e5b4f49745"/><linearGradient id="39c123fd-0c81-430d-9ef3-1a8e2568b56f" x1="76.12" y1="258.91" x2="76.12" y2="274.44" xlink:href="#ef885d17-0af7-4048-812e-24e5b4f49745"/><linearGradient id="2fa0807b-fd79-4965-9a0e-939d4e212f64" x1="101.61" y1="259.49" x2="101.61" y2="272.8" xlink:href="#ef885d17-0af7-4048-812e-24e5b4f49745"/><linearGradient id="8984c8be-573f-4ca1-8503-694837e1e4a6" x1="77.94" y1="281.52" x2="77.94" y2="298.33" xlink:href="#ef885d17-0af7-4048-812e-24e5b4f49745"/><linearGradient id="fbd855fe-69d0-4a8e-810b-e08688bba583" x1="103.1" y1="279.91" x2="103.1" y2="292.5" xlink:href="#ef885d17-0af7-4048-812e-24e5b4f49745"/><linearGradient id="df3602cb-4c76-41e8-82f8-44f843f854f0" x1="82.95" y1="303.68" x2="82.95" y2="322.17" xlink:href="#ef885d17-0af7-4048-812e-24e5b4f49745"/><linearGradient id="290aa5c0-4232-4895-a6d6-955a55c7222f" x1="107.22" y1="299.86" x2="107.22" y2="312.03" xlink:href="#ef885d17-0af7-4048-812e-24e5b4f49745"/><linearGradient id="55215107-350a-49c2-906a-b0c027e5498c" x1="90.84" y1="324.95" x2="90.84" y2="345.26" xlink:href="#ef885d17-0af7-4048-812e-24e5b4f49745"/><linearGradient id="9be8f296-77d0-443e-8bae-e602d7435687" x1="113.87" y1="318.94" x2="113.87" y2="331.01" xlink:href="#ef885d17-0af7-4048-812e-24e5b4f49745"/><linearGradient id="c67bde2c-3d9d-4a22-9e02-b9c6f7ee47ce" x1="101.51" y1="344.95" x2="101.51" y2="366.88" xlink:href="#ef885d17-0af7-4048-812e-24e5b4f49745"/><linearGradient id="cd1f5dd4-b21c-4b51-80fb-3f5f15939996" x1="122.83" y1="336.9" x2="122.83" y2="349.08" xlink:href="#ef885d17-0af7-4048-812e-24e5b4f49745"/><linearGradient id="b8fb2887-3226-4494-a582-9682b52d6a7f" x1="114.58" y1="363.43" x2="114.58" y2="386.76" xlink:href="#ef885d17-0af7-4048-812e-24e5b4f49745"/><linearGradient id="bccb6873-8133-4656-a78c-39d77f825ead" x1="133.95" y1="353.32" x2="133.95" y2="365.88" xlink:href="#ef885d17-0af7-4048-812e-24e5b4f49745"/><linearGradient id="073c12ac-d14b-483a-92d0-fe3476303c39" x1="134.05" y1="371.2" x2="134.05" y2="392.81" xlink:href="#ef885d17-0af7-4048-812e-24e5b4f49745"/><linearGradient id="a6e55968-ce06-4723-b9d9-9b3a82ccacb2" x1="32.26" y1="394.01" x2="233.39" y2="42.02" gradientTransform="matrix(1, 0, 0, -1, 0, 750)" gradientUnits="userSpaceOnUse"><stop offset="0" stop-color="#f9fafb"/><stop offset="0.53" stop-color="#f9f9f9"/><stop offset="1" stop-color="#fbf5eb"/></linearGradient><linearGradient id="b47fc8e9-feed-43d4-9cee-e431f1c6ba42" x1="47.75" y1="402.86" x2="248.88" y2="50.88" xlink:href="#a6e55968-ce06-4723-b9d9-9b3a82ccacb2"/><linearGradient id="a5850bf5-eb28-4d7e-9801-5cf9c67c1712" x1="19.05" y1="386.47" x2="220.19" y2="34.48" xlink:href="#a6e55968-ce06-4723-b9d9-9b3a82ccacb2"/><linearGradient id="35881f7a-e723-48ab-9690-76e3044201a7" x1="36.36" y1="396.35" x2="237.49" y2="44.37" xlink:href="#a6e55968-ce06-4723-b9d9-9b3a82ccacb2"/><linearGradient id="7e2a761b-407a-43c3-b2a3-35515b9a2469" x1="7.98" y1="380.14" x2="209.12" y2="28.15" xlink:href="#a6e55968-ce06-4723-b9d9-9b3a82ccacb2"/><linearGradient id="c1bb55f2-5d13-4eee-90b0-002adb527d94" x1="27.02" y1="391.02" x2="228.15" y2="39.03" xlink:href="#a6e55968-ce06-4723-b9d9-9b3a82ccacb2"/><linearGradient id="9e9ed01e-4f7e-433a-acd9-e60e5ffe29df" x1="-0.8" y1="375.12" x2="200.34" y2="23.13" xlink:href="#a6e55968-ce06-4723-b9d9-9b3a82ccacb2"/><linearGradient id="e9c98a72-603b-4d4b-9641-b3b79b831c34" x1="19.7" y1="386.84" x2="220.84" y2="34.85" xlink:href="#a6e55968-ce06-4723-b9d9-9b3a82ccacb2"/><linearGradient id="97b78bd4-8c18-4073-950c-9bacf23766c4" x1="-7.06" y1="371.55" x2="194.08" y2="19.56" xlink:href="#a6e55968-ce06-4723-b9d9-9b3a82ccacb2"/><linearGradient id="f581b51f-1d9d-49c5-b42b-4038231df2e1" x1="14.45" y1="383.84" x2="215.59" y2="31.85" xlink:href="#a6e55968-ce06-4723-b9d9-9b3a82ccacb2"/><linearGradient id="4e2fc57d-1ace-40e2-9aca-a7a5f41a7454" x1="-10.8" y1="369.41" x2="190.34" y2="17.42" xlink:href="#a6e55968-ce06-4723-b9d9-9b3a82ccacb2"/><linearGradient id="2a24cc04-2b25-4bf4-b7c0-e127351a5f26" x1="11.27" y1="382.02" x2="212.4" y2="30.03" xlink:href="#a6e55968-ce06-4723-b9d9-9b3a82ccacb2"/><linearGradient id="ba558be8-45f9-489f-be8d-2ac6490252f5" x1="-11.84" y1="368.81" x2="189.29" y2="16.83" xlink:href="#a6e55968-ce06-4723-b9d9-9b3a82ccacb2"/><linearGradient id="ceee1512-30e4-40da-b14f-4981e9b21f8a" x1="10.25" y1="381.44" x2="211.39" y2="29.45" xlink:href="#a6e55968-ce06-4723-b9d9-9b3a82ccacb2"/><linearGradient id="af9075e1-9cfc-4a03-ac7d-5450a9a9157c" x1="-10.29" y1="369.7" x2="190.84" y2="17.71" xlink:href="#a6e55968-ce06-4723-b9d9-9b3a82ccacb2"/><linearGradient id="83072707-c66f-4ae1-b88f-759c3949a1c3" x1="11.5" y1="382.15" x2="212.64" y2="30.17" xlink:href="#a6e55968-ce06-4723-b9d9-9b3a82ccacb2"/><linearGradient id="b1420a2f-6797-4f56-8272-e260037d9bcb" x1="-6.05" y1="372.12" x2="195.09" y2="20.14" xlink:href="#a6e55968-ce06-4723-b9d9-9b3a82ccacb2"/><linearGradient id="82940da3-58e8-49b5-a88c-aceb00550a55" x1="15.05" y1="384.18" x2="216.19" y2="32.19" xlink:href="#a6e55968-ce06-4723-b9d9-9b3a82ccacb2"/><linearGradient id="aabe0b6f-cb04-46aa-81ab-b528171b210c" x1="0.83" y1="376.06" x2="201.97" y2="24.07" xlink:href="#a6e55968-ce06-4723-b9d9-9b3a82ccacb2"/><linearGradient id="2c66bf2f-f705-42f2-bea8-98e7f38d5e12" x1="20.77" y1="387.45" x2="221.9" y2="35.46" xlink:href="#a6e55968-ce06-4723-b9d9-9b3a82ccacb2"/><linearGradient id="84c2a393-fda8-4112-917a-7e4f99c26332" x1="9.83" y1="381.2" x2="210.97" y2="29.21" xlink:href="#a6e55968-ce06-4723-b9d9-9b3a82ccacb2"/><linearGradient id="2660811f-35ee-474b-b4f6-99e0da18da7a" x1="28.52" y1="391.88" x2="229.66" y2="39.89" xlink:href="#a6e55968-ce06-4723-b9d9-9b3a82ccacb2"/><linearGradient id="cd3d46e9-3131-424a-9a2d-ccdcf7d309b3" x1="21.08" y1="387.63" x2="222.22" y2="35.64" xlink:href="#a6e55968-ce06-4723-b9d9-9b3a82ccacb2"/><linearGradient id="6b4d8932-b784-499c-bd10-8bcc68346a81" x1="38.02" y1="397.3" x2="239.15" y2="45.32" xlink:href="#a6e55968-ce06-4723-b9d9-9b3a82ccacb2"/><linearGradient id="cf7ad6c5-a731-4a77-a711-32df90eaf949" x1="34.36" y1="395.21" x2="235.5" y2="43.23" xlink:href="#a6e55968-ce06-4723-b9d9-9b3a82ccacb2"/><linearGradient id="5051bc57-87d3-45c1-b858-082071f6771a" x1="49.42" y1="403.82" x2="250.55" y2="51.83" xlink:href="#a6e55968-ce06-4723-b9d9-9b3a82ccacb2"/><linearGradient id="178ba317-41e4-4a71-bb56-85e631d60f4d" x1="49.51" y1="403.87" x2="250.64" y2="51.88" xlink:href="#a6e55968-ce06-4723-b9d9-9b3a82ccacb2"/><linearGradient id="7630e8aa-fa1b-4a09-8b75-4ccf0540ab0d" x1="62.43" y1="411.26" x2="263.57" y2="59.27" xlink:href="#a6e55968-ce06-4723-b9d9-9b3a82ccacb2"/><linearGradient id="3afacbdf-6499-45b1-9491-597c1e143554" x1="66.24" y1="413.43" x2="267.38" y2="61.44" xlink:href="#a6e55968-ce06-4723-b9d9-9b3a82ccacb2"/><linearGradient id="97a4bef2-ca93-48f4-817a-55d4babc3d95" x1="76.79" y1="419.46" x2="277.93" y2="67.47" xlink:href="#a6e55968-ce06-4723-b9d9-9b3a82ccacb2"/><linearGradient id="16e178f8-365a-44f5-986c-6003c6396363" x1="84.25" y1="423.72" x2="285.39" y2="71.74" xlink:href="#a6e55968-ce06-4723-b9d9-9b3a82ccacb2"/><linearGradient id="fc974d5f-4702-481e-9e95-0e02d43dee33" x1="92.3" y1="428.32" x2="293.43" y2="76.33" xlink:href="#a6e55968-ce06-4723-b9d9-9b3a82ccacb2"/><linearGradient id="3e9f7adb-3919-46a9-a704-c25910d04e8c" x1="103.08" y1="434.48" x2="304.22" y2="82.5" xlink:href="#a6e55968-ce06-4723-b9d9-9b3a82ccacb2"/><linearGradient id="105e49fe-7294-46cb-95f2-811d6435e52f" x1="162.34" y1="84.97" x2="162.34" y2="103.66" gradientTransform="translate(457.79 750) rotate(180)" xlink:href="#ef885d17-0af7-4048-812e-24e5b4f49745"/><linearGradient id="6442c23d-d98a-42ac-be53-0bae321af7f2" x1="169.35" y1="106.48" x2="169.35" y2="130.66" gradientTransform="translate(457.79 750) rotate(180)" xlink:href="#ef885d17-0af7-4048-812e-24e5b4f49745"/><linearGradient id="e21fd809-6d73-4bee-a728-5dc4c74a29a3" x1="140.15" y1="93.86" x2="140.15" y2="110.64" gradientTransform="translate(457.79 750) rotate(180)" xlink:href="#ef885d17-0af7-4048-812e-24e5b4f49745"/><linearGradient id="603daf90-889c-4d5b-bb97-3d23f4620e00" x1="150.28" y1="113.04" x2="150.28" y2="137.28" gradientTransform="translate(457.79 750) rotate(180)" xlink:href="#ef885d17-0af7-4048-812e-24e5b4f49745"/><linearGradient id="e8a679ce-fd4f-410b-ab36-19d276f26166" x1="119.41" y1="105.13" x2="119.41" y2="120.42" gradientTransform="translate(457.79 750) rotate(180)" xlink:href="#ef885d17-0af7-4048-812e-24e5b4f49745"/><linearGradient id="20a26791-c0d7-4900-9ad7-eed982bfc152" x1="132.36" y1="122.18" x2="132.36" y2="146.29" gradientTransform="translate(457.79 750) rotate(180)" xlink:href="#ef885d17-0af7-4048-812e-24e5b4f49745"/><linearGradient id="98c0800a-01b8-4989-b50f-a7d477915680" x1="100.11" y1="118.79" x2="100.11" y2="133.1" gradientTransform="translate(457.79 750) rotate(180)" xlink:href="#ef885d17-0af7-4048-812e-24e5b4f49745"/><linearGradient id="7a0d9e3a-1c9e-40c5-8e32-a836ccb19a6e" x1="115.62" y1="133.5" x2="115.62" y2="157.14" gradientTransform="translate(457.79 750) rotate(180)" xlink:href="#ef885d17-0af7-4048-812e-24e5b4f49745"/><linearGradient id="bd8855f4-8012-46a5-b581-18ad91272746" x1="82.81" y1="134.41" x2="82.81" y2="148.2" gradientTransform="translate(457.79 750) rotate(180)" xlink:href="#ef885d17-0af7-4048-812e-24e5b4f49745"/><linearGradient id="77c6567a-9078-4c7e-ab5f-420a59a40241" x1="100.76" y1="147.14" x2="100.76" y2="170.02" gradientTransform="translate(457.79 750) rotate(180)" xlink:href="#ef885d17-0af7-4048-812e-24e5b4f49745"/><linearGradient id="694f9eef-4cb7-4e5d-a654-87d7a05f1fa7" x1="67.63" y1="152.04" x2="67.63" y2="165.45" gradientTransform="translate(457.79 750) rotate(180)" xlink:href="#ef885d17-0af7-4048-812e-24e5b4f49745"/><linearGradient id="c7ec2916-5358-4f85-86ca-e95aa0171efb" x1="87.67" y1="162.74" x2="87.67" y2="184.35" gradientTransform="translate(457.79 750) rotate(180)" xlink:href="#ef885d17-0af7-4048-812e-24e5b4f49745"/><linearGradient id="306033b5-7022-474e-a2ab-5bea0e10a4b6" x1="55.03" y1="171.32" x2="55.03" y2="184.75" gradientTransform="translate(457.79 750) rotate(180)" xlink:href="#ef885d17-0af7-4048-812e-24e5b4f49745"/><linearGradient id="5dc1c2c7-d313-4c00-bb5d-005cdb1ba017" x1="77.07" y1="180.11" x2="77.07" y2="200.19" gradientTransform="translate(457.79 750) rotate(180)" xlink:href="#ef885d17-0af7-4048-812e-24e5b4f49745"/><linearGradient id="e0ddb42f-7f41-44e9-b144-73a7828e2ced" x1="44.96" y1="191.99" x2="44.96" y2="205.58" gradientTransform="translate(457.79 750) rotate(180)" xlink:href="#ef885d17-0af7-4048-812e-24e5b4f49745"/><linearGradient id="94871193-c152-45d6-8071-416587613fde" x1="68.72" y1="198.9" x2="68.72" y2="217.03" gradientTransform="translate(457.79 750) rotate(180)" xlink:href="#ef885d17-0af7-4048-812e-24e5b4f49745"/><linearGradient id="c7c5b783-3219-42ef-a34f-47db4d2aa498" x1="37.83" y1="213.74" x2="37.83" y2="227.77" gradientTransform="translate(457.79 750) rotate(180)" xlink:href="#ef885d17-0af7-4048-812e-24e5b4f49745"/><linearGradient id="d327e912-a1aa-4ae8-86c1-f6252f4c29e8" x1="62.6" y1="218.65" x2="62.6" y2="234.75" gradientTransform="translate(457.79 750) rotate(180)" xlink:href="#ef885d17-0af7-4048-812e-24e5b4f49745"/><linearGradient id="a33d511e-e83c-4b03-a04c-5d79a0d813ee" x1="33.8" y1="236.17" x2="33.8" y2="250.84" gradientTransform="translate(457.79 750) rotate(180)" xlink:href="#ef885d17-0af7-4048-812e-24e5b4f49745"/><linearGradient id="6139f84a-5691-4d54-a771-065076ef0b87" x1="59.05" y1="238.95" x2="59.05" y2="253.35" gradientTransform="translate(457.79 750) rotate(180)" xlink:href="#ef885d17-0af7-4048-812e-24e5b4f49745"/><linearGradient id="664d53bd-9711-4b75-a4d5-311f699125c2" x1="32.6" y1="258.91" x2="32.6" y2="274.44" gradientTransform="translate(457.79 750) rotate(180)" xlink:href="#ef885d17-0af7-4048-812e-24e5b4f49745"/><linearGradient id="fb5423a5-77a7-404d-a203-8aa2884a9ad4" x1="58.09" y1="259.49" x2="58.09" y2="272.8" gradientTransform="translate(457.79 750) rotate(180)" xlink:href="#ef885d17-0af7-4048-812e-24e5b4f49745"/><linearGradient id="c4ee2ecb-f00a-4d8b-afd4-8db25b21e7be" x1="34.43" y1="281.52" x2="34.43" y2="298.33" gradientTransform="translate(457.79 750) rotate(180)" xlink:href="#ef885d17-0af7-4048-812e-24e5b4f49745"/><linearGradient id="dcf5e151-2bfa-429b-87f0-a9fe96c26201" x1="59.58" y1="279.91" x2="59.58" y2="292.5" gradientTransform="translate(457.79 750) rotate(180)" xlink:href="#ef885d17-0af7-4048-812e-24e5b4f49745"/><linearGradient id="218c3cb4-0f58-4b3e-ac46-60dd7e624bf1" x1="39.43" y1="303.68" x2="39.43" y2="322.17" gradientTransform="translate(457.79 750) rotate(180)" xlink:href="#ef885d17-0af7-4048-812e-24e5b4f49745"/><linearGradient id="66a52d40-4a6a-4551-9f52-f68381028ade" x1="63.7" y1="299.86" x2="63.7" y2="312.03" gradientTransform="translate(457.79 750) rotate(180)" xlink:href="#ef885d17-0af7-4048-812e-24e5b4f49745"/><linearGradient id="d4c6813d-4016-44e0-899d-e5a7c327f7dd" x1="47.32" y1="324.95" x2="47.32" y2="345.26" gradientTransform="translate(457.79 750) rotate(180)" xlink:href="#ef885d17-0af7-4048-812e-24e5b4f49745"/><linearGradient id="7b3912b4-2477-4992-b09d-fa0c1acce39d" x1="70.36" y1="318.94" x2="70.36" y2="331.01" gradientTransform="translate(457.79 750) rotate(180)" xlink:href="#ef885d17-0af7-4048-812e-24e5b4f49745"/><linearGradient id="c14f1ac4-e76e-4adc-89a4-736898324fd0" x1="58" y1="344.95" x2="58" y2="366.88" gradientTransform="translate(457.79 750) rotate(180)" xlink:href="#ef885d17-0af7-4048-812e-24e5b4f49745"/><linearGradient id="e7fb3aa7-ac24-44dd-913a-631e48a474e0" x1="79.31" y1="336.9" x2="79.31" y2="349.08" gradientTransform="translate(457.79 750) rotate(180)" xlink:href="#ef885d17-0af7-4048-812e-24e5b4f49745"/><linearGradient id="1119cd1a-2167-4148-b517-94e717e60601" x1="71.06" y1="363.43" x2="71.06" y2="386.76" gradientTransform="translate(457.79 750) rotate(180)" xlink:href="#ef885d17-0af7-4048-812e-24e5b4f49745"/><linearGradient id="bde908ab-40d6-4d5e-8947-7736f2da9e77" x1="90.43" y1="353.32" x2="90.43" y2="365.88" gradientTransform="translate(457.79 750) rotate(180)" xlink:href="#ef885d17-0af7-4048-812e-24e5b4f49745"/><linearGradient id="c4669180-8c41-4bb8-aa79-40ba8aa8712b" x1="90.54" y1="371.2" x2="90.54" y2="392.81" gradientTransform="translate(457.79 750) rotate(180)" xlink:href="#ef885d17-0af7-4048-812e-24e5b4f49745"/><linearGradient id="d455b632-db9f-4ced-8eb1-f12f8f71c51d" x1="-11.27" y1="394.02" x2="189.87" y2="42.03" gradientTransform="translate(457.79 750) rotate(180)" xlink:href="#a6e55968-ce06-4723-b9d9-9b3a82ccacb2"/><linearGradient id="8e0a5991-c87f-49bd-ad14-d5af3ea3e9fa" x1="4.15" y1="402.83" x2="205.29" y2="50.84" gradientTransform="translate(457.79 750) rotate(180)" xlink:href="#a6e55968-ce06-4723-b9d9-9b3a82ccacb2"/><linearGradient id="e49deff4-a0e6-43b3-981d-101101d4b2ea" x1="-24.54" y1="386.43" x2="176.59" y2="34.45" gradientTransform="translate(457.79 750) rotate(180)" xlink:href="#a6e55968-ce06-4723-b9d9-9b3a82ccacb2"/><linearGradient id="45e389d9-7c53-495c-aeed-00e947695ff7" x1="-7.17" y1="396.36" x2="193.97" y2="44.37" gradientTransform="translate(457.79 750) rotate(180)" xlink:href="#a6e55968-ce06-4723-b9d9-9b3a82ccacb2"/><linearGradient id="67f3629c-0d8b-4653-8412-cbfd93d4438d" x1="-35.54" y1="380.15" x2="165.59" y2="28.16" gradientTransform="translate(457.79 750) rotate(180)" xlink:href="#a6e55968-ce06-4723-b9d9-9b3a82ccacb2"/><linearGradient id="3eb77a2f-6d56-4793-a8c3-8664da520aac" x1="-16.5" y1="391.02" x2="184.63" y2="39.04" gradientTransform="translate(457.79 750) rotate(180)" xlink:href="#a6e55968-ce06-4723-b9d9-9b3a82ccacb2"/><linearGradient id="f2ad579e-63ab-457f-94e0-ccf01f3ab743" x1="-44.32" y1="375.13" x2="156.81" y2="23.14" gradientTransform="translate(457.79 750) rotate(180)" xlink:href="#a6e55968-ce06-4723-b9d9-9b3a82ccacb2"/><linearGradient id="f2496a08-425d-4893-a81c-b253171cc663" x1="-23.82" y1="386.85" x2="177.32" y2="34.86" gradientTransform="translate(457.79 750) rotate(180)" xlink:href="#a6e55968-ce06-4723-b9d9-9b3a82ccacb2"/><linearGradient id="b3d913f3-4816-4623-a82b-910d8d36bc0e" x1="-50.58" y1="371.55" x2="150.55" y2="19.57" gradientTransform="translate(457.79 750) rotate(180)" xlink:href="#a6e55968-ce06-4723-b9d9-9b3a82ccacb2"/><linearGradient id="30814a41-24a6-4296-b4a8-17719594857b" x1="-29.07" y1="383.85" x2="172.07" y2="31.86" gradientTransform="translate(457.79 750) rotate(180)" xlink:href="#a6e55968-ce06-4723-b9d9-9b3a82ccacb2"/><linearGradient id="ee35f301-3da6-416e-a05f-4ebbb1aa338d" x1="-54.39" y1="369.38" x2="146.74" y2="17.39" gradientTransform="translate(457.79 750) rotate(180)" xlink:href="#a6e55968-ce06-4723-b9d9-9b3a82ccacb2"/><linearGradient id="81790301-41f6-4c5a-ad83-38d91922e10a" x1="-32.26" y1="382.03" x2="168.88" y2="30.04" gradientTransform="translate(457.79 750) rotate(180)" xlink:href="#a6e55968-ce06-4723-b9d9-9b3a82ccacb2"/><linearGradient id="5599ecc9-9e60-44a4-9f05-0b0d6995b94b" x1="-55.36" y1="368.82" x2="145.77" y2="16.83" gradientTransform="translate(457.79 750) rotate(180)" xlink:href="#a6e55968-ce06-4723-b9d9-9b3a82ccacb2"/><linearGradient id="a11eab6a-59eb-4020-85be-23e8f88bceac" x1="-33.27" y1="381.44" x2="167.86" y2="29.46" gradientTransform="translate(457.79 750) rotate(180)" xlink:href="#a6e55968-ce06-4723-b9d9-9b3a82ccacb2"/><linearGradient id="e6b788b6-a198-461c-83f3-e1e65d8d37f7" x1="-53.82" y1="369.7" x2="147.32" y2="17.72" gradientTransform="translate(457.79 750) rotate(180)" xlink:href="#a6e55968-ce06-4723-b9d9-9b3a82ccacb2"/><linearGradient id="2a3afbc7-d353-41ec-bb01-87ebe24f3106" x1="-32.02" y1="382.16" x2="169.12" y2="30.17" gradientTransform="translate(457.79 750) rotate(180)" xlink:href="#a6e55968-ce06-4723-b9d9-9b3a82ccacb2"/><linearGradient id="731afe1a-ac2f-4eb4-94b0-719450c8075c" x1="-49.57" y1="372.13" x2="151.57" y2="20.14" gradientTransform="translate(457.79 750) rotate(180)" xlink:href="#a6e55968-ce06-4723-b9d9-9b3a82ccacb2"/><linearGradient id="a745d720-066e-4b8e-a3ef-3e80695e218e" x1="-28.54" y1="384.15" x2="172.59" y2="32.16" gradientTransform="translate(457.79 750) rotate(180)" xlink:href="#a6e55968-ce06-4723-b9d9-9b3a82ccacb2"/><linearGradient id="ecfe6de6-87c0-4252-8210-446a008fb313" x1="-42.69" y1="376.06" x2="158.45" y2="24.08" gradientTransform="translate(457.79 750) rotate(180)" xlink:href="#a6e55968-ce06-4723-b9d9-9b3a82ccacb2"/><linearGradient id="8e2defec-3d2d-46e3-bf51-771c01ef1eae" x1="-22.76" y1="387.45" x2="178.38" y2="35.47" gradientTransform="translate(457.79 750) rotate(180)" xlink:href="#a6e55968-ce06-4723-b9d9-9b3a82ccacb2"/><linearGradient id="0106f87a-a8da-4f3e-8d66-69796f51bf32" x1="-33.69" y1="381.2" x2="167.44" y2="29.22" gradientTransform="translate(457.79 750) rotate(180)" xlink:href="#a6e55968-ce06-4723-b9d9-9b3a82ccacb2"/><linearGradient id="edba4433-25c2-4a0e-9229-8e86a313e31b" x1="-15" y1="391.89" x2="186.14" y2="39.9" gradientTransform="translate(457.79 750) rotate(180)" xlink:href="#a6e55968-ce06-4723-b9d9-9b3a82ccacb2"/><linearGradient id="9f58f335-da94-4185-9f6f-f02aa103791d" x1="-22.44" y1="387.63" x2="178.7" y2="35.65" gradientTransform="translate(457.79 750) rotate(180)" xlink:href="#a6e55968-ce06-4723-b9d9-9b3a82ccacb2"/><linearGradient id="5b0a0214-583c-4c88-9139-0e3055ba703c" x1="-5.5" y1="397.31" x2="195.63" y2="45.32" gradientTransform="translate(457.79 750) rotate(180)" xlink:href="#a6e55968-ce06-4723-b9d9-9b3a82ccacb2"/><linearGradient id="b7908b57-5c79-48db-a1ee-29496f76ee09" x1="-9.16" y1="395.22" x2="191.97" y2="43.23" gradientTransform="translate(457.79 750) rotate(180)" xlink:href="#a6e55968-ce06-4723-b9d9-9b3a82ccacb2"/><linearGradient id="351a509d-ac1b-496f-bfff-db74cb7e817c" x1="5.89" y1="403.82" x2="207.03" y2="51.84" gradientTransform="translate(457.79 750) rotate(180)" xlink:href="#a6e55968-ce06-4723-b9d9-9b3a82ccacb2"/><linearGradient id="831c3858-d535-46ce-80c7-1ff9ec18a833" x1="5.98" y1="403.87" x2="207.12" y2="51.89" gradientTransform="translate(457.79 750) rotate(180)" xlink:href="#a6e55968-ce06-4723-b9d9-9b3a82ccacb2"/><linearGradient id="4c58c6e8-5b1d-4aa6-a130-bd0400ddc68e" x1="18.91" y1="411.26" x2="220.05" y2="59.28" gradientTransform="translate(457.79 750) rotate(180)" xlink:href="#a6e55968-ce06-4723-b9d9-9b3a82ccacb2"/><linearGradient id="e3166405-18ce-4b88-852f-8b51afcde9f4" x1="22.72" y1="413.44" x2="223.86" y2="61.45" gradientTransform="translate(457.79 750) rotate(180)" xlink:href="#a6e55968-ce06-4723-b9d9-9b3a82ccacb2"/><linearGradient id="b699ac43-ebf0-42a3-b014-fc481d4253f1" x1="33.27" y1="419.47" x2="234.4" y2="67.48" gradientTransform="translate(457.79 750) rotate(180)" xlink:href="#a6e55968-ce06-4723-b9d9-9b3a82ccacb2"/><linearGradient id="863d613a-4710-4c2f-9f67-8f949dc4b709" x1="40.73" y1="423.73" x2="241.86" y2="71.74" gradientTransform="translate(457.79 750) rotate(180)" xlink:href="#a6e55968-ce06-4723-b9d9-9b3a82ccacb2"/><linearGradient id="d1989efa-ef52-4587-80fc-4842605eeb39" x1="48.7" y1="428.29" x2="249.84" y2="76.3" gradientTransform="translate(457.79 750) rotate(180)" xlink:href="#a6e55968-ce06-4723-b9d9-9b3a82ccacb2"/><linearGradient id="02256254-842c-4374-b1fb-1d839259c3d3" x1="59.56" y1="434.49" x2="260.7" y2="82.5" gradientTransform="translate(457.79 750) rotate(180)" xlink:href="#a6e55968-ce06-4723-b9d9-9b3a82ccacb2"/><linearGradient id="900d10df-127c-4a28-a2f0-15fec584ba00" x1="167.56" y1="99.18" x2="167.56" y2="371.24" xlink:href="#ef885d17-0af7-4048-812e-24e5b4f49745"/><linearGradient id="a1b08f5c-e598-4aa8-89f2-93c84d0150f0" x1="168.23" y1="99.14" x2="168.23" y2="371.24" gradientTransform="matrix(1, 0, 0, -1, 0, 750)" gradientUnits="userSpaceOnUse"><stop offset="0" stop-color="#fbf5eb"/><stop offset="0.47" stop-color="#f9f9f9"/><stop offset="1" stop-color="#f9fafb"/></linearGradient><linearGradient id="3d6f446b-ff2b-426d-8b51-42d74b111792" x1="99.45" y1="99.18" x2="99.45" y2="371.24" gradientTransform="translate(433.19 750) rotate(180)" xlink:href="#ef885d17-0af7-4048-812e-24e5b4f49745"/><linearGradient id="14a2a908-a451-461d-a7bd-df6c254ce5f7" x1="100.12" y1="99.14" x2="100.12" y2="371.24" gradientTransform="translate(433.19 750) rotate(180)" xlink:href="#a1b08f5c-e598-4aa8-89f2-93c84d0150f0"/><linearGradient id="10774e51-6c3e-4719-9e3b-c8bea4005f10" x1="260.84" y1="0.22" x2="300.2" y2="0.22" xlink:href="#225ac3bb-051d-4606-929f-59e72377765d"/><linearGradient id="ff4e1937-b053-461c-aedb-3e305fdc18e8" x1="181.28" y1="115.36" x2="300.2" y2="115.36" xlink:href="#519b26a4-b180-4492-bcea-e8ee519d467f"/><linearGradient id="b61804fb-6ad8-44ac-9f80-334356053b1a" x1="220.66" y1="115.32" x2="339.56" y2="115.32" xlink:href="#6322f777-44ee-42ef-b26c-7765217613c5"/><linearGradient id="65480f02-5f15-469c-9fd9-4893493a44b8" x1="300.2" y1="0.13" x2="339.56" y2="0.13" xlink:href="#6322f777-44ee-42ef-b26c-7765217613c5"/><linearGradient id="cf62699e-25da-40fa-bcfd-240311f22d83" x1="259.95" y1="115.27" x2="378.92" y2="115.27" xlink:href="#62d60926-fb78-4808-a94f-419a87e1075d"/><linearGradient id="5a65f108-eabc-421a-88a7-2d3a8fed4847" x1="339.56" y1="0.04" x2="378.92" y2="0.04" xlink:href="#57d5c44b-7b41-4f84-b469-437f7b8c213c"/><linearGradient id="d90d7339-5914-45ff-9ccc-9b8a5e6ea1b2" x1="165.25" y1="467.98" x2="336.57" y2="467.98" gradientTransform="matrix(1, 0, 0, 1, 0, 0)" xlink:href="#48874d53-32b3-490e-b673-069e7d96b4eb"/></defs><title>house_silver</title><polygon points="101.91 0.63 181.28 230.54 220.66 230.54 141.21 0.54 101.91 0.63" fill="url(#519b26a4-b180-4492-bcea-e8ee519d467f)"/><line x1="101.9" y1="0.63" x2="141.21" y2="0.54" fill="url(#225ac3bb-051d-4606-929f-59e72377765d)"/><line x1="141.21" y1="0.54" x2="180.51" y2="0.45" fill="url(#6322f777-44ee-42ef-b26c-7765217613c5)"/><polygon points="141.21 0.54 220.66 230.54 259.95 230.54 180.51 0.45 141.21 0.54" fill="url(#cecd685f-a55f-4769-9481-983853c9db01)"/><polygon points="180.51 0.45 259.95 230.54 299.33 230.54 219.81 0.36 180.51 0.45" fill="url(#62d60926-fb78-4808-a94f-419a87e1075d)"/><line x1="180.51" y1="0.45" x2="219.81" y2="0.36" fill="url(#57d5c44b-7b41-4f84-b469-437f7b8c213c)"/><g id="03f39598-f068-4145-a0dd-4079145499d9" data-name="silver"><path d="M333.15,277.88H167.58V234.77c0-13.8,11.59-25.11,26-25.11H307.28c14.28,0,26,11.21,26,25.11v43.11Zm-152-13.22H319.54v-30a12.14,12.14,0,0,0-12.26-11.88H193.45a12.08,12.08,0,0,0-12.26,11.88v30Z" transform="translate(-10.35 0.19)" fill="url(#c6802e54-452e-48c6-8518-94726583c6a8)"/><path d="M336.89,277.88h-173v-47a27.36,27.36,0,0,1,27.31-27.31H309.58a27.36,27.36,0,0,1,27.31,27.31ZM178.22,263.51H322.51V230.84a12.94,12.94,0,0,0-12.93-12.94H191.15a12.94,12.94,0,0,0-12.93,12.94Z" transform="translate(-10.35 0.19)" fill="url(#48874d53-32b3-490e-b673-069e7d96b4eb)"/><path d="M337,278l-18.49.19-18.4.1-36.79.19c-12.26.09-50.4-.1-62.66-.1l-36.8-.19h-.28v-.29c.09-11.3.19-22.71.09-34v-8.53a64.06,64.06,0,0,1,.29-8.53,27.73,27.73,0,0,1,22.52-23.28,43,43,0,0,1,8.62-.48l8.53-.1,59.88-.09h46.86l2.1.09,2.21.29a28.07,28.07,0,0,1,15.14,8.15,27.63,27.63,0,0,1,7.47,15.33,50.94,50.94,0,0,1,.29,8.52l-.1,8.53Zm-.19-.19-.29-34-.09-8.53a49.17,49.17,0,0,0-.39-8.43,26.71,26.71,0,0,0-21.84-22.23l-2-.28-2.11-.1c-1.34-.1-2.78,0-4.22,0H263.3l-59.89-.1-8.52-.09a41.43,41.43,0,0,0-8.43.38,27,27,0,0,0-14.57,7.67,26.49,26.49,0,0,0-7.38,14.75,62.67,62.67,0,0,0-.38,8.43v8.53c-.1,11.31,0,22.71.1,34l-.29-.29,36.79-.19c12.27,0,50.4-.19,62.67-.1l36.79.19,18.4.1Z" transform="translate(-10.35 0.19)" fill="url(#9c292df9-e405-4e3b-8fe3-5126894b554c)"/><path d="M178.31,263.41c9.87-.19,19.64-.28,29.51-.38l55.48-.19c9.87,0,19.74.1,29.61.1l29.6.19-.28.28c.09-8.24,0-16.57,0-24.81v-6.23a13.62,13.62,0,0,0-.87-5.94,12.52,12.52,0,0,0-8.62-7.76,20.76,20.76,0,0,0-6-.39l-6.22.1-12.36.1-24.82.09H200.25l-6.23-.09a20.9,20.9,0,0,0-6,.38,12.65,12.65,0,0,0-8.53,7.67,15.33,15.33,0,0,0-.86,5.94l-.1,6.22Zm-.19.2-.29-24.92-.09-6.22a16,16,0,0,1,.76-6.33,13.59,13.59,0,0,1,9.11-8.43,20.15,20.15,0,0,1,6.32-.48l6.23-.09h63l24.82.09,12.36.1,6.23.09a24,24,0,0,1,6.32.48,13.11,13.11,0,0,1,9,8.34,15.53,15.53,0,0,1,.77,6.23v6.22c0,8.24-.1,16.58,0,24.82v.29h-.29l-29.61.19c-9.87,0-19.74.19-29.61.09l-55.47-.19c-9.78,0-19.65-.19-29.61-.28Z" transform="translate(-10.35 0.19)" fill="url(#302aadbc-1430-4672-b019-aca7f4983f73)"/><circle cx="240.31" cy="485.22" r="240.31" fill="url(#53beb4d2-4c76-4af0-8cb6-9b4a13a04bcf)"/><circle cx="240.31" cy="485.22" r="234.94" fill="url(#c4b4711c-9fea-45cb-b2b3-2c38eaadfcad)"/><path d="M485.69,485s0,1.43-.1,4.21,0,6.9-.48,12.36a225.72,225.72,0,0,1-7.76,46.19c-.67,2.39-1.43,4.88-2.1,7.47q-1.31,3.74-2.59,7.76c-.86,2.68-1.92,5.27-3,8.05s-2.11,5.56-3.36,8.24A229,229,0,0,1,447.65,614,235.28,235.28,0,0,1,333.72,705.8c-2.1,1-4.4,1.63-6.61,2.39s-4.5,1.54-6.7,2.3-4.6,1.34-6.9,1.92l-3.45,1-3.55.86c-2.39.57-4.69,1-7.09,1.63s-4.79.86-7.18,1.34c-4.79,1-9.68,1.53-14.66,2.11-2.49.38-5,.48-7.48.67l-7.47.57c-2.49.1-5.08.1-7.57.19l-3.83.1c-1.34,0-2.59-.1-3.84-.1-2.58-.09-5.07-.09-7.66-.19s-5.17-.38-7.67-.57c-5.17-.29-10.25-1.06-15.52-1.73a220.07,220.07,0,0,1-30.85-6.8c-5.18-1.34-10.16-3.26-15.24-5-2.49-1-5-2-7.47-3L159.24,702l-3.73-1.72a236.72,236.72,0,0,1-55.77-35,252.54,252.54,0,0,1-24-23.38A234.9,234.9,0,0,1,55,615.06a243.57,243.57,0,0,1-16.87-29.7,231.42,231.42,0,0,1-20-65.83,259.06,259.06,0,0,1-2.59-34.59A245.89,245.89,0,0,1,18,450.45a239.42,239.42,0,0,1,7.47-33.73,249.44,249.44,0,0,1,12.27-32.19,245.43,245.43,0,0,1,16.77-29.9,236.84,236.84,0,0,1,100.89-85.28l3.74-1.62,3.73-1.54c2.5-1,5-2,7.57-3,5.08-1.72,10.16-3.54,15.33-4.88a235,235,0,0,1,30.95-6.71c5.18-.67,10.35-1.44,15.53-1.73,2.58-.19,5.17-.47,7.66-.57s5.17-.1,7.67-.19c1.24,0,2.49-.1,3.83-.1l3.83.1c2.49.09,5.08.09,7.57.19l7.57.57c2.49.2,5,.29,7.47.67,5,.68,9.87,1.15,14.66,2.11,2.4.48,4.79.77,7.19,1.34s4.7,1.06,7.09,1.63l3.55.87,3.45,1c2.29.67,4.59,1.35,6.89,1.92s4.51,1.53,6.71,2.3,4.5,1.44,6.61,2.39a246.57,246.57,0,0,1,48,24.82A237.12,237.12,0,0,1,447.94,356a229.91,229.91,0,0,1,18.68,34.69c1.34,2.78,2.3,5.56,3.36,8.24s2.1,5.36,3,8.05,1.72,5.27,2.58,7.76,1.44,5.08,2.11,7.47a223.65,223.65,0,0,1,7.76,46.18c.48,5.37.38,9.59.48,12.37C485.69,483.5,485.69,485,485.69,485Zm-.19,0s0-1.44-.1-4.22,0-6.9-.57-12.36a225.21,225.21,0,0,0-8-46c-.67-2.4-1.43-4.89-2.1-7.47-.87-2.5-1.73-5.08-2.69-7.77s-1.91-5.27-3-8-2.11-5.46-3.45-8.24a232.81,232.81,0,0,0-18.78-34.49,235.29,235.29,0,0,0-66-66.21A238.52,238.52,0,0,0,333.05,266a234.13,234.13,0,0,0-55.76-13.32c-2.49-.38-4.89-.48-7.38-.67l-7.47-.57c-2.49-.1-5-.1-7.57-.19l-3.83-.1c-1.25,0-2.5.1-3.74.1-2.49.09-5.08.09-7.57.19s-5.08.38-7.67.57c-5.07.29-10.25,1.06-15.33,1.73a247,247,0,0,0-30.66,6.61c-5.08,1.34-10.06,3.16-15.14,4.88l-7.47,2.88-3.74,1.44-3.64,1.63a236.22,236.22,0,0,0-55.48,34.58,251.66,251.66,0,0,0-24,23.19,268.86,268.86,0,0,0-20.69,26.64A241,241,0,0,0,39.09,385.2a234.1,234.1,0,0,0-12.36,31.9,250.33,250.33,0,0,0-7.57,33.54,233.69,233.69,0,0,0-.09,68.79,239.6,239.6,0,0,0,7.47,33.64,234.92,234.92,0,0,0,12.26,32,257.73,257.73,0,0,0,16.68,29.7A235,235,0,0,0,156,699.28l3.64,1.63,3.73,1.44c2.5,1,5,2,7.48,2.87,5.08,1.63,10.06,3.55,15.23,4.89a233.12,233.12,0,0,0,30.76,6.61c5.17.57,10.25,1.44,15.33,1.63,2.59.19,5.08.38,7.67.48s5.07.09,7.66.19c1.25,0,2.59.1,3.83.1l3.74-.1c2.49-.1,5-.1,7.57-.19l7.47-.58c2.49-.19,5-.38,7.38-.67a234.56,234.56,0,0,0,169.6-104.05A217.16,217.16,0,0,0,465.86,579c1.34-2.78,2.29-5.56,3.44-8.24s2.21-5.36,3-7.95,1.83-5.17,2.59-7.76S476.3,550,477,547.6a220,220,0,0,0,7.95-46c.58-5.36.48-9.58.58-12.36C485.4,486.47,485.5,485,485.5,485Z" transform="translate(-10.35 0.19)" fill="url(#57fe4228-a128-49ea-afed-687cd7befcc8)"/><circle cx="240.31" cy="485.22" r="206.48" fill="url(#f8a60514-aa96-4dfc-a83b-73f7b8275b36)"/><circle cx="240.31" cy="485.22" r="201.12" fill="url(#012bc051-095c-4a14-8a64-659b4112be06)"/><path d="M457.23,485s0,1.24-.09,3.73,0,6.14-.48,10.83a198.26,198.26,0,0,1-6.81,40.63c-.57,2.1-1.24,4.31-1.82,6.61-.76,2.2-1.53,4.5-2.3,6.8s-1.72,4.7-2.58,7.09-1.82,4.89-3,7.28a203.14,203.14,0,0,1-16.39,30.47,207.33,207.33,0,0,1-100.13,80.78c-1.91.76-3.92,1.43-5.84,2.1s-3.93,1.35-5.94,2l-6,1.72a61,61,0,0,1-6.13,1.53l-6.23,1.44c-2.11.48-4.21.77-6.32,1.15-4.22.86-8.53,1.34-12.94,1.82-2.2.29-4.31.38-6.51.58s-4.41.28-6.61.48-4.41.09-6.71.19l-3.35.09c-1.15,0-2.21-.09-3.36-.09-2.2-.1-4.5-.1-6.71-.19s-4.5-.29-6.8-.48c-4.5-.29-9.1-1-13.6-1.54a202,202,0,0,1-27.12-5.94c-4.5-1.15-8.91-2.87-13.41-4.31l-6.62-2.59-3.35-1.34-3.26-1.44a207.55,207.55,0,0,1-70.13-51.35,228.88,228.88,0,0,1-18.21-23.57,219.57,219.57,0,0,1-14.85-26.16A212.71,212.71,0,0,1,52.7,545.21,224.38,224.38,0,0,1,46,515.6a210.32,210.32,0,0,1-.19-60.75,221.91,221.91,0,0,1,6.51-29.7,209.56,209.56,0,0,1,10.83-28.26A206.86,206.86,0,0,1,166.62,295.7l3.26-1.43,3.35-1.34,6.61-2.59c4.51-1.44,8.92-3.16,13.42-4.31a207,207,0,0,1,27.21-5.94c4.6-.58,9.1-1.25,13.61-1.54,2.3-.19,4.5-.38,6.8-.48s4.5-.09,6.71-.19c1.15,0,2.2-.09,3.35-.09l3.35.09c2.21.1,4.41.1,6.61.19s4.41.29,6.62.48,4.4.29,6.61.58A201.61,201.61,0,0,1,323.57,291a215.67,215.67,0,0,1,42.16,21.85,209.44,209.44,0,0,1,58,58.92,187.14,187.14,0,0,1,16.38,30.47c1.15,2.4,2,4.89,3,7.28a70.65,70.65,0,0,1,2.59,7.09c.76,2.3,1.53,4.6,2.3,6.81s1.24,4.4,1.82,6.61a198.13,198.13,0,0,1,6.8,40.62c.48,4.7.38,8.44.48,10.83C457.23,483.7,457.23,485,457.23,485Zm-.19,0s0-1.25-.1-3.74,0-6.13-.47-10.83a199.47,199.47,0,0,0-7-40.43c-.57-2.11-1.25-4.31-1.92-6.52s-1.53-4.5-2.3-6.8-1.72-4.6-2.68-7-1.82-4.8-3-7.29A194.58,194.58,0,0,0,423,372.17,207.67,207.67,0,0,0,365,314a212.85,212.85,0,0,0-42-21.37A207.54,207.54,0,0,0,274,281c-2.11-.29-4.31-.48-6.51-.58s-4.32-.28-6.52-.48-4.41-.09-6.61-.19l-3.35-.09-3.36.09c-2.2.1-4.41.1-6.71.19s-4.5.29-6.7.48c-4.51.2-9,1-13.51,1.44a203.93,203.93,0,0,0-26.93,5.85c-4.5,1.15-8.91,2.77-13.32,4.31-2.2.76-4.4,1.72-6.61,2.58l-3.25,1.35-3.26,1.43a205.08,205.08,0,0,0-69.85,50.79,229.19,229.19,0,0,0-18.21,23.37,217,217,0,0,0-14.75,26,222.28,222.28,0,0,0-10.93,28.07A219.86,219.86,0,0,0,47,455.05a224.58,224.58,0,0,0-2.3,30.18,211.72,211.72,0,0,0,2.2,30.18,217.36,217.36,0,0,0,6.52,29.51,204.92,204.92,0,0,0,25.39,54.33,206.62,206.62,0,0,0,88.34,74.26l3.26,1.43,3.26,1.35,6.61,2.58c4.5,1.44,8.81,3.07,13.32,4.22a191.3,191.3,0,0,0,27,5.75c4.5.57,9,1.24,13.51,1.43,2.2.2,4.5.39,6.7.48s4.51.1,6.71.2c1.15,0,2.3.09,3.35.09l3.36-.09c2.2-.1,4.41-.1,6.61-.2s4.41-.28,6.51-.48,4.32-.28,6.52-.67a206.25,206.25,0,0,0,149.09-91.4,204.89,204.89,0,0,0,16.58-30.28c1.15-2.4,2-4.89,3-7.28s1.91-4.7,2.68-7,1.53-4.6,2.3-6.8,1.24-4.41,1.91-6.52a192.88,192.88,0,0,0,7-40.43c.48-4.7.38-8.34.48-10.83C457,486.28,457,485,457,485Z" transform="translate(-10.35 0.19)" fill="url(#c4d2cf48-d9d1-4294-8f37-b86aeb78a731)"/><path d="M196.61,665.08a39.77,39.77,0,0,0,6.8-1.06,23.84,23.84,0,0,0,5-2.11,12,12,0,0,0,6.23-14.27,59.77,59.77,0,0,0-9.78,9,21.28,21.28,0,0,1,1.82-3.16,42.38,42.38,0,0,1,6.33-7.09,17.08,17.08,0,0,0-4,.38,12,12,0,0,0-5.17,2C200.44,651,197,655.59,196.61,665.08Z" transform="translate(-10.35 0.19)" fill="url(#ef885d17-0af7-4048-812e-24e5b4f49745)"/><path d="M211.08,619.37a34.81,34.81,0,0,1,3.64,4.41,25.52,25.52,0,0,1,2.49,3.83,15.12,15.12,0,0,1,1.73,6.8,14.1,14.1,0,0,1-3.16,8.63,32.37,32.37,0,0,1-3.55-12.27,17.1,17.1,0,0,0-.19,3.74,28.58,28.58,0,0,0,1.82,9,14.67,14.67,0,0,1-3.26-2,12.89,12.89,0,0,1-3.07-4.59C206.1,633,206.48,627.42,211.08,619.37Z" transform="translate(-10.35 0.19)" fill="url(#cf2051c5-fbe1-4adc-a1a3-37b56f9c14b0)"/><path d="M173.52,656.16c10.73.29,15.71-2.58,18.11-5.94a13.14,13.14,0,0,0,2.11-9A47.71,47.71,0,0,0,183,648.69a22.6,22.6,0,0,1,2.3-3,35.58,35.58,0,0,1,7.18-6,14.63,14.63,0,0,0-9.39,1.15C179.17,642.75,175.15,646.87,173.52,656.16Z" transform="translate(-10.35 0.19)" fill="url(#a437f896-daec-4372-8e34-dec6f3cf51c1)"/><path d="M193.93,612.76c5.08,6.42,6.32,12,5.75,16.1a12.46,12.46,0,0,1-4.31,8,35.51,35.51,0,0,1-1.82-12.75,15.65,15.65,0,0,0-.67,3.64,27.21,27.21,0,0,0,.57,9.3,13,13,0,0,1-5.37-7.38C187.13,625.6,188.28,620.14,193.93,612.76Z" transform="translate(-10.35 0.19)" fill="url(#9382f7ab-2542-41d6-8b1f-8f3ec574a1a7)"/><path d="M152,644.09a38.83,38.83,0,0,0,6.9.77,18.65,18.65,0,0,0,5.37-.67,12.89,12.89,0,0,0,6.51-3.64,12.3,12.3,0,0,0,3.16-8.63,62,62,0,0,0-11.78,6.13,17.56,17.56,0,0,1,2.59-2.58,42.23,42.23,0,0,1,7.95-5.18,17,17,0,0,0-3.93-.67,12.3,12.3,0,0,0-5.46.58C159.34,631.54,154.74,635.08,152,644.09Z" transform="translate(-10.35 0.19)" fill="url(#930c6361-0b4e-4b8c-9a36-291edbd3dc13)"/><path d="M177.83,603.75a30.54,30.54,0,0,1,2.4,5.18,33.62,33.62,0,0,1,1.34,4.4,14.6,14.6,0,0,1-.1,7.09,12.89,12.89,0,0,1-5.36,7.48,31.18,31.18,0,0,1-.19-12.75,21.63,21.63,0,0,0-1.15,3.55,26.69,26.69,0,0,0-.58,9.2,15.33,15.33,0,0,1-2.59-2.78,12.24,12.24,0,0,1-1.72-5.27C169.4,615.54,171.32,610.27,177.83,603.75Z" transform="translate(-10.35 0.19)" fill="url(#11b52eda-1952-4cc8-88e6-8f9a99b39b68)"/><path d="M132,629.53c10.25,3.06,15.81,1.53,19.07-1.06a12.82,12.82,0,0,0,4.31-8.14,49.63,49.63,0,0,0-12.36,4.41,31.71,31.71,0,0,1,3-2.3,34.09,34.09,0,0,1,8.53-3.93,14.37,14.37,0,0,0-9.39-1.34C140.85,618.13,136,620.9,132,629.53Z" transform="translate(-10.35 0.19)" fill="url(#50950a7e-bef2-43f6-977c-65d3b7f2fb3a)"/><path d="M162.88,592.83c3.26,7.47,3.07,13.13,1.44,17a13.41,13.41,0,0,1-6.23,6.71,36.89,36.89,0,0,1,1.54-12.75,18.93,18.93,0,0,0-1.63,3.36,26,26,0,0,0-1.82,9.1,12.65,12.65,0,0,1-3.36-8.53C152.92,603.56,155.6,598.48,162.88,592.83Z" transform="translate(-10.35 0.19)" fill="url(#eafbbac2-74c6-4e1b-a297-37308fb554bf)"/><path d="M114.31,612.38c9.39,4.69,15.52,3.54,19,1.43a12.31,12.31,0,0,0,5.27-7.47,54.79,54.79,0,0,0-12.94,2.87,19.21,19.21,0,0,1,3.26-1.82,31.67,31.67,0,0,1,3.83-1.53,34.17,34.17,0,0,1,5.18-1.34,15.58,15.58,0,0,0-9.11-2.59C124.56,602.12,119.29,604.33,114.31,612.38Z" transform="translate(-10.35 0.19)" fill="url(#69ae8109-74ee-4145-b256-c1babacf6721)"/><path d="M149.66,580c1.92,8.24,1.34,13.41-.76,17.06a13.06,13.06,0,0,1-7.09,5.84A30.46,30.46,0,0,1,145,590.53a15.09,15.09,0,0,0-2,3.16,37.61,37.61,0,0,0-1.72,3.74,29.37,29.37,0,0,0-1.25,5,11.94,11.94,0,0,1-2.1-8.91C138.45,589.28,141.61,584.69,149.66,580Z" transform="translate(-10.35 0.19)" fill="url(#3ae15bdd-0383-438a-8ba3-8b6548fcc01a)"/><path d="M98.78,593.12c9.11,5.65,15,5.46,18.69,3.83a12.51,12.51,0,0,0,6.23-6.71,49.39,49.39,0,0,0-13.13,1.15A25.22,25.22,0,0,1,114,590a33.61,33.61,0,0,1,9.2-1.63,14.58,14.58,0,0,0-8.82-3.64C110.28,584.4,104.82,585.84,98.78,593.12Z" transform="translate(-10.35 0.19)" fill="url(#39d26578-3624-4327-b588-1154f2954f6f)"/><path d="M138.07,565.62c1.15,8.14-.38,13.51-3,16.77a12.36,12.36,0,0,1-7.76,4.79,35.62,35.62,0,0,1,4.79-12,20.3,20.3,0,0,0-2.4,2.78,28,28,0,0,0-4.12,8.33,12.27,12.27,0,0,1-1-9C125.71,573.47,129.54,569.16,138.07,565.62Z" transform="translate(-10.35 0.19)" fill="url(#588ecc8d-5b9c-474b-b55c-1cf73585ad3c)"/><path d="M86,571.94c4.12,3.45,7.38,5.37,10.44,6.23a13.28,13.28,0,0,0,7.48.1,13,13,0,0,0,7.09-5.85,50.14,50.14,0,0,0-5.37-.57,66.59,66.59,0,0,0-7.76,0,17.07,17.07,0,0,1,3.55-1,38.34,38.34,0,0,1,9.39-.48c-1.44-1.34-3.84-4-8-4.89S92.94,565.52,86,571.94Z" transform="translate(-10.35 0.19)" fill="url(#13e660db-a7ed-403e-bed4-fba4c6f229e1)"/><path d="M128.58,549.81A31.82,31.82,0,0,1,127,560a15.22,15.22,0,0,1-3.54,6,13.48,13.48,0,0,1-8.34,3.83A31.72,31.72,0,0,1,117,565a34.25,34.25,0,0,1,4.31-6.42,18.63,18.63,0,0,0-2.78,2.49,27.38,27.38,0,0,0-5.17,7.67,12.19,12.19,0,0,1,.29-9.2C115.36,555.84,119.58,552.3,128.58,549.81Z" transform="translate(-10.35 0.19)" fill="url(#6e234c48-f801-4743-a5e7-0711fcd9e449)"/><path d="M76,549.33c7.28,7.86,13,9.2,17,8.53A12.93,12.93,0,0,0,100.8,553a51,51,0,0,0-12.94-2.3,17.83,17.83,0,0,1,3.74-.48A39.58,39.58,0,0,1,101,551a15,15,0,0,0-7.57-5.85C89.49,543.77,83.84,543.87,76,549.33Z" transform="translate(-10.35 0.19)" fill="url(#1dcb91e0-3d03-4d66-9714-67cd9bb820ff)"/><path d="M121.11,532.94c-1.06,8.15-3.83,12.94-7.19,15.43a12.93,12.93,0,0,1-8.72,2.68,36.06,36.06,0,0,1,7.67-10.25,23.27,23.27,0,0,0-3.07,2.11,26.44,26.44,0,0,0-6.13,6.9,12.55,12.55,0,0,1,1.34-9C107.22,537.26,112,534.19,121.11,532.94Z" transform="translate(-10.35 0.19)" fill="url(#d0b5a7df-7d21-4c22-a66d-4df52f60bfcb)"/><path d="M69.27,525.47c3.07,4.41,5.75,7.09,8.43,8.72a12.93,12.93,0,0,0,7.29,2,12.78,12.78,0,0,0,8.33-3.83,43.45,43.45,0,0,0-5.08-1.92,58.91,58.91,0,0,0-7.47-2,19.37,19.37,0,0,1,3.74,0,39,39,0,0,1,9.1,2,15.64,15.64,0,0,0-6.52-6.8C83.26,521.83,77.51,521.16,69.27,525.47Z" transform="translate(-10.35 0.19)" fill="url(#67acb7b9-d714-46ca-9ddb-c7826fa21766)"/><path d="M116,515.22a30.58,30.58,0,0,1-4.22,9.39,14.91,14.91,0,0,1-5,4.89,13.12,13.12,0,0,1-9.1,1.53,33.64,33.64,0,0,1,3.07-4.12,40.13,40.13,0,0,1,5.84-5.08,23.49,23.49,0,0,0-3.35,1.63,25.64,25.64,0,0,0-7,6.13A12.13,12.13,0,0,1,99,520.78C101.75,517.71,106.74,515.31,116,515.22Z" transform="translate(-10.35 0.19)" fill="url(#c54b54bd-16c9-42fc-b165-e1bbe0c8c800)"/><path d="M65.44,501c5.08,9.39,10.16,12.26,14.28,12.74a12.84,12.84,0,0,0,8.81-2.68,55.11,55.11,0,0,0-11.88-5.65,20.71,20.71,0,0,1,3.74.47,35.31,35.31,0,0,1,8.81,3.17,14.45,14.45,0,0,0-5.75-7.57C79.81,499.31,74.45,497.78,65.44,501Z" transform="translate(-10.35 0.19)" fill="url(#258bdba0-4685-4ba2-84b0-33a307f6c75b)"/><path d="M113.25,497c-3.06,7.67-7.09,11.41-10.92,13a12.91,12.91,0,0,1-9.1.29,34.63,34.63,0,0,1,10.06-7.95,19,19,0,0,0-3.45,1.25,29.91,29.91,0,0,0-7.76,5.07,12.32,12.32,0,0,1,3.64-8.33C98.59,497.59,104.15,495.86,113.25,497Z" transform="translate(-10.35 0.19)" fill="url(#fbb68c52-269f-42ad-9b20-6a53ed0e6f8e)"/><path d="M65,476.41c3.55,10,8.53,13.42,12.55,14.38a12.29,12.29,0,0,0,9-1.54,61.93,61.93,0,0,0-11.21-7.09,18.42,18.42,0,0,1,3.54,1,39.33,39.33,0,0,1,8.44,4.31c-.58-1.82-1.44-5.46-4.7-8.24C79.52,476.41,74.06,474.31,65,476.41Z" transform="translate(-10.35 0.19)" fill="url(#39c123fd-0c81-430d-9ef3-1a8e2568b56f)"/><path d="M112.87,478.52c-4.31,7.19-8.53,10.45-12.46,11.5a13.78,13.78,0,0,1-9.1-.86,31.49,31.49,0,0,1,10.92-6.52,18.34,18.34,0,0,0-3.64.77,26.87,26.87,0,0,0-8.24,4,12.08,12.08,0,0,1,4.79-7.85C98.4,477.18,103.86,476.13,112.87,478.52Z" transform="translate(-10.35 0.19)" fill="url(#2fa0807b-fd79-4965-9a0e-939d4e212f64)"/><path d="M67.64,451.79c2.3,10.35,6.61,14.47,10.45,15.9a12.68,12.68,0,0,0,9.1-.28A55.42,55.42,0,0,0,77.13,459a23.23,23.23,0,0,1,3.45,1.44,33.11,33.11,0,0,1,7.66,5.37A15,15,0,0,0,84.79,457C82,453.8,77.13,450.93,67.64,451.79Z" transform="translate(-10.35 0.19)" fill="url(#8984c8be-573f-4ca1-8503-694837e1e4a6)"/><path d="M114.88,460.22a32,32,0,0,1-7.38,7.19,16.35,16.35,0,0,1-6.61,2.68,13.63,13.63,0,0,1-8.91-2A32.92,32.92,0,0,1,103.77,463a16.49,16.49,0,0,0-3.64.29,28.68,28.68,0,0,0-8.82,3,12.75,12.75,0,0,1,5.75-7.09C100.6,457,106.35,456.68,114.88,460.22Z" transform="translate(-10.35 0.19)" fill="url(#fbd855fe-69d0-4a8e-810b-e08688bba583)"/><path d="M73.58,427.83a27.85,27.85,0,0,0,3.07,11.79A13.88,13.88,0,0,0,81.73,445a12.94,12.94,0,0,0,9.2.86A51.08,51.08,0,0,0,82,436.07,20.55,20.55,0,0,1,85.27,438a35.45,35.45,0,0,1,7,6.32,15.12,15.12,0,0,0-2.4-9.19C87.67,431.67,83,428.22,73.58,427.83Z" transform="translate(-10.35 0.19)" fill="url(#df3602cb-4c76-41e8-82f8-44f843f854f0)"/><path d="M119.29,442.3a34,34,0,0,1-8.24,6.13,15.58,15.58,0,0,1-7,1.73A13.42,13.42,0,0,1,95.53,447a33.77,33.77,0,0,1,12.36-3.45,16.5,16.5,0,0,0-3.64-.19,26.87,26.87,0,0,0-9.11,1.82,12.51,12.51,0,0,1,6.61-6.33C105.68,437.22,111.24,437.7,119.29,442.3Z" transform="translate(-10.35 0.19)" fill="url(#290aa5c0-4232-4895-a6d6-955a55c7222f)"/><path d="M82.59,404.74c-.57,10.64,2.68,15.72,5.94,18.11A13,13,0,0,0,97.44,425a56.62,56.62,0,0,0-7.57-10.83,23.77,23.77,0,0,1,3,2.3,35.65,35.65,0,0,1,6,7.19,15.71,15.71,0,0,0-1-9.39C96,410.4,91.79,406.37,82.59,404.74Z" transform="translate(-10.35 0.19)" fill="url(#55215107-350a-49c2-906a-b0c027e5498c)"/><path d="M126,425.15c-6.71,5-11.89,6.33-16,5.85a12.64,12.64,0,0,1-8-4.32,32.66,32.66,0,0,1,12.64-1.82,16.34,16.34,0,0,0-3.64-.67,26.75,26.75,0,0,0-9.2.58,12.35,12.35,0,0,1,7.38-5.37C113.16,418.35,118.52,419.5,126,425.15Z" transform="translate(-10.35 0.19)" fill="url(#9be8f296-77d0-443e-8bae-e602d7435687)"/><path d="M94.57,383.09c-1.92,10.44.48,15.81,3.54,18.68a12.23,12.23,0,0,0,8.53,3.16,52.43,52.43,0,0,0-6-11.69,16.28,16.28,0,0,1,2.59,2.69,33.93,33.93,0,0,1,5.08,7.85,14.07,14.07,0,0,0,.1-9.48C107.12,390.47,103.57,386,94.57,383.09Z" transform="translate(-10.35 0.19)" fill="url(#c67bde2c-3d9d-4a22-9e02-b9c6f7ee47ce)"/><path d="M134.91,409c-7.19,4.12-12.75,4.69-16.68,3.64a13.22,13.22,0,0,1-7.47-5.37,34.44,34.44,0,0,1,12.84-.09,21.63,21.63,0,0,0-3.55-1.15,26.22,26.22,0,0,0-9.29-.67,13.52,13.52,0,0,1,8-4.41C123,400.53,128.39,402.44,134.91,409Z" transform="translate(-10.35 0.19)" fill="url(#cd1f5dd4-b21c-4b51-80fb-3f5f15939996)"/><path d="M109.23,363.25A38.19,38.19,0,0,0,107.6,370a25.26,25.26,0,0,0,0,5.37,14,14,0,0,0,2.68,6.9,12.86,12.86,0,0,0,8.15,4.31,49.57,49.57,0,0,0-4.51-12.36,25.07,25.07,0,0,1,2.21,3,35.63,35.63,0,0,1,4,8.53,16.72,16.72,0,0,0,1.25-3.84,15.28,15.28,0,0,0,.09-5.55C120.73,372.17,117.76,367.18,109.23,363.25Z" transform="translate(-10.35 0.19)" fill="url(#b8fb2887-3226-4494-a582-9682b52d6a7f)"/><path d="M145.83,394.11a36.13,36.13,0,0,1-5.46,1.72,29.19,29.19,0,0,1-4.51.77,16.05,16.05,0,0,1-7.09-1.06,13.32,13.32,0,0,1-6.7-6.22,34.42,34.42,0,0,1,12.74,1.53,19,19,0,0,0-3.35-1.63,25.75,25.75,0,0,0-9-1.82,17.45,17.45,0,0,1,3.16-2.2,11.52,11.52,0,0,1,5.37-1.06C135.19,384.24,140.18,386.83,145.83,394.11Z" transform="translate(-10.35 0.19)" fill="url(#bccb6873-8133-4656-a78c-39d77f825ead)"/><path d="M141.61,357.22a31.24,31.24,0,0,0-10.92,5.36,12,12,0,0,0-3.26,15.24,52.26,52.26,0,0,0,7.76-10.64,20.74,20.74,0,0,1-1.15,3.55,34.71,34.71,0,0,1-4.79,8,14.93,14.93,0,0,0,8.53-4.12C140.66,371.69,143.15,366.51,141.61,357.22Z" transform="translate(-10.35 0.19)" fill="url(#073c12ac-d14b-483a-92d0-fe3476303c39)"/><path d="M194.89,665.08a39.94,39.94,0,0,0,6.8-1.06,23.74,23.74,0,0,0,5-2.11,11.94,11.94,0,0,0,6.23-14.27,59.81,59.81,0,0,0-9.77,9,20.21,20.21,0,0,1,1.82-3.16,42.7,42.7,0,0,1,6.32-7.09,17,17,0,0,0-4,.38,12.13,12.13,0,0,0-5.18,2C198.72,651,195.27,655.59,194.89,665.08Z" transform="translate(-10.35 0.19)" fill="url(#a6e55968-ce06-4723-b9d9-9b3a82ccacb2)"/><path d="M209.45,619.37a34.81,34.81,0,0,1,3.64,4.41,25.52,25.52,0,0,1,2.49,3.83,15.12,15.12,0,0,1,1.73,6.8,14,14,0,0,1-3.16,8.63,32.55,32.55,0,0,1-3.55-12.27,17.1,17.1,0,0,0-.19,3.74,28.86,28.86,0,0,0,1.82,9,14.67,14.67,0,0,1-3.26-2,12.75,12.75,0,0,1-3.06-4.59C204.37,633,204.85,627.42,209.45,619.37Z" transform="translate(-10.35 0.19)" fill="url(#b47fc8e9-feed-43d4-9cee-e431f1c6ba42)"/><path d="M171.89,656.16c10.73.29,15.72-2.58,18.11-5.94a13.08,13.08,0,0,0,2.11-9,47.71,47.71,0,0,0-10.73,7.47,22.6,22.6,0,0,1,2.3-3,35.87,35.87,0,0,1,7.18-6,14.64,14.64,0,0,0-9.39,1.15C177.45,642.75,173.42,646.87,171.89,656.16Z" transform="translate(-10.35 0.19)" fill="url(#a5850bf5-eb28-4d7e-9801-5cf9c67c1712)"/><path d="M192.2,612.76c5.08,6.42,6.33,12,5.75,16.1a12.42,12.42,0,0,1-4.31,8,36,36,0,0,1-1.82-12.75,15.65,15.65,0,0,0-.67,3.64,27,27,0,0,0,.58,9.3,13,13,0,0,1-5.37-7.38C185.4,625.6,186.55,620.14,192.2,612.76Z" transform="translate(-10.35 0.19)" fill="url(#35881f7a-e723-48ab-9690-76e3044201a7)"/><path d="M150.24,644.09a38.63,38.63,0,0,0,6.9.77,18.53,18.53,0,0,0,5.36-.67,12.88,12.88,0,0,0,6.52-3.64,12.35,12.35,0,0,0,3.16-8.63,62,62,0,0,0-11.79,6.13,18.22,18.22,0,0,1,2.59-2.58,39.72,39.72,0,0,1,8-5.18,17,17,0,0,0-3.93-.67,12.32,12.32,0,0,0-5.46.58C157.61,631.54,153,635.08,150.24,644.09Z" transform="translate(-10.35 0.19)" fill="url(#7e2a761b-407a-43c3-b2a3-35515b9a2469)"/><path d="M176.11,603.75a30.45,30.45,0,0,1,2.39,5.18,30.81,30.81,0,0,1,1.34,4.4,14.61,14.61,0,0,1-.09,7.09,12.94,12.94,0,0,1-5.37,7.48,31.55,31.55,0,0,1-.19-12.75A22.92,22.92,0,0,0,173,618.7a26.72,26.72,0,0,0-.57,9.2,15,15,0,0,1-2.59-2.78,12.38,12.38,0,0,1-1.73-5.27C167.68,615.54,169.59,610.27,176.11,603.75Z" transform="translate(-10.35 0.19)" fill="url(#c1bb55f2-5d13-4eee-90b0-002adb527d94)"/><path d="M130.31,629.53c10.25,3.06,15.81,1.53,19.06-1.06a12.79,12.79,0,0,0,4.32-8.14,49.63,49.63,0,0,0-12.36,4.41,31.71,31.71,0,0,1,3-2.3,34,34,0,0,1,8.52-3.93,14.35,14.35,0,0,0-9.39-1.34C139.12,618.13,134.24,620.9,130.31,629.53Z" transform="translate(-10.35 0.19)" fill="url(#9e9ed01e-4f7e-433a-acd9-e60e5ffe29df)"/><path d="M161.16,592.83c3.26,7.47,3.07,13.13,1.44,17a13.45,13.45,0,0,1-6.23,6.71,36.82,36.82,0,0,1,1.53-12.75,19.84,19.84,0,0,0-1.63,3.36,26.27,26.27,0,0,0-1.82,9.1,12.65,12.65,0,0,1-3.35-8.53C151.2,603.56,153.88,598.48,161.16,592.83Z" transform="translate(-10.35 0.19)" fill="url(#e9c98a72-603b-4d4b-9641-b3b79b831c34)"/><path d="M112.58,612.38c9.39,4.69,15.52,3.54,19,1.43a12.27,12.27,0,0,0,5.27-7.47,54.74,54.74,0,0,0-12.93,2.87,19.21,19.21,0,0,1,3.26-1.82,31,31,0,0,1,3.83-1.53,34,34,0,0,1,5.17-1.34,15.54,15.54,0,0,0-9.1-2.59C122.93,602.12,117.56,604.33,112.58,612.38Z" transform="translate(-10.35 0.19)" fill="url(#97b78bd4-8c18-4073-950c-9bacf23766c4)"/><path d="M147.94,580c1.91,8.24,1.34,13.41-.77,17.06a13,13,0,0,1-7.09,5.84,30.8,30.8,0,0,1,3.16-12.36,14.86,14.86,0,0,0-2,3.16,35.47,35.47,0,0,0-1.72,3.74,29.37,29.37,0,0,0-1.25,5,11.94,11.94,0,0,1-2.11-8.91C136.73,589.28,139.89,584.69,147.94,580Z" transform="translate(-10.35 0.19)" fill="url(#f581b51f-1d9d-49c5-b42b-4038231df2e1)"/><path d="M97.06,593.12c9.1,5.65,15,5.46,18.68,3.83a12.47,12.47,0,0,0,6.23-6.71,49.41,49.41,0,0,0-13.13,1.15,26,26,0,0,1,3.45-1.43,33.76,33.76,0,0,1,9.2-1.63,14.55,14.55,0,0,0-8.81-3.64C108.56,584.4,103.1,585.84,97.06,593.12Z" transform="translate(-10.35 0.19)" fill="url(#4e2fc57d-1ace-40e2-9aca-a7a5f41a7454)"/><path d="M136.34,565.62c1.15,8.14-.38,13.51-3,16.77a12.36,12.36,0,0,1-7.76,4.79,35.84,35.84,0,0,1,4.79-12A20.76,20.76,0,0,0,128,578a28,28,0,0,0-4.12,8.33,12.27,12.27,0,0,1-1.06-9C124,573.47,127.82,569.16,136.34,565.62Z" transform="translate(-10.35 0.19)" fill="url(#2a24cc04-2b25-4bf4-b7c0-e127351a5f26)"/><path d="M84.32,571.94c4.12,3.45,7.37,5.37,10.44,6.23a13.24,13.24,0,0,0,7.47.1,12.93,12.93,0,0,0,7.09-5.85,50.2,50.2,0,0,0-5.36-.57,66.6,66.6,0,0,0-7.76,0,17.08,17.08,0,0,1,3.54-1,38.38,38.38,0,0,1,9.39-.48c-1.44-1.34-3.83-4-8-4.89S91.21,565.52,84.32,571.94Z" transform="translate(-10.35 0.19)" fill="url(#ba558be8-45f9-489f-be8d-2ac6490252f5)"/><path d="M126.86,549.81A32.1,32.1,0,0,1,125.23,560a15.23,15.23,0,0,1-3.55,6,13.44,13.44,0,0,1-8.33,3.83,31.51,31.51,0,0,1,1.91-4.79,34.36,34.36,0,0,1,4.32-6.42,18.63,18.63,0,0,0-2.78,2.49,27.18,27.18,0,0,0-5.18,7.67,12.24,12.24,0,0,1,.29-9.2C113.64,555.84,117.85,552.3,126.86,549.81Z" transform="translate(-10.35 0.19)" fill="url(#ceee1512-30e4-40da-b14f-4981e9b21f8a)"/><path d="M74.25,549.33c7.29,7.86,13,9.2,17.06,8.53A12.94,12.94,0,0,0,99.07,553a50.86,50.86,0,0,0-12.93-2.3,17.79,17.79,0,0,1,3.73-.48,39.55,39.55,0,0,1,9.39.77,15,15,0,0,0-7.57-5.85C87.76,543.77,82.11,543.87,74.25,549.33Z" transform="translate(-10.35 0.19)" fill="url(#af9075e1-9cfc-4a03-ac7d-5450a9a9157c)"/><path d="M119.38,532.94c-1,8.15-3.83,12.94-7.18,15.43a12.93,12.93,0,0,1-8.72,2.68,34.29,34.29,0,0,1,7.66-10.25,23.68,23.68,0,0,0-3.06,2.11,26.44,26.44,0,0,0-6.13,6.9,12.5,12.5,0,0,1,1.34-9C105.49,537.26,110.28,534.19,119.38,532.94Z" transform="translate(-10.35 0.19)" fill="url(#83072707-c66f-4ae1-b88f-759c3949a1c3)"/><path d="M67.55,525.47c3.06,4.41,5.75,7.09,8.43,8.72a12.21,12.21,0,0,0,15.62-1.82,44.16,44.16,0,0,0-5.08-1.92,58.91,58.91,0,0,0-7.47-2,19.24,19.24,0,0,1,3.73,0,38.93,38.93,0,0,1,9.11,2,15.7,15.7,0,0,0-6.52-6.8C81.63,521.83,75.88,521.16,67.55,525.47Z" transform="translate(-10.35 0.19)" fill="url(#b1420a2f-6797-4f56-8272-e260037d9bcb)"/><path d="M114.4,515.22a30.83,30.83,0,0,1-4.21,9.39,15,15,0,0,1-5,4.89A13.12,13.12,0,0,1,96.1,531a34.72,34.72,0,0,1,3.07-4.12,40.13,40.13,0,0,1,5.84-5.08,23.49,23.49,0,0,0-3.35,1.63,25.64,25.64,0,0,0-7,6.13,12.13,12.13,0,0,1,2.69-8.81C100,517.71,105,515.31,114.4,515.22Z" transform="translate(-10.35 0.19)" fill="url(#82940da3-58e8-49b5-a88c-aceb00550a55)"/><path d="M63.72,501c5.07,9.39,10.15,12.26,14.27,12.74a12.88,12.88,0,0,0,8.82-2.68,55.6,55.6,0,0,0-11.88-5.65,20.66,20.66,0,0,1,3.73.47,35.5,35.5,0,0,1,8.82,3.17,14.56,14.56,0,0,0-5.75-7.57C78.09,499.31,72.72,497.78,63.72,501Z" transform="translate(-10.35 0.19)" fill="url(#aabe0b6f-cb04-46aa-81ab-b528171b210c)"/><path d="M111.53,497c-3.07,7.67-7.09,11.41-10.93,13a12.92,12.92,0,0,1-9.1.29,34.92,34.92,0,0,1,10.06-7.95,19,19,0,0,0-3.45,1.25,30.24,30.24,0,0,0-7.76,5.07A12.37,12.37,0,0,1,94,500.37C96.87,497.59,102.42,495.86,111.53,497Z" transform="translate(-10.35 0.19)" fill="url(#2c66bf2f-f705-42f2-bea8-98e7f38d5e12)"/><path d="M63.24,476.41c3.54,10,8.52,13.42,12.55,14.38a12.26,12.26,0,0,0,9-1.54,61.2,61.2,0,0,0-11.21-7.09,18.6,18.6,0,0,1,3.55,1,39.3,39.3,0,0,1,8.43,4.31c-.57-1.82-1.44-5.46-4.69-8.24C77.8,476.41,72.43,474.31,63.24,476.41Z" transform="translate(-10.35 0.19)" fill="url(#84c2a393-fda8-4112-917a-7e4f99c26332)"/><path d="M111.14,478.52c-4.31,7.19-8.52,10.45-12.45,11.5a13.77,13.77,0,0,1-9.1-.86,31.39,31.39,0,0,1,10.92-6.52,18.19,18.19,0,0,0-3.64.77,26.76,26.76,0,0,0-8.24,4,12,12,0,0,1,4.79-7.85C96.68,477.18,102.14,476.13,111.14,478.52Z" transform="translate(-10.35 0.19)" fill="url(#2660811f-35ee-474b-b4f6-99e0da18da7a)"/><path d="M65.92,451.79c2.3,10.35,6.61,14.47,10.44,15.9a12.71,12.71,0,0,0,9.11-.28A55.57,55.57,0,0,0,75.4,459a22.72,22.72,0,0,1,3.45,1.44,33.35,33.35,0,0,1,7.67,5.37A15.05,15.05,0,0,0,83.07,457C80.29,453.8,75.4,450.93,65.92,451.79Z" transform="translate(-10.35 0.19)" fill="url(#cd3d46e9-3131-424a-9a2d-ccdcf7d309b3)"/><path d="M113.16,460.22a32.4,32.4,0,0,1-7.38,7.19,16.4,16.4,0,0,1-6.61,2.68,13.61,13.61,0,0,1-8.91-2A32.77,32.77,0,0,1,102,463a16.49,16.49,0,0,0-3.64.29,28.55,28.55,0,0,0-8.81,3,12.73,12.73,0,0,1,5.74-7.09C98.88,457,104.63,456.68,113.16,460.22Z" transform="translate(-10.35 0.19)" fill="url(#6b4d8932-b784-499c-bd10-8bcc68346a81)"/><path d="M71.86,427.83a27.85,27.85,0,0,0,3.07,11.79A13.86,13.86,0,0,0,80,445a12.94,12.94,0,0,0,9.2.86,50.4,50.4,0,0,0-8.91-9.78A20.85,20.85,0,0,1,83.55,438a35.44,35.44,0,0,1,7,6.32,15,15,0,0,0-2.39-9.19C85.94,431.67,81.35,428.22,71.86,427.83Z" transform="translate(-10.35 0.19)" fill="url(#cf7ad6c5-a731-4a77-a711-32df90eaf949)"/><path d="M117.56,442.3a33.82,33.82,0,0,1-8.24,6.13,15.54,15.54,0,0,1-7,1.73A13.46,13.46,0,0,1,93.8,447a33.9,33.9,0,0,1,12.36-3.45,16.5,16.5,0,0,0-3.64-.19,26.82,26.82,0,0,0-9.1,1.82,12.44,12.44,0,0,1,6.61-6.33C104,437.22,109.52,437.7,117.56,442.3Z" transform="translate(-10.35 0.19)" fill="url(#5051bc57-87d3-45c1-b858-082071f6771a)"/><path d="M80.87,404.74c-.58,10.64,2.68,15.72,5.94,18.11A13,13,0,0,0,95.72,425a57.09,57.09,0,0,0-7.57-10.83,24.69,24.69,0,0,1,3,2.3,35.65,35.65,0,0,1,6,7.19,15.71,15.71,0,0,0-1.05-9.39C94.28,410.4,90.16,406.37,80.87,404.74Z" transform="translate(-10.35 0.19)" fill="url(#178ba317-41e4-4a71-bb56-85e631d60f4d)"/><path d="M124.27,425.15c-6.71,5-11.88,6.33-16,5.85a12.7,12.7,0,0,1-8-4.32,32.72,32.72,0,0,1,12.65-1.82,16.34,16.34,0,0,0-3.64-.67,26.74,26.74,0,0,0-9.2.58,12.32,12.32,0,0,1,7.38-5.37C111.43,418.35,116.89,419.5,124.27,425.15Z" transform="translate(-10.35 0.19)" fill="url(#7630e8aa-fa1b-4a09-8b75-4ccf0540ab0d)"/><path d="M92.84,383.09c-1.91,10.44.48,15.81,3.55,18.68a12.22,12.22,0,0,0,8.53,3.16,52.43,52.43,0,0,0-6-11.69,16.28,16.28,0,0,1,2.59,2.69,33.62,33.62,0,0,1,5.07,7.85,14,14,0,0,0,.1-9.48C105.4,390.47,101.85,386,92.84,383.09Z" transform="translate(-10.35 0.19)" fill="url(#3afacbdf-6499-45b1-9491-597c1e143554)"/><path d="M133.18,409c-7.18,4.12-12.74,4.69-16.67,3.64a13.19,13.19,0,0,1-7.47-5.37,34.42,34.42,0,0,1,12.84-.09,21.63,21.63,0,0,0-3.55-1.15,26.25,26.25,0,0,0-9.29-.67,13.45,13.45,0,0,1,8-4.41C121.4,400.53,126.67,402.44,133.18,409Z" transform="translate(-10.35 0.19)" fill="url(#97a4bef2-ca93-48f4-817a-55d4babc3d95)"/><path d="M107.5,363.25a38.19,38.19,0,0,0-1.63,6.71,25.26,25.26,0,0,0,0,5.37,14,14,0,0,0,2.69,6.9,12.84,12.84,0,0,0,8.14,4.31,49.85,49.85,0,0,0-4.5-12.36,24.48,24.48,0,0,1,2.2,3,35.22,35.22,0,0,1,4,8.53,16.78,16.78,0,0,0,1.24-3.84,15.27,15.27,0,0,0,.1-5.55C119,372.17,116,367.18,107.5,363.25Z" transform="translate(-10.35 0.19)" fill="url(#16e178f8-365a-44f5-986c-6003c6396363)"/><path d="M144.2,394.11a36.13,36.13,0,0,1-5.46,1.72,29.28,29.28,0,0,1-4.5.77,16,16,0,0,1-7.09-1.06,13.31,13.31,0,0,1-6.71-6.22,34.42,34.42,0,0,1,12.74,1.53,19,19,0,0,0-3.35-1.63,25.75,25.75,0,0,0-9-1.82,17.45,17.45,0,0,1,3.16-2.2,11.52,11.52,0,0,1,5.37-1.06C133.47,384.24,138.45,386.83,144.2,394.11Z" transform="translate(-10.35 0.19)" fill="url(#fc974d5f-4702-481e-9e95-0e02d43dee33)"/><path d="M139.89,357.22A31.15,31.15,0,0,0,129,362.58a12,12,0,0,0-3.26,15.24,52.65,52.65,0,0,0,7.76-10.64,21.93,21.93,0,0,1-1.15,3.55,35.07,35.07,0,0,1-4.79,8,14.93,14.93,0,0,0,8.53-4.12C138.93,371.69,141.42,366.51,139.89,357.22Z" transform="translate(-10.35 0.19)" fill="url(#3e9f7adb-3919-46a9-a704-c25910d04e8c)"/><path d="M304.69,665.08a39.94,39.94,0,0,1-6.8-1.06,23.74,23.74,0,0,1-5-2.11,11.94,11.94,0,0,1-6.23-14.27,59.81,59.81,0,0,1,9.77,9,20.21,20.21,0,0,0-1.82-3.16,42.7,42.7,0,0,0-6.32-7.09,17,17,0,0,1,4,.38,12.13,12.13,0,0,1,5.18,2C300.86,651,304.31,655.59,304.69,665.08Z" transform="translate(-10.35 0.19)" fill="url(#105e49fe-7294-46cb-95f2-811d6435e52f)"/><path d="M290.22,619.37a35.69,35.69,0,0,0-3.64,4.41,26.33,26.33,0,0,0-2.49,3.83,15.23,15.23,0,0,0-1.72,6.8,14,14,0,0,0,3.16,8.63,32.59,32.59,0,0,0,3.54-12.27,17.41,17.41,0,0,1,.2,3.74,28.86,28.86,0,0,1-1.82,9,14.64,14.64,0,0,0,3.25-2,12.89,12.89,0,0,0,3.07-4.59C295.21,633,294.82,627.42,290.22,619.37Z" transform="translate(-10.35 0.19)" fill="url(#6442c23d-d98a-42ac-be53-0bae321af7f2)"/><path d="M327.78,656.16c-10.73.29-15.71-2.58-18.11-5.94a13.12,13.12,0,0,1-2.1-9,48.16,48.16,0,0,1,10.73,7.47,23.77,23.77,0,0,0-2.3-3,35.69,35.69,0,0,0-7.19-6,14.63,14.63,0,0,1,9.39,1.15C322.13,642.75,326.16,646.87,327.78,656.16Z" transform="translate(-10.35 0.19)" fill="url(#e21fd809-6d73-4bee-a728-5dc4c74a29a3)"/><path d="M307.38,612.76c-5.08,6.42-6.33,12-5.75,16.1a12.42,12.42,0,0,0,4.31,8,36,36,0,0,0,1.82-12.75,15.65,15.65,0,0,1,.67,3.64,27,27,0,0,1-.58,9.3,13,13,0,0,0,5.37-7.38C314.18,625.6,313,620.14,307.38,612.76Z" transform="translate(-10.35 0.19)" fill="url(#603daf90-889c-4d5b-bb97-3d23f4620e00)"/><path d="M349.34,644.09a38.63,38.63,0,0,1-6.9.77,18.53,18.53,0,0,1-5.36-.67,12.88,12.88,0,0,1-6.52-3.64,12.35,12.35,0,0,1-3.16-8.63,62,62,0,0,1,11.79,6.13,18.22,18.22,0,0,0-2.59-2.58,42.57,42.57,0,0,0-8-5.18,17,17,0,0,1,3.92-.67,12.35,12.35,0,0,1,5.47.58C342,631.54,346.56,635.08,349.34,644.09Z" transform="translate(-10.35 0.19)" fill="url(#e8a679ce-fd4f-410b-ab36-19d276f26166)"/><path d="M323.47,603.75a30.45,30.45,0,0,0-2.39,5.18,30.81,30.81,0,0,0-1.34,4.4,14.61,14.61,0,0,0,.09,7.09,12.94,12.94,0,0,0,5.37,7.48,31.55,31.55,0,0,0,.19-12.75,22.92,22.92,0,0,1,1.15,3.55,26.72,26.72,0,0,1,.57,9.2,15,15,0,0,0,2.59-2.78,12.38,12.38,0,0,0,1.73-5.27C331.9,615.54,330.08,610.27,323.47,603.75Z" transform="translate(-10.35 0.19)" fill="url(#20a26791-c0d7-4900-9ad7-eed982bfc152)"/><path d="M369.37,629.53c-10.25,3.06-15.81,1.53-19.07-1.06a12.82,12.82,0,0,1-4.31-8.14,49.63,49.63,0,0,1,12.36,4.41,31.71,31.71,0,0,0-3-2.3,34.09,34.09,0,0,0-8.53-3.93,14.37,14.37,0,0,1,9.39-1.34C360.46,618.13,365.34,620.9,369.37,629.53Z" transform="translate(-10.35 0.19)" fill="url(#98c0800a-01b8-4989-b50f-a7d477915680)"/><path d="M338.42,592.83c-3.26,7.47-3.07,13.13-1.44,17a13.45,13.45,0,0,0,6.23,6.71,36.82,36.82,0,0,0-1.53-12.75,19.84,19.84,0,0,1,1.63,3.36,26.27,26.27,0,0,1,1.82,9.1,12.65,12.65,0,0,0,3.35-8.53C348.38,603.56,345.7,598.48,338.42,592.83Z" transform="translate(-10.35 0.19)" fill="url(#7a0d9e3a-1c9e-40c5-8e32-a836ccb19a6e)"/><path d="M387.09,612.38c-9.39,4.69-15.52,3.54-19,1.43a12.31,12.31,0,0,1-5.27-7.47,54.79,54.79,0,0,1,12.94,2.87,19.21,19.21,0,0,0-3.26-1.82,31.67,31.67,0,0,0-3.83-1.53,34.17,34.17,0,0,0-5.18-1.34,15.58,15.58,0,0,1,9.11-2.59C376.75,602.12,382,604.33,387.09,612.38Z" transform="translate(-10.35 0.19)" fill="url(#bd8855f4-8012-46a5-b581-18ad91272746)"/><path d="M351.64,580c-1.91,8.24-1.34,13.41.77,17.06a13,13,0,0,0,7.09,5.84,30.8,30.8,0,0,0-3.16-12.36,14.86,14.86,0,0,1,2,3.16,35.47,35.47,0,0,1,1.72,3.74,29.37,29.37,0,0,1,1.25,5,11.94,11.94,0,0,0,2.11-8.91C362.85,589.28,359.69,584.69,351.64,580Z" transform="translate(-10.35 0.19)" fill="url(#77c6567a-9078-4c7e-ab5f-420a59a40241)"/><path d="M402.62,593.12c-9.11,5.65-14.95,5.46-18.69,3.83a12.51,12.51,0,0,1-6.23-6.71,49.39,49.39,0,0,1,13.13,1.15,25.22,25.22,0,0,0-3.45-1.43,33.61,33.61,0,0,0-9.2-1.63,14.58,14.58,0,0,1,8.82-3.64C391.12,584.4,396.48,585.84,402.62,593.12Z" transform="translate(-10.35 0.19)" fill="url(#694f9eef-4cb7-4e5d-a654-87d7a05f1fa7)"/><path d="M363.33,565.62c-1.15,8.14.39,13.51,3,16.77a12.36,12.36,0,0,0,7.76,4.79,35.62,35.62,0,0,0-4.79-12,20.3,20.3,0,0,1,2.4,2.78,28,28,0,0,1,4.12,8.33,12.27,12.27,0,0,0,1-9C375.69,573.47,371.76,569.16,363.33,565.62Z" transform="translate(-10.35 0.19)" fill="url(#c7ec2916-5358-4f85-86ca-e95aa0171efb)"/><path d="M415.26,571.94c-4.12,3.45-7.37,5.37-10.44,6.23a13.24,13.24,0,0,1-7.47.1,12.93,12.93,0,0,1-7.09-5.85,50.2,50.2,0,0,1,5.36-.57,66.6,66.6,0,0,1,7.76,0,17.08,17.08,0,0,0-3.54-1,38.38,38.38,0,0,0-9.39-.48c1.43-1.34,3.83-4,8.05-4.89S408.37,565.52,415.26,571.94Z" transform="translate(-10.35 0.19)" fill="url(#306033b5-7022-474e-a2ab-5bea0e10a4b6)"/><path d="M372.72,549.81A32.1,32.1,0,0,0,374.35,560a15.23,15.23,0,0,0,3.55,6,13.44,13.44,0,0,0,8.33,3.83,31.51,31.51,0,0,0-1.91-4.79,34.36,34.36,0,0,0-4.32-6.42,18.63,18.63,0,0,1,2.78,2.49,27.18,27.18,0,0,1,5.18,7.67,12.24,12.24,0,0,0-.29-9.2C385.94,555.84,381.73,552.3,372.72,549.81Z" transform="translate(-10.35 0.19)" fill="url(#5dc1c2c7-d313-4c00-bb5d-005cdb1ba017)"/><path d="M425.32,549.33c-7.28,7.86-13,9.2-17.05,8.53a12.94,12.94,0,0,1-7.76-4.89,50.86,50.86,0,0,1,12.93-2.3,17.79,17.79,0,0,0-3.73-.48,39.55,39.55,0,0,0-9.39.77,15,15,0,0,1,7.57-5.85C411.91,543.77,417.56,543.87,425.32,549.33Z" transform="translate(-10.35 0.19)" fill="url(#e0ddb42f-7f41-44e9-b144-73a7828e2ced)"/><path d="M380.2,532.94c1.05,8.15,3.83,12.94,7.18,15.43a12.93,12.93,0,0,0,8.72,2.68,34.29,34.29,0,0,0-7.66-10.25,23.68,23.68,0,0,1,3.06,2.11,26.44,26.44,0,0,1,6.13,6.9,12.5,12.5,0,0,0-1.34-9C394.18,537.26,389.3,534.19,380.2,532.94Z" transform="translate(-10.35 0.19)" fill="url(#94871193-c152-45d6-8071-416587613fde)"/><path d="M432.13,525.47c-3.07,4.41-5.75,7.09-8.43,8.72a12.93,12.93,0,0,1-7.29,2,12.78,12.78,0,0,1-8.33-3.83,43.45,43.45,0,0,1,5.08-1.92,58.91,58.91,0,0,1,7.47-2,19.37,19.37,0,0,0-3.74,0,39,39,0,0,0-9.1,2,15.64,15.64,0,0,1,6.52-6.8C418,521.83,423.79,521.16,432.13,525.47Z" transform="translate(-10.35 0.19)" fill="url(#c7c5b783-3219-42ef-a34f-47db4d2aa498)"/><path d="M385.27,515.22a31.06,31.06,0,0,0,4.22,9.39,15,15,0,0,0,5,4.89,13.13,13.13,0,0,0,9.1,1.53,34.47,34.47,0,0,0-3.06-4.12,39.73,39.73,0,0,0-5.85-5.08,23.23,23.23,0,0,1,3.36,1.63,25.77,25.77,0,0,1,7,6.13,12.06,12.06,0,0,0-2.68-8.81C399.55,517.71,394.57,515.31,385.27,515.22Z" transform="translate(-10.35 0.19)" fill="url(#d327e912-a1aa-4ae8-86c1-f6252f4c29e8)"/><path d="M435.86,501c-5.07,9.39-10.15,12.26-14.27,12.74a12.88,12.88,0,0,1-8.82-2.68,55.6,55.6,0,0,1,11.88-5.65,20.66,20.66,0,0,0-3.73.47,35.5,35.5,0,0,0-8.82,3.17,14.56,14.56,0,0,1,5.75-7.57C421.49,499.31,427,497.78,435.86,501Z" transform="translate(-10.35 0.19)" fill="url(#a33d511e-e83c-4b03-a04c-5d79a0d813ee)"/><path d="M388.15,497c3.06,7.67,7.09,11.41,10.92,13a12.91,12.91,0,0,0,9.1.29,34.63,34.63,0,0,0-10.06-7.95,19,19,0,0,1,3.45,1.25,29.91,29.91,0,0,1,7.76,5.07,12.32,12.32,0,0,0-3.64-8.33C402.71,497.59,397.15,495.86,388.15,497Z" transform="translate(-10.35 0.19)" fill="url(#6139f84a-5691-4d54-a771-065076ef0b87)"/><path d="M436.34,476.41c-3.54,10-8.52,13.42-12.55,14.38a12.26,12.26,0,0,1-9-1.54A61.2,61.2,0,0,1,426,482.16a18.6,18.6,0,0,0-3.55,1,39.3,39.3,0,0,0-8.43,4.31c.57-1.82,1.44-5.46,4.69-8.24S427.24,474.31,436.34,476.41Z" transform="translate(-10.35 0.19)" fill="url(#664d53bd-9711-4b75-a4d5-311f699125c2)"/><path d="M388.44,478.52c4.31,7.19,8.52,10.45,12.45,11.5a13.77,13.77,0,0,0,9.1-.86,31.39,31.39,0,0,0-10.92-6.52,18.19,18.19,0,0,1,3.64.77,26.76,26.76,0,0,1,8.24,4,12,12,0,0,0-4.79-7.85C403,477.18,397.44,476.13,388.44,478.52Z" transform="translate(-10.35 0.19)" fill="url(#fb5423a5-77a7-404d-a203-8aa2884a9ad4)"/><path d="M433.66,451.79c-2.3,10.35-6.61,14.47-10.44,15.9a12.71,12.71,0,0,1-9.11-.28A55.57,55.57,0,0,1,424.18,459a22.72,22.72,0,0,0-3.45,1.44,33.35,33.35,0,0,0-7.67,5.37,15.05,15.05,0,0,1,3.45-8.82C419.29,453.8,424.18,450.93,433.66,451.79Z" transform="translate(-10.35 0.19)" fill="url(#c4ee2ecb-f00a-4d8b-afd4-8db25b21e7be)"/><path d="M386.42,460.22a32.2,32.2,0,0,0,7.38,7.19,16.4,16.4,0,0,0,6.61,2.68,13.61,13.61,0,0,0,8.91-2A32.77,32.77,0,0,0,397.54,463a16.49,16.49,0,0,1,3.64.29,28.64,28.64,0,0,1,8.81,3,12.73,12.73,0,0,0-5.74-7.09C400.7,457,395,456.68,386.42,460.22Z" transform="translate(-10.35 0.19)" fill="url(#dcf5e151-2bfa-429b-87f0-a9fe96c26201)"/><path d="M427.72,427.83a27.85,27.85,0,0,1-3.07,11.79,13.86,13.86,0,0,1-5.07,5.37,13,13,0,0,1-9.2.86,50.4,50.4,0,0,1,8.91-9.78A20.85,20.85,0,0,0,416,438a35.44,35.44,0,0,0-7,6.32,15,15,0,0,1,2.39-9.19C413.73,431.67,418.33,428.22,427.72,427.83Z" transform="translate(-10.35 0.19)" fill="url(#218c3cb4-0f58-4b3e-ac46-60dd7e624bf1)"/><path d="M382,442.3a33.82,33.82,0,0,0,8.24,6.13,15.54,15.54,0,0,0,7,1.73,13.46,13.46,0,0,0,8.53-3.16,33.9,33.9,0,0,0-12.36-3.45,16.5,16.5,0,0,1,3.64-.19,26.82,26.82,0,0,1,9.1,1.82,12.44,12.44,0,0,0-6.61-6.33C395.62,437.22,390.06,437.7,382,442.3Z" transform="translate(-10.35 0.19)" fill="url(#66a52d40-4a6a-4551-9f52-f68381028ade)"/><path d="M418.71,404.74c.58,10.64-2.68,15.72-5.94,18.11a13,13,0,0,1-8.91,2.11,57.09,57.09,0,0,1,7.57-10.83,24.69,24.69,0,0,0-3,2.3,36,36,0,0,0-6,7.19,15.81,15.81,0,0,1,1.06-9.39C405.3,410.4,409.52,406.37,418.71,404.74Z" transform="translate(-10.35 0.19)" fill="url(#d4c6813d-4016-44e0-899d-e5a7c327f7dd)"/><path d="M375.31,425.15c6.71,5,11.88,6.33,16,5.85a12.7,12.7,0,0,0,8.05-4.32,32.72,32.72,0,0,0-12.65-1.82,16.34,16.34,0,0,1,3.64-.67,26.74,26.74,0,0,1,9.2.58,12.32,12.32,0,0,0-7.38-5.37C388.24,418.35,382.78,419.5,375.31,425.15Z" transform="translate(-10.35 0.19)" fill="url(#7b3912b4-2477-4992-b09d-fa0c1acce39d)"/><path d="M406.74,383.09c1.91,10.44-.48,15.81-3.55,18.68a12.22,12.22,0,0,1-8.53,3.16,52.43,52.43,0,0,1,6-11.69,16.28,16.28,0,0,0-2.59,2.69,33.93,33.93,0,0,0-5.08,7.85,14,14,0,0,1-.09-9.48C394.18,390.47,397.73,386,406.74,383.09Z" transform="translate(-10.35 0.19)" fill="url(#c14f1ac4-e76e-4adc-89a4-736898324fd0)"/><path d="M366.4,409c7.18,4.12,12.74,4.69,16.67,3.64a13.19,13.19,0,0,0,7.47-5.37,34.42,34.42,0,0,0-12.84-.09,21.63,21.63,0,0,1,3.55-1.15,26.25,26.25,0,0,1,9.29-.67,13.45,13.45,0,0,0-8-4.41C378.28,400.53,373,402.44,366.4,409Z" transform="translate(-10.35 0.19)" fill="url(#e7fb3aa7-ac24-44dd-913a-631e48a474e0)"/><path d="M392.08,363.25a38.19,38.19,0,0,1,1.63,6.71,25.26,25.26,0,0,1,0,5.37,14,14,0,0,1-2.69,6.9,12.84,12.84,0,0,1-8.14,4.31,49.85,49.85,0,0,1,4.5-12.36,24.48,24.48,0,0,0-2.2,3,35.22,35.22,0,0,0-4,8.53,16.78,16.78,0,0,1-1.24-3.84,15.27,15.27,0,0,1-.1-5.55C380.58,372.17,383.55,367.18,392.08,363.25Z" transform="translate(-10.35 0.19)" fill="url(#1119cd1a-2167-4148-b517-94e717e60601)"/><path d="M355.47,394.11a35.88,35.88,0,0,0,5.47,1.72,29.28,29.28,0,0,0,4.5.77,16,16,0,0,0,7.09-1.06,13.4,13.4,0,0,0,6.71-6.22,34.45,34.45,0,0,0-12.75,1.53,18.93,18.93,0,0,1,3.36-1.63,25.69,25.69,0,0,1,9-1.82,17.09,17.09,0,0,0-3.16-2.2,11.5,11.5,0,0,0-5.36-1.06C366.11,384.24,361.13,386.83,355.47,394.11Z" transform="translate(-10.35 0.19)" fill="url(#bde908ab-40d6-4d5e-8947-7736f2da9e77)"/><path d="M359.69,357.22a31.15,31.15,0,0,1,10.92,5.36,12,12,0,0,1,3.26,15.24,52.65,52.65,0,0,1-7.76-10.64,21.93,21.93,0,0,0,1.15,3.55,35.07,35.07,0,0,0,4.79,8,14.93,14.93,0,0,1-8.53-4.12C360.65,371.69,358.16,366.51,359.69,357.22Z" transform="translate(-10.35 0.19)" fill="url(#c4669180-8c41-4bb8-aa79-40ba8aa8712b)"/><path d="M306.42,665.08a39.9,39.9,0,0,1-6.81-1.06,24,24,0,0,1-5-2.11,12,12,0,0,1-6.23-14.27,59.77,59.77,0,0,1,9.78,9,21.28,21.28,0,0,0-1.82-3.16,42.38,42.38,0,0,0-6.33-7.09,17.08,17.08,0,0,1,4,.38,12,12,0,0,1,5.17,2C302.58,651,306,655.59,306.42,665.08Z" transform="translate(-10.35 0.19)" fill="url(#d455b632-db9f-4ced-8eb1-f12f8f71c51d)"/><path d="M292,619.37a34.81,34.81,0,0,0-3.64,4.41,25.52,25.52,0,0,0-2.49,3.83,15.12,15.12,0,0,0-1.73,6.8,14,14,0,0,0,3.16,8.63,32.55,32.55,0,0,0,3.55-12.27,17.1,17.1,0,0,1,.19,3.74,28.86,28.86,0,0,1-1.82,9,14.67,14.67,0,0,0,3.26-2,12.75,12.75,0,0,0,3.06-4.59C296.93,633,296.55,627.42,292,619.37Z" transform="translate(-10.35 0.19)" fill="url(#8e0a5991-c87f-49bd-ad14-d5af3ea3e9fa)"/><path d="M329.51,656.16c-10.73.29-15.72-2.58-18.11-5.94a13.08,13.08,0,0,1-2.11-9A47.71,47.71,0,0,1,320,648.69a22.6,22.6,0,0,0-2.3-3,35.87,35.87,0,0,0-7.18-6,14.64,14.64,0,0,1,9.39,1.15C323.86,642.75,327.88,646.87,329.51,656.16Z" transform="translate(-10.35 0.19)" fill="url(#e49deff4-a0e6-43b3-981d-101101d4b2ea)"/><path d="M309.1,612.76c-5.08,6.42-6.32,12-5.75,16.1a12.46,12.46,0,0,0,4.31,8,35.74,35.74,0,0,0,1.82-12.75,15.65,15.65,0,0,1,.67,3.64,27.21,27.21,0,0,1-.57,9.3,13,13,0,0,0,5.36-7.38C315.9,625.6,314.75,620.14,309.1,612.76Z" transform="translate(-10.35 0.19)" fill="url(#45e389d9-7c53-495c-aeed-00e947695ff7)"/><path d="M351.07,644.09a38.83,38.83,0,0,1-6.9.77,18.65,18.65,0,0,1-5.37-.67,12.85,12.85,0,0,1-6.51-3.64,12.3,12.3,0,0,1-3.16-8.63,62,62,0,0,1,11.78,6.13,17.56,17.56,0,0,0-2.59-2.58,39.13,39.13,0,0,0-7.95-5.18,17,17,0,0,1,3.93-.67,12.31,12.31,0,0,1,5.46.58C343.69,631.54,348.29,635.08,351.07,644.09Z" transform="translate(-10.35 0.19)" fill="url(#67f3629c-0d8b-4653-8412-cbfd93d4438d)"/><path d="M325.2,603.75a30.54,30.54,0,0,0-2.4,5.18,33.62,33.62,0,0,0-1.34,4.4,14.6,14.6,0,0,0,.1,7.09,12.89,12.89,0,0,0,5.36,7.48,31.18,31.18,0,0,0,.19-12.75,21.63,21.63,0,0,1,1.15,3.55,26.69,26.69,0,0,1,.58,9.2,15.33,15.33,0,0,0,2.59-2.78,12.24,12.24,0,0,0,1.72-5.27C333.63,615.54,331.71,610.27,325.2,603.75Z" transform="translate(-10.35 0.19)" fill="url(#3eb77a2f-6d56-4793-a8c3-8664da520aac)"/><path d="M371,629.53c-10.26,3.06-15.81,1.53-19.07-1.06a12.82,12.82,0,0,1-4.31-8.14A49.63,49.63,0,0,1,360,624.74a33.53,33.53,0,0,0-3-2.3,34.09,34.09,0,0,0-8.53-3.93,14.36,14.36,0,0,1,9.39-1.34C362.18,618.13,367.07,620.9,371,629.53Z" transform="translate(-10.35 0.19)" fill="url(#f2ad579e-63ab-457f-94e0-ccf01f3ab743)"/><path d="M340.14,592.83c-3.25,7.47-3.06,13.13-1.43,17a13.41,13.41,0,0,0,6.23,6.71,36.89,36.89,0,0,0-1.54-12.75,18.93,18.93,0,0,1,1.63,3.36,26,26,0,0,1,1.82,9.1,12.65,12.65,0,0,0,3.36-8.53C350.11,603.56,347.43,598.48,340.14,592.83Z" transform="translate(-10.35 0.19)" fill="url(#f2496a08-425d-4893-a81c-b253171cc663)"/><path d="M388.72,612.38c-9.39,4.69-15.52,3.54-19,1.43a12.31,12.31,0,0,1-5.27-7.47,54.89,54.89,0,0,1,12.94,2.87,19.21,19.21,0,0,0-3.26-1.82,31.67,31.67,0,0,0-3.83-1.53,34.17,34.17,0,0,0-5.18-1.34,15.56,15.56,0,0,1,9.1-2.59C378.47,602.12,383.74,604.33,388.72,612.38Z" transform="translate(-10.35 0.19)" fill="url(#b3d913f3-4816-4623-a82b-910d8d36bc0e)"/><path d="M353.37,580c-1.92,8.24-1.34,13.41.76,17.06a13.06,13.06,0,0,0,7.09,5.84,30.46,30.46,0,0,0-3.16-12.36,14.86,14.86,0,0,1,2,3.16,35.37,35.37,0,0,1,1.73,3.74,28.49,28.49,0,0,1,1.24,5,11.94,11.94,0,0,0,2.11-8.91C364.58,589.28,361.42,584.69,353.37,580Z" transform="translate(-10.35 0.19)" fill="url(#30814a41-24a6-4296-b4a8-17719594857b)"/><path d="M404.34,593.12c-9.1,5.65-14.95,5.46-18.68,3.83a12.47,12.47,0,0,1-6.23-6.71,49.41,49.41,0,0,1,13.13,1.15,26,26,0,0,0-3.45-1.43,33.76,33.76,0,0,0-9.2-1.63,14.55,14.55,0,0,1,8.81-3.64C392.75,584.4,398.21,585.84,404.34,593.12Z" transform="translate(-10.35 0.19)" fill="url(#ee35f301-3da6-416e-a05f-4ebbb1aa338d)"/><path d="M365,565.62c-1.15,8.14.38,13.51,3,16.77a12.36,12.36,0,0,0,7.76,4.79,35.62,35.62,0,0,0-4.79-12,20.3,20.3,0,0,1,2.4,2.78,28,28,0,0,1,4.12,8.33,12.27,12.27,0,0,0,1.05-9C377.42,573.47,373.49,569.16,365,565.62Z" transform="translate(-10.35 0.19)" fill="url(#81790301-41f6-4c5a-ad83-38d91922e10a)"/><path d="M417,571.94c-4.12,3.45-7.38,5.37-10.45,6.23a13.25,13.25,0,0,1-7.47.1,13,13,0,0,1-7.09-5.85,50.14,50.14,0,0,1,5.37-.57,66.59,66.59,0,0,1,7.76,0,17.07,17.07,0,0,0-3.55-1,38.34,38.34,0,0,0-9.39-.48c1.44-1.34,3.84-4,8.05-4.89S410.09,565.52,417,571.94Z" transform="translate(-10.35 0.19)" fill="url(#5599ecc9-9e60-44a4-9f05-0b0d6995b94b)"/><path d="M374.45,549.81A31.82,31.82,0,0,0,376.08,560a15.22,15.22,0,0,0,3.54,6,13.48,13.48,0,0,0,8.34,3.83A31.72,31.72,0,0,0,386,565a34.75,34.75,0,0,0-4.31-6.42,18.63,18.63,0,0,1,2.78,2.49,27.38,27.38,0,0,1,5.17,7.67,12.19,12.19,0,0,0-.29-9.2C387.67,555.84,383.45,552.3,374.45,549.81Z" transform="translate(-10.35 0.19)" fill="url(#a11eab6a-59eb-4020-85be-23e8f88bceac)"/><path d="M427.05,549.33c-7.28,7.86-13,9.2-17.06,8.53a12.94,12.94,0,0,1-7.76-4.89,50.86,50.86,0,0,1,12.94-2.3,17.83,17.83,0,0,0-3.74-.48A39.58,39.58,0,0,0,402,551a15,15,0,0,1,7.57-5.85C413.54,543.77,419.29,543.87,427.05,549.33Z" transform="translate(-10.35 0.19)" fill="url(#e6b788b6-a198-461c-83f3-e1e65d8d37f7)"/><path d="M381.92,532.94c1.05,8.15,3.83,12.94,7.19,15.43a12.92,12.92,0,0,0,8.72,2.68,34.37,34.37,0,0,0-7.67-10.25,23.27,23.27,0,0,1,3.07,2.11,26.44,26.44,0,0,1,6.13,6.9,12.55,12.55,0,0,0-1.34-9C395.91,537.26,391,534.19,381.92,532.94Z" transform="translate(-10.35 0.19)" fill="url(#2a3afbc7-d353-41ec-bb01-87ebe24f3106)"/><path d="M433.76,525.47c-3.07,4.41-5.75,7.09-8.44,8.72a12.19,12.19,0,0,1-15.61-1.82,43.45,43.45,0,0,1,5.08-1.92,58.91,58.91,0,0,1,7.47-2,19.37,19.37,0,0,0-3.74,0,39,39,0,0,0-9.1,2,15.67,15.67,0,0,1,6.51-6.8C419.77,521.83,425.52,521.16,433.76,525.47Z" transform="translate(-10.35 0.19)" fill="url(#731afe1a-ac2f-4eb4-94b0-719450c8075c)"/><path d="M387,515.22a30.83,30.83,0,0,0,4.21,9.39,15,15,0,0,0,5,4.89,13.12,13.12,0,0,0,9.1,1.53,34.72,34.72,0,0,0-3.07-4.12,40.13,40.13,0,0,0-5.84-5.08,23.49,23.49,0,0,1,3.35,1.63,25.64,25.64,0,0,1,7,6.13,12.13,12.13,0,0,0-2.69-8.81C401.27,517.71,396.29,515.31,387,515.22Z" transform="translate(-10.35 0.19)" fill="url(#a745d720-066e-4b8e-a3ef-3e80695e218e)"/><path d="M437.59,501c-5.08,9.39-10.16,12.26-14.28,12.74a12.84,12.84,0,0,1-8.81-2.68,55.11,55.11,0,0,1,11.88-5.65,20.71,20.71,0,0,0-3.74.47,35.31,35.31,0,0,0-8.81,3.17,14.45,14.45,0,0,1,5.75-7.57C423.22,499.31,428.68,497.78,437.59,501Z" transform="translate(-10.35 0.19)" fill="url(#ecfe6de6-87c0-4252-8210-446a008fb313)"/><path d="M389.78,497c3.06,7.67,7.09,11.41,10.92,13a12.91,12.91,0,0,0,9.1.29,34.63,34.63,0,0,0-10.06-7.95,19,19,0,0,1,3.45,1.25A29.91,29.91,0,0,1,411,508.7a12.32,12.32,0,0,0-3.64-8.33C404.44,497.59,398.88,495.86,389.78,497Z" transform="translate(-10.35 0.19)" fill="url(#8e2defec-3d2d-46e3-bf51-771c01ef1eae)"/><path d="M438.07,476.41c-3.55,10-8.53,13.42-12.55,14.38a12.29,12.29,0,0,1-9-1.54,61.56,61.56,0,0,1,11.21-7.09,18.42,18.42,0,0,0-3.54,1,39.33,39.33,0,0,0-8.44,4.31c.58-1.82,1.44-5.46,4.7-8.24C423.5,476.41,429,474.31,438.07,476.41Z" transform="translate(-10.35 0.19)" fill="url(#0106f87a-a8da-4f3e-8d66-69796f51bf32)"/><path d="M390.16,478.52c4.31,7.19,8.53,10.45,12.46,11.5a13.79,13.79,0,0,0,9.1-.86,31.49,31.49,0,0,0-10.92-6.52,18.34,18.34,0,0,1,3.64.77,26.87,26.87,0,0,1,8.24,4,12.08,12.08,0,0,0-4.79-7.85C404.63,477.18,399.17,476.13,390.16,478.52Z" transform="translate(-10.35 0.19)" fill="url(#edba4433-25c2-4a0e-9229-8e86a313e31b)"/><path d="M435.39,451.79c-2.3,10.35-6.62,14.47-10.45,15.9a12.68,12.68,0,0,1-9.1-.28A55.42,55.42,0,0,1,425.9,459a23.23,23.23,0,0,0-3.45,1.44,33.11,33.11,0,0,0-7.66,5.37,15,15,0,0,1,3.44-8.82C421,453.8,425.9,450.93,435.39,451.79Z" transform="translate(-10.35 0.19)" fill="url(#9f58f335-da94-4185-9f6f-f02aa103791d)"/><path d="M388.15,460.22a32,32,0,0,0,7.38,7.19,16.35,16.35,0,0,0,6.61,2.68,13.63,13.63,0,0,0,8.91-2A32.92,32.92,0,0,0,399.26,463a16.49,16.49,0,0,1,3.64.29,28.68,28.68,0,0,1,8.82,3,12.75,12.75,0,0,0-5.75-7.09C402.42,457,396.68,456.68,388.15,460.22Z" transform="translate(-10.35 0.19)" fill="url(#5b0a0214-583c-4c88-9139-0e3055ba703c)"/><path d="M429.44,427.83a27.71,27.71,0,0,1-3.06,11.79A13.88,13.88,0,0,1,421.3,445a12.94,12.94,0,0,1-9.2.86,51.08,51.08,0,0,1,8.91-9.78,20.55,20.55,0,0,0-3.25,1.92,35.45,35.45,0,0,0-7,6.32,15.12,15.12,0,0,1,2.4-9.19C415.46,431.67,420.05,428.22,429.44,427.83Z" transform="translate(-10.35 0.19)" fill="url(#b7908b57-5c79-48db-a1ee-29496f76ee09)"/><path d="M383.74,442.3a34,34,0,0,0,8.24,6.13,15.58,15.58,0,0,0,7,1.73A13.42,13.42,0,0,0,407.5,447a33.77,33.77,0,0,0-12.36-3.45,16.5,16.5,0,0,1,3.64-.19,26.87,26.87,0,0,1,9.11,1.82,12.5,12.5,0,0,0-6.62-6.33C397.35,437.22,391.79,437.7,383.74,442.3Z" transform="translate(-10.35 0.19)" fill="url(#351a509d-ac1b-496f-bfff-db74cb7e817c)"/><path d="M420.44,404.74c.57,10.64-2.68,15.72-5.94,18.11a13,13,0,0,1-8.91,2.11,56.62,56.62,0,0,1,7.57-10.83,23.77,23.77,0,0,0-3,2.3,35.65,35.65,0,0,0-6,7.19,15.71,15.71,0,0,1,1.05-9.39C407,410.4,411.24,406.37,420.44,404.74Z" transform="translate(-10.35 0.19)" fill="url(#831c3858-d535-46ce-80c7-1ff9ec18a833)"/><path d="M377,425.15c6.71,5,11.88,6.33,16,5.85a12.67,12.67,0,0,0,8.05-4.32,32.66,32.66,0,0,0-12.64-1.82,16.34,16.34,0,0,1,3.64-.67,26.68,26.68,0,0,1,9.19.58,12.29,12.29,0,0,0-7.37-5.37C389.87,418.35,384.51,419.5,377,425.15Z" transform="translate(-10.35 0.19)" fill="url(#4c58c6e8-5b1d-4aa6-a130-bd0400ddc68e)"/><path d="M408.46,383.09c1.92,10.44-.48,15.81-3.54,18.68a12.23,12.23,0,0,1-8.53,3.16,52.73,52.73,0,0,1,6-11.69,16,16,0,0,0-2.58,2.69,33.61,33.61,0,0,0-5.08,7.85,14.07,14.07,0,0,1-.1-9.48C395.91,390.47,399.45,386,408.46,383.09Z" transform="translate(-10.35 0.19)" fill="url(#e3166405-18ce-4b88-852f-8b51afcde9f4)"/><path d="M368.12,409c7.19,4.12,12.75,4.69,16.67,3.64a13.25,13.25,0,0,0,7.48-5.37,34.44,34.44,0,0,0-12.84-.09A21.24,21.24,0,0,1,383,406a26.31,26.31,0,0,1,9.3-.67,13.52,13.52,0,0,0-8-4.41C380,400.53,374.64,402.44,368.12,409Z" transform="translate(-10.35 0.19)" fill="url(#b699ac43-ebf0-42a3-b014-fc481d4253f1)"/><path d="M393.8,363.25a38.19,38.19,0,0,1,1.63,6.71,25.26,25.26,0,0,1,0,5.37,14,14,0,0,1-2.68,6.9,12.86,12.86,0,0,1-8.15,4.31,49.57,49.57,0,0,1,4.51-12.36,25.07,25.07,0,0,0-2.21,3,35.63,35.63,0,0,0-4,8.53,16.72,16.72,0,0,1-1.25-3.84,15.28,15.28,0,0,1-.09-5.55C382.3,372.17,385.27,367.18,393.8,363.25Z" transform="translate(-10.35 0.19)" fill="url(#863d613a-4710-4c2f-9f67-8f949dc4b709)"/><path d="M357.2,394.11a36.13,36.13,0,0,0,5.46,1.72,29.28,29.28,0,0,0,4.5.77,16,16,0,0,0,7.09-1.06,13.31,13.31,0,0,0,6.71-6.22,34.42,34.42,0,0,0-12.74,1.53,19,19,0,0,1,3.35-1.63,25.75,25.75,0,0,1,9-1.82,17.45,17.45,0,0,0-3.16-2.2,11.52,11.52,0,0,0-5.37-1.06C367.84,384.24,362.85,386.83,357.2,394.11Z" transform="translate(-10.35 0.19)" fill="url(#d1989efa-ef52-4587-80fc-4842605eeb39)"/><path d="M361.42,357.22a31.24,31.24,0,0,1,10.92,5.36,12,12,0,0,1,3.26,15.24,52.26,52.26,0,0,1-7.76-10.64,20.74,20.74,0,0,0,1.15,3.55,34.71,34.71,0,0,0,4.79,8,14.93,14.93,0,0,1-8.53-4.12C362.37,371.69,359.88,366.51,361.42,357.22Z" transform="translate(-10.35 0.19)" fill="url(#02256254-842c-4374-b1fb-1d839259c3d3)"/><path d="M126.47,379.54s-.86,1.15-2.58,3.36-4,5.36-6.81,9.58a170.27,170.27,0,0,0-9.19,15.81,184,184,0,0,0-9.3,21.84,156,156,0,0,0-6.8,27.12,172.3,172.3,0,0,0-2.11,31.14,164.58,164.58,0,0,0,15.24,65.54,160.2,160.2,0,0,0,17.53,29.51A163.13,163.13,0,0,0,145.06,608a165.28,165.28,0,0,0,50.31,30.66,184.71,184.71,0,0,0,22.7,6.9c3.45.77,6.71,1.34,9.68,1.91,3.07.39,5.85.87,8.34,1.15s4.79.48,6.71.58,3.64.19,5,.29v.09c-1.34,0-3.07,0-5-.09s-4.22-.29-6.81-.39-5.36-.57-8.43-1-6.32-1-9.77-1.63a166.48,166.48,0,0,1-23-6.42,163.28,163.28,0,0,1-51.26-30.38,161.65,161.65,0,0,1-23-24.72,160.28,160.28,0,0,1-29.12-63,168.7,168.7,0,0,1-4-33.53,164,164,0,0,1,9.77-58.74A161.67,161.67,0,0,1,106.93,408a159,159,0,0,1,9.68-15.62A108.35,108.35,0,0,1,123.7,383C125.52,380.69,126.47,379.54,126.47,379.54Z" transform="translate(-10.35 0.19)" fill="url(#900d10df-127c-4a28-a2f0-15fec584ba00)"/><path d="M125,379.54s-.86,1.15-2.59,3.36-4,5.36-6.8,9.58a170.11,170.11,0,0,0-9.2,15.81,185.68,185.68,0,0,0-9.3,21.84,156.93,156.93,0,0,0-6.8,27.12,172.3,172.3,0,0,0-2.11,31.14,164.58,164.58,0,0,0,15.24,65.54A160.2,160.2,0,0,0,121,583.44,163.19,163.19,0,0,0,143.63,608a165.24,165.24,0,0,0,50.3,30.66,184.3,184.3,0,0,0,22.71,6.9c3.45.77,6.7,1.34,9.67,1.91,3.07.39,5.85.87,8.34,1.15s4.79.48,6.71.58,3.64.19,5,.29c2.68.09,4.22.19,4.22.19h-4.22c-1.34,0-3.07,0-5-.1s-4.22-.28-6.8-.38-5.37-.58-8.44-1-6.32-1-9.77-1.63a165.47,165.47,0,0,1-23-6.42,163.43,163.43,0,0,1-74.25-55.09,160.29,160.29,0,0,1-29.13-63,170.28,170.28,0,0,1-4-33.54,164.15,164.15,0,0,1,9.78-58.73,161.14,161.14,0,0,1,9.77-21.75,159,159,0,0,1,9.68-15.62,106.79,106.79,0,0,1,7.09-9.39C124.18,380.69,125,379.54,125,379.54Z" transform="translate(-10.35 0.19)" fill="url(#a1b08f5c-e598-4aa8-89f2-93c84d0150f0)"/><path d="M374.83,379.54s.86,1.15,2.59,3.36,4,5.36,6.8,9.58a170.11,170.11,0,0,1,9.2,15.81,184.06,184.06,0,0,1,9.29,21.84,156,156,0,0,1,6.81,27.12,173.24,173.24,0,0,1,2.1,31.14,164.79,164.79,0,0,1-15.23,65.54,159.69,159.69,0,0,1-17.54,29.51A162.61,162.61,0,0,1,356.24,608a165.24,165.24,0,0,1-50.3,30.66,184.82,184.82,0,0,1-22.71,6.9c-3.45.77-6.71,1.34-9.68,1.91-3.06.39-5.84.87-8.33,1.15s-4.79.48-6.71.58-3.64.19-5,.29v.09c1.34,0,3.06,0,5-.09s4.22-.29,6.8-.39,5.37-.57,8.43-1,6.33-1,9.78-1.63a166.76,166.76,0,0,0,23-6.42A163.65,163.65,0,0,0,380.77,585a160.49,160.49,0,0,0,29.13-63,169.41,169.41,0,0,0,4-33.53,164,164,0,0,0-9.77-58.74A161.71,161.71,0,0,0,394.38,408a159,159,0,0,0-9.68-15.62,112.64,112.64,0,0,0-7.09-9.39C375.79,380.69,374.83,379.54,374.83,379.54Z" transform="translate(-10.35 0.19)" fill="url(#3d6f446b-ff2b-426d-8b51-42d74b111792)"/><path d="M376.27,379.54s.86,1.15,2.58,3.36,4,5.36,6.81,9.58a170.11,170.11,0,0,1,9.2,15.81,185.73,185.73,0,0,1,9.29,21.84,156,156,0,0,1,6.8,27.12,172.3,172.3,0,0,1,2.11,31.14,164.79,164.79,0,0,1-15.23,65.54,160.8,160.8,0,0,1-17.54,29.51A163.13,163.13,0,0,1,357.68,608a165.24,165.24,0,0,1-50.3,30.66,184.82,184.82,0,0,1-22.71,6.9c-3.45.77-6.71,1.34-9.68,1.91-3.07.39-5.85.87-8.34,1.15s-4.79.48-6.7.58-3.64.19-5,.29c-2.68.09-4.21.19-4.21.19H255c1.35,0,3.07,0,5-.1s4.21-.28,6.8-.38,5.36-.58,8.43-1,6.32-1,9.77-1.63a165.09,165.09,0,0,0,23-6.42,163.56,163.56,0,0,0,74.26-55.09,160.66,160.66,0,0,0,29.13-63,169.51,169.51,0,0,0,4-33.54,163.94,163.94,0,0,0-9.77-58.73,160.33,160.33,0,0,0-19.45-37.37,111,111,0,0,0-7.09-9.39C377.13,380.69,376.27,379.54,376.27,379.54Z" transform="translate(-10.35 0.19)" fill="url(#14a2a908-a451-461d-a7bd-df6c254ce5f7)"/></g><line x1="260.84" y1="0.27" x2="300.2" y2="0.18" fill="url(#10774e51-6c3e-4719-9e3b-c8bea4005f10)"/><polygon points="260.83 0.27 181.28 230.54 220.66 230.54 300.2 0.18 260.83 0.27" fill="url(#ff4e1937-b053-461c-aedb-3e305fdc18e8)"/><polygon points="220.66 230.54 259.95 230.54 339.56 0.09 300.2 0.18 220.66 230.54" fill="url(#b61804fb-6ad8-44ac-9f80-334356053b1a)"/><line x1="300.2" y1="0.18" x2="339.56" y2="0.09" fill="url(#65480f02-5f15-469c-9fd9-4893493a44b8)"/><polygon points="259.95 230.54 299.33 230.54 378.92 0 339.56 0.09 259.95 230.54" fill="url(#cf62699e-25da-40fa-bcfd-240311f22d83)"/><line x1="339.56" y1="0.09" x2="378.92" fill="url(#5a65f108-eabc-421a-88a7-2d3a8fed4847)"/><g id="8ffb035a-fca2-4fcd-ae50-2ffd4ce55e42" data-name="icon layer"><path d="M334.38,459.32,255.83,384a7.11,7.11,0,0,0-9.83,0l-78.56,75.33a7.11,7.11,0,0,0,4.91,12.23H181v75.3a7.1,7.1,0,0,0,7.1,7.1H313.76a7.1,7.1,0,0,0,7.1-7.1v-75.3h8.61a7.1,7.1,0,0,0,4.91-12.23ZM270,502.65c-9.91,7.35-16.53,9.93-19.11,10.74-2.57-.81-9.2-3.39-19.11-10.74-12.14-9-12.35-17.88-11.58-25.51.56-5.6,4.63-11.63,12.24-11.63,7.78,0,12.64,6,12.8,6.22a7.07,7.07,0,0,0,11.26,0c.2-.26,5.06-6.27,12.84-6.27,7.61,0,11.69,6,12.25,11.63.76,7.63.55,16.51-11.59,25.51Zm0,0" transform="translate(-10.35 0.19)" fill="url(#d90d7339-5914-45ff-9ccc-9b8a5e6ea1b2)"/></g></svg>