<svg id="632236b7-1fc0-4a02-b561-4b98e12e5126" data-name="Layer 1" xmlns="http://www.w3.org/2000/svg" xmlns:xlink="http://www.w3.org/1999/xlink" viewBox="0 0 481.22 725.53"><defs><clipPath id="67081f89-1e3f-4206-9d16-31d3b6773e7c"><polygon points="-113.16 9.7 -112.18 9.7 -113.16 10.67 -113.16 9.7" fill="none"/></clipPath><linearGradient id="dec4f514-f1a7-4e38-bb01-d61b5d149132" x1="102.51" y1="115.54" x2="221.27" y2="115.54" gradientUnits="userSpaceOnUse"><stop offset="0" stop-color="#ed9898"/><stop offset="1" stop-color="#be747b"/></linearGradient><linearGradient id="e65147af-c669-4ebe-a504-4adb4677adb3" x1="102.51" y1="0.58" x2="141.82" y2="0.58" gradientUnits="userSpaceOnUse"><stop offset="0" stop-color="#ed2526"/><stop offset="1" stop-color="#be1e2d"/></linearGradient><linearGradient id="9b3f8bde-4da7-4b6c-a4b2-3cc16c6d6545" x1="141.82" y1="0.49" x2="181.12" y2="0.49" gradientUnits="userSpaceOnUse"><stop offset="0" stop-color="#fff"/><stop offset="1" stop-color="#bbbdbf"/></linearGradient><linearGradient id="f5903df3-f7c3-432b-8009-13c6f372fd96" x1="141.82" y1="115.5" x2="260.56" y2="115.5" xlink:href="#9b3f8bde-4da7-4b6c-a4b2-3cc16c6d6545"/><linearGradient id="ac348762-3e26-44e4-b146-b83a76d44abf" x1="181.12" y1="115.45" x2="299.94" y2="115.45" gradientUnits="userSpaceOnUse"><stop offset="0" stop-color="#3c92a5"/><stop offset="1" stop-color="#28628f"/></linearGradient><linearGradient id="ffe09fd5-c48f-4e2e-80aa-3c9a6902c673" x1="181.12" y1="0.4" x2="220.42" y2="0.4" gradientUnits="userSpaceOnUse"><stop offset="0" stop-color="#3c56a5"/><stop offset="1" stop-color="#2b388f"/></linearGradient><linearGradient id="debc2eba-65d1-4cfb-85e9-8a572c7d90a4" x1="199.52" y1="585.12" x2="299.26" y2="410.94" gradientTransform="matrix(1, 0, 0, -1, 0, 750)" gradientUnits="userSpaceOnUse"><stop offset="0" stop-color="#ddbf24"/><stop offset="0.44" stop-color="#e0bf44"/><stop offset="1" stop-color="#815020"/></linearGradient><linearGradient id="01791359-3326-4a1b-9cc8-6fbcbfcea598" x1="196.24" y1="593.17" x2="302.33" y2="407.91" gradientTransform="matrix(1, 0, 0, -1, 0, 750)" gradientUnits="userSpaceOnUse"><stop offset="0" stop-color="#fbd73b"/><stop offset="0.37" stop-color="#fde66e"/><stop offset="0.53" stop-color="#fde558"/><stop offset="1" stop-color="#bd852c"/></linearGradient><linearGradient id="8ce4d8f5-7566-4c32-a0da-2f16c1ec379b" x1="213.07" y1="564.26" x2="283.87" y2="440.62" gradientTransform="matrix(1, 0, 0, -1, 0, 750)" gradientUnits="userSpaceOnUse"><stop offset="0" stop-color="#ffe36c"/><stop offset="0.37" stop-color="#ffed9e"/><stop offset="0.53" stop-color="#fdec88"/><stop offset="1" stop-color="#fdbe36"/></linearGradient><linearGradient id="f606ff80-1cdd-49b1-a8b7-78d5ea429451" x1="222.44" y1="553.05" x2="276.34" y2="458.93" xlink:href="#8ce4d8f5-7566-4c32-a0da-2f16c1ec379b"/><linearGradient id="def56a0e-4b68-49df-a585-5d6f9c499c6c" x1="113.52" y1="462.65" x2="398.94" y2="50.27" gradientTransform="matrix(1, 0, 0, -1, -9.74, 750.19)" xlink:href="#debc2eba-65d1-4cfb-85e9-8a572c7d90a4"/><linearGradient id="ea49e60d-6270-43bb-b901-29740a39f514" x1="136.25" y1="567.63" x2="282.48" y2="179.73" gradientTransform="matrix(1, 0, 0, -1, -9.74, 750.19)" xlink:href="#01791359-3326-4a1b-9cc8-6fbcbfcea598"/><linearGradient id="ddadcfa0-c3b0-43c4-8319-0540271fd410" x1="83.33" y1="431.47" x2="417.23" y2="97.57" xlink:href="#8ce4d8f5-7566-4c32-a0da-2f16c1ec379b"/><clipPath id="a238e2a8-14b6-4085-8d0e-b4a8b33e6fe4" transform="translate(-9.74 0.19)"><polygon points="-115.11 7.75 -116.08 7.75 -115.11 6.77 -115.11 7.75" fill="none" clip-path="url(#67081f89-1e3f-4206-9d16-31d3b6773e7c)"/></clipPath><linearGradient id="5dd62850-0d18-49b5-b022-8003bfcf5139" x1="67.49" y1="417.45" x2="255.77" y2="256.26" gradientTransform="matrix(1, 0, 0, -1, 0, 750)" gradientUnits="userSpaceOnUse"><stop offset="0"/><stop offset="1" stop-color="#f6f6f6"/></linearGradient><linearGradient id="d9d9fe07-63db-4e31-8e10-f93012233ca9" x1="67.49" y1="417.45" x2="255.77" y2="256.26" gradientTransform="matrix(1, 0, 0, -1, 0, 750)" gradientUnits="userSpaceOnUse"><stop offset="0" stop-color="#fff9bf"/><stop offset="1" stop-color="#ffe56f"/></linearGradient><linearGradient id="105fd798-7113-430f-a844-f34e2d86bd2d" x1="187.02" y1="472.96" x2="297.7" y2="109.44" gradientTransform="matrix(1, 0, 0, -1, -9.74, 750.19)" gradientUnits="userSpaceOnUse"><stop offset="0" stop-color="#ab7f20"/><stop offset="0.58" stop-color="#ffe660"/><stop offset="0.78" stop-color="#fde66e"/><stop offset="1" stop-color="#fbd73b"/></linearGradient><linearGradient id="55de5e47-4e0e-4f5f-9624-2ff350734327" x1="171.7" y1="513.22" x2="307.77" y2="83.7" gradientTransform="matrix(1, 0, 0, -1, -9.74, 750.19)" gradientUnits="userSpaceOnUse"><stop offset="0" stop-color="#efbf21"/><stop offset="0.31" stop-color="#f5d254"/><stop offset="0.56" stop-color="#e4ba3d"/><stop offset="1" stop-color="#b57129"/></linearGradient><linearGradient id="134c7041-ecbc-49b7-bd63-a450066309bc" x1="42.73" y1="265.01" x2="458.3" y2="265.01" gradientTransform="matrix(1, 0, 0, -1, 0, 750)" gradientUnits="userSpaceOnUse"><stop offset="0" stop-color="#ffe36c"/><stop offset="0.37" stop-color="#ffec9d"/><stop offset="0.53" stop-color="#fdec87"/><stop offset="1" stop-color="#fdbe34"/></linearGradient><linearGradient id="dedd330c-7e24-413f-9487-2bb9ad168848" x1="205.54" y1="84.9" x2="205.54" y2="103.59" gradientTransform="matrix(1, 0, 0, -1, 0, 750)" gradientUnits="userSpaceOnUse"><stop offset="0" stop-color="#855e25"/><stop offset="1" stop-color="#ae872e"/></linearGradient><linearGradient id="b6e63887-a522-485a-9876-24dd3acd8cb1" x1="212.54" y1="106.45" x2="212.54" y2="130.62" xlink:href="#dedd330c-7e24-413f-9487-2bb9ad168848"/><linearGradient id="1aadce68-c0e9-4878-8994-37fbae8f5c73" x1="183.29" y1="93.79" x2="183.29" y2="110.57" xlink:href="#dedd330c-7e24-413f-9487-2bb9ad168848"/><linearGradient id="40daaa05-fab5-4133-a14c-40fc44cd6ac2" x1="193.4" y1="112.97" x2="193.4" y2="137.22" xlink:href="#dedd330c-7e24-413f-9487-2bb9ad168848"/><linearGradient id="c4a041ec-08c8-4f55-aadd-fa47b80cf43b" x1="162.55" y1="105.06" x2="162.55" y2="120.36" xlink:href="#dedd330c-7e24-413f-9487-2bb9ad168848"/><linearGradient id="daff9d38-4ea2-40f1-ab50-f49367ee8897" x1="175.42" y1="122.11" x2="175.42" y2="146.22" xlink:href="#dedd330c-7e24-413f-9487-2bb9ad168848"/><linearGradient id="e178bcd6-2a99-46bd-aae7-17c7c3c0da93" x1="143.22" y1="118.73" x2="143.22" y2="133.05" xlink:href="#dedd330c-7e24-413f-9487-2bb9ad168848"/><linearGradient id="eb69849d-b9a8-4ad0-9fd8-0b103782d888" x1="158.81" y1="133.42" x2="158.81" y2="157.06" xlink:href="#dedd330c-7e24-413f-9487-2bb9ad168848"/><linearGradient id="2e38f1bf-5d63-4a33-be1c-07e03d3a7c69" x1="125.94" y1="134.35" x2="125.94" y2="148.14" xlink:href="#dedd330c-7e24-413f-9487-2bb9ad168848"/><linearGradient id="c64462a4-f27f-43c8-8972-175e5f3107e3" x1="143.73" y1="147.08" x2="143.73" y2="169.95" xlink:href="#dedd330c-7e24-413f-9487-2bb9ad168848"/><linearGradient id="44750fab-1a3b-48f3-aebf-419d89deba92" x1="110.76" y1="151.98" x2="110.76" y2="165.38" xlink:href="#dedd330c-7e24-413f-9487-2bb9ad168848"/><linearGradient id="ddf85b30-9a6b-4c7c-ad15-e457e9c61a80" x1="130.87" y1="162.68" x2="130.87" y2="184.29" xlink:href="#dedd330c-7e24-413f-9487-2bb9ad168848"/><linearGradient id="12d9ab47-a1c0-410c-8d3b-37a1f06eabce" x1="97.98" y1="171.25" x2="97.98" y2="184.69" xlink:href="#dedd330c-7e24-413f-9487-2bb9ad168848"/><linearGradient id="fe1afbc7-7835-4046-bec5-26366c374a53" x1="120.14" y1="180.05" x2="120.14" y2="200.13" xlink:href="#dedd330c-7e24-413f-9487-2bb9ad168848"/><linearGradient id="e0af46b4-e83c-4c14-b8ba-a4f3e90a50bc" x1="87.92" y1="191.94" x2="87.92" y2="205.52" xlink:href="#dedd330c-7e24-413f-9487-2bb9ad168848"/><linearGradient id="478c0f06-680d-485f-a211-beeeefe4c0d3" x1="111.73" y1="198.84" x2="111.73" y2="216.96" xlink:href="#dedd330c-7e24-413f-9487-2bb9ad168848"/><linearGradient id="8100ec0c-20fc-45c2-8260-9b82c5dff3be" x1="80.85" y1="213.68" x2="80.85" y2="227.71" xlink:href="#dedd330c-7e24-413f-9487-2bb9ad168848"/><linearGradient id="37439169-94af-4e04-b544-09377440d767" x1="105.7" y1="218.59" x2="105.7" y2="234.69" xlink:href="#dedd330c-7e24-413f-9487-2bb9ad168848"/><linearGradient id="26687cf6-1084-4a9e-8031-82c9622cd37e" x1="76.75" y1="236.11" x2="76.75" y2="250.77" xlink:href="#dedd330c-7e24-413f-9487-2bb9ad168848"/><linearGradient id="86c499c9-8bc9-47f1-b3a4-3ad7f3e92033" x1="102.08" y1="238.89" x2="102.08" y2="253.29" xlink:href="#dedd330c-7e24-413f-9487-2bb9ad168848"/><linearGradient id="a569eb2f-1aa0-413f-a262-4fa863665227" x1="75.62" y1="258.84" x2="75.62" y2="274.39" xlink:href="#dedd330c-7e24-413f-9487-2bb9ad168848"/><linearGradient id="ab87529b-f806-4fac-b713-a13e047eddf3" x1="101" y1="259.43" x2="101" y2="272.75" xlink:href="#dedd330c-7e24-413f-9487-2bb9ad168848"/><linearGradient id="5faff1e7-645e-4381-aa04-9486944e5a27" x1="77.53" y1="281.49" x2="77.53" y2="298.29" xlink:href="#dedd330c-7e24-413f-9487-2bb9ad168848"/><linearGradient id="4202d60e-7955-4c8b-901d-3b87461fdf06" x1="102.52" y1="279.85" x2="102.52" y2="292.45" xlink:href="#dedd330c-7e24-413f-9487-2bb9ad168848"/><linearGradient id="d69dbc50-3703-456d-8e84-e128e5c954e7" x1="82.43" y1="303.64" x2="82.43" y2="322.14" xlink:href="#dedd330c-7e24-413f-9487-2bb9ad168848"/><linearGradient id="ae5dfc30-3528-4283-a09a-f644bc2a3bb7" x1="106.71" y1="299.81" x2="106.71" y2="311.98" xlink:href="#dedd330c-7e24-413f-9487-2bb9ad168848"/><linearGradient id="d8615fa3-250c-4b01-b13b-6b651fc946cf" x1="90.37" y1="324.91" x2="90.37" y2="345.19" xlink:href="#dedd330c-7e24-413f-9487-2bb9ad168848"/><linearGradient id="b9c192aa-4244-4abb-b531-abe5bef0c7fc" x1="113.35" y1="318.9" x2="113.35" y2="330.96" xlink:href="#dedd330c-7e24-413f-9487-2bb9ad168848"/><linearGradient id="d3e92c3d-777a-41cd-9f17-4c0e70c35514" x1="101.06" y1="344.9" x2="101.06" y2="366.83" xlink:href="#dedd330c-7e24-413f-9487-2bb9ad168848"/><linearGradient id="516948f7-adeb-4703-9157-02183a13efb2" x1="122.38" y1="336.85" x2="122.38" y2="349.04" xlink:href="#dedd330c-7e24-413f-9487-2bb9ad168848"/><linearGradient id="ba749e39-5e99-4f75-800d-4ff4a82a1d0e" x1="114.07" y1="363.39" x2="114.07" y2="386.71" xlink:href="#dedd330c-7e24-413f-9487-2bb9ad168848"/><linearGradient id="433c3e67-17f6-49b0-8092-e0a5757aa9cd" x1="133.51" y1="353.27" x2="133.51" y2="365.83" xlink:href="#dedd330c-7e24-413f-9487-2bb9ad168848"/><linearGradient id="2d44fc30-b4d0-4452-9875-66d49901106d" x1="133.57" y1="371.15" x2="133.57" y2="392.77" xlink:href="#dedd330c-7e24-413f-9487-2bb9ad168848"/><linearGradient id="c1b89e00-2b56-482b-971a-6850adac2daa" x1="31.86" y1="394.03" x2="233.05" y2="41.95" gradientTransform="matrix(1, 0, 0, -1, 0, 750)" gradientUnits="userSpaceOnUse"><stop offset="0" stop-color="#ffe367"/><stop offset="0.53" stop-color="#fceb83"/><stop offset="1" stop-color="#fdbd30"/></linearGradient><linearGradient id="8c2c329f-a900-4bad-87aa-6e6bf14fa196" x1="47.28" y1="402.81" x2="248.46" y2="50.75" xlink:href="#c1b89e00-2b56-482b-971a-6850adac2daa"/><linearGradient id="cb721458-e574-4ca0-b759-0132bb9fdaf2" x1="18.58" y1="386.48" x2="219.78" y2="34.38" xlink:href="#c1b89e00-2b56-482b-971a-6850adac2daa"/><linearGradient id="e81809b7-2e92-40df-989a-a0a2a8d3d058" x1="35.99" y1="396.34" x2="237.15" y2="44.31" xlink:href="#c1b89e00-2b56-482b-971a-6850adac2daa"/><linearGradient id="14bcb47f-090c-422d-b5c4-e48a530328e4" x1="7.49" y1="380.19" x2="208.71" y2="28.05" xlink:href="#c1b89e00-2b56-482b-971a-6850adac2daa"/><linearGradient id="6d3e9a51-efdc-41ce-b2d2-a288a1cd4573" x1="26.6" y1="390.96" x2="227.74" y2="38.96" xlink:href="#c1b89e00-2b56-482b-971a-6850adac2daa"/><linearGradient id="aea9cea9-b8eb-4ea9-b818-2fb02624ab70" x1="-1.44" y1="375.12" x2="199.8" y2="22.95" xlink:href="#c1b89e00-2b56-482b-971a-6850adac2daa"/><linearGradient id="a097b193-a747-4575-a39b-c60dc40a2596" x1="19.34" y1="386.8" x2="220.47" y2="34.83" xlink:href="#c1b89e00-2b56-482b-971a-6850adac2daa"/><linearGradient id="368ecdac-0954-432f-9a59-32a539b4f8e1" x1="-7.58" y1="371.62" x2="193.67" y2="19.44" xlink:href="#c1b89e00-2b56-482b-971a-6850adac2daa"/><linearGradient id="dad3e109-7227-4409-9e0b-33fe3a1378ae" x1="13.91" y1="383.68" x2="215.02" y2="31.74" xlink:href="#c1b89e00-2b56-482b-971a-6850adac2daa"/><linearGradient id="2e2a3378-c7bb-44e6-9492-e2de47cf730f" x1="-11.29" y1="369.52" x2="189.97" y2="17.32" xlink:href="#c1b89e00-2b56-482b-971a-6850adac2daa"/><linearGradient id="1c83f37e-dd01-476b-959d-81809371976f" x1="10.73" y1="381.92" x2="211.87" y2="29.93" xlink:href="#c1b89e00-2b56-482b-971a-6850adac2daa"/><linearGradient id="0aae173f-f804-4bec-bcd7-98999eefb20f" x1="-12.41" y1="368.89" x2="188.86" y2="16.67" xlink:href="#c1b89e00-2b56-482b-971a-6850adac2daa"/><linearGradient id="c0ebd165-2dcb-4c3f-90af-cdbc42468ab2" x1="9.75" y1="381.4" x2="210.91" y2="29.37" xlink:href="#c1b89e00-2b56-482b-971a-6850adac2daa"/><linearGradient id="7919a41f-b422-427c-b0d7-b7757bd99104" x1="-10.87" y1="369.78" x2="190.41" y2="17.53" xlink:href="#c1b89e00-2b56-482b-971a-6850adac2daa"/><linearGradient id="35b1b654-b4c1-431f-b42b-9c91a202ecc8" x1="10.98" y1="382.13" x2="212.16" y2="30.06" xlink:href="#c1b89e00-2b56-482b-971a-6850adac2daa"/><linearGradient id="bfbb6812-715f-4afe-97d3-6b004eb20c60" x1="-6.75" y1="372.13" x2="194.54" y2="19.88" xlink:href="#c1b89e00-2b56-482b-971a-6850adac2daa"/><linearGradient id="dfdb95af-1859-4911-8b41-270477ec97bd" x1="14.51" y1="384.17" x2="215.71" y2="32.07" xlink:href="#c1b89e00-2b56-482b-971a-6850adac2daa"/><linearGradient id="95b5f077-3f5f-4cba-b9c1-eec0fdc62034" x1="0.16" y1="376.06" x2="201.45" y2="23.8" xlink:href="#c1b89e00-2b56-482b-971a-6850adac2daa"/><linearGradient id="0b5c5dde-e630-4410-9d5a-dab9c4302c79" x1="20.09" y1="387.37" x2="221.31" y2="35.25" xlink:href="#c1b89e00-2b56-482b-971a-6850adac2daa"/><linearGradient id="086ceba3-7dac-4f78-a62e-a0d57b49e391" x1="9.26" y1="381.24" x2="210.54" y2="29" xlink:href="#c1b89e00-2b56-482b-971a-6850adac2daa"/><linearGradient id="df7a2f75-0932-48a9-9d00-80e54c587bf7" x1="27.94" y1="391.86" x2="229.17" y2="39.71" xlink:href="#c1b89e00-2b56-482b-971a-6850adac2daa"/><linearGradient id="8908c157-ed39-4e5d-a55f-8a5bec37ab4d" x1="20.54" y1="387.66" x2="221.8" y2="35.45" xlink:href="#c1b89e00-2b56-482b-971a-6850adac2daa"/><linearGradient id="4033f756-d809-4e02-a200-1c604cfb5fba" x1="37.47" y1="397.31" x2="238.72" y2="45.13" xlink:href="#c1b89e00-2b56-482b-971a-6850adac2daa"/><linearGradient id="22d68f12-cfcb-4924-bdf0-ebf20df4b016" x1="33.8" y1="395.21" x2="235.05" y2="43.04" xlink:href="#c1b89e00-2b56-482b-971a-6850adac2daa"/><linearGradient id="7b4662ca-ce4f-4bee-949c-fbe9a97a91dc" x1="48.94" y1="403.87" x2="250.2" y2="51.65" xlink:href="#c1b89e00-2b56-482b-971a-6850adac2daa"/><linearGradient id="1f1d8d0c-2fd2-4af2-83c5-ed72ef4c973b" x1="48.98" y1="403.86" x2="250.2" y2="51.71" xlink:href="#c1b89e00-2b56-482b-971a-6850adac2daa"/><linearGradient id="4aac200e-f829-4ba8-930e-10803c955430" x1="61.93" y1="411.29" x2="263.22" y2="59.03" xlink:href="#c1b89e00-2b56-482b-971a-6850adac2daa"/><linearGradient id="b8b5f573-92fc-4c8f-9cf2-16ce3334ef6b" x1="65.7" y1="413.4" x2="266.91" y2="61.27" xlink:href="#c1b89e00-2b56-482b-971a-6850adac2daa"/><linearGradient id="7b62d3b5-39a9-4d2a-bf2c-b5e207f6a6f7" x1="76.28" y1="419.48" x2="277.59" y2="67.18" xlink:href="#c1b89e00-2b56-482b-971a-6850adac2daa"/><linearGradient id="105c279b-cb01-4a06-8c91-2ad01806f817" x1="83.7" y1="423.67" x2="284.91" y2="71.55" xlink:href="#c1b89e00-2b56-482b-971a-6850adac2daa"/><linearGradient id="44464c15-11ed-487d-985d-20489e896277" x1="91.78" y1="428.32" x2="293.08" y2="76.04" xlink:href="#c1b89e00-2b56-482b-971a-6850adac2daa"/><linearGradient id="8b42cf0d-77ed-418a-a99d-ed57b62cec22" x1="102.67" y1="434.48" x2="303.83" y2="82.45" xlink:href="#c1b89e00-2b56-482b-971a-6850adac2daa"/><linearGradient id="06b84baf-f2b0-4845-9fff-f1a2be3376cf" x1="162.63" y1="84.9" x2="162.63" y2="103.59" gradientTransform="translate(457.79 750) rotate(180)" xlink:href="#dedd330c-7e24-413f-9487-2bb9ad168848"/><linearGradient id="c6fc0da2-51c8-438c-8ff8-95a7b6c37c7b" x1="169.54" y1="106.45" x2="169.54" y2="130.62" gradientTransform="translate(457.79 750) rotate(180)" xlink:href="#dedd330c-7e24-413f-9487-2bb9ad168848"/><linearGradient id="9b6925ac-55e5-4467-9e13-0a5289ea9c6e" x1="140.38" y1="93.79" x2="140.38" y2="110.57" gradientTransform="translate(457.79 750) rotate(180)" xlink:href="#dedd330c-7e24-413f-9487-2bb9ad168848"/><linearGradient id="6a18d550-1ef1-4554-85a0-b49a0a0b03df" x1="150.49" y1="112.97" x2="150.49" y2="137.22" gradientTransform="translate(457.79 750) rotate(180)" xlink:href="#dedd330c-7e24-413f-9487-2bb9ad168848"/><linearGradient id="4b4a022f-8221-41ae-82e2-3f8a9ee94d4b" x1="119.54" y1="105.06" x2="119.54" y2="120.36" gradientTransform="translate(457.79 750) rotate(180)" xlink:href="#dedd330c-7e24-413f-9487-2bb9ad168848"/><linearGradient id="9e640845-518c-49ba-8764-63adf839d3c7" x1="132.5" y1="122.11" x2="132.5" y2="146.22" gradientTransform="translate(457.79 750) rotate(180)" xlink:href="#dedd330c-7e24-413f-9487-2bb9ad168848"/><linearGradient id="217e396d-85b2-4fc6-82d9-3d2cfdf4c27a" x1="100.31" y1="118.73" x2="100.31" y2="133.05" gradientTransform="translate(457.79 750) rotate(180)" xlink:href="#dedd330c-7e24-413f-9487-2bb9ad168848"/><linearGradient id="4c907e03-5424-4ac6-a331-c90d173d1720" x1="115.81" y1="133.42" x2="115.81" y2="157.06" gradientTransform="translate(457.79 750) rotate(180)" xlink:href="#dedd330c-7e24-413f-9487-2bb9ad168848"/><linearGradient id="f960542e-1edd-4607-9cab-a4e171677307" x1="83.03" y1="134.35" x2="83.03" y2="148.14" gradientTransform="translate(457.79 750) rotate(180)" xlink:href="#dedd330c-7e24-413f-9487-2bb9ad168848"/><linearGradient id="f336a922-80f7-49dd-9087-f45c18734cef" x1="100.82" y1="147.08" x2="100.82" y2="169.95" gradientTransform="translate(457.79 750) rotate(180)" xlink:href="#dedd330c-7e24-413f-9487-2bb9ad168848"/><linearGradient id="12c4a154-24eb-4e3e-be3d-3045279c4850" x1="67.76" y1="151.98" x2="67.76" y2="165.38" gradientTransform="translate(457.79 750) rotate(180)" xlink:href="#dedd330c-7e24-413f-9487-2bb9ad168848"/><linearGradient id="ce8ddf7b-9dc6-49a1-9c20-d46e5b3a65c8" x1="87.86" y1="162.68" x2="87.86" y2="184.29" gradientTransform="translate(457.79 750) rotate(180)" xlink:href="#dedd330c-7e24-413f-9487-2bb9ad168848"/><linearGradient id="7d2d7909-8f6b-4641-949c-93affb5bb1ef" x1="55.07" y1="171.25" x2="55.07" y2="184.69" gradientTransform="translate(457.79 750) rotate(180)" xlink:href="#dedd330c-7e24-413f-9487-2bb9ad168848"/><linearGradient id="4c081d73-9a90-4ecd-ad8e-aa7a47657055" x1="77.13" y1="180.05" x2="77.13" y2="200.13" gradientTransform="translate(457.79 750) rotate(180)" xlink:href="#dedd330c-7e24-413f-9487-2bb9ad168848"/><linearGradient id="3ce1c706-503f-479c-ba78-521a1f69c585" x1="45.01" y1="191.94" x2="45.01" y2="205.52" gradientTransform="translate(457.79 750) rotate(180)" xlink:href="#dedd330c-7e24-413f-9487-2bb9ad168848"/><linearGradient id="0bd9f9ec-2725-48e9-921e-7b03d26b8def" x1="68.82" y1="198.84" x2="68.82" y2="216.96" gradientTransform="translate(457.79 750) rotate(180)" xlink:href="#dedd330c-7e24-413f-9487-2bb9ad168848"/><linearGradient id="d3d3232c-5595-42a7-8376-b35008b66818" x1="37.94" y1="213.68" x2="37.94" y2="227.71" gradientTransform="translate(457.79 750) rotate(180)" xlink:href="#dedd330c-7e24-413f-9487-2bb9ad168848"/><linearGradient id="4a36c528-e727-43ee-a13e-fc9dc1e70ef1" x1="62.79" y1="218.59" x2="62.79" y2="234.69" gradientTransform="translate(457.79 750) rotate(180)" xlink:href="#dedd330c-7e24-413f-9487-2bb9ad168848"/><linearGradient id="28915beb-b447-4d40-be6d-1f7dd99999fc" x1="33.84" y1="236.11" x2="33.84" y2="250.77" gradientTransform="translate(457.79 750) rotate(180)" xlink:href="#dedd330c-7e24-413f-9487-2bb9ad168848"/><linearGradient id="a7357174-cf73-49df-b47a-3a9605bb9c0b" x1="59.17" y1="238.89" x2="59.17" y2="253.29" gradientTransform="translate(457.79 750) rotate(180)" xlink:href="#dedd330c-7e24-413f-9487-2bb9ad168848"/><linearGradient id="7fc2e9d4-aceb-43d3-a1e1-efbe0a420632" x1="32.71" y1="258.84" x2="32.71" y2="274.39" gradientTransform="translate(457.79 750) rotate(180)" xlink:href="#dedd330c-7e24-413f-9487-2bb9ad168848"/><linearGradient id="8b0ed779-21ce-46e5-9ee4-11a9b28f3cb5" x1="58.09" y1="259.43" x2="58.09" y2="272.75" gradientTransform="translate(457.79 750) rotate(180)" xlink:href="#dedd330c-7e24-413f-9487-2bb9ad168848"/><linearGradient id="237a1758-25e0-4cff-b2ac-2a84f0414967" x1="34.52" y1="281.49" x2="34.52" y2="298.29" gradientTransform="translate(457.79 750) rotate(180)" xlink:href="#dedd330c-7e24-413f-9487-2bb9ad168848"/><linearGradient id="28216df4-4c08-44e4-9ebe-4a59096b2e79" x1="59.61" y1="279.85" x2="59.61" y2="292.45" gradientTransform="translate(457.79 750) rotate(180)" xlink:href="#dedd330c-7e24-413f-9487-2bb9ad168848"/><linearGradient id="d096d488-63f9-437d-b6b9-e2b618eb6607" x1="39.43" y1="303.64" x2="39.43" y2="322.14" gradientTransform="translate(457.79 750) rotate(180)" xlink:href="#dedd330c-7e24-413f-9487-2bb9ad168848"/><linearGradient id="618ec9e6-e9f9-4907-b8db-945967719b2b" x1="63.8" y1="299.81" x2="63.8" y2="311.98" gradientTransform="translate(457.79 750) rotate(180)" xlink:href="#dedd330c-7e24-413f-9487-2bb9ad168848"/><linearGradient id="b0d9a720-173c-4d21-8bf7-b5eae27261a6" x1="47.46" y1="324.91" x2="47.46" y2="345.19" gradientTransform="translate(457.79 750) rotate(180)" xlink:href="#dedd330c-7e24-413f-9487-2bb9ad168848"/><linearGradient id="b23756f0-c0de-4d2a-a8e4-b560c1f9994d" x1="70.44" y1="318.9" x2="70.44" y2="330.96" gradientTransform="translate(457.79 750) rotate(180)" xlink:href="#dedd330c-7e24-413f-9487-2bb9ad168848"/><linearGradient id="09b793aa-d7ff-4d58-9e73-de5c28c92fe3" x1="58.05" y1="344.9" x2="58.05" y2="366.83" gradientTransform="translate(457.79 750) rotate(180)" xlink:href="#dedd330c-7e24-413f-9487-2bb9ad168848"/><linearGradient id="cc849b43-d404-48cd-b9fa-6309de9d7351" x1="79.37" y1="336.85" x2="79.37" y2="349.04" gradientTransform="translate(457.79 750) rotate(180)" xlink:href="#dedd330c-7e24-413f-9487-2bb9ad168848"/><linearGradient id="3ecd2a2d-8870-4512-a06b-0e43bfb21680" x1="71.16" y1="363.39" x2="71.16" y2="386.71" gradientTransform="translate(457.79 750) rotate(180)" xlink:href="#dedd330c-7e24-413f-9487-2bb9ad168848"/><linearGradient id="b7bdcb5b-522d-462f-81c3-972c98e7e598" x1="90.6" y1="353.27" x2="90.6" y2="365.83" gradientTransform="translate(457.79 750) rotate(180)" xlink:href="#dedd330c-7e24-413f-9487-2bb9ad168848"/><linearGradient id="b44c6f0d-5bef-484f-8811-dbcd71b3b131" x1="90.66" y1="371.15" x2="90.66" y2="392.77" gradientTransform="translate(457.79 750) rotate(180)" xlink:href="#dedd330c-7e24-413f-9487-2bb9ad168848"/><linearGradient id="75776305-9bf0-4164-99b2-a6d9b4c094e1" x1="-11.06" y1="394.04" x2="190.13" y2="41.96" gradientTransform="translate(457.79 750) rotate(180)" xlink:href="#c1b89e00-2b56-482b-971a-6850adac2daa"/><linearGradient id="55f70be8-dd02-4dc1-8aa3-fa693578f004" x1="4.37" y1="402.82" x2="205.54" y2="50.76" gradientTransform="translate(457.79 750) rotate(180)" xlink:href="#c1b89e00-2b56-482b-971a-6850adac2daa"/><linearGradient id="a0317959-9eb6-4caa-bf32-49c8d3c05658" x1="-24.41" y1="386.45" x2="176.8" y2="34.34" gradientTransform="translate(457.79 750) rotate(180)" xlink:href="#c1b89e00-2b56-482b-971a-6850adac2daa"/><linearGradient id="2bc6fe6a-b68b-4623-ba62-1cb6e5c37139" x1="-6.93" y1="396.35" x2="194.24" y2="44.32" gradientTransform="translate(457.79 750) rotate(180)" xlink:href="#c1b89e00-2b56-482b-971a-6850adac2daa"/><linearGradient id="25261383-b903-40e6-a857-4185040e75aa" x1="-35.43" y1="380.19" x2="165.79" y2="28.06" gradientTransform="translate(457.79 750) rotate(180)" xlink:href="#c1b89e00-2b56-482b-971a-6850adac2daa"/><linearGradient id="02daaccc-afaf-4dbd-b10a-ee5bdec38956" x1="-16.31" y1="390.96" x2="184.83" y2="38.97" gradientTransform="translate(457.79 750) rotate(180)" xlink:href="#c1b89e00-2b56-482b-971a-6850adac2daa"/><linearGradient id="f1e228e3-9fd8-47ea-b557-e1fd724a31b7" x1="-44.35" y1="375.12" x2="156.89" y2="22.96" gradientTransform="translate(457.79 750) rotate(180)" xlink:href="#c1b89e00-2b56-482b-971a-6850adac2daa"/><linearGradient id="5efc62d8-4f3a-4b69-a1f4-400bec4e0296" x1="-23.57" y1="386.81" x2="177.56" y2="34.84" gradientTransform="translate(457.79 750) rotate(180)" xlink:href="#c1b89e00-2b56-482b-971a-6850adac2daa"/><linearGradient id="cc6e7f0b-32fc-4260-a790-06bff0469e2e" x1="-50.49" y1="371.63" x2="150.76" y2="19.45" gradientTransform="translate(457.79 750) rotate(180)" xlink:href="#c1b89e00-2b56-482b-971a-6850adac2daa"/><linearGradient id="b71e4fdc-9d10-448f-ba05-0e2509d2c3d2" x1="-29" y1="383.69" x2="172.11" y2="31.75" gradientTransform="translate(457.79 750) rotate(180)" xlink:href="#c1b89e00-2b56-482b-971a-6850adac2daa"/><linearGradient id="046419b2-cd26-4efa-a921-3110d80e60c3" x1="-54.21" y1="369.53" x2="147.05" y2="17.32" gradientTransform="translate(457.79 750) rotate(180)" xlink:href="#c1b89e00-2b56-482b-971a-6850adac2daa"/><linearGradient id="95ecbcb7-0ab2-4691-aa8f-cb665a20c068" x1="-32.18" y1="381.93" x2="168.95" y2="29.94" gradientTransform="translate(457.79 750) rotate(180)" xlink:href="#c1b89e00-2b56-482b-971a-6850adac2daa"/><linearGradient id="06c4a9b3-062e-4b20-a0be-e896a57098c8" x1="-55.4" y1="368.86" x2="145.87" y2="16.63" gradientTransform="translate(457.79 750) rotate(180)" xlink:href="#c1b89e00-2b56-482b-971a-6850adac2daa"/><linearGradient id="8547e3e3-82b4-47a2-abde-f69cb0a51615" x1="-33.16" y1="381.41" x2="168" y2="29.38" gradientTransform="translate(457.79 750) rotate(180)" xlink:href="#c1b89e00-2b56-482b-971a-6850adac2daa"/><linearGradient id="30ca2827-2849-486b-8e6a-24e34ab05922" x1="-53.79" y1="369.79" x2="147.5" y2="17.53" gradientTransform="translate(457.79 750) rotate(180)" xlink:href="#c1b89e00-2b56-482b-971a-6850adac2daa"/><linearGradient id="e56ca9f9-8e9b-47c4-9bfb-257ca2e338a2" x1="-31.94" y1="382.14" x2="169.24" y2="30.07" gradientTransform="translate(457.79 750) rotate(180)" xlink:href="#c1b89e00-2b56-482b-971a-6850adac2daa"/><linearGradient id="167a0385-191e-4f53-934a-ee95a5e3c9aa" x1="-49.66" y1="372.14" x2="151.63" y2="19.89" gradientTransform="translate(457.79 750) rotate(180)" xlink:href="#c1b89e00-2b56-482b-971a-6850adac2daa"/><linearGradient id="b017b812-43ec-483c-86d1-c5adef492634" x1="-28.4" y1="384.18" x2="172.8" y2="32.08" gradientTransform="translate(457.79 750) rotate(180)" xlink:href="#c1b89e00-2b56-482b-971a-6850adac2daa"/><linearGradient id="131e55e0-170d-4b49-bab9-d791b282fa12" x1="-42.75" y1="376.07" x2="158.53" y2="23.81" gradientTransform="translate(457.79 750) rotate(180)" xlink:href="#c1b89e00-2b56-482b-971a-6850adac2daa"/><linearGradient id="5e242a7a-176f-4e3b-849d-45f96205fd38" x1="-22.82" y1="387.38" x2="178.39" y2="35.25" gradientTransform="translate(457.79 750) rotate(180)" xlink:href="#c1b89e00-2b56-482b-971a-6850adac2daa"/><linearGradient id="50ef0524-652c-45c4-bc92-b8f555483d04" x1="-33.65" y1="381.24" x2="167.63" y2="29.01" gradientTransform="translate(457.79 750) rotate(180)" xlink:href="#c1b89e00-2b56-482b-971a-6850adac2daa"/><linearGradient id="2ab952ba-4e3a-4a12-ad94-4ba3f47b15c4" x1="-14.97" y1="391.87" x2="186.26" y2="39.72" gradientTransform="translate(457.79 750) rotate(180)" xlink:href="#c1b89e00-2b56-482b-971a-6850adac2daa"/><linearGradient id="46002eab-015c-477b-aaab-e951aee61882" x1="-22.37" y1="387.67" x2="178.89" y2="35.46" gradientTransform="translate(457.79 750) rotate(180)" xlink:href="#c1b89e00-2b56-482b-971a-6850adac2daa"/><linearGradient id="102a6e8c-0030-4fc3-b712-5aeeb2f7d84c" x1="-5.45" y1="397.32" x2="195.8" y2="45.13" gradientTransform="translate(457.79 750) rotate(180)" xlink:href="#c1b89e00-2b56-482b-971a-6850adac2daa"/><linearGradient id="74841e34-19e0-4ad2-a03a-809d552e306a" x1="-9.11" y1="395.22" x2="192.13" y2="43.04" gradientTransform="translate(457.79 750) rotate(180)" xlink:href="#c1b89e00-2b56-482b-971a-6850adac2daa"/><linearGradient id="128bd010-a1d9-4cf0-9b28-8a0a51b2daa1" x1="6.02" y1="403.87" x2="207.29" y2="51.66" gradientTransform="translate(457.79 750) rotate(180)" xlink:href="#c1b89e00-2b56-482b-971a-6850adac2daa"/><linearGradient id="b462bc48-d54a-4f68-b2f9-39d3c85dcd89" x1="6.06" y1="403.87" x2="207.29" y2="51.72" gradientTransform="translate(457.79 750) rotate(180)" xlink:href="#c1b89e00-2b56-482b-971a-6850adac2daa"/><linearGradient id="d995a31d-f8fc-4ac8-a5b7-f0ab19bc99d5" x1="18.94" y1="411.26" x2="220.24" y2="58.99" gradientTransform="translate(457.79 750) rotate(180)" xlink:href="#c1b89e00-2b56-482b-971a-6850adac2daa"/><linearGradient id="ae7773e4-248e-43d6-855a-79ce9c6b9e18" x1="22.78" y1="413.4" x2="224" y2="61.28" gradientTransform="translate(457.79 750) rotate(180)" xlink:href="#c1b89e00-2b56-482b-971a-6850adac2daa"/><linearGradient id="90f229be-f898-4482-9a8e-0e812f7cc006" x1="33.36" y1="419.49" x2="234.68" y2="67.19" gradientTransform="translate(457.79 750) rotate(180)" xlink:href="#c1b89e00-2b56-482b-971a-6850adac2daa"/><linearGradient id="5283b6ec-e85e-4dc9-9049-e200a813b39a" x1="40.79" y1="423.68" x2="242" y2="71.56" gradientTransform="translate(457.79 750) rotate(180)" xlink:href="#c1b89e00-2b56-482b-971a-6850adac2daa"/><linearGradient id="9105cdb4-71c5-4ea4-aa5e-1315e6cd5d07" x1="48.79" y1="428.29" x2="250.1" y2="76" gradientTransform="translate(457.79 750) rotate(180)" xlink:href="#c1b89e00-2b56-482b-971a-6850adac2daa"/><linearGradient id="da128dd1-cdc0-45d2-8e9a-0bebaa294562" x1="59.76" y1="434.49" x2="260.92" y2="82.45" gradientTransform="translate(457.79 750) rotate(180)" xlink:href="#c1b89e00-2b56-482b-971a-6850adac2daa"/><linearGradient id="a86c2dd9-adc9-4e4b-bf10-82b3bc6985b6" x1="167.16" y1="99.11" x2="167.16" y2="371.2" xlink:href="#dedd330c-7e24-413f-9487-2bb9ad168848"/><linearGradient id="8466e203-d23f-457c-b4d0-5c17328c75ba" x1="167.9" y1="99.08" x2="167.9" y2="371.2" gradientTransform="matrix(1, 0, 0, -1, 0, 750)" gradientUnits="userSpaceOnUse"><stop offset="0" stop-color="#fdbd30"/><stop offset="0.47" stop-color="#fceb83"/><stop offset="1" stop-color="#ffe367"/></linearGradient><linearGradient id="f1c8c590-b233-49f9-853d-78d336e99329" x1="99.66" y1="99.11" x2="99.66" y2="371.2" gradientTransform="translate(433.19 750) rotate(180)" xlink:href="#dedd330c-7e24-413f-9487-2bb9ad168848"/><linearGradient id="52b0ba46-c351-483a-8165-e8fb69f6b348" x1="100.29" y1="99.08" x2="100.29" y2="371.2" gradientTransform="translate(433.19 750) rotate(180)" xlink:href="#8466e203-d23f-457c-b4d0-5c17328c75ba"/><linearGradient id="71307571-1dae-4d2e-b4c1-0c6f7b032ef5" x1="261.44" y1="0.22" x2="300.81" y2="0.22" xlink:href="#e65147af-c669-4ebe-a504-4adb4677adb3"/><linearGradient id="662c17e3-4fee-44ce-ad55-830fdd18951c" x1="181.89" y1="115.36" x2="300.81" y2="115.36" xlink:href="#dec4f514-f1a7-4e38-bb01-d61b5d149132"/><linearGradient id="6bbf1583-0b96-4c7f-9793-2aa2b5d61f97" x1="221.27" y1="115.32" x2="340.17" y2="115.32" xlink:href="#9b3f8bde-4da7-4b6c-a4b2-3cc16c6d6545"/><linearGradient id="31c633cf-30f9-4b4a-a62d-18712f200e9f" x1="300.81" y1="0.13" x2="340.17" y2="0.13" xlink:href="#9b3f8bde-4da7-4b6c-a4b2-3cc16c6d6545"/><linearGradient id="124130fc-9a74-47ee-acdd-bf7c072f19b7" x1="260.56" y1="115.27" x2="379.53" y2="115.27" xlink:href="#ac348762-3e26-44e4-b146-b83a76d44abf"/><linearGradient id="335ad8e0-cf77-49ef-8b7f-7761409c4748" x1="340.17" y1="0.04" x2="379.53" y2="0.04" xlink:href="#ffe09fd5-c48f-4e2e-80aa-3c9a6902c673"/><linearGradient id="faaa31f6-691f-4233-a5e6-97ed8fc51b50" x1="184.06" y1="570.72" x2="229.57" y2="570.72" gradientTransform="matrix(1, 0, 0, 1, 0, 0)" xlink:href="#55de5e47-4e0e-4f5f-9624-2ff350734327"/><linearGradient id="884116aa-b702-4913-8792-f083f8505592" x1="265.98" y1="570.72" x2="311.49" y2="570.72" gradientTransform="matrix(1, 0, 0, 1, 0, 0)" xlink:href="#55de5e47-4e0e-4f5f-9624-2ff350734327"/><linearGradient id="c7b3ade1-6af6-49c4-a77a-ea82ef1a9ac8" x1="165.22" y1="496.57" x2="310.86" y2="496.57" gradientTransform="matrix(1, 0, 0, 1, 0, 0)" xlink:href="#55de5e47-4e0e-4f5f-9624-2ff350734327"/><linearGradient id="bdb832d9-f04e-4b85-b872-50213c2d2f33" x1="189.5" y1="499.6" x2="286.59" y2="499.6" gradientTransform="matrix(1, 0, 0, 1, 0, 0)" xlink:href="#55de5e47-4e0e-4f5f-9624-2ff350734327"/><linearGradient id="3a1dd8c4-5125-4fea-af9b-4f0eade21e36" x1="153.8" y1="446.55" x2="341.76" y2="446.55" gradientTransform="matrix(1, 0, 0, 1, 0, 0)" xlink:href="#55de5e47-4e0e-4f5f-9624-2ff350734327"/><linearGradient id="588bf9ce-a130-4c70-beb1-d08431b5c7e5" x1="160.42" y1="445.55" x2="335.14" y2="445.55" gradientTransform="matrix(1, 0, 0, 1, 0, 0)" xlink:href="#55de5e47-4e0e-4f5f-9624-2ff350734327"/><linearGradient id="0f5e6ec1-5138-4c62-9609-8fb2c25e3d73" x1="168.26" y1="452.57" x2="228.94" y2="452.57" gradientTransform="matrix(1, 0, 0, 1, 0, 0)" xlink:href="#01791359-3326-4a1b-9cc8-6fbcbfcea598"/><linearGradient id="db7a101f-7bce-41cc-8627-fbf7ea55904b" x1="177.36" y1="452.57" x2="219.84" y2="452.57" gradientTransform="matrix(1, 0, 0, 1, 0, 0)" xlink:href="#55de5e47-4e0e-4f5f-9624-2ff350734327"/><linearGradient id="c1df9e02-4ce4-4628-ba52-83c0119fef35" x1="239.45" y1="486.57" x2="256.1" y2="486.57" gradientTransform="matrix(1, 0, 0, 1, 0, 0)" xlink:href="#01791359-3326-4a1b-9cc8-6fbcbfcea598"/><linearGradient id="f0a9d04a-0732-479e-a694-8d67dd66ae51" x1="196.2" y1="452.39" x2="220.47" y2="452.39" gradientTransform="matrix(1, 0, 0, 1, 0, 0)" xlink:href="#55de5e47-4e0e-4f5f-9624-2ff350734327"/><linearGradient id="0081138e-0f91-4b4d-8d3d-514f795dfa03" x1="195.56" y1="448.02" x2="204.66" y2="448.02" gradientTransform="matrix(1, 0, 0, 1, 0, 0)" xlink:href="#55de5e47-4e0e-4f5f-9624-2ff350734327"/><linearGradient id="0a1175d5-d5a6-4a2d-85c8-ded12a25d2f0" x1="247.14" y1="452.57" x2="307.83" y2="452.57" gradientTransform="matrix(1, 0, 0, 1, 0, 0)" xlink:href="#01791359-3326-4a1b-9cc8-6fbcbfcea598"/><linearGradient id="58af70dc-c85d-4d78-b872-c9e5b9c0cbd0" x1="256.25" y1="452.57" x2="298.72" y2="452.57" gradientTransform="matrix(1, 0, 0, 1, 0, 0)" xlink:href="#55de5e47-4e0e-4f5f-9624-2ff350734327"/><linearGradient id="20f8fc35-8b10-4e21-a099-daa6561ccf11" x1="275.08" y1="452.39" x2="299.36" y2="452.39" gradientTransform="matrix(1, 0, 0, 1, 0, 0)" xlink:href="#55de5e47-4e0e-4f5f-9624-2ff350734327"/><linearGradient id="af5d1db0-5285-4e1e-952a-b0c045b6ea1d" x1="274.45" y1="448.02" x2="283.55" y2="448.02" gradientTransform="matrix(1, 0, 0, 1, 0, 0)" xlink:href="#55de5e47-4e0e-4f5f-9624-2ff350734327"/></defs><title>owl_gold</title><polygon points="102.51 0.63 181.89 230.54 221.27 230.54 141.82 0.54 102.51 0.63" fill="url(#dec4f514-f1a7-4e38-bb01-d61b5d149132)"/><line x1="102.51" y1="0.63" x2="141.82" y2="0.54" fill="url(#e65147af-c669-4ebe-a504-4adb4677adb3)"/><line x1="141.82" y1="0.54" x2="181.12" y2="0.45" fill="url(#9b3f8bde-4da7-4b6c-a4b2-3cc16c6d6545)"/><polygon points="141.82 0.54 221.27 230.54 260.56 230.54 181.12 0.45 141.82 0.54" fill="url(#f5903df3-f7c3-432b-8009-13c6f372fd96)"/><polygon points="181.12 0.45 260.56 230.54 299.94 230.54 220.42 0.36 181.12 0.45" fill="url(#ac348762-3e26-44e4-b146-b83a76d44abf)"/><line x1="181.12" y1="0.45" x2="220.42" y2="0.36" fill="url(#ffe09fd5-c48f-4e2e-80aa-3c9a6902c673)"/><g id="f82cd106-d946-4a85-9307-e3d0a08241bd" data-name="guld"><path d="M333,277.88H167.09V234.69c0-13.84,11.61-25.05,26-25.05H307c14.35,0,26,11.21,26,25.05v43.19ZM180.75,264.72H319.26V234.79A12.16,12.16,0,0,0,307,222.9H193.15a12.09,12.09,0,0,0-12.3,11.89v29.93Z" transform="translate(-9.74 0.19)" fill="url(#debc2eba-65d1-4cfb-85e9-8a572c7d90a4)"/><path d="M336.73,277.88H163.38V230.8a27.33,27.33,0,0,1,27.33-27.3H309.3a27.34,27.34,0,0,1,27.34,27.3v47.08ZM177.82,263.55H322.29V230.89a13,13,0,0,0-13-13H190.8a13,13,0,0,0-13,13Z" transform="translate(-9.74 0.19)" fill="url(#01791359-3326-4a1b-9cc8-6fbcbfcea598)"/><path d="M336.73,278l-18.45.19-18.44.1-36.8.2c-12.3.09-50.47-.1-62.77-.1l-36.8-.2h-.29v-.29c.1-11.31.2-22.71.1-34v-8.48a63.59,63.59,0,0,1,.29-8.58,27.95,27.95,0,0,1,22.55-23.4,42.72,42.72,0,0,1,8.59-.49l8.49-.09,60-.1h46.86l2.14.1,2.15.29A27.87,27.87,0,0,1,337,226.6a63.7,63.7,0,0,1,.29,8.58l-.1,8.48Zm-.09-.2-.3-34-.09-8.48a47.56,47.56,0,0,0-.4-8.38,26.48,26.48,0,0,0-7.32-14.63,27.07,27.07,0,0,0-14.44-7.6l-2-.29-2.15-.1c-1.37-.1-2.83,0-4.2,0H263.13l-60-.1-8.49-.1a40.37,40.37,0,0,0-8.39.39,27,27,0,0,0-14.64,7.61,26.52,26.52,0,0,0-7.42,14.72,59.5,59.5,0,0,0-.39,8.48v8.48c-.1,11.31,0,22.72.09,34l-.29-.29,36.8-.19c12.3,0,50.47-.2,62.76-.1l36.8.19,18.45.1Z" transform="translate(-9.74 0.19)" fill="url(#8ce4d8f5-7566-4c32-a0da-2f16c1ec379b)"/><path d="M177.92,263.45c9.86-.19,19.72-.29,29.58-.39l55.54-.19c9.86,0,19.71.1,29.67.1l29.67.19-.29.29c.1-8.28,0-16.57,0-24.86v-6.24a16.93,16.93,0,0,0-.78-5.94,12.38,12.38,0,0,0-8.59-7.7,20.69,20.69,0,0,0-6.05-.39l-6.25.09-12.39.1-24.9.1H200l-6.25-.1c-2,0-4.19-.19-6,.39a12.52,12.52,0,0,0-8.49,7.61,13.31,13.31,0,0,0-.78,5.94l-.1,6.24Zm-.2.1-.29-24.86-.1-6.24a15.08,15.08,0,0,1,.79-6.24,13.53,13.53,0,0,1,9.17-8.48,23.8,23.8,0,0,1,6.35-.49l6.24-.09H263l24.89.09,12.39.1,6.25.1a22.38,22.38,0,0,1,6.25.49,13.46,13.46,0,0,1,9.08,8.38,15.22,15.22,0,0,1,.78,6.24v6.24c0,8.29-.1,16.57,0,24.86v.29h-.3l-29.67.2c-9.86,0-19.72.19-29.67.09L207.5,264c-10-.1-19.82-.29-29.78-.49Z" transform="translate(-9.74 0.19)" fill="url(#f606ff80-1cdd-49b1-a8b7-78d5ea429451)"/><ellipse cx="240.61" cy="485.23" rx="240.61" ry="240.3" fill="url(#def56a0e-4b68-49df-a585-5d6f9c499c6c)"/><ellipse cx="240.61" cy="485.23" rx="235.24" ry="234.94" fill="url(#ea49e60d-6270-43bb-b901-29740a39f514)"/><path d="M485.69,485s0,1.46-.1,4.19,0,6.92-.49,12.38a219.08,219.08,0,0,1-7.81,46.21c-.68,2.44-1.36,5-2.14,7.51s-1.76,5.07-2.64,7.8-1.95,5.26-3,8-2.05,5.56-3.41,8.29a225.3,225.3,0,0,1-18.74,34.7,238.4,238.4,0,0,1-66.09,67,244.09,244.09,0,0,1-48,24.86c-2.15.88-4.39,1.56-6.64,2.34s-4.49,1.56-6.73,2.25-4.59,1.26-6.93,2l-3.52,1-3.51.78c-2.34.58-4.69,1.07-7.13,1.66s-4.78.87-7.22,1.36c-4.78,1-9.76,1.46-14.64,2.15-2.44.39-5,.48-7.42.68l-7.52.58c-2.53.1-5.07.1-7.61.2l-3.81.1c-1.27,0-2.54-.1-3.8-.1-2.54-.1-5.08-.1-7.62-.2s-5.17-.39-7.71-.58c-5.17-.29-10.35-1.07-15.52-1.76A245.94,245.94,0,0,1,185,711.6c-5.18-1.37-10.15-3.22-15.33-5-2.53-1-5-2-7.51-2.93l-3.81-1.46-3.71-1.66a235.66,235.66,0,0,1-55.83-34.9,247.39,247.39,0,0,1-24.11-23.39,265.26,265.26,0,0,1-20.79-26.81A247.63,247.63,0,0,1,37,585.74a236.6,236.6,0,0,1-12.4-32.07A248.21,248.21,0,0,1,17,519.94a273.28,273.28,0,0,1-2.64-34.51,257.28,257.28,0,0,1,2.44-34.51,233.79,233.79,0,0,1,7.52-33.73A245.87,245.87,0,0,1,36.58,385a249.32,249.32,0,0,1,16.79-29.93,235.89,235.89,0,0,1,101-85.2l3.71-1.66,3.8-1.46c2.54-1,5-2,7.52-2.93,5.07-1.65,10.15-3.6,15.32-4.87a231.22,231.22,0,0,1,30.95-6.73c5.17-.68,10.34-1.46,15.52-1.65,2.53-.2,5.17-.49,7.71-.59s5.17-.1,7.71-.19c1.27,0,2.54-.1,3.81-.1l3.8.1c2.54.09,5.08.09,7.52.19l7.51.59c2.54.19,5,.29,7.52.68,5,.58,9.86,1.17,14.64,2.14,2.44.49,4.88.78,7.23,1.37s4.78,1.07,7.12,1.65l3.51.78,3.52,1c2.34.68,4.59,1.27,6.93,1.95s4.49,1.46,6.73,2.24,4.49,1.46,6.64,2.34a242.74,242.74,0,0,1,48,24.86,237,237,0,0,1,66,67.07,225.38,225.38,0,0,1,18.74,34.71c1.27,2.72,2.35,5.55,3.42,8.28s2.15,5.36,3,8,1.75,5.26,2.63,7.79c.68,2.54,1.46,5.07,2.15,7.51a226.55,226.55,0,0,1,7.81,46.21c.49,5.36.39,9.55.49,12.38A27.76,27.76,0,0,1,485.69,485Zm-.2,0s0-1.46-.1-4.19,0-6.92-.58-12.29a221.12,221.12,0,0,0-8-46c-.69-2.44-1.47-4.87-2.15-7.41-.88-2.53-1.76-5.07-2.64-7.7s-1.95-5.26-3-8-2.15-5.46-3.42-8.19a223.54,223.54,0,0,0-18.84-34.41,236.73,236.73,0,0,0-66.08-66.3,239.83,239.83,0,0,0-47.83-24.37A234.86,234.86,0,0,0,277,252.83c-2.44-.39-4.89-.49-7.42-.69l-7.42-.58c-2.54-.1-5.08-.1-7.52-.2l-3.8-.09c-1.18,0-2.54.09-3.81.09-2.54.1-5.08.1-7.61.2s-5.08.39-7.62.49c-5.17.29-10.25,1.07-15.42,1.65a228,228,0,0,0-30.75,6.63c-5.17,1.37-10.15,3.22-15.23,4.88-2.53.88-5,2-7.51,2.92l-3.71,1.46-3.71,1.66a234.8,234.8,0,0,0-79.55,57.81,241.17,241.17,0,0,0-20.7,26.71,233.13,233.13,0,0,0-16.79,29.64A229.16,229.16,0,0,0,26,417.29a245.45,245.45,0,0,0-7.62,33.53,268.48,268.48,0,0,0-2.63,34.41,254.2,254.2,0,0,0,2.44,34.42,249.59,249.59,0,0,0,7.42,33.63,229.24,229.24,0,0,0,12.3,32A259.79,259.79,0,0,0,54.64,615a235.21,235.21,0,0,0,100.63,84.52l3.71,1.66,3.71,1.46c2.54,1,5,2,7.52,2.92,5.07,1.66,10,3.51,15.23,4.88a244.33,244.33,0,0,0,30.74,6.63c5.18.58,10.25,1.36,15.43,1.65,2.53.2,5.07.39,7.61.49s5.08.1,7.61.2c1.27,0,2.54.09,3.81.09l3.81-.09c2.54-.1,5.07-.1,7.51-.2l7.52-.58c2.44-.2,5-.3,7.42-.69a237.12,237.12,0,0,0,103.66-37.82,236,236,0,0,0,84.92-100.7c1.37-2.73,2.35-5.56,3.42-8.19s2.15-5.36,3-8,1.76-5.16,2.64-7.7,1.46-5.07,2.15-7.41a228.08,228.08,0,0,0,8-46c.49-5.36.39-9.55.59-12.28C485.49,486.5,485.49,485,485.49,485Z" transform="translate(-9.74 0.19)" fill="url(#ddadcfa0-c3b0-43c4-8319-0540271fd410)"/><g id="30b7bd30-3c44-430f-81cc-4c02567982bd" data-name="SVGID"><g clip-path="url(#a238e2a8-14b6-4085-8d0e-b4a8b33e6fe4)"><path d="M361.72,271.93a240.22,240.22,0,0,0-111.37-27.19C117.4,244.74,9.74,352.36,9.74,485A239.77,239.77,0,0,0,91.92,666c3-.78,6.06-1.65,9.08-2.53a298.37,298.37,0,0,0,129.63-78C290.27,524.13,308,440.29,331.07,360.74,339.37,331.79,349,301.18,361.72,271.93Z" transform="translate(-9.74 0.19)" fill="url(#5dd62850-0d18-49b5-b022-8003bfcf5139)"/></g></g><path d="M361.72,271.93a240.22,240.22,0,0,0-111.37-27.19C117.4,244.74,9.74,352.36,9.74,485A239.77,239.77,0,0,0,91.92,666c3-.78,6.06-1.65,9.08-2.53a298.37,298.37,0,0,0,129.63-78C290.27,524.13,308,440.29,331.07,360.74,339.37,331.79,349,301.18,361.72,271.93Z" transform="translate(-9.74 0.19)" opacity="0.6" fill="url(#d9d9fe07-63db-4e31-8e10-f93012233ca9)" style="isolation:isolate"/><ellipse cx="240.61" cy="485.23" rx="206.74" ry="206.48" fill="url(#105fd798-7113-430f-a844-f34e2d86bd2d)"/><ellipse cx="240.61" cy="485.23" rx="201.37" ry="201.11" fill="url(#55de5e47-4e0e-4f5f-9624-2ff350734327)"/><path d="M457.19,485s0,1.27-.1,3.7,0,6.15-.49,10.83a193.72,193.72,0,0,1-6.83,40.55c-.59,2.14-1.27,4.29-1.86,6.63-.78,2.24-1.46,4.48-2.24,6.82a69.12,69.12,0,0,1-2.64,7c-1,2.34-1.85,4.88-3,7.31a204.86,204.86,0,0,1-16.4,30.52,207.06,207.06,0,0,1-100.35,80.81c-1.85.78-3.9,1.37-5.85,2s-3.91,1.36-6,2-4,1.17-6.05,1.75-4.1,1.17-6.15,1.56L293,688c-2.05.48-4.19.78-6.34,1.17-4.2.87-8.59,1.26-12.89,1.85-2.14.29-4.39.39-6.54.58s-4.39.3-6.63.49-4.49.1-6.64.2l-3.32.09c-1.17,0-2.24-.09-3.42-.09-2.24-.1-4.49-.1-6.73-.2s-4.49-.29-6.83-.49c-4.59-.29-9.08-1-13.67-1.56a205.38,205.38,0,0,1-27.23-5.94c-4.49-1.17-9-2.83-13.47-4.39-2.25-.78-4.4-1.75-6.64-2.63l-3.32-1.37-3.22-1.46A206.85,206.85,0,0,1,117,643.55,210.71,210.71,0,0,1,95.83,623a237,237,0,0,1-18.25-23.59,213.55,213.55,0,0,1-14.84-26.13,204.44,204.44,0,0,1-10.93-28.17,216.66,216.66,0,0,1-6.74-29.63,242.36,242.36,0,0,1-2.34-30.32,225.93,225.93,0,0,1,2.15-30.42A220.84,220.84,0,0,1,51.42,425a205.25,205.25,0,0,1,10.83-28.27A223.63,223.63,0,0,1,77,370.4a207.8,207.8,0,0,1,88.83-75L169,294l3.32-1.27c2.24-.88,4.39-1.76,6.63-2.63,4.49-1.47,8.89-3.12,13.47-4.29a205.56,205.56,0,0,1,27.24-5.95c4.59-.58,9.08-1.27,13.66-1.46,2.25-.2,4.49-.39,6.84-.49s4.49-.1,6.73-.19c1.17,0,2.25-.1,3.42-.1l3.32.1c2.24.09,4.39.09,6.63.19s4.4.29,6.64.49,4.39.29,6.54.58A202.84,202.84,0,0,1,323,290.85a206,206,0,0,1,42.27,21.93,211.4,211.4,0,0,1,58.07,59,198.7,198.7,0,0,1,16.4,30.51c1.17,2.44,2.05,4.88,3,7.32s1.85,4.67,2.63,7,1.57,4.59,2.25,6.83,1.27,4.48,1.85,6.63a200,200,0,0,1,6.84,40.55c.39,4.78.29,8.39.48,10.82A24,24,0,0,1,457.19,485Zm-.2,0s0-1.27-.1-3.7,0-6.15-.49-10.83a201.1,201.1,0,0,0-7-40.45c-.59-2.15-1.27-4.29-1.86-6.53-.78-2.25-1.56-4.49-2.34-6.83s-1.76-4.68-2.64-7-1.85-4.87-3-7.21a204.39,204.39,0,0,0-16.6-30.32A206.53,206.53,0,0,0,273.68,280.9c-2.15-.29-4.3-.39-6.54-.58s-4.4-.29-6.54-.49-4.4-.1-6.64-.19l-3.32-.1-3.32.1c-2.24.09-4.49.09-6.73.19s-4.49.29-6.74.49c-4.49.19-9,.88-13.47,1.46a187.86,187.86,0,0,0-26.94,5.85c-4.49,1.17-8.88,2.83-13.37,4.29-2.25.78-4.39,1.75-6.54,2.53l-3.32,1.27L167,297.18a204.3,204.3,0,0,0-48.81,30.42A220.22,220.22,0,0,0,97.1,348a209.79,209.79,0,0,0-33,49.43,201.23,201.23,0,0,0-17.57,57.52,239.19,239.19,0,0,0-2.35,30.22,224.62,224.62,0,0,0,2.15,30.22,218.16,218.16,0,0,0,6.54,29.54,204.52,204.52,0,0,0,10.84,28.17A214.14,214.14,0,0,0,78.45,599.2a206.49,206.49,0,0,0,88.44,74.28l3.22,1.46,3.32,1.27c2.25.88,4.39,1.76,6.64,2.53,4.49,1.47,8.88,3.12,13.37,4.29a205.34,205.34,0,0,0,27,5.76c4.49.58,9,1.26,13.57,1.46,2.24.1,4.49.39,6.73.49s4.49.09,6.74.19c1.07,0,2.24.1,3.32.1l3.31-.1c2.25-.1,4.4-.1,6.64-.19s4.39-.3,6.54-.49,4.39-.29,6.54-.59a206.87,206.87,0,0,0,149.25-91.44,194.79,194.79,0,0,0,16.59-30.32c1.17-2.43,2.05-4.87,3-7.21a69,69,0,0,0,2.63-7c.79-2.34,1.57-4.58,2.35-6.82s1.27-4.39,1.85-6.54a195,195,0,0,0,7-40.45c.49-4.68.39-8.39.49-10.82C457,486.31,457,485,457,485Z" transform="translate(-9.74 0.19)" fill="url(#134c7041-ecbc-49b7-bd63-a450066309bc)"/><path d="M196.27,665.1a41.09,41.09,0,0,0,6.83-1,19.49,19.49,0,0,0,5-2,13.64,13.64,0,0,0,5.37-5.16,12.65,12.65,0,0,0,.88-9.17,55,55,0,0,0-9.76,9,28.17,28.17,0,0,1,1.85-3.21,38.12,38.12,0,0,1,6.35-7.12,16.44,16.44,0,0,0-4,.39,13.06,13.06,0,0,0-5.18,2C200.08,651.06,196.66,655.64,196.27,665.1Z" transform="translate(-9.74 0.19)" fill="url(#dedd330c-7e24-413f-9487-2bb9ad168848)"/><path d="M210.82,619.38a35,35,0,0,1,3.61,4.38,26.21,26.21,0,0,1,2.44,3.9,14.75,14.75,0,0,1,1.75,6.83,13.09,13.09,0,0,1-3.22,8.58,31.4,31.4,0,0,1-3.51-12.19,16.52,16.52,0,0,0-.2,3.7,25.21,25.21,0,0,0,1.86,9,13.33,13.33,0,0,1-3.32-2,11.58,11.58,0,0,1-3-4.59C205.74,633,206.13,627.47,210.82,619.38Z" transform="translate(-9.74 0.19)" fill="url(#b6e63887-a522-485a-9876-24dd3acd8cb1)"/><path d="M173.14,656.23c10.73.29,15.71-2.64,18.15-6a12.67,12.67,0,0,0,2.05-9,49.5,49.5,0,0,0-10.73,7.41,15.52,15.52,0,0,1,2.24-2.93,34.17,34.17,0,0,1,7.13-6,15.07,15.07,0,0,0-9.47,1.07C178.8,642.77,174.7,647,173.14,656.23Z" transform="translate(-9.74 0.19)" fill="url(#1aadce68-c0e9-4878-8994-37fbae8f5c73)"/><path d="M193.54,612.75c5.07,6.43,6.34,12,5.76,16.08a12.74,12.74,0,0,1-4.3,8,37.48,37.48,0,0,1-1.85-12.77,27.78,27.78,0,0,0-.69,3.6,26.6,26.6,0,0,0,.59,9.26,12.83,12.83,0,0,1-5.37-7.41C186.71,625.61,187.88,620.25,193.54,612.75Z" transform="translate(-9.74 0.19)" fill="url(#40daaa05-fab5-4133-a14c-40fc44cd6ac2)"/><path d="M151.57,644.14a39.23,39.23,0,0,0,6.83.78,22.49,22.49,0,0,0,5.37-.69,13.94,13.94,0,0,0,6.54-3.6,12.58,12.58,0,0,0,3.22-8.58,55.42,55.42,0,0,0-11.72,6.14,26.29,26.29,0,0,1,2.64-2.63,38.23,38.23,0,0,1,8-5.17,16,16,0,0,0-4-.68,12.58,12.58,0,0,0-5.56.58C158.89,631.56,154.3,635.17,151.57,644.14Z" transform="translate(-9.74 0.19)" fill="url(#c4a041ec-08c8-4f55-aadd-fa47b80cf43b)"/><path d="M177.43,603.78a44.41,44.41,0,0,1,2.34,5.16,35.69,35.69,0,0,1,1.37,4.39,13.93,13.93,0,0,1-.1,7,13.57,13.57,0,0,1-5.36,7.51,32.61,32.61,0,0,1-.2-12.77,22.09,22.09,0,0,0-1.17,3.51,25.87,25.87,0,0,0-.59,9.16,15.55,15.55,0,0,1-2.63-2.83,11.6,11.6,0,0,1-1.76-5.26C169,615.67,170.89,610.31,177.43,603.78Z" transform="translate(-9.74 0.19)" fill="url(#daff9d38-4ea2-40f1-ab50-f49367ee8897)"/><path d="M131.55,629.61c10.25,3,15.92,1.46,19-1.07a12.65,12.65,0,0,0,4.29-8.09,47.75,47.75,0,0,0-12.39,4.39,19,19,0,0,1,2.93-2.25,36.89,36.89,0,0,1,8.49-4,14.15,14.15,0,0,0-9.37-1.37C140.44,618.21,135.56,620.94,131.55,629.61Z" transform="translate(-9.74 0.19)" fill="url(#e178bcd6-2a99-46bd-aae7-17c7c3c0da93)"/><path d="M162.5,593c3.32,7.5,3,13.16,1.46,17a12.94,12.94,0,0,1-6.25,6.63,36.35,36.35,0,0,1,1.57-12.77,17.3,17.3,0,0,0-1.57,3.31,28.46,28.46,0,0,0-1.85,9.07,13,13,0,0,1-3.32-8.48C152.54,603.68,155.18,598.51,162.5,593Z" transform="translate(-9.74 0.19)" fill="url(#eb69849d-b9a8-4ad0-9fd8-0b103782d888)"/><path d="M113.79,612.36c9.47,4.68,15.52,3.51,19,1.36a12.47,12.47,0,0,0,5.27-7.5A56.49,56.49,0,0,0,125.21,609a20.25,20.25,0,0,1,3.22-1.85,39.61,39.61,0,0,1,3.81-1.46,48.43,48.43,0,0,1,5.17-1.37c-1.66-.87-4.88-2.82-9.08-2.63C124.14,602.12,118.77,604.46,113.79,612.36Z" transform="translate(-9.74 0.19)" fill="url(#2e38f1bf-5d63-4a33-be1c-07e03d3a7c69)"/><path d="M149.22,580.09c1.95,8.19,1.37,13.45-.78,17.06a12.9,12.9,0,0,1-7.12,5.85,31.36,31.36,0,0,1,3.12-12.38,24.42,24.42,0,0,0-2.05,3.12,23.41,23.41,0,0,0-1.76,3.8,31.23,31.23,0,0,0-1.27,5,11.7,11.7,0,0,1-2.14-9C138,589.35,141.22,584.77,149.22,580.09Z" transform="translate(-9.74 0.19)" fill="url(#c64462a4-f27f-43c8-8972-175e5f3107e3)"/><path d="M98.27,593.15c9.08,5.66,14.93,5.46,18.74,3.8a12.44,12.44,0,0,0,6.25-6.72,50.63,50.63,0,0,0-13.08,1.07,28.91,28.91,0,0,1,3.41-1.46,38.29,38.29,0,0,1,9.28-1.66,14.78,14.78,0,0,0-8.79-3.7C109.79,584.38,104.32,585.84,98.27,593.15Z" transform="translate(-9.74 0.19)" fill="url(#44750fab-1a3b-48f3-aebf-419d89deba92)"/><path d="M137.61,565.76c1.17,8.09-.39,13.45-2.93,16.77A13.5,13.5,0,0,1,127,587.4a34.05,34.05,0,0,1,4.78-11.89,21,21,0,0,0-2.44,2.82,26.1,26.1,0,0,0-4.1,8.29,13.24,13.24,0,0,1-1.07-9.07C125.21,573.46,129.11,569.27,137.61,565.76Z" transform="translate(-9.74 0.19)" fill="url(#ddf85b30-9a6b-4c7c-ad15-e457e9c61a80)"/><path d="M85.48,572c4.1,3.41,7.42,5.36,10.45,6.24a14,14,0,0,0,7.51.09,12.52,12.52,0,0,0,7-5.85,52.13,52.13,0,0,0-5.37-.58,69.76,69.76,0,0,0-7.81,0,25,25,0,0,1,3.62-1,37.31,37.31,0,0,1,9.37-.49c-1.37-1.27-3.91-4.1-8.11-4.88C98.17,564.78,92.41,565.56,85.48,572Z" transform="translate(-9.74 0.19)" fill="url(#12d9ab47-a1c0-410c-8d3b-37a1f06eabce)"/><path d="M128.14,549.87a35.87,35.87,0,0,1-1.56,10.23,15.13,15.13,0,0,1-3.61,6,13,13,0,0,1-8.4,3.8,28,28,0,0,1,2-4.78,38.61,38.61,0,0,1,4.3-6.43,18,18,0,0,0-2.74,2.44,27,27,0,0,0-5.17,7.7,11.93,11.93,0,0,1,.29-9.17C114.86,555.91,119.16,552.31,128.14,549.87Z" transform="translate(-9.74 0.19)" fill="url(#fe1afbc7-7835-4046-bec5-26366c374a53)"/><path d="M75.43,549.38c7.22,7.8,13.08,9.16,17.08,8.58a12.84,12.84,0,0,0,7.81-4.87,49.87,49.87,0,0,0-13-2.34,17.51,17.51,0,0,1,3.71-.49,38.24,38.24,0,0,1,9.37.78,14.85,14.85,0,0,0-7.62-5.85C88.9,543.82,83.24,543.92,75.43,549.38Z" transform="translate(-9.74 0.19)" fill="url(#e0af46b4-e83c-4c14-b8ba-a4f3e90a50bc)"/><path d="M120.62,533c-1.07,8.19-3.9,12.87-7.22,15.41a12.86,12.86,0,0,1-8.79,2.63,34.45,34.45,0,0,1,7.72-10.24,23.84,23.84,0,0,0-3,2.05,29.73,29.73,0,0,0-6.15,6.92,12.62,12.62,0,0,1,1.27-9C106.66,537.29,111.45,534.27,120.62,533Z" transform="translate(-9.74 0.19)" fill="url(#478c0f06-680d-485f-a211-beeeefe4c0d3)"/><path d="M68.69,525.59c3,4.39,5.76,7.12,8.5,8.68a14.37,14.37,0,0,0,7.22,2.05,12.27,12.27,0,0,0,8.3-3.8,42.12,42.12,0,0,0-5.08-1.95,55.29,55.29,0,0,0-7.52-2.05,17.87,17.87,0,0,1,3.71,0A39.52,39.52,0,0,1,93,530.57c-1-1.66-2.64-5-6.54-6.83C82.75,521.89,77,521.21,68.69,525.59Z" transform="translate(-9.74 0.19)" fill="url(#8100ec0c-20fc-45c2-8260-9b82c5dff3be)"/><path d="M115.55,515.36a32.07,32.07,0,0,1-4.2,9.45,13.59,13.59,0,0,1-14.06,6.44,27.12,27.12,0,0,1,3.13-4.1,40.51,40.51,0,0,1,5.85-5.07,21.36,21.36,0,0,0-3.32,1.66,26.39,26.39,0,0,0-7,6A11.84,11.84,0,0,1,98.66,521C101.2,517.7,106.27,515.36,115.55,515.36Z" transform="translate(-9.74 0.19)" fill="url(#37439169-94af-4e04-b544-09377440d767)"/><path d="M64.89,501.12c5.07,9.46,10.25,12.29,14.25,12.68a13,13,0,0,0,8.78-2.63A52,52,0,0,0,76,505.51a19.22,19.22,0,0,1,3.71.49,37.05,37.05,0,0,1,8.89,3.22,14.69,14.69,0,0,0-5.76-7.61C79.24,499.37,73.87,497.91,64.89,501.12Z" transform="translate(-9.74 0.19)" fill="url(#26687cf6-1084-4a9e-8031-82c9622cd37e)"/><path d="M112.72,497.13c-3,7.6-7.13,11.4-10.94,13.06a13.48,13.48,0,0,1-9.17.29,34,34,0,0,1,10-7.89,19.35,19.35,0,0,0-3.51,1.26,27.19,27.19,0,0,0-7.71,5.07,12.59,12.59,0,0,1,3.61-8.38C98.07,497.62,103.64,495.86,112.72,497.13Z" transform="translate(-9.74 0.19)" fill="url(#86c499c9-8bc9-47f1-b3a4-3ad7f3e92033)"/><path d="M64.4,476.46C67.91,486.4,73,489.91,77,490.89a12.28,12.28,0,0,0,9.08-1.56,59.52,59.52,0,0,0-11.23-7.12,21.84,21.84,0,0,1,3.61,1,42.48,42.48,0,0,1,8.4,4.29,15.83,15.83,0,0,0-4.69-8.29C78.94,476.56,73.57,474.32,64.4,476.46Z" transform="translate(-9.74 0.19)" fill="url(#a569eb2f-1aa0-413f-a262-4fa863665227)"/><path d="M112.33,478.61c-4.3,7.21-8.5,10.43-12.5,11.5a13.77,13.77,0,0,1-9.17-.88,30.39,30.39,0,0,1,10.93-6.53,17,17,0,0,0-3.61.78,26.92,26.92,0,0,0-8.3,4.09,11.74,11.74,0,0,1,4.78-7.79C97.88,477.24,103.35,476.27,112.33,478.61Z" transform="translate(-9.74 0.19)" fill="url(#ab87529b-f806-4fac-b713-a13e047eddf3)"/><path d="M67.13,451.89c2.34,10.44,6.54,14.43,10.54,15.89a12.76,12.76,0,0,0,9.18-.29,57.4,57.4,0,0,0-10-8.48,20.36,20.36,0,0,1,3.41,1.46,35.15,35.15,0,0,1,7.71,5.36,14.54,14.54,0,0,0-3.51-8.77C81.48,453.84,76.6,451,67.13,451.89Z" transform="translate(-9.74 0.19)" fill="url(#5faff1e7-645e-4381-aa04-9486944e5a27)"/><path d="M114.38,460.28a29.44,29.44,0,0,1-7.42,7.11,15.8,15.8,0,0,1-6.54,2.64,13.06,13.06,0,0,1-9-2,32.67,32.67,0,0,1,11.81-5.07,17.12,17.12,0,0,0-3.71.29,31.79,31.79,0,0,0-8.88,2.93A13,13,0,0,1,96.41,459C100.12,457.06,105.79,456.77,114.38,460.28Z" transform="translate(-9.74 0.19)" fill="url(#4202d60e-7955-4c8b-901d-3b87461fdf06)"/><path d="M73.09,427.91a27.75,27.75,0,0,0,3.12,11.8,12.85,12.85,0,0,0,5.08,5.36,12.63,12.63,0,0,0,9.17.88,49.65,49.65,0,0,0-8.88-9.75,27.66,27.66,0,0,1,3.22,1.85,35.55,35.55,0,0,1,6.93,6.34,15.27,15.27,0,0,0-2.34-9.17C87.14,431.71,82.46,428.21,73.09,427.91Z" transform="translate(-9.74 0.19)" fill="url(#d69dbc50-3703-456d-8e84-e128e5c954e7)"/><path d="M118.77,442.34a38.84,38.84,0,0,1-8.2,6.14,15.45,15.45,0,0,1-6.93,1.76A13.08,13.08,0,0,1,95.05,447a36,36,0,0,1,12.4-3.51,16.37,16.37,0,0,0-3.71-.19,28.52,28.52,0,0,0-9.08,1.75,12.31,12.31,0,0,1,6.64-6.34C105.2,437.27,110.76,437.76,118.77,442.34Z" transform="translate(-9.74 0.19)" fill="url(#ae5dfc30-3528-4283-a09a-f644bc2a3bb7)"/><path d="M82.07,404.81c-.59,10.62,2.63,15.69,6,18.13A12.83,12.83,0,0,0,97,425a54.46,54.46,0,0,0-7.52-10.82,15.52,15.52,0,0,1,2.93,2.24,38.47,38.47,0,0,1,6,7.21,15.61,15.61,0,0,0-1.07-9.45C95.44,410.46,91.34,406.37,82.07,404.81Z" transform="translate(-9.74 0.19)" fill="url(#d8615fa3-250c-4b01-b13b-6b651fc946cf)"/><path d="M125.5,425.18c-6.63,5-11.91,6.34-16,5.85a13.38,13.38,0,0,1-8.1-4.29,34.23,34.23,0,0,1,12.69-1.85,26.17,26.17,0,0,0-12.88-.1,11.83,11.83,0,0,1,7.42-5.36C112.62,418.36,118.08,419.53,125.5,425.18Z" transform="translate(-9.74 0.19)" fill="url(#b9c192aa-4244-4abb-b531-abe5bef0c7fc)"/><path d="M94.07,383.17c-1.85,10.43.49,15.89,3.52,18.71a12.59,12.59,0,0,0,8.59,3.22,51.43,51.43,0,0,0-6.06-11.7,17.56,17.56,0,0,1,2.64,2.63,33.76,33.76,0,0,1,5.08,7.9,14.37,14.37,0,0,0,.09-9.46C106.57,390.48,103.05,386,94.07,383.17Z" transform="translate(-9.74 0.19)" fill="url(#d3e92c3d-777a-41cd-9f17-4c0e70c35514)"/><path d="M134.48,409c-7.22,4.09-12.78,4.68-16.69,3.61a13.58,13.58,0,0,1-7.51-5.36,33.68,33.68,0,0,1,12.88-.1,22.59,22.59,0,0,0-3.51-1.17,26.28,26.28,0,0,0-9.28-.68,12.92,12.92,0,0,1,8-4.39C122.57,400.62,127.85,402.47,134.48,409Z" transform="translate(-9.74 0.19)" fill="url(#516948f7-adeb-4703-9157-02183a13efb2)"/><path d="M108.71,363.28a48.76,48.76,0,0,0-1.66,6.73,25.16,25.16,0,0,0,0,5.36,13,13,0,0,0,2.74,6.92,12.65,12.65,0,0,0,8.1,4.29,53.37,53.37,0,0,0-4.49-12.38,18.81,18.81,0,0,1,2.24,2.92,35.58,35.58,0,0,1,4,8.58,15.87,15.87,0,0,0,1.27-3.8,15.11,15.11,0,0,0,.09-5.56C120.23,372.25,117.3,367.18,108.71,363.28Z" transform="translate(-9.74 0.19)" fill="url(#ba749e39-5e99-4f75-800d-4ff4a82a1d0e)"/><path d="M145.42,394.18a35.5,35.5,0,0,1-5.47,1.76,28.45,28.45,0,0,1-4.59.78,15.34,15.34,0,0,1-7-1.08,13.69,13.69,0,0,1-6.73-6.23,35,35,0,0,1,12.69,1.46,20.61,20.61,0,0,0-3.32-1.66,30.45,30.45,0,0,0-9.08-1.85,14.08,14.08,0,0,1,3.22-2.15,11.51,11.51,0,0,1,5.37-1.07C134.78,384.34,139.75,386.87,145.42,394.18Z" transform="translate(-9.74 0.19)" fill="url(#433c3e67-17f6-49b0-8092-e0a5757aa9cd)"/><path d="M141.12,357.24a29.83,29.83,0,0,0-10.93,5.36,13.35,13.35,0,0,0-4.2,6.14,12.68,12.68,0,0,0,1,9.06,54.68,54.68,0,0,0,7.71-10.62,23,23,0,0,1-1.17,3.51,35.41,35.41,0,0,1-4.79,8,15.27,15.27,0,0,0,8.59-4.09C140.24,371.66,142.68,366.59,141.12,357.24Z" transform="translate(-9.74 0.19)" fill="url(#2d44fc30-b4d0-4452-9875-66d49901106d)"/><path d="M194.51,665.1a41.38,41.38,0,0,0,6.84-1,19.8,19.8,0,0,0,5-2,13.61,13.61,0,0,0,5.36-5.16,12.6,12.6,0,0,0,.88-9.17,55.31,55.31,0,0,0-9.76,9,29.53,29.53,0,0,1,1.86-3.21,37.65,37.65,0,0,1,6.34-7.12,16.48,16.48,0,0,0-4,.39,13.06,13.06,0,0,0-5.18,2C198.42,651.06,194.9,655.64,194.51,665.1Z" transform="translate(-9.74 0.19)" fill="url(#c1b89e00-2b56-482b-971a-6850adac2daa)"/><path d="M209.06,619.38a35,35,0,0,1,3.61,4.38,25.41,25.41,0,0,1,2.44,3.9,14.78,14.78,0,0,1,1.76,6.83,13.15,13.15,0,0,1-3.22,8.58,31.54,31.54,0,0,1-3.52-12.19,16.24,16.24,0,0,0-.19,3.7,25.16,25.16,0,0,0,1.85,9,13.33,13.33,0,0,1-3.32-2,11.46,11.46,0,0,1-3-4.59C204,633,204.47,627.47,209.06,619.38Z" transform="translate(-9.74 0.19)" fill="url(#8c2c329f-a900-4bad-87aa-6e6bf14fa196)"/><path d="M171.48,656.23c10.74.29,15.71-2.64,18.15-6a12.67,12.67,0,0,0,2.05-9A49.5,49.5,0,0,0,181,648.72a15.52,15.52,0,0,1,2.24-2.93,34.17,34.17,0,0,1,7.13-6,15.07,15.07,0,0,0-9.47,1.07C177,642.77,173,647,171.48,656.23Z" transform="translate(-9.74 0.19)" fill="url(#cb721458-e574-4ca0-b759-0132bb9fdaf2)"/><path d="M191.78,612.75c5.08,6.43,6.35,12,5.76,16.08a12.79,12.79,0,0,1-4.29,8,37.43,37.43,0,0,1-1.86-12.77,27,27,0,0,0-.68,3.6,26.31,26.31,0,0,0,.58,9.26,12.83,12.83,0,0,1-5.37-7.41C185.05,625.61,186.12,620.25,191.78,612.75Z" transform="translate(-9.74 0.19)" fill="url(#e81809b7-2e92-40df-989a-a0a2a8d3d058)"/><path d="M149.81,644.14a39.23,39.23,0,0,0,6.83.78,22.42,22.42,0,0,0,5.37-.69,13.84,13.84,0,0,0,6.54-3.6,12.58,12.58,0,0,0,3.22-8.58,55.4,55.4,0,0,0-11.71,6.14,26.72,26.72,0,0,1,2.63-2.63,38.08,38.08,0,0,1,8-5.17,16.16,16.16,0,0,0-4-.68,12.6,12.6,0,0,0-5.56.58C157.13,631.56,152.64,635.17,149.81,644.14Z" transform="translate(-9.74 0.19)" fill="url(#14bcb47f-090c-422d-b5c4-e48a530328e4)"/><path d="M175.68,603.78a48,48,0,0,1,2.34,5.16,37.3,37.3,0,0,1,1.36,4.39,14.06,14.06,0,0,1-.09,7,13.62,13.62,0,0,1-5.37,7.51,32.81,32.81,0,0,1-.2-12.77,23.45,23.45,0,0,0-1.17,3.51,26.14,26.14,0,0,0-.58,9.16,15.2,15.2,0,0,1-2.64-2.83,11.6,11.6,0,0,1-1.76-5.26C167.28,615.67,169.14,610.31,175.68,603.78Z" transform="translate(-9.74 0.19)" fill="url(#6d3e9a51-efdc-41ce-b2d2-a288a1cd4573)"/><path d="M129.8,629.61c10.25,3,15.91,1.46,19-1.07a12.73,12.73,0,0,0,4.3-8.09,47.78,47.78,0,0,0-12.4,4.39,19.68,19.68,0,0,1,2.93-2.25,36.89,36.89,0,0,1,8.49-4,14.14,14.14,0,0,0-9.37-1.37C138.68,618.21,133.8,620.94,129.8,629.61Z" transform="translate(-9.74 0.19)" fill="url(#aea9cea9-b8eb-4ea9-b818-2fb02624ab70)"/><path d="M160.74,593c3.32,7.5,3,13.16,1.46,17a12.93,12.93,0,0,1-6.24,6.63,36,36,0,0,1,1.56-12.77,17,17,0,0,0-1.56,3.31,28.42,28.42,0,0,0-1.86,9.07,13.06,13.06,0,0,1-3.32-8.48C150.78,603.68,153.42,598.51,160.74,593Z" transform="translate(-9.74 0.19)" fill="url(#a097b193-a747-4575-a39b-c60dc40a2596)"/><path d="M112,612.36c9.47,4.68,15.52,3.51,19,1.36a12.56,12.56,0,0,0,5.27-7.5A56.44,56.44,0,0,0,123.45,609a20.25,20.25,0,0,1,3.22-1.85,40.66,40.66,0,0,1,3.81-1.46,48.43,48.43,0,0,1,5.17-1.37c-1.65-.87-4.88-2.82-9.07-2.63C122.38,602.12,117.11,604.46,112,612.36Z" transform="translate(-9.74 0.19)" fill="url(#368ecdac-0954-432f-9a59-32a539b4f8e1)"/><path d="M147.47,580.09c1.95,8.19,1.36,13.45-.79,17.06a12.9,12.9,0,0,1-7.12,5.85,31.54,31.54,0,0,1,3.12-12.38,24.42,24.42,0,0,0-2.05,3.12,23.47,23.47,0,0,0-1.75,3.8,30.2,30.2,0,0,0-1.27,5,11.74,11.74,0,0,1-2.15-9C136.34,589.35,139.46,584.77,147.47,580.09Z" transform="translate(-9.74 0.19)" fill="url(#dad3e109-7227-4409-9e0b-33fe3a1378ae)"/><path d="M96.51,593.15c9.08,5.66,14.94,5.46,18.74,3.8a12.4,12.4,0,0,0,6.25-6.72,50.68,50.68,0,0,0-13.08,1.07,28.68,28.68,0,0,1,3.42-1.46,38.2,38.2,0,0,1,9.27-1.66,14.77,14.77,0,0,0-8.78-3.7C108,584.38,102.66,585.84,96.51,593.15Z" transform="translate(-9.74 0.19)" fill="url(#2e2a3378-c7bb-44e6-9492-e2de47cf730f)"/><path d="M135.85,565.76c1.17,8.09-.39,13.45-2.93,16.77a13.47,13.47,0,0,1-7.71,4.87A34.05,34.05,0,0,1,130,575.51a21,21,0,0,0-2.44,2.82,26.53,26.53,0,0,0-4.1,8.29,13.3,13.3,0,0,1-1.07-9.07C123.45,573.46,127.36,569.27,135.85,565.76Z" transform="translate(-9.74 0.19)" fill="url(#1c83f37e-dd01-476b-959d-81809371976f)"/><path d="M83.82,572c4.1,3.41,7.42,5.36,10.45,6.24a14,14,0,0,0,7.51.09,12.52,12.52,0,0,0,7-5.85,51.81,51.81,0,0,0-5.37-.58,69.76,69.76,0,0,0-7.81,0,25,25,0,0,1,3.62-1,37.31,37.31,0,0,1,9.37-.49c-1.37-1.27-3.91-4.1-8.11-4.88S90.66,565.56,83.82,572Z" transform="translate(-9.74 0.19)" fill="url(#0aae173f-f804-4bec-bcd7-98999eefb20f)"/><path d="M126.38,549.87a35.87,35.87,0,0,1-1.56,10.23,15.13,15.13,0,0,1-3.61,6,12.93,12.93,0,0,1-8.4,3.8,27.34,27.34,0,0,1,2-4.78,38.49,38.49,0,0,1,4.29-6.43,17.74,17.74,0,0,0-2.73,2.44,27,27,0,0,0-5.18,7.7,11.94,11.94,0,0,1,.3-9.17C113.11,555.91,117.4,552.31,126.38,549.87Z" transform="translate(-9.74 0.19)" fill="url(#c0ebd165-2dcb-4c3f-90af-cdbc42468ab2)"/><path d="M73.77,549.38c7.22,7.8,13.08,9.16,17.08,8.58a12.84,12.84,0,0,0,7.81-4.87,49.87,49.87,0,0,0-13-2.34,17.51,17.51,0,0,1,3.71-.49,38.24,38.24,0,0,1,9.37.78,14.85,14.85,0,0,0-7.62-5.85C87.24,543.82,81.58,543.92,73.77,549.38Z" transform="translate(-9.74 0.19)" fill="url(#7919a41f-b422-427c-b0d7-b7757bd99104)"/><path d="M118.87,533c-1.08,8.19-3.91,12.87-7.23,15.41a12.85,12.85,0,0,1-8.78,2.63,34.2,34.2,0,0,1,7.71-10.24,23.84,23.84,0,0,0-3,2.05,30,30,0,0,0-6.15,6.92,12.62,12.62,0,0,1,1.27-9C105,537.29,109.79,534.27,118.87,533Z" transform="translate(-9.74 0.19)" fill="url(#35b1b654-b4c1-431f-b42b-9c91a202ecc8)"/><path d="M66.94,525.59c3,4.39,5.76,7.12,8.49,8.68a14.37,14.37,0,0,0,7.22,2.05,12.27,12.27,0,0,0,8.3-3.8,42.12,42.12,0,0,0-5.08-1.95,55.52,55.52,0,0,0-7.51-2.05,17.82,17.82,0,0,1,3.71,0,39.56,39.56,0,0,1,9.17,2.05c-1-1.66-2.63-5-6.54-6.83C81.09,521.89,75.33,521.21,66.94,525.59Z" transform="translate(-9.74 0.19)" fill="url(#bfbb6812-715f-4afe-97d3-6b004eb20c60)"/><path d="M113.89,515.36a32.07,32.07,0,0,1-4.2,9.45,13.59,13.59,0,0,1-14.06,6.44,27.12,27.12,0,0,1,3.13-4.1,40.51,40.51,0,0,1,5.85-5.07,21.06,21.06,0,0,0-3.31,1.66,26.25,26.25,0,0,0-7,6A11.88,11.88,0,0,1,97,521C99.54,517.7,104.52,515.36,113.89,515.36Z" transform="translate(-9.74 0.19)" fill="url(#dfdb95af-1859-4911-8b41-270477ec97bd)"/><path d="M63.13,501.12c5.08,9.46,10.25,12.29,14.25,12.68a13.08,13.08,0,0,0,8.79-2.63,52.24,52.24,0,0,0-11.91-5.66A19.31,19.31,0,0,1,78,506a37.16,37.16,0,0,1,8.88,3.22,14.69,14.69,0,0,0-5.76-7.61C77.58,499.37,72.11,497.91,63.13,501.12Z" transform="translate(-9.74 0.19)" fill="url(#95b5f077-3f5f-4cba-b9c1-eec0fdc62034)"/><path d="M111,497.13c-3,7.6-7.13,11.4-10.93,13.06a13.5,13.5,0,0,1-9.18.29,33.91,33.91,0,0,1,10.06-7.89,19.26,19.26,0,0,0-3.52,1.26,27.19,27.19,0,0,0-7.71,5.07,12.64,12.64,0,0,1,3.61-8.38C96.41,497.62,101.88,495.86,111,497.13Z" transform="translate(-9.74 0.19)" fill="url(#0b5c5dde-e630-4410-9d5a-dab9c4302c79)"/><path d="M62.64,476.46c3.52,9.94,8.59,13.45,12.59,14.43a12.28,12.28,0,0,0,9.08-1.56,59.7,59.7,0,0,0-11.22-7.12,22.13,22.13,0,0,1,3.61,1,42.73,42.73,0,0,1,8.39,4.29,15.8,15.8,0,0,0-4.68-8.29C77.28,476.56,71.82,474.32,62.64,476.46Z" transform="translate(-9.74 0.19)" fill="url(#086ceba3-7dac-4f78-a62e-a0d57b49e391)"/><path d="M110.67,478.61c-4.3,7.21-8.5,10.43-12.5,11.5a13.77,13.77,0,0,1-9.17-.88,30.39,30.39,0,0,1,10.93-6.53,17,17,0,0,0-3.61.78,26.92,26.92,0,0,0-8.3,4.09,11.74,11.74,0,0,1,4.78-7.79C96.12,477.24,101.59,476.27,110.67,478.61Z" transform="translate(-9.74 0.19)" fill="url(#df7a2f75-0932-48a9-9d00-80e54c587bf7)"/><path d="M65.37,451.89c2.35,10.44,6.54,14.43,10.55,15.89a12.73,12.73,0,0,0,9.17-.29A57.4,57.4,0,0,0,75,459a20.36,20.36,0,0,1,3.41,1.46,35.18,35.18,0,0,1,7.72,5.36,14.63,14.63,0,0,0-3.52-8.77C79.72,453.84,74.84,451,65.37,451.89Z" transform="translate(-9.74 0.19)" fill="url(#8908c157-ed39-4e5d-a55f-8a5bec37ab4d)"/><path d="M112.62,460.28a29.44,29.44,0,0,1-7.42,7.11A15.75,15.75,0,0,1,98.66,470a13.06,13.06,0,0,1-9-2,32.67,32.67,0,0,1,11.81-5.07,17.14,17.14,0,0,0-3.71.29,31.89,31.89,0,0,0-8.88,2.93A13,13,0,0,1,94.66,459C98.37,457.06,104.13,456.77,112.62,460.28Z" transform="translate(-9.74 0.19)" fill="url(#4033f756-d809-4e02-a200-1c604cfb5fba)"/><path d="M71.33,427.91a27.75,27.75,0,0,0,3.12,11.8,12.91,12.91,0,0,0,5.08,5.36,12.63,12.63,0,0,0,9.17.88,49.65,49.65,0,0,0-8.88-9.75A27.66,27.66,0,0,1,83,438.05,35.55,35.55,0,0,1,90,444.39a15.13,15.13,0,0,0-2.34-9.17C85.38,431.71,80.8,428.21,71.33,427.91Z" transform="translate(-9.74 0.19)" fill="url(#22d68f12-cfcb-4924-bdf0-ebf20df4b016)"/><path d="M117.11,442.34a38.84,38.84,0,0,1-8.2,6.14,15.45,15.45,0,0,1-6.93,1.76A13.1,13.1,0,0,1,93.39,447a36,36,0,0,1,12.4-3.51,16.37,16.37,0,0,0-3.71-.19A28.52,28.52,0,0,0,93,445.07a12.31,12.31,0,0,1,6.64-6.34C103.44,437.27,109,437.76,117.11,442.34Z" transform="translate(-9.74 0.19)" fill="url(#7b4662ca-ce4f-4bee-949c-fbe9a97a91dc)"/><path d="M80.31,404.81c-.59,10.62,2.63,15.69,6,18.13a12.83,12.83,0,0,0,9,2.05,54.74,54.74,0,0,0-7.51-10.82,15.52,15.52,0,0,1,2.93,2.24,38.86,38.86,0,0,1,6,7.21,15.71,15.71,0,0,0-1.08-9.45C93.78,410.46,89.58,406.37,80.31,404.81Z" transform="translate(-9.74 0.19)" fill="url(#1f1d8d0c-2fd2-4af2-83c5-ed72ef4c973b)"/><path d="M123.84,425.18c-6.63,5-11.9,6.34-16,5.85a13.38,13.38,0,0,1-8.11-4.29,34.23,34.23,0,0,1,12.69-1.85,26.17,26.17,0,0,0-12.88-.1,11.83,11.83,0,0,1,7.42-5.36C111,418.36,116.33,419.53,123.84,425.18Z" transform="translate(-9.74 0.19)" fill="url(#4aac200e-f829-4ba8-930e-10803c955430)"/><path d="M92.32,383.17c-1.86,10.43.48,15.89,3.51,18.71a12.61,12.61,0,0,0,8.59,3.22,51.71,51.71,0,0,0-6-11.7A17.84,17.84,0,0,1,101,396a33.76,33.76,0,0,1,5.08,7.9,14.42,14.42,0,0,0,.1-9.46C104.91,390.48,101.39,386,92.32,383.17Z" transform="translate(-9.74 0.19)" fill="url(#b8b5f573-92fc-4c8f-9cf2-16ce3334ef6b)"/><path d="M132.73,409c-7.23,4.09-12.79,4.68-16.7,3.61a13.58,13.58,0,0,1-7.51-5.36,33.7,33.7,0,0,1,12.88-.1,22.59,22.59,0,0,0-3.51-1.17,26.24,26.24,0,0,0-9.27-.68,12.89,12.89,0,0,1,8-4.39C120.92,400.62,126.19,402.47,132.73,409Z" transform="translate(-9.74 0.19)" fill="url(#7b62d3b5-39a9-4d2a-bf2c-b5e207f6a6f7)"/><path d="M107,363.28A47.35,47.35,0,0,0,105.3,370a23.91,23.91,0,0,0,0,5.36,12.89,12.89,0,0,0,2.73,6.92,12.7,12.7,0,0,0,8.1,4.29,52.9,52.9,0,0,0-4.49-12.38,19.16,19.16,0,0,1,2.25,2.92,35.61,35.61,0,0,1,4,8.58,15.43,15.43,0,0,0,1.27-3.8,15.1,15.1,0,0,0,.1-5.56C118.48,372.25,115.55,367.18,107,363.28Z" transform="translate(-9.74 0.19)" fill="url(#105c279b-cb01-4a06-8c91-2ad01806f817)"/><path d="M143.76,394.18a35.5,35.5,0,0,1-5.47,1.76,28.45,28.45,0,0,1-4.59.78,15.34,15.34,0,0,1-7-1.08,13.69,13.69,0,0,1-6.73-6.23,35,35,0,0,1,12.69,1.46,20.61,20.61,0,0,0-3.32-1.66,30.45,30.45,0,0,0-9.08-1.85,14.31,14.31,0,0,1,3.22-2.15,11.51,11.51,0,0,1,5.37-1.07C133,384.34,138,386.87,143.76,394.18Z" transform="translate(-9.74 0.19)" fill="url(#44464c15-11ed-487d-985d-20489e896277)"/><path d="M139.46,357.24a29.83,29.83,0,0,0-10.93,5.36,13.35,13.35,0,0,0-4.2,6.14,12.68,12.68,0,0,0,1,9.06A54.68,54.68,0,0,0,133,367.18a23,23,0,0,1-1.17,3.51,35.41,35.41,0,0,1-4.79,8,15.27,15.27,0,0,0,8.59-4.09C138.49,371.66,140.93,366.59,139.46,357.24Z" transform="translate(-9.74 0.19)" fill="url(#8b42cf0d-77ed-418a-a99d-ed57b62cec22)"/><path d="M304.42,665.1a41.24,41.24,0,0,1-6.83-1,19.8,19.8,0,0,1-5-2,13.71,13.71,0,0,1-5.37-5.16,12.63,12.63,0,0,1-.87-9.17,55.31,55.31,0,0,1,9.76,9,29.53,29.53,0,0,0-1.86-3.21,38,38,0,0,0-6.34-7.12,16.52,16.52,0,0,1,4,.39,13,13,0,0,1,5.17,2C300.62,651.06,304.13,655.64,304.42,665.1Z" transform="translate(-9.74 0.19)" fill="url(#06b84baf-f2b0-4845-9fff-f1a2be3376cf)"/><path d="M290,619.38a33.3,33.3,0,0,0-3.61,4.38,24.66,24.66,0,0,0-2.44,3.9,14.78,14.78,0,0,0-1.76,6.83,13.09,13.09,0,0,0,3.22,8.58,31.4,31.4,0,0,0,3.51-12.19,15.8,15.8,0,0,1,.2,3.7,25.21,25.21,0,0,1-1.86,9,13.33,13.33,0,0,0,3.32-2,11.48,11.48,0,0,0,3-4.59C295.05,633,294.57,627.47,290,619.38Z" transform="translate(-9.74 0.19)" fill="url(#c6fc0da2-51c8-438c-8ff8-95a7b6c37c7b)"/><path d="M327.56,656.23c-10.74.29-15.72-2.64-18.16-6a12.72,12.72,0,0,1-2-9,49.26,49.26,0,0,1,10.74,7.41,15.36,15.36,0,0,0-2.25-2.93,34.08,34.08,0,0,0-7.12-6,15.08,15.08,0,0,1,9.47,1.07C321.9,642.77,326,647,327.56,656.23Z" transform="translate(-9.74 0.19)" fill="url(#9b6925ac-55e5-4467-9e13-0a5289ea9c6e)"/><path d="M307.16,612.75c-5.08,6.43-6.35,12-5.76,16.08a12.79,12.79,0,0,0,4.29,8,37.43,37.43,0,0,0,1.86-12.77,26.07,26.07,0,0,1,.1,12.86,12.78,12.78,0,0,0,5.36-7.41C314,625.61,312.82,620.25,307.16,612.75Z" transform="translate(-9.74 0.19)" fill="url(#6a18d550-1ef1-4554-85a0-b49a0a0b03df)"/><path d="M349.23,644.14a39.33,39.33,0,0,1-6.84.78,22.33,22.33,0,0,1-5.36-.69,13.84,13.84,0,0,1-6.54-3.6,12.58,12.58,0,0,1-3.22-8.58A55.64,55.64,0,0,1,339,638.19a26.29,26.29,0,0,0-2.64-2.63,38,38,0,0,0-8-5.17,16.07,16.07,0,0,1,4-.68,12.58,12.58,0,0,1,5.56.58C341.81,631.56,346.4,635.17,349.23,644.14Z" transform="translate(-9.74 0.19)" fill="url(#4b4a022f-8221-41ae-82e2-3f8a9ee94d4b)"/><path d="M323.26,603.78a48,48,0,0,0-2.34,5.16,37.5,37.5,0,0,0-1.37,4.39,14.16,14.16,0,0,0,.1,7,13.62,13.62,0,0,0,5.37,7.51,32.81,32.81,0,0,0,.2-12.77,23.45,23.45,0,0,1,1.17,3.51,26.14,26.14,0,0,1,.58,9.16,15.2,15.2,0,0,0,2.64-2.83,11.48,11.48,0,0,0,1.75-5.26C331.76,615.67,329.8,610.31,323.26,603.78Z" transform="translate(-9.74 0.19)" fill="url(#9e640845-518c-49ba-8764-63adf839d3c7)"/><path d="M369.14,629.61c-10.25,3-15.91,1.46-19-1.07a12.63,12.63,0,0,1-4.3-8.09,47.78,47.78,0,0,1,12.4,4.39,19.68,19.68,0,0,0-2.93-2.25,36.89,36.89,0,0,0-8.49-4,14.14,14.14,0,0,1,9.37-1.37C360.36,618.21,365.14,620.94,369.14,629.61Z" transform="translate(-9.74 0.19)" fill="url(#217e396d-85b2-4fc6-82d9-3d2cfdf4c27a)"/><path d="M338.3,593c-3.32,7.5-3,13.16-1.47,17a12.94,12.94,0,0,0,6.25,6.63,36.28,36.28,0,0,0-1.56-12.77,17,17,0,0,1,1.56,3.31,28.18,28.18,0,0,1,1.85,9.07,13,13,0,0,0,3.32-8.48C348.25,603.68,345.52,598.51,338.3,593Z" transform="translate(-9.74 0.19)" fill="url(#4c907e03-5424-4ac6-a331-c90d173d1720)"/><path d="M386.91,612.36c-9.47,4.68-15.52,3.51-19,1.36a12.56,12.56,0,0,1-5.27-7.5A56.49,56.49,0,0,1,375.48,609a20.25,20.25,0,0,0-3.22-1.85,39.34,39.34,0,0,0-3.8-1.46,48,48,0,0,0-5.18-1.37c1.66-.87,4.88-2.82,9.08-2.63C376.56,602.12,381.93,604.46,386.91,612.36Z" transform="translate(-9.74 0.19)" fill="url(#f960542e-1edd-4607-9cab-a4e171677307)"/><path d="M351.47,580.09c-2,8.19-1.36,13.45.78,17.06a12.88,12.88,0,0,0,7.13,5.85,31.72,31.72,0,0,0-3.12-12.38,25.84,25.84,0,0,1,2.05,3.12,23.47,23.47,0,0,1,1.75,3.8,30.2,30.2,0,0,1,1.27,5,11.74,11.74,0,0,0,2.15-9C362.7,589.35,359.57,584.77,351.47,580.09Z" transform="translate(-9.74 0.19)" fill="url(#f336a922-80f7-49dd-9087-f45c18734cef)"/><path d="M402.52,593.15c-9.07,5.66-14.93,5.46-18.74,3.8a12.44,12.44,0,0,1-6.25-6.72,50.63,50.63,0,0,1,13.08,1.07,28,28,0,0,0-3.41-1.46,38.29,38.29,0,0,0-9.27-1.66,14.74,14.74,0,0,1,8.78-3.7C391,584.38,396.37,585.84,402.52,593.15Z" transform="translate(-9.74 0.19)" fill="url(#12c4a154-24eb-4e3e-be3d-3045279c4850)"/><path d="M363.19,565.76c-1.18,8.09.39,13.45,2.92,16.77a13.49,13.49,0,0,0,7.72,4.87A33.92,33.92,0,0,0,369,575.51a20.12,20.12,0,0,1,2.44,2.82,26.1,26.1,0,0,1,4.1,8.29,13.29,13.29,0,0,0,1.08-9.07C375.48,573.46,371.58,569.27,363.19,565.76Z" transform="translate(-9.74 0.19)" fill="url(#ce8ddf7b-9dc6-49a1-9c20-d46e5b3a65c8)"/><path d="M415.21,572c-4.1,3.41-7.42,5.36-10.44,6.24a14,14,0,0,1-7.52.09,12.56,12.56,0,0,1-7-5.85,52.45,52.45,0,0,1,5.37-.58,69.78,69.78,0,0,1,7.81,0,25,25,0,0,0-3.61-1,37.34,37.34,0,0,0-9.37-.49c1.37-1.27,3.9-4.1,8.1-4.88S408.28,565.56,415.21,572Z" transform="translate(-9.74 0.19)" fill="url(#7d2d7909-8f6b-4641-949c-93affb5bb1ef)"/><path d="M372.65,549.87a35.84,35.84,0,0,0,1.57,10.23,14.9,14.9,0,0,0,3.61,6,12.93,12.93,0,0,0,8.39,3.8,27.19,27.19,0,0,0-2-4.78,39.12,39.12,0,0,0-4.29-6.43,17.74,17.74,0,0,1,2.73,2.44,26.8,26.8,0,0,1,5.17,7.7,11.93,11.93,0,0,0-.29-9.17C385.83,555.91,381.63,552.31,372.65,549.87Z" transform="translate(-9.74 0.19)" fill="url(#4c081d73-9a90-4ecd-ad8e-aa7a47657055)"/><path d="M425.27,549.38c-7.23,7.8-13.08,9.16-17.09,8.58a12.81,12.81,0,0,1-7.8-4.87,49.78,49.78,0,0,1,13-2.34,17.66,17.66,0,0,0-3.71-.49,38.24,38.24,0,0,0-9.37.78,14.77,14.77,0,0,1,7.61-5.85C411.8,543.82,417.46,543.92,425.27,549.38Z" transform="translate(-9.74 0.19)" fill="url(#3ce1c706-503f-479c-ba78-521a1f69c585)"/><path d="M380.07,533c1.08,8.19,3.91,12.87,7.23,15.41a12.83,12.83,0,0,0,8.78,2.63,34.37,34.37,0,0,0-7.71-10.24,23.84,23.84,0,0,1,3,2.05,29.73,29.73,0,0,1,6.14,6.92,12.56,12.56,0,0,0-1.26-9C394,537.29,389.25,534.27,380.07,533Z" transform="translate(-9.74 0.19)" fill="url(#0bd9f9ec-2725-48e9-921e-7b03d26b8def)"/><path d="M432,525.59c-3,4.39-5.76,7.12-8.49,8.68a14.37,14.37,0,0,1-7.22,2.05,12.27,12.27,0,0,1-8.3-3.8,42.12,42.12,0,0,1,5.08-1.95,55.11,55.11,0,0,1,7.51-2.05,17.87,17.87,0,0,0-3.71,0,39.46,39.46,0,0,0-9.17,2.05c1-1.66,2.63-5,6.54-6.83C418,521.89,423.7,521.21,432,525.59Z" transform="translate(-9.74 0.19)" fill="url(#d3d3232c-5595-42a7-8376-b35008b66818)"/><path d="M385.15,515.36a31.56,31.56,0,0,0,4.2,9.45,13.57,13.57,0,0,0,14,6.44,26.94,26.94,0,0,0-3.12-4.1,41.21,41.21,0,0,0-5.86-5.07,20.86,20.86,0,0,1,3.32,1.66,26.41,26.41,0,0,1,7,6A11.92,11.92,0,0,0,402,521C399.5,517.7,394.42,515.36,385.15,515.36Z" transform="translate(-9.74 0.19)" fill="url(#4a36c528-e727-43ee-a13e-fc9dc1e70ef1)"/><path d="M435.81,501.12c-5.08,9.46-10.25,12.29-14.25,12.68a13.08,13.08,0,0,1-8.79-2.63,52.24,52.24,0,0,1,11.91-5.66A19.31,19.31,0,0,0,421,506a37.16,37.16,0,0,0-8.88,3.22,14.63,14.63,0,0,1,5.76-7.61C421.46,499.37,426.83,497.91,435.81,501.12Z" transform="translate(-9.74 0.19)" fill="url(#28915beb-b447-4d40-be6d-1f7dd99999fc)"/><path d="M388,497.13c3,7.6,7.12,11.4,10.93,13.06a13.5,13.5,0,0,0,9.18.29A33.91,33.91,0,0,0,398,502.59a19.26,19.26,0,0,1,3.52,1.26,27.19,27.19,0,0,1,7.71,5.07,12.64,12.64,0,0,0-3.61-8.38C402.62,497.62,397.06,495.86,388,497.13Z" transform="translate(-9.74 0.19)" fill="url(#a7357174-cf73-49df-b47a-3a9605bb9c0b)"/><path d="M436.3,476.46c-3.52,9.94-8.59,13.45-12.6,14.43a12.27,12.27,0,0,1-9.07-1.56,59.36,59.36,0,0,1,11.22-7.12,22.13,22.13,0,0,0-3.61,1,42.18,42.18,0,0,0-8.39,4.29,15.73,15.73,0,0,1,4.68-8.29C421.75,476.56,427.12,474.32,436.3,476.46Z" transform="translate(-9.74 0.19)" fill="url(#7fc2e9d4-aceb-43d3-a1e1-efbe0a420632)"/><path d="M388.37,478.61c4.29,7.21,8.49,10.43,12.49,11.5a13.81,13.81,0,0,0,9.18-.88,30.39,30.39,0,0,0-10.93-6.53,17.16,17.16,0,0,1,3.61.78,27,27,0,0,1,8.3,4.09,11.76,11.76,0,0,0-4.79-7.79C402.82,477.24,397.35,476.27,388.37,478.61Z" transform="translate(-9.74 0.19)" fill="url(#8b0ed779-21ce-46e5-9ee4-11a9b28f3cb5)"/><path d="M433.66,451.89c-2.34,10.44-6.54,14.43-10.54,15.89a12.76,12.76,0,0,1-9.18-.29A57.57,57.57,0,0,1,424,459a20.21,20.21,0,0,0-3.42,1.46,35.15,35.15,0,0,0-7.71,5.36,14.61,14.61,0,0,1,3.51-8.77C419.21,453.84,424.19,451,433.66,451.89Z" transform="translate(-9.74 0.19)" fill="url(#237a1758-25e0-4cff-b2ac-2a84f0414967)"/><path d="M386.32,460.28a29.44,29.44,0,0,0,7.42,7.11,15.75,15.75,0,0,0,6.54,2.64,13.06,13.06,0,0,0,9-2,32.67,32.67,0,0,0-11.81-5.07,17.14,17.14,0,0,1,3.71.29,31.89,31.89,0,0,1,8.88,2.93,13.08,13.08,0,0,0-5.76-7.12C400.57,457.06,394.91,456.77,386.32,460.28Z" transform="translate(-9.74 0.19)" fill="url(#28216df4-4c08-44e4-9ebe-4a59096b2e79)"/><path d="M427.71,427.91a27.73,27.73,0,0,1-3.13,11.8,12.9,12.9,0,0,1-5.07,5.36,12.66,12.66,0,0,1-9.18.88,50.32,50.32,0,0,1,8.88-9.75,28.7,28.7,0,0,0-3.22,1.85,35.55,35.55,0,0,0-6.93,6.34,15.22,15.22,0,0,1,2.35-9.17C413.65,431.71,418.24,428.21,427.71,427.91Z" transform="translate(-9.74 0.19)" fill="url(#d096d488-63f9-437d-b6b9-e2b618eb6607)"/><path d="M381.93,442.34a38.58,38.58,0,0,0,8.2,6.14,15.42,15.42,0,0,0,6.93,1.76,13.1,13.1,0,0,0,8.59-3.22,36,36,0,0,0-12.4-3.51,16.37,16.37,0,0,1,3.71-.19,28.57,28.57,0,0,1,9.08,1.75,12.34,12.34,0,0,0-6.64-6.34C395.59,437.27,389.93,437.76,381.93,442.34Z" transform="translate(-9.74 0.19)" fill="url(#618ec9e6-e9f9-4907-b8db-945967719b2b)"/><path d="M418.63,404.81c.58,10.62-2.64,15.69-6,18.13a12.81,12.81,0,0,1-9,2.05,55.35,55.35,0,0,1,7.52-10.82,15.52,15.52,0,0,0-2.93,2.24,38.86,38.86,0,0,0-6,7.21,15.77,15.77,0,0,1,1.07-9.45C405.26,410.46,409.36,406.37,418.63,404.81Z" transform="translate(-9.74 0.19)" fill="url(#b0d9a720-173c-4d21-8bf7-b5eae27261a6)"/><path d="M375.19,425.18c6.64,5,11.91,6.34,16,5.85a13.35,13.35,0,0,0,8.1-4.29,34.23,34.23,0,0,0-12.69-1.85,27.38,27.38,0,0,1,3.61-.68,26.71,26.71,0,0,1,9.28.58,11.86,11.86,0,0,0-7.42-5.36C388.08,418.36,382.61,419.53,375.19,425.18Z" transform="translate(-9.74 0.19)" fill="url(#b23756f0-c0de-4d2a-a8e4-b560c1f9994d)"/><path d="M406.72,383.17c1.86,10.43-.49,15.89-3.51,18.71a12.62,12.62,0,0,1-8.59,3.22,51.28,51.28,0,0,1,6.05-11.7A18.13,18.13,0,0,0,398,396a33.77,33.77,0,0,0-5.07,7.9,14.35,14.35,0,0,1-.1-9.46C394.13,390.48,397.64,386,406.72,383.17Z" transform="translate(-9.74 0.19)" fill="url(#09b793aa-d7ff-4d58-9e73-de5c28c92fe3)"/><path d="M366.31,409c7.22,4.09,12.79,4.68,16.69,3.61a13.65,13.65,0,0,0,7.52-5.36,33.75,33.75,0,0,0-12.89-.1,22.51,22.51,0,0,1,3.52-1.17,26.19,26.19,0,0,1,9.27-.68,12.89,12.89,0,0,0-8-4.39C378.12,400.62,372.85,402.47,366.31,409Z" transform="translate(-9.74 0.19)" fill="url(#cc849b43-d404-48cd-b9fa-6309de9d7351)"/><path d="M392,363.28a47.35,47.35,0,0,1,1.66,6.73,23.91,23.91,0,0,1,0,5.36,13,13,0,0,1-2.73,6.92,12.7,12.7,0,0,1-8.1,4.29,52.43,52.43,0,0,1,4.49-12.38,19.16,19.16,0,0,0-2.25,2.92,35.61,35.61,0,0,0-4,8.58,15.43,15.43,0,0,1-1.27-3.8,15.1,15.1,0,0,1-.1-5.56C380.46,372.25,383.49,367.18,392,363.28Z" transform="translate(-9.74 0.19)" fill="url(#3ecd2a2d-8870-4512-a06b-0e43bfb21680)"/><path d="M355.28,394.18a35.16,35.16,0,0,0,5.47,1.76,28.52,28.52,0,0,0,4.58.78,15.32,15.32,0,0,0,7-1.08,13.67,13.67,0,0,0,6.74-6.23,35,35,0,0,0-12.69,1.46,20.61,20.61,0,0,1,3.32-1.66,30.38,30.38,0,0,1,9.07-1.85,13.86,13.86,0,0,0-3.22-2.15,11.48,11.48,0,0,0-5.37-1.07C365.92,384.34,360.94,386.87,355.28,394.18Z" transform="translate(-9.74 0.19)" fill="url(#b7bdcb5b-522d-462f-81c3-972c98e7e598)"/><path d="M359.57,357.24a29.89,29.89,0,0,1,10.94,5.36,13.24,13.24,0,0,1,4.19,6.14,12.64,12.64,0,0,1-1,9.06A54.26,54.26,0,0,1,366,367.18a23,23,0,0,0,1.17,3.51,35.69,35.69,0,0,0,4.78,8,15.32,15.32,0,0,1-8.59-4.09C360.45,371.66,358,366.59,359.57,357.24Z" transform="translate(-9.74 0.19)" fill="url(#b44c6f0d-5bef-484f-8811-dbcd71b3b131)"/><path d="M306.18,665.1a41.24,41.24,0,0,1-6.83-1,19.8,19.8,0,0,1-5-2,13.71,13.71,0,0,1-5.37-5.16,12.7,12.7,0,0,1-.88-9.17,55,55,0,0,1,9.76,9A28.17,28.17,0,0,0,296,653.5a38.12,38.12,0,0,0-6.35-7.12,16.55,16.55,0,0,1,4,.39,13,13,0,0,1,5.17,2C302.28,651.06,305.79,655.64,306.18,665.1Z" transform="translate(-9.74 0.19)" fill="url(#75776305-9bf0-4164-99b2-a6d9b4c094e1)"/><path d="M291.64,619.38a33.3,33.3,0,0,0-3.61,4.38,24.66,24.66,0,0,0-2.44,3.9,14.78,14.78,0,0,0-1.76,6.83,13.09,13.09,0,0,0,3.22,8.58,31.4,31.4,0,0,0,3.51-12.19,15.8,15.8,0,0,1,.2,3.7,25.21,25.21,0,0,1-1.86,9,13.33,13.33,0,0,0,3.32-2,11.48,11.48,0,0,0,3-4.59C296.71,633,296.32,627.47,291.64,619.38Z" transform="translate(-9.74 0.19)" fill="url(#55f70be8-dd02-4dc1-8aa3-fa693578f004)"/><path d="M329.31,656.23c-10.73.29-15.71-2.64-18.15-6a12.67,12.67,0,0,1-2.05-9,49.5,49.5,0,0,1,10.74,7.41,15.91,15.91,0,0,0-2.25-2.93,34.08,34.08,0,0,0-7.12-6,15,15,0,0,1,9.46,1.07C323.65,642.77,327.75,647,329.31,656.23Z" transform="translate(-9.74 0.19)" fill="url(#a0317959-9eb6-4caa-bf32-49c8d3c05658)"/><path d="M308.91,612.75c-5.07,6.43-6.34,12-5.75,16.08a12.69,12.69,0,0,0,4.29,8,37.48,37.48,0,0,0,1.85-12.77,25.8,25.8,0,0,1,.69,3.6,26.6,26.6,0,0,1-.59,9.26,12.83,12.83,0,0,0,5.37-7.41C315.75,625.61,314.58,620.25,308.91,612.75Z" transform="translate(-9.74 0.19)" fill="url(#2bc6fe6a-b68b-4623-ba62-1cb6e5c37139)"/><path d="M350.89,644.14a39.33,39.33,0,0,1-6.84.78,22.33,22.33,0,0,1-5.36-.69,13.84,13.84,0,0,1-6.54-3.6,12.55,12.55,0,0,1-3.23-8.58,55.42,55.42,0,0,1,11.72,6.14,26.29,26.29,0,0,0-2.64-2.63,38,38,0,0,0-8-5.17,16.07,16.07,0,0,1,4-.68,12.58,12.58,0,0,1,5.56.58C343.57,631.56,348.06,635.17,350.89,644.14Z" transform="translate(-9.74 0.19)" fill="url(#25261383-b903-40e6-a857-4185040e75aa)"/><path d="M325,603.78a44.41,44.41,0,0,0-2.34,5.16,35.69,35.69,0,0,0-1.37,4.39,14,14,0,0,0,.1,7,13.57,13.57,0,0,0,5.37,7.51,32.86,32.86,0,0,0,.19-12.77,22.09,22.09,0,0,1,1.17,3.51,25.87,25.87,0,0,1,.59,9.16,15.2,15.2,0,0,0,2.63-2.83,11.49,11.49,0,0,0,1.76-5.26C333.41,615.67,331.56,610.31,325,603.78Z" transform="translate(-9.74 0.19)" fill="url(#02daaccc-afaf-4dbd-b10a-ee5bdec38956)"/><path d="M370.9,629.61c-10.25,3-15.91,1.46-19-1.07a12.65,12.65,0,0,1-4.29-8.09A47.75,47.75,0,0,1,360,624.84a19.16,19.16,0,0,0-2.92-2.25,37,37,0,0,0-8.5-4,14.15,14.15,0,0,1,9.37-1.37C362,618.21,366.9,620.94,370.9,629.61Z" transform="translate(-9.74 0.19)" fill="url(#f1e228e3-9fd8-47ea-b557-e1fd724a31b7)"/><path d="M340,593c-3.31,7.5-3,13.16-1.46,17a12.94,12.94,0,0,0,6.25,6.63,36.28,36.28,0,0,0-1.56-12.77,17,17,0,0,1,1.56,3.31,28.46,28.46,0,0,1,1.85,9.07,13,13,0,0,0,3.32-8.48C349.91,603.68,347.28,598.51,340,593Z" transform="translate(-9.74 0.19)" fill="url(#5efc62d8-4f3a-4b69-a1f4-400bec4e0296)"/><path d="M388.66,612.36c-9.47,4.68-15.52,3.51-19,1.36a12.51,12.51,0,0,1-5.27-7.5A56.49,56.49,0,0,1,377.24,609a20.25,20.25,0,0,0-3.22-1.85,38.61,38.61,0,0,0-3.81-1.46,48.43,48.43,0,0,0-5.17-1.37c1.66-.87,4.88-2.82,9.08-2.63C378.32,602.12,383.59,604.46,388.66,612.36Z" transform="translate(-9.74 0.19)" fill="url(#cc6e7f0b-32fc-4260-a790-06bff0469e2e)"/><path d="M353.23,580.09c-2,8.19-1.37,13.45.78,17.06a12.88,12.88,0,0,0,7.13,5.85A31.6,31.6,0,0,0,358,590.62a24.42,24.42,0,0,1,2.05,3.12,23.41,23.41,0,0,1,1.76,3.8,30.2,30.2,0,0,1,1.27,5,11.74,11.74,0,0,0,2.15-9C364.45,589.35,361.23,584.77,353.23,580.09Z" transform="translate(-9.74 0.19)" fill="url(#b71e4fdc-9d10-448f-ba05-0e2509d2c3d2)"/><path d="M404.18,593.15c-9.08,5.66-14.93,5.46-18.74,3.8a12.44,12.44,0,0,1-6.25-6.72,50.63,50.63,0,0,1,13.08,1.07,28,28,0,0,0-3.41-1.46,38.29,38.29,0,0,0-9.28-1.66,14.78,14.78,0,0,1,8.79-3.7C392.66,584.38,398,585.84,404.18,593.15Z" transform="translate(-9.74 0.19)" fill="url(#046419b2-cd26-4efa-a921-3110d80e60c3)"/><path d="M364.85,565.76c-1.18,8.09.39,13.45,2.92,16.77a13.5,13.5,0,0,0,7.71,4.87,33.65,33.65,0,0,0-4.78-11.89,20.12,20.12,0,0,1,2.44,2.82,26.1,26.1,0,0,1,4.1,8.29,13.29,13.29,0,0,0,1.08-9.07C377.24,573.46,373.34,569.27,364.85,565.76Z" transform="translate(-9.74 0.19)" fill="url(#95ecbcb7-0ab2-4691-aa8f-cb665a20c068)"/><path d="M417,572c-4.1,3.41-7.42,5.36-10.44,6.24a14,14,0,0,1-7.52.09,12.56,12.56,0,0,1-7-5.85,52.13,52.13,0,0,1,5.37-.58,69.76,69.76,0,0,1,7.81,0,25,25,0,0,0-3.61-1,37.38,37.38,0,0,0-9.37-.49c1.36-1.27,3.9-4.1,8.1-4.88C404.28,564.78,410,565.56,417,572Z" transform="translate(-9.74 0.19)" fill="url(#06c4a9b3-062e-4b20-a0be-e896a57098c8)"/><path d="M374.31,549.87a35.49,35.49,0,0,0,1.57,10.23,14.9,14.9,0,0,0,3.61,6,12.93,12.93,0,0,0,8.39,3.8,27.19,27.19,0,0,0-1.95-4.78,38.61,38.61,0,0,0-4.3-6.43,17.47,17.47,0,0,1,2.74,2.44,26.8,26.8,0,0,1,5.17,7.7,11.93,11.93,0,0,0-.29-9.17C387.59,555.91,383.29,552.31,374.31,549.87Z" transform="translate(-9.74 0.19)" fill="url(#8547e3e3-82b4-47a2-abde-f69cb0a51615)"/><path d="M426.93,549.38c-7.23,7.8-13.08,9.16-17.09,8.58a12.81,12.81,0,0,1-7.8-4.87,49.78,49.78,0,0,1,13-2.34,17.66,17.66,0,0,0-3.71-.49,38.24,38.24,0,0,0-9.37.78,14.77,14.77,0,0,1,7.61-5.85C413.46,543.82,419.21,543.92,426.93,549.38Z" transform="translate(-9.74 0.19)" fill="url(#30ca2827-2849-486b-8e6a-24e34ab05922)"/><path d="M381.83,533c1.07,8.19,3.9,12.87,7.22,15.41a12.86,12.86,0,0,0,8.79,2.63,34.37,34.37,0,0,0-7.71-10.24,23.4,23.4,0,0,1,3,2.05,29.73,29.73,0,0,1,6.15,6.92,12.62,12.62,0,0,0-1.27-9C395.79,537.29,390.91,534.27,381.83,533Z" transform="translate(-9.74 0.19)" fill="url(#e56ca9f9-8e9b-47c4-9bfb-257ca2e338a2)"/><path d="M433.76,525.59c-3,4.39-5.76,7.12-8.49,8.68a14.42,14.42,0,0,1-7.23,2.05,12.27,12.27,0,0,1-8.29-3.8,41.87,41.87,0,0,1,5.07-1.95,55.29,55.29,0,0,1,7.52-2.05,17.87,17.87,0,0,0-3.71,0,39.63,39.63,0,0,0-9.18,2.05c1-1.66,2.64-5,6.54-6.83C419.7,521.89,425.46,521.21,433.76,525.59Z" transform="translate(-9.74 0.19)" fill="url(#167a0385-191e-4f53-934a-ee95a5e3c9aa)"/><path d="M386.81,515.36a31.56,31.56,0,0,0,4.2,9.45,13.57,13.57,0,0,0,14.05,6.44,26.94,26.94,0,0,0-3.12-4.1,41.21,41.21,0,0,0-5.86-5.07,20.86,20.86,0,0,1,3.32,1.66,26.56,26.56,0,0,1,7,6,11.9,11.9,0,0,0-2.74-8.78C401.25,517.7,396.18,515.36,386.81,515.36Z" transform="translate(-9.74 0.19)" fill="url(#b017b812-43ec-483c-86d1-c5adef492634)"/><path d="M437.57,501.12c-5.08,9.46-10.25,12.29-14.26,12.68a13,13,0,0,1-8.78-2.63,52,52,0,0,1,11.91-5.66,19.22,19.22,0,0,0-3.71.49,36.86,36.86,0,0,0-8.88,3.22,14.58,14.58,0,0,1,5.76-7.61C423.12,499.37,428.59,497.91,437.57,501.12Z" transform="translate(-9.74 0.19)" fill="url(#131e55e0-170d-4b49-bab9-d791b282fa12)"/><path d="M389.74,497.13c3,7.6,7.12,11.4,10.93,13.06a13.47,13.47,0,0,0,9.17.29,33.83,33.83,0,0,0-10-7.89,19.05,19.05,0,0,1,3.51,1.26,27.35,27.35,0,0,1,7.72,5.07,12.66,12.66,0,0,0-3.62-8.38C404.38,497.62,398.81,495.86,389.74,497.13Z" transform="translate(-9.74 0.19)" fill="url(#5e242a7a-176f-4e3b-849d-45f96205fd38)"/><path d="M438.05,476.46c-3.51,9.94-8.59,13.45-12.59,14.43a12.28,12.28,0,0,1-9.08-1.56,59.52,59.52,0,0,1,11.23-7.12,21.84,21.84,0,0,0-3.61,1,42.48,42.48,0,0,0-8.4,4.29,15.83,15.83,0,0,1,4.69-8.29C423.51,476.56,428.88,474.32,438.05,476.46Z" transform="translate(-9.74 0.19)" fill="url(#50ef0524-652c-45c4-bc92-b8f555483d04)"/><path d="M390,478.61c4.29,7.21,8.49,10.43,12.49,11.5a13.81,13.81,0,0,0,9.18-.88,30.39,30.39,0,0,0-10.93-6.53,17.16,17.16,0,0,1,3.61.78,26.89,26.89,0,0,1,8.29,4.09,11.7,11.7,0,0,0-4.78-7.79C404.57,477.24,399.11,476.27,390,478.61Z" transform="translate(-9.74 0.19)" fill="url(#2ab952ba-4e3a-4a12-ad94-4ba3f47b15c4)"/><path d="M435.32,451.89c-2.34,10.44-6.54,14.43-10.54,15.89a12.76,12.76,0,0,1-9.18-.29A57.57,57.57,0,0,1,425.66,459a20.21,20.21,0,0,0-3.42,1.46,35.15,35.15,0,0,0-7.71,5.36,14.61,14.61,0,0,1,3.51-8.77C421,453.84,425.85,451,435.32,451.89Z" transform="translate(-9.74 0.19)" fill="url(#46002eab-015c-477b-aaab-e951aee61882)"/><path d="M388.08,460.28a29.12,29.12,0,0,0,7.42,7.11A15.75,15.75,0,0,0,402,470a13.09,13.09,0,0,0,9-2,32.74,32.74,0,0,0-11.82-5.07,17.12,17.12,0,0,1,3.71.29,31.94,31.94,0,0,1,8.89,2.93A13.08,13.08,0,0,0,406,459C402.33,457.06,396.57,456.77,388.08,460.28Z" transform="translate(-9.74 0.19)" fill="url(#102a6e8c-0030-4fc3-b712-5aeeb2f7d84c)"/><path d="M429.37,427.91a27.73,27.73,0,0,1-3.13,11.8,12.9,12.9,0,0,1-5.07,5.36A12.66,12.66,0,0,1,412,446a50.32,50.32,0,0,1,8.88-9.75,28.7,28.7,0,0,0-3.22,1.85,35.55,35.55,0,0,0-6.93,6.34,15.22,15.22,0,0,1,2.35-9.17C415.31,431.71,419.9,428.21,429.37,427.91Z" transform="translate(-9.74 0.19)" fill="url(#74841e34-19e0-4ad2-a03a-809d552e306a)"/><path d="M383.59,442.34a38.58,38.58,0,0,0,8.2,6.14,15.42,15.42,0,0,0,6.93,1.76,13.1,13.1,0,0,0,8.59-3.22,36,36,0,0,0-12.4-3.51,16.37,16.37,0,0,1,3.71-.19,28.62,28.62,0,0,1,9.08,1.75,12.34,12.34,0,0,0-6.64-6.34C397.25,437.27,391.69,437.76,383.59,442.34Z" transform="translate(-9.74 0.19)" fill="url(#128bd010-a1d9-4cf0-9b28-8a0a51b2daa1)"/><path d="M420.39,404.81c.58,10.62-2.64,15.69-6,18.13a12.81,12.81,0,0,1-9,2.05A54.46,54.46,0,0,1,413,414.17a15.52,15.52,0,0,0-2.93,2.24,38.47,38.47,0,0,0-6.05,7.21,15.69,15.69,0,0,1,1.07-9.45C407,410.46,411.11,406.37,420.39,404.81Z" transform="translate(-9.74 0.19)" fill="url(#b462bc48-d54a-4f68-b2f9-39d3c85dcd89)"/><path d="M377,425.18c6.64,5,11.91,6.34,16,5.85a13.35,13.35,0,0,0,8.1-4.29,34.23,34.23,0,0,0-12.69-1.85,27.38,27.38,0,0,1,3.61-.68,26.65,26.65,0,0,1,9.27.58,11.8,11.8,0,0,0-7.41-5.36C389.83,418.36,384.37,419.53,377,425.18Z" transform="translate(-9.74 0.19)" fill="url(#d995a31d-f8fc-4ac8-a5b7-f0ab19bc99d5)"/><path d="M408.38,383.17c1.85,10.43-.49,15.89-3.51,18.71a12.62,12.62,0,0,1-8.59,3.22,50.87,50.87,0,0,1,6.05-11.7,18.13,18.13,0,0,0-2.64,2.63,33.77,33.77,0,0,0-5.07,7.9,14.29,14.29,0,0,1-.1-9.46C395.79,390.48,399.4,386,408.38,383.17Z" transform="translate(-9.74 0.19)" fill="url(#ae7773e4-248e-43d6-855a-79ce9c6b9e18)"/><path d="M368,409c7.22,4.09,12.79,4.68,16.69,3.61a13.65,13.65,0,0,0,7.52-5.36,33.75,33.75,0,0,0-12.89-.1,22.51,22.51,0,0,1,3.52-1.17,26.19,26.19,0,0,1,9.27-.68,12.89,12.89,0,0,0-8-4.39C379.88,400.62,374.51,402.47,368,409Z" transform="translate(-9.74 0.19)" fill="url(#90f229be-f898-4482-9a8e-0e812f7cc006)"/><path d="M393.74,363.28A48.76,48.76,0,0,1,395.4,370a25.16,25.16,0,0,1,0,5.36,12.89,12.89,0,0,1-2.74,6.92,12.65,12.65,0,0,1-8.1,4.29,53.37,53.37,0,0,1,4.49-12.38,19.61,19.61,0,0,0-2.24,2.92,35.61,35.61,0,0,0-4,8.58,15.43,15.43,0,0,1-1.27-3.8,14.88,14.88,0,0,1-.1-5.56C382.22,372.25,385.15,367.18,393.74,363.28Z" transform="translate(-9.74 0.19)" fill="url(#5283b6ec-e85e-4dc9-9049-e200a813b39a)"/><path d="M357,394.18a35.41,35.41,0,0,0,5.46,1.76,28.63,28.63,0,0,0,4.59.78,15.34,15.34,0,0,0,7-1.08,13.6,13.6,0,0,0,6.73-6.23,35.06,35.06,0,0,0-12.69,1.46,21.2,21.2,0,0,1,3.32-1.66,30.52,30.52,0,0,1,9.08-1.85,14.08,14.08,0,0,0-3.22-2.15,11.48,11.48,0,0,0-5.37-1.07C367.68,384.34,362.7,386.87,357,394.18Z" transform="translate(-9.74 0.19)" fill="url(#9105cdb4-71c5-4ea4-aa5e-1315e6cd5d07)"/><path d="M361.23,357.24a29.89,29.89,0,0,1,10.94,5.36,13.24,13.24,0,0,1,4.19,6.14,12.69,12.69,0,0,1-1,9.06,53.84,53.84,0,0,1-7.71-10.62,23,23,0,0,0,1.17,3.51,35.69,35.69,0,0,0,4.78,8,15.32,15.32,0,0,1-8.59-4.09C362.21,371.66,359.77,366.59,361.23,357.24Z" transform="translate(-9.74 0.19)" fill="url(#da128dd1-cdc0-45d2-8e9a-0bebaa294562)"/><path d="M126,379.66s-.88,1.17-2.54,3.31-4,5.36-6.83,9.65a180.83,180.83,0,0,0-9.27,15.8,173.86,173.86,0,0,0-9.28,21.83,161.57,161.57,0,0,0-6.83,27.1,169.84,169.84,0,0,0-2,31.1A163.65,163.65,0,0,0,144.63,608,164.85,164.85,0,0,0,195,638.68a176.74,176.74,0,0,0,22.75,6.82c3.41.78,6.73,1.37,9.76,1.85s5.85.88,8.29,1.17,4.79.39,6.74.59,3.61.19,5,.29v.1c-1.37,0-3,0-5.08-.1s-4.29-.29-6.83-.39-5.37-.58-8.4-1-6.34-1-9.85-1.66a168.9,168.9,0,0,1-23-6.43A164.38,164.38,0,0,1,143,609.63a159.79,159.79,0,0,1-23-24.76,157.31,157.31,0,0,1-18-29.93,162.78,162.78,0,0,1-11.13-33.05,165.82,165.82,0,0,1-4-33.54,163.83,163.83,0,0,1,9.76-58.78A159.33,159.33,0,0,1,116,392.23c2.93-4.19,5.37-7.31,7.13-9.45C125.11,380.73,126,379.66,126,379.66Z" transform="translate(-9.74 0.19)" fill="url(#a86c2dd9-adc9-4e4b-bf10-82b3bc6985b6)"/><path d="M124.62,379.66s-.87,1.17-2.53,3.31-4,5.36-6.84,9.65a180.83,180.83,0,0,0-9.27,15.8,172.43,172.43,0,0,0-9.27,21.83,161.57,161.57,0,0,0-6.83,27.1,168.09,168.09,0,0,0-2,31.1A163.54,163.54,0,0,0,143.27,608a164.62,164.62,0,0,0,50.37,30.71,176.63,176.63,0,0,0,22.74,6.82c3.42.78,6.73,1.37,9.76,1.85s5.86.88,8.3,1.17,4.78.39,6.73.59,3.61.19,5,.29c2.73.1,4.2.2,4.2.2h-4.2c-1.37,0-3,0-5.08-.1s-4.29-.29-6.83-.39-5.37-.59-8.39-1-6.35-1-9.86-1.65A168,168,0,0,1,193,640a164.11,164.11,0,0,1-51.34-30.32,159.34,159.34,0,0,1-23-24.76,156.69,156.69,0,0,1-18-29.93,162.49,162.49,0,0,1-11.13-33,167.26,167.26,0,0,1-4-33.54,163.79,163.79,0,0,1,9.76-58.78A159.33,159.33,0,0,1,105,407.93a155.77,155.77,0,0,1,9.67-15.6c2.93-4.19,5.37-7.31,7.12-9.46S124.62,379.66,124.62,379.66Z" transform="translate(-9.74 0.19)" fill="url(#8466e203-d23f-457c-b4d0-5c17328c75ba)"/><path d="M374.7,379.66s.88,1.17,2.54,3.31,4,5.36,6.83,9.65a178.17,178.17,0,0,1,9.28,15.8,172.43,172.43,0,0,1,9.27,21.83,161.57,161.57,0,0,1,6.83,27.1,168.09,168.09,0,0,1,2.05,31.1A163.54,163.54,0,0,1,356.06,608a164.62,164.62,0,0,1-50.37,30.71A176.63,176.63,0,0,1,283,645.5c-3.42.78-6.74,1.37-9.76,1.85s-5.86.88-8.3,1.17-4.78.39-6.73.59-3.62.19-5,.29v.1c1.36,0,3,0,5.07-.1s4.3-.29,6.84-.39,5.37-.58,8.39-1,6.35-1,9.86-1.66a169.29,169.29,0,0,0,23-6.43,164.61,164.61,0,0,0,51.34-30.32,159.79,159.79,0,0,0,23-24.76,157.83,157.83,0,0,0,18-29.93,162.75,162.75,0,0,0,11.12-33.05,166.56,166.56,0,0,0,4-33.54,164,164,0,0,0-9.76-58.78,158.09,158.09,0,0,0-9.77-21.74,155.2,155.2,0,0,0-9.66-15.6c-2.93-4.19-5.37-7.31-7.13-9.45C375.58,380.73,374.7,379.66,374.7,379.66Z" transform="translate(-9.74 0.19)" fill="url(#f1c8c590-b233-49f9-853d-78d336e99329)"/><path d="M376.17,379.66s.88,1.17,2.54,3.31,4,5.36,6.83,9.65a180.83,180.83,0,0,1,9.27,15.8,173.86,173.86,0,0,1,9.28,21.83,161.57,161.57,0,0,1,6.83,27.1,169.84,169.84,0,0,1,2.05,31.1,165.76,165.76,0,0,1-32.8,95.05A159.47,159.47,0,0,1,357.52,608a164.7,164.7,0,0,1-50.36,30.71,176.74,176.74,0,0,1-22.75,6.82c-3.41.78-6.73,1.37-9.76,1.85s-5.85.88-8.29,1.17-4.79.39-6.74.59-3.61.19-5,.29c-2.73.1-4.19.2-4.19.2h4.19c1.37,0,3,0,5.08-.1s4.29-.29,6.83-.39,5.37-.59,8.4-1,6.34-1,9.85-1.65a168,168,0,0,0,23-6.44,164,164,0,0,0,51.34-30.32,159.34,159.34,0,0,0,23-24.76,156.69,156.69,0,0,0,18-29.93,162.49,162.49,0,0,0,11.13-33,165.82,165.82,0,0,0,4-33.54,163.79,163.79,0,0,0-9.76-58.78,158.12,158.12,0,0,0-9.76-21.74,155.77,155.77,0,0,0-9.67-15.6c-2.92-4.19-5.36-7.31-7.12-9.46C377.05,380.73,376.17,379.66,376.17,379.66Z" transform="translate(-9.74 0.19)" fill="url(#52b0ba46-c351-483a-8165-e8fb69f6b348)"/></g><line x1="261.44" y1="0.27" x2="300.81" y2="0.18" fill="url(#71307571-1dae-4d2e-b4c1-0c6f7b032ef5)"/><polygon points="261.44 0.27 181.89 230.54 221.27 230.54 300.81 0.18 261.44 0.27" fill="url(#662c17e3-4fee-44ce-ad55-830fdd18951c)"/><polygon points="221.27 230.54 260.56 230.54 340.17 0.09 300.81 0.18 221.27 230.54" fill="url(#6bbf1583-0b96-4c7f-9793-2aa2b5d61f97)"/><line x1="300.81" y1="0.18" x2="340.17" y2="0.09" fill="url(#31c633cf-30f9-4b4a-a62d-18712f200e9f)"/><polygon points="260.56 230.54 299.94 230.54 379.53 0 340.17 0.09 260.56 230.54" fill="url(#124130fc-9a74-47ee-acdd-bf7c072f19b7)"/><line x1="340.17" y1="0.09" x2="379.53" fill="url(#335ad8e0-cf77-49ef-8b7f-7761409c4748)"/><g id="83381d97-69ca-4ad4-a4a6-e56b9cd6f559" data-name="icon layer"><g id="a485d1f6-f300-48eb-b896-e83bab96c240" data-name="owl"><path d="M226.54,558.58a3,3,0,0,0-3,3v.49a3.05,3.05,0,0,1-2.78,3l-26.85,2.24a9.07,9.07,0,0,0-7.88,6.19l-1.77,5.31a3,3,0,0,0,1.92,3.84,3.2,3.2,0,0,0,1,.15,3,3,0,0,0,2.87-2.07l1.77-5.31a3,3,0,0,1,2.63-2.06l1.83-.15v6.56a3,3,0,0,0,6.07,0v-7.07l3.45-.29,2.77,8.32a3.05,3.05,0,0,0,2.88,2.08,3.22,3.22,0,0,0,1-.16,3,3,0,0,0,1.92-3.84l-2.31-6.92,9.29-.77a9.15,9.15,0,0,0,8.34-9.07v-.49A3,3,0,0,0,226.54,558.58Z" transform="translate(-9.74 0.19)" fill="url(#faaa31f6-691f-4233-a5e6-97ed8fc51b50)"/><path d="M269,558.58a3,3,0,0,1,3,3v.49a3.05,3.05,0,0,0,2.78,3l26.86,2.24a9.09,9.09,0,0,1,7.88,6.19l1.77,5.31a3,3,0,0,1-1.92,3.84,3.2,3.2,0,0,1-1,.15,3,3,0,0,1-2.88-2.07l-1.77-5.31a3,3,0,0,0-2.62-2.06l-1.83-.15v6.56a3,3,0,0,1-6.07,0v-7.07l-3.45-.29-2.78,8.32a3,3,0,0,1-2.87,2.08,3.22,3.22,0,0,1-1-.16,3,3,0,0,1-1.92-3.84l2.31-6.92-9.29-.77A9.16,9.16,0,0,1,266,562.1v-.49A3,3,0,0,1,269,558.58Z" transform="translate(-9.74 0.19)" fill="url(#884116aa-b702-4913-8792-f083f8505592)"/><ellipse cx="238.04" cy="496.57" rx="72.82" ry="74.34" fill="url(#c7b3ade1-6af6-49c4-a77a-ea82ef1a9ac8)"/><ellipse cx="238.04" cy="499.6" rx="48.55" ry="65.23" fill="url(#bdb832d9-f04e-4b85-b872-50213c2d2f33)"/><path d="M329.7,443.28l-9.65,9.66a41.55,41.55,0,0,0,.55-6.62c0-30.16-32.61-54.62-72.82-54.62S175,416.16,175,446.32a41.55,41.55,0,0,0,.55,6.62l-9.65-9.66s-11,27.44-12.05,45.79a2.6,2.6,0,0,0,2.59,2.76h6.42v6.71a2.59,2.59,0,0,0,2.43,2.59c7.08.47,28.62,1.15,50.52-5.75-1.37-.52,32-15.69,32-15.69s30.34,15.17,32,15.69c21.89,6.9,43.43,6.22,50.52,5.75a2.59,2.59,0,0,0,2.42-2.59v-6.71h6.43a2.6,2.6,0,0,0,2.59-2.76C340.67,470.72,329.7,443.28,329.7,443.28Z" transform="translate(-9.74 0.19)" fill="url(#3a1dd8c4-5125-4fea-af9b-4f0eade21e36)"/><path d="M319.78,415.11c10.32-5.79,14-13.87,15.28-18.87a2.44,2.44,0,0,0-3.22-2.88c-23.28,8.17-61.19-3.62-80.21,28.6a4.45,4.45,0,0,1-7.7,0c-19-32.22-56.93-20.43-80.21-28.6a2.44,2.44,0,0,0-3.22,2.88c1.29,5,4.95,13.08,15.27,18.87a3,3,0,0,1,.68,4.82,45.5,45.5,0,1,0,71.33,55.14,45.5,45.5,0,1,0,71.33-55.14A3,3,0,0,1,319.78,415.11Z" transform="translate(-9.74 0.19)" fill="url(#588bf9ce-a130-4c70-beb1-d08431b5c7e5)"/><circle cx="198.6" cy="452.57" r="30.34" fill="url(#0f5e6ec1-5138-4c62-9609-8fb2c25e3d73)"/><circle cx="198.6" cy="452.57" r="21.24" fill="url(#db7a101f-7bce-41cc-8627-fbf7ea55904b)"/><path d="M249.77,498.66l6-16.08a4.79,4.79,0,0,0-1.1-5.07l-2.63-2.63a6.07,6.07,0,0,0-8.58,0l-2.63,2.63a4.79,4.79,0,0,0-1.1,5.07l6,16.08A2.12,2.12,0,0,0,249.77,498.66Z" transform="translate(-9.74 0.19)" fill="url(#c1df9e02-4ce4-4628-ba52-83c0119fef35)"/><path d="M208.33,467.56h0a12.14,12.14,0,0,1-12.13-12.14v-6.07a12.14,12.14,0,0,1,12.13-12.14h0a12.14,12.14,0,0,1,12.14,12.14v6.07A12.14,12.14,0,0,1,208.33,467.56Z" transform="translate(-9.74 0.19)" fill="url(#f0a9d04a-0732-479e-a694-8d67dd66ae51)"/><circle cx="200.11" cy="448.02" r="4.55" fill="url(#0081138e-0f91-4b4d-8d3d-514f795dfa03)"/><circle cx="277.48" cy="452.57" r="30.34" fill="url(#0a1175d5-d5a6-4a2d-85c8-ded12a25d2f0)"/><circle cx="277.48" cy="452.57" r="21.24" fill="url(#58af70dc-c85d-4d78-b872-c9e5b9c0cbd0)"/><path d="M287.22,467.56h0a12.15,12.15,0,0,1-12.14-12.14v-6.07a12.15,12.15,0,0,1,12.14-12.14h0a12.15,12.15,0,0,1,12.14,12.14v6.07A12.15,12.15,0,0,1,287.22,467.56Z" transform="translate(-9.74 0.19)" fill="url(#20f8fc35-8b10-4e21-a099-daa6561ccf11)"/><circle cx="279" cy="448.02" r="4.55" fill="url(#af5d1db0-5285-4e1e-952a-b0c045b6ea1d)"/></g></g></svg>