<svg id="832b3f2a-6ee5-43e7-8765-af940da64450" data-name="Layer 1" xmlns="http://www.w3.org/2000/svg" xmlns:xlink="http://www.w3.org/1999/xlink" viewBox="0 0 480.61 725.53"><defs><linearGradient id="b7daf213-e8bd-4c6d-871f-4aeec7a43bac" x1="101.9" y1="115.54" x2="220.66" y2="115.54" gradientUnits="userSpaceOnUse"><stop offset="0" stop-color="#ed9898"/><stop offset="1" stop-color="#be747b"/></linearGradient><linearGradient id="d77bce40-5675-490f-8d2d-1a1862275d15" x1="101.9" y1="0.58" x2="141.21" y2="0.58" gradientUnits="userSpaceOnUse"><stop offset="0" stop-color="#ed2526"/><stop offset="1" stop-color="#be1e2d"/></linearGradient><linearGradient id="1f7cfd57-b858-48d1-8aac-6d67e46d5dd5" x1="141.21" y1="0.49" x2="180.51" y2="0.49" gradientUnits="userSpaceOnUse"><stop offset="0" stop-color="#fff"/><stop offset="1" stop-color="#bbbdbf"/></linearGradient><linearGradient id="de849a37-679f-496c-88e9-1b7c7b29485a" x1="141.21" y1="115.5" x2="259.95" y2="115.5" xlink:href="#1f7cfd57-b858-48d1-8aac-6d67e46d5dd5"/><linearGradient id="06984f2f-78e2-46a3-8e79-16a6c5ca72e7" x1="180.51" y1="115.45" x2="299.33" y2="115.45" gradientUnits="userSpaceOnUse"><stop offset="0" stop-color="#3c92a5"/><stop offset="1" stop-color="#28628f"/></linearGradient><linearGradient id="5d345225-9d12-4b2d-8d2d-d9a68c597e80" x1="180.51" y1="0.4" x2="219.81" y2="0.4" gradientUnits="userSpaceOnUse"><stop offset="0" stop-color="#3c56a5"/><stop offset="1" stop-color="#2b388f"/></linearGradient><linearGradient id="1dd734da-17dd-4031-ab42-c3dde0dde4fc" x1="199.91" y1="585.11" x2="299.57" y2="411.07" gradientTransform="matrix(1, 0, 0, -1, 0, 750)" gradientUnits="userSpaceOnUse"><stop offset="0" stop-color="#dad7c7"/><stop offset="0.44" stop-color="#dddddc"/><stop offset="1" stop-color="#7e7e7e"/></linearGradient><linearGradient id="2808d8ec-341d-44e5-9fc5-555ed9ebba60" x1="196.6" y1="593.15" x2="302.61" y2="408.03" gradientTransform="matrix(1, 0, 0, -1, 0, 750)" gradientUnits="userSpaceOnUse"><stop offset="0" stop-color="#f6f6f5"/><stop offset="0.37" stop-color="#f9fafb"/><stop offset="0.53" stop-color="#f9f9f9"/><stop offset="1" stop-color="#bab9b7"/></linearGradient><linearGradient id="7d1f7721-61b6-4082-94d9-35d83214a8ad" x1="213.37" y1="564.23" x2="284.11" y2="440.69" gradientTransform="matrix(1, 0, 0, -1, 0, 750)" gradientUnits="userSpaceOnUse"><stop offset="0" stop-color="#f9fafb"/><stop offset="0.37" stop-color="#fafbfb"/><stop offset="0.53" stop-color="#f9f9f9"/><stop offset="1" stop-color="#fbf8f1"/></linearGradient><linearGradient id="37397c81-b2d6-4896-87f1-e4aa44c43d29" x1="222.77" y1="552.92" x2="276.62" y2="458.88" xlink:href="#7d1f7721-61b6-4082-94d9-35d83214a8ad"/><linearGradient id="7539eeac-07e9-47af-9354-d809f166f6d8" x1="113.88" y1="462.58" x2="399.16" y2="50.4" gradientTransform="matrix(1, 0, 0, -1, -10.35, 750.19)" xlink:href="#1dd734da-17dd-4031-ab42-c3dde0dde4fc"/><linearGradient id="1b58600b-b063-40b5-8873-fa5429266bde" x1="136.57" y1="567.61" x2="282.76" y2="179.8" gradientTransform="matrix(1, 0, 0, -1, -10.35, 750.19)" xlink:href="#2808d8ec-341d-44e5-9fc5-555ed9ebba60"/><linearGradient id="4331adf9-0a31-43d7-851c-2a60587fd741" x1="84.41" y1="431.86" x2="418.06" y2="98.21" xlink:href="#7d1f7721-61b6-4082-94d9-35d83214a8ad"/><linearGradient id="5c8b1046-8ccb-4fec-9f68-61ca6d1dadfa" x1="187.32" y1="472.96" x2="297.98" y2="109.52" gradientTransform="matrix(1, 0, 0, -1, -10.35, 750.19)" gradientUnits="userSpaceOnUse"><stop offset="0" stop-color="#a7a49c"/><stop offset="0.58" stop-color="#f9fafb"/><stop offset="0.78" stop-color="#f9fafb"/><stop offset="1" stop-color="#f6f6f5"/></linearGradient><linearGradient id="92ddb65a-7a1e-4522-80b0-adfcff82c7eb" x1="172.01" y1="513.22" x2="308.05" y2="83.79" gradientTransform="matrix(1, 0, 0, -1, -10.35, 750.19)" gradientUnits="userSpaceOnUse"><stop offset="0" stop-color="#eae5d1"/><stop offset="0.31" stop-color="#f1f1f1"/><stop offset="0.56" stop-color="#e0e0e0"/><stop offset="1" stop-color="#b0afad"/></linearGradient><linearGradient id="188c3448-935d-438e-b9d8-1ae4380ce410" x1="43.16" y1="264.92" x2="458.16" y2="264.92" gradientTransform="matrix(1, 0, 0, -1, 0, 750)" gradientUnits="userSpaceOnUse"><stop offset="0" stop-color="#f9fafb"/><stop offset="0.37" stop-color="#fafbfb"/><stop offset="0.53" stop-color="#f9f9f9"/><stop offset="1" stop-color="#fbf8f0"/></linearGradient><linearGradient id="6b137a41-16a5-433c-9ffb-0a62ab8f6313" x1="205.85" y1="84.97" x2="205.85" y2="103.66" gradientTransform="matrix(1, 0, 0, -1, 0, 750)" gradientUnits="userSpaceOnUse"><stop offset="0" stop-color="#818282"/><stop offset="1" stop-color="#a9aaaa"/></linearGradient><linearGradient id="ff117e85-5dc8-4e91-a35c-6c3a89f81c06" x1="212.86" y1="106.48" x2="212.86" y2="130.66" xlink:href="#6b137a41-16a5-433c-9ffb-0a62ab8f6313"/><linearGradient id="5adaaf15-6ccc-466d-9b70-f36a8aa24118" x1="183.67" y1="93.86" x2="183.67" y2="110.64" xlink:href="#6b137a41-16a5-433c-9ffb-0a62ab8f6313"/><linearGradient id="51c67b36-2e53-46af-ac0e-18533d526426" x1="193.79" y1="113.04" x2="193.79" y2="137.28" xlink:href="#6b137a41-16a5-433c-9ffb-0a62ab8f6313"/><linearGradient id="bfb57896-a2c7-4c05-ba46-daa028cccab0" x1="162.93" y1="105.13" x2="162.93" y2="120.42" xlink:href="#6b137a41-16a5-433c-9ffb-0a62ab8f6313"/><linearGradient id="34697b6f-3bcb-4b4d-ad94-7b9bfe7ae62c" x1="175.88" y1="122.18" x2="175.88" y2="146.29" xlink:href="#6b137a41-16a5-433c-9ffb-0a62ab8f6313"/><linearGradient id="53c3bbc9-04b8-4407-b3eb-cfbb94445440" x1="143.72" y1="118.79" x2="143.72" y2="133.1" xlink:href="#6b137a41-16a5-433c-9ffb-0a62ab8f6313"/><linearGradient id="d30dd48c-43cf-45d0-9ef1-cb4bba2d6db5" x1="159.14" y1="133.5" x2="159.14" y2="157.14" xlink:href="#6b137a41-16a5-433c-9ffb-0a62ab8f6313"/><linearGradient id="b3cee476-680a-4aa4-9a92-a4ffa9e6a1f3" x1="126.43" y1="134.41" x2="126.43" y2="148.2" xlink:href="#6b137a41-16a5-433c-9ffb-0a62ab8f6313"/><linearGradient id="735f923d-7e9c-40ac-837d-d87a2d940e0c" x1="144.27" y1="147.14" x2="144.27" y2="170.02" xlink:href="#6b137a41-16a5-433c-9ffb-0a62ab8f6313"/><linearGradient id="4baf51c5-df49-4c9f-8146-343b51458cb3" x1="111.24" y1="152.04" x2="111.24" y2="165.45" xlink:href="#6b137a41-16a5-433c-9ffb-0a62ab8f6313"/><linearGradient id="8682a9f6-c2c4-4323-9215-5e515e64eb49" x1="131.28" y1="162.74" x2="131.28" y2="184.35" xlink:href="#6b137a41-16a5-433c-9ffb-0a62ab8f6313"/><linearGradient id="734b4fa7-9dd5-47da-82cb-98b558289991" x1="98.54" y1="171.32" x2="98.54" y2="184.75" xlink:href="#6b137a41-16a5-433c-9ffb-0a62ab8f6313"/><linearGradient id="09ffae42-1a6e-4b4c-8d47-2c35443d965f" x1="120.59" y1="180.11" x2="120.59" y2="200.19" xlink:href="#6b137a41-16a5-433c-9ffb-0a62ab8f6313"/><linearGradient id="2a1a0c5b-6791-4550-a71b-26f6b1685bb0" x1="88.48" y1="191.99" x2="88.48" y2="205.58" xlink:href="#6b137a41-16a5-433c-9ffb-0a62ab8f6313"/><linearGradient id="6ebf33b6-4fbd-4cac-a7bd-0f74d897232e" x1="112.24" y1="198.9" x2="112.24" y2="217.03" xlink:href="#6b137a41-16a5-433c-9ffb-0a62ab8f6313"/><linearGradient id="c227937a-dd5b-429c-855f-e059f7063f70" x1="81.44" y1="213.74" x2="81.44" y2="227.77" xlink:href="#6b137a41-16a5-433c-9ffb-0a62ab8f6313"/><linearGradient id="116aa4a9-8b74-4232-9d0e-0404da18cd5a" x1="106.12" y1="218.65" x2="106.12" y2="234.75" xlink:href="#6b137a41-16a5-433c-9ffb-0a62ab8f6313"/><linearGradient id="b9a2091f-9777-444a-a1e5-14a91e4a8ecb" x1="77.32" y1="236.17" x2="77.32" y2="250.84" xlink:href="#6b137a41-16a5-433c-9ffb-0a62ab8f6313"/><linearGradient id="161d938d-838a-499a-b23f-90bb3fc8acc1" x1="102.66" y1="238.95" x2="102.66" y2="253.35" xlink:href="#6b137a41-16a5-433c-9ffb-0a62ab8f6313"/><linearGradient id="addd6c09-abc3-4d24-ad64-47d578612445" x1="76.12" y1="258.91" x2="76.12" y2="274.44" xlink:href="#6b137a41-16a5-433c-9ffb-0a62ab8f6313"/><linearGradient id="f74d0b04-5798-4898-a58f-5fbccc6cce50" x1="101.61" y1="259.49" x2="101.61" y2="272.8" xlink:href="#6b137a41-16a5-433c-9ffb-0a62ab8f6313"/><linearGradient id="e7ca05c6-885d-4d71-8b5c-afb94268a2b3" x1="77.94" y1="281.52" x2="77.94" y2="298.33" xlink:href="#6b137a41-16a5-433c-9ffb-0a62ab8f6313"/><linearGradient id="299d673c-f515-4ef3-8735-f9471034ac25" x1="103.1" y1="279.91" x2="103.1" y2="292.5" xlink:href="#6b137a41-16a5-433c-9ffb-0a62ab8f6313"/><linearGradient id="166f48aa-7e54-406c-ba55-77d07740d1cd" x1="82.95" y1="303.68" x2="82.95" y2="322.17" xlink:href="#6b137a41-16a5-433c-9ffb-0a62ab8f6313"/><linearGradient id="9c50ab41-4ea2-45a6-86f5-7e5db6b38f38" x1="107.22" y1="299.86" x2="107.22" y2="312.03" xlink:href="#6b137a41-16a5-433c-9ffb-0a62ab8f6313"/><linearGradient id="82a42eb5-195f-4e12-851f-5407af6f3879" x1="90.84" y1="324.95" x2="90.84" y2="345.26" xlink:href="#6b137a41-16a5-433c-9ffb-0a62ab8f6313"/><linearGradient id="a0858294-09de-41fa-92fb-d7fc94e0c41f" x1="113.87" y1="318.94" x2="113.87" y2="331.01" xlink:href="#6b137a41-16a5-433c-9ffb-0a62ab8f6313"/><linearGradient id="e5e96e83-a9dc-4136-8ba6-8eb7a8b4accc" x1="101.51" y1="344.95" x2="101.51" y2="366.88" xlink:href="#6b137a41-16a5-433c-9ffb-0a62ab8f6313"/><linearGradient id="c3217f82-80c9-4137-834c-7a789576760d" x1="122.83" y1="336.9" x2="122.83" y2="349.08" xlink:href="#6b137a41-16a5-433c-9ffb-0a62ab8f6313"/><linearGradient id="161e08a8-79ec-4883-8d6b-39ffd970c1f7" x1="114.58" y1="363.43" x2="114.58" y2="386.76" xlink:href="#6b137a41-16a5-433c-9ffb-0a62ab8f6313"/><linearGradient id="32b21ffb-d0ba-4f86-aad8-ab127c638d6e" x1="133.95" y1="353.32" x2="133.95" y2="365.88" xlink:href="#6b137a41-16a5-433c-9ffb-0a62ab8f6313"/><linearGradient id="4bb85fae-a592-419c-aea8-1021cf9296e4" x1="134.05" y1="371.2" x2="134.05" y2="392.81" xlink:href="#6b137a41-16a5-433c-9ffb-0a62ab8f6313"/><linearGradient id="546e4b09-0bd7-4a9f-b285-9611657bbf08" x1="32.26" y1="394.01" x2="233.39" y2="42.02" gradientTransform="matrix(1, 0, 0, -1, 0, 750)" gradientUnits="userSpaceOnUse"><stop offset="0" stop-color="#f9fafb"/><stop offset="0.53" stop-color="#f9f9f9"/><stop offset="1" stop-color="#fbf5eb"/></linearGradient><linearGradient id="02473422-158a-4c75-95ca-d9ff00ea7919" x1="47.75" y1="402.86" x2="248.88" y2="50.88" xlink:href="#546e4b09-0bd7-4a9f-b285-9611657bbf08"/><linearGradient id="2d1480aa-2ec4-459c-b534-ff9e5e11d0ed" x1="19.05" y1="386.47" x2="220.19" y2="34.48" xlink:href="#546e4b09-0bd7-4a9f-b285-9611657bbf08"/><linearGradient id="3ca8bdac-9cde-4a7c-8795-c6d4a366e039" x1="36.36" y1="396.35" x2="237.49" y2="44.37" xlink:href="#546e4b09-0bd7-4a9f-b285-9611657bbf08"/><linearGradient id="1bfa4be3-f7da-4654-98a7-571d59535106" x1="7.98" y1="380.14" x2="209.12" y2="28.15" xlink:href="#546e4b09-0bd7-4a9f-b285-9611657bbf08"/><linearGradient id="5254f68d-8df2-4084-886b-2889a112f759" x1="27.02" y1="391.02" x2="228.15" y2="39.03" xlink:href="#546e4b09-0bd7-4a9f-b285-9611657bbf08"/><linearGradient id="bb1d7cdd-9b11-4e0a-a634-887dc64f8e12" x1="-0.8" y1="375.12" x2="200.34" y2="23.13" xlink:href="#546e4b09-0bd7-4a9f-b285-9611657bbf08"/><linearGradient id="8a8939ba-b09b-42c1-89e6-29cf1f2f803e" x1="19.7" y1="386.84" x2="220.84" y2="34.85" xlink:href="#546e4b09-0bd7-4a9f-b285-9611657bbf08"/><linearGradient id="100d82bb-d253-48a3-902b-5069be5c4209" x1="-7.06" y1="371.55" x2="194.08" y2="19.56" xlink:href="#546e4b09-0bd7-4a9f-b285-9611657bbf08"/><linearGradient id="83b70207-79bc-4df9-8ce6-95b1bcb10c75" x1="14.45" y1="383.84" x2="215.59" y2="31.85" xlink:href="#546e4b09-0bd7-4a9f-b285-9611657bbf08"/><linearGradient id="0aeedd24-c1fa-4631-aea7-197dbfb7a38c" x1="-10.8" y1="369.41" x2="190.34" y2="17.42" xlink:href="#546e4b09-0bd7-4a9f-b285-9611657bbf08"/><linearGradient id="52c2b2c8-8d52-40ff-9350-2657b3765fda" x1="11.27" y1="382.02" x2="212.4" y2="30.03" xlink:href="#546e4b09-0bd7-4a9f-b285-9611657bbf08"/><linearGradient id="134c7cc6-35b2-4f47-9695-422a49da312a" x1="-11.84" y1="368.81" x2="189.29" y2="16.83" xlink:href="#546e4b09-0bd7-4a9f-b285-9611657bbf08"/><linearGradient id="3ebd9f1a-1783-46f6-994a-542a24267296" x1="10.25" y1="381.44" x2="211.39" y2="29.45" xlink:href="#546e4b09-0bd7-4a9f-b285-9611657bbf08"/><linearGradient id="3ca7bd62-678b-4ae2-a701-8c50f2403ddd" x1="-10.29" y1="369.7" x2="190.84" y2="17.71" xlink:href="#546e4b09-0bd7-4a9f-b285-9611657bbf08"/><linearGradient id="bfaee8a7-d4dc-4af7-bcef-8253e752d8f2" x1="11.5" y1="382.15" x2="212.64" y2="30.17" xlink:href="#546e4b09-0bd7-4a9f-b285-9611657bbf08"/><linearGradient id="401411dd-506d-496e-bb94-b688a139efcc" x1="-6.05" y1="372.12" x2="195.09" y2="20.14" xlink:href="#546e4b09-0bd7-4a9f-b285-9611657bbf08"/><linearGradient id="340770f6-d148-4d19-8804-fd7ab5bbe894" x1="15.05" y1="384.18" x2="216.19" y2="32.19" xlink:href="#546e4b09-0bd7-4a9f-b285-9611657bbf08"/><linearGradient id="4b0ec3d9-2609-4197-8609-4aa088b613b8" x1="0.83" y1="376.06" x2="201.97" y2="24.07" xlink:href="#546e4b09-0bd7-4a9f-b285-9611657bbf08"/><linearGradient id="2df4b8f8-ce9e-4080-940d-2dedea0ac33d" x1="20.77" y1="387.45" x2="221.9" y2="35.46" xlink:href="#546e4b09-0bd7-4a9f-b285-9611657bbf08"/><linearGradient id="67580520-1c66-4be2-8bdc-347154f4fa4a" x1="9.83" y1="381.2" x2="210.97" y2="29.21" xlink:href="#546e4b09-0bd7-4a9f-b285-9611657bbf08"/><linearGradient id="6f6d3cda-0b1c-433b-8555-902ffaec6a09" x1="28.52" y1="391.88" x2="229.66" y2="39.89" xlink:href="#546e4b09-0bd7-4a9f-b285-9611657bbf08"/><linearGradient id="95982f4f-b2ab-476a-a730-4240628c0138" x1="21.08" y1="387.63" x2="222.22" y2="35.64" xlink:href="#546e4b09-0bd7-4a9f-b285-9611657bbf08"/><linearGradient id="1c17909a-c39e-4930-8ed6-e0ccb2ecf987" x1="38.02" y1="397.3" x2="239.15" y2="45.32" xlink:href="#546e4b09-0bd7-4a9f-b285-9611657bbf08"/><linearGradient id="4eed0e93-9aa1-40b6-b14a-8ca51b9b7778" x1="34.36" y1="395.21" x2="235.5" y2="43.23" xlink:href="#546e4b09-0bd7-4a9f-b285-9611657bbf08"/><linearGradient id="48fcfed4-3c2c-47b7-a0fc-91d5dcecaa98" x1="49.42" y1="403.82" x2="250.55" y2="51.83" xlink:href="#546e4b09-0bd7-4a9f-b285-9611657bbf08"/><linearGradient id="10416326-6e8c-41ee-bfb1-d426aa3b8cec" x1="49.51" y1="403.87" x2="250.64" y2="51.88" xlink:href="#546e4b09-0bd7-4a9f-b285-9611657bbf08"/><linearGradient id="365686f5-f008-44b9-b2b2-120f5220a192" x1="62.43" y1="411.26" x2="263.57" y2="59.27" xlink:href="#546e4b09-0bd7-4a9f-b285-9611657bbf08"/><linearGradient id="d4863797-1291-440c-9025-cfd5e7982449" x1="66.24" y1="413.43" x2="267.38" y2="61.44" xlink:href="#546e4b09-0bd7-4a9f-b285-9611657bbf08"/><linearGradient id="12ab4e13-63ee-447d-8a19-9bbb28f3d3b2" x1="76.79" y1="419.46" x2="277.93" y2="67.47" xlink:href="#546e4b09-0bd7-4a9f-b285-9611657bbf08"/><linearGradient id="c73eda13-215d-4850-a103-b43174d9fed2" x1="84.25" y1="423.72" x2="285.39" y2="71.74" xlink:href="#546e4b09-0bd7-4a9f-b285-9611657bbf08"/><linearGradient id="82224883-ec93-49fc-8cf8-274a99e1bdc0" x1="92.3" y1="428.32" x2="293.43" y2="76.33" xlink:href="#546e4b09-0bd7-4a9f-b285-9611657bbf08"/><linearGradient id="f8a64c51-1f57-4616-ab5b-f8098afee131" x1="103.08" y1="434.48" x2="304.22" y2="82.5" xlink:href="#546e4b09-0bd7-4a9f-b285-9611657bbf08"/><linearGradient id="35cbd097-111f-4d2c-a46f-e01fba9f86bc" x1="162.34" y1="84.97" x2="162.34" y2="103.66" gradientTransform="translate(457.79 750) rotate(180)" xlink:href="#6b137a41-16a5-433c-9ffb-0a62ab8f6313"/><linearGradient id="57a7825a-4b72-40b2-a12b-8c88275d7d20" x1="169.35" y1="106.48" x2="169.35" y2="130.66" gradientTransform="translate(457.79 750) rotate(180)" xlink:href="#6b137a41-16a5-433c-9ffb-0a62ab8f6313"/><linearGradient id="fb18139f-df60-4d6d-8997-2a71233f31c8" x1="140.15" y1="93.86" x2="140.15" y2="110.64" gradientTransform="translate(457.79 750) rotate(180)" xlink:href="#6b137a41-16a5-433c-9ffb-0a62ab8f6313"/><linearGradient id="05086a82-3fd6-42c2-8086-2710497982f8" x1="150.28" y1="113.04" x2="150.28" y2="137.28" gradientTransform="translate(457.79 750) rotate(180)" xlink:href="#6b137a41-16a5-433c-9ffb-0a62ab8f6313"/><linearGradient id="ba9dbfb5-674a-4198-bdd9-43c57b095b00" x1="119.41" y1="105.13" x2="119.41" y2="120.42" gradientTransform="translate(457.79 750) rotate(180)" xlink:href="#6b137a41-16a5-433c-9ffb-0a62ab8f6313"/><linearGradient id="99bc3df7-3911-4b66-b288-51175bbe9299" x1="132.36" y1="122.18" x2="132.36" y2="146.29" gradientTransform="translate(457.79 750) rotate(180)" xlink:href="#6b137a41-16a5-433c-9ffb-0a62ab8f6313"/><linearGradient id="d0b2a1b7-569a-47f7-b824-8312e0c2a4b5" x1="100.11" y1="118.79" x2="100.11" y2="133.1" gradientTransform="translate(457.79 750) rotate(180)" xlink:href="#6b137a41-16a5-433c-9ffb-0a62ab8f6313"/><linearGradient id="9fc6cd35-0e6b-4809-87d9-85cce38363f8" x1="115.62" y1="133.5" x2="115.62" y2="157.14" gradientTransform="translate(457.79 750) rotate(180)" xlink:href="#6b137a41-16a5-433c-9ffb-0a62ab8f6313"/><linearGradient id="b6e76532-8253-4fde-937e-2818ce9ad137" x1="82.81" y1="134.41" x2="82.81" y2="148.2" gradientTransform="translate(457.79 750) rotate(180)" xlink:href="#6b137a41-16a5-433c-9ffb-0a62ab8f6313"/><linearGradient id="833fda12-0957-40cc-a21f-5000041a6220" x1="100.76" y1="147.14" x2="100.76" y2="170.02" gradientTransform="translate(457.79 750) rotate(180)" xlink:href="#6b137a41-16a5-433c-9ffb-0a62ab8f6313"/><linearGradient id="d0ece8f6-bada-414d-a87e-15603e1d913d" x1="67.63" y1="152.04" x2="67.63" y2="165.45" gradientTransform="translate(457.79 750) rotate(180)" xlink:href="#6b137a41-16a5-433c-9ffb-0a62ab8f6313"/><linearGradient id="52508746-16e2-4604-b38c-f314294e6990" x1="87.67" y1="162.74" x2="87.67" y2="184.35" gradientTransform="translate(457.79 750) rotate(180)" xlink:href="#6b137a41-16a5-433c-9ffb-0a62ab8f6313"/><linearGradient id="c4dfb4a9-be27-414b-aa27-2537f0d84eaf" x1="55.03" y1="171.32" x2="55.03" y2="184.75" gradientTransform="translate(457.79 750) rotate(180)" xlink:href="#6b137a41-16a5-433c-9ffb-0a62ab8f6313"/><linearGradient id="81cfcb28-de91-42e8-a7d3-28867a060432" x1="77.07" y1="180.11" x2="77.07" y2="200.19" gradientTransform="translate(457.79 750) rotate(180)" xlink:href="#6b137a41-16a5-433c-9ffb-0a62ab8f6313"/><linearGradient id="8dc2c251-2e9d-4dd5-a7b1-639c4a42a25c" x1="44.96" y1="191.99" x2="44.96" y2="205.58" gradientTransform="translate(457.79 750) rotate(180)" xlink:href="#6b137a41-16a5-433c-9ffb-0a62ab8f6313"/><linearGradient id="86313cb5-9e50-47a0-ae57-5b2a33011a6d" x1="68.72" y1="198.9" x2="68.72" y2="217.03" gradientTransform="translate(457.79 750) rotate(180)" xlink:href="#6b137a41-16a5-433c-9ffb-0a62ab8f6313"/><linearGradient id="f535c98a-5bca-4ad4-b1fe-6a0ab7067453" x1="37.83" y1="213.74" x2="37.83" y2="227.77" gradientTransform="translate(457.79 750) rotate(180)" xlink:href="#6b137a41-16a5-433c-9ffb-0a62ab8f6313"/><linearGradient id="b0d97b9c-75e0-4ae0-be64-e1d24f4cf2fc" x1="62.6" y1="218.65" x2="62.6" y2="234.75" gradientTransform="translate(457.79 750) rotate(180)" xlink:href="#6b137a41-16a5-433c-9ffb-0a62ab8f6313"/><linearGradient id="f6284b7f-ef41-4898-9af1-e93406807544" x1="33.8" y1="236.17" x2="33.8" y2="250.84" gradientTransform="translate(457.79 750) rotate(180)" xlink:href="#6b137a41-16a5-433c-9ffb-0a62ab8f6313"/><linearGradient id="1ee8a22f-933d-4dfb-97e2-7cb0d24174c4" x1="59.05" y1="238.95" x2="59.05" y2="253.35" gradientTransform="translate(457.79 750) rotate(180)" xlink:href="#6b137a41-16a5-433c-9ffb-0a62ab8f6313"/><linearGradient id="dd5d58fb-9a8a-4b14-8e47-81f73692568f" x1="32.6" y1="258.91" x2="32.6" y2="274.44" gradientTransform="translate(457.79 750) rotate(180)" xlink:href="#6b137a41-16a5-433c-9ffb-0a62ab8f6313"/><linearGradient id="935f0513-70d6-4961-805a-af215301f0b4" x1="58.09" y1="259.49" x2="58.09" y2="272.8" gradientTransform="translate(457.79 750) rotate(180)" xlink:href="#6b137a41-16a5-433c-9ffb-0a62ab8f6313"/><linearGradient id="577e1d54-9f78-456f-8ca5-1758ee0b2f88" x1="34.43" y1="281.52" x2="34.43" y2="298.33" gradientTransform="translate(457.79 750) rotate(180)" xlink:href="#6b137a41-16a5-433c-9ffb-0a62ab8f6313"/><linearGradient id="ffe2695c-8f90-4e65-bb1e-c4c1ea9d9163" x1="59.58" y1="279.91" x2="59.58" y2="292.5" gradientTransform="translate(457.79 750) rotate(180)" xlink:href="#6b137a41-16a5-433c-9ffb-0a62ab8f6313"/><linearGradient id="dcbac9e7-fe7d-49f0-984c-78edb5fcc14a" x1="39.43" y1="303.68" x2="39.43" y2="322.17" gradientTransform="translate(457.79 750) rotate(180)" xlink:href="#6b137a41-16a5-433c-9ffb-0a62ab8f6313"/><linearGradient id="14e894d9-01b9-4690-94fa-2b4d2a1f1b25" x1="63.7" y1="299.86" x2="63.7" y2="312.03" gradientTransform="translate(457.79 750) rotate(180)" xlink:href="#6b137a41-16a5-433c-9ffb-0a62ab8f6313"/><linearGradient id="863d3621-a8b1-4c9c-8ddc-e961b15dbd86" x1="47.32" y1="324.95" x2="47.32" y2="345.26" gradientTransform="translate(457.79 750) rotate(180)" xlink:href="#6b137a41-16a5-433c-9ffb-0a62ab8f6313"/><linearGradient id="c98bcf51-d26b-4ec3-b436-9dcc6b770ffa" x1="70.36" y1="318.94" x2="70.36" y2="331.01" gradientTransform="translate(457.79 750) rotate(180)" xlink:href="#6b137a41-16a5-433c-9ffb-0a62ab8f6313"/><linearGradient id="72e8ef45-b9d9-4c1d-bf93-e748e52ad1de" x1="58" y1="344.95" x2="58" y2="366.88" gradientTransform="translate(457.79 750) rotate(180)" xlink:href="#6b137a41-16a5-433c-9ffb-0a62ab8f6313"/><linearGradient id="339fb83f-9539-472d-b4cd-ce190bf3377a" x1="79.31" y1="336.9" x2="79.31" y2="349.08" gradientTransform="translate(457.79 750) rotate(180)" xlink:href="#6b137a41-16a5-433c-9ffb-0a62ab8f6313"/><linearGradient id="948dd379-1567-4b6e-b828-5a86f5ad0cb7" x1="71.06" y1="363.43" x2="71.06" y2="386.76" gradientTransform="translate(457.79 750) rotate(180)" xlink:href="#6b137a41-16a5-433c-9ffb-0a62ab8f6313"/><linearGradient id="ab58e0ed-144d-447e-a22a-dff4e2388692" x1="90.43" y1="353.32" x2="90.43" y2="365.88" gradientTransform="translate(457.79 750) rotate(180)" xlink:href="#6b137a41-16a5-433c-9ffb-0a62ab8f6313"/><linearGradient id="e0e1e5b0-4ed0-47cc-a338-a9ef30713f7c" x1="90.54" y1="371.2" x2="90.54" y2="392.81" gradientTransform="translate(457.79 750) rotate(180)" xlink:href="#6b137a41-16a5-433c-9ffb-0a62ab8f6313"/><linearGradient id="96f36b29-72cf-4568-bdee-68de3320db41" x1="-11.27" y1="394.02" x2="189.87" y2="42.03" gradientTransform="translate(457.79 750) rotate(180)" xlink:href="#546e4b09-0bd7-4a9f-b285-9611657bbf08"/><linearGradient id="04abc9d9-6660-494e-b60d-48c6bd741045" x1="4.15" y1="402.83" x2="205.29" y2="50.84" gradientTransform="translate(457.79 750) rotate(180)" xlink:href="#546e4b09-0bd7-4a9f-b285-9611657bbf08"/><linearGradient id="a59d50dd-b6d1-412b-b39c-0304f93a0e7a" x1="-24.54" y1="386.43" x2="176.59" y2="34.45" gradientTransform="translate(457.79 750) rotate(180)" xlink:href="#546e4b09-0bd7-4a9f-b285-9611657bbf08"/><linearGradient id="e4cbcf6c-8750-4777-9485-3c2a5a01ed18" x1="-7.17" y1="396.36" x2="193.97" y2="44.37" gradientTransform="translate(457.79 750) rotate(180)" xlink:href="#546e4b09-0bd7-4a9f-b285-9611657bbf08"/><linearGradient id="9eb137e3-6712-416d-a1e6-cbf4147a5d39" x1="-35.54" y1="380.15" x2="165.59" y2="28.16" gradientTransform="translate(457.79 750) rotate(180)" xlink:href="#546e4b09-0bd7-4a9f-b285-9611657bbf08"/><linearGradient id="90cfef14-54a8-42a8-b5da-8fe19cab70aa" x1="-16.5" y1="391.02" x2="184.63" y2="39.04" gradientTransform="translate(457.79 750) rotate(180)" xlink:href="#546e4b09-0bd7-4a9f-b285-9611657bbf08"/><linearGradient id="55c65a81-da84-4c96-8213-a3fd3ab33107" x1="-44.32" y1="375.13" x2="156.81" y2="23.14" gradientTransform="translate(457.79 750) rotate(180)" xlink:href="#546e4b09-0bd7-4a9f-b285-9611657bbf08"/><linearGradient id="d2b308f7-5f23-4319-bfa4-60c01497a9fb" x1="-23.82" y1="386.85" x2="177.32" y2="34.86" gradientTransform="translate(457.79 750) rotate(180)" xlink:href="#546e4b09-0bd7-4a9f-b285-9611657bbf08"/><linearGradient id="48dbb394-d83e-4255-ac9e-3287d51bce7b" x1="-50.58" y1="371.55" x2="150.55" y2="19.57" gradientTransform="translate(457.79 750) rotate(180)" xlink:href="#546e4b09-0bd7-4a9f-b285-9611657bbf08"/><linearGradient id="7f681bf8-f306-4fb2-b9cd-4d6b7fc2840a" x1="-29.07" y1="383.85" x2="172.07" y2="31.86" gradientTransform="translate(457.79 750) rotate(180)" xlink:href="#546e4b09-0bd7-4a9f-b285-9611657bbf08"/><linearGradient id="615a0ad5-a8ab-45ac-82ec-4fb7f63e2f12" x1="-54.39" y1="369.38" x2="146.74" y2="17.39" gradientTransform="translate(457.79 750) rotate(180)" xlink:href="#546e4b09-0bd7-4a9f-b285-9611657bbf08"/><linearGradient id="77c13e1c-4bae-4a4f-a56b-fe49d514a4f7" x1="-32.26" y1="382.03" x2="168.88" y2="30.04" gradientTransform="translate(457.79 750) rotate(180)" xlink:href="#546e4b09-0bd7-4a9f-b285-9611657bbf08"/><linearGradient id="a62005b8-a9a7-4666-b177-8101dd458e5d" x1="-55.36" y1="368.82" x2="145.77" y2="16.83" gradientTransform="translate(457.79 750) rotate(180)" xlink:href="#546e4b09-0bd7-4a9f-b285-9611657bbf08"/><linearGradient id="ea8b573b-099d-46a7-bdd6-90bcc023719c" x1="-33.27" y1="381.44" x2="167.86" y2="29.46" gradientTransform="translate(457.79 750) rotate(180)" xlink:href="#546e4b09-0bd7-4a9f-b285-9611657bbf08"/><linearGradient id="a4a3608a-f486-4b39-a51d-61da7ab4234f" x1="-53.82" y1="369.7" x2="147.32" y2="17.72" gradientTransform="translate(457.79 750) rotate(180)" xlink:href="#546e4b09-0bd7-4a9f-b285-9611657bbf08"/><linearGradient id="afb785f3-143b-4afb-8b1d-579a01636311" x1="-32.02" y1="382.16" x2="169.12" y2="30.17" gradientTransform="translate(457.79 750) rotate(180)" xlink:href="#546e4b09-0bd7-4a9f-b285-9611657bbf08"/><linearGradient id="9e6f1dde-64fa-4ab1-9f9f-6aaa89b8933e" x1="-49.57" y1="372.13" x2="151.57" y2="20.14" gradientTransform="translate(457.79 750) rotate(180)" xlink:href="#546e4b09-0bd7-4a9f-b285-9611657bbf08"/><linearGradient id="fe6a20cf-65db-4730-b285-4618a33384a8" x1="-28.54" y1="384.15" x2="172.59" y2="32.16" gradientTransform="translate(457.79 750) rotate(180)" xlink:href="#546e4b09-0bd7-4a9f-b285-9611657bbf08"/><linearGradient id="2da907bc-19d8-4a6b-a24f-41405650f853" x1="-42.69" y1="376.06" x2="158.45" y2="24.08" gradientTransform="translate(457.79 750) rotate(180)" xlink:href="#546e4b09-0bd7-4a9f-b285-9611657bbf08"/><linearGradient id="8d74b2f3-8cad-4383-ad1e-3cc822181fd3" x1="-22.76" y1="387.45" x2="178.38" y2="35.47" gradientTransform="translate(457.79 750) rotate(180)" xlink:href="#546e4b09-0bd7-4a9f-b285-9611657bbf08"/><linearGradient id="a5f71954-4d3c-4e04-8fa4-7d47d46793e0" x1="-33.69" y1="381.2" x2="167.44" y2="29.22" gradientTransform="translate(457.79 750) rotate(180)" xlink:href="#546e4b09-0bd7-4a9f-b285-9611657bbf08"/><linearGradient id="28ea2698-6132-4c88-a8da-c598906087ed" x1="-15" y1="391.89" x2="186.14" y2="39.9" gradientTransform="translate(457.79 750) rotate(180)" xlink:href="#546e4b09-0bd7-4a9f-b285-9611657bbf08"/><linearGradient id="064df2c5-3db4-42da-b9f6-8c31a2fd970b" x1="-22.44" y1="387.63" x2="178.7" y2="35.65" gradientTransform="translate(457.79 750) rotate(180)" xlink:href="#546e4b09-0bd7-4a9f-b285-9611657bbf08"/><linearGradient id="d416abe1-e7d2-436b-a3c8-5ee973926b30" x1="-5.5" y1="397.31" x2="195.63" y2="45.32" gradientTransform="translate(457.79 750) rotate(180)" xlink:href="#546e4b09-0bd7-4a9f-b285-9611657bbf08"/><linearGradient id="93b14a45-308c-468c-910f-a1f96e937448" x1="-9.16" y1="395.22" x2="191.97" y2="43.23" gradientTransform="translate(457.79 750) rotate(180)" xlink:href="#546e4b09-0bd7-4a9f-b285-9611657bbf08"/><linearGradient id="2b758fb3-4d94-4042-b82e-550a772bbb85" x1="5.89" y1="403.82" x2="207.03" y2="51.84" gradientTransform="translate(457.79 750) rotate(180)" xlink:href="#546e4b09-0bd7-4a9f-b285-9611657bbf08"/><linearGradient id="9e42a4f9-f84f-488c-be5f-871de91c616a" x1="5.98" y1="403.87" x2="207.12" y2="51.89" gradientTransform="translate(457.79 750) rotate(180)" xlink:href="#546e4b09-0bd7-4a9f-b285-9611657bbf08"/><linearGradient id="f488db3c-f71e-431e-b66f-86eed54a5657" x1="18.91" y1="411.26" x2="220.05" y2="59.28" gradientTransform="translate(457.79 750) rotate(180)" xlink:href="#546e4b09-0bd7-4a9f-b285-9611657bbf08"/><linearGradient id="2b85cf11-52e9-41c3-98c8-0883b9aa9dd0" x1="22.72" y1="413.44" x2="223.86" y2="61.45" gradientTransform="translate(457.79 750) rotate(180)" xlink:href="#546e4b09-0bd7-4a9f-b285-9611657bbf08"/><linearGradient id="39c1b0ac-be48-494b-baba-3d763eaf3194" x1="33.27" y1="419.47" x2="234.4" y2="67.48" gradientTransform="translate(457.79 750) rotate(180)" xlink:href="#546e4b09-0bd7-4a9f-b285-9611657bbf08"/><linearGradient id="507cc10f-a04e-4de9-a017-3a551eddadfd" x1="40.73" y1="423.73" x2="241.86" y2="71.74" gradientTransform="translate(457.79 750) rotate(180)" xlink:href="#546e4b09-0bd7-4a9f-b285-9611657bbf08"/><linearGradient id="c9fab7b8-f146-4dfc-a57c-b82253fdc2be" x1="48.7" y1="428.29" x2="249.84" y2="76.3" gradientTransform="translate(457.79 750) rotate(180)" xlink:href="#546e4b09-0bd7-4a9f-b285-9611657bbf08"/><linearGradient id="b6729c9f-6d94-4266-9967-9248fc3c086b" x1="59.56" y1="434.49" x2="260.7" y2="82.5" gradientTransform="translate(457.79 750) rotate(180)" xlink:href="#546e4b09-0bd7-4a9f-b285-9611657bbf08"/><linearGradient id="7dd12667-4957-4e66-bb24-57c92fcf28d7" x1="167.56" y1="99.18" x2="167.56" y2="371.24" xlink:href="#6b137a41-16a5-433c-9ffb-0a62ab8f6313"/><linearGradient id="745ecd3f-6b2d-4e2a-bc01-9a1b698dbed5" x1="168.23" y1="99.14" x2="168.23" y2="371.24" gradientTransform="matrix(1, 0, 0, -1, 0, 750)" gradientUnits="userSpaceOnUse"><stop offset="0" stop-color="#fbf5eb"/><stop offset="0.47" stop-color="#f9f9f9"/><stop offset="1" stop-color="#f9fafb"/></linearGradient><linearGradient id="d2df9890-e44e-4bb5-9e0e-68deb2d2634f" x1="99.45" y1="99.18" x2="99.45" y2="371.24" gradientTransform="translate(433.19 750) rotate(180)" xlink:href="#6b137a41-16a5-433c-9ffb-0a62ab8f6313"/><linearGradient id="f4231071-3d1c-4639-9bbd-d09958180fe6" x1="100.12" y1="99.14" x2="100.12" y2="371.24" gradientTransform="translate(433.19 750) rotate(180)" xlink:href="#745ecd3f-6b2d-4e2a-bc01-9a1b698dbed5"/><linearGradient id="21112e04-675a-4945-aefe-66952c398d52" x1="260.84" y1="0.22" x2="300.2" y2="0.22" xlink:href="#d77bce40-5675-490f-8d2d-1a1862275d15"/><linearGradient id="5fa0e224-568f-4ea2-bc9c-6aae2d704cb6" x1="181.28" y1="115.36" x2="300.2" y2="115.36" xlink:href="#b7daf213-e8bd-4c6d-871f-4aeec7a43bac"/><linearGradient id="62ca0678-3c9a-4612-aae2-cd0f72aac4e4" x1="220.66" y1="115.32" x2="339.56" y2="115.32" xlink:href="#1f7cfd57-b858-48d1-8aac-6d67e46d5dd5"/><linearGradient id="1a90bb3c-9ecf-4fbf-891f-6a6d85602d81" x1="300.2" y1="0.13" x2="339.56" y2="0.13" xlink:href="#1f7cfd57-b858-48d1-8aac-6d67e46d5dd5"/><linearGradient id="e2bbafee-db8c-4f9d-aa1e-6795767777a5" x1="259.95" y1="115.27" x2="378.92" y2="115.27" xlink:href="#06984f2f-78e2-46a3-8e79-16a6c5ca72e7"/><linearGradient id="5956f5ba-6b13-44d8-afa6-858c1b05a501" x1="339.56" y1="0.04" x2="378.92" y2="0.04" xlink:href="#5d345225-9d12-4b2d-8d2d-d9a68c597e80"/><linearGradient id="56022f25-19f4-4e70-9582-f7353d3543a4" x1="206.6" y1="453.9" x2="341.84" y2="453.9" gradientTransform="matrix(1, 0, 0, 1, 0, 0)" xlink:href="#546e4b09-0bd7-4a9f-b285-9611657bbf08"/><linearGradient id="2882a11e-8eaa-43f3-89a3-8f346640ffa9" x1="215.42" y1="526.78" x2="252.72" y2="526.78" gradientTransform="matrix(1, 0, 0, 1, 0, 0)" xlink:href="#546e4b09-0bd7-4a9f-b285-9611657bbf08"/><linearGradient id="10914655-4965-4672-9093-c269e56b9e69" x1="255.68" y1="526" x2="293.94" y2="526" gradientTransform="matrix(1, 0, 0, 1, 0, 0)" xlink:href="#546e4b09-0bd7-4a9f-b285-9611657bbf08"/><linearGradient id="a7f05b30-f7ac-42ea-9fe5-050359470cad" x1="266.11" y1="571.25" x2="289.56" y2="571.25" gradientTransform="matrix(1, 0, 0, 1, 0, 0)" xlink:href="#546e4b09-0bd7-4a9f-b285-9611657bbf08"/><linearGradient id="c94b2c8d-f968-4660-b61c-6e646c13ac7e" x1="190.89" y1="569.45" x2="222.67" y2="569.45" gradientTransform="matrix(1, 0, 0, 1, 0, 0)" xlink:href="#546e4b09-0bd7-4a9f-b285-9611657bbf08"/><linearGradient id="6cb48ec7-0038-4503-ae43-7950674fbdef" x1="284.14" y1="538.13" x2="287.81" y2="538.13" gradientTransform="matrix(1, 0, 0, 1, 0, 0)" xlink:href="#546e4b09-0bd7-4a9f-b285-9611657bbf08"/></defs><title>vet_silver</title><polygon points="101.91 0.63 181.28 230.54 220.66 230.54 141.21 0.54 101.91 0.63" fill="url(#b7daf213-e8bd-4c6d-871f-4aeec7a43bac)"/><line x1="101.9" y1="0.63" x2="141.21" y2="0.54" fill="url(#d77bce40-5675-490f-8d2d-1a1862275d15)"/><line x1="141.21" y1="0.54" x2="180.51" y2="0.45" fill="url(#1f7cfd57-b858-48d1-8aac-6d67e46d5dd5)"/><polygon points="141.21 0.54 220.66 230.54 259.95 230.54 180.51 0.45 141.21 0.54" fill="url(#de849a37-679f-496c-88e9-1b7c7b29485a)"/><polygon points="180.51 0.45 259.95 230.54 299.33 230.54 219.81 0.36 180.51 0.45" fill="url(#06984f2f-78e2-46a3-8e79-16a6c5ca72e7)"/><line x1="180.51" y1="0.45" x2="219.81" y2="0.36" fill="url(#5d345225-9d12-4b2d-8d2d-d9a68c597e80)"/><g id="10d67dbd-7990-4e7e-a0fc-48463f5d78cf" data-name="silver"><path d="M333.15,277.88H167.58V234.77c0-13.8,11.59-25.11,26-25.11H307.28c14.28,0,26,11.21,26,25.11v43.11Zm-152-13.22H319.54v-30a12.14,12.14,0,0,0-12.26-11.88H193.45a12.08,12.08,0,0,0-12.26,11.88v30Z" transform="translate(-10.35 0.19)" fill="url(#1dd734da-17dd-4031-ab42-c3dde0dde4fc)"/><path d="M336.89,277.88h-173v-47a27.36,27.36,0,0,1,27.31-27.31H309.58a27.36,27.36,0,0,1,27.31,27.31ZM178.22,263.51H322.51V230.84a12.94,12.94,0,0,0-12.93-12.94H191.15a12.94,12.94,0,0,0-12.93,12.94Z" transform="translate(-10.35 0.19)" fill="url(#2808d8ec-341d-44e5-9fc5-555ed9ebba60)"/><path d="M337,278l-18.49.19-18.4.1-36.79.19c-12.26.09-50.4-.1-62.66-.1l-36.8-.19h-.28v-.29c.09-11.3.19-22.71.09-34v-8.53a64.06,64.06,0,0,1,.29-8.53,27.73,27.73,0,0,1,22.52-23.28,43,43,0,0,1,8.62-.48l8.53-.1,59.88-.09h46.86l2.1.09,2.21.29a28.07,28.07,0,0,1,15.14,8.15,27.63,27.63,0,0,1,7.47,15.33,50.94,50.94,0,0,1,.29,8.52l-.1,8.53Zm-.19-.19-.29-34-.09-8.53a49.17,49.17,0,0,0-.39-8.43,26.71,26.71,0,0,0-21.84-22.23l-2-.28-2.11-.1c-1.34-.1-2.78,0-4.22,0H263.3l-59.89-.1-8.52-.09a41.43,41.43,0,0,0-8.43.38,27,27,0,0,0-14.57,7.67,26.49,26.49,0,0,0-7.38,14.75,62.67,62.67,0,0,0-.38,8.43v8.53c-.1,11.31,0,22.71.1,34l-.29-.29,36.79-.19c12.27,0,50.4-.19,62.67-.1l36.79.19,18.4.1Z" transform="translate(-10.35 0.19)" fill="url(#7d1f7721-61b6-4082-94d9-35d83214a8ad)"/><path d="M178.31,263.41c9.87-.19,19.64-.28,29.51-.38l55.48-.19c9.87,0,19.74.1,29.61.1l29.6.19-.28.28c.09-8.24,0-16.57,0-24.81v-6.23a13.62,13.62,0,0,0-.87-5.94,12.52,12.52,0,0,0-8.62-7.76,20.76,20.76,0,0,0-6-.39l-6.22.1-12.36.1-24.82.09H200.25l-6.23-.09a20.9,20.9,0,0,0-6,.38,12.65,12.65,0,0,0-8.53,7.67,15.33,15.33,0,0,0-.86,5.94l-.1,6.22Zm-.19.2-.29-24.92-.09-6.22a16,16,0,0,1,.76-6.33,13.59,13.59,0,0,1,9.11-8.43,20.15,20.15,0,0,1,6.32-.48l6.23-.09h63l24.82.09,12.36.1,6.23.09a24,24,0,0,1,6.32.48,13.11,13.11,0,0,1,9,8.34,15.53,15.53,0,0,1,.77,6.23v6.22c0,8.24-.1,16.58,0,24.82v.29h-.29l-29.61.19c-9.87,0-19.74.19-29.61.09l-55.47-.19c-9.78,0-19.65-.19-29.61-.28Z" transform="translate(-10.35 0.19)" fill="url(#37397c81-b2d6-4896-87f1-e4aa44c43d29)"/><circle cx="240.31" cy="485.22" r="240.31" fill="url(#7539eeac-07e9-47af-9354-d809f166f6d8)"/><circle cx="240.31" cy="485.22" r="234.94" fill="url(#1b58600b-b063-40b5-8873-fa5429266bde)"/><path d="M485.69,485s0,1.43-.1,4.21,0,6.9-.48,12.36a225.72,225.72,0,0,1-7.76,46.19c-.67,2.39-1.43,4.88-2.1,7.47q-1.31,3.74-2.59,7.76c-.86,2.68-1.92,5.27-3,8.05s-2.11,5.56-3.36,8.24A229,229,0,0,1,447.65,614,235.28,235.28,0,0,1,333.72,705.8c-2.1,1-4.4,1.63-6.61,2.39s-4.5,1.54-6.7,2.3-4.6,1.34-6.9,1.92l-3.45,1-3.55.86c-2.39.57-4.69,1-7.09,1.63s-4.79.86-7.18,1.34c-4.79,1-9.68,1.53-14.66,2.11-2.49.38-5,.48-7.48.67l-7.47.57c-2.49.1-5.08.1-7.57.19l-3.83.1c-1.34,0-2.59-.1-3.84-.1-2.58-.09-5.07-.09-7.66-.19s-5.17-.38-7.67-.57c-5.17-.29-10.25-1.06-15.52-1.73a220.07,220.07,0,0,1-30.85-6.8c-5.18-1.34-10.16-3.26-15.24-5-2.49-1-5-2-7.47-3L159.24,702l-3.73-1.72a236.72,236.72,0,0,1-55.77-35,252.54,252.54,0,0,1-24-23.38A234.9,234.9,0,0,1,55,615.06a243.57,243.57,0,0,1-16.87-29.7,231.42,231.42,0,0,1-20-65.83,259.06,259.06,0,0,1-2.59-34.59A245.89,245.89,0,0,1,18,450.45a239.42,239.42,0,0,1,7.47-33.73,249.44,249.44,0,0,1,12.27-32.19,245.43,245.43,0,0,1,16.77-29.9,236.84,236.84,0,0,1,100.89-85.28l3.74-1.62,3.73-1.54c2.5-1,5-2,7.57-3,5.08-1.72,10.16-3.54,15.33-4.88a235,235,0,0,1,30.95-6.71c5.18-.67,10.35-1.44,15.53-1.73,2.58-.19,5.17-.47,7.66-.57s5.17-.1,7.67-.19c1.24,0,2.49-.1,3.83-.1l3.83.1c2.49.09,5.08.09,7.57.19l7.57.57c2.49.2,5,.29,7.47.67,5,.68,9.87,1.15,14.66,2.11,2.4.48,4.79.77,7.19,1.34s4.7,1.06,7.09,1.63l3.55.87,3.45,1c2.29.67,4.59,1.35,6.89,1.92s4.51,1.53,6.71,2.3,4.5,1.44,6.61,2.39a246.57,246.57,0,0,1,48,24.82A237.12,237.12,0,0,1,447.94,356a229.91,229.91,0,0,1,18.68,34.69c1.34,2.78,2.3,5.56,3.36,8.24s2.1,5.36,3,8.05,1.72,5.27,2.58,7.76,1.44,5.08,2.11,7.47a223.65,223.65,0,0,1,7.76,46.18c.48,5.37.38,9.59.48,12.37C485.69,483.5,485.69,485,485.69,485Zm-.19,0s0-1.44-.1-4.22,0-6.9-.57-12.36a225.21,225.21,0,0,0-8-46c-.67-2.4-1.43-4.89-2.1-7.47-.87-2.5-1.73-5.08-2.69-7.77s-1.91-5.27-3-8-2.11-5.46-3.45-8.24a232.81,232.81,0,0,0-18.78-34.49,235.29,235.29,0,0,0-66-66.21A238.52,238.52,0,0,0,333.05,266a234.13,234.13,0,0,0-55.76-13.32c-2.49-.38-4.89-.48-7.38-.67l-7.47-.57c-2.49-.1-5-.1-7.57-.19l-3.83-.1c-1.25,0-2.5.1-3.74.1-2.49.09-5.08.09-7.57.19s-5.08.38-7.67.57c-5.07.29-10.25,1.06-15.33,1.73a247,247,0,0,0-30.66,6.61c-5.08,1.34-10.06,3.16-15.14,4.88l-7.47,2.88-3.74,1.44-3.64,1.63a236.22,236.22,0,0,0-55.48,34.58,251.66,251.66,0,0,0-24,23.19,268.86,268.86,0,0,0-20.69,26.64A241,241,0,0,0,39.09,385.2a234.1,234.1,0,0,0-12.36,31.9,250.33,250.33,0,0,0-7.57,33.54,233.69,233.69,0,0,0-.09,68.79,239.6,239.6,0,0,0,7.47,33.64,234.92,234.92,0,0,0,12.26,32,257.73,257.73,0,0,0,16.68,29.7A235,235,0,0,0,156,699.28l3.64,1.63,3.73,1.44c2.5,1,5,2,7.48,2.87,5.08,1.63,10.06,3.55,15.23,4.89a233.12,233.12,0,0,0,30.76,6.61c5.17.57,10.25,1.44,15.33,1.63,2.59.19,5.08.38,7.67.48s5.07.09,7.66.19c1.25,0,2.59.1,3.83.1l3.74-.1c2.49-.1,5-.1,7.57-.19l7.47-.58c2.49-.19,5-.38,7.38-.67a234.56,234.56,0,0,0,169.6-104.05A217.16,217.16,0,0,0,465.86,579c1.34-2.78,2.29-5.56,3.44-8.24s2.21-5.36,3-7.95,1.83-5.17,2.59-7.76S476.3,550,477,547.6a220,220,0,0,0,7.95-46c.58-5.36.48-9.58.58-12.36C485.4,486.47,485.5,485,485.5,485Z" transform="translate(-10.35 0.19)" fill="url(#4331adf9-0a31-43d7-851c-2a60587fd741)"/><circle cx="240.31" cy="485.22" r="206.48" fill="url(#5c8b1046-8ccb-4fec-9f68-61ca6d1dadfa)"/><circle cx="240.31" cy="485.22" r="201.12" fill="url(#92ddb65a-7a1e-4522-80b0-adfcff82c7eb)"/><path d="M457.23,485s0,1.24-.09,3.73,0,6.14-.48,10.83a198.26,198.26,0,0,1-6.81,40.63c-.57,2.1-1.24,4.31-1.82,6.61-.76,2.2-1.53,4.5-2.3,6.8s-1.72,4.7-2.58,7.09-1.82,4.89-3,7.28a203.14,203.14,0,0,1-16.39,30.47,207.33,207.33,0,0,1-100.13,80.78c-1.91.76-3.92,1.43-5.84,2.1s-3.93,1.35-5.94,2l-6,1.72a61,61,0,0,1-6.13,1.53l-6.23,1.44c-2.11.48-4.21.77-6.32,1.15-4.22.86-8.53,1.34-12.94,1.82-2.2.29-4.31.38-6.51.58s-4.41.28-6.61.48-4.41.09-6.71.19l-3.35.09c-1.15,0-2.21-.09-3.36-.09-2.2-.1-4.5-.1-6.71-.19s-4.5-.29-6.8-.48c-4.5-.29-9.1-1-13.6-1.54a202,202,0,0,1-27.12-5.94c-4.5-1.15-8.91-2.87-13.41-4.31l-6.62-2.59-3.35-1.34-3.26-1.44a207.55,207.55,0,0,1-70.13-51.35,228.88,228.88,0,0,1-18.21-23.57,219.57,219.57,0,0,1-14.85-26.16A212.71,212.71,0,0,1,52.7,545.21,224.38,224.38,0,0,1,46,515.6a210.32,210.32,0,0,1-.19-60.75,221.91,221.91,0,0,1,6.51-29.7,209.56,209.56,0,0,1,10.83-28.26A206.86,206.86,0,0,1,166.62,295.7l3.26-1.43,3.35-1.34,6.61-2.59c4.51-1.44,8.92-3.16,13.42-4.31a207,207,0,0,1,27.21-5.94c4.6-.58,9.1-1.25,13.61-1.54,2.3-.19,4.5-.38,6.8-.48s4.5-.09,6.71-.19c1.15,0,2.2-.09,3.35-.09l3.35.09c2.21.1,4.41.1,6.61.19s4.41.29,6.62.48,4.4.29,6.61.58A201.61,201.61,0,0,1,323.57,291a215.67,215.67,0,0,1,42.16,21.85,209.44,209.44,0,0,1,58,58.92,187.14,187.14,0,0,1,16.38,30.47c1.15,2.4,2,4.89,3,7.28a70.65,70.65,0,0,1,2.59,7.09c.76,2.3,1.53,4.6,2.3,6.81s1.24,4.4,1.82,6.61a198.13,198.13,0,0,1,6.8,40.62c.48,4.7.38,8.44.48,10.83C457.23,483.7,457.23,485,457.23,485Zm-.19,0s0-1.25-.1-3.74,0-6.13-.47-10.83a199.47,199.47,0,0,0-7-40.43c-.57-2.11-1.25-4.31-1.92-6.52s-1.53-4.5-2.3-6.8-1.72-4.6-2.68-7-1.82-4.8-3-7.29A194.58,194.58,0,0,0,423,372.17,207.67,207.67,0,0,0,365,314a212.85,212.85,0,0,0-42-21.37A207.54,207.54,0,0,0,274,281c-2.11-.29-4.31-.48-6.51-.58s-4.32-.28-6.52-.48-4.41-.09-6.61-.19l-3.35-.09-3.36.09c-2.2.1-4.41.1-6.71.19s-4.5.29-6.7.48c-4.51.2-9,1-13.51,1.44a203.93,203.93,0,0,0-26.93,5.85c-4.5,1.15-8.91,2.77-13.32,4.31-2.2.76-4.4,1.72-6.61,2.58l-3.25,1.35-3.26,1.43a205.08,205.08,0,0,0-69.85,50.79,229.19,229.19,0,0,0-18.21,23.37,217,217,0,0,0-14.75,26,222.28,222.28,0,0,0-10.93,28.07A219.86,219.86,0,0,0,47,455.05a224.58,224.58,0,0,0-2.3,30.18,211.72,211.72,0,0,0,2.2,30.18,217.36,217.36,0,0,0,6.52,29.51,204.92,204.92,0,0,0,25.39,54.33,206.62,206.62,0,0,0,88.34,74.26l3.26,1.43,3.26,1.35,6.61,2.58c4.5,1.44,8.81,3.07,13.32,4.22a191.3,191.3,0,0,0,27,5.75c4.5.57,9,1.24,13.51,1.43,2.2.2,4.5.39,6.7.48s4.51.1,6.71.2c1.15,0,2.3.09,3.35.09l3.36-.09c2.2-.1,4.41-.1,6.61-.2s4.41-.28,6.51-.48,4.32-.28,6.52-.67a206.25,206.25,0,0,0,149.09-91.4,204.89,204.89,0,0,0,16.58-30.28c1.15-2.4,2-4.89,3-7.28s1.91-4.7,2.68-7,1.53-4.6,2.3-6.8,1.24-4.41,1.91-6.52a192.88,192.88,0,0,0,7-40.43c.48-4.7.38-8.34.48-10.83C457,486.28,457,485,457,485Z" transform="translate(-10.35 0.19)" fill="url(#188c3448-935d-438e-b9d8-1ae4380ce410)"/><path d="M196.61,665.08a39.77,39.77,0,0,0,6.8-1.06,23.84,23.84,0,0,0,5-2.11,12,12,0,0,0,6.23-14.27,59.77,59.77,0,0,0-9.78,9,21.28,21.28,0,0,1,1.82-3.16,42.38,42.38,0,0,1,6.33-7.09,17.08,17.08,0,0,0-4,.38,12,12,0,0,0-5.17,2C200.44,651,197,655.59,196.61,665.08Z" transform="translate(-10.35 0.19)" fill="url(#6b137a41-16a5-433c-9ffb-0a62ab8f6313)"/><path d="M211.08,619.37a34.81,34.81,0,0,1,3.64,4.41,25.52,25.52,0,0,1,2.49,3.83,15.12,15.12,0,0,1,1.73,6.8,14.1,14.1,0,0,1-3.16,8.63,32.37,32.37,0,0,1-3.55-12.27,17.1,17.1,0,0,0-.19,3.74,28.58,28.58,0,0,0,1.82,9,14.67,14.67,0,0,1-3.26-2,12.89,12.89,0,0,1-3.07-4.59C206.1,633,206.48,627.42,211.08,619.37Z" transform="translate(-10.35 0.19)" fill="url(#ff117e85-5dc8-4e91-a35c-6c3a89f81c06)"/><path d="M173.52,656.16c10.73.29,15.71-2.58,18.11-5.94a13.14,13.14,0,0,0,2.11-9A47.71,47.71,0,0,0,183,648.69a22.6,22.6,0,0,1,2.3-3,35.58,35.58,0,0,1,7.18-6,14.63,14.63,0,0,0-9.39,1.15C179.17,642.75,175.15,646.87,173.52,656.16Z" transform="translate(-10.35 0.19)" fill="url(#5adaaf15-6ccc-466d-9b70-f36a8aa24118)"/><path d="M193.93,612.76c5.08,6.42,6.32,12,5.75,16.1a12.46,12.46,0,0,1-4.31,8,35.51,35.51,0,0,1-1.82-12.75,15.65,15.65,0,0,0-.67,3.64,27.21,27.21,0,0,0,.57,9.3,13,13,0,0,1-5.37-7.38C187.13,625.6,188.28,620.14,193.93,612.76Z" transform="translate(-10.35 0.19)" fill="url(#51c67b36-2e53-46af-ac0e-18533d526426)"/><path d="M152,644.09a38.83,38.83,0,0,0,6.9.77,18.65,18.65,0,0,0,5.37-.67,12.89,12.89,0,0,0,6.51-3.64,12.3,12.3,0,0,0,3.16-8.63,62,62,0,0,0-11.78,6.13,17.56,17.56,0,0,1,2.59-2.58,42.23,42.23,0,0,1,7.95-5.18,17,17,0,0,0-3.93-.67,12.3,12.3,0,0,0-5.46.58C159.34,631.54,154.74,635.08,152,644.09Z" transform="translate(-10.35 0.19)" fill="url(#bfb57896-a2c7-4c05-ba46-daa028cccab0)"/><path d="M177.83,603.75a30.54,30.54,0,0,1,2.4,5.18,33.62,33.62,0,0,1,1.34,4.4,14.6,14.6,0,0,1-.1,7.09,12.89,12.89,0,0,1-5.36,7.48,31.18,31.18,0,0,1-.19-12.75,21.63,21.63,0,0,0-1.15,3.55,26.69,26.69,0,0,0-.58,9.2,15.33,15.33,0,0,1-2.59-2.78,12.24,12.24,0,0,1-1.72-5.27C169.4,615.54,171.32,610.27,177.83,603.75Z" transform="translate(-10.35 0.19)" fill="url(#34697b6f-3bcb-4b4d-ad94-7b9bfe7ae62c)"/><path d="M132,629.53c10.25,3.06,15.81,1.53,19.07-1.06a12.82,12.82,0,0,0,4.31-8.14,49.63,49.63,0,0,0-12.36,4.41,31.71,31.71,0,0,1,3-2.3,34.09,34.09,0,0,1,8.53-3.93,14.37,14.37,0,0,0-9.39-1.34C140.85,618.13,136,620.9,132,629.53Z" transform="translate(-10.35 0.19)" fill="url(#53c3bbc9-04b8-4407-b3eb-cfbb94445440)"/><path d="M162.88,592.83c3.26,7.47,3.07,13.13,1.44,17a13.41,13.41,0,0,1-6.23,6.71,36.89,36.89,0,0,1,1.54-12.75,18.93,18.93,0,0,0-1.63,3.36,26,26,0,0,0-1.82,9.1,12.65,12.65,0,0,1-3.36-8.53C152.92,603.56,155.6,598.48,162.88,592.83Z" transform="translate(-10.35 0.19)" fill="url(#d30dd48c-43cf-45d0-9ef1-cb4bba2d6db5)"/><path d="M114.31,612.38c9.39,4.69,15.52,3.54,19,1.43a12.31,12.31,0,0,0,5.27-7.47,54.79,54.79,0,0,0-12.94,2.87,19.21,19.21,0,0,1,3.26-1.82,31.67,31.67,0,0,1,3.83-1.53,34.17,34.17,0,0,1,5.18-1.34,15.58,15.58,0,0,0-9.11-2.59C124.56,602.12,119.29,604.33,114.31,612.38Z" transform="translate(-10.35 0.19)" fill="url(#b3cee476-680a-4aa4-9a92-a4ffa9e6a1f3)"/><path d="M149.66,580c1.92,8.24,1.34,13.41-.76,17.06a13.06,13.06,0,0,1-7.09,5.84A30.46,30.46,0,0,1,145,590.53a15.09,15.09,0,0,0-2,3.16,37.61,37.61,0,0,0-1.72,3.74,29.37,29.37,0,0,0-1.25,5,11.94,11.94,0,0,1-2.1-8.91C138.45,589.28,141.61,584.69,149.66,580Z" transform="translate(-10.35 0.19)" fill="url(#735f923d-7e9c-40ac-837d-d87a2d940e0c)"/><path d="M98.78,593.12c9.11,5.65,15,5.46,18.69,3.83a12.51,12.51,0,0,0,6.23-6.71,49.39,49.39,0,0,0-13.13,1.15A25.22,25.22,0,0,1,114,590a33.61,33.61,0,0,1,9.2-1.63,14.58,14.58,0,0,0-8.82-3.64C110.28,584.4,104.82,585.84,98.78,593.12Z" transform="translate(-10.35 0.19)" fill="url(#4baf51c5-df49-4c9f-8146-343b51458cb3)"/><path d="M138.07,565.62c1.15,8.14-.38,13.51-3,16.77a12.36,12.36,0,0,1-7.76,4.79,35.62,35.62,0,0,1,4.79-12,20.3,20.3,0,0,0-2.4,2.78,28,28,0,0,0-4.12,8.33,12.27,12.27,0,0,1-1-9C125.71,573.47,129.54,569.16,138.07,565.62Z" transform="translate(-10.35 0.19)" fill="url(#8682a9f6-c2c4-4323-9215-5e515e64eb49)"/><path d="M86,571.94c4.12,3.45,7.38,5.37,10.44,6.23a13.28,13.28,0,0,0,7.48.1,13,13,0,0,0,7.09-5.85,50.14,50.14,0,0,0-5.37-.57,66.59,66.59,0,0,0-7.76,0,17.07,17.07,0,0,1,3.55-1,38.34,38.34,0,0,1,9.39-.48c-1.44-1.34-3.84-4-8-4.89S92.94,565.52,86,571.94Z" transform="translate(-10.35 0.19)" fill="url(#734b4fa7-9dd5-47da-82cb-98b558289991)"/><path d="M128.58,549.81A31.82,31.82,0,0,1,127,560a15.22,15.22,0,0,1-3.54,6,13.48,13.48,0,0,1-8.34,3.83A31.72,31.72,0,0,1,117,565a34.25,34.25,0,0,1,4.31-6.42,18.63,18.63,0,0,0-2.78,2.49,27.38,27.38,0,0,0-5.17,7.67,12.19,12.19,0,0,1,.29-9.2C115.36,555.84,119.58,552.3,128.58,549.81Z" transform="translate(-10.35 0.19)" fill="url(#09ffae42-1a6e-4b4c-8d47-2c35443d965f)"/><path d="M76,549.33c7.28,7.86,13,9.2,17,8.53A12.93,12.93,0,0,0,100.8,553a51,51,0,0,0-12.94-2.3,17.83,17.83,0,0,1,3.74-.48A39.58,39.58,0,0,1,101,551a15,15,0,0,0-7.57-5.85C89.49,543.77,83.84,543.87,76,549.33Z" transform="translate(-10.35 0.19)" fill="url(#2a1a0c5b-6791-4550-a71b-26f6b1685bb0)"/><path d="M121.11,532.94c-1.06,8.15-3.83,12.94-7.19,15.43a12.93,12.93,0,0,1-8.72,2.68,36.06,36.06,0,0,1,7.67-10.25,23.27,23.27,0,0,0-3.07,2.11,26.44,26.44,0,0,0-6.13,6.9,12.55,12.55,0,0,1,1.34-9C107.22,537.26,112,534.19,121.11,532.94Z" transform="translate(-10.35 0.19)" fill="url(#6ebf33b6-4fbd-4cac-a7bd-0f74d897232e)"/><path d="M69.27,525.47c3.07,4.41,5.75,7.09,8.43,8.72a12.93,12.93,0,0,0,7.29,2,12.78,12.78,0,0,0,8.33-3.83,43.45,43.45,0,0,0-5.08-1.92,58.91,58.91,0,0,0-7.47-2,19.37,19.37,0,0,1,3.74,0,39,39,0,0,1,9.1,2,15.64,15.64,0,0,0-6.52-6.8C83.26,521.83,77.51,521.16,69.27,525.47Z" transform="translate(-10.35 0.19)" fill="url(#c227937a-dd5b-429c-855f-e059f7063f70)"/><path d="M116,515.22a30.58,30.58,0,0,1-4.22,9.39,14.91,14.91,0,0,1-5,4.89,13.12,13.12,0,0,1-9.1,1.53,33.64,33.64,0,0,1,3.07-4.12,40.13,40.13,0,0,1,5.84-5.08,23.49,23.49,0,0,0-3.35,1.63,25.64,25.64,0,0,0-7,6.13A12.13,12.13,0,0,1,99,520.78C101.75,517.71,106.74,515.31,116,515.22Z" transform="translate(-10.35 0.19)" fill="url(#116aa4a9-8b74-4232-9d0e-0404da18cd5a)"/><path d="M65.44,501c5.08,9.39,10.16,12.26,14.28,12.74a12.84,12.84,0,0,0,8.81-2.68,55.11,55.11,0,0,0-11.88-5.65,20.71,20.71,0,0,1,3.74.47,35.31,35.31,0,0,1,8.81,3.17,14.45,14.45,0,0,0-5.75-7.57C79.81,499.31,74.45,497.78,65.44,501Z" transform="translate(-10.35 0.19)" fill="url(#b9a2091f-9777-444a-a1e5-14a91e4a8ecb)"/><path d="M113.25,497c-3.06,7.67-7.09,11.41-10.92,13a12.91,12.91,0,0,1-9.1.29,34.63,34.63,0,0,1,10.06-7.95,19,19,0,0,0-3.45,1.25,29.91,29.91,0,0,0-7.76,5.07,12.32,12.32,0,0,1,3.64-8.33C98.59,497.59,104.15,495.86,113.25,497Z" transform="translate(-10.35 0.19)" fill="url(#161d938d-838a-499a-b23f-90bb3fc8acc1)"/><path d="M65,476.41c3.55,10,8.53,13.42,12.55,14.38a12.29,12.29,0,0,0,9-1.54,61.93,61.93,0,0,0-11.21-7.09,18.42,18.42,0,0,1,3.54,1,39.33,39.33,0,0,1,8.44,4.31c-.58-1.82-1.44-5.46-4.7-8.24C79.52,476.41,74.06,474.31,65,476.41Z" transform="translate(-10.35 0.19)" fill="url(#addd6c09-abc3-4d24-ad64-47d578612445)"/><path d="M112.87,478.52c-4.31,7.19-8.53,10.45-12.46,11.5a13.78,13.78,0,0,1-9.1-.86,31.49,31.49,0,0,1,10.92-6.52,18.34,18.34,0,0,0-3.64.77,26.87,26.87,0,0,0-8.24,4,12.08,12.08,0,0,1,4.79-7.85C98.4,477.18,103.86,476.13,112.87,478.52Z" transform="translate(-10.35 0.19)" fill="url(#f74d0b04-5798-4898-a58f-5fbccc6cce50)"/><path d="M67.64,451.79c2.3,10.35,6.61,14.47,10.45,15.9a12.68,12.68,0,0,0,9.1-.28A55.42,55.42,0,0,0,77.13,459a23.23,23.23,0,0,1,3.45,1.44,33.11,33.11,0,0,1,7.66,5.37A15,15,0,0,0,84.79,457C82,453.8,77.13,450.93,67.64,451.79Z" transform="translate(-10.35 0.19)" fill="url(#e7ca05c6-885d-4d71-8b5c-afb94268a2b3)"/><path d="M114.88,460.22a32,32,0,0,1-7.38,7.19,16.35,16.35,0,0,1-6.61,2.68,13.63,13.63,0,0,1-8.91-2A32.92,32.92,0,0,1,103.77,463a16.49,16.49,0,0,0-3.64.29,28.68,28.68,0,0,0-8.82,3,12.75,12.75,0,0,1,5.75-7.09C100.6,457,106.35,456.68,114.88,460.22Z" transform="translate(-10.35 0.19)" fill="url(#299d673c-f515-4ef3-8735-f9471034ac25)"/><path d="M73.58,427.83a27.85,27.85,0,0,0,3.07,11.79A13.88,13.88,0,0,0,81.73,445a12.94,12.94,0,0,0,9.2.86A51.08,51.08,0,0,0,82,436.07,20.55,20.55,0,0,1,85.27,438a35.45,35.45,0,0,1,7,6.32,15.12,15.12,0,0,0-2.4-9.19C87.67,431.67,83,428.22,73.58,427.83Z" transform="translate(-10.35 0.19)" fill="url(#166f48aa-7e54-406c-ba55-77d07740d1cd)"/><path d="M119.29,442.3a34,34,0,0,1-8.24,6.13,15.58,15.58,0,0,1-7,1.73A13.42,13.42,0,0,1,95.53,447a33.77,33.77,0,0,1,12.36-3.45,16.5,16.5,0,0,0-3.64-.19,26.87,26.87,0,0,0-9.11,1.82,12.51,12.51,0,0,1,6.61-6.33C105.68,437.22,111.24,437.7,119.29,442.3Z" transform="translate(-10.35 0.19)" fill="url(#9c50ab41-4ea2-45a6-86f5-7e5db6b38f38)"/><path d="M82.59,404.74c-.57,10.64,2.68,15.72,5.94,18.11A13,13,0,0,0,97.44,425a56.62,56.62,0,0,0-7.57-10.83,23.77,23.77,0,0,1,3,2.3,35.65,35.65,0,0,1,6,7.19,15.71,15.71,0,0,0-1-9.39C96,410.4,91.79,406.37,82.59,404.74Z" transform="translate(-10.35 0.19)" fill="url(#82a42eb5-195f-4e12-851f-5407af6f3879)"/><path d="M126,425.15c-6.71,5-11.89,6.33-16,5.85a12.64,12.64,0,0,1-8-4.32,32.66,32.66,0,0,1,12.64-1.82,16.34,16.34,0,0,0-3.64-.67,26.75,26.75,0,0,0-9.2.58,12.35,12.35,0,0,1,7.38-5.37C113.16,418.35,118.52,419.5,126,425.15Z" transform="translate(-10.35 0.19)" fill="url(#a0858294-09de-41fa-92fb-d7fc94e0c41f)"/><path d="M94.57,383.09c-1.92,10.44.48,15.81,3.54,18.68a12.23,12.23,0,0,0,8.53,3.16,52.43,52.43,0,0,0-6-11.69,16.28,16.28,0,0,1,2.59,2.69,33.93,33.93,0,0,1,5.08,7.85,14.07,14.07,0,0,0,.1-9.48C107.12,390.47,103.57,386,94.57,383.09Z" transform="translate(-10.35 0.19)" fill="url(#e5e96e83-a9dc-4136-8ba6-8eb7a8b4accc)"/><path d="M134.91,409c-7.19,4.12-12.75,4.69-16.68,3.64a13.22,13.22,0,0,1-7.47-5.37,34.44,34.44,0,0,1,12.84-.09,21.63,21.63,0,0,0-3.55-1.15,26.22,26.22,0,0,0-9.29-.67,13.52,13.52,0,0,1,8-4.41C123,400.53,128.39,402.44,134.91,409Z" transform="translate(-10.35 0.19)" fill="url(#c3217f82-80c9-4137-834c-7a789576760d)"/><path d="M109.23,363.25A38.19,38.19,0,0,0,107.6,370a25.26,25.26,0,0,0,0,5.37,14,14,0,0,0,2.68,6.9,12.86,12.86,0,0,0,8.15,4.31,49.57,49.57,0,0,0-4.51-12.36,25.07,25.07,0,0,1,2.21,3,35.63,35.63,0,0,1,4,8.53,16.72,16.72,0,0,0,1.25-3.84,15.28,15.28,0,0,0,.09-5.55C120.73,372.17,117.76,367.18,109.23,363.25Z" transform="translate(-10.35 0.19)" fill="url(#161e08a8-79ec-4883-8d6b-39ffd970c1f7)"/><path d="M145.83,394.11a36.13,36.13,0,0,1-5.46,1.72,29.19,29.19,0,0,1-4.51.77,16.05,16.05,0,0,1-7.09-1.06,13.32,13.32,0,0,1-6.7-6.22,34.42,34.42,0,0,1,12.74,1.53,19,19,0,0,0-3.35-1.63,25.75,25.75,0,0,0-9-1.82,17.45,17.45,0,0,1,3.16-2.2,11.52,11.52,0,0,1,5.37-1.06C135.19,384.24,140.18,386.83,145.83,394.11Z" transform="translate(-10.35 0.19)" fill="url(#32b21ffb-d0ba-4f86-aad8-ab127c638d6e)"/><path d="M141.61,357.22a31.24,31.24,0,0,0-10.92,5.36,12,12,0,0,0-3.26,15.24,52.26,52.26,0,0,0,7.76-10.64,20.74,20.74,0,0,1-1.15,3.55,34.71,34.71,0,0,1-4.79,8,14.93,14.93,0,0,0,8.53-4.12C140.66,371.69,143.15,366.51,141.61,357.22Z" transform="translate(-10.35 0.19)" fill="url(#4bb85fae-a592-419c-aea8-1021cf9296e4)"/><path d="M194.89,665.08a39.94,39.94,0,0,0,6.8-1.06,23.74,23.74,0,0,0,5-2.11,11.94,11.94,0,0,0,6.23-14.27,59.81,59.81,0,0,0-9.77,9,20.21,20.21,0,0,1,1.82-3.16,42.7,42.7,0,0,1,6.32-7.09,17,17,0,0,0-4,.38,12.13,12.13,0,0,0-5.18,2C198.72,651,195.27,655.59,194.89,665.08Z" transform="translate(-10.35 0.19)" fill="url(#546e4b09-0bd7-4a9f-b285-9611657bbf08)"/><path d="M209.45,619.37a34.81,34.81,0,0,1,3.64,4.41,25.52,25.52,0,0,1,2.49,3.83,15.12,15.12,0,0,1,1.73,6.8,14,14,0,0,1-3.16,8.63,32.55,32.55,0,0,1-3.55-12.27,17.1,17.1,0,0,0-.19,3.74,28.86,28.86,0,0,0,1.82,9,14.67,14.67,0,0,1-3.26-2,12.75,12.75,0,0,1-3.06-4.59C204.37,633,204.85,627.42,209.45,619.37Z" transform="translate(-10.35 0.19)" fill="url(#02473422-158a-4c75-95ca-d9ff00ea7919)"/><path d="M171.89,656.16c10.73.29,15.72-2.58,18.11-5.94a13.08,13.08,0,0,0,2.11-9,47.71,47.71,0,0,0-10.73,7.47,22.6,22.6,0,0,1,2.3-3,35.87,35.87,0,0,1,7.18-6,14.64,14.64,0,0,0-9.39,1.15C177.45,642.75,173.42,646.87,171.89,656.16Z" transform="translate(-10.35 0.19)" fill="url(#2d1480aa-2ec4-459c-b534-ff9e5e11d0ed)"/><path d="M192.2,612.76c5.08,6.42,6.33,12,5.75,16.1a12.42,12.42,0,0,1-4.31,8,36,36,0,0,1-1.82-12.75,15.65,15.65,0,0,0-.67,3.64,27,27,0,0,0,.58,9.3,13,13,0,0,1-5.37-7.38C185.4,625.6,186.55,620.14,192.2,612.76Z" transform="translate(-10.35 0.19)" fill="url(#3ca8bdac-9cde-4a7c-8795-c6d4a366e039)"/><path d="M150.24,644.09a38.63,38.63,0,0,0,6.9.77,18.53,18.53,0,0,0,5.36-.67,12.88,12.88,0,0,0,6.52-3.64,12.35,12.35,0,0,0,3.16-8.63,62,62,0,0,0-11.79,6.13,18.22,18.22,0,0,1,2.59-2.58,39.72,39.72,0,0,1,8-5.18,17,17,0,0,0-3.93-.67,12.32,12.32,0,0,0-5.46.58C157.61,631.54,153,635.08,150.24,644.09Z" transform="translate(-10.35 0.19)" fill="url(#1bfa4be3-f7da-4654-98a7-571d59535106)"/><path d="M176.11,603.75a30.45,30.45,0,0,1,2.39,5.18,30.81,30.81,0,0,1,1.34,4.4,14.61,14.61,0,0,1-.09,7.09,12.94,12.94,0,0,1-5.37,7.48,31.55,31.55,0,0,1-.19-12.75A22.92,22.92,0,0,0,173,618.7a26.72,26.72,0,0,0-.57,9.2,15,15,0,0,1-2.59-2.78,12.38,12.38,0,0,1-1.73-5.27C167.68,615.54,169.59,610.27,176.11,603.75Z" transform="translate(-10.35 0.19)" fill="url(#5254f68d-8df2-4084-886b-2889a112f759)"/><path d="M130.31,629.53c10.25,3.06,15.81,1.53,19.06-1.06a12.79,12.79,0,0,0,4.32-8.14,49.63,49.63,0,0,0-12.36,4.41,31.71,31.71,0,0,1,3-2.3,34,34,0,0,1,8.52-3.93,14.35,14.35,0,0,0-9.39-1.34C139.12,618.13,134.24,620.9,130.31,629.53Z" transform="translate(-10.35 0.19)" fill="url(#bb1d7cdd-9b11-4e0a-a634-887dc64f8e12)"/><path d="M161.16,592.83c3.26,7.47,3.07,13.13,1.44,17a13.45,13.45,0,0,1-6.23,6.71,36.82,36.82,0,0,1,1.53-12.75,19.84,19.84,0,0,0-1.63,3.36,26.27,26.27,0,0,0-1.82,9.1,12.65,12.65,0,0,1-3.35-8.53C151.2,603.56,153.88,598.48,161.16,592.83Z" transform="translate(-10.35 0.19)" fill="url(#8a8939ba-b09b-42c1-89e6-29cf1f2f803e)"/><path d="M112.58,612.38c9.39,4.69,15.52,3.54,19,1.43a12.27,12.27,0,0,0,5.27-7.47,54.74,54.74,0,0,0-12.93,2.87,19.21,19.21,0,0,1,3.26-1.82,31,31,0,0,1,3.83-1.53,34,34,0,0,1,5.17-1.34,15.54,15.54,0,0,0-9.1-2.59C122.93,602.12,117.56,604.33,112.58,612.38Z" transform="translate(-10.35 0.19)" fill="url(#100d82bb-d253-48a3-902b-5069be5c4209)"/><path d="M147.94,580c1.91,8.24,1.34,13.41-.77,17.06a13,13,0,0,1-7.09,5.84,30.8,30.8,0,0,1,3.16-12.36,14.86,14.86,0,0,0-2,3.16,35.47,35.47,0,0,0-1.72,3.74,29.37,29.37,0,0,0-1.25,5,11.94,11.94,0,0,1-2.11-8.91C136.73,589.28,139.89,584.69,147.94,580Z" transform="translate(-10.35 0.19)" fill="url(#83b70207-79bc-4df9-8ce6-95b1bcb10c75)"/><path d="M97.06,593.12c9.1,5.65,15,5.46,18.68,3.83a12.47,12.47,0,0,0,6.23-6.71,49.41,49.41,0,0,0-13.13,1.15,26,26,0,0,1,3.45-1.43,33.76,33.76,0,0,1,9.2-1.63,14.55,14.55,0,0,0-8.81-3.64C108.56,584.4,103.1,585.84,97.06,593.12Z" transform="translate(-10.35 0.19)" fill="url(#0aeedd24-c1fa-4631-aea7-197dbfb7a38c)"/><path d="M136.34,565.62c1.15,8.14-.38,13.51-3,16.77a12.36,12.36,0,0,1-7.76,4.79,35.84,35.84,0,0,1,4.79-12A20.76,20.76,0,0,0,128,578a28,28,0,0,0-4.12,8.33,12.27,12.27,0,0,1-1.06-9C124,573.47,127.82,569.16,136.34,565.62Z" transform="translate(-10.35 0.19)" fill="url(#52c2b2c8-8d52-40ff-9350-2657b3765fda)"/><path d="M84.32,571.94c4.12,3.45,7.37,5.37,10.44,6.23a13.24,13.24,0,0,0,7.47.1,12.93,12.93,0,0,0,7.09-5.85,50.2,50.2,0,0,0-5.36-.57,66.6,66.6,0,0,0-7.76,0,17.08,17.08,0,0,1,3.54-1,38.38,38.38,0,0,1,9.39-.48c-1.44-1.34-3.83-4-8-4.89S91.21,565.52,84.32,571.94Z" transform="translate(-10.35 0.19)" fill="url(#134c7cc6-35b2-4f47-9695-422a49da312a)"/><path d="M126.86,549.81A32.1,32.1,0,0,1,125.23,560a15.23,15.23,0,0,1-3.55,6,13.44,13.44,0,0,1-8.33,3.83,31.51,31.51,0,0,1,1.91-4.79,34.36,34.36,0,0,1,4.32-6.42,18.63,18.63,0,0,0-2.78,2.49,27.18,27.18,0,0,0-5.18,7.67,12.24,12.24,0,0,1,.29-9.2C113.64,555.84,117.85,552.3,126.86,549.81Z" transform="translate(-10.35 0.19)" fill="url(#3ebd9f1a-1783-46f6-994a-542a24267296)"/><path d="M74.25,549.33c7.29,7.86,13,9.2,17.06,8.53A12.94,12.94,0,0,0,99.07,553a50.86,50.86,0,0,0-12.93-2.3,17.79,17.79,0,0,1,3.73-.48,39.55,39.55,0,0,1,9.39.77,15,15,0,0,0-7.57-5.85C87.76,543.77,82.11,543.87,74.25,549.33Z" transform="translate(-10.35 0.19)" fill="url(#3ca7bd62-678b-4ae2-a701-8c50f2403ddd)"/><path d="M119.38,532.94c-1,8.15-3.83,12.94-7.18,15.43a12.93,12.93,0,0,1-8.72,2.68,34.29,34.29,0,0,1,7.66-10.25,23.68,23.68,0,0,0-3.06,2.11,26.44,26.44,0,0,0-6.13,6.9,12.5,12.5,0,0,1,1.34-9C105.49,537.26,110.28,534.19,119.38,532.94Z" transform="translate(-10.35 0.19)" fill="url(#bfaee8a7-d4dc-4af7-bcef-8253e752d8f2)"/><path d="M67.55,525.47c3.06,4.41,5.75,7.09,8.43,8.72a12.21,12.21,0,0,0,15.62-1.82,44.16,44.16,0,0,0-5.08-1.92,58.91,58.91,0,0,0-7.47-2,19.24,19.24,0,0,1,3.73,0,38.93,38.93,0,0,1,9.11,2,15.7,15.7,0,0,0-6.52-6.8C81.63,521.83,75.88,521.16,67.55,525.47Z" transform="translate(-10.35 0.19)" fill="url(#401411dd-506d-496e-bb94-b688a139efcc)"/><path d="M114.4,515.22a30.83,30.83,0,0,1-4.21,9.39,15,15,0,0,1-5,4.89A13.12,13.12,0,0,1,96.1,531a34.72,34.72,0,0,1,3.07-4.12,40.13,40.13,0,0,1,5.84-5.08,23.49,23.49,0,0,0-3.35,1.63,25.64,25.64,0,0,0-7,6.13,12.13,12.13,0,0,1,2.69-8.81C100,517.71,105,515.31,114.4,515.22Z" transform="translate(-10.35 0.19)" fill="url(#340770f6-d148-4d19-8804-fd7ab5bbe894)"/><path d="M63.72,501c5.07,9.39,10.15,12.26,14.27,12.74a12.88,12.88,0,0,0,8.82-2.68,55.6,55.6,0,0,0-11.88-5.65,20.66,20.66,0,0,1,3.73.47,35.5,35.5,0,0,1,8.82,3.17,14.56,14.56,0,0,0-5.75-7.57C78.09,499.31,72.72,497.78,63.72,501Z" transform="translate(-10.35 0.19)" fill="url(#4b0ec3d9-2609-4197-8609-4aa088b613b8)"/><path d="M111.53,497c-3.07,7.67-7.09,11.41-10.93,13a12.92,12.92,0,0,1-9.1.29,34.92,34.92,0,0,1,10.06-7.95,19,19,0,0,0-3.45,1.25,30.24,30.24,0,0,0-7.76,5.07A12.37,12.37,0,0,1,94,500.37C96.87,497.59,102.42,495.86,111.53,497Z" transform="translate(-10.35 0.19)" fill="url(#2df4b8f8-ce9e-4080-940d-2dedea0ac33d)"/><path d="M63.24,476.41c3.54,10,8.52,13.42,12.55,14.38a12.26,12.26,0,0,0,9-1.54,61.2,61.2,0,0,0-11.21-7.09,18.6,18.6,0,0,1,3.55,1,39.3,39.3,0,0,1,8.43,4.31c-.57-1.82-1.44-5.46-4.69-8.24C77.8,476.41,72.43,474.31,63.24,476.41Z" transform="translate(-10.35 0.19)" fill="url(#67580520-1c66-4be2-8bdc-347154f4fa4a)"/><path d="M111.14,478.52c-4.31,7.19-8.52,10.45-12.45,11.5a13.77,13.77,0,0,1-9.1-.86,31.39,31.39,0,0,1,10.92-6.52,18.19,18.19,0,0,0-3.64.77,26.76,26.76,0,0,0-8.24,4,12,12,0,0,1,4.79-7.85C96.68,477.18,102.14,476.13,111.14,478.52Z" transform="translate(-10.35 0.19)" fill="url(#6f6d3cda-0b1c-433b-8555-902ffaec6a09)"/><path d="M65.92,451.79c2.3,10.35,6.61,14.47,10.44,15.9a12.71,12.71,0,0,0,9.11-.28A55.57,55.57,0,0,0,75.4,459a22.72,22.72,0,0,1,3.45,1.44,33.35,33.35,0,0,1,7.67,5.37A15.05,15.05,0,0,0,83.07,457C80.29,453.8,75.4,450.93,65.92,451.79Z" transform="translate(-10.35 0.19)" fill="url(#95982f4f-b2ab-476a-a730-4240628c0138)"/><path d="M113.16,460.22a32.4,32.4,0,0,1-7.38,7.19,16.4,16.4,0,0,1-6.61,2.68,13.61,13.61,0,0,1-8.91-2A32.77,32.77,0,0,1,102,463a16.49,16.49,0,0,0-3.64.29,28.55,28.55,0,0,0-8.81,3,12.73,12.73,0,0,1,5.74-7.09C98.88,457,104.63,456.68,113.16,460.22Z" transform="translate(-10.35 0.19)" fill="url(#1c17909a-c39e-4930-8ed6-e0ccb2ecf987)"/><path d="M71.86,427.83a27.85,27.85,0,0,0,3.07,11.79A13.86,13.86,0,0,0,80,445a12.94,12.94,0,0,0,9.2.86,50.4,50.4,0,0,0-8.91-9.78A20.85,20.85,0,0,1,83.55,438a35.44,35.44,0,0,1,7,6.32,15,15,0,0,0-2.39-9.19C85.94,431.67,81.35,428.22,71.86,427.83Z" transform="translate(-10.35 0.19)" fill="url(#4eed0e93-9aa1-40b6-b14a-8ca51b9b7778)"/><path d="M117.56,442.3a33.82,33.82,0,0,1-8.24,6.13,15.54,15.54,0,0,1-7,1.73A13.46,13.46,0,0,1,93.8,447a33.9,33.9,0,0,1,12.36-3.45,16.5,16.5,0,0,0-3.64-.19,26.82,26.82,0,0,0-9.1,1.82,12.44,12.44,0,0,1,6.61-6.33C104,437.22,109.52,437.7,117.56,442.3Z" transform="translate(-10.35 0.19)" fill="url(#48fcfed4-3c2c-47b7-a0fc-91d5dcecaa98)"/><path d="M80.87,404.74c-.58,10.64,2.68,15.72,5.94,18.11A13,13,0,0,0,95.72,425a57.09,57.09,0,0,0-7.57-10.83,24.69,24.69,0,0,1,3,2.3,35.65,35.65,0,0,1,6,7.19,15.71,15.71,0,0,0-1.05-9.39C94.28,410.4,90.16,406.37,80.87,404.74Z" transform="translate(-10.35 0.19)" fill="url(#10416326-6e8c-41ee-bfb1-d426aa3b8cec)"/><path d="M124.27,425.15c-6.71,5-11.88,6.33-16,5.85a12.7,12.7,0,0,1-8-4.32,32.72,32.72,0,0,1,12.65-1.82,16.34,16.34,0,0,0-3.64-.67,26.74,26.74,0,0,0-9.2.58,12.32,12.32,0,0,1,7.38-5.37C111.43,418.35,116.89,419.5,124.27,425.15Z" transform="translate(-10.35 0.19)" fill="url(#365686f5-f008-44b9-b2b2-120f5220a192)"/><path d="M92.84,383.09c-1.91,10.44.48,15.81,3.55,18.68a12.22,12.22,0,0,0,8.53,3.16,52.43,52.43,0,0,0-6-11.69,16.28,16.28,0,0,1,2.59,2.69,33.62,33.62,0,0,1,5.07,7.85,14,14,0,0,0,.1-9.48C105.4,390.47,101.85,386,92.84,383.09Z" transform="translate(-10.35 0.19)" fill="url(#d4863797-1291-440c-9025-cfd5e7982449)"/><path d="M133.18,409c-7.18,4.12-12.74,4.69-16.67,3.64a13.19,13.19,0,0,1-7.47-5.37,34.42,34.42,0,0,1,12.84-.09,21.63,21.63,0,0,0-3.55-1.15,26.25,26.25,0,0,0-9.29-.67,13.45,13.45,0,0,1,8-4.41C121.4,400.53,126.67,402.44,133.18,409Z" transform="translate(-10.35 0.19)" fill="url(#12ab4e13-63ee-447d-8a19-9bbb28f3d3b2)"/><path d="M107.5,363.25a38.19,38.19,0,0,0-1.63,6.71,25.26,25.26,0,0,0,0,5.37,14,14,0,0,0,2.69,6.9,12.84,12.84,0,0,0,8.14,4.31,49.85,49.85,0,0,0-4.5-12.36,24.48,24.48,0,0,1,2.2,3,35.22,35.22,0,0,1,4,8.53,16.78,16.78,0,0,0,1.24-3.84,15.27,15.27,0,0,0,.1-5.55C119,372.17,116,367.18,107.5,363.25Z" transform="translate(-10.35 0.19)" fill="url(#c73eda13-215d-4850-a103-b43174d9fed2)"/><path d="M144.2,394.11a36.13,36.13,0,0,1-5.46,1.72,29.28,29.28,0,0,1-4.5.77,16,16,0,0,1-7.09-1.06,13.31,13.31,0,0,1-6.71-6.22,34.42,34.42,0,0,1,12.74,1.53,19,19,0,0,0-3.35-1.63,25.75,25.75,0,0,0-9-1.82,17.45,17.45,0,0,1,3.16-2.2,11.52,11.52,0,0,1,5.37-1.06C133.47,384.24,138.45,386.83,144.2,394.11Z" transform="translate(-10.35 0.19)" fill="url(#82224883-ec93-49fc-8cf8-274a99e1bdc0)"/><path d="M139.89,357.22A31.15,31.15,0,0,0,129,362.58a12,12,0,0,0-3.26,15.24,52.65,52.65,0,0,0,7.76-10.64,21.93,21.93,0,0,1-1.15,3.55,35.07,35.07,0,0,1-4.79,8,14.93,14.93,0,0,0,8.53-4.12C138.93,371.69,141.42,366.51,139.89,357.22Z" transform="translate(-10.35 0.19)" fill="url(#f8a64c51-1f57-4616-ab5b-f8098afee131)"/><path d="M304.69,665.08a39.94,39.94,0,0,1-6.8-1.06,23.74,23.74,0,0,1-5-2.11,11.94,11.94,0,0,1-6.23-14.27,59.81,59.81,0,0,1,9.77,9,20.21,20.21,0,0,0-1.82-3.16,42.7,42.7,0,0,0-6.32-7.09,17,17,0,0,1,4,.38,12.13,12.13,0,0,1,5.18,2C300.86,651,304.31,655.59,304.69,665.08Z" transform="translate(-10.35 0.19)" fill="url(#35cbd097-111f-4d2c-a46f-e01fba9f86bc)"/><path d="M290.22,619.37a35.69,35.69,0,0,0-3.64,4.41,26.33,26.33,0,0,0-2.49,3.83,15.23,15.23,0,0,0-1.72,6.8,14,14,0,0,0,3.16,8.63,32.59,32.59,0,0,0,3.54-12.27,17.41,17.41,0,0,1,.2,3.74,28.86,28.86,0,0,1-1.82,9,14.64,14.64,0,0,0,3.25-2,12.89,12.89,0,0,0,3.07-4.59C295.21,633,294.82,627.42,290.22,619.37Z" transform="translate(-10.35 0.19)" fill="url(#57a7825a-4b72-40b2-a12b-8c88275d7d20)"/><path d="M327.78,656.16c-10.73.29-15.71-2.58-18.11-5.94a13.12,13.12,0,0,1-2.1-9,48.16,48.16,0,0,1,10.73,7.47,23.77,23.77,0,0,0-2.3-3,35.69,35.69,0,0,0-7.19-6,14.63,14.63,0,0,1,9.39,1.15C322.13,642.75,326.16,646.87,327.78,656.16Z" transform="translate(-10.35 0.19)" fill="url(#fb18139f-df60-4d6d-8997-2a71233f31c8)"/><path d="M307.38,612.76c-5.08,6.42-6.33,12-5.75,16.1a12.42,12.42,0,0,0,4.31,8,36,36,0,0,0,1.82-12.75,15.65,15.65,0,0,1,.67,3.64,27,27,0,0,1-.58,9.3,13,13,0,0,0,5.37-7.38C314.18,625.6,313,620.14,307.38,612.76Z" transform="translate(-10.35 0.19)" fill="url(#05086a82-3fd6-42c2-8086-2710497982f8)"/><path d="M349.34,644.09a38.63,38.63,0,0,1-6.9.77,18.53,18.53,0,0,1-5.36-.67,12.88,12.88,0,0,1-6.52-3.64,12.35,12.35,0,0,1-3.16-8.63,62,62,0,0,1,11.79,6.13,18.22,18.22,0,0,0-2.59-2.58,42.57,42.57,0,0,0-8-5.18,17,17,0,0,1,3.92-.67,12.35,12.35,0,0,1,5.47.58C342,631.54,346.56,635.08,349.34,644.09Z" transform="translate(-10.35 0.19)" fill="url(#ba9dbfb5-674a-4198-bdd9-43c57b095b00)"/><path d="M323.47,603.75a30.45,30.45,0,0,0-2.39,5.18,30.81,30.81,0,0,0-1.34,4.4,14.61,14.61,0,0,0,.09,7.09,12.94,12.94,0,0,0,5.37,7.48,31.55,31.55,0,0,0,.19-12.75,22.92,22.92,0,0,1,1.15,3.55,26.72,26.72,0,0,1,.57,9.2,15,15,0,0,0,2.59-2.78,12.38,12.38,0,0,0,1.73-5.27C331.9,615.54,330.08,610.27,323.47,603.75Z" transform="translate(-10.35 0.19)" fill="url(#99bc3df7-3911-4b66-b288-51175bbe9299)"/><path d="M369.37,629.53c-10.25,3.06-15.81,1.53-19.07-1.06a12.82,12.82,0,0,1-4.31-8.14,49.63,49.63,0,0,1,12.36,4.41,31.71,31.71,0,0,0-3-2.3,34.09,34.09,0,0,0-8.53-3.93,14.37,14.37,0,0,1,9.39-1.34C360.46,618.13,365.34,620.9,369.37,629.53Z" transform="translate(-10.35 0.19)" fill="url(#d0b2a1b7-569a-47f7-b824-8312e0c2a4b5)"/><path d="M338.42,592.83c-3.26,7.47-3.07,13.13-1.44,17a13.45,13.45,0,0,0,6.23,6.71,36.82,36.82,0,0,0-1.53-12.75,19.84,19.84,0,0,1,1.63,3.36,26.27,26.27,0,0,1,1.82,9.1,12.65,12.65,0,0,0,3.35-8.53C348.38,603.56,345.7,598.48,338.42,592.83Z" transform="translate(-10.35 0.19)" fill="url(#9fc6cd35-0e6b-4809-87d9-85cce38363f8)"/><path d="M387.09,612.38c-9.39,4.69-15.52,3.54-19,1.43a12.31,12.31,0,0,1-5.27-7.47,54.79,54.79,0,0,1,12.94,2.87,19.21,19.21,0,0,0-3.26-1.82,31.67,31.67,0,0,0-3.83-1.53,34.17,34.17,0,0,0-5.18-1.34,15.58,15.58,0,0,1,9.11-2.59C376.75,602.12,382,604.33,387.09,612.38Z" transform="translate(-10.35 0.19)" fill="url(#b6e76532-8253-4fde-937e-2818ce9ad137)"/><path d="M351.64,580c-1.91,8.24-1.34,13.41.77,17.06a13,13,0,0,0,7.09,5.84,30.8,30.8,0,0,0-3.16-12.36,14.86,14.86,0,0,1,2,3.16,35.47,35.47,0,0,1,1.72,3.74,29.37,29.37,0,0,1,1.25,5,11.94,11.94,0,0,0,2.11-8.91C362.85,589.28,359.69,584.69,351.64,580Z" transform="translate(-10.35 0.19)" fill="url(#833fda12-0957-40cc-a21f-5000041a6220)"/><path d="M402.62,593.12c-9.11,5.65-14.95,5.46-18.69,3.83a12.51,12.51,0,0,1-6.23-6.71,49.39,49.39,0,0,1,13.13,1.15,25.22,25.22,0,0,0-3.45-1.43,33.61,33.61,0,0,0-9.2-1.63,14.58,14.58,0,0,1,8.82-3.64C391.12,584.4,396.48,585.84,402.62,593.12Z" transform="translate(-10.35 0.19)" fill="url(#d0ece8f6-bada-414d-a87e-15603e1d913d)"/><path d="M363.33,565.62c-1.15,8.14.39,13.51,3,16.77a12.36,12.36,0,0,0,7.76,4.79,35.62,35.62,0,0,0-4.79-12,20.3,20.3,0,0,1,2.4,2.78,28,28,0,0,1,4.12,8.33,12.27,12.27,0,0,0,1-9C375.69,573.47,371.76,569.16,363.33,565.62Z" transform="translate(-10.35 0.19)" fill="url(#52508746-16e2-4604-b38c-f314294e6990)"/><path d="M415.26,571.94c-4.12,3.45-7.37,5.37-10.44,6.23a13.24,13.24,0,0,1-7.47.1,12.93,12.93,0,0,1-7.09-5.85,50.2,50.2,0,0,1,5.36-.57,66.6,66.6,0,0,1,7.76,0,17.08,17.08,0,0,0-3.54-1,38.38,38.38,0,0,0-9.39-.48c1.43-1.34,3.83-4,8.05-4.89S408.37,565.52,415.26,571.94Z" transform="translate(-10.35 0.19)" fill="url(#c4dfb4a9-be27-414b-aa27-2537f0d84eaf)"/><path d="M372.72,549.81A32.1,32.1,0,0,0,374.35,560a15.23,15.23,0,0,0,3.55,6,13.44,13.44,0,0,0,8.33,3.83,31.51,31.51,0,0,0-1.91-4.79,34.36,34.36,0,0,0-4.32-6.42,18.63,18.63,0,0,1,2.78,2.49,27.18,27.18,0,0,1,5.18,7.67,12.24,12.24,0,0,0-.29-9.2C385.94,555.84,381.73,552.3,372.72,549.81Z" transform="translate(-10.35 0.19)" fill="url(#81cfcb28-de91-42e8-a7d3-28867a060432)"/><path d="M425.32,549.33c-7.28,7.86-13,9.2-17.05,8.53a12.94,12.94,0,0,1-7.76-4.89,50.86,50.86,0,0,1,12.93-2.3,17.79,17.79,0,0,0-3.73-.48,39.55,39.55,0,0,0-9.39.77,15,15,0,0,1,7.57-5.85C411.91,543.77,417.56,543.87,425.32,549.33Z" transform="translate(-10.35 0.19)" fill="url(#8dc2c251-2e9d-4dd5-a7b1-639c4a42a25c)"/><path d="M380.2,532.94c1.05,8.15,3.83,12.94,7.18,15.43a12.93,12.93,0,0,0,8.72,2.68,34.29,34.29,0,0,0-7.66-10.25,23.68,23.68,0,0,1,3.06,2.11,26.44,26.44,0,0,1,6.13,6.9,12.5,12.5,0,0,0-1.34-9C394.18,537.26,389.3,534.19,380.2,532.94Z" transform="translate(-10.35 0.19)" fill="url(#86313cb5-9e50-47a0-ae57-5b2a33011a6d)"/><path d="M432.13,525.47c-3.07,4.41-5.75,7.09-8.43,8.72a12.93,12.93,0,0,1-7.29,2,12.78,12.78,0,0,1-8.33-3.83,43.45,43.45,0,0,1,5.08-1.92,58.91,58.91,0,0,1,7.47-2,19.37,19.37,0,0,0-3.74,0,39,39,0,0,0-9.1,2,15.64,15.64,0,0,1,6.52-6.8C418,521.83,423.79,521.16,432.13,525.47Z" transform="translate(-10.35 0.19)" fill="url(#f535c98a-5bca-4ad4-b1fe-6a0ab7067453)"/><path d="M385.27,515.22a31.06,31.06,0,0,0,4.22,9.39,15,15,0,0,0,5,4.89,13.13,13.13,0,0,0,9.1,1.53,34.47,34.47,0,0,0-3.06-4.12,39.73,39.73,0,0,0-5.85-5.08,23.23,23.23,0,0,1,3.36,1.63,25.77,25.77,0,0,1,7,6.13,12.06,12.06,0,0,0-2.68-8.81C399.55,517.71,394.57,515.31,385.27,515.22Z" transform="translate(-10.35 0.19)" fill="url(#b0d97b9c-75e0-4ae0-be64-e1d24f4cf2fc)"/><path d="M435.86,501c-5.07,9.39-10.15,12.26-14.27,12.74a12.88,12.88,0,0,1-8.82-2.68,55.6,55.6,0,0,1,11.88-5.65,20.66,20.66,0,0,0-3.73.47,35.5,35.5,0,0,0-8.82,3.17,14.56,14.56,0,0,1,5.75-7.57C421.49,499.31,427,497.78,435.86,501Z" transform="translate(-10.35 0.19)" fill="url(#f6284b7f-ef41-4898-9af1-e93406807544)"/><path d="M388.15,497c3.06,7.67,7.09,11.41,10.92,13a12.91,12.91,0,0,0,9.1.29,34.63,34.63,0,0,0-10.06-7.95,19,19,0,0,1,3.45,1.25,29.91,29.91,0,0,1,7.76,5.07,12.32,12.32,0,0,0-3.64-8.33C402.71,497.59,397.15,495.86,388.15,497Z" transform="translate(-10.35 0.19)" fill="url(#1ee8a22f-933d-4dfb-97e2-7cb0d24174c4)"/><path d="M436.34,476.41c-3.54,10-8.52,13.42-12.55,14.38a12.26,12.26,0,0,1-9-1.54A61.2,61.2,0,0,1,426,482.16a18.6,18.6,0,0,0-3.55,1,39.3,39.3,0,0,0-8.43,4.31c.57-1.82,1.44-5.46,4.69-8.24S427.24,474.31,436.34,476.41Z" transform="translate(-10.35 0.19)" fill="url(#dd5d58fb-9a8a-4b14-8e47-81f73692568f)"/><path d="M388.44,478.52c4.31,7.19,8.52,10.45,12.45,11.5a13.77,13.77,0,0,0,9.1-.86,31.39,31.39,0,0,0-10.92-6.52,18.19,18.19,0,0,1,3.64.77,26.76,26.76,0,0,1,8.24,4,12,12,0,0,0-4.79-7.85C403,477.18,397.44,476.13,388.44,478.52Z" transform="translate(-10.35 0.19)" fill="url(#935f0513-70d6-4961-805a-af215301f0b4)"/><path d="M433.66,451.79c-2.3,10.35-6.61,14.47-10.44,15.9a12.71,12.71,0,0,1-9.11-.28A55.57,55.57,0,0,1,424.18,459a22.72,22.72,0,0,0-3.45,1.44,33.35,33.35,0,0,0-7.67,5.37,15.05,15.05,0,0,1,3.45-8.82C419.29,453.8,424.18,450.93,433.66,451.79Z" transform="translate(-10.35 0.19)" fill="url(#577e1d54-9f78-456f-8ca5-1758ee0b2f88)"/><path d="M386.42,460.22a32.2,32.2,0,0,0,7.38,7.19,16.4,16.4,0,0,0,6.61,2.68,13.61,13.61,0,0,0,8.91-2A32.77,32.77,0,0,0,397.54,463a16.49,16.49,0,0,1,3.64.29,28.64,28.64,0,0,1,8.81,3,12.73,12.73,0,0,0-5.74-7.09C400.7,457,395,456.68,386.42,460.22Z" transform="translate(-10.35 0.19)" fill="url(#ffe2695c-8f90-4e65-bb1e-c4c1ea9d9163)"/><path d="M427.72,427.83a27.85,27.85,0,0,1-3.07,11.79,13.86,13.86,0,0,1-5.07,5.37,13,13,0,0,1-9.2.86,50.4,50.4,0,0,1,8.91-9.78A20.85,20.85,0,0,0,416,438a35.44,35.44,0,0,0-7,6.32,15,15,0,0,1,2.39-9.19C413.73,431.67,418.33,428.22,427.72,427.83Z" transform="translate(-10.35 0.19)" fill="url(#dcbac9e7-fe7d-49f0-984c-78edb5fcc14a)"/><path d="M382,442.3a33.82,33.82,0,0,0,8.24,6.13,15.54,15.54,0,0,0,7,1.73,13.46,13.46,0,0,0,8.53-3.16,33.9,33.9,0,0,0-12.36-3.45,16.5,16.5,0,0,1,3.64-.19,26.82,26.82,0,0,1,9.1,1.82,12.44,12.44,0,0,0-6.61-6.33C395.62,437.22,390.06,437.7,382,442.3Z" transform="translate(-10.35 0.19)" fill="url(#14e894d9-01b9-4690-94fa-2b4d2a1f1b25)"/><path d="M418.71,404.74c.58,10.64-2.68,15.72-5.94,18.11a13,13,0,0,1-8.91,2.11,57.09,57.09,0,0,1,7.57-10.83,24.69,24.69,0,0,0-3,2.3,36,36,0,0,0-6,7.19,15.81,15.81,0,0,1,1.06-9.39C405.3,410.4,409.52,406.37,418.71,404.74Z" transform="translate(-10.35 0.19)" fill="url(#863d3621-a8b1-4c9c-8ddc-e961b15dbd86)"/><path d="M375.31,425.15c6.71,5,11.88,6.33,16,5.85a12.7,12.7,0,0,0,8.05-4.32,32.72,32.72,0,0,0-12.65-1.82,16.34,16.34,0,0,1,3.64-.67,26.74,26.74,0,0,1,9.2.58,12.32,12.32,0,0,0-7.38-5.37C388.24,418.35,382.78,419.5,375.31,425.15Z" transform="translate(-10.35 0.19)" fill="url(#c98bcf51-d26b-4ec3-b436-9dcc6b770ffa)"/><path d="M406.74,383.09c1.91,10.44-.48,15.81-3.55,18.68a12.22,12.22,0,0,1-8.53,3.16,52.43,52.43,0,0,1,6-11.69,16.28,16.28,0,0,0-2.59,2.69,33.93,33.93,0,0,0-5.08,7.85,14,14,0,0,1-.09-9.48C394.18,390.47,397.73,386,406.74,383.09Z" transform="translate(-10.35 0.19)" fill="url(#72e8ef45-b9d9-4c1d-bf93-e748e52ad1de)"/><path d="M366.4,409c7.18,4.12,12.74,4.69,16.67,3.64a13.19,13.19,0,0,0,7.47-5.37,34.42,34.42,0,0,0-12.84-.09,21.63,21.63,0,0,1,3.55-1.15,26.25,26.25,0,0,1,9.29-.67,13.45,13.45,0,0,0-8-4.41C378.28,400.53,373,402.44,366.4,409Z" transform="translate(-10.35 0.19)" fill="url(#339fb83f-9539-472d-b4cd-ce190bf3377a)"/><path d="M392.08,363.25a38.19,38.19,0,0,1,1.63,6.71,25.26,25.26,0,0,1,0,5.37,14,14,0,0,1-2.69,6.9,12.84,12.84,0,0,1-8.14,4.31,49.85,49.85,0,0,1,4.5-12.36,24.48,24.48,0,0,0-2.2,3,35.22,35.22,0,0,0-4,8.53,16.78,16.78,0,0,1-1.24-3.84,15.27,15.27,0,0,1-.1-5.55C380.58,372.17,383.55,367.18,392.08,363.25Z" transform="translate(-10.35 0.19)" fill="url(#948dd379-1567-4b6e-b828-5a86f5ad0cb7)"/><path d="M355.47,394.11a35.88,35.88,0,0,0,5.47,1.72,29.28,29.28,0,0,0,4.5.77,16,16,0,0,0,7.09-1.06,13.4,13.4,0,0,0,6.71-6.22,34.45,34.45,0,0,0-12.75,1.53,18.93,18.93,0,0,1,3.36-1.63,25.69,25.69,0,0,1,9-1.82,17.09,17.09,0,0,0-3.16-2.2,11.5,11.5,0,0,0-5.36-1.06C366.11,384.24,361.13,386.83,355.47,394.11Z" transform="translate(-10.35 0.19)" fill="url(#ab58e0ed-144d-447e-a22a-dff4e2388692)"/><path d="M359.69,357.22a31.15,31.15,0,0,1,10.92,5.36,12,12,0,0,1,3.26,15.24,52.65,52.65,0,0,1-7.76-10.64,21.93,21.93,0,0,0,1.15,3.55,35.07,35.07,0,0,0,4.79,8,14.93,14.93,0,0,1-8.53-4.12C360.65,371.69,358.16,366.51,359.69,357.22Z" transform="translate(-10.35 0.19)" fill="url(#e0e1e5b0-4ed0-47cc-a338-a9ef30713f7c)"/><path d="M306.42,665.08a39.9,39.9,0,0,1-6.81-1.06,24,24,0,0,1-5-2.11,12,12,0,0,1-6.23-14.27,59.77,59.77,0,0,1,9.78,9,21.28,21.28,0,0,0-1.82-3.16,42.38,42.38,0,0,0-6.33-7.09,17.08,17.08,0,0,1,4,.38,12,12,0,0,1,5.17,2C302.58,651,306,655.59,306.42,665.08Z" transform="translate(-10.35 0.19)" fill="url(#96f36b29-72cf-4568-bdee-68de3320db41)"/><path d="M292,619.37a34.81,34.81,0,0,0-3.64,4.41,25.52,25.52,0,0,0-2.49,3.83,15.12,15.12,0,0,0-1.73,6.8,14,14,0,0,0,3.16,8.63,32.55,32.55,0,0,0,3.55-12.27,17.1,17.1,0,0,1,.19,3.74,28.86,28.86,0,0,1-1.82,9,14.67,14.67,0,0,0,3.26-2,12.75,12.75,0,0,0,3.06-4.59C296.93,633,296.55,627.42,292,619.37Z" transform="translate(-10.35 0.19)" fill="url(#04abc9d9-6660-494e-b60d-48c6bd741045)"/><path d="M329.51,656.16c-10.73.29-15.72-2.58-18.11-5.94a13.08,13.08,0,0,1-2.11-9A47.71,47.71,0,0,1,320,648.69a22.6,22.6,0,0,0-2.3-3,35.87,35.87,0,0,0-7.18-6,14.64,14.64,0,0,1,9.39,1.15C323.86,642.75,327.88,646.87,329.51,656.16Z" transform="translate(-10.35 0.19)" fill="url(#a59d50dd-b6d1-412b-b39c-0304f93a0e7a)"/><path d="M309.1,612.76c-5.08,6.42-6.32,12-5.75,16.1a12.46,12.46,0,0,0,4.31,8,35.74,35.74,0,0,0,1.82-12.75,15.65,15.65,0,0,1,.67,3.64,27.21,27.21,0,0,1-.57,9.3,13,13,0,0,0,5.36-7.38C315.9,625.6,314.75,620.14,309.1,612.76Z" transform="translate(-10.35 0.19)" fill="url(#e4cbcf6c-8750-4777-9485-3c2a5a01ed18)"/><path d="M351.07,644.09a38.83,38.83,0,0,1-6.9.77,18.65,18.65,0,0,1-5.37-.67,12.85,12.85,0,0,1-6.51-3.64,12.3,12.3,0,0,1-3.16-8.63,62,62,0,0,1,11.78,6.13,17.56,17.56,0,0,0-2.59-2.58,39.13,39.13,0,0,0-7.95-5.18,17,17,0,0,1,3.93-.67,12.31,12.31,0,0,1,5.46.58C343.69,631.54,348.29,635.08,351.07,644.09Z" transform="translate(-10.35 0.19)" fill="url(#9eb137e3-6712-416d-a1e6-cbf4147a5d39)"/><path d="M325.2,603.75a30.54,30.54,0,0,0-2.4,5.18,33.62,33.62,0,0,0-1.34,4.4,14.6,14.6,0,0,0,.1,7.09,12.89,12.89,0,0,0,5.36,7.48,31.18,31.18,0,0,0,.19-12.75,21.63,21.63,0,0,1,1.15,3.55,26.69,26.69,0,0,1,.58,9.2,15.33,15.33,0,0,0,2.59-2.78,12.24,12.24,0,0,0,1.72-5.27C333.63,615.54,331.71,610.27,325.2,603.75Z" transform="translate(-10.35 0.19)" fill="url(#90cfef14-54a8-42a8-b5da-8fe19cab70aa)"/><path d="M371,629.53c-10.26,3.06-15.81,1.53-19.07-1.06a12.82,12.82,0,0,1-4.31-8.14A49.63,49.63,0,0,1,360,624.74a33.53,33.53,0,0,0-3-2.3,34.09,34.09,0,0,0-8.53-3.93,14.36,14.36,0,0,1,9.39-1.34C362.18,618.13,367.07,620.9,371,629.53Z" transform="translate(-10.35 0.19)" fill="url(#55c65a81-da84-4c96-8213-a3fd3ab33107)"/><path d="M340.14,592.83c-3.25,7.47-3.06,13.13-1.43,17a13.41,13.41,0,0,0,6.23,6.71,36.89,36.89,0,0,0-1.54-12.75,18.93,18.93,0,0,1,1.63,3.36,26,26,0,0,1,1.82,9.1,12.65,12.65,0,0,0,3.36-8.53C350.11,603.56,347.43,598.48,340.14,592.83Z" transform="translate(-10.35 0.19)" fill="url(#d2b308f7-5f23-4319-bfa4-60c01497a9fb)"/><path d="M388.72,612.38c-9.39,4.69-15.52,3.54-19,1.43a12.31,12.31,0,0,1-5.27-7.47,54.89,54.89,0,0,1,12.94,2.87,19.21,19.21,0,0,0-3.26-1.82,31.67,31.67,0,0,0-3.83-1.53,34.17,34.17,0,0,0-5.18-1.34,15.56,15.56,0,0,1,9.1-2.59C378.47,602.12,383.74,604.33,388.72,612.38Z" transform="translate(-10.35 0.19)" fill="url(#48dbb394-d83e-4255-ac9e-3287d51bce7b)"/><path d="M353.37,580c-1.92,8.24-1.34,13.41.76,17.06a13.06,13.06,0,0,0,7.09,5.84,30.46,30.46,0,0,0-3.16-12.36,14.86,14.86,0,0,1,2,3.16,35.37,35.37,0,0,1,1.73,3.74,28.49,28.49,0,0,1,1.24,5,11.94,11.94,0,0,0,2.11-8.91C364.58,589.28,361.42,584.69,353.37,580Z" transform="translate(-10.35 0.19)" fill="url(#7f681bf8-f306-4fb2-b9cd-4d6b7fc2840a)"/><path d="M404.34,593.12c-9.1,5.65-14.95,5.46-18.68,3.83a12.47,12.47,0,0,1-6.23-6.71,49.41,49.41,0,0,1,13.13,1.15,26,26,0,0,0-3.45-1.43,33.76,33.76,0,0,0-9.2-1.63,14.55,14.55,0,0,1,8.81-3.64C392.75,584.4,398.21,585.84,404.34,593.12Z" transform="translate(-10.35 0.19)" fill="url(#615a0ad5-a8ab-45ac-82ec-4fb7f63e2f12)"/><path d="M365,565.62c-1.15,8.14.38,13.51,3,16.77a12.36,12.36,0,0,0,7.76,4.79,35.62,35.62,0,0,0-4.79-12,20.3,20.3,0,0,1,2.4,2.78,28,28,0,0,1,4.12,8.33,12.27,12.27,0,0,0,1.05-9C377.42,573.47,373.49,569.16,365,565.62Z" transform="translate(-10.35 0.19)" fill="url(#77c13e1c-4bae-4a4f-a56b-fe49d514a4f7)"/><path d="M417,571.94c-4.12,3.45-7.38,5.37-10.45,6.23a13.25,13.25,0,0,1-7.47.1,13,13,0,0,1-7.09-5.85,50.14,50.14,0,0,1,5.37-.57,66.59,66.59,0,0,1,7.76,0,17.07,17.07,0,0,0-3.55-1,38.34,38.34,0,0,0-9.39-.48c1.44-1.34,3.84-4,8.05-4.89S410.09,565.52,417,571.94Z" transform="translate(-10.35 0.19)" fill="url(#a62005b8-a9a7-4666-b177-8101dd458e5d)"/><path d="M374.45,549.81A31.82,31.82,0,0,0,376.08,560a15.22,15.22,0,0,0,3.54,6,13.48,13.48,0,0,0,8.34,3.83A31.72,31.72,0,0,0,386,565a34.75,34.75,0,0,0-4.31-6.42,18.63,18.63,0,0,1,2.78,2.49,27.38,27.38,0,0,1,5.17,7.67,12.19,12.19,0,0,0-.29-9.2C387.67,555.84,383.45,552.3,374.45,549.81Z" transform="translate(-10.35 0.19)" fill="url(#ea8b573b-099d-46a7-bdd6-90bcc023719c)"/><path d="M427.05,549.33c-7.28,7.86-13,9.2-17.06,8.53a12.94,12.94,0,0,1-7.76-4.89,50.86,50.86,0,0,1,12.94-2.3,17.83,17.83,0,0,0-3.74-.48A39.58,39.58,0,0,0,402,551a15,15,0,0,1,7.57-5.85C413.54,543.77,419.29,543.87,427.05,549.33Z" transform="translate(-10.35 0.19)" fill="url(#a4a3608a-f486-4b39-a51d-61da7ab4234f)"/><path d="M381.92,532.94c1.05,8.15,3.83,12.94,7.19,15.43a12.92,12.92,0,0,0,8.72,2.68,34.37,34.37,0,0,0-7.67-10.25,23.27,23.27,0,0,1,3.07,2.11,26.44,26.44,0,0,1,6.13,6.9,12.55,12.55,0,0,0-1.34-9C395.91,537.26,391,534.19,381.92,532.94Z" transform="translate(-10.35 0.19)" fill="url(#afb785f3-143b-4afb-8b1d-579a01636311)"/><path d="M433.76,525.47c-3.07,4.41-5.75,7.09-8.44,8.72a12.19,12.19,0,0,1-15.61-1.82,43.45,43.45,0,0,1,5.08-1.92,58.91,58.91,0,0,1,7.47-2,19.37,19.37,0,0,0-3.74,0,39,39,0,0,0-9.1,2,15.67,15.67,0,0,1,6.51-6.8C419.77,521.83,425.52,521.16,433.76,525.47Z" transform="translate(-10.35 0.19)" fill="url(#9e6f1dde-64fa-4ab1-9f9f-6aaa89b8933e)"/><path d="M387,515.22a30.83,30.83,0,0,0,4.21,9.39,15,15,0,0,0,5,4.89,13.12,13.12,0,0,0,9.1,1.53,34.72,34.72,0,0,0-3.07-4.12,40.13,40.13,0,0,0-5.84-5.08,23.49,23.49,0,0,1,3.35,1.63,25.64,25.64,0,0,1,7,6.13,12.13,12.13,0,0,0-2.69-8.81C401.27,517.71,396.29,515.31,387,515.22Z" transform="translate(-10.35 0.19)" fill="url(#fe6a20cf-65db-4730-b285-4618a33384a8)"/><path d="M437.59,501c-5.08,9.39-10.16,12.26-14.28,12.74a12.84,12.84,0,0,1-8.81-2.68,55.11,55.11,0,0,1,11.88-5.65,20.71,20.71,0,0,0-3.74.47,35.31,35.31,0,0,0-8.81,3.17,14.45,14.45,0,0,1,5.75-7.57C423.22,499.31,428.68,497.78,437.59,501Z" transform="translate(-10.35 0.19)" fill="url(#2da907bc-19d8-4a6b-a24f-41405650f853)"/><path d="M389.78,497c3.06,7.67,7.09,11.41,10.92,13a12.91,12.91,0,0,0,9.1.29,34.63,34.63,0,0,0-10.06-7.95,19,19,0,0,1,3.45,1.25A29.91,29.91,0,0,1,411,508.7a12.32,12.32,0,0,0-3.64-8.33C404.44,497.59,398.88,495.86,389.78,497Z" transform="translate(-10.35 0.19)" fill="url(#8d74b2f3-8cad-4383-ad1e-3cc822181fd3)"/><path d="M438.07,476.41c-3.55,10-8.53,13.42-12.55,14.38a12.29,12.29,0,0,1-9-1.54,61.56,61.56,0,0,1,11.21-7.09,18.42,18.42,0,0,0-3.54,1,39.33,39.33,0,0,0-8.44,4.31c.58-1.82,1.44-5.46,4.7-8.24C423.5,476.41,429,474.31,438.07,476.41Z" transform="translate(-10.35 0.19)" fill="url(#a5f71954-4d3c-4e04-8fa4-7d47d46793e0)"/><path d="M390.16,478.52c4.31,7.19,8.53,10.45,12.46,11.5a13.79,13.79,0,0,0,9.1-.86,31.49,31.49,0,0,0-10.92-6.52,18.34,18.34,0,0,1,3.64.77,26.87,26.87,0,0,1,8.24,4,12.08,12.08,0,0,0-4.79-7.85C404.63,477.18,399.17,476.13,390.16,478.52Z" transform="translate(-10.35 0.19)" fill="url(#28ea2698-6132-4c88-a8da-c598906087ed)"/><path d="M435.39,451.79c-2.3,10.35-6.62,14.47-10.45,15.9a12.68,12.68,0,0,1-9.1-.28A55.42,55.42,0,0,1,425.9,459a23.23,23.23,0,0,0-3.45,1.44,33.11,33.11,0,0,0-7.66,5.37,15,15,0,0,1,3.44-8.82C421,453.8,425.9,450.93,435.39,451.79Z" transform="translate(-10.35 0.19)" fill="url(#064df2c5-3db4-42da-b9f6-8c31a2fd970b)"/><path d="M388.15,460.22a32,32,0,0,0,7.38,7.19,16.35,16.35,0,0,0,6.61,2.68,13.63,13.63,0,0,0,8.91-2A32.92,32.92,0,0,0,399.26,463a16.49,16.49,0,0,1,3.64.29,28.68,28.68,0,0,1,8.82,3,12.75,12.75,0,0,0-5.75-7.09C402.42,457,396.68,456.68,388.15,460.22Z" transform="translate(-10.35 0.19)" fill="url(#d416abe1-e7d2-436b-a3c8-5ee973926b30)"/><path d="M429.44,427.83a27.71,27.71,0,0,1-3.06,11.79A13.88,13.88,0,0,1,421.3,445a12.94,12.94,0,0,1-9.2.86,51.08,51.08,0,0,1,8.91-9.78,20.55,20.55,0,0,0-3.25,1.92,35.45,35.45,0,0,0-7,6.32,15.12,15.12,0,0,1,2.4-9.19C415.46,431.67,420.05,428.22,429.44,427.83Z" transform="translate(-10.35 0.19)" fill="url(#93b14a45-308c-468c-910f-a1f96e937448)"/><path d="M383.74,442.3a34,34,0,0,0,8.24,6.13,15.58,15.58,0,0,0,7,1.73A13.42,13.42,0,0,0,407.5,447a33.77,33.77,0,0,0-12.36-3.45,16.5,16.5,0,0,1,3.64-.19,26.87,26.87,0,0,1,9.11,1.82,12.5,12.5,0,0,0-6.62-6.33C397.35,437.22,391.79,437.7,383.74,442.3Z" transform="translate(-10.35 0.19)" fill="url(#2b758fb3-4d94-4042-b82e-550a772bbb85)"/><path d="M420.44,404.74c.57,10.64-2.68,15.72-5.94,18.11a13,13,0,0,1-8.91,2.11,56.62,56.62,0,0,1,7.57-10.83,23.77,23.77,0,0,0-3,2.3,35.65,35.65,0,0,0-6,7.19,15.71,15.71,0,0,1,1.05-9.39C407,410.4,411.24,406.37,420.44,404.74Z" transform="translate(-10.35 0.19)" fill="url(#9e42a4f9-f84f-488c-be5f-871de91c616a)"/><path d="M377,425.15c6.71,5,11.88,6.33,16,5.85a12.67,12.67,0,0,0,8.05-4.32,32.66,32.66,0,0,0-12.64-1.82,16.34,16.34,0,0,1,3.64-.67,26.68,26.68,0,0,1,9.19.58,12.29,12.29,0,0,0-7.37-5.37C389.87,418.35,384.51,419.5,377,425.15Z" transform="translate(-10.35 0.19)" fill="url(#f488db3c-f71e-431e-b66f-86eed54a5657)"/><path d="M408.46,383.09c1.92,10.44-.48,15.81-3.54,18.68a12.23,12.23,0,0,1-8.53,3.16,52.73,52.73,0,0,1,6-11.69,16,16,0,0,0-2.58,2.69,33.61,33.61,0,0,0-5.08,7.85,14.07,14.07,0,0,1-.1-9.48C395.91,390.47,399.45,386,408.46,383.09Z" transform="translate(-10.35 0.19)" fill="url(#2b85cf11-52e9-41c3-98c8-0883b9aa9dd0)"/><path d="M368.12,409c7.19,4.12,12.75,4.69,16.67,3.64a13.25,13.25,0,0,0,7.48-5.37,34.44,34.44,0,0,0-12.84-.09A21.24,21.24,0,0,1,383,406a26.31,26.31,0,0,1,9.3-.67,13.52,13.52,0,0,0-8-4.41C380,400.53,374.64,402.44,368.12,409Z" transform="translate(-10.35 0.19)" fill="url(#39c1b0ac-be48-494b-baba-3d763eaf3194)"/><path d="M393.8,363.25a38.19,38.19,0,0,1,1.63,6.71,25.26,25.26,0,0,1,0,5.37,14,14,0,0,1-2.68,6.9,12.86,12.86,0,0,1-8.15,4.31,49.57,49.57,0,0,1,4.51-12.36,25.07,25.07,0,0,0-2.21,3,35.63,35.63,0,0,0-4,8.53,16.72,16.72,0,0,1-1.25-3.84,15.28,15.28,0,0,1-.09-5.55C382.3,372.17,385.27,367.18,393.8,363.25Z" transform="translate(-10.35 0.19)" fill="url(#507cc10f-a04e-4de9-a017-3a551eddadfd)"/><path d="M357.2,394.11a36.13,36.13,0,0,0,5.46,1.72,29.28,29.28,0,0,0,4.5.77,16,16,0,0,0,7.09-1.06,13.31,13.31,0,0,0,6.71-6.22,34.42,34.42,0,0,0-12.74,1.53,19,19,0,0,1,3.35-1.63,25.75,25.75,0,0,1,9-1.82,17.45,17.45,0,0,0-3.16-2.2,11.52,11.52,0,0,0-5.37-1.06C367.84,384.24,362.85,386.83,357.2,394.11Z" transform="translate(-10.35 0.19)" fill="url(#c9fab7b8-f146-4dfc-a57c-b82253fdc2be)"/><path d="M361.42,357.22a31.24,31.24,0,0,1,10.92,5.36,12,12,0,0,1,3.26,15.24,52.26,52.26,0,0,1-7.76-10.64,20.74,20.74,0,0,0,1.15,3.55,34.71,34.71,0,0,0,4.79,8,14.93,14.93,0,0,1-8.53-4.12C362.37,371.69,359.88,366.51,361.42,357.22Z" transform="translate(-10.35 0.19)" fill="url(#b6729c9f-6d94-4266-9967-9248fc3c086b)"/><path d="M126.47,379.54s-.86,1.15-2.58,3.36-4,5.36-6.81,9.58a170.27,170.27,0,0,0-9.19,15.81,184,184,0,0,0-9.3,21.84,156,156,0,0,0-6.8,27.12,172.3,172.3,0,0,0-2.11,31.14,164.58,164.58,0,0,0,15.24,65.54,160.2,160.2,0,0,0,17.53,29.51A163.13,163.13,0,0,0,145.06,608a165.28,165.28,0,0,0,50.31,30.66,184.71,184.71,0,0,0,22.7,6.9c3.45.77,6.71,1.34,9.68,1.91,3.07.39,5.85.87,8.34,1.15s4.79.48,6.71.58,3.64.19,5,.29v.09c-1.34,0-3.07,0-5-.09s-4.22-.29-6.81-.39-5.36-.57-8.43-1-6.32-1-9.77-1.63a166.48,166.48,0,0,1-23-6.42,163.28,163.28,0,0,1-51.26-30.38,161.65,161.65,0,0,1-23-24.72,160.28,160.28,0,0,1-29.12-63,168.7,168.7,0,0,1-4-33.53,164,164,0,0,1,9.77-58.74A161.67,161.67,0,0,1,106.93,408a159,159,0,0,1,9.68-15.62A108.35,108.35,0,0,1,123.7,383C125.52,380.69,126.47,379.54,126.47,379.54Z" transform="translate(-10.35 0.19)" fill="url(#7dd12667-4957-4e66-bb24-57c92fcf28d7)"/><path d="M125,379.54s-.86,1.15-2.59,3.36-4,5.36-6.8,9.58a170.11,170.11,0,0,0-9.2,15.81,185.68,185.68,0,0,0-9.3,21.84,156.93,156.93,0,0,0-6.8,27.12,172.3,172.3,0,0,0-2.11,31.14,164.58,164.58,0,0,0,15.24,65.54A160.2,160.2,0,0,0,121,583.44,163.19,163.19,0,0,0,143.63,608a165.24,165.24,0,0,0,50.3,30.66,184.3,184.3,0,0,0,22.71,6.9c3.45.77,6.7,1.34,9.67,1.91,3.07.39,5.85.87,8.34,1.15s4.79.48,6.71.58,3.64.19,5,.29c2.68.09,4.22.19,4.22.19h-4.22c-1.34,0-3.07,0-5-.1s-4.22-.28-6.8-.38-5.37-.58-8.44-1-6.32-1-9.77-1.63a165.47,165.47,0,0,1-23-6.42,163.43,163.43,0,0,1-74.25-55.09,160.29,160.29,0,0,1-29.13-63,170.28,170.28,0,0,1-4-33.54,164.15,164.15,0,0,1,9.78-58.73,161.14,161.14,0,0,1,9.77-21.75,159,159,0,0,1,9.68-15.62,106.79,106.79,0,0,1,7.09-9.39C124.18,380.69,125,379.54,125,379.54Z" transform="translate(-10.35 0.19)" fill="url(#745ecd3f-6b2d-4e2a-bc01-9a1b698dbed5)"/><path d="M374.83,379.54s.86,1.15,2.59,3.36,4,5.36,6.8,9.58a170.11,170.11,0,0,1,9.2,15.81,184.06,184.06,0,0,1,9.29,21.84,156,156,0,0,1,6.81,27.12,173.24,173.24,0,0,1,2.1,31.14,164.79,164.79,0,0,1-15.23,65.54,159.69,159.69,0,0,1-17.54,29.51A162.61,162.61,0,0,1,356.24,608a165.24,165.24,0,0,1-50.3,30.66,184.82,184.82,0,0,1-22.71,6.9c-3.45.77-6.71,1.34-9.68,1.91-3.06.39-5.84.87-8.33,1.15s-4.79.48-6.71.58-3.64.19-5,.29v.09c1.34,0,3.06,0,5-.09s4.22-.29,6.8-.39,5.37-.57,8.43-1,6.33-1,9.78-1.63a166.76,166.76,0,0,0,23-6.42A163.65,163.65,0,0,0,380.77,585a160.49,160.49,0,0,0,29.13-63,169.41,169.41,0,0,0,4-33.53,164,164,0,0,0-9.77-58.74A161.71,161.71,0,0,0,394.38,408a159,159,0,0,0-9.68-15.62,112.64,112.64,0,0,0-7.09-9.39C375.79,380.69,374.83,379.54,374.83,379.54Z" transform="translate(-10.35 0.19)" fill="url(#d2df9890-e44e-4bb5-9e0e-68deb2d2634f)"/><path d="M376.27,379.54s.86,1.15,2.58,3.36,4,5.36,6.81,9.58a170.11,170.11,0,0,1,9.2,15.81,185.73,185.73,0,0,1,9.29,21.84,156,156,0,0,1,6.8,27.12,172.3,172.3,0,0,1,2.11,31.14,164.79,164.79,0,0,1-15.23,65.54,160.8,160.8,0,0,1-17.54,29.51A163.13,163.13,0,0,1,357.68,608a165.24,165.24,0,0,1-50.3,30.66,184.82,184.82,0,0,1-22.71,6.9c-3.45.77-6.71,1.34-9.68,1.91-3.07.39-5.85.87-8.34,1.15s-4.79.48-6.7.58-3.64.19-5,.29c-2.68.09-4.21.19-4.21.19H255c1.35,0,3.07,0,5-.1s4.21-.28,6.8-.38,5.36-.58,8.43-1,6.32-1,9.77-1.63a165.09,165.09,0,0,0,23-6.42,163.56,163.56,0,0,0,74.26-55.09,160.66,160.66,0,0,0,29.13-63,169.51,169.51,0,0,0,4-33.54,163.94,163.94,0,0,0-9.77-58.73,160.33,160.33,0,0,0-19.45-37.37,111,111,0,0,0-7.09-9.39C377.13,380.69,376.27,379.54,376.27,379.54Z" transform="translate(-10.35 0.19)" fill="url(#f4231071-3d1c-4639-9bbd-d09958180fe6)"/></g><line x1="260.84" y1="0.27" x2="300.2" y2="0.18" fill="url(#21112e04-675a-4945-aefe-66952c398d52)"/><polygon points="260.83 0.27 181.28 230.54 220.66 230.54 300.2 0.18 260.83 0.27" fill="url(#5fa0e224-568f-4ea2-bc9c-6aae2d704cb6)"/><polygon points="220.66 230.54 259.95 230.54 339.56 0.09 300.2 0.18 220.66 230.54" fill="url(#62ca0678-3c9a-4612-aae2-cd0f72aac4e4)"/><line x1="300.2" y1="0.18" x2="339.56" y2="0.09" fill="url(#1a90bb3c-9ecf-4fbf-891f-6a6d85602d81)"/><polygon points="259.95 230.54 299.33 230.54 378.92 0 339.56 0.09 259.95 230.54" fill="url(#e2bbafee-db8c-4f9d-aa1e-6795767777a5)"/><line x1="339.56" y1="0.09" x2="378.92" fill="url(#5956f5ba-6b13-44d8-afa6-858c1b05a501)"/><g id="c00a1285-01af-45c6-a5ff-6cb97987c513" data-name="4wHAUQ.tif"><path d="M264.57,392.09l-5.15,10.21,1,1.56,9.22-4,.57.53c-2.46,2.15-4.93,4.29-7.88,6.85l8.06,7.14c2.6-1.75,8.75-1.26,4.7-7.92-.53-.87,1.5-3.29,2.43-5.17,8.62,3.5,4.78,10.42,4.44,16.8,4.12,0,6.53,1.33,6.7,6.25.15,4.36,2.38,8.6,3.09,13,.45,2.76-.07,5.73-.42,8.57-1.06,8.69-4.52,17.12-2.56,26.19.25,1.12-2,2.78-3.43,4.71a32.84,32.84,0,0,0,2,3.2c14.41,18.92,28.79,37.86,43.37,56.66,1.27,1.63,3.75,2.44,5.82,3.29,1.67.68,4.73.39,5.09,1.33.61,1.59-.09,4-.85,5.73-1.9,4.48-6.2,4.34-9.57,3.12-1.24-.45-1.06-4.83-1.52-7.43l1.74-.51c-16-20.15-31.88-40.35-48-60.35-1.08-1.34-4.1-1.75-6.13-1.58-6.58.57-13.12,1.6-20.82,2.6,2.48-7.76-.86-15.45,3.31-22.7,1-1.77-.71-5.12-2.17-7.47-1.62,11.14-3.24,22.28-4.94,34-11.73-2.75-21.73-5.85-30-12.74-1.49-1.25-2.4-4.86-1.75-6.74,2.31-6.59,5.41-12.91,8.3-19.54l14.68,12c.67-2.67,1.09-4.37,1.59-6.34-8.6-4.48-18.7-7.44-17.41-20.37-2.08.88-3.64,1.59-5.23,2.19-5.56,2.09-14.06-1.27-16.07-6.66-.5-1.34.24-3.36.87-4.87,2.48-5.94,5.16-11.79,7.71-17.7.44-1,1.21-2.71.81-3.13-5.46-5.76-2.05-15.6-9.44-20.41-.16-.1,0-.7.15-3.15l8.61,9.28c6.85-1.91,11,1.4,11,8.37l14.69-9.38-8.28-7.62c2.35-1.28,3.83-2.1,5.32-2.9,4.89-2.62,8.68-6,8.19-12.21-.4-5.12,2.81-6.87,7-7.56,4.44-.73,8.72-.68,10.82,4.4,1.48,3.58,2.84,7.21,3.67,9.33l10.53,4.44c-2,2.88-3.6,6.26-6.16,8.52-5.82,5.13-13,6.87-20.68,6.33a30.13,30.13,0,0,0-3.67.16l0,1.66ZM255.31,436l-1.24.47c-.83-1-1.69-1.95-2.49-3-8.08-10.25-16.11-20.53-24.26-30.72-.82-1-2.35-1.46-3.55-2.17l-.07,1,52.32,67,2.72-26.49L267.8,453.9c-.76-.46-1.51-.93-2.26-1.4l2.75-5.79-7.58-4.15c2.68-.58,4-.95,5.26-1.12,6.19-.78,6.4-1.52,3.22-6.56-1.44-2.28-1.8-5.27-2.53-8-.43-1.56-.35-3.3-.94-4.77-1-2.56-2.42-5-4.05-8.28l-6.36-4.58Zm-33.89-6.44c4.4-12.2,3.17-20.8-2.69-22.24l2.05,3.32-7.11-.31ZM274.92,477c-1.33-2.54-2.64-5.06-4-7.58l-4.06-7.64-2.58.69c.34,3.25.69,6.49,1,9.74C266,479.48,267.54,480.3,274.92,477Zm-38.4-34.91c3.41,5.73,9.45,7.83,13.62,4.46l-5.39-3.47,4.63-2.4-.78-1.82-11.52-1.94c-.1.33-.21.66-.31,1l3.26,2.7Z" transform="translate(-10.35 0.19)" fill="url(#56022f25-19f4-4e70-9582-f7353d3543a4)"/><path d="M215.42,571.72,233.28,561c-4.79-1.72-6.58-3-5.44-8s-1.7-10.85-2.64-16.35c-.32-1.89-1-4.94-.08-5.6,6.08-4.55,1.39-8.62-1.3-13-.6,3.77-1.21,7.53-1.9,11.84l-4.56.7,6.89-16.84C221,510,222,506,224.61,501.46c1.26-2.18,1.37-5.33,1.2-8-.29-4.39-1.23-8.73-2.06-14.15l29,11.5c-3.83,14.88-4.65,30.31-4.45,47.11-4.66-1.87-7.38-3.25-10.27-4-1.74-.46-3.74.06-5.62.13.5,2.42.33,5.35,1.68,7.13,1.53,2,4.41,3,7.45,4.87l-9.23,4.3c6.31.55,12,1.92,14.61,7.58-.39,2.94-.44,5.61-1.16,8.08-.58,2-1.53,4.41-3.1,5.36C234.17,576.47,225.49,573.63,215.42,571.72Zm17.72-43.35,10.49,4a84.77,84.77,0,0,0,2.07-9c.22-1.63,0-4-1-5a10.08,10.08,0,0,0-5.71-2.44c-.66-.08-2.58,3.29-2.3,3.59C240.75,524.05,234.83,524.13,233.14,528.37Z" transform="translate(-10.35 0.19)" fill="url(#2882a11e-8eaa-43f3-89a3-8f346640ffa9)"/><path d="M285.06,532.28c-2-3.26-9-4.8-11.2-2.18-.7.83-.48,3.33.29,4.28,1,1.2,2.93,1.6,4.74,2.47l-6.3,8.15c4.78,4.94,10.66,2.51,17.39,3-1.34,3.14-2.49,5.62-3.43,8.17a8,8,0,0,0-.26,3.09c.22,3.35.52,6.7.79,10.05l-1.58.5-8.11-14L271,565.78c-1.47-4.52-3.29-9-4.34-13.67-.94-4.16-1-8.52-1.5-12.79a18.5,18.5,0,0,0-.41-2.2c-.89-3.61-2.8-7.3-2.51-10.81.93-10.88-2.13-21-4.54-31.34-.61-2.61-1.19-5.23-2-8.73l25.39-4.07c1.79,4.15,3.49,8,5,11.85a3.68,3.68,0,0,1,.17,2.8c-2.67,4.35-1.88,8.2.46,12.53.74,1.37-1.4,4.28-2.21,6.46l9.41,12-1.34,1.35-5-6.49-1.33.25c.36,1.88,1.13,3.79,1,5.61-.11,1.27-1.49,2.43-2.31,3.63Z" transform="translate(-10.35 0.19)" fill="url(#10914655-4965-4672-9093-c269e56b9e69)"/><path d="M277.33,562.58l12.23,15.07c-.1.61-.2,1.22-.29,1.83-7.2.21-14.39.51-21.58.41-.56,0-2-3.53-1.46-4.23C269.78,571,273.76,566.7,277.33,562.58Z" transform="translate(-10.35 0.19)" fill="url(#a7f05b30-f7ac-42ea-9fe5-050359470cad)"/><path d="M222.67,578c-6.94,0-13.93.56-20.8-.13-9.77-1-13.26-8.07-9.49-17.24,4.38,3.73,8.39,8.32,13.41,11.1s11.14,3.82,16.78,5.61C222.6,577.59,222.64,577.81,222.67,578Z" transform="translate(-10.35 0.19)" fill="url(#c94b2c8d-f968-4660-b61c-6e646c13ac7e)"/><path d="M284.93,532.17c2.34,3.84,4.57,7.68,1.05,11.92l-1.84-.05q.48-5.87.93-11.75Z" transform="translate(-10.35 0.19)" fill="url(#6cb48ec7-0038-4503-ae43-7950674fbdef)"/></g></svg>