<svg id="498bdfc2-b903-4711-a3a7-4c3f8193fa86" data-name="Layer 1" xmlns="http://www.w3.org/2000/svg" xmlns:xlink="http://www.w3.org/1999/xlink" viewBox="0 0 481.22 725.53"><defs><clipPath id="53d07c48-a827-4b23-8bc3-f9a30d73c3d3"><polygon points="-113.16 9.7 -112.18 9.7 -113.16 10.67 -113.16 9.7" fill="none"/></clipPath><linearGradient id="aa447058-6aef-4c69-9916-dc2a7bfd3309" x1="102.51" y1="115.54" x2="221.27" y2="115.54" gradientUnits="userSpaceOnUse"><stop offset="0" stop-color="#ed9898"/><stop offset="1" stop-color="#be747b"/></linearGradient><linearGradient id="467bacc2-e1d5-4a6f-b97b-188a3e1349eb" x1="102.51" y1="0.58" x2="141.82" y2="0.58" gradientUnits="userSpaceOnUse"><stop offset="0" stop-color="#ed2526"/><stop offset="1" stop-color="#be1e2d"/></linearGradient><linearGradient id="9cbc7bd9-f780-4273-8a87-18f74efad8cb" x1="141.82" y1="0.49" x2="181.12" y2="0.49" gradientUnits="userSpaceOnUse"><stop offset="0" stop-color="#fff"/><stop offset="1" stop-color="#bbbdbf"/></linearGradient><linearGradient id="63cd6454-9322-49ca-8453-b64cd77488fc" x1="141.82" y1="115.5" x2="260.56" y2="115.5" xlink:href="#9cbc7bd9-f780-4273-8a87-18f74efad8cb"/><linearGradient id="83087927-1eb1-4bd5-9724-44b6d8994ba6" x1="181.12" y1="115.45" x2="299.94" y2="115.45" gradientUnits="userSpaceOnUse"><stop offset="0" stop-color="#3c92a5"/><stop offset="1" stop-color="#28628f"/></linearGradient><linearGradient id="b769c3e2-1c85-41fd-992c-271b1d3bca4f" x1="181.12" y1="0.4" x2="220.42" y2="0.4" gradientUnits="userSpaceOnUse"><stop offset="0" stop-color="#3c56a5"/><stop offset="1" stop-color="#2b388f"/></linearGradient><linearGradient id="b834329a-add0-458d-bc26-3182e5937a30" x1="199.52" y1="585.12" x2="299.26" y2="410.94" gradientTransform="matrix(1, 0, 0, -1, 0, 750)" gradientUnits="userSpaceOnUse"><stop offset="0" stop-color="#ddbf24"/><stop offset="0.44" stop-color="#e0bf44"/><stop offset="1" stop-color="#815020"/></linearGradient><linearGradient id="70f79c7b-1325-4a5b-8433-39c34f497bc6" x1="196.24" y1="593.17" x2="302.33" y2="407.91" gradientTransform="matrix(1, 0, 0, -1, 0, 750)" gradientUnits="userSpaceOnUse"><stop offset="0" stop-color="#fbd73b"/><stop offset="0.37" stop-color="#fde66e"/><stop offset="0.53" stop-color="#fde558"/><stop offset="1" stop-color="#bd852c"/></linearGradient><linearGradient id="4f02fade-8f59-4bd1-9d3f-854bf0592d54" x1="213.07" y1="564.26" x2="283.87" y2="440.62" gradientTransform="matrix(1, 0, 0, -1, 0, 750)" gradientUnits="userSpaceOnUse"><stop offset="0" stop-color="#ffe36c"/><stop offset="0.37" stop-color="#ffed9e"/><stop offset="0.53" stop-color="#fdec88"/><stop offset="1" stop-color="#fdbe36"/></linearGradient><linearGradient id="e0f48ba7-f5a7-41ba-8850-9cce56404c91" x1="222.44" y1="553.05" x2="276.34" y2="458.93" xlink:href="#4f02fade-8f59-4bd1-9d3f-854bf0592d54"/><linearGradient id="67838481-3f8e-4201-8489-fa07875abecd" x1="113.52" y1="462.65" x2="398.94" y2="50.27" gradientTransform="matrix(1, 0, 0, -1, -9.74, 750.19)" xlink:href="#b834329a-add0-458d-bc26-3182e5937a30"/><linearGradient id="aa107749-18f3-4070-8210-392f2011121a" x1="136.25" y1="567.63" x2="282.48" y2="179.73" gradientTransform="matrix(1, 0, 0, -1, -9.74, 750.19)" xlink:href="#70f79c7b-1325-4a5b-8433-39c34f497bc6"/><linearGradient id="6f50f843-32b4-420f-a074-f62e8f1b39d9" x1="83.33" y1="431.47" x2="417.23" y2="97.57" xlink:href="#4f02fade-8f59-4bd1-9d3f-854bf0592d54"/><clipPath id="e84f94cf-d1a9-4971-a7d2-3e3058048f9f" transform="translate(-9.74 0.19)"><polygon points="-115.11 7.75 -116.08 7.75 -115.11 6.77 -115.11 7.75" fill="none" clip-path="url(#53d07c48-a827-4b23-8bc3-f9a30d73c3d3)"/></clipPath><linearGradient id="56c4484a-018c-4633-bb29-4421aac0d282" x1="67.49" y1="417.45" x2="255.77" y2="256.26" gradientTransform="matrix(1, 0, 0, -1, 0, 750)" gradientUnits="userSpaceOnUse"><stop offset="0"/><stop offset="1" stop-color="#f6f6f6"/></linearGradient><linearGradient id="c6870848-9f05-4dbb-bcd6-28b1e8843eb2" x1="67.49" y1="417.45" x2="255.77" y2="256.26" gradientTransform="matrix(1, 0, 0, -1, 0, 750)" gradientUnits="userSpaceOnUse"><stop offset="0" stop-color="#fff9bf"/><stop offset="1" stop-color="#ffe56f"/></linearGradient><linearGradient id="398345d2-5f8b-49a5-a52e-a8829594f051" x1="187.02" y1="472.96" x2="297.7" y2="109.44" gradientTransform="matrix(1, 0, 0, -1, -9.74, 750.19)" gradientUnits="userSpaceOnUse"><stop offset="0" stop-color="#ab7f20"/><stop offset="0.58" stop-color="#ffe660"/><stop offset="0.78" stop-color="#fde66e"/><stop offset="1" stop-color="#fbd73b"/></linearGradient><linearGradient id="3bb7a9da-e30b-48b4-bbeb-54142f1890d3" x1="171.7" y1="513.22" x2="307.77" y2="83.7" gradientTransform="matrix(1, 0, 0, -1, -9.74, 750.19)" gradientUnits="userSpaceOnUse"><stop offset="0" stop-color="#efbf21"/><stop offset="0.31" stop-color="#f5d254"/><stop offset="0.56" stop-color="#e4ba3d"/><stop offset="1" stop-color="#b57129"/></linearGradient><linearGradient id="f9e106a0-d0d9-4b0b-930a-571eb1837178" x1="42.73" y1="265.01" x2="458.3" y2="265.01" gradientTransform="matrix(1, 0, 0, -1, 0, 750)" gradientUnits="userSpaceOnUse"><stop offset="0" stop-color="#ffe36c"/><stop offset="0.37" stop-color="#ffec9d"/><stop offset="0.53" stop-color="#fdec87"/><stop offset="1" stop-color="#fdbe34"/></linearGradient><linearGradient id="986cbd8a-896f-40c5-bda7-c8817b0de83f" x1="205.54" y1="84.9" x2="205.54" y2="103.59" gradientTransform="matrix(1, 0, 0, -1, 0, 750)" gradientUnits="userSpaceOnUse"><stop offset="0" stop-color="#855e25"/><stop offset="1" stop-color="#ae872e"/></linearGradient><linearGradient id="ec3aa597-686c-463c-ada2-57777c144692" x1="212.54" y1="106.45" x2="212.54" y2="130.62" xlink:href="#986cbd8a-896f-40c5-bda7-c8817b0de83f"/><linearGradient id="4fae4ce5-2a4a-4854-b343-1805d03be9b7" x1="183.29" y1="93.79" x2="183.29" y2="110.57" xlink:href="#986cbd8a-896f-40c5-bda7-c8817b0de83f"/><linearGradient id="1793b9e2-c436-40e2-971f-22160a276ec7" x1="193.4" y1="112.97" x2="193.4" y2="137.22" xlink:href="#986cbd8a-896f-40c5-bda7-c8817b0de83f"/><linearGradient id="c523e434-51e1-47b9-857b-a9e54bb6b267" x1="162.55" y1="105.06" x2="162.55" y2="120.36" xlink:href="#986cbd8a-896f-40c5-bda7-c8817b0de83f"/><linearGradient id="82fed9f5-9370-4fe0-a7ff-2688b33e4ccc" x1="175.42" y1="122.11" x2="175.42" y2="146.22" xlink:href="#986cbd8a-896f-40c5-bda7-c8817b0de83f"/><linearGradient id="672a283a-20a2-442e-abaa-262556aa1aec" x1="143.22" y1="118.73" x2="143.22" y2="133.05" xlink:href="#986cbd8a-896f-40c5-bda7-c8817b0de83f"/><linearGradient id="0b89007e-48b2-4eff-a2f0-bbcd1084ba87" x1="158.81" y1="133.42" x2="158.81" y2="157.06" xlink:href="#986cbd8a-896f-40c5-bda7-c8817b0de83f"/><linearGradient id="36dcacb8-4de4-4f41-b042-b1dbe3197cc9" x1="125.94" y1="134.35" x2="125.94" y2="148.14" xlink:href="#986cbd8a-896f-40c5-bda7-c8817b0de83f"/><linearGradient id="e70635e1-8c4e-4d0c-b6e4-db03a36a2d3d" x1="143.73" y1="147.08" x2="143.73" y2="169.95" xlink:href="#986cbd8a-896f-40c5-bda7-c8817b0de83f"/><linearGradient id="5bdaf5bb-8c5a-44b8-8fee-0d8887b9b21e" x1="110.76" y1="151.98" x2="110.76" y2="165.38" xlink:href="#986cbd8a-896f-40c5-bda7-c8817b0de83f"/><linearGradient id="5e19eddc-b600-4022-9dcd-0a373c31d0c3" x1="130.87" y1="162.68" x2="130.87" y2="184.29" xlink:href="#986cbd8a-896f-40c5-bda7-c8817b0de83f"/><linearGradient id="ea3bde5e-0e0f-4698-945d-7e55c04a6d53" x1="97.98" y1="171.25" x2="97.98" y2="184.69" xlink:href="#986cbd8a-896f-40c5-bda7-c8817b0de83f"/><linearGradient id="b281990e-0d67-4330-b08e-d1f1a1632cb6" x1="120.14" y1="180.05" x2="120.14" y2="200.13" xlink:href="#986cbd8a-896f-40c5-bda7-c8817b0de83f"/><linearGradient id="f5a2c2da-847a-4fac-a9d1-c98d06105b5f" x1="87.92" y1="191.94" x2="87.92" y2="205.52" xlink:href="#986cbd8a-896f-40c5-bda7-c8817b0de83f"/><linearGradient id="ceeb274a-2a7b-43de-b735-0fee4ece97b2" x1="111.73" y1="198.84" x2="111.73" y2="216.96" xlink:href="#986cbd8a-896f-40c5-bda7-c8817b0de83f"/><linearGradient id="978796c6-a61c-4c4f-a768-26e3e465b5d0" x1="80.85" y1="213.68" x2="80.85" y2="227.71" xlink:href="#986cbd8a-896f-40c5-bda7-c8817b0de83f"/><linearGradient id="1ce1fbca-e44c-4246-8eea-1e1786be410f" x1="105.7" y1="218.59" x2="105.7" y2="234.69" xlink:href="#986cbd8a-896f-40c5-bda7-c8817b0de83f"/><linearGradient id="55995db7-6112-422e-a90c-a60223cf9efd" x1="76.75" y1="236.11" x2="76.75" y2="250.77" xlink:href="#986cbd8a-896f-40c5-bda7-c8817b0de83f"/><linearGradient id="2f501613-fa78-4c13-b8e4-3911fcde984b" x1="102.08" y1="238.89" x2="102.08" y2="253.29" xlink:href="#986cbd8a-896f-40c5-bda7-c8817b0de83f"/><linearGradient id="64fa36e2-237f-46a4-a3e3-a1bdc5a93d26" x1="75.62" y1="258.84" x2="75.62" y2="274.39" xlink:href="#986cbd8a-896f-40c5-bda7-c8817b0de83f"/><linearGradient id="aa404652-1ba8-47ac-82aa-078b42ba1d5b" x1="101" y1="259.43" x2="101" y2="272.75" xlink:href="#986cbd8a-896f-40c5-bda7-c8817b0de83f"/><linearGradient id="68375da9-76c0-4c5a-81c8-e3f72753e0f6" x1="77.53" y1="281.49" x2="77.53" y2="298.29" xlink:href="#986cbd8a-896f-40c5-bda7-c8817b0de83f"/><linearGradient id="060ec5a6-c757-433a-a40c-c02c47e92988" x1="102.52" y1="279.85" x2="102.52" y2="292.45" xlink:href="#986cbd8a-896f-40c5-bda7-c8817b0de83f"/><linearGradient id="318a881d-d42b-42a0-a900-11be6d16cd3c" x1="82.43" y1="303.64" x2="82.43" y2="322.14" xlink:href="#986cbd8a-896f-40c5-bda7-c8817b0de83f"/><linearGradient id="dff385b5-6720-4bf3-bb46-6ec8aac6ead5" x1="106.71" y1="299.81" x2="106.71" y2="311.98" xlink:href="#986cbd8a-896f-40c5-bda7-c8817b0de83f"/><linearGradient id="f76e12af-61a5-492e-a27f-1d743a19d51e" x1="90.37" y1="324.91" x2="90.37" y2="345.19" xlink:href="#986cbd8a-896f-40c5-bda7-c8817b0de83f"/><linearGradient id="29937832-93ba-470e-8730-5530b8696ce4" x1="113.35" y1="318.9" x2="113.35" y2="330.96" xlink:href="#986cbd8a-896f-40c5-bda7-c8817b0de83f"/><linearGradient id="b0b6e424-7a4f-4c13-82e1-9de00d6f7aa7" x1="101.06" y1="344.9" x2="101.06" y2="366.83" xlink:href="#986cbd8a-896f-40c5-bda7-c8817b0de83f"/><linearGradient id="10e3b665-7bb8-4a87-a96f-feada89ba92a" x1="122.38" y1="336.85" x2="122.38" y2="349.04" xlink:href="#986cbd8a-896f-40c5-bda7-c8817b0de83f"/><linearGradient id="020e5b3c-20d5-44c1-bd41-6601a26c475e" x1="114.07" y1="363.39" x2="114.07" y2="386.71" xlink:href="#986cbd8a-896f-40c5-bda7-c8817b0de83f"/><linearGradient id="a6ac3232-bd1a-4b5a-8133-0037454b537e" x1="133.51" y1="353.27" x2="133.51" y2="365.83" xlink:href="#986cbd8a-896f-40c5-bda7-c8817b0de83f"/><linearGradient id="540bb9ab-0757-484c-be79-9cac260d2584" x1="133.57" y1="371.15" x2="133.57" y2="392.77" xlink:href="#986cbd8a-896f-40c5-bda7-c8817b0de83f"/><linearGradient id="e9c44bed-6b69-46b8-b1ff-0c0a3411ea10" x1="31.86" y1="394.03" x2="233.05" y2="41.95" gradientTransform="matrix(1, 0, 0, -1, 0, 750)" gradientUnits="userSpaceOnUse"><stop offset="0" stop-color="#ffe367"/><stop offset="0.53" stop-color="#fceb83"/><stop offset="1" stop-color="#fdbd30"/></linearGradient><linearGradient id="ac1e834d-160e-4f5f-8aaf-69594a5f1246" x1="47.28" y1="402.81" x2="248.46" y2="50.75" xlink:href="#e9c44bed-6b69-46b8-b1ff-0c0a3411ea10"/><linearGradient id="70e9d28a-6416-46a6-af7d-005f5fff757f" x1="18.58" y1="386.48" x2="219.78" y2="34.38" xlink:href="#e9c44bed-6b69-46b8-b1ff-0c0a3411ea10"/><linearGradient id="b1ee6f85-d9bd-4d35-9b5b-3ccdc9219f06" x1="35.99" y1="396.34" x2="237.15" y2="44.31" xlink:href="#e9c44bed-6b69-46b8-b1ff-0c0a3411ea10"/><linearGradient id="a7007388-8a10-4e2c-8b72-78a5e52a89cc" x1="7.49" y1="380.19" x2="208.71" y2="28.05" xlink:href="#e9c44bed-6b69-46b8-b1ff-0c0a3411ea10"/><linearGradient id="1182a3a5-fb1a-4d44-8458-8b5539c8b6bc" x1="26.6" y1="390.96" x2="227.74" y2="38.96" xlink:href="#e9c44bed-6b69-46b8-b1ff-0c0a3411ea10"/><linearGradient id="67ece698-a4b0-4759-baa9-e4f57155f1d9" x1="-1.44" y1="375.12" x2="199.8" y2="22.95" xlink:href="#e9c44bed-6b69-46b8-b1ff-0c0a3411ea10"/><linearGradient id="77cbe039-d1a1-4efc-ac38-24859f4526e0" x1="19.34" y1="386.8" x2="220.47" y2="34.83" xlink:href="#e9c44bed-6b69-46b8-b1ff-0c0a3411ea10"/><linearGradient id="04f6ffb6-d399-46a0-a528-8e2fc50b110c" x1="-7.58" y1="371.62" x2="193.67" y2="19.44" xlink:href="#e9c44bed-6b69-46b8-b1ff-0c0a3411ea10"/><linearGradient id="854e1eeb-a65c-4443-9f40-fae59e35fa87" x1="13.91" y1="383.68" x2="215.02" y2="31.74" xlink:href="#e9c44bed-6b69-46b8-b1ff-0c0a3411ea10"/><linearGradient id="04009a23-e2d4-4370-85e4-878a1fda3f27" x1="-11.29" y1="369.52" x2="189.97" y2="17.32" xlink:href="#e9c44bed-6b69-46b8-b1ff-0c0a3411ea10"/><linearGradient id="889f1a79-f066-490e-9e9d-cecde31b31b7" x1="10.73" y1="381.92" x2="211.87" y2="29.93" xlink:href="#e9c44bed-6b69-46b8-b1ff-0c0a3411ea10"/><linearGradient id="7d44c658-3c62-4010-b346-146b40a116f8" x1="-12.41" y1="368.89" x2="188.86" y2="16.67" xlink:href="#e9c44bed-6b69-46b8-b1ff-0c0a3411ea10"/><linearGradient id="4f9878e9-47cb-4c77-93d9-29a8b3b8f246" x1="9.75" y1="381.4" x2="210.91" y2="29.37" xlink:href="#e9c44bed-6b69-46b8-b1ff-0c0a3411ea10"/><linearGradient id="87d2c5a4-a8a7-44eb-8504-27881714fbf4" x1="-10.87" y1="369.78" x2="190.41" y2="17.53" xlink:href="#e9c44bed-6b69-46b8-b1ff-0c0a3411ea10"/><linearGradient id="c5bf498b-0abb-4632-97cc-4a955eb75d77" x1="10.98" y1="382.13" x2="212.16" y2="30.06" xlink:href="#e9c44bed-6b69-46b8-b1ff-0c0a3411ea10"/><linearGradient id="3bb3973a-a80f-4eec-baeb-60225736edf2" x1="-6.75" y1="372.13" x2="194.54" y2="19.88" xlink:href="#e9c44bed-6b69-46b8-b1ff-0c0a3411ea10"/><linearGradient id="cf26fa45-7e05-4ed2-bfc9-ec0218ec9bba" x1="14.51" y1="384.17" x2="215.71" y2="32.07" xlink:href="#e9c44bed-6b69-46b8-b1ff-0c0a3411ea10"/><linearGradient id="9fb45d90-b701-43ef-9820-f6cfe9c41958" x1="0.16" y1="376.06" x2="201.45" y2="23.8" xlink:href="#e9c44bed-6b69-46b8-b1ff-0c0a3411ea10"/><linearGradient id="f22292ba-14e3-4012-bbd4-243f3026ebdc" x1="20.09" y1="387.37" x2="221.31" y2="35.25" xlink:href="#e9c44bed-6b69-46b8-b1ff-0c0a3411ea10"/><linearGradient id="1bc3e791-997e-4025-8e59-4df369e03cae" x1="9.26" y1="381.24" x2="210.54" y2="29" xlink:href="#e9c44bed-6b69-46b8-b1ff-0c0a3411ea10"/><linearGradient id="149b0e3c-65b6-4a4e-b58d-e373e8dd87ad" x1="27.94" y1="391.86" x2="229.17" y2="39.71" xlink:href="#e9c44bed-6b69-46b8-b1ff-0c0a3411ea10"/><linearGradient id="eed28612-50db-4114-8575-1ea0ffa6d482" x1="20.54" y1="387.66" x2="221.8" y2="35.45" xlink:href="#e9c44bed-6b69-46b8-b1ff-0c0a3411ea10"/><linearGradient id="433300cb-9e90-40db-be40-310139bf0d18" x1="37.47" y1="397.31" x2="238.72" y2="45.13" xlink:href="#e9c44bed-6b69-46b8-b1ff-0c0a3411ea10"/><linearGradient id="20fab5c9-c9ef-4cb1-88c0-24fb5ecd15d5" x1="33.8" y1="395.21" x2="235.05" y2="43.04" xlink:href="#e9c44bed-6b69-46b8-b1ff-0c0a3411ea10"/><linearGradient id="3022cefa-309f-451f-99e4-9b93ec1a21dd" x1="48.94" y1="403.87" x2="250.2" y2="51.65" xlink:href="#e9c44bed-6b69-46b8-b1ff-0c0a3411ea10"/><linearGradient id="d3c09998-dbec-4c3d-bf8b-70815b9d6dea" x1="48.98" y1="403.86" x2="250.2" y2="51.71" xlink:href="#e9c44bed-6b69-46b8-b1ff-0c0a3411ea10"/><linearGradient id="7a6acdd0-4256-42ab-855b-f03d566ab358" x1="61.93" y1="411.29" x2="263.22" y2="59.03" xlink:href="#e9c44bed-6b69-46b8-b1ff-0c0a3411ea10"/><linearGradient id="c168724b-45b0-443b-b3dd-19edc888b973" x1="65.7" y1="413.4" x2="266.91" y2="61.27" xlink:href="#e9c44bed-6b69-46b8-b1ff-0c0a3411ea10"/><linearGradient id="c3c4befb-889b-4e5a-8602-3b280ea51df7" x1="76.28" y1="419.48" x2="277.59" y2="67.18" xlink:href="#e9c44bed-6b69-46b8-b1ff-0c0a3411ea10"/><linearGradient id="9be67ff5-d1ca-4bbb-bd3d-9bbb84cda8b2" x1="83.7" y1="423.67" x2="284.91" y2="71.55" xlink:href="#e9c44bed-6b69-46b8-b1ff-0c0a3411ea10"/><linearGradient id="939d2ee9-f407-4c0e-b362-72c9d6ee73ca" x1="91.78" y1="428.32" x2="293.08" y2="76.04" xlink:href="#e9c44bed-6b69-46b8-b1ff-0c0a3411ea10"/><linearGradient id="54b7948f-6d86-4b3c-ad82-b2c15de94414" x1="102.67" y1="434.48" x2="303.83" y2="82.45" xlink:href="#e9c44bed-6b69-46b8-b1ff-0c0a3411ea10"/><linearGradient id="ceefa5b4-1b33-4125-b7b6-de532c964c14" x1="162.63" y1="84.9" x2="162.63" y2="103.59" gradientTransform="translate(457.79 750) rotate(180)" xlink:href="#986cbd8a-896f-40c5-bda7-c8817b0de83f"/><linearGradient id="5ac345de-b720-4fbb-b5d3-0354a2978ee8" x1="169.54" y1="106.45" x2="169.54" y2="130.62" gradientTransform="translate(457.79 750) rotate(180)" xlink:href="#986cbd8a-896f-40c5-bda7-c8817b0de83f"/><linearGradient id="c9183d8c-e0ad-4b2b-8af8-df2894e6ff29" x1="140.38" y1="93.79" x2="140.38" y2="110.57" gradientTransform="translate(457.79 750) rotate(180)" xlink:href="#986cbd8a-896f-40c5-bda7-c8817b0de83f"/><linearGradient id="d36965b9-e113-4880-a54e-db86d25c5609" x1="150.49" y1="112.97" x2="150.49" y2="137.22" gradientTransform="translate(457.79 750) rotate(180)" xlink:href="#986cbd8a-896f-40c5-bda7-c8817b0de83f"/><linearGradient id="457d8e86-7278-4371-9d48-7785c912f5d3" x1="119.54" y1="105.06" x2="119.54" y2="120.36" gradientTransform="translate(457.79 750) rotate(180)" xlink:href="#986cbd8a-896f-40c5-bda7-c8817b0de83f"/><linearGradient id="1db038c3-6c9a-4b8d-98b2-53ba5fb100c6" x1="132.5" y1="122.11" x2="132.5" y2="146.22" gradientTransform="translate(457.79 750) rotate(180)" xlink:href="#986cbd8a-896f-40c5-bda7-c8817b0de83f"/><linearGradient id="6e6c74d1-5181-44bc-9616-a8d88972198f" x1="100.31" y1="118.73" x2="100.31" y2="133.05" gradientTransform="translate(457.79 750) rotate(180)" xlink:href="#986cbd8a-896f-40c5-bda7-c8817b0de83f"/><linearGradient id="12cf5e8f-20b7-42a7-b1c5-410a92e723c1" x1="115.81" y1="133.42" x2="115.81" y2="157.06" gradientTransform="translate(457.79 750) rotate(180)" xlink:href="#986cbd8a-896f-40c5-bda7-c8817b0de83f"/><linearGradient id="e543cf8e-1130-44c5-9caa-db3898849251" x1="83.03" y1="134.35" x2="83.03" y2="148.14" gradientTransform="translate(457.79 750) rotate(180)" xlink:href="#986cbd8a-896f-40c5-bda7-c8817b0de83f"/><linearGradient id="97440e8f-431b-4c5f-ae54-1aa34d80c08f" x1="100.82" y1="147.08" x2="100.82" y2="169.95" gradientTransform="translate(457.79 750) rotate(180)" xlink:href="#986cbd8a-896f-40c5-bda7-c8817b0de83f"/><linearGradient id="37d8c2ab-439a-43b0-98d4-e34fdeb60126" x1="67.76" y1="151.98" x2="67.76" y2="165.38" gradientTransform="translate(457.79 750) rotate(180)" xlink:href="#986cbd8a-896f-40c5-bda7-c8817b0de83f"/><linearGradient id="86d83455-0945-4f09-9c27-ea7ad270c858" x1="87.86" y1="162.68" x2="87.86" y2="184.29" gradientTransform="translate(457.79 750) rotate(180)" xlink:href="#986cbd8a-896f-40c5-bda7-c8817b0de83f"/><linearGradient id="04672293-a987-47d6-be71-bc497705c4de" x1="55.07" y1="171.25" x2="55.07" y2="184.69" gradientTransform="translate(457.79 750) rotate(180)" xlink:href="#986cbd8a-896f-40c5-bda7-c8817b0de83f"/><linearGradient id="a3e0020a-6477-4791-a944-082b6ce68a5e" x1="77.13" y1="180.05" x2="77.13" y2="200.13" gradientTransform="translate(457.79 750) rotate(180)" xlink:href="#986cbd8a-896f-40c5-bda7-c8817b0de83f"/><linearGradient id="30dbf900-a607-4cf6-a161-57f917aa14e3" x1="45.01" y1="191.94" x2="45.01" y2="205.52" gradientTransform="translate(457.79 750) rotate(180)" xlink:href="#986cbd8a-896f-40c5-bda7-c8817b0de83f"/><linearGradient id="2a3e57d8-8639-412c-a9f0-a6f7a7d5e6c9" x1="68.82" y1="198.84" x2="68.82" y2="216.96" gradientTransform="translate(457.79 750) rotate(180)" xlink:href="#986cbd8a-896f-40c5-bda7-c8817b0de83f"/><linearGradient id="3eb42700-3615-4b0d-9064-f9c596d96242" x1="37.94" y1="213.68" x2="37.94" y2="227.71" gradientTransform="translate(457.79 750) rotate(180)" xlink:href="#986cbd8a-896f-40c5-bda7-c8817b0de83f"/><linearGradient id="7a905eaf-b05d-4d49-a7ca-cdea42387018" x1="62.79" y1="218.59" x2="62.79" y2="234.69" gradientTransform="translate(457.79 750) rotate(180)" xlink:href="#986cbd8a-896f-40c5-bda7-c8817b0de83f"/><linearGradient id="2fa4f79b-ca11-4132-a05e-479753f14116" x1="33.84" y1="236.11" x2="33.84" y2="250.77" gradientTransform="translate(457.79 750) rotate(180)" xlink:href="#986cbd8a-896f-40c5-bda7-c8817b0de83f"/><linearGradient id="888f6597-b4bc-4719-85b8-7490ca5397b3" x1="59.17" y1="238.89" x2="59.17" y2="253.29" gradientTransform="translate(457.79 750) rotate(180)" xlink:href="#986cbd8a-896f-40c5-bda7-c8817b0de83f"/><linearGradient id="e9989bb1-2fc7-434e-ad2a-fe43c991facc" x1="32.71" y1="258.84" x2="32.71" y2="274.39" gradientTransform="translate(457.79 750) rotate(180)" xlink:href="#986cbd8a-896f-40c5-bda7-c8817b0de83f"/><linearGradient id="2867e44b-ae19-4b03-8761-b7919c1f98aa" x1="58.09" y1="259.43" x2="58.09" y2="272.75" gradientTransform="translate(457.79 750) rotate(180)" xlink:href="#986cbd8a-896f-40c5-bda7-c8817b0de83f"/><linearGradient id="12cea123-19ca-4587-a872-b3cf0aec1547" x1="34.52" y1="281.49" x2="34.52" y2="298.29" gradientTransform="translate(457.79 750) rotate(180)" xlink:href="#986cbd8a-896f-40c5-bda7-c8817b0de83f"/><linearGradient id="c3e63b43-ebc1-4318-932b-247e7dfd9723" x1="59.61" y1="279.85" x2="59.61" y2="292.45" gradientTransform="translate(457.79 750) rotate(180)" xlink:href="#986cbd8a-896f-40c5-bda7-c8817b0de83f"/><linearGradient id="00f9a346-c5fa-4389-baf6-27ccb45243dd" x1="39.43" y1="303.64" x2="39.43" y2="322.14" gradientTransform="translate(457.79 750) rotate(180)" xlink:href="#986cbd8a-896f-40c5-bda7-c8817b0de83f"/><linearGradient id="cc18577b-398a-42aa-839c-8f28eec32d8d" x1="63.8" y1="299.81" x2="63.8" y2="311.98" gradientTransform="translate(457.79 750) rotate(180)" xlink:href="#986cbd8a-896f-40c5-bda7-c8817b0de83f"/><linearGradient id="4acbca53-3200-4b83-9003-21d7aaef649a" x1="47.46" y1="324.91" x2="47.46" y2="345.19" gradientTransform="translate(457.79 750) rotate(180)" xlink:href="#986cbd8a-896f-40c5-bda7-c8817b0de83f"/><linearGradient id="7a1648ec-b03f-4467-918f-723a0f04e6a1" x1="70.44" y1="318.9" x2="70.44" y2="330.96" gradientTransform="translate(457.79 750) rotate(180)" xlink:href="#986cbd8a-896f-40c5-bda7-c8817b0de83f"/><linearGradient id="921f5f78-3722-4f72-81fc-85797b91b350" x1="58.05" y1="344.9" x2="58.05" y2="366.83" gradientTransform="translate(457.79 750) rotate(180)" xlink:href="#986cbd8a-896f-40c5-bda7-c8817b0de83f"/><linearGradient id="93e9103b-1d3b-468c-a6a6-1e8302b223bf" x1="79.37" y1="336.85" x2="79.37" y2="349.04" gradientTransform="translate(457.79 750) rotate(180)" xlink:href="#986cbd8a-896f-40c5-bda7-c8817b0de83f"/><linearGradient id="e6c679d4-11ab-464f-8a79-ba11ecdec6fe" x1="71.16" y1="363.39" x2="71.16" y2="386.71" gradientTransform="translate(457.79 750) rotate(180)" xlink:href="#986cbd8a-896f-40c5-bda7-c8817b0de83f"/><linearGradient id="41d70cfc-8500-47f9-81eb-a1e0587526cd" x1="90.6" y1="353.27" x2="90.6" y2="365.83" gradientTransform="translate(457.79 750) rotate(180)" xlink:href="#986cbd8a-896f-40c5-bda7-c8817b0de83f"/><linearGradient id="caf6c84e-3414-4780-8913-d5dae4a7ee61" x1="90.66" y1="371.15" x2="90.66" y2="392.77" gradientTransform="translate(457.79 750) rotate(180)" xlink:href="#986cbd8a-896f-40c5-bda7-c8817b0de83f"/><linearGradient id="6d6dbea3-56cc-431a-b490-7a5465d2a68a" x1="-11.06" y1="394.04" x2="190.13" y2="41.96" gradientTransform="translate(457.79 750) rotate(180)" xlink:href="#e9c44bed-6b69-46b8-b1ff-0c0a3411ea10"/><linearGradient id="7aecd03e-f530-4073-b837-bf85a770590a" x1="4.37" y1="402.82" x2="205.54" y2="50.76" gradientTransform="translate(457.79 750) rotate(180)" xlink:href="#e9c44bed-6b69-46b8-b1ff-0c0a3411ea10"/><linearGradient id="b90f74e3-6c84-43f5-b022-bf93545f8cdc" x1="-24.41" y1="386.45" x2="176.8" y2="34.34" gradientTransform="translate(457.79 750) rotate(180)" xlink:href="#e9c44bed-6b69-46b8-b1ff-0c0a3411ea10"/><linearGradient id="0606c637-1486-4c0d-8cd0-99d0364ce490" x1="-6.93" y1="396.35" x2="194.24" y2="44.32" gradientTransform="translate(457.79 750) rotate(180)" xlink:href="#e9c44bed-6b69-46b8-b1ff-0c0a3411ea10"/><linearGradient id="8290b6ae-5c4d-4397-bd0a-7f230c4fed0d" x1="-35.43" y1="380.19" x2="165.79" y2="28.06" gradientTransform="translate(457.79 750) rotate(180)" xlink:href="#e9c44bed-6b69-46b8-b1ff-0c0a3411ea10"/><linearGradient id="8aa041db-375a-4976-ba1e-5b1533f479f5" x1="-16.31" y1="390.96" x2="184.83" y2="38.97" gradientTransform="translate(457.79 750) rotate(180)" xlink:href="#e9c44bed-6b69-46b8-b1ff-0c0a3411ea10"/><linearGradient id="377f1d16-ab3d-4e7b-b8f6-2c1a85e5ee1d" x1="-44.35" y1="375.12" x2="156.89" y2="22.96" gradientTransform="translate(457.79 750) rotate(180)" xlink:href="#e9c44bed-6b69-46b8-b1ff-0c0a3411ea10"/><linearGradient id="9db01b69-573f-4686-b70d-082993901509" x1="-23.57" y1="386.81" x2="177.56" y2="34.84" gradientTransform="translate(457.79 750) rotate(180)" xlink:href="#e9c44bed-6b69-46b8-b1ff-0c0a3411ea10"/><linearGradient id="42fa4b7e-6873-4398-bef1-3f71dfbdb577" x1="-50.49" y1="371.63" x2="150.76" y2="19.45" gradientTransform="translate(457.79 750) rotate(180)" xlink:href="#e9c44bed-6b69-46b8-b1ff-0c0a3411ea10"/><linearGradient id="3386e9ce-161f-4d88-aafb-a6a38f85947d" x1="-29" y1="383.69" x2="172.11" y2="31.75" gradientTransform="translate(457.79 750) rotate(180)" xlink:href="#e9c44bed-6b69-46b8-b1ff-0c0a3411ea10"/><linearGradient id="96c350a8-e14a-4a82-a745-f27ceec3e599" x1="-54.21" y1="369.53" x2="147.05" y2="17.32" gradientTransform="translate(457.79 750) rotate(180)" xlink:href="#e9c44bed-6b69-46b8-b1ff-0c0a3411ea10"/><linearGradient id="471e2706-702c-4b76-81c1-e0beff9255c5" x1="-32.18" y1="381.93" x2="168.95" y2="29.94" gradientTransform="translate(457.79 750) rotate(180)" xlink:href="#e9c44bed-6b69-46b8-b1ff-0c0a3411ea10"/><linearGradient id="5299d2e2-2e76-4014-8ef1-1b4524f8ccd7" x1="-55.4" y1="368.86" x2="145.87" y2="16.63" gradientTransform="translate(457.79 750) rotate(180)" xlink:href="#e9c44bed-6b69-46b8-b1ff-0c0a3411ea10"/><linearGradient id="14b82e50-30bb-4148-becc-a2790fb49a10" x1="-33.16" y1="381.41" x2="168" y2="29.38" gradientTransform="translate(457.79 750) rotate(180)" xlink:href="#e9c44bed-6b69-46b8-b1ff-0c0a3411ea10"/><linearGradient id="ffb2cf81-e00f-45f6-b7ed-9ac7d9778a26" x1="-53.79" y1="369.79" x2="147.5" y2="17.53" gradientTransform="translate(457.79 750) rotate(180)" xlink:href="#e9c44bed-6b69-46b8-b1ff-0c0a3411ea10"/><linearGradient id="92511b80-075e-47d1-93f4-925b8a9dd23f" x1="-31.94" y1="382.14" x2="169.24" y2="30.07" gradientTransform="translate(457.79 750) rotate(180)" xlink:href="#e9c44bed-6b69-46b8-b1ff-0c0a3411ea10"/><linearGradient id="9db9603e-6ad3-481b-8ea0-ac6a4ea7285f" x1="-49.66" y1="372.14" x2="151.63" y2="19.89" gradientTransform="translate(457.79 750) rotate(180)" xlink:href="#e9c44bed-6b69-46b8-b1ff-0c0a3411ea10"/><linearGradient id="856469b1-2b0e-4320-b8ac-b4dabc788d3b" x1="-28.4" y1="384.18" x2="172.8" y2="32.08" gradientTransform="translate(457.79 750) rotate(180)" xlink:href="#e9c44bed-6b69-46b8-b1ff-0c0a3411ea10"/><linearGradient id="35986f0d-8176-4833-bb5f-3fefefeda08e" x1="-42.75" y1="376.07" x2="158.53" y2="23.81" gradientTransform="translate(457.79 750) rotate(180)" xlink:href="#e9c44bed-6b69-46b8-b1ff-0c0a3411ea10"/><linearGradient id="9ee51408-b582-4ba1-98da-56a27b6022f8" x1="-22.82" y1="387.38" x2="178.39" y2="35.25" gradientTransform="translate(457.79 750) rotate(180)" xlink:href="#e9c44bed-6b69-46b8-b1ff-0c0a3411ea10"/><linearGradient id="358663cf-3292-44d4-96a2-6549122ea724" x1="-33.65" y1="381.24" x2="167.63" y2="29.01" gradientTransform="translate(457.79 750) rotate(180)" xlink:href="#e9c44bed-6b69-46b8-b1ff-0c0a3411ea10"/><linearGradient id="da534070-4c1b-4b78-b970-d0ca80539688" x1="-14.97" y1="391.87" x2="186.26" y2="39.72" gradientTransform="translate(457.79 750) rotate(180)" xlink:href="#e9c44bed-6b69-46b8-b1ff-0c0a3411ea10"/><linearGradient id="5779d40a-e80e-40f9-a9a6-9ab0a4753a55" x1="-22.37" y1="387.67" x2="178.89" y2="35.46" gradientTransform="translate(457.79 750) rotate(180)" xlink:href="#e9c44bed-6b69-46b8-b1ff-0c0a3411ea10"/><linearGradient id="50546354-b944-4f07-a519-1f897895be6b" x1="-5.45" y1="397.32" x2="195.8" y2="45.13" gradientTransform="translate(457.79 750) rotate(180)" xlink:href="#e9c44bed-6b69-46b8-b1ff-0c0a3411ea10"/><linearGradient id="eb8874d9-c3a1-4263-870f-239aeee82e17" x1="-9.11" y1="395.22" x2="192.13" y2="43.04" gradientTransform="translate(457.79 750) rotate(180)" xlink:href="#e9c44bed-6b69-46b8-b1ff-0c0a3411ea10"/><linearGradient id="9938ab11-093b-499d-858e-4b4db7cd8a54" x1="6.02" y1="403.87" x2="207.29" y2="51.66" gradientTransform="translate(457.79 750) rotate(180)" xlink:href="#e9c44bed-6b69-46b8-b1ff-0c0a3411ea10"/><linearGradient id="61eec6b1-5089-4bb6-b75a-36883702a340" x1="6.06" y1="403.87" x2="207.29" y2="51.72" gradientTransform="translate(457.79 750) rotate(180)" xlink:href="#e9c44bed-6b69-46b8-b1ff-0c0a3411ea10"/><linearGradient id="2b6ee29b-9aa4-4624-8ba8-f11cbb8e02a6" x1="18.94" y1="411.26" x2="220.24" y2="58.99" gradientTransform="translate(457.79 750) rotate(180)" xlink:href="#e9c44bed-6b69-46b8-b1ff-0c0a3411ea10"/><linearGradient id="9e1cf9f5-c302-4470-a1c1-68091a167c2e" x1="22.78" y1="413.4" x2="224" y2="61.28" gradientTransform="translate(457.79 750) rotate(180)" xlink:href="#e9c44bed-6b69-46b8-b1ff-0c0a3411ea10"/><linearGradient id="d95ff58f-8b46-4754-a134-a8e3c8ffd07e" x1="33.36" y1="419.49" x2="234.68" y2="67.19" gradientTransform="translate(457.79 750) rotate(180)" xlink:href="#e9c44bed-6b69-46b8-b1ff-0c0a3411ea10"/><linearGradient id="97447db1-f0eb-43b2-938a-fc00f4539cff" x1="40.79" y1="423.68" x2="242" y2="71.56" gradientTransform="translate(457.79 750) rotate(180)" xlink:href="#e9c44bed-6b69-46b8-b1ff-0c0a3411ea10"/><linearGradient id="1e44f40c-14ba-40f7-a41a-1f2ffc5b73bb" x1="48.79" y1="428.29" x2="250.1" y2="76" gradientTransform="translate(457.79 750) rotate(180)" xlink:href="#e9c44bed-6b69-46b8-b1ff-0c0a3411ea10"/><linearGradient id="b36f357f-b6d8-46dc-b98c-a5d9f4378615" x1="59.76" y1="434.49" x2="260.92" y2="82.45" gradientTransform="translate(457.79 750) rotate(180)" xlink:href="#e9c44bed-6b69-46b8-b1ff-0c0a3411ea10"/><linearGradient id="bfabb498-3823-471a-95a7-61bb79624759" x1="167.16" y1="99.11" x2="167.16" y2="371.2" xlink:href="#986cbd8a-896f-40c5-bda7-c8817b0de83f"/><linearGradient id="ba213c34-845a-4d28-a875-3cd6cc7f7ec7" x1="167.9" y1="99.08" x2="167.9" y2="371.2" gradientTransform="matrix(1, 0, 0, -1, 0, 750)" gradientUnits="userSpaceOnUse"><stop offset="0" stop-color="#fdbd30"/><stop offset="0.47" stop-color="#fceb83"/><stop offset="1" stop-color="#ffe367"/></linearGradient><linearGradient id="52772383-1b57-4846-b403-d250b95e2d82" x1="99.66" y1="99.11" x2="99.66" y2="371.2" gradientTransform="translate(433.19 750) rotate(180)" xlink:href="#986cbd8a-896f-40c5-bda7-c8817b0de83f"/><linearGradient id="bddb5197-6778-4213-82a7-6bfb0173288b" x1="100.29" y1="99.08" x2="100.29" y2="371.2" gradientTransform="translate(433.19 750) rotate(180)" xlink:href="#ba213c34-845a-4d28-a875-3cd6cc7f7ec7"/><linearGradient id="74be756c-794c-40d4-85dc-91326edf1c9d" x1="261.44" y1="0.22" x2="300.81" y2="0.22" xlink:href="#467bacc2-e1d5-4a6f-b97b-188a3e1349eb"/><linearGradient id="477dd40f-9a66-45b1-9a0c-4ea087aab0ae" x1="181.89" y1="115.36" x2="300.81" y2="115.36" xlink:href="#aa447058-6aef-4c69-9916-dc2a7bfd3309"/><linearGradient id="62528cd9-c09b-4f9c-9990-0eae740aeac4" x1="221.27" y1="115.32" x2="340.17" y2="115.32" xlink:href="#9cbc7bd9-f780-4273-8a87-18f74efad8cb"/><linearGradient id="311bb58a-3196-41ee-96f2-35018b069ea2" x1="300.81" y1="0.13" x2="340.17" y2="0.13" xlink:href="#9cbc7bd9-f780-4273-8a87-18f74efad8cb"/><linearGradient id="ea0a4dc1-017f-455e-81a8-6588914a1f4c" x1="260.56" y1="115.27" x2="379.53" y2="115.27" xlink:href="#83087927-1eb1-4bd5-9724-44b6d8994ba6"/><linearGradient id="49db2ba8-f2f0-434e-be50-a3c9cb85182b" x1="340.17" y1="0.04" x2="379.53" y2="0.04" xlink:href="#b769c3e2-1c85-41fd-992c-271b1d3bca4f"/><linearGradient id="95cecdc3-32da-4341-8739-22742d6d2654" x1="206.6" y1="453.9" x2="341.84" y2="453.9" gradientTransform="matrix(1, 0, 0, 1, 0, 0)" xlink:href="#e9c44bed-6b69-46b8-b1ff-0c0a3411ea10"/><linearGradient id="be2234fc-e0ae-493f-b3c0-0af09f141228" x1="215.42" y1="526.78" x2="252.72" y2="526.78" gradientTransform="matrix(1, 0, 0, 1, 0, 0)" xlink:href="#e9c44bed-6b69-46b8-b1ff-0c0a3411ea10"/><linearGradient id="48d389b6-0abc-4b20-bd56-fd392e396360" x1="255.68" y1="526" x2="293.94" y2="526" gradientTransform="matrix(1, 0, 0, 1, 0, 0)" xlink:href="#e9c44bed-6b69-46b8-b1ff-0c0a3411ea10"/><linearGradient id="4bb148de-dc92-4152-90a9-93ee89841051" x1="266.11" y1="571.25" x2="289.56" y2="571.25" gradientTransform="matrix(1, 0, 0, 1, 0, 0)" xlink:href="#e9c44bed-6b69-46b8-b1ff-0c0a3411ea10"/><linearGradient id="ed394a6c-48cb-44ef-9457-78bffd5aae88" x1="190.89" y1="569.45" x2="222.67" y2="569.45" gradientTransform="matrix(1, 0, 0, 1, 0, 0)" xlink:href="#e9c44bed-6b69-46b8-b1ff-0c0a3411ea10"/><linearGradient id="25b1ae81-9d63-49c6-8aee-44309a58af5c" x1="284.14" y1="538.13" x2="287.81" y2="538.13" gradientTransform="matrix(1, 0, 0, 1, 0, 0)" xlink:href="#e9c44bed-6b69-46b8-b1ff-0c0a3411ea10"/></defs><title>vet_gold</title><polygon points="102.51 0.63 181.89 230.54 221.27 230.54 141.82 0.54 102.51 0.63" fill="url(#aa447058-6aef-4c69-9916-dc2a7bfd3309)"/><line x1="102.51" y1="0.63" x2="141.82" y2="0.54" fill="url(#467bacc2-e1d5-4a6f-b97b-188a3e1349eb)"/><line x1="141.82" y1="0.54" x2="181.12" y2="0.45" fill="url(#9cbc7bd9-f780-4273-8a87-18f74efad8cb)"/><polygon points="141.82 0.54 221.27 230.54 260.56 230.54 181.12 0.45 141.82 0.54" fill="url(#63cd6454-9322-49ca-8453-b64cd77488fc)"/><polygon points="181.12 0.45 260.56 230.54 299.94 230.54 220.42 0.36 181.12 0.45" fill="url(#83087927-1eb1-4bd5-9724-44b6d8994ba6)"/><line x1="181.12" y1="0.45" x2="220.42" y2="0.36" fill="url(#b769c3e2-1c85-41fd-992c-271b1d3bca4f)"/><g id="52197d9d-4d13-4fd6-b029-189ee2d551d4" data-name="guld"><path d="M333,277.88H167.09V234.69c0-13.84,11.61-25.05,26-25.05H307c14.35,0,26,11.21,26,25.05v43.19ZM180.75,264.72H319.26V234.79A12.16,12.16,0,0,0,307,222.9H193.15a12.09,12.09,0,0,0-12.3,11.89v29.93Z" transform="translate(-9.74 0.19)" fill="url(#b834329a-add0-458d-bc26-3182e5937a30)"/><path d="M336.73,277.88H163.38V230.8a27.33,27.33,0,0,1,27.33-27.3H309.3a27.34,27.34,0,0,1,27.34,27.3v47.08ZM177.82,263.55H322.29V230.89a13,13,0,0,0-13-13H190.8a13,13,0,0,0-13,13Z" transform="translate(-9.74 0.19)" fill="url(#70f79c7b-1325-4a5b-8433-39c34f497bc6)"/><path d="M336.73,278l-18.45.19-18.44.1-36.8.2c-12.3.09-50.47-.1-62.77-.1l-36.8-.2h-.29v-.29c.1-11.31.2-22.71.1-34v-8.48a63.59,63.59,0,0,1,.29-8.58,27.95,27.95,0,0,1,22.55-23.4,42.72,42.72,0,0,1,8.59-.49l8.49-.09,60-.1h46.86l2.14.1,2.15.29A27.87,27.87,0,0,1,337,226.6a63.7,63.7,0,0,1,.29,8.58l-.1,8.48Zm-.09-.2-.3-34-.09-8.48a47.56,47.56,0,0,0-.4-8.38,26.48,26.48,0,0,0-7.32-14.63,27.07,27.07,0,0,0-14.44-7.6l-2-.29-2.15-.1c-1.37-.1-2.83,0-4.2,0H263.13l-60-.1-8.49-.1a40.37,40.37,0,0,0-8.39.39,27,27,0,0,0-14.64,7.61,26.52,26.52,0,0,0-7.42,14.72,59.5,59.5,0,0,0-.39,8.48v8.48c-.1,11.31,0,22.72.09,34l-.29-.29,36.8-.19c12.3,0,50.47-.2,62.76-.1l36.8.19,18.45.1Z" transform="translate(-9.74 0.19)" fill="url(#4f02fade-8f59-4bd1-9d3f-854bf0592d54)"/><path d="M177.92,263.45c9.86-.19,19.72-.29,29.58-.39l55.54-.19c9.86,0,19.71.1,29.67.1l29.67.19-.29.29c.1-8.28,0-16.57,0-24.86v-6.24a16.93,16.93,0,0,0-.78-5.94,12.38,12.38,0,0,0-8.59-7.7,20.69,20.69,0,0,0-6.05-.39l-6.25.09-12.39.1-24.9.1H200l-6.25-.1c-2,0-4.19-.19-6,.39a12.52,12.52,0,0,0-8.49,7.61,13.31,13.31,0,0,0-.78,5.94l-.1,6.24Zm-.2.1-.29-24.86-.1-6.24a15.08,15.08,0,0,1,.79-6.24,13.53,13.53,0,0,1,9.17-8.48,23.8,23.8,0,0,1,6.35-.49l6.24-.09H263l24.89.09,12.39.1,6.25.1a22.38,22.38,0,0,1,6.25.49,13.46,13.46,0,0,1,9.08,8.38,15.22,15.22,0,0,1,.78,6.24v6.24c0,8.29-.1,16.57,0,24.86v.29h-.3l-29.67.2c-9.86,0-19.72.19-29.67.09L207.5,264c-10-.1-19.82-.29-29.78-.49Z" transform="translate(-9.74 0.19)" fill="url(#e0f48ba7-f5a7-41ba-8850-9cce56404c91)"/><ellipse cx="240.61" cy="485.23" rx="240.61" ry="240.3" fill="url(#67838481-3f8e-4201-8489-fa07875abecd)"/><ellipse cx="240.61" cy="485.23" rx="235.24" ry="234.94" fill="url(#aa107749-18f3-4070-8210-392f2011121a)"/><path d="M485.69,485s0,1.46-.1,4.19,0,6.92-.49,12.38a219.08,219.08,0,0,1-7.81,46.21c-.68,2.44-1.36,5-2.14,7.51s-1.76,5.07-2.64,7.8-1.95,5.26-3,8-2.05,5.56-3.41,8.29a225.3,225.3,0,0,1-18.74,34.7,238.4,238.4,0,0,1-66.09,67,244.09,244.09,0,0,1-48,24.86c-2.15.88-4.39,1.56-6.64,2.34s-4.49,1.56-6.73,2.25-4.59,1.26-6.93,2l-3.52,1-3.51.78c-2.34.58-4.69,1.07-7.13,1.66s-4.78.87-7.22,1.36c-4.78,1-9.76,1.46-14.64,2.15-2.44.39-5,.48-7.42.68l-7.52.58c-2.53.1-5.07.1-7.61.2l-3.81.1c-1.27,0-2.54-.1-3.8-.1-2.54-.1-5.08-.1-7.62-.2s-5.17-.39-7.71-.58c-5.17-.29-10.35-1.07-15.52-1.76A245.94,245.94,0,0,1,185,711.6c-5.18-1.37-10.15-3.22-15.33-5-2.53-1-5-2-7.51-2.93l-3.81-1.46-3.71-1.66a235.66,235.66,0,0,1-55.83-34.9,247.39,247.39,0,0,1-24.11-23.39,265.26,265.26,0,0,1-20.79-26.81A247.63,247.63,0,0,1,37,585.74a236.6,236.6,0,0,1-12.4-32.07A248.21,248.21,0,0,1,17,519.94a273.28,273.28,0,0,1-2.64-34.51,257.28,257.28,0,0,1,2.44-34.51,233.79,233.79,0,0,1,7.52-33.73A245.87,245.87,0,0,1,36.58,385a249.32,249.32,0,0,1,16.79-29.93,235.89,235.89,0,0,1,101-85.2l3.71-1.66,3.8-1.46c2.54-1,5-2,7.52-2.93,5.07-1.65,10.15-3.6,15.32-4.87a231.22,231.22,0,0,1,30.95-6.73c5.17-.68,10.34-1.46,15.52-1.65,2.53-.2,5.17-.49,7.71-.59s5.17-.1,7.71-.19c1.27,0,2.54-.1,3.81-.1l3.8.1c2.54.09,5.08.09,7.52.19l7.51.59c2.54.19,5,.29,7.52.68,5,.58,9.86,1.17,14.64,2.14,2.44.49,4.88.78,7.23,1.37s4.78,1.07,7.12,1.65l3.51.78,3.52,1c2.34.68,4.59,1.27,6.93,1.95s4.49,1.46,6.73,2.24,4.49,1.46,6.64,2.34a242.74,242.74,0,0,1,48,24.86,237,237,0,0,1,66,67.07,225.38,225.38,0,0,1,18.74,34.71c1.27,2.72,2.35,5.55,3.42,8.28s2.15,5.36,3,8,1.75,5.26,2.63,7.79c.68,2.54,1.46,5.07,2.15,7.51a226.55,226.55,0,0,1,7.81,46.21c.49,5.36.39,9.55.49,12.38A27.76,27.76,0,0,1,485.69,485Zm-.2,0s0-1.46-.1-4.19,0-6.92-.58-12.29a221.12,221.12,0,0,0-8-46c-.69-2.44-1.47-4.87-2.15-7.41-.88-2.53-1.76-5.07-2.64-7.7s-1.95-5.26-3-8-2.15-5.46-3.42-8.19a223.54,223.54,0,0,0-18.84-34.41,236.73,236.73,0,0,0-66.08-66.3,239.83,239.83,0,0,0-47.83-24.37A234.86,234.86,0,0,0,277,252.83c-2.44-.39-4.89-.49-7.42-.69l-7.42-.58c-2.54-.1-5.08-.1-7.52-.2l-3.8-.09c-1.18,0-2.54.09-3.81.09-2.54.1-5.08.1-7.61.2s-5.08.39-7.62.49c-5.17.29-10.25,1.07-15.42,1.65a228,228,0,0,0-30.75,6.63c-5.17,1.37-10.15,3.22-15.23,4.88-2.53.88-5,2-7.51,2.92l-3.71,1.46-3.71,1.66a234.8,234.8,0,0,0-79.55,57.81,241.17,241.17,0,0,0-20.7,26.71,233.13,233.13,0,0,0-16.79,29.64A229.16,229.16,0,0,0,26,417.29a245.45,245.45,0,0,0-7.62,33.53,268.48,268.48,0,0,0-2.63,34.41,254.2,254.2,0,0,0,2.44,34.42,249.59,249.59,0,0,0,7.42,33.63,229.24,229.24,0,0,0,12.3,32A259.79,259.79,0,0,0,54.64,615a235.21,235.21,0,0,0,100.63,84.52l3.71,1.66,3.71,1.46c2.54,1,5,2,7.52,2.92,5.07,1.66,10,3.51,15.23,4.88a244.33,244.33,0,0,0,30.74,6.63c5.18.58,10.25,1.36,15.43,1.65,2.53.2,5.07.39,7.61.49s5.08.1,7.61.2c1.27,0,2.54.09,3.81.09l3.81-.09c2.54-.1,5.07-.1,7.51-.2l7.52-.58c2.44-.2,5-.3,7.42-.69a237.12,237.12,0,0,0,103.66-37.82,236,236,0,0,0,84.92-100.7c1.37-2.73,2.35-5.56,3.42-8.19s2.15-5.36,3-8,1.76-5.16,2.64-7.7,1.46-5.07,2.15-7.41a228.08,228.08,0,0,0,8-46c.49-5.36.39-9.55.59-12.28C485.49,486.5,485.49,485,485.49,485Z" transform="translate(-9.74 0.19)" fill="url(#6f50f843-32b4-420f-a074-f62e8f1b39d9)"/><g id="62ee4ff8-5d03-47aa-b8b1-6774e42cfe8b" data-name="SVGID"><g clip-path="url(#e84f94cf-d1a9-4971-a7d2-3e3058048f9f)"><path d="M361.72,271.93a240.22,240.22,0,0,0-111.37-27.19C117.4,244.74,9.74,352.36,9.74,485A239.77,239.77,0,0,0,91.92,666c3-.78,6.06-1.65,9.08-2.53a298.37,298.37,0,0,0,129.63-78C290.27,524.13,308,440.29,331.07,360.74,339.37,331.79,349,301.18,361.72,271.93Z" transform="translate(-9.74 0.19)" fill="url(#56c4484a-018c-4633-bb29-4421aac0d282)"/></g></g><path d="M361.72,271.93a240.22,240.22,0,0,0-111.37-27.19C117.4,244.74,9.74,352.36,9.74,485A239.77,239.77,0,0,0,91.92,666c3-.78,6.06-1.65,9.08-2.53a298.37,298.37,0,0,0,129.63-78C290.27,524.13,308,440.29,331.07,360.74,339.37,331.79,349,301.18,361.72,271.93Z" transform="translate(-9.74 0.19)" opacity="0.6" fill="url(#c6870848-9f05-4dbb-bcd6-28b1e8843eb2)" style="isolation:isolate"/><ellipse cx="240.61" cy="485.23" rx="206.74" ry="206.48" fill="url(#398345d2-5f8b-49a5-a52e-a8829594f051)"/><ellipse cx="240.61" cy="485.23" rx="201.37" ry="201.11" fill="url(#3bb7a9da-e30b-48b4-bbeb-54142f1890d3)"/><path d="M457.19,485s0,1.27-.1,3.7,0,6.15-.49,10.83a193.72,193.72,0,0,1-6.83,40.55c-.59,2.14-1.27,4.29-1.86,6.63-.78,2.24-1.46,4.48-2.24,6.82a69.12,69.12,0,0,1-2.64,7c-1,2.34-1.85,4.88-3,7.31a204.86,204.86,0,0,1-16.4,30.52,207.06,207.06,0,0,1-100.35,80.81c-1.85.78-3.9,1.37-5.85,2s-3.91,1.36-6,2-4,1.17-6.05,1.75-4.1,1.17-6.15,1.56L293,688c-2.05.48-4.19.78-6.34,1.17-4.2.87-8.59,1.26-12.89,1.85-2.14.29-4.39.39-6.54.58s-4.39.3-6.63.49-4.49.1-6.64.2l-3.32.09c-1.17,0-2.24-.09-3.42-.09-2.24-.1-4.49-.1-6.73-.2s-4.49-.29-6.83-.49c-4.59-.29-9.08-1-13.67-1.56a205.38,205.38,0,0,1-27.23-5.94c-4.49-1.17-9-2.83-13.47-4.39-2.25-.78-4.4-1.75-6.64-2.63l-3.32-1.37-3.22-1.46A206.85,206.85,0,0,1,117,643.55,210.71,210.71,0,0,1,95.83,623a237,237,0,0,1-18.25-23.59,213.55,213.55,0,0,1-14.84-26.13,204.44,204.44,0,0,1-10.93-28.17,216.66,216.66,0,0,1-6.74-29.63,242.36,242.36,0,0,1-2.34-30.32,225.93,225.93,0,0,1,2.15-30.42A220.84,220.84,0,0,1,51.42,425a205.25,205.25,0,0,1,10.83-28.27A223.63,223.63,0,0,1,77,370.4a207.8,207.8,0,0,1,88.83-75L169,294l3.32-1.27c2.24-.88,4.39-1.76,6.63-2.63,4.49-1.47,8.89-3.12,13.47-4.29a205.56,205.56,0,0,1,27.24-5.95c4.59-.58,9.08-1.27,13.66-1.46,2.25-.2,4.49-.39,6.84-.49s4.49-.1,6.73-.19c1.17,0,2.25-.1,3.42-.1l3.32.1c2.24.09,4.39.09,6.63.19s4.4.29,6.64.49,4.39.29,6.54.58A202.84,202.84,0,0,1,323,290.85a206,206,0,0,1,42.27,21.93,211.4,211.4,0,0,1,58.07,59,198.7,198.7,0,0,1,16.4,30.51c1.17,2.44,2.05,4.88,3,7.32s1.85,4.67,2.63,7,1.57,4.59,2.25,6.83,1.27,4.48,1.85,6.63a200,200,0,0,1,6.84,40.55c.39,4.78.29,8.39.48,10.82A24,24,0,0,1,457.19,485Zm-.2,0s0-1.27-.1-3.7,0-6.15-.49-10.83a201.1,201.1,0,0,0-7-40.45c-.59-2.15-1.27-4.29-1.86-6.53-.78-2.25-1.56-4.49-2.34-6.83s-1.76-4.68-2.64-7-1.85-4.87-3-7.21a204.39,204.39,0,0,0-16.6-30.32A206.53,206.53,0,0,0,273.68,280.9c-2.15-.29-4.3-.39-6.54-.58s-4.4-.29-6.54-.49-4.4-.1-6.64-.19l-3.32-.1-3.32.1c-2.24.09-4.49.09-6.73.19s-4.49.29-6.74.49c-4.49.19-9,.88-13.47,1.46a187.86,187.86,0,0,0-26.94,5.85c-4.49,1.17-8.88,2.83-13.37,4.29-2.25.78-4.39,1.75-6.54,2.53l-3.32,1.27L167,297.18a204.3,204.3,0,0,0-48.81,30.42A220.22,220.22,0,0,0,97.1,348a209.79,209.79,0,0,0-33,49.43,201.23,201.23,0,0,0-17.57,57.52,239.19,239.19,0,0,0-2.35,30.22,224.62,224.62,0,0,0,2.15,30.22,218.16,218.16,0,0,0,6.54,29.54,204.52,204.52,0,0,0,10.84,28.17A214.14,214.14,0,0,0,78.45,599.2a206.49,206.49,0,0,0,88.44,74.28l3.22,1.46,3.32,1.27c2.25.88,4.39,1.76,6.64,2.53,4.49,1.47,8.88,3.12,13.37,4.29a205.34,205.34,0,0,0,27,5.76c4.49.58,9,1.26,13.57,1.46,2.24.1,4.49.39,6.73.49s4.49.09,6.74.19c1.07,0,2.24.1,3.32.1l3.31-.1c2.25-.1,4.4-.1,6.64-.19s4.39-.3,6.54-.49,4.39-.29,6.54-.59a206.87,206.87,0,0,0,149.25-91.44,194.79,194.79,0,0,0,16.59-30.32c1.17-2.43,2.05-4.87,3-7.21a69,69,0,0,0,2.63-7c.79-2.34,1.57-4.58,2.35-6.82s1.27-4.39,1.85-6.54a195,195,0,0,0,7-40.45c.49-4.68.39-8.39.49-10.82C457,486.31,457,485,457,485Z" transform="translate(-9.74 0.19)" fill="url(#f9e106a0-d0d9-4b0b-930a-571eb1837178)"/><path d="M196.27,665.1a41.09,41.09,0,0,0,6.83-1,19.49,19.49,0,0,0,5-2,13.64,13.64,0,0,0,5.37-5.16,12.65,12.65,0,0,0,.88-9.17,55,55,0,0,0-9.76,9,28.17,28.17,0,0,1,1.85-3.21,38.12,38.12,0,0,1,6.35-7.12,16.44,16.44,0,0,0-4,.39,13.06,13.06,0,0,0-5.18,2C200.08,651.06,196.66,655.64,196.27,665.1Z" transform="translate(-9.74 0.19)" fill="url(#986cbd8a-896f-40c5-bda7-c8817b0de83f)"/><path d="M210.82,619.38a35,35,0,0,1,3.61,4.38,26.21,26.21,0,0,1,2.44,3.9,14.75,14.75,0,0,1,1.75,6.83,13.09,13.09,0,0,1-3.22,8.58,31.4,31.4,0,0,1-3.51-12.19,16.52,16.52,0,0,0-.2,3.7,25.21,25.21,0,0,0,1.86,9,13.33,13.33,0,0,1-3.32-2,11.58,11.58,0,0,1-3-4.59C205.74,633,206.13,627.47,210.82,619.38Z" transform="translate(-9.74 0.19)" fill="url(#ec3aa597-686c-463c-ada2-57777c144692)"/><path d="M173.14,656.23c10.73.29,15.71-2.64,18.15-6a12.67,12.67,0,0,0,2.05-9,49.5,49.5,0,0,0-10.73,7.41,15.52,15.52,0,0,1,2.24-2.93,34.17,34.17,0,0,1,7.13-6,15.07,15.07,0,0,0-9.47,1.07C178.8,642.77,174.7,647,173.14,656.23Z" transform="translate(-9.74 0.19)" fill="url(#4fae4ce5-2a4a-4854-b343-1805d03be9b7)"/><path d="M193.54,612.75c5.07,6.43,6.34,12,5.76,16.08a12.74,12.74,0,0,1-4.3,8,37.48,37.48,0,0,1-1.85-12.77,27.78,27.78,0,0,0-.69,3.6,26.6,26.6,0,0,0,.59,9.26,12.83,12.83,0,0,1-5.37-7.41C186.71,625.61,187.88,620.25,193.54,612.75Z" transform="translate(-9.74 0.19)" fill="url(#1793b9e2-c436-40e2-971f-22160a276ec7)"/><path d="M151.57,644.14a39.23,39.23,0,0,0,6.83.78,22.49,22.49,0,0,0,5.37-.69,13.94,13.94,0,0,0,6.54-3.6,12.58,12.58,0,0,0,3.22-8.58,55.42,55.42,0,0,0-11.72,6.14,26.29,26.29,0,0,1,2.64-2.63,38.23,38.23,0,0,1,8-5.17,16,16,0,0,0-4-.68,12.58,12.58,0,0,0-5.56.58C158.89,631.56,154.3,635.17,151.57,644.14Z" transform="translate(-9.74 0.19)" fill="url(#c523e434-51e1-47b9-857b-a9e54bb6b267)"/><path d="M177.43,603.78a44.41,44.41,0,0,1,2.34,5.16,35.69,35.69,0,0,1,1.37,4.39,13.93,13.93,0,0,1-.1,7,13.57,13.57,0,0,1-5.36,7.51,32.61,32.61,0,0,1-.2-12.77,22.09,22.09,0,0,0-1.17,3.51,25.87,25.87,0,0,0-.59,9.16,15.55,15.55,0,0,1-2.63-2.83,11.6,11.6,0,0,1-1.76-5.26C169,615.67,170.89,610.31,177.43,603.78Z" transform="translate(-9.74 0.19)" fill="url(#82fed9f5-9370-4fe0-a7ff-2688b33e4ccc)"/><path d="M131.55,629.61c10.25,3,15.92,1.46,19-1.07a12.65,12.65,0,0,0,4.29-8.09,47.75,47.75,0,0,0-12.39,4.39,19,19,0,0,1,2.93-2.25,36.89,36.89,0,0,1,8.49-4,14.15,14.15,0,0,0-9.37-1.37C140.44,618.21,135.56,620.94,131.55,629.61Z" transform="translate(-9.74 0.19)" fill="url(#672a283a-20a2-442e-abaa-262556aa1aec)"/><path d="M162.5,593c3.32,7.5,3,13.16,1.46,17a12.94,12.94,0,0,1-6.25,6.63,36.35,36.35,0,0,1,1.57-12.77,17.3,17.3,0,0,0-1.57,3.31,28.46,28.46,0,0,0-1.85,9.07,13,13,0,0,1-3.32-8.48C152.54,603.68,155.18,598.51,162.5,593Z" transform="translate(-9.74 0.19)" fill="url(#0b89007e-48b2-4eff-a2f0-bbcd1084ba87)"/><path d="M113.79,612.36c9.47,4.68,15.52,3.51,19,1.36a12.47,12.47,0,0,0,5.27-7.5A56.49,56.49,0,0,0,125.21,609a20.25,20.25,0,0,1,3.22-1.85,39.61,39.61,0,0,1,3.81-1.46,48.43,48.43,0,0,1,5.17-1.37c-1.66-.87-4.88-2.82-9.08-2.63C124.14,602.12,118.77,604.46,113.79,612.36Z" transform="translate(-9.74 0.19)" fill="url(#36dcacb8-4de4-4f41-b042-b1dbe3197cc9)"/><path d="M149.22,580.09c1.95,8.19,1.37,13.45-.78,17.06a12.9,12.9,0,0,1-7.12,5.85,31.36,31.36,0,0,1,3.12-12.38,24.42,24.42,0,0,0-2.05,3.12,23.41,23.41,0,0,0-1.76,3.8,31.23,31.23,0,0,0-1.27,5,11.7,11.7,0,0,1-2.14-9C138,589.35,141.22,584.77,149.22,580.09Z" transform="translate(-9.74 0.19)" fill="url(#e70635e1-8c4e-4d0c-b6e4-db03a36a2d3d)"/><path d="M98.27,593.15c9.08,5.66,14.93,5.46,18.74,3.8a12.44,12.44,0,0,0,6.25-6.72,50.63,50.63,0,0,0-13.08,1.07,28.91,28.91,0,0,1,3.41-1.46,38.29,38.29,0,0,1,9.28-1.66,14.78,14.78,0,0,0-8.79-3.7C109.79,584.38,104.32,585.84,98.27,593.15Z" transform="translate(-9.74 0.19)" fill="url(#5bdaf5bb-8c5a-44b8-8fee-0d8887b9b21e)"/><path d="M137.61,565.76c1.17,8.09-.39,13.45-2.93,16.77A13.5,13.5,0,0,1,127,587.4a34.05,34.05,0,0,1,4.78-11.89,21,21,0,0,0-2.44,2.82,26.1,26.1,0,0,0-4.1,8.29,13.24,13.24,0,0,1-1.07-9.07C125.21,573.46,129.11,569.27,137.61,565.76Z" transform="translate(-9.74 0.19)" fill="url(#5e19eddc-b600-4022-9dcd-0a373c31d0c3)"/><path d="M85.48,572c4.1,3.41,7.42,5.36,10.45,6.24a14,14,0,0,0,7.51.09,12.52,12.52,0,0,0,7-5.85,52.13,52.13,0,0,0-5.37-.58,69.76,69.76,0,0,0-7.81,0,25,25,0,0,1,3.62-1,37.31,37.31,0,0,1,9.37-.49c-1.37-1.27-3.91-4.1-8.11-4.88C98.17,564.78,92.41,565.56,85.48,572Z" transform="translate(-9.74 0.19)" fill="url(#ea3bde5e-0e0f-4698-945d-7e55c04a6d53)"/><path d="M128.14,549.87a35.87,35.87,0,0,1-1.56,10.23,15.13,15.13,0,0,1-3.61,6,13,13,0,0,1-8.4,3.8,28,28,0,0,1,2-4.78,38.61,38.61,0,0,1,4.3-6.43,18,18,0,0,0-2.74,2.44,27,27,0,0,0-5.17,7.7,11.93,11.93,0,0,1,.29-9.17C114.86,555.91,119.16,552.31,128.14,549.87Z" transform="translate(-9.74 0.19)" fill="url(#b281990e-0d67-4330-b08e-d1f1a1632cb6)"/><path d="M75.43,549.38c7.22,7.8,13.08,9.16,17.08,8.58a12.84,12.84,0,0,0,7.81-4.87,49.87,49.87,0,0,0-13-2.34,17.51,17.51,0,0,1,3.71-.49,38.24,38.24,0,0,1,9.37.78,14.85,14.85,0,0,0-7.62-5.85C88.9,543.82,83.24,543.92,75.43,549.38Z" transform="translate(-9.74 0.19)" fill="url(#f5a2c2da-847a-4fac-a9d1-c98d06105b5f)"/><path d="M120.62,533c-1.07,8.19-3.9,12.87-7.22,15.41a12.86,12.86,0,0,1-8.79,2.63,34.45,34.45,0,0,1,7.72-10.24,23.84,23.84,0,0,0-3,2.05,29.73,29.73,0,0,0-6.15,6.92,12.62,12.62,0,0,1,1.27-9C106.66,537.29,111.45,534.27,120.62,533Z" transform="translate(-9.74 0.19)" fill="url(#ceeb274a-2a7b-43de-b735-0fee4ece97b2)"/><path d="M68.69,525.59c3,4.39,5.76,7.12,8.5,8.68a14.37,14.37,0,0,0,7.22,2.05,12.27,12.27,0,0,0,8.3-3.8,42.12,42.12,0,0,0-5.08-1.95,55.29,55.29,0,0,0-7.52-2.05,17.87,17.87,0,0,1,3.71,0A39.52,39.52,0,0,1,93,530.57c-1-1.66-2.64-5-6.54-6.83C82.75,521.89,77,521.21,68.69,525.59Z" transform="translate(-9.74 0.19)" fill="url(#978796c6-a61c-4c4f-a768-26e3e465b5d0)"/><path d="M115.55,515.36a32.07,32.07,0,0,1-4.2,9.45,13.59,13.59,0,0,1-14.06,6.44,27.12,27.12,0,0,1,3.13-4.1,40.51,40.51,0,0,1,5.85-5.07,21.36,21.36,0,0,0-3.32,1.66,26.39,26.39,0,0,0-7,6A11.84,11.84,0,0,1,98.66,521C101.2,517.7,106.27,515.36,115.55,515.36Z" transform="translate(-9.74 0.19)" fill="url(#1ce1fbca-e44c-4246-8eea-1e1786be410f)"/><path d="M64.89,501.12c5.07,9.46,10.25,12.29,14.25,12.68a13,13,0,0,0,8.78-2.63A52,52,0,0,0,76,505.51a19.22,19.22,0,0,1,3.71.49,37.05,37.05,0,0,1,8.89,3.22,14.69,14.69,0,0,0-5.76-7.61C79.24,499.37,73.87,497.91,64.89,501.12Z" transform="translate(-9.74 0.19)" fill="url(#55995db7-6112-422e-a90c-a60223cf9efd)"/><path d="M112.72,497.13c-3,7.6-7.13,11.4-10.94,13.06a13.48,13.48,0,0,1-9.17.29,34,34,0,0,1,10-7.89,19.35,19.35,0,0,0-3.51,1.26,27.19,27.19,0,0,0-7.71,5.07,12.59,12.59,0,0,1,3.61-8.38C98.07,497.62,103.64,495.86,112.72,497.13Z" transform="translate(-9.74 0.19)" fill="url(#2f501613-fa78-4c13-b8e4-3911fcde984b)"/><path d="M64.4,476.46C67.91,486.4,73,489.91,77,490.89a12.28,12.28,0,0,0,9.08-1.56,59.52,59.52,0,0,0-11.23-7.12,21.84,21.84,0,0,1,3.61,1,42.48,42.48,0,0,1,8.4,4.29,15.83,15.83,0,0,0-4.69-8.29C78.94,476.56,73.57,474.32,64.4,476.46Z" transform="translate(-9.74 0.19)" fill="url(#64fa36e2-237f-46a4-a3e3-a1bdc5a93d26)"/><path d="M112.33,478.61c-4.3,7.21-8.5,10.43-12.5,11.5a13.77,13.77,0,0,1-9.17-.88,30.39,30.39,0,0,1,10.93-6.53,17,17,0,0,0-3.61.78,26.92,26.92,0,0,0-8.3,4.09,11.74,11.74,0,0,1,4.78-7.79C97.88,477.24,103.35,476.27,112.33,478.61Z" transform="translate(-9.74 0.19)" fill="url(#aa404652-1ba8-47ac-82aa-078b42ba1d5b)"/><path d="M67.13,451.89c2.34,10.44,6.54,14.43,10.54,15.89a12.76,12.76,0,0,0,9.18-.29,57.4,57.4,0,0,0-10-8.48,20.36,20.36,0,0,1,3.41,1.46,35.15,35.15,0,0,1,7.71,5.36,14.54,14.54,0,0,0-3.51-8.77C81.48,453.84,76.6,451,67.13,451.89Z" transform="translate(-9.74 0.19)" fill="url(#68375da9-76c0-4c5a-81c8-e3f72753e0f6)"/><path d="M114.38,460.28a29.44,29.44,0,0,1-7.42,7.11,15.8,15.8,0,0,1-6.54,2.64,13.06,13.06,0,0,1-9-2,32.67,32.67,0,0,1,11.81-5.07,17.12,17.12,0,0,0-3.71.29,31.79,31.79,0,0,0-8.88,2.93A13,13,0,0,1,96.41,459C100.12,457.06,105.79,456.77,114.38,460.28Z" transform="translate(-9.74 0.19)" fill="url(#060ec5a6-c757-433a-a40c-c02c47e92988)"/><path d="M73.09,427.91a27.75,27.75,0,0,0,3.12,11.8,12.85,12.85,0,0,0,5.08,5.36,12.63,12.63,0,0,0,9.17.88,49.65,49.65,0,0,0-8.88-9.75,27.66,27.66,0,0,1,3.22,1.85,35.55,35.55,0,0,1,6.93,6.34,15.27,15.27,0,0,0-2.34-9.17C87.14,431.71,82.46,428.21,73.09,427.91Z" transform="translate(-9.74 0.19)" fill="url(#318a881d-d42b-42a0-a900-11be6d16cd3c)"/><path d="M118.77,442.34a38.84,38.84,0,0,1-8.2,6.14,15.45,15.45,0,0,1-6.93,1.76A13.08,13.08,0,0,1,95.05,447a36,36,0,0,1,12.4-3.51,16.37,16.37,0,0,0-3.71-.19,28.52,28.52,0,0,0-9.08,1.75,12.31,12.31,0,0,1,6.64-6.34C105.2,437.27,110.76,437.76,118.77,442.34Z" transform="translate(-9.74 0.19)" fill="url(#dff385b5-6720-4bf3-bb46-6ec8aac6ead5)"/><path d="M82.07,404.81c-.59,10.62,2.63,15.69,6,18.13A12.83,12.83,0,0,0,97,425a54.46,54.46,0,0,0-7.52-10.82,15.52,15.52,0,0,1,2.93,2.24,38.47,38.47,0,0,1,6,7.21,15.61,15.61,0,0,0-1.07-9.45C95.44,410.46,91.34,406.37,82.07,404.81Z" transform="translate(-9.74 0.19)" fill="url(#f76e12af-61a5-492e-a27f-1d743a19d51e)"/><path d="M125.5,425.18c-6.63,5-11.91,6.34-16,5.85a13.38,13.38,0,0,1-8.1-4.29,34.23,34.23,0,0,1,12.69-1.85,26.17,26.17,0,0,0-12.88-.1,11.83,11.83,0,0,1,7.42-5.36C112.62,418.36,118.08,419.53,125.5,425.18Z" transform="translate(-9.74 0.19)" fill="url(#29937832-93ba-470e-8730-5530b8696ce4)"/><path d="M94.07,383.17c-1.85,10.43.49,15.89,3.52,18.71a12.59,12.59,0,0,0,8.59,3.22,51.43,51.43,0,0,0-6.06-11.7,17.56,17.56,0,0,1,2.64,2.63,33.76,33.76,0,0,1,5.08,7.9,14.37,14.37,0,0,0,.09-9.46C106.57,390.48,103.05,386,94.07,383.17Z" transform="translate(-9.74 0.19)" fill="url(#b0b6e424-7a4f-4c13-82e1-9de00d6f7aa7)"/><path d="M134.48,409c-7.22,4.09-12.78,4.68-16.69,3.61a13.58,13.58,0,0,1-7.51-5.36,33.68,33.68,0,0,1,12.88-.1,22.59,22.59,0,0,0-3.51-1.17,26.28,26.28,0,0,0-9.28-.68,12.92,12.92,0,0,1,8-4.39C122.57,400.62,127.85,402.47,134.48,409Z" transform="translate(-9.74 0.19)" fill="url(#10e3b665-7bb8-4a87-a96f-feada89ba92a)"/><path d="M108.71,363.28a48.76,48.76,0,0,0-1.66,6.73,25.16,25.16,0,0,0,0,5.36,13,13,0,0,0,2.74,6.92,12.65,12.65,0,0,0,8.1,4.29,53.37,53.37,0,0,0-4.49-12.38,18.81,18.81,0,0,1,2.24,2.92,35.58,35.58,0,0,1,4,8.58,15.87,15.87,0,0,0,1.27-3.8,15.11,15.11,0,0,0,.09-5.56C120.23,372.25,117.3,367.18,108.71,363.28Z" transform="translate(-9.74 0.19)" fill="url(#020e5b3c-20d5-44c1-bd41-6601a26c475e)"/><path d="M145.42,394.18a35.5,35.5,0,0,1-5.47,1.76,28.45,28.45,0,0,1-4.59.78,15.34,15.34,0,0,1-7-1.08,13.69,13.69,0,0,1-6.73-6.23,35,35,0,0,1,12.69,1.46,20.61,20.61,0,0,0-3.32-1.66,30.45,30.45,0,0,0-9.08-1.85,14.08,14.08,0,0,1,3.22-2.15,11.51,11.51,0,0,1,5.37-1.07C134.78,384.34,139.75,386.87,145.42,394.18Z" transform="translate(-9.74 0.19)" fill="url(#a6ac3232-bd1a-4b5a-8133-0037454b537e)"/><path d="M141.12,357.24a29.83,29.83,0,0,0-10.93,5.36,13.35,13.35,0,0,0-4.2,6.14,12.68,12.68,0,0,0,1,9.06,54.68,54.68,0,0,0,7.71-10.62,23,23,0,0,1-1.17,3.51,35.41,35.41,0,0,1-4.79,8,15.27,15.27,0,0,0,8.59-4.09C140.24,371.66,142.68,366.59,141.12,357.24Z" transform="translate(-9.74 0.19)" fill="url(#540bb9ab-0757-484c-be79-9cac260d2584)"/><path d="M194.51,665.1a41.38,41.38,0,0,0,6.84-1,19.8,19.8,0,0,0,5-2,13.61,13.61,0,0,0,5.36-5.16,12.6,12.6,0,0,0,.88-9.17,55.31,55.31,0,0,0-9.76,9,29.53,29.53,0,0,1,1.86-3.21,37.65,37.65,0,0,1,6.34-7.12,16.48,16.48,0,0,0-4,.39,13.06,13.06,0,0,0-5.18,2C198.42,651.06,194.9,655.64,194.51,665.1Z" transform="translate(-9.74 0.19)" fill="url(#e9c44bed-6b69-46b8-b1ff-0c0a3411ea10)"/><path d="M209.06,619.38a35,35,0,0,1,3.61,4.38,25.41,25.41,0,0,1,2.44,3.9,14.78,14.78,0,0,1,1.76,6.83,13.15,13.15,0,0,1-3.22,8.58,31.54,31.54,0,0,1-3.52-12.19,16.24,16.24,0,0,0-.19,3.7,25.16,25.16,0,0,0,1.85,9,13.33,13.33,0,0,1-3.32-2,11.46,11.46,0,0,1-3-4.59C204,633,204.47,627.47,209.06,619.38Z" transform="translate(-9.74 0.19)" fill="url(#ac1e834d-160e-4f5f-8aaf-69594a5f1246)"/><path d="M171.48,656.23c10.74.29,15.71-2.64,18.15-6a12.67,12.67,0,0,0,2.05-9A49.5,49.5,0,0,0,181,648.72a15.52,15.52,0,0,1,2.24-2.93,34.17,34.17,0,0,1,7.13-6,15.07,15.07,0,0,0-9.47,1.07C177,642.77,173,647,171.48,656.23Z" transform="translate(-9.74 0.19)" fill="url(#70e9d28a-6416-46a6-af7d-005f5fff757f)"/><path d="M191.78,612.75c5.08,6.43,6.35,12,5.76,16.08a12.79,12.79,0,0,1-4.29,8,37.43,37.43,0,0,1-1.86-12.77,27,27,0,0,0-.68,3.6,26.31,26.31,0,0,0,.58,9.26,12.83,12.83,0,0,1-5.37-7.41C185.05,625.61,186.12,620.25,191.78,612.75Z" transform="translate(-9.74 0.19)" fill="url(#b1ee6f85-d9bd-4d35-9b5b-3ccdc9219f06)"/><path d="M149.81,644.14a39.23,39.23,0,0,0,6.83.78,22.42,22.42,0,0,0,5.37-.69,13.84,13.84,0,0,0,6.54-3.6,12.58,12.58,0,0,0,3.22-8.58,55.4,55.4,0,0,0-11.71,6.14,26.72,26.72,0,0,1,2.63-2.63,38.08,38.08,0,0,1,8-5.17,16.16,16.16,0,0,0-4-.68,12.6,12.6,0,0,0-5.56.58C157.13,631.56,152.64,635.17,149.81,644.14Z" transform="translate(-9.74 0.19)" fill="url(#a7007388-8a10-4e2c-8b72-78a5e52a89cc)"/><path d="M175.68,603.78a48,48,0,0,1,2.34,5.16,37.3,37.3,0,0,1,1.36,4.39,14.06,14.06,0,0,1-.09,7,13.62,13.62,0,0,1-5.37,7.51,32.81,32.81,0,0,1-.2-12.77,23.45,23.45,0,0,0-1.17,3.51,26.14,26.14,0,0,0-.58,9.16,15.2,15.2,0,0,1-2.64-2.83,11.6,11.6,0,0,1-1.76-5.26C167.28,615.67,169.14,610.31,175.68,603.78Z" transform="translate(-9.74 0.19)" fill="url(#1182a3a5-fb1a-4d44-8458-8b5539c8b6bc)"/><path d="M129.8,629.61c10.25,3,15.91,1.46,19-1.07a12.73,12.73,0,0,0,4.3-8.09,47.78,47.78,0,0,0-12.4,4.39,19.68,19.68,0,0,1,2.93-2.25,36.89,36.89,0,0,1,8.49-4,14.14,14.14,0,0,0-9.37-1.37C138.68,618.21,133.8,620.94,129.8,629.61Z" transform="translate(-9.74 0.19)" fill="url(#67ece698-a4b0-4759-baa9-e4f57155f1d9)"/><path d="M160.74,593c3.32,7.5,3,13.16,1.46,17a12.93,12.93,0,0,1-6.24,6.63,36,36,0,0,1,1.56-12.77,17,17,0,0,0-1.56,3.31,28.42,28.42,0,0,0-1.86,9.07,13.06,13.06,0,0,1-3.32-8.48C150.78,603.68,153.42,598.51,160.74,593Z" transform="translate(-9.74 0.19)" fill="url(#77cbe039-d1a1-4efc-ac38-24859f4526e0)"/><path d="M112,612.36c9.47,4.68,15.52,3.51,19,1.36a12.56,12.56,0,0,0,5.27-7.5A56.44,56.44,0,0,0,123.45,609a20.25,20.25,0,0,1,3.22-1.85,40.66,40.66,0,0,1,3.81-1.46,48.43,48.43,0,0,1,5.17-1.37c-1.65-.87-4.88-2.82-9.07-2.63C122.38,602.12,117.11,604.46,112,612.36Z" transform="translate(-9.74 0.19)" fill="url(#04f6ffb6-d399-46a0-a528-8e2fc50b110c)"/><path d="M147.47,580.09c1.95,8.19,1.36,13.45-.79,17.06a12.9,12.9,0,0,1-7.12,5.85,31.54,31.54,0,0,1,3.12-12.38,24.42,24.42,0,0,0-2.05,3.12,23.47,23.47,0,0,0-1.75,3.8,30.2,30.2,0,0,0-1.27,5,11.74,11.74,0,0,1-2.15-9C136.34,589.35,139.46,584.77,147.47,580.09Z" transform="translate(-9.74 0.19)" fill="url(#854e1eeb-a65c-4443-9f40-fae59e35fa87)"/><path d="M96.51,593.15c9.08,5.66,14.94,5.46,18.74,3.8a12.4,12.4,0,0,0,6.25-6.72,50.68,50.68,0,0,0-13.08,1.07,28.68,28.68,0,0,1,3.42-1.46,38.2,38.2,0,0,1,9.27-1.66,14.77,14.77,0,0,0-8.78-3.7C108,584.38,102.66,585.84,96.51,593.15Z" transform="translate(-9.74 0.19)" fill="url(#04009a23-e2d4-4370-85e4-878a1fda3f27)"/><path d="M135.85,565.76c1.17,8.09-.39,13.45-2.93,16.77a13.47,13.47,0,0,1-7.71,4.87A34.05,34.05,0,0,1,130,575.51a21,21,0,0,0-2.44,2.82,26.53,26.53,0,0,0-4.1,8.29,13.3,13.3,0,0,1-1.07-9.07C123.45,573.46,127.36,569.27,135.85,565.76Z" transform="translate(-9.74 0.19)" fill="url(#889f1a79-f066-490e-9e9d-cecde31b31b7)"/><path d="M83.82,572c4.1,3.41,7.42,5.36,10.45,6.24a14,14,0,0,0,7.51.09,12.52,12.52,0,0,0,7-5.85,51.81,51.81,0,0,0-5.37-.58,69.76,69.76,0,0,0-7.81,0,25,25,0,0,1,3.62-1,37.31,37.31,0,0,1,9.37-.49c-1.37-1.27-3.91-4.1-8.11-4.88S90.66,565.56,83.82,572Z" transform="translate(-9.74 0.19)" fill="url(#7d44c658-3c62-4010-b346-146b40a116f8)"/><path d="M126.38,549.87a35.87,35.87,0,0,1-1.56,10.23,15.13,15.13,0,0,1-3.61,6,12.93,12.93,0,0,1-8.4,3.8,27.34,27.34,0,0,1,2-4.78,38.49,38.49,0,0,1,4.29-6.43,17.74,17.74,0,0,0-2.73,2.44,27,27,0,0,0-5.18,7.7,11.94,11.94,0,0,1,.3-9.17C113.11,555.91,117.4,552.31,126.38,549.87Z" transform="translate(-9.74 0.19)" fill="url(#4f9878e9-47cb-4c77-93d9-29a8b3b8f246)"/><path d="M73.77,549.38c7.22,7.8,13.08,9.16,17.08,8.58a12.84,12.84,0,0,0,7.81-4.87,49.87,49.87,0,0,0-13-2.34,17.51,17.51,0,0,1,3.71-.49,38.24,38.24,0,0,1,9.37.78,14.85,14.85,0,0,0-7.62-5.85C87.24,543.82,81.58,543.92,73.77,549.38Z" transform="translate(-9.74 0.19)" fill="url(#87d2c5a4-a8a7-44eb-8504-27881714fbf4)"/><path d="M118.87,533c-1.08,8.19-3.91,12.87-7.23,15.41a12.85,12.85,0,0,1-8.78,2.63,34.2,34.2,0,0,1,7.71-10.24,23.84,23.84,0,0,0-3,2.05,30,30,0,0,0-6.15,6.92,12.62,12.62,0,0,1,1.27-9C105,537.29,109.79,534.27,118.87,533Z" transform="translate(-9.74 0.19)" fill="url(#c5bf498b-0abb-4632-97cc-4a955eb75d77)"/><path d="M66.94,525.59c3,4.39,5.76,7.12,8.49,8.68a14.37,14.37,0,0,0,7.22,2.05,12.27,12.27,0,0,0,8.3-3.8,42.12,42.12,0,0,0-5.08-1.95,55.52,55.52,0,0,0-7.51-2.05,17.82,17.82,0,0,1,3.71,0,39.56,39.56,0,0,1,9.17,2.05c-1-1.66-2.63-5-6.54-6.83C81.09,521.89,75.33,521.21,66.94,525.59Z" transform="translate(-9.74 0.19)" fill="url(#3bb3973a-a80f-4eec-baeb-60225736edf2)"/><path d="M113.89,515.36a32.07,32.07,0,0,1-4.2,9.45,13.59,13.59,0,0,1-14.06,6.44,27.12,27.12,0,0,1,3.13-4.1,40.51,40.51,0,0,1,5.85-5.07,21.06,21.06,0,0,0-3.31,1.66,26.25,26.25,0,0,0-7,6A11.88,11.88,0,0,1,97,521C99.54,517.7,104.52,515.36,113.89,515.36Z" transform="translate(-9.74 0.19)" fill="url(#cf26fa45-7e05-4ed2-bfc9-ec0218ec9bba)"/><path d="M63.13,501.12c5.08,9.46,10.25,12.29,14.25,12.68a13.08,13.08,0,0,0,8.79-2.63,52.24,52.24,0,0,0-11.91-5.66A19.31,19.31,0,0,1,78,506a37.16,37.16,0,0,1,8.88,3.22,14.69,14.69,0,0,0-5.76-7.61C77.58,499.37,72.11,497.91,63.13,501.12Z" transform="translate(-9.74 0.19)" fill="url(#9fb45d90-b701-43ef-9820-f6cfe9c41958)"/><path d="M111,497.13c-3,7.6-7.13,11.4-10.93,13.06a13.5,13.5,0,0,1-9.18.29,33.91,33.91,0,0,1,10.06-7.89,19.26,19.26,0,0,0-3.52,1.26,27.19,27.19,0,0,0-7.71,5.07,12.64,12.64,0,0,1,3.61-8.38C96.41,497.62,101.88,495.86,111,497.13Z" transform="translate(-9.74 0.19)" fill="url(#f22292ba-14e3-4012-bbd4-243f3026ebdc)"/><path d="M62.64,476.46c3.52,9.94,8.59,13.45,12.59,14.43a12.28,12.28,0,0,0,9.08-1.56,59.7,59.7,0,0,0-11.22-7.12,22.13,22.13,0,0,1,3.61,1,42.73,42.73,0,0,1,8.39,4.29,15.8,15.8,0,0,0-4.68-8.29C77.28,476.56,71.82,474.32,62.64,476.46Z" transform="translate(-9.74 0.19)" fill="url(#1bc3e791-997e-4025-8e59-4df369e03cae)"/><path d="M110.67,478.61c-4.3,7.21-8.5,10.43-12.5,11.5a13.77,13.77,0,0,1-9.17-.88,30.39,30.39,0,0,1,10.93-6.53,17,17,0,0,0-3.61.78,26.92,26.92,0,0,0-8.3,4.09,11.74,11.74,0,0,1,4.78-7.79C96.12,477.24,101.59,476.27,110.67,478.61Z" transform="translate(-9.74 0.19)" fill="url(#149b0e3c-65b6-4a4e-b58d-e373e8dd87ad)"/><path d="M65.37,451.89c2.35,10.44,6.54,14.43,10.55,15.89a12.73,12.73,0,0,0,9.17-.29A57.4,57.4,0,0,0,75,459a20.36,20.36,0,0,1,3.41,1.46,35.18,35.18,0,0,1,7.72,5.36,14.63,14.63,0,0,0-3.52-8.77C79.72,453.84,74.84,451,65.37,451.89Z" transform="translate(-9.74 0.19)" fill="url(#eed28612-50db-4114-8575-1ea0ffa6d482)"/><path d="M112.62,460.28a29.44,29.44,0,0,1-7.42,7.11A15.75,15.75,0,0,1,98.66,470a13.06,13.06,0,0,1-9-2,32.67,32.67,0,0,1,11.81-5.07,17.14,17.14,0,0,0-3.71.29,31.89,31.89,0,0,0-8.88,2.93A13,13,0,0,1,94.66,459C98.37,457.06,104.13,456.77,112.62,460.28Z" transform="translate(-9.74 0.19)" fill="url(#433300cb-9e90-40db-be40-310139bf0d18)"/><path d="M71.33,427.91a27.75,27.75,0,0,0,3.12,11.8,12.91,12.91,0,0,0,5.08,5.36,12.63,12.63,0,0,0,9.17.88,49.65,49.65,0,0,0-8.88-9.75A27.66,27.66,0,0,1,83,438.05,35.55,35.55,0,0,1,90,444.39a15.13,15.13,0,0,0-2.34-9.17C85.38,431.71,80.8,428.21,71.33,427.91Z" transform="translate(-9.74 0.19)" fill="url(#20fab5c9-c9ef-4cb1-88c0-24fb5ecd15d5)"/><path d="M117.11,442.34a38.84,38.84,0,0,1-8.2,6.14,15.45,15.45,0,0,1-6.93,1.76A13.1,13.1,0,0,1,93.39,447a36,36,0,0,1,12.4-3.51,16.37,16.37,0,0,0-3.71-.19A28.52,28.52,0,0,0,93,445.07a12.31,12.31,0,0,1,6.64-6.34C103.44,437.27,109,437.76,117.11,442.34Z" transform="translate(-9.74 0.19)" fill="url(#3022cefa-309f-451f-99e4-9b93ec1a21dd)"/><path d="M80.31,404.81c-.59,10.62,2.63,15.69,6,18.13a12.83,12.83,0,0,0,9,2.05,54.74,54.74,0,0,0-7.51-10.82,15.52,15.52,0,0,1,2.93,2.24,38.86,38.86,0,0,1,6,7.21,15.71,15.71,0,0,0-1.08-9.45C93.78,410.46,89.58,406.37,80.31,404.81Z" transform="translate(-9.74 0.19)" fill="url(#d3c09998-dbec-4c3d-bf8b-70815b9d6dea)"/><path d="M123.84,425.18c-6.63,5-11.9,6.34-16,5.85a13.38,13.38,0,0,1-8.11-4.29,34.23,34.23,0,0,1,12.69-1.85,26.17,26.17,0,0,0-12.88-.1,11.83,11.83,0,0,1,7.42-5.36C111,418.36,116.33,419.53,123.84,425.18Z" transform="translate(-9.74 0.19)" fill="url(#7a6acdd0-4256-42ab-855b-f03d566ab358)"/><path d="M92.32,383.17c-1.86,10.43.48,15.89,3.51,18.71a12.61,12.61,0,0,0,8.59,3.22,51.71,51.71,0,0,0-6-11.7A17.84,17.84,0,0,1,101,396a33.76,33.76,0,0,1,5.08,7.9,14.42,14.42,0,0,0,.1-9.46C104.91,390.48,101.39,386,92.32,383.17Z" transform="translate(-9.74 0.19)" fill="url(#c168724b-45b0-443b-b3dd-19edc888b973)"/><path d="M132.73,409c-7.23,4.09-12.79,4.68-16.7,3.61a13.58,13.58,0,0,1-7.51-5.36,33.7,33.7,0,0,1,12.88-.1,22.59,22.59,0,0,0-3.51-1.17,26.24,26.24,0,0,0-9.27-.68,12.89,12.89,0,0,1,8-4.39C120.92,400.62,126.19,402.47,132.73,409Z" transform="translate(-9.74 0.19)" fill="url(#c3c4befb-889b-4e5a-8602-3b280ea51df7)"/><path d="M107,363.28A47.35,47.35,0,0,0,105.3,370a23.91,23.91,0,0,0,0,5.36,12.89,12.89,0,0,0,2.73,6.92,12.7,12.7,0,0,0,8.1,4.29,52.9,52.9,0,0,0-4.49-12.38,19.16,19.16,0,0,1,2.25,2.92,35.61,35.61,0,0,1,4,8.58,15.43,15.43,0,0,0,1.27-3.8,15.1,15.1,0,0,0,.1-5.56C118.48,372.25,115.55,367.18,107,363.28Z" transform="translate(-9.74 0.19)" fill="url(#9be67ff5-d1ca-4bbb-bd3d-9bbb84cda8b2)"/><path d="M143.76,394.18a35.5,35.5,0,0,1-5.47,1.76,28.45,28.45,0,0,1-4.59.78,15.34,15.34,0,0,1-7-1.08,13.69,13.69,0,0,1-6.73-6.23,35,35,0,0,1,12.69,1.46,20.61,20.61,0,0,0-3.32-1.66,30.45,30.45,0,0,0-9.08-1.85,14.31,14.31,0,0,1,3.22-2.15,11.51,11.51,0,0,1,5.37-1.07C133,384.34,138,386.87,143.76,394.18Z" transform="translate(-9.74 0.19)" fill="url(#939d2ee9-f407-4c0e-b362-72c9d6ee73ca)"/><path d="M139.46,357.24a29.83,29.83,0,0,0-10.93,5.36,13.35,13.35,0,0,0-4.2,6.14,12.68,12.68,0,0,0,1,9.06A54.68,54.68,0,0,0,133,367.18a23,23,0,0,1-1.17,3.51,35.41,35.41,0,0,1-4.79,8,15.27,15.27,0,0,0,8.59-4.09C138.49,371.66,140.93,366.59,139.46,357.24Z" transform="translate(-9.74 0.19)" fill="url(#54b7948f-6d86-4b3c-ad82-b2c15de94414)"/><path d="M304.42,665.1a41.24,41.24,0,0,1-6.83-1,19.8,19.8,0,0,1-5-2,13.71,13.71,0,0,1-5.37-5.16,12.63,12.63,0,0,1-.87-9.17,55.31,55.31,0,0,1,9.76,9,29.53,29.53,0,0,0-1.86-3.21,38,38,0,0,0-6.34-7.12,16.52,16.52,0,0,1,4,.39,13,13,0,0,1,5.17,2C300.62,651.06,304.13,655.64,304.42,665.1Z" transform="translate(-9.74 0.19)" fill="url(#ceefa5b4-1b33-4125-b7b6-de532c964c14)"/><path d="M290,619.38a33.3,33.3,0,0,0-3.61,4.38,24.66,24.66,0,0,0-2.44,3.9,14.78,14.78,0,0,0-1.76,6.83,13.09,13.09,0,0,0,3.22,8.58,31.4,31.4,0,0,0,3.51-12.19,15.8,15.8,0,0,1,.2,3.7,25.21,25.21,0,0,1-1.86,9,13.33,13.33,0,0,0,3.32-2,11.48,11.48,0,0,0,3-4.59C295.05,633,294.57,627.47,290,619.38Z" transform="translate(-9.74 0.19)" fill="url(#5ac345de-b720-4fbb-b5d3-0354a2978ee8)"/><path d="M327.56,656.23c-10.74.29-15.72-2.64-18.16-6a12.72,12.72,0,0,1-2-9,49.26,49.26,0,0,1,10.74,7.41,15.36,15.36,0,0,0-2.25-2.93,34.08,34.08,0,0,0-7.12-6,15.08,15.08,0,0,1,9.47,1.07C321.9,642.77,326,647,327.56,656.23Z" transform="translate(-9.74 0.19)" fill="url(#c9183d8c-e0ad-4b2b-8af8-df2894e6ff29)"/><path d="M307.16,612.75c-5.08,6.43-6.35,12-5.76,16.08a12.79,12.79,0,0,0,4.29,8,37.43,37.43,0,0,0,1.86-12.77,26.07,26.07,0,0,1,.1,12.86,12.78,12.78,0,0,0,5.36-7.41C314,625.61,312.82,620.25,307.16,612.75Z" transform="translate(-9.74 0.19)" fill="url(#d36965b9-e113-4880-a54e-db86d25c5609)"/><path d="M349.23,644.14a39.33,39.33,0,0,1-6.84.78,22.33,22.33,0,0,1-5.36-.69,13.84,13.84,0,0,1-6.54-3.6,12.58,12.58,0,0,1-3.22-8.58A55.64,55.64,0,0,1,339,638.19a26.29,26.29,0,0,0-2.64-2.63,38,38,0,0,0-8-5.17,16.07,16.07,0,0,1,4-.68,12.58,12.58,0,0,1,5.56.58C341.81,631.56,346.4,635.17,349.23,644.14Z" transform="translate(-9.74 0.19)" fill="url(#457d8e86-7278-4371-9d48-7785c912f5d3)"/><path d="M323.26,603.78a48,48,0,0,0-2.34,5.16,37.5,37.5,0,0,0-1.37,4.39,14.16,14.16,0,0,0,.1,7,13.62,13.62,0,0,0,5.37,7.51,32.81,32.81,0,0,0,.2-12.77,23.45,23.45,0,0,1,1.17,3.51,26.14,26.14,0,0,1,.58,9.16,15.2,15.2,0,0,0,2.64-2.83,11.48,11.48,0,0,0,1.75-5.26C331.76,615.67,329.8,610.31,323.26,603.78Z" transform="translate(-9.74 0.19)" fill="url(#1db038c3-6c9a-4b8d-98b2-53ba5fb100c6)"/><path d="M369.14,629.61c-10.25,3-15.91,1.46-19-1.07a12.63,12.63,0,0,1-4.3-8.09,47.78,47.78,0,0,1,12.4,4.39,19.68,19.68,0,0,0-2.93-2.25,36.89,36.89,0,0,0-8.49-4,14.14,14.14,0,0,1,9.37-1.37C360.36,618.21,365.14,620.94,369.14,629.61Z" transform="translate(-9.74 0.19)" fill="url(#6e6c74d1-5181-44bc-9616-a8d88972198f)"/><path d="M338.3,593c-3.32,7.5-3,13.16-1.47,17a12.94,12.94,0,0,0,6.25,6.63,36.28,36.28,0,0,0-1.56-12.77,17,17,0,0,1,1.56,3.31,28.18,28.18,0,0,1,1.85,9.07,13,13,0,0,0,3.32-8.48C348.25,603.68,345.52,598.51,338.3,593Z" transform="translate(-9.74 0.19)" fill="url(#12cf5e8f-20b7-42a7-b1c5-410a92e723c1)"/><path d="M386.91,612.36c-9.47,4.68-15.52,3.51-19,1.36a12.56,12.56,0,0,1-5.27-7.5A56.49,56.49,0,0,1,375.48,609a20.25,20.25,0,0,0-3.22-1.85,39.34,39.34,0,0,0-3.8-1.46,48,48,0,0,0-5.18-1.37c1.66-.87,4.88-2.82,9.08-2.63C376.56,602.12,381.93,604.46,386.91,612.36Z" transform="translate(-9.74 0.19)" fill="url(#e543cf8e-1130-44c5-9caa-db3898849251)"/><path d="M351.47,580.09c-2,8.19-1.36,13.45.78,17.06a12.88,12.88,0,0,0,7.13,5.85,31.72,31.72,0,0,0-3.12-12.38,25.84,25.84,0,0,1,2.05,3.12,23.47,23.47,0,0,1,1.75,3.8,30.2,30.2,0,0,1,1.27,5,11.74,11.74,0,0,0,2.15-9C362.7,589.35,359.57,584.77,351.47,580.09Z" transform="translate(-9.74 0.19)" fill="url(#97440e8f-431b-4c5f-ae54-1aa34d80c08f)"/><path d="M402.52,593.15c-9.07,5.66-14.93,5.46-18.74,3.8a12.44,12.44,0,0,1-6.25-6.72,50.63,50.63,0,0,1,13.08,1.07,28,28,0,0,0-3.41-1.46,38.29,38.29,0,0,0-9.27-1.66,14.74,14.74,0,0,1,8.78-3.7C391,584.38,396.37,585.84,402.52,593.15Z" transform="translate(-9.74 0.19)" fill="url(#37d8c2ab-439a-43b0-98d4-e34fdeb60126)"/><path d="M363.19,565.76c-1.18,8.09.39,13.45,2.92,16.77a13.49,13.49,0,0,0,7.72,4.87A33.92,33.92,0,0,0,369,575.51a20.12,20.12,0,0,1,2.44,2.82,26.1,26.1,0,0,1,4.1,8.29,13.29,13.29,0,0,0,1.08-9.07C375.48,573.46,371.58,569.27,363.19,565.76Z" transform="translate(-9.74 0.19)" fill="url(#86d83455-0945-4f09-9c27-ea7ad270c858)"/><path d="M415.21,572c-4.1,3.41-7.42,5.36-10.44,6.24a14,14,0,0,1-7.52.09,12.56,12.56,0,0,1-7-5.85,52.45,52.45,0,0,1,5.37-.58,69.78,69.78,0,0,1,7.81,0,25,25,0,0,0-3.61-1,37.34,37.34,0,0,0-9.37-.49c1.37-1.27,3.9-4.1,8.1-4.88S408.28,565.56,415.21,572Z" transform="translate(-9.74 0.19)" fill="url(#04672293-a987-47d6-be71-bc497705c4de)"/><path d="M372.65,549.87a35.84,35.84,0,0,0,1.57,10.23,14.9,14.9,0,0,0,3.61,6,12.93,12.93,0,0,0,8.39,3.8,27.19,27.19,0,0,0-2-4.78,39.12,39.12,0,0,0-4.29-6.43,17.74,17.74,0,0,1,2.73,2.44,26.8,26.8,0,0,1,5.17,7.7,11.93,11.93,0,0,0-.29-9.17C385.83,555.91,381.63,552.31,372.65,549.87Z" transform="translate(-9.74 0.19)" fill="url(#a3e0020a-6477-4791-a944-082b6ce68a5e)"/><path d="M425.27,549.38c-7.23,7.8-13.08,9.16-17.09,8.58a12.81,12.81,0,0,1-7.8-4.87,49.78,49.78,0,0,1,13-2.34,17.66,17.66,0,0,0-3.71-.49,38.24,38.24,0,0,0-9.37.78,14.77,14.77,0,0,1,7.61-5.85C411.8,543.82,417.46,543.92,425.27,549.38Z" transform="translate(-9.74 0.19)" fill="url(#30dbf900-a607-4cf6-a161-57f917aa14e3)"/><path d="M380.07,533c1.08,8.19,3.91,12.87,7.23,15.41a12.83,12.83,0,0,0,8.78,2.63,34.37,34.37,0,0,0-7.71-10.24,23.84,23.84,0,0,1,3,2.05,29.73,29.73,0,0,1,6.14,6.92,12.56,12.56,0,0,0-1.26-9C394,537.29,389.25,534.27,380.07,533Z" transform="translate(-9.74 0.19)" fill="url(#2a3e57d8-8639-412c-a9f0-a6f7a7d5e6c9)"/><path d="M432,525.59c-3,4.39-5.76,7.12-8.49,8.68a14.37,14.37,0,0,1-7.22,2.05,12.27,12.27,0,0,1-8.3-3.8,42.12,42.12,0,0,1,5.08-1.95,55.11,55.11,0,0,1,7.51-2.05,17.87,17.87,0,0,0-3.71,0,39.46,39.46,0,0,0-9.17,2.05c1-1.66,2.63-5,6.54-6.83C418,521.89,423.7,521.21,432,525.59Z" transform="translate(-9.74 0.19)" fill="url(#3eb42700-3615-4b0d-9064-f9c596d96242)"/><path d="M385.15,515.36a31.56,31.56,0,0,0,4.2,9.45,13.57,13.57,0,0,0,14,6.44,26.94,26.94,0,0,0-3.12-4.1,41.21,41.21,0,0,0-5.86-5.07,20.86,20.86,0,0,1,3.32,1.66,26.41,26.41,0,0,1,7,6A11.92,11.92,0,0,0,402,521C399.5,517.7,394.42,515.36,385.15,515.36Z" transform="translate(-9.74 0.19)" fill="url(#7a905eaf-b05d-4d49-a7ca-cdea42387018)"/><path d="M435.81,501.12c-5.08,9.46-10.25,12.29-14.25,12.68a13.08,13.08,0,0,1-8.79-2.63,52.24,52.24,0,0,1,11.91-5.66A19.31,19.31,0,0,0,421,506a37.16,37.16,0,0,0-8.88,3.22,14.63,14.63,0,0,1,5.76-7.61C421.46,499.37,426.83,497.91,435.81,501.12Z" transform="translate(-9.74 0.19)" fill="url(#2fa4f79b-ca11-4132-a05e-479753f14116)"/><path d="M388,497.13c3,7.6,7.12,11.4,10.93,13.06a13.5,13.5,0,0,0,9.18.29A33.91,33.91,0,0,0,398,502.59a19.26,19.26,0,0,1,3.52,1.26,27.19,27.19,0,0,1,7.71,5.07,12.64,12.64,0,0,0-3.61-8.38C402.62,497.62,397.06,495.86,388,497.13Z" transform="translate(-9.74 0.19)" fill="url(#888f6597-b4bc-4719-85b8-7490ca5397b3)"/><path d="M436.3,476.46c-3.52,9.94-8.59,13.45-12.6,14.43a12.27,12.27,0,0,1-9.07-1.56,59.36,59.36,0,0,1,11.22-7.12,22.13,22.13,0,0,0-3.61,1,42.18,42.18,0,0,0-8.39,4.29,15.73,15.73,0,0,1,4.68-8.29C421.75,476.56,427.12,474.32,436.3,476.46Z" transform="translate(-9.74 0.19)" fill="url(#e9989bb1-2fc7-434e-ad2a-fe43c991facc)"/><path d="M388.37,478.61c4.29,7.21,8.49,10.43,12.49,11.5a13.81,13.81,0,0,0,9.18-.88,30.39,30.39,0,0,0-10.93-6.53,17.16,17.16,0,0,1,3.61.78,27,27,0,0,1,8.3,4.09,11.76,11.76,0,0,0-4.79-7.79C402.82,477.24,397.35,476.27,388.37,478.61Z" transform="translate(-9.74 0.19)" fill="url(#2867e44b-ae19-4b03-8761-b7919c1f98aa)"/><path d="M433.66,451.89c-2.34,10.44-6.54,14.43-10.54,15.89a12.76,12.76,0,0,1-9.18-.29A57.57,57.57,0,0,1,424,459a20.21,20.21,0,0,0-3.42,1.46,35.15,35.15,0,0,0-7.71,5.36,14.61,14.61,0,0,1,3.51-8.77C419.21,453.84,424.19,451,433.66,451.89Z" transform="translate(-9.74 0.19)" fill="url(#12cea123-19ca-4587-a872-b3cf0aec1547)"/><path d="M386.32,460.28a29.44,29.44,0,0,0,7.42,7.11,15.75,15.75,0,0,0,6.54,2.64,13.06,13.06,0,0,0,9-2,32.67,32.67,0,0,0-11.81-5.07,17.14,17.14,0,0,1,3.71.29,31.89,31.89,0,0,1,8.88,2.93,13.08,13.08,0,0,0-5.76-7.12C400.57,457.06,394.91,456.77,386.32,460.28Z" transform="translate(-9.74 0.19)" fill="url(#c3e63b43-ebc1-4318-932b-247e7dfd9723)"/><path d="M427.71,427.91a27.73,27.73,0,0,1-3.13,11.8,12.9,12.9,0,0,1-5.07,5.36,12.66,12.66,0,0,1-9.18.88,50.32,50.32,0,0,1,8.88-9.75,28.7,28.7,0,0,0-3.22,1.85,35.55,35.55,0,0,0-6.93,6.34,15.22,15.22,0,0,1,2.35-9.17C413.65,431.71,418.24,428.21,427.71,427.91Z" transform="translate(-9.74 0.19)" fill="url(#00f9a346-c5fa-4389-baf6-27ccb45243dd)"/><path d="M381.93,442.34a38.58,38.58,0,0,0,8.2,6.14,15.42,15.42,0,0,0,6.93,1.76,13.1,13.1,0,0,0,8.59-3.22,36,36,0,0,0-12.4-3.51,16.37,16.37,0,0,1,3.71-.19,28.57,28.57,0,0,1,9.08,1.75,12.34,12.34,0,0,0-6.64-6.34C395.59,437.27,389.93,437.76,381.93,442.34Z" transform="translate(-9.74 0.19)" fill="url(#cc18577b-398a-42aa-839c-8f28eec32d8d)"/><path d="M418.63,404.81c.58,10.62-2.64,15.69-6,18.13a12.81,12.81,0,0,1-9,2.05,55.35,55.35,0,0,1,7.52-10.82,15.52,15.52,0,0,0-2.93,2.24,38.86,38.86,0,0,0-6,7.21,15.77,15.77,0,0,1,1.07-9.45C405.26,410.46,409.36,406.37,418.63,404.81Z" transform="translate(-9.74 0.19)" fill="url(#4acbca53-3200-4b83-9003-21d7aaef649a)"/><path d="M375.19,425.18c6.64,5,11.91,6.34,16,5.85a13.35,13.35,0,0,0,8.1-4.29,34.23,34.23,0,0,0-12.69-1.85,27.38,27.38,0,0,1,3.61-.68,26.71,26.71,0,0,1,9.28.58,11.86,11.86,0,0,0-7.42-5.36C388.08,418.36,382.61,419.53,375.19,425.18Z" transform="translate(-9.74 0.19)" fill="url(#7a1648ec-b03f-4467-918f-723a0f04e6a1)"/><path d="M406.72,383.17c1.86,10.43-.49,15.89-3.51,18.71a12.62,12.62,0,0,1-8.59,3.22,51.28,51.28,0,0,1,6.05-11.7A18.13,18.13,0,0,0,398,396a33.77,33.77,0,0,0-5.07,7.9,14.35,14.35,0,0,1-.1-9.46C394.13,390.48,397.64,386,406.72,383.17Z" transform="translate(-9.74 0.19)" fill="url(#921f5f78-3722-4f72-81fc-85797b91b350)"/><path d="M366.31,409c7.22,4.09,12.79,4.68,16.69,3.61a13.65,13.65,0,0,0,7.52-5.36,33.75,33.75,0,0,0-12.89-.1,22.51,22.51,0,0,1,3.52-1.17,26.19,26.19,0,0,1,9.27-.68,12.89,12.89,0,0,0-8-4.39C378.12,400.62,372.85,402.47,366.31,409Z" transform="translate(-9.74 0.19)" fill="url(#93e9103b-1d3b-468c-a6a6-1e8302b223bf)"/><path d="M392,363.28a47.35,47.35,0,0,1,1.66,6.73,23.91,23.91,0,0,1,0,5.36,13,13,0,0,1-2.73,6.92,12.7,12.7,0,0,1-8.1,4.29,52.43,52.43,0,0,1,4.49-12.38,19.16,19.16,0,0,0-2.25,2.92,35.61,35.61,0,0,0-4,8.58,15.43,15.43,0,0,1-1.27-3.8,15.1,15.1,0,0,1-.1-5.56C380.46,372.25,383.49,367.18,392,363.28Z" transform="translate(-9.74 0.19)" fill="url(#e6c679d4-11ab-464f-8a79-ba11ecdec6fe)"/><path d="M355.28,394.18a35.16,35.16,0,0,0,5.47,1.76,28.52,28.52,0,0,0,4.58.78,15.32,15.32,0,0,0,7-1.08,13.67,13.67,0,0,0,6.74-6.23,35,35,0,0,0-12.69,1.46,20.61,20.61,0,0,1,3.32-1.66,30.38,30.38,0,0,1,9.07-1.85,13.86,13.86,0,0,0-3.22-2.15,11.48,11.48,0,0,0-5.37-1.07C365.92,384.34,360.94,386.87,355.28,394.18Z" transform="translate(-9.74 0.19)" fill="url(#41d70cfc-8500-47f9-81eb-a1e0587526cd)"/><path d="M359.57,357.24a29.89,29.89,0,0,1,10.94,5.36,13.24,13.24,0,0,1,4.19,6.14,12.64,12.64,0,0,1-1,9.06A54.26,54.26,0,0,1,366,367.18a23,23,0,0,0,1.17,3.51,35.69,35.69,0,0,0,4.78,8,15.32,15.32,0,0,1-8.59-4.09C360.45,371.66,358,366.59,359.57,357.24Z" transform="translate(-9.74 0.19)" fill="url(#caf6c84e-3414-4780-8913-d5dae4a7ee61)"/><path d="M306.18,665.1a41.24,41.24,0,0,1-6.83-1,19.8,19.8,0,0,1-5-2,13.71,13.71,0,0,1-5.37-5.16,12.7,12.7,0,0,1-.88-9.17,55,55,0,0,1,9.76,9A28.17,28.17,0,0,0,296,653.5a38.12,38.12,0,0,0-6.35-7.12,16.55,16.55,0,0,1,4,.39,13,13,0,0,1,5.17,2C302.28,651.06,305.79,655.64,306.18,665.1Z" transform="translate(-9.74 0.19)" fill="url(#6d6dbea3-56cc-431a-b490-7a5465d2a68a)"/><path d="M291.64,619.38a33.3,33.3,0,0,0-3.61,4.38,24.66,24.66,0,0,0-2.44,3.9,14.78,14.78,0,0,0-1.76,6.83,13.09,13.09,0,0,0,3.22,8.58,31.4,31.4,0,0,0,3.51-12.19,15.8,15.8,0,0,1,.2,3.7,25.21,25.21,0,0,1-1.86,9,13.33,13.33,0,0,0,3.32-2,11.48,11.48,0,0,0,3-4.59C296.71,633,296.32,627.47,291.64,619.38Z" transform="translate(-9.74 0.19)" fill="url(#7aecd03e-f530-4073-b837-bf85a770590a)"/><path d="M329.31,656.23c-10.73.29-15.71-2.64-18.15-6a12.67,12.67,0,0,1-2.05-9,49.5,49.5,0,0,1,10.74,7.41,15.91,15.91,0,0,0-2.25-2.93,34.08,34.08,0,0,0-7.12-6,15,15,0,0,1,9.46,1.07C323.65,642.77,327.75,647,329.31,656.23Z" transform="translate(-9.74 0.19)" fill="url(#b90f74e3-6c84-43f5-b022-bf93545f8cdc)"/><path d="M308.91,612.75c-5.07,6.43-6.34,12-5.75,16.08a12.69,12.69,0,0,0,4.29,8,37.48,37.48,0,0,0,1.85-12.77,25.8,25.8,0,0,1,.69,3.6,26.6,26.6,0,0,1-.59,9.26,12.83,12.83,0,0,0,5.37-7.41C315.75,625.61,314.58,620.25,308.91,612.75Z" transform="translate(-9.74 0.19)" fill="url(#0606c637-1486-4c0d-8cd0-99d0364ce490)"/><path d="M350.89,644.14a39.33,39.33,0,0,1-6.84.78,22.33,22.33,0,0,1-5.36-.69,13.84,13.84,0,0,1-6.54-3.6,12.55,12.55,0,0,1-3.23-8.58,55.42,55.42,0,0,1,11.72,6.14,26.29,26.29,0,0,0-2.64-2.63,38,38,0,0,0-8-5.17,16.07,16.07,0,0,1,4-.68,12.58,12.58,0,0,1,5.56.58C343.57,631.56,348.06,635.17,350.89,644.14Z" transform="translate(-9.74 0.19)" fill="url(#8290b6ae-5c4d-4397-bd0a-7f230c4fed0d)"/><path d="M325,603.78a44.41,44.41,0,0,0-2.34,5.16,35.69,35.69,0,0,0-1.37,4.39,14,14,0,0,0,.1,7,13.57,13.57,0,0,0,5.37,7.51,32.86,32.86,0,0,0,.19-12.77,22.09,22.09,0,0,1,1.17,3.51,25.87,25.87,0,0,1,.59,9.16,15.2,15.2,0,0,0,2.63-2.83,11.49,11.49,0,0,0,1.76-5.26C333.41,615.67,331.56,610.31,325,603.78Z" transform="translate(-9.74 0.19)" fill="url(#8aa041db-375a-4976-ba1e-5b1533f479f5)"/><path d="M370.9,629.61c-10.25,3-15.91,1.46-19-1.07a12.65,12.65,0,0,1-4.29-8.09A47.75,47.75,0,0,1,360,624.84a19.16,19.16,0,0,0-2.92-2.25,37,37,0,0,0-8.5-4,14.15,14.15,0,0,1,9.37-1.37C362,618.21,366.9,620.94,370.9,629.61Z" transform="translate(-9.74 0.19)" fill="url(#377f1d16-ab3d-4e7b-b8f6-2c1a85e5ee1d)"/><path d="M340,593c-3.31,7.5-3,13.16-1.46,17a12.94,12.94,0,0,0,6.25,6.63,36.28,36.28,0,0,0-1.56-12.77,17,17,0,0,1,1.56,3.31,28.46,28.46,0,0,1,1.85,9.07,13,13,0,0,0,3.32-8.48C349.91,603.68,347.28,598.51,340,593Z" transform="translate(-9.74 0.19)" fill="url(#9db01b69-573f-4686-b70d-082993901509)"/><path d="M388.66,612.36c-9.47,4.68-15.52,3.51-19,1.36a12.51,12.51,0,0,1-5.27-7.5A56.49,56.49,0,0,1,377.24,609a20.25,20.25,0,0,0-3.22-1.85,38.61,38.61,0,0,0-3.81-1.46,48.43,48.43,0,0,0-5.17-1.37c1.66-.87,4.88-2.82,9.08-2.63C378.32,602.12,383.59,604.46,388.66,612.36Z" transform="translate(-9.74 0.19)" fill="url(#42fa4b7e-6873-4398-bef1-3f71dfbdb577)"/><path d="M353.23,580.09c-2,8.19-1.37,13.45.78,17.06a12.88,12.88,0,0,0,7.13,5.85A31.6,31.6,0,0,0,358,590.62a24.42,24.42,0,0,1,2.05,3.12,23.41,23.41,0,0,1,1.76,3.8,30.2,30.2,0,0,1,1.27,5,11.74,11.74,0,0,0,2.15-9C364.45,589.35,361.23,584.77,353.23,580.09Z" transform="translate(-9.74 0.19)" fill="url(#3386e9ce-161f-4d88-aafb-a6a38f85947d)"/><path d="M404.18,593.15c-9.08,5.66-14.93,5.46-18.74,3.8a12.44,12.44,0,0,1-6.25-6.72,50.63,50.63,0,0,1,13.08,1.07,28,28,0,0,0-3.41-1.46,38.29,38.29,0,0,0-9.28-1.66,14.78,14.78,0,0,1,8.79-3.7C392.66,584.38,398,585.84,404.18,593.15Z" transform="translate(-9.74 0.19)" fill="url(#96c350a8-e14a-4a82-a745-f27ceec3e599)"/><path d="M364.85,565.76c-1.18,8.09.39,13.45,2.92,16.77a13.5,13.5,0,0,0,7.71,4.87,33.65,33.65,0,0,0-4.78-11.89,20.12,20.12,0,0,1,2.44,2.82,26.1,26.1,0,0,1,4.1,8.29,13.29,13.29,0,0,0,1.08-9.07C377.24,573.46,373.34,569.27,364.85,565.76Z" transform="translate(-9.74 0.19)" fill="url(#471e2706-702c-4b76-81c1-e0beff9255c5)"/><path d="M417,572c-4.1,3.41-7.42,5.36-10.44,6.24a14,14,0,0,1-7.52.09,12.56,12.56,0,0,1-7-5.85,52.13,52.13,0,0,1,5.37-.58,69.76,69.76,0,0,1,7.81,0,25,25,0,0,0-3.61-1,37.38,37.38,0,0,0-9.37-.49c1.36-1.27,3.9-4.1,8.1-4.88C404.28,564.78,410,565.56,417,572Z" transform="translate(-9.74 0.19)" fill="url(#5299d2e2-2e76-4014-8ef1-1b4524f8ccd7)"/><path d="M374.31,549.87a35.49,35.49,0,0,0,1.57,10.23,14.9,14.9,0,0,0,3.61,6,12.93,12.93,0,0,0,8.39,3.8,27.19,27.19,0,0,0-1.95-4.78,38.61,38.61,0,0,0-4.3-6.43,17.47,17.47,0,0,1,2.74,2.44,26.8,26.8,0,0,1,5.17,7.7,11.93,11.93,0,0,0-.29-9.17C387.59,555.91,383.29,552.31,374.31,549.87Z" transform="translate(-9.74 0.19)" fill="url(#14b82e50-30bb-4148-becc-a2790fb49a10)"/><path d="M426.93,549.38c-7.23,7.8-13.08,9.16-17.09,8.58a12.81,12.81,0,0,1-7.8-4.87,49.78,49.78,0,0,1,13-2.34,17.66,17.66,0,0,0-3.71-.49,38.24,38.24,0,0,0-9.37.78,14.77,14.77,0,0,1,7.61-5.85C413.46,543.82,419.21,543.92,426.93,549.38Z" transform="translate(-9.74 0.19)" fill="url(#ffb2cf81-e00f-45f6-b7ed-9ac7d9778a26)"/><path d="M381.83,533c1.07,8.19,3.9,12.87,7.22,15.41a12.86,12.86,0,0,0,8.79,2.63,34.37,34.37,0,0,0-7.71-10.24,23.4,23.4,0,0,1,3,2.05,29.73,29.73,0,0,1,6.15,6.92,12.62,12.62,0,0,0-1.27-9C395.79,537.29,390.91,534.27,381.83,533Z" transform="translate(-9.74 0.19)" fill="url(#92511b80-075e-47d1-93f4-925b8a9dd23f)"/><path d="M433.76,525.59c-3,4.39-5.76,7.12-8.49,8.68a14.42,14.42,0,0,1-7.23,2.05,12.27,12.27,0,0,1-8.29-3.8,41.87,41.87,0,0,1,5.07-1.95,55.29,55.29,0,0,1,7.52-2.05,17.87,17.87,0,0,0-3.71,0,39.63,39.63,0,0,0-9.18,2.05c1-1.66,2.64-5,6.54-6.83C419.7,521.89,425.46,521.21,433.76,525.59Z" transform="translate(-9.74 0.19)" fill="url(#9db9603e-6ad3-481b-8ea0-ac6a4ea7285f)"/><path d="M386.81,515.36a31.56,31.56,0,0,0,4.2,9.45,13.57,13.57,0,0,0,14.05,6.44,26.94,26.94,0,0,0-3.12-4.1,41.21,41.21,0,0,0-5.86-5.07,20.86,20.86,0,0,1,3.32,1.66,26.56,26.56,0,0,1,7,6,11.9,11.9,0,0,0-2.74-8.78C401.25,517.7,396.18,515.36,386.81,515.36Z" transform="translate(-9.74 0.19)" fill="url(#856469b1-2b0e-4320-b8ac-b4dabc788d3b)"/><path d="M437.57,501.12c-5.08,9.46-10.25,12.29-14.26,12.68a13,13,0,0,1-8.78-2.63,52,52,0,0,1,11.91-5.66,19.22,19.22,0,0,0-3.71.49,36.86,36.86,0,0,0-8.88,3.22,14.58,14.58,0,0,1,5.76-7.61C423.12,499.37,428.59,497.91,437.57,501.12Z" transform="translate(-9.74 0.19)" fill="url(#35986f0d-8176-4833-bb5f-3fefefeda08e)"/><path d="M389.74,497.13c3,7.6,7.12,11.4,10.93,13.06a13.47,13.47,0,0,0,9.17.29,33.83,33.83,0,0,0-10-7.89,19.05,19.05,0,0,1,3.51,1.26,27.35,27.35,0,0,1,7.72,5.07,12.66,12.66,0,0,0-3.62-8.38C404.38,497.62,398.81,495.86,389.74,497.13Z" transform="translate(-9.74 0.19)" fill="url(#9ee51408-b582-4ba1-98da-56a27b6022f8)"/><path d="M438.05,476.46c-3.51,9.94-8.59,13.45-12.59,14.43a12.28,12.28,0,0,1-9.08-1.56,59.52,59.52,0,0,1,11.23-7.12,21.84,21.84,0,0,0-3.61,1,42.48,42.48,0,0,0-8.4,4.29,15.83,15.83,0,0,1,4.69-8.29C423.51,476.56,428.88,474.32,438.05,476.46Z" transform="translate(-9.74 0.19)" fill="url(#358663cf-3292-44d4-96a2-6549122ea724)"/><path d="M390,478.61c4.29,7.21,8.49,10.43,12.49,11.5a13.81,13.81,0,0,0,9.18-.88,30.39,30.39,0,0,0-10.93-6.53,17.16,17.16,0,0,1,3.61.78,26.89,26.89,0,0,1,8.29,4.09,11.7,11.7,0,0,0-4.78-7.79C404.57,477.24,399.11,476.27,390,478.61Z" transform="translate(-9.74 0.19)" fill="url(#da534070-4c1b-4b78-b970-d0ca80539688)"/><path d="M435.32,451.89c-2.34,10.44-6.54,14.43-10.54,15.89a12.76,12.76,0,0,1-9.18-.29A57.57,57.57,0,0,1,425.66,459a20.21,20.21,0,0,0-3.42,1.46,35.15,35.15,0,0,0-7.71,5.36,14.61,14.61,0,0,1,3.51-8.77C421,453.84,425.85,451,435.32,451.89Z" transform="translate(-9.74 0.19)" fill="url(#5779d40a-e80e-40f9-a9a6-9ab0a4753a55)"/><path d="M388.08,460.28a29.12,29.12,0,0,0,7.42,7.11A15.75,15.75,0,0,0,402,470a13.09,13.09,0,0,0,9-2,32.74,32.74,0,0,0-11.82-5.07,17.12,17.12,0,0,1,3.71.29,31.94,31.94,0,0,1,8.89,2.93A13.08,13.08,0,0,0,406,459C402.33,457.06,396.57,456.77,388.08,460.28Z" transform="translate(-9.74 0.19)" fill="url(#50546354-b944-4f07-a519-1f897895be6b)"/><path d="M429.37,427.91a27.73,27.73,0,0,1-3.13,11.8,12.9,12.9,0,0,1-5.07,5.36A12.66,12.66,0,0,1,412,446a50.32,50.32,0,0,1,8.88-9.75,28.7,28.7,0,0,0-3.22,1.85,35.55,35.55,0,0,0-6.93,6.34,15.22,15.22,0,0,1,2.35-9.17C415.31,431.71,419.9,428.21,429.37,427.91Z" transform="translate(-9.74 0.19)" fill="url(#eb8874d9-c3a1-4263-870f-239aeee82e17)"/><path d="M383.59,442.34a38.58,38.58,0,0,0,8.2,6.14,15.42,15.42,0,0,0,6.93,1.76,13.1,13.1,0,0,0,8.59-3.22,36,36,0,0,0-12.4-3.51,16.37,16.37,0,0,1,3.71-.19,28.62,28.62,0,0,1,9.08,1.75,12.34,12.34,0,0,0-6.64-6.34C397.25,437.27,391.69,437.76,383.59,442.34Z" transform="translate(-9.74 0.19)" fill="url(#9938ab11-093b-499d-858e-4b4db7cd8a54)"/><path d="M420.39,404.81c.58,10.62-2.64,15.69-6,18.13a12.81,12.81,0,0,1-9,2.05A54.46,54.46,0,0,1,413,414.17a15.52,15.52,0,0,0-2.93,2.24,38.47,38.47,0,0,0-6.05,7.21,15.69,15.69,0,0,1,1.07-9.45C407,410.46,411.11,406.37,420.39,404.81Z" transform="translate(-9.74 0.19)" fill="url(#61eec6b1-5089-4bb6-b75a-36883702a340)"/><path d="M377,425.18c6.64,5,11.91,6.34,16,5.85a13.35,13.35,0,0,0,8.1-4.29,34.23,34.23,0,0,0-12.69-1.85,27.38,27.38,0,0,1,3.61-.68,26.65,26.65,0,0,1,9.27.58,11.8,11.8,0,0,0-7.41-5.36C389.83,418.36,384.37,419.53,377,425.18Z" transform="translate(-9.74 0.19)" fill="url(#2b6ee29b-9aa4-4624-8ba8-f11cbb8e02a6)"/><path d="M408.38,383.17c1.85,10.43-.49,15.89-3.51,18.71a12.62,12.62,0,0,1-8.59,3.22,50.87,50.87,0,0,1,6.05-11.7,18.13,18.13,0,0,0-2.64,2.63,33.77,33.77,0,0,0-5.07,7.9,14.29,14.29,0,0,1-.1-9.46C395.79,390.48,399.4,386,408.38,383.17Z" transform="translate(-9.74 0.19)" fill="url(#9e1cf9f5-c302-4470-a1c1-68091a167c2e)"/><path d="M368,409c7.22,4.09,12.79,4.68,16.69,3.61a13.65,13.65,0,0,0,7.52-5.36,33.75,33.75,0,0,0-12.89-.1,22.51,22.51,0,0,1,3.52-1.17,26.19,26.19,0,0,1,9.27-.68,12.89,12.89,0,0,0-8-4.39C379.88,400.62,374.51,402.47,368,409Z" transform="translate(-9.74 0.19)" fill="url(#d95ff58f-8b46-4754-a134-a8e3c8ffd07e)"/><path d="M393.74,363.28A48.76,48.76,0,0,1,395.4,370a25.16,25.16,0,0,1,0,5.36,12.89,12.89,0,0,1-2.74,6.92,12.65,12.65,0,0,1-8.1,4.29,53.37,53.37,0,0,1,4.49-12.38,19.61,19.61,0,0,0-2.24,2.92,35.61,35.61,0,0,0-4,8.58,15.43,15.43,0,0,1-1.27-3.8,14.88,14.88,0,0,1-.1-5.56C382.22,372.25,385.15,367.18,393.74,363.28Z" transform="translate(-9.74 0.19)" fill="url(#97447db1-f0eb-43b2-938a-fc00f4539cff)"/><path d="M357,394.18a35.41,35.41,0,0,0,5.46,1.76,28.63,28.63,0,0,0,4.59.78,15.34,15.34,0,0,0,7-1.08,13.6,13.6,0,0,0,6.73-6.23,35.06,35.06,0,0,0-12.69,1.46,21.2,21.2,0,0,1,3.32-1.66,30.52,30.52,0,0,1,9.08-1.85,14.08,14.08,0,0,0-3.22-2.15,11.48,11.48,0,0,0-5.37-1.07C367.68,384.34,362.7,386.87,357,394.18Z" transform="translate(-9.74 0.19)" fill="url(#1e44f40c-14ba-40f7-a41a-1f2ffc5b73bb)"/><path d="M361.23,357.24a29.89,29.89,0,0,1,10.94,5.36,13.24,13.24,0,0,1,4.19,6.14,12.69,12.69,0,0,1-1,9.06,53.84,53.84,0,0,1-7.71-10.62,23,23,0,0,0,1.17,3.51,35.69,35.69,0,0,0,4.78,8,15.32,15.32,0,0,1-8.59-4.09C362.21,371.66,359.77,366.59,361.23,357.24Z" transform="translate(-9.74 0.19)" fill="url(#b36f357f-b6d8-46dc-b98c-a5d9f4378615)"/><path d="M126,379.66s-.88,1.17-2.54,3.31-4,5.36-6.83,9.65a180.83,180.83,0,0,0-9.27,15.8,173.86,173.86,0,0,0-9.28,21.83,161.57,161.57,0,0,0-6.83,27.1,169.84,169.84,0,0,0-2,31.1A163.65,163.65,0,0,0,144.63,608,164.85,164.85,0,0,0,195,638.68a176.74,176.74,0,0,0,22.75,6.82c3.41.78,6.73,1.37,9.76,1.85s5.85.88,8.29,1.17,4.79.39,6.74.59,3.61.19,5,.29v.1c-1.37,0-3,0-5.08-.1s-4.29-.29-6.83-.39-5.37-.58-8.4-1-6.34-1-9.85-1.66a168.9,168.9,0,0,1-23-6.43A164.38,164.38,0,0,1,143,609.63a159.79,159.79,0,0,1-23-24.76,157.31,157.31,0,0,1-18-29.93,162.78,162.78,0,0,1-11.13-33.05,165.82,165.82,0,0,1-4-33.54,163.83,163.83,0,0,1,9.76-58.78A159.33,159.33,0,0,1,116,392.23c2.93-4.19,5.37-7.31,7.13-9.45C125.11,380.73,126,379.66,126,379.66Z" transform="translate(-9.74 0.19)" fill="url(#bfabb498-3823-471a-95a7-61bb79624759)"/><path d="M124.62,379.66s-.87,1.17-2.53,3.31-4,5.36-6.84,9.65a180.83,180.83,0,0,0-9.27,15.8,172.43,172.43,0,0,0-9.27,21.83,161.57,161.57,0,0,0-6.83,27.1,168.09,168.09,0,0,0-2,31.1A163.54,163.54,0,0,0,143.27,608a164.62,164.62,0,0,0,50.37,30.71,176.63,176.63,0,0,0,22.74,6.82c3.42.78,6.73,1.37,9.76,1.85s5.86.88,8.3,1.17,4.78.39,6.73.59,3.61.19,5,.29c2.73.1,4.2.2,4.2.2h-4.2c-1.37,0-3,0-5.08-.1s-4.29-.29-6.83-.39-5.37-.59-8.39-1-6.35-1-9.86-1.65A168,168,0,0,1,193,640a164.11,164.11,0,0,1-51.34-30.32,159.34,159.34,0,0,1-23-24.76,156.69,156.69,0,0,1-18-29.93,162.49,162.49,0,0,1-11.13-33,167.26,167.26,0,0,1-4-33.54,163.79,163.79,0,0,1,9.76-58.78A159.33,159.33,0,0,1,105,407.93a155.77,155.77,0,0,1,9.67-15.6c2.93-4.19,5.37-7.31,7.12-9.46S124.62,379.66,124.62,379.66Z" transform="translate(-9.74 0.19)" fill="url(#ba213c34-845a-4d28-a875-3cd6cc7f7ec7)"/><path d="M374.7,379.66s.88,1.17,2.54,3.31,4,5.36,6.83,9.65a178.17,178.17,0,0,1,9.28,15.8,172.43,172.43,0,0,1,9.27,21.83,161.57,161.57,0,0,1,6.83,27.1,168.09,168.09,0,0,1,2.05,31.1A163.54,163.54,0,0,1,356.06,608a164.62,164.62,0,0,1-50.37,30.71A176.63,176.63,0,0,1,283,645.5c-3.42.78-6.74,1.37-9.76,1.85s-5.86.88-8.3,1.17-4.78.39-6.73.59-3.62.19-5,.29v.1c1.36,0,3,0,5.07-.1s4.3-.29,6.84-.39,5.37-.58,8.39-1,6.35-1,9.86-1.66a169.29,169.29,0,0,0,23-6.43,164.61,164.61,0,0,0,51.34-30.32,159.79,159.79,0,0,0,23-24.76,157.83,157.83,0,0,0,18-29.93,162.75,162.75,0,0,0,11.12-33.05,166.56,166.56,0,0,0,4-33.54,164,164,0,0,0-9.76-58.78,158.09,158.09,0,0,0-9.77-21.74,155.2,155.2,0,0,0-9.66-15.6c-2.93-4.19-5.37-7.31-7.13-9.45C375.58,380.73,374.7,379.66,374.7,379.66Z" transform="translate(-9.74 0.19)" fill="url(#52772383-1b57-4846-b403-d250b95e2d82)"/><path d="M376.17,379.66s.88,1.17,2.54,3.31,4,5.36,6.83,9.65a180.83,180.83,0,0,1,9.27,15.8,173.86,173.86,0,0,1,9.28,21.83,161.57,161.57,0,0,1,6.83,27.1,169.84,169.84,0,0,1,2.05,31.1,165.76,165.76,0,0,1-32.8,95.05A159.47,159.47,0,0,1,357.52,608a164.7,164.7,0,0,1-50.36,30.71,176.74,176.74,0,0,1-22.75,6.82c-3.41.78-6.73,1.37-9.76,1.85s-5.85.88-8.29,1.17-4.79.39-6.74.59-3.61.19-5,.29c-2.73.1-4.19.2-4.19.2h4.19c1.37,0,3,0,5.08-.1s4.29-.29,6.83-.39,5.37-.59,8.4-1,6.34-1,9.85-1.65a168,168,0,0,0,23-6.44,164,164,0,0,0,51.34-30.32,159.34,159.34,0,0,0,23-24.76,156.69,156.69,0,0,0,18-29.93,162.49,162.49,0,0,0,11.13-33,165.82,165.82,0,0,0,4-33.54,163.79,163.79,0,0,0-9.76-58.78,158.12,158.12,0,0,0-9.76-21.74,155.77,155.77,0,0,0-9.67-15.6c-2.92-4.19-5.36-7.31-7.12-9.46C377.05,380.73,376.17,379.66,376.17,379.66Z" transform="translate(-9.74 0.19)" fill="url(#bddb5197-6778-4213-82a7-6bfb0173288b)"/></g><line x1="261.44" y1="0.27" x2="300.81" y2="0.18" fill="url(#74be756c-794c-40d4-85dc-91326edf1c9d)"/><polygon points="261.44 0.27 181.89 230.54 221.27 230.54 300.81 0.18 261.44 0.27" fill="url(#477dd40f-9a66-45b1-9a0c-4ea087aab0ae)"/><polygon points="221.27 230.54 260.56 230.54 340.17 0.09 300.81 0.18 221.27 230.54" fill="url(#62528cd9-c09b-4f9c-9990-0eae740aeac4)"/><line x1="300.81" y1="0.18" x2="340.17" y2="0.09" fill="url(#311bb58a-3196-41ee-96f2-35018b069ea2)"/><polygon points="260.56 230.54 299.94 230.54 379.53 0 340.17 0.09 260.56 230.54" fill="url(#ea0a4dc1-017f-455e-81a8-6588914a1f4c)"/><line x1="340.17" y1="0.09" x2="379.53" fill="url(#49db2ba8-f2f0-434e-be50-a3c9cb85182b)"/><g id="0ee6b8b7-cb29-4bef-8fba-819ba2b8b086" data-name="4wHAUQ.tif"><path d="M264.57,392.09l-5.15,10.21,1,1.56,9.22-4,.57.53c-2.46,2.15-4.93,4.29-7.88,6.85l8.06,7.14c2.6-1.75,8.75-1.26,4.7-7.92-.53-.87,1.5-3.29,2.43-5.17,8.62,3.5,4.78,10.42,4.44,16.8,4.12,0,6.53,1.33,6.7,6.25.15,4.36,2.38,8.6,3.09,13,.45,2.76-.07,5.73-.42,8.57-1.06,8.69-4.52,17.12-2.56,26.19.25,1.12-2,2.78-3.43,4.71a32.84,32.84,0,0,0,2,3.2c14.41,18.92,28.79,37.86,43.37,56.66,1.27,1.63,3.75,2.44,5.82,3.29,1.67.68,4.73.39,5.09,1.33.61,1.59-.09,4-.85,5.73-1.9,4.48-6.2,4.34-9.57,3.12-1.24-.45-1.06-4.83-1.52-7.43l1.74-.51c-16-20.15-31.88-40.35-48-60.35-1.08-1.34-4.1-1.75-6.13-1.58-6.58.57-13.12,1.6-20.82,2.6,2.48-7.76-.86-15.45,3.31-22.7,1-1.77-.71-5.12-2.17-7.47-1.62,11.14-3.24,22.28-4.94,34-11.73-2.75-21.73-5.85-30-12.74-1.49-1.25-2.4-4.86-1.75-6.74,2.31-6.59,5.41-12.91,8.3-19.54l14.68,12c.67-2.67,1.09-4.37,1.59-6.34-8.6-4.48-18.7-7.44-17.41-20.37-2.08.88-3.64,1.59-5.23,2.19-5.56,2.09-14.06-1.27-16.07-6.66-.5-1.34.24-3.36.87-4.87,2.48-5.94,5.16-11.79,7.71-17.7.44-1,1.21-2.71.81-3.13-5.46-5.76-2.05-15.6-9.44-20.41-.16-.1,0-.7.15-3.15l8.61,9.28c6.85-1.91,11,1.4,11,8.37l14.69-9.38-8.28-7.62c2.35-1.28,3.83-2.1,5.32-2.9,4.89-2.62,8.68-6,8.19-12.21-.4-5.12,2.81-6.87,7-7.56,4.44-.73,8.72-.68,10.82,4.4,1.48,3.58,2.84,7.21,3.67,9.33l10.53,4.44c-2,2.88-3.6,6.26-6.16,8.52-5.82,5.13-13,6.87-20.68,6.33a30.13,30.13,0,0,0-3.67.16l0,1.66ZM255.31,436l-1.24.47c-.83-1-1.69-1.95-2.49-3-8.08-10.25-16.11-20.53-24.26-30.72-.82-1-2.35-1.46-3.55-2.17l-.07,1,52.32,67,2.72-26.49L267.8,453.9c-.76-.46-1.51-.93-2.26-1.4l2.75-5.79-7.58-4.15c2.68-.58,4-.95,5.26-1.12,6.19-.78,6.4-1.52,3.22-6.56-1.44-2.28-1.8-5.27-2.53-8-.43-1.56-.35-3.3-.94-4.77-1-2.56-2.42-5-4.05-8.28l-6.36-4.58Zm-33.89-6.44c4.4-12.2,3.17-20.8-2.69-22.24l2.05,3.32-7.11-.31ZM274.92,477c-1.33-2.54-2.64-5.06-4-7.58l-4.06-7.64-2.58.69c.34,3.25.69,6.49,1,9.74C266,479.48,267.54,480.3,274.92,477Zm-38.4-34.91c3.41,5.73,9.45,7.83,13.62,4.46l-5.39-3.47,4.63-2.4-.78-1.82-11.52-1.94c-.1.33-.21.66-.31,1l3.26,2.7Z" transform="translate(-9.74 0.19)" fill="url(#95cecdc3-32da-4341-8739-22742d6d2654)"/><path d="M215.42,571.72,233.28,561c-4.79-1.72-6.58-3-5.44-8s-1.7-10.85-2.64-16.35c-.32-1.89-1-4.94-.08-5.6,6.08-4.55,1.39-8.62-1.3-13-.6,3.77-1.21,7.53-1.9,11.84l-4.56.7,6.89-16.84C221,510,222,506,224.61,501.46c1.26-2.18,1.37-5.33,1.2-8-.29-4.39-1.23-8.73-2.06-14.15l29,11.5c-3.83,14.88-4.65,30.31-4.45,47.11-4.66-1.87-7.38-3.25-10.27-4-1.74-.46-3.74.06-5.62.13.5,2.42.33,5.35,1.68,7.13,1.53,2,4.41,3,7.45,4.87l-9.23,4.3c6.31.55,12,1.92,14.61,7.58-.39,2.94-.44,5.61-1.16,8.08-.58,2-1.53,4.41-3.1,5.36C234.17,576.47,225.49,573.63,215.42,571.72Zm17.72-43.35,10.49,4a84.77,84.77,0,0,0,2.07-9c.22-1.63,0-4-1-5a10.08,10.08,0,0,0-5.71-2.44c-.66-.08-2.58,3.29-2.3,3.59C240.75,524.05,234.83,524.13,233.14,528.37Z" transform="translate(-9.74 0.19)" fill="url(#be2234fc-e0ae-493f-b3c0-0af09f141228)"/><path d="M285.06,532.28c-2-3.26-9-4.8-11.2-2.18-.7.83-.48,3.33.29,4.28,1,1.2,2.93,1.6,4.74,2.47l-6.3,8.15c4.78,4.94,10.66,2.51,17.39,3-1.34,3.14-2.49,5.62-3.43,8.17a8,8,0,0,0-.26,3.09c.22,3.35.52,6.7.79,10.05l-1.58.5-8.11-14L271,565.78c-1.47-4.52-3.29-9-4.34-13.67-.94-4.16-1-8.52-1.5-12.79a18.5,18.5,0,0,0-.41-2.2c-.89-3.61-2.8-7.3-2.51-10.81.93-10.88-2.13-21-4.54-31.34-.61-2.61-1.19-5.23-2-8.73l25.39-4.07c1.79,4.15,3.49,8,5,11.85a3.68,3.68,0,0,1,.17,2.8c-2.67,4.35-1.88,8.2.46,12.53.74,1.37-1.4,4.28-2.21,6.46l9.41,12-1.34,1.35-5-6.49-1.33.25c.36,1.88,1.13,3.79,1,5.61-.11,1.27-1.49,2.43-2.31,3.63Z" transform="translate(-9.74 0.19)" fill="url(#48d389b6-0abc-4b20-bd56-fd392e396360)"/><path d="M277.33,562.58l12.23,15.07c-.1.61-.2,1.22-.29,1.83-7.2.21-14.39.51-21.58.41-.56,0-2-3.53-1.46-4.23C269.78,571,273.76,566.7,277.33,562.58Z" transform="translate(-9.74 0.19)" fill="url(#4bb148de-dc92-4152-90a9-93ee89841051)"/><path d="M222.67,578c-6.94,0-13.93.56-20.8-.13-9.77-1-13.26-8.07-9.49-17.24,4.38,3.73,8.39,8.32,13.41,11.1s11.14,3.82,16.78,5.61C222.6,577.59,222.64,577.81,222.67,578Z" transform="translate(-9.74 0.19)" fill="url(#ed394a6c-48cb-44ef-9457-78bffd5aae88)"/><path d="M284.93,532.17c2.34,3.84,4.57,7.68,1.05,11.92l-1.84-.05q.48-5.87.93-11.75Z" transform="translate(-9.74 0.19)" fill="url(#25b1ae81-9d63-49c6-8aee-44309a58af5c)"/></g></svg>