<?xml version="1.0" encoding="utf-8"?>
<!-- Generator: Adobe Illustrator 16.0.0, SVG Export Plug-In . SVG Version: 6.00 Build 0)  -->
<!DOCTYPE svg PUBLIC "-//W3C//DTD SVG 1.1//EN" "http://www.w3.org/Graphics/SVG/1.1/DTD/svg11.dtd">
<svg version="1.1" id="MY_NEG_LOGO_narrower_letetrs"
	 xmlns="http://www.w3.org/2000/svg" xmlns:xlink="http://www.w3.org/1999/xlink" x="0px" y="0px" width="79.833px"
	 height="35.167px" viewBox="0 0 79.833 35.167" enable-background="new 0 0 79.833 35.167" xml:space="preserve">
<g>
	<rect x="2.222" y="3.231" fill="#FFFFFF" width="14.618" height="1.855"/>
	<rect x="2.222" y="7.233" fill="#FFFFFF" width="14.618" height="1.855"/>
	<rect x="2.222" y="27.245" fill="#FFFFFF" width="14.618" height="1.855"/>
	<rect x="6.398" y="23.242" fill="#FFFFFF" width="6.265" height="1.855"/>
	<rect x="6.398" y="19.24" fill="#FFFFFF" width="6.265" height="1.855"/>
	<rect x="6.398" y="15.238" fill="#FFFFFF" width="6.265" height="1.855"/>
	<rect x="6.398" y="11.236" fill="#FFFFFF" width="6.265" height="1.855"/>
	<rect x="2.222" y="31.247" fill="#FFFFFF" width="14.618" height="1.855"/>
	<rect x="48.469" y="23.242" fill="#FFFFFF" width="6.281" height="1.855"/>
	<polygon fill="#FFFFFF" points="58.03,25.098 64.031,25.098 64.674,23.242 57.388,23.242 	"/>
	<rect x="48.469" y="19.24" fill="#FFFFFF" width="6.281" height="1.855"/>
	<polygon fill="#FFFFFF" points="56.657,21.095 65.404,21.095 66.046,19.24 56.015,19.24 	"/>
	<polygon fill="#FFFFFF" points="60.164,15.238 48.469,15.238 48.469,17.093 54.75,17.093 54.75,15.56 55.281,17.093 60.796,17.093 
			"/>
	<polygon fill="#FFFFFF" points="61.896,15.238 61.265,17.093 66.774,17.093 67.311,15.543 67.311,17.093 73.592,17.093 
		73.592,15.238 	"/>
	<polygon fill="#FFFFFF" points="58.812,11.236 48.469,11.236 48.469,13.091 59.445,13.091 	"/>
	<rect x="67.311" y="23.242" fill="#FFFFFF" width="6.281" height="1.855"/>
	<rect x="67.311" y="19.24" fill="#FFFFFF" width="6.281" height="1.855"/>
	<polygon fill="#FFFFFF" points="63.248,11.236 62.615,13.091 73.592,13.091 73.592,11.236 	"/>
	<rect x="67.311" y="31.247" fill="#FFFFFF" width="10.468" height="1.855"/>
	<rect x="44.282" y="31.247" fill="#FFFFFF" width="10.468" height="1.855"/>
	<polygon fill="#FFFFFF" points="60.776,33.102 61.285,33.102 61.927,31.247 60.134,31.247 	"/>
	<rect x="67.311" y="27.245" fill="#FFFFFF" width="10.468" height="1.855"/>
	<rect x="44.282" y="27.245" fill="#FFFFFF" width="10.468" height="1.855"/>
	<polygon fill="#FFFFFF" points="59.403,29.1 62.658,29.1 63.3,27.245 58.761,27.245 	"/>
	<polygon fill="#FFFFFF" points="65.95,3.231 65.318,5.086 77.778,5.086 77.778,3.231 	"/>
	<polygon fill="#FFFFFF" points="56.11,3.231 44.282,3.231 44.282,5.086 56.742,5.086 	"/>
	<polygon fill="#FFFFFF" points="64.6,7.233 63.967,9.089 77.778,9.089 77.778,7.233 	"/>
	<polygon fill="#FFFFFF" points="57.462,7.233 44.282,7.233 44.282,9.089 58.094,9.089 	"/>
	<rect x="23.229" y="11.236" fill="#FFFFFF" width="6.281" height="1.855"/>
	<rect x="23.229" y="23.242" fill="#FFFFFF" width="6.281" height="1.855"/>
	<path fill="#FFFFFF" d="M19.042,5.086h20.605c-1.86-1.523-4.624-1.855-7.507-1.855h-0.565H19.042V5.086z"/>
	<path fill="#FFFFFF" d="M19.042,7.233h22.364c0.223,0.361,0.614,1.205,0.743,1.855H19.042V7.233z"/>
	<path fill="#FFFFFF" d="M23.229,19.24h15.999c0.591,0.371,1.441,1.209,1.881,1.855h-17.88V19.24z"/>
	<path fill="#FFFFFF" d="M35.79,11.236h6.614c0.003,0.689-0.156,1.413-0.301,1.855H35.79V11.236z"/>
	<path fill="#FFFFFF" d="M35.79,23.242h6.343c0.172,0.411,0.311,1.099,0.325,1.855H35.79V23.242z"/>
	<path fill="#FFFFFF" d="M19.042,27.245h23.235c-0.082,0.474-0.552,1.587-0.754,1.855H19.042V27.245z"/>
	<path fill="#FFFFFF" d="M19.042,31.247H39.67c-1.816,1.436-4.305,1.855-7.187,1.855h-0.909H19.042V31.247z"/>
	<path fill="#FFFFFF" d="M23.229,17.093H39.24c0.707-0.509,1.321-1.138,1.842-1.855H23.229V17.093z"/>
</g>
</svg>
