<?xml version="1.0" encoding="utf-8"?>
<!-- Generator: Adobe Illustrator 22.0.0, SVG Export Plug-In . SVG Version: 6.00 Build 0)  -->
<svg version="1.1" id="Lager_1" xmlns="http://www.w3.org/2000/svg" xmlns:xlink="http://www.w3.org/1999/xlink" x="0px" y="0px"
	 viewBox="0 0 142.5 111" style="enable-background:new 0 0 142.5 111;" xml:space="preserve">
<style type="text/css">
	.st0{fill:#FFFFFF;}
</style>
<g>
	<g>
		<g>
			<path class="st0" d="M29,71.9l-3.1,9.7c-0.4,1.1-0.6,2-0.8,2.5c-0.1-0.7-0.4-1.8-0.8-2.8l-3.1-9.4h-2.2l5,14.8H26L31,71.9H29z"/>
			<path class="st0" d="M33.3,75.2L29,86.7h2l1.2-3.1h4.4l1.1,3.1h2.2l-4.3-11.5H33.3z M32.7,81.9l1.7-5l1.7,5H32.7z"/>
			<path class="st0" d="M46.4,80l-1.5-0.4c-1.4-0.4-1.9-0.8-1.9-1.5c0-0.9,0.9-1.5,2.3-1.5c1.1,0,2.1,0.3,3,0.9l0.1,0.1l0.9-1.4
				L49.2,76c-1-0.7-2.5-1.1-4-1.1c-2.5,0-4.3,1.4-4.3,3.4c0,1.4,1.1,2.6,2.8,3l1.7,0.4c1.5,0.4,2.1,0.9,2.1,1.8c0,0.5-0.3,1-0.8,1.3
				c-0.5,0.3-1,0.4-1.8,0.4c-1.2,0-2.3-0.3-3.5-0.9l-0.1-0.1l-0.8,1.6l0.1,0.1c1.2,0.7,2.7,1.1,4.2,1.1c1.2,0,2.1-0.2,2.9-0.6
				c1.2-0.6,1.9-1.8,1.9-3c0-0.8-0.3-1.6-0.8-2.1C48.3,80.7,47.4,80.2,46.4,80z"/>
			<path class="st0" d="M54.4,75.2l-4.3,11.5h2l1.2-3.1h4.4l1.1,3.1H61l-4.3-11.5H54.4z M53.8,81.9l1.7-5l1.7,5H53.8z"/>
			<polygon class="st0" points="64.3,75.2 62.3,75.2 62.3,86.7 69,86.7 69.2,85 64.3,85 			"/>
			<path class="st0" d="M74.4,75c-3.2,0-5.2,2.3-5.2,5.9c0,1.9,0.5,3.3,1.6,4.5c1,1.1,2.1,1.5,3.8,1.5c3.4,0,5.2-2,5.2-5.9
				C79.8,77.2,77.8,75,74.4,75z M74.6,85.3c-1.2,0-2.1-0.4-2.5-1.1c-0.5-0.9-0.8-2.1-0.8-3.5c0-2.8,0.9-4.1,3-4.1
				c2.9,0,3.3,2.2,3.3,4.6C77.6,83.2,77.3,85.3,74.6,85.3z"/>
			<path class="st0" d="M88,75.7c-0.7-0.4-1.3-0.5-3.2-0.5h-3.4v11.5h1.9v-4.3h2c1.6,0,2.3-0.2,3.2-1c0.8-0.7,1.2-1.6,1.2-2.7
				C89.7,77.4,89.1,76.4,88,75.7z M85.2,80.7h-1.9v-3.8h1.5c1.7,0,2.8,0.3,2.8,1.9C87.6,80.1,86.7,80.7,85.2,80.7z"/>
			<path class="st0" d="M97.7,75.7c-0.7-0.4-1.3-0.5-3.2-0.5h-3.4v11.5H93v-4.3h2c1.6,0,2.3-0.2,3.2-1c0.9-0.7,1.2-1.6,1.2-2.7
				C99.4,77.4,98.8,76.4,97.7,75.7z M94.9,80.7H93v-3.8h1.5c1.7,0,2.8,0.3,2.8,1.9C97.3,80.1,96.5,80.7,94.9,80.7z"/>
			<polygon class="st0" points="102.8,81.5 107,81.5 107,79.8 102.8,79.8 102.8,76.9 107.8,76.9 108.1,75.2 100.8,75.2 100.8,86.7 
				108.3,86.7 108.3,85 102.8,85 			"/>
			<polygon class="st0" points="107.7,71.9 107.7,73.6 111.8,73.6 111.8,86.7 113.7,86.7 113.7,73.6 117.4,73.6 117.7,71.9 			"/>
		</g>
	</g>
	<g>
		<path class="st0" d="M63.2,35.9c0-0.3-0.4-0.4-0.9-0.5c-0.5-0.2-0.4,0.3,0,0.4c0.4,0.1,0.6,0.4,0.2,0.4c-0.4,0-0.6-0.2-1-0.2
			c-0.4,0,0.1,2,0.4,2.5c0.3,0.5,0.6-0.1,0.3,0.5c-0.3,0.6,0.6-0.2,0.4,0.2c-0.2,0.4,0.1,1,0.3,0.6c0.2-0.3,0.3-2.1,0.3-2.7
			c0-0.1,0-0.2,0-0.2C63.7,35.8,63.2,36.2,63.2,35.9z"/>
		<path class="st0" d="M68.5,43.8c0.2-0.6-0.8-0.6-1.2-0.7c0.5-0.4,1.6-0.6,0.6-1.1c-0.3-0.1-0.7-0.1-1-0.1c-0.3,0-0.8-0.3-1-0.2
			c0,0-0.3,0.2-0.3,0.3c0.3,0.3,0.8,0.4,1.2,0.6c-0.3,0-1,0-1.1,0.2c-0.3,0.6,1.6,1.3,1.9,1.4C68,44.1,68.4,44.2,68.5,43.8z"/>
		<path class="st0" d="M67.4,58c-0.2-0.5-0.2,0.4-1-0.4c-0.1-0.1-0.2,0.2-0.2,0.2c-0.1,0-0.1,0-0.1,0c0,0,0-0.1-0.2-0.1
			c-0.3,0.3-0.1,0.4-0.1,0.4c0.1,0,0.1,0.1,0,0.2c0,0-0.1,0.1-0.2,0.2c-0.5,0.4,0.4,0.3,0.4,0.3c0.1,0,0.1,0,0.1,0.1
			c0,0-0.2,0.3-0.5,0.6c-0.1,0.1-0.8,0.1-0.5,0.7c0.1,0.2,0.2,0.3,0.4,0.4c0.5,0.3,1.2,0.5,1.2,0.5c0.1,0,0.2,0,0.2,0h0.4
			c0.1,0,0.1-0.1,0.1-0.1c0,0,0.1-0.3,0.2-0.7c0.1-0.3,0.1-0.6,0-1C67.5,58.9,67.4,58,67.4,58z"/>
		<path class="st0" d="M63.1,34.9C63.1,34.9,63.1,34.9,63.1,34.9C63.1,34.9,63.1,34.9,63.1,34.9C63.1,34.9,63.1,34.9,63.1,34.9
			C63.1,34.9,63.1,34.9,63.1,34.9z"/>
		<path class="st0" d="M69.2,44.5c0.2,0,0.6,0,1,0c-0.3-0.4-0.6-0.8-0.9-1.1C69.3,43.7,69.3,44.1,69.2,44.5z"/>
		<path class="st0" d="M68.7,46.4c-0.3-0.1-0.3,0-0.4-0.2c-0.1-0.2,0.1-0.6,0.1-0.9c0.1-0.3,0.3-0.5,0.3-0.5C68.1,44.5,68,45,68,45
			s-0.2,0.6-0.3,0.9c-0.1,0.3,0.1,0.4,0.1,0.6c0.1,0.2,0.5,0.4,0.7,0.4c0.2,0,0.4-0.1,0.4-0.2C69,46.5,69,46.5,68.7,46.4z"/>
		<path class="st0" d="M87.4,62c-0.5-0.2-1.1-0.2-1.5-0.1L77,50c0.2-0.1,0.3-0.3,0.4-0.4c0.3-0.4,0.2-0.8-0.1-1.2
			c0-0.3-0.1-0.5-0.2-0.5c0,0,0-0.1,0.2-0.5c0.2-0.5,0.2-0.8,0.2-1c0.3-0.3,0.4-0.8,0.4-1.1c0-0.3,0-0.3,0-0.4
			c0.1-0.2,0.1-0.4,0.1-0.6c0-0.1,0-0.2,0-0.3c0-0.2,0-0.2,0-0.2c0.1-0.2,0.1-0.4,0.1-0.5c0.3-0.8,0-1.4-0.1-1.8
			c0-0.1-0.1-0.3-0.1-0.5c-0.2-0.9-0.3-1.2-0.3-1.4l0-0.1l0-0.1c0,0,0-0.3-0.1-0.7c0-0.7-0.5-1.1-0.6-1.3c0,0,0-0.1-0.1-0.2
			c0-0.1,0-0.2,0-0.4c0-0.3,0-0.8,0-0.9c0-0.4-0.4-0.7-0.5-0.9c0,0,0-0.1-0.1-0.2c0-0.1-0.1-0.2-0.1-0.2c0-0.1-0.1-0.2-0.2-0.4
			c0,0,0-0.1-0.1-0.1l0-0.1c0.2-0.4,0-0.7-0.1-0.9c-0.1-0.2-0.3-0.3-0.5-0.5c-0.1-0.1-0.2-0.1-0.3-0.2c-0.2-0.2-0.6-0.4-0.8-0.5
			l-0.1,0c0-0.1-0.1-0.1-0.1-0.2c0.4-0.3,0.8-0.8,1.2-1.3c0.2-0.3,0.5-1,0.2-1.7c-0.3-0.5-1-0.9-1.2-0.9c-0.3-0.1-0.7-0.2-1.1-0.2
			c-0.1-0.4-0.3-1-0.6-1.6c-0.5-1.1-1.1-1.3-1.6-1.5c-0.2-0.1-0.4-0.2-0.7-0.2c-0.3,0-0.6,0-0.5,0c-0.1,0-0.8,0-1.8,0.5
			c-0.6,0.2-0.8,0.9-0.9,1.2c-0.1,0.2-0.1,0.4-0.1,0.7c0,0.1,0,0.2,0,0.3c0,0.1,0,0.2,0,0.3c0,0.1,0,0.3,0,0.4
			c-0.9,0.8-1.3,0.9-1.4,1c-0.6,0.2-0.7,0.2-0.9,0.5c-0.2,0.3-0.5,1-0.1,1.5c0.1,0.2,0.3,0.4,0.6,0.6c-0.1,0.1-0.3,0.1-0.4,0.2
			c-0.1,0.1-0.2,0.1-0.3,0.2c-0.1-0.2-0.2-0.3-0.3-0.4c-0.3-0.3-1.1-0.7-1.2-0.8c-0.1-0.1-0.3-0.1-0.4-0.1c-0.1,0-0.3,0-0.6,0.1
			l-1-1.2c-0.1-0.1-0.3-0.3-0.7-0.3c0,0-0.8,0-1.2,0.5c-0.4,0.4-0.3,1.1-0.1,1.4c0.1,0.1,0.7,1,1.2,1.6c-0.1,0.3-0.2,0.6-0.2,0.9
			c0.1,0.6,0.3,1,0.6,1.3l0.1,0.1c-0.4,0.9-1.6,3.5-1.8,4c-0.4,0.9-0.1,1.4,0,1.6c0.1,0.2,0.3,0.3,0.5,0.5c0.1,0,0.1,0.1,0.2,0.1
			l0.2,0.2c0.7,0.6,0.9,0.8,1,0.9c0.2,0.1,1,0.5,1.8,0.3c0.2-0.1,0.4-0.1,0.6-0.2c0,0.2,0.1,0.5,0.2,0.6c0.1,0.1,0.1,0.2,0.2,0.3
			c-0.2,0.3-0.4,0.6-0.5,0.8c-0.1,0.1-0.1,0.3-0.2,0.4c-0.3,0.5-0.4,0.8-0.5,1.1c0,0.2-0.1,0.8-0.3,1.1L61.7,47
			c-0.2,0.3-0.3,0.6-0.4,0.7c-0.2,0.3-0.3,1.1,0.3,1.7c0.2,0.3,0.4,0.5,0.6,0.6c-0.1,0.3-0.1,0.9-0.1,1.2c0.1,0.4,0.3,1.8,0.4,2.2
			c0,0.1,0.1,0.3,0.1,0.4c-0.1,0.2-0.4,0.6-0.5,0.9c-0.2,0.4-0.7,1.2-0.3,2.2c0.1,0.2,0.1,0.3,0.2,0.5c-0.3,0.4-0.7,1.2-1,2.1
			c-0.4,1.3-0.4,1.4-0.4,1.5v0.5l1.5,0.3l0.1,0c0,0,0,0,0,0c0,0.3,0.1,1.1,0.1,1.4c0,0,0,1.1,0.4,1.9c-0.1,0.2-0.3,0.4-0.3,0.6
			c0,0.4,0,0.8,0.5,1.3c-0.7,0.5-2,1.1-2.9,1.4c-0.9-0.3-1.8-1.1-2.8-2.4L57.3,66c-0.2-0.2-0.4-0.3-0.6-0.3c-0.4,0-0.6,0.3-0.8,0.5
			c-1.3,2.5,0.1,4.4,0.9,4.8c0.3,0.2,1,0.4,1.4,0.4c0.2,0,1.3,0.1,2.5,0.1c2.2,0,3.7-0.2,4.5-0.5c2.4-0.9,2.9-1.5,3.1-2.1
			c0.2-0.4,0.1-0.9,0-1.2c0,0,0-0.1,0-0.1c0,0,0.1-0.1,0.1-0.1c0.1-0.1,0.3-0.3,0.4-0.5c0.2-0.4,0.1-0.8,0-1c0-0.1,0.1-0.2,0.2-0.3
			l0.1-0.2l0-0.1c0-0.1,0-0.2,0-0.4c0.1-0.7-0.2-1.1-0.4-1.4c0-0.1,0-0.3,0-0.4l0-0.2c0-0.2,0-0.4-0.1-0.6c0.2-0.5,0.5-1.4,0.5-2
			c0-0.5-0.3-1.8-0.4-2.4c0.1-0.1,0.1-0.1,0.2-0.2c0.2-0.3,0.4-1,0.5-1.7l0-0.2c0.1,0.5,0.2,0.9,0.3,1.1c0.1,0.3,0,0.5,0,0.7
			c0,0.1,0,0.1,0,0.2c0,0.2,0.1,0.4,0.2,0.6c-0.1,0.3-0.1,0.6-0.1,1.2l0,0.2c0,0.5,0,1.5,0.1,1.8c0,0.4,0.3,0.7,0.5,0.9
			c-0.1,0.2-0.2,0.5-0.2,0.8c0.1,1.1,0.5,2,0.9,2.7c0.1,0.2,0.2,0.4,0.3,0.6c0.2,0.5,0.2,1.1,0,1.9c0,0.3-0.2,0.4-0.4,0.6
			c-0.1,0.1-0.3,0.3-0.5,0.6c-0.2,0.4-0.2,0.8-0.1,1.1c0.2,0.4,0.5,0.8,1,1c0.4,0.1,1.2,0.2,1.9,0.2c1,0,2.4-0.1,3-0.3
			c0.7-0.2,0.9-0.6,1-0.9c0.1-0.5,0-0.9-0.2-1.1l-0.1-0.1c-0.1-0.1-0.2-0.2-0.2-0.2c0-0.1-0.1-0.4-0.1-0.6l0-0.2c0-0.2,0-0.4,0-0.4
			c0-0.1,0-0.2,0-0.3c0,0,0,0,0-0.1c0.2-0.2,0.2-0.5,0.1-0.7c0-0.1-0.1-0.3-0.1-0.4c0.2-0.2,0.4-0.4,0.4-0.6c0.1-0.4,0.1-0.7,0-0.9
			c0.2-0.5,0-1-0.2-1.3c0-0.1-0.1-0.3-0.1-0.4c0.3-0.7,0.1-1.3-0.1-1.8c0.1,0,0.2,0,0.3,0c0.1,0,0.2,0.1,0.3,0.1l1,0.5l-0.2-1.1
			c0-0.1,0.1-0.7,0.3-1.1l0.1-0.5l-0.5-0.2c-0.4-0.2-0.9-0.9-1.1-1.2c-0.1-0.1-0.1-0.2-0.1-0.2c-0.1-0.1-0.2-0.2-0.3-0.4
			c0,0,0,0,0,0c0.4-0.5,0.4-0.9,0.2-1.3c0-0.3-0.2-0.7-0.5-1.1l-0.1-0.2c0,0,0-0.1,0.1-0.1c0.1-0.2,0.2-0.4,0.3-0.6l7,9
			c-0.5,1-0.1,1.8,0.2,2.2c0.4,0.3,0.8,0.5,1.4,0.5c0.4,0,0.7-0.1,0.9-0.1c0.4,0.2,0.8,0.1,1.2-0.1c0.4-0.2,0.5-0.6,0.4-1
			c0.2-0.2,0.3-0.5,0.3-0.7C88.6,62.7,87.8,62.2,87.4,62z M57.4,70.2c-1.6-0.6-1.1-3.5-0.8-3.5c0.4,0,0.9,3.6,7.6,3.6
			C64.3,70.3,59.5,71,57.4,70.2z M68.5,54.8c0.1,0.7-0.2,2-0.3,2.3c-0.1,0.3-0.6,0.6-0.5,0.9c0.1,0.3,0.6,2.7,0.5,2.9
			c-0.2,0.2-0.5,1.2-0.5,1.2s-0.1,0-0.2,0c-0.3-0.1-1-0.3-1.3-0.5c-0.4-0.3-1.4-0.7-1.5-0.3c-0.1,0.4-0.4,1.3,0.2,1.7
			c0.7,0.4,1.6,0.9,1.6,1c0,0.1-0.4,0.1-0.7,0.3c-0.3,0.2-1.6,0.4-1.4,0.7c0.2,0.3,0,0.2,0.9,0.2c0.9-0.1,1.7,0.3,1.8,0.7
			c0,0.1,0.1,0.2,0.2,0.3c0.2,0.2,0.6,0,0.5,0.4c0,0.3-0.7,0.4-0.7,0.7c0,0.2,0.3,1,0.3,1.2c0,0.2,0,0.4-0.5,0.7
			c-0.4,0.2-1.2,0.8-2.8,0.6c-0.6-0.1-2.1-0.2-3-0.6c0.3-0.1,0.8-0.3,1.1-0.5c1.7-0.8,2.6-1.7,3-2.2c-0.7,0.4-1,0.5-1.2,0.3
			c-0.3-0.2-0.7-0.7-0.4-0.9c0.3-0.2,0.4-0.6,0.3-0.7c-0.1-0.1-0.5-0.8-0.6-2c0-1.2-0.4-2.2,0-2.5c0.5-0.3,0.7-0.8,0.7-0.8
			c0,0-0.9-0.5-0.8-2.1c-0.4,0.9-0.8,1.5-0.8,1.8c0,0.3,0,0.8,0.4,1c-0.1,0.2-0.2,0.3-0.2,0.3s-0.3-0.3-0.3-0.4
			c-0.1,0.4,0.1,0.5-0.1,0.5c-0.2,0-0.5-0.1-0.5-0.1s0.5-2.5,1.5-3.2c-0.1-0.2-1-0.9-0.5-1.9c0.5-1,1-1.4,0.9-1.7
			c-0.1-0.3-0.8-3-0.5-3.6c0.1-0.1,0.1-0.1,0.2-0.1c0.1,0,0.2,0.2,0.4,0.3c0.2,0.1,2.8,1.2,4.3,1.8c0.5,0.2,0.8,0.3,1,0.3
			C69.1,52.6,68.4,54.1,68.5,54.8z M76.3,70.7c-0.3,0.3-4.5,0.4-4.7,0.1c-0.2-0.3-0.2-0.5,0.1-0.9c0,0,0.5-0.4,1-0.9
			c0.7-0.7,0.9-1.8,1.2-1.8c0.3,0,0.3,0.9,1.5,2.1C76.1,70,76.7,70.4,76.3,70.7z M77.5,60.3c-0.1,0.2-0.1,0.3-0.1,0.3
			s-0.4-0.2-0.4-0.4c0,0.2,0,0.4,0,0.4c-0.3,0-0.4-0.1-0.4-0.1s0.2-0.5,0.2-0.6c-0.1-0.1-0.9-1-0.9-1s-0.2,0.7-0.1,0.9
			c0.1,0.2,0.4,0.8,0.3,1.1c-0.1,0.3-0.7,0.2-0.3,0.7c0.4,0.5,0.3,1.2,0.2,1.5c-0.1,0.1-0.1,0.2-0.1,0.3c-0.1,0.2-0.1,0.4-0.3,0.2
			c-0.3-0.3,0-0.1-0.3-1.1c-0.2-1,0.9-1.9-0.3-2.1c-1.3-0.1-2.2-0.1-1.9,0.8c0.2,0.8,1.6,0.5,1.2,0.9c-0.3,0.4-0.7,0.7-0.9,1
			c-0.2,0.3-0.7,0.6,0,1c0.1,0.1,0.2,0.1,0.3,0.1c0.3,0.1,0.6,0,1.1,0.1c0.5,0.1,0.9-0.1,1.2-0.1c0.1,0,0.2,0,0.2,0
			c0.3,0.1,0.2,0.4,0.1,0.7c-0.1,0.3,0.4,0.6-0.1,0.8c-0.5,0.2-0.7,0.2-0.6,0.5c0.1,0.4,0.4,0.5,0.4,0.9c0,0.3-0.2,1.5,0,2
			c-1.2-1.1-1.6-3.1-2-3.1c-0.3,0-0.5,0.4-0.7,0.7c-0.2,0.4-0.5,1-0.8,1.2c0,0.1-0.2,0.4-0.3,0.5c0-0.2,0.2-1.6,0.2-1.8
			c0-0.5-0.5-0.8-0.7-1.6c-0.3-0.8-0.7-1.9-0.4-2.2c0.3-0.4,0.2-0.4,0.2-0.7c0-0.3-0.7-0.4-0.6-0.9c0.1-0.5-0.3-2.8,0.3-3
			c-0.6-0.4-0.4-0.3-0.4-1.1c0,0-0.8-3.9-1.2-5.1c0-0.2-0.1-0.3-0.1-0.3c0.5-0.4,4.4-0.7,5.3-0.9c0.1,0,0.1,0,0.2-0.1
			c0.1,0.6,0,0.9,0.4,1.8c0.4,0.9,0.7,0.8,0.4,1.4c-0.3,0.6-0.5,1.1-0.4,1.4c0.1,0.3,0.8,1.2,0.6,1.5c-0.1,0.3-0.5,0.3-0.6,0.8
			c-0.2,0.4,0.2,0.6,0.4,0.6C76,58.5,77.2,60.2,77.5,60.3z M86.9,64.9c0,0,0,0.2-0.2,0.1c-0.1,0-0.2-0.1-0.3-0.2
			c-0.7,0.4-1.4,0.4-1.7,0c-0.2-0.4,0-0.9,0.5-1.4L75,50.4l-0.1-0.1c0,0,0,0.1-0.1,0.1c-0.2,0.1-4.4,0.5-5.1,0.7
			c0.1-0.3,0.1-0.5,0.1-0.9c0.1-1,0.2-2.2,0.1-3.3c0.2-0.1,0.5-0.2,0.5-0.3c0.1-0.2,0.2-0.3,0.1-0.6c-0.1-0.3-0.3-0.9-0.3-0.9
			s-0.1-0.5-0.7-0.3c0,0,0.2,0.3,0.3,0.5c0.1,0.3,0.2,0.6,0.1,0.9c-0.1,0.2-0.1,0.1-0.4,0.2c-0.3,0.1-0.4,0.1-0.3,0.3
			c0,0.1,0.2,0.2,0.3,0.2c0.1,1.1-0.1,2.2-0.4,3.2c-0.1,0.4-0.2,0.7-0.3,1c-0.1,0.2-0.1,0.4-0.2,0.6c-0.5-0.1-1.4-0.4-2.8-0.9
			c-1.1-0.4-2-0.9-2.6-1.3c-0.6-0.4-1-0.8-1.1-1c-0.2-0.4-0.1-0.4,0.2-0.9c0.3-0.5,0.3-0.4,0.5-1c0.2-0.6,0.2-0.7,0.3-1.1
			c0.1-0.4,0.5-0.9,0.6-1.2c0.2-0.2,1.2,1.1,1.6,1.2c0.4,0.1-0.1-0.4-0.6-0.7c-0.5-0.4-0.8-0.8-0.6-1.1c0,0,0-0.1,0.1-0.1
			c0,0,0,0,0,0c0,0,1.2,1.3,1.5,1.5c0.3,0.2,1.6,1.2,1.6,0.9c0-0.3,0-0.9,0.2-1.2c-0.8-0.3-2.4-1.2-3.1-1.6c0.2-0.2,0.3-0.5,0.2-0.5
			c-0.1,0-0.2-0.1-0.5-0.4c-0.3-0.3-0.2-1.1-0.2-1.6c0-0.6,0.4-0.8,0.5-1.4c0.1-0.6,0.2-0.8-0.1-0.5C64.3,39.1,64,39.5,64,40
			c0,0.5-0.3,0.9-0.8,1c-0.5,0.2-1.3,0.6-1.9,0.2c-0.6-0.3-0.7-0.8-1.4-1.2c-0.8-0.5-0.1-1,0-1.4c0.2-0.4,0.9-1.8,1.2-2.7
			c0.3-0.9,0.5-1.1,0.6-1.2c0,0,0,0,0.1,0c-0.1-0.2-0.2-0.3-0.4-0.5c-0.3-0.3-0.7-0.7-0.6-1c0.1-0.3,0-0.5,0.4-0.8
			c0,0-1.5-1.9-1.6-2.1c0-0.3,0.4-0.2,0.4-0.2l1.6,2c0.2-0.4,0.4-0.7,0.7-0.6c0.7,0.3,1.1,0.8,1.1,1c0.1,0.3,0.4,0.3,0.2,0.6
			c-0.2,0.2-0.1,0.4-0.1,0.5c0,0.1,0.1,0.2-0.1,0.4c0,0-0.1,0.1-0.1,0.1c0,0,0,0,0,0c0-0.1-0.1-0.1-0.1-0.1c-0.7,0.3-0.5,1-0.5,0.9
			c0,0,0,0,0,0c0,0,0,0,0,0c0,0,0,0,0,0c0,0,0,0,0,0c0.1-0.1,0.2-0.2,0.3-0.3l10.4,13.5c0,0.1,0.1,0.1,0.2,0.1c0,0,0.1,0,0.1,0
			c0.1-0.1,0.1-0.1,0.1-0.2c0,0,0,0,0,0c0,0,0,0,0,0c0,0,0,0,0,0c0,0,0,0,0,0L74,47.7c-0.1-0.1-0.2-0.3-0.4-0.6c0.1,0,0.3,0,0.4-0.1
			c0.1,0,0.2-1.6,0.3-2.4c0-0.3,0-0.6,0.1-0.6c0.1-0.1,0.1-0.8,0.2-1c0.1-0.2-0.3-0.6-0.4-0.9c-0.1-0.3-0.4-0.5-0.5-1.2
			c0-0.6-0.4-1.3-0.4-1.3c-0.2-0.1,0.2,0.6,0.2,0.8c-0.1,0.2,0,0.5,0,0.7c0,0.2,0.1,0.4,0.2,0.7c0.1,0.2,0.3,0.4,0.3,0.7
			c0,0.3,0,0.5-0.1,0.8c-0.1,0.2,0,0.5-0.1,0.7c0,0-0.1,0.1-0.2,0.1c-0.9,0.3-1.3,0.7-1.5,1.1c0,0-0.1-0.1-0.1-0.1
			c0,0-0.1-0.1-0.2-0.2l-0.4-0.5c0.5-0.1,0.9-0.3,1-0.7c-0.5-0.3-1.1-0.5-1.7-0.8c0.4-0.5,1.5-0.2,1.9-0.4c0.1-0.1,0.2-0.1,0.2-0.2
			c0.1-0.5-0.7-1.2-0.9-1.6c-0.3-0.7,0.1-1.3,0-2c-0.2,0-0.5-0.1-0.7-0.2c0.1-0.1,0.2-0.2,0.2-0.3c-1.1-0.2,0-0.7-0.2-1.1
			c-0.3-0.5-1.2,0.1-1.3-0.7v-0.2c0,0.3-0.4-1.7-0.5-1.3c0.1,1.3,0.1,2.4,0.1,3.4c0,1.6-0.1,2.7-0.2,3.6c-0.4-0.6-0.8-1-1-1.3
			c-0.7-0.9-4.4-5.7-4.6-6c-0.2-0.2-0.2-0.3-0.2-0.3s0,0,0,0c0.1-0.1,0.4-0.5,0.3-0.7c0,0,0.1-0.2,0.7-0.7c0.5-0.5,0.7-0.9,0.9-0.5
			c0.2,0.3,0,1.1,0.3,1c0.4-0.1,0.7-0.2,0.3-0.6c-0.3-0.4-0.6-0.4-0.4-0.6c0.2-0.2,0.5-0.3,0.8-0.3c0.2,0,0.4,0,0.6-0.1
			c-0.6-0.3-1.4-1-1.6-1.2c-0.3-0.3-0.5-0.5-0.4-0.8c1-0.2,1.8-1,2.3-1.4c0.5-0.4,0.2-1.8,0.4-2.3c0.2-0.6,1.7-0.9,2.7-0.7
			c1,0.2,1.7,3.4,1.8,3.9c0.1,0.5,0.5,0.5,0.7,0.1c0.3-0.4-0.3-0.1-0.6-0.5c-0.3-0.4,0.5-0.4,0.5-0.4c0.5,0,1.5,0.3,1.4,0.8
			c0,0.5-0.7,1.2-2.1,2.1c-0.1,0.1-0.2,0.1-0.3,0.2c-1.5,0.8-3.2,0.6-4,0.5c-0.1,0.3,0.1,0.6,0.3,0.6c0.3,0,0.6-0.3,1.1-0.1
			c0.5,0.1,0.5,0.5,0.8,0.4c0.3-0.1,0-0.4,0.4-0.5c0.3,0,0.9,0.1,0.8,0.4c0,0.2-0.3,0.6-0.5,0.8c-0.1,0.2,0,0.3-0.2,0.5
			c-0.2,0.2-0.4,0.4-0.2,0.7c0.3,0.3,1.8-0.4,2.1-1c0.3-0.4,0.5-0.4,0.3-0.2c-0.2,0.3-0.6,1.1-1.3,1.5c-0.7,0.4-0.9,0.3-0.8,0.5
			c0.2,0.2,0.5,0.3,0.5,0.6c0,0.3,0.3,0.1,0.6,0.2c0.4,0.1,0.5,0.2,0.4,0.4c-0.2,0.2-0.4,0.5,0.1,0.4c0.5-0.2,1.3-0.5,1.4-0.7
			c0.1-0.3,0.3-0.7,0-0.7c-0.3,0-0.4-0.4-0.2-0.6c0.2-0.1,0.3-0.2,0.3-0.5c0-0.3,0.2-0.6,0.3-0.3c0.1,0.3,0.1,0.5,0.2,0.4
			c0.2-0.1,0.4-0.2,0.5-0.1c0,0.2,0.1,0.3,0,0.6c-0.1,0.3-0.8,1.5-1.1,1.8c-0.3,0.3-0.7,0.3-0.5,0.7c0.2,0.4,0.5,0.3,0.7,0.1
			c0.2-0.2,0.5-0.7,0.5-1c0-0.3,0.3-1.2,0.5-1.2c0.2,0,0.5-0.1,0.5,0.2c0,0.3-0.1,0.5-0.2,0.6c-0.2,0-0.2,0-0.3,0.3
			c-0.1,0.3,0.1,0.4,0.1,0.7c-0.1,0.3-0.3,0.2-0.2,0.5c0.2,0.3,0.5-0.2,0.7,0c0.2,0.2,0.7,0.3,0.7,0.7c-0.1,0.4-0.2,0.1,0,0.7
			c0.2,0.6,0.3,0.7,0.3,1.1c0,0.4,0.2,0.7,0.2,1c0,0.3,0.3,0.5,0.3,0.9c0,0.2,0.1,0.2,0.1,0.3c0,0,0,0,0,0c0,0-0.1,0-0.2,0
			c-0.4,0.1-0.7,0.2-0.4,0.4c0.2,0.1,0.4,0.2,0.4,0.2c0,0.1,0,0.1,0,0.2c-0.2,0.2-0.5,0.1-0.4,0.5c0.1,0.3,0.2,0.2,0.2,0.5
			c0,0.2-0.5,0.2-0.6,0.3c-0.1,0.1,0.4,0.2,0.4,0.5c0,0.1,0.1,0.2,0.1,0.4c0,0.1,0,0.2-0.2,0.3c0,0,0,0,0,0c0,0,0,0,0,0
			c-0.4,0.3-0.3,0.2-0.3,0.4c0.1,0.2,0.3,0,0.2,0.3c-0.1,0.3-0.3,0.6-0.2,0.7c0.1,0.1-0.3,0.6-0.1,0.8c0.2,0.2,0.1,0.3,0.1,0.5
			c0,0.2,0.4,0.4,0.2,0.6c-0.2,0.2-0.6,0.3-0.9,0.4c0,0.1-0.1,0.1-0.1,0.2l10.1,13.4c0.7-0.4,1.4-0.4,1.7,0c0.2,0.4,0,1-0.6,1.5
			L86.9,64.9z"/>
		<path class="st0" d="M73.4,49.5c-0.2-0.2-0.2-0.4-0.3-0.7c-0.1-0.3-0.2-0.3-0.4-0.5c-0.2-0.2-0.1-0.1,0-0.5c0,0,0,0,0,0
			c-0.3-0.3-0.6-0.7-0.9-1.2c-0.4,0.4-0.8,0.9-0.5,1.2c0.1,0.1,0.2,0.7,0.2,0.9c0,0.2-0.1,0.7,0,0.9c0,0,0.2,0.5,0.2,0.5l0,0
			c0,0,0.1,0.1,0.2,0.2c0.3,0.1,1.5-0.1,1.6-0.4c0,0,0-0.1,0-0.1C73.6,49.6,73.6,49.7,73.4,49.5z"/>
	</g>
</g>
<path class="st0" d="M64.1,47.8L64,47.7C64,47.7,64.1,47.8,64.1,47.8C64.1,47.8,64.1,47.8,64.1,47.8C64.1,47.8,64.1,47.8,64.1,47.8z
	"/>
<path class="st0" d="M64.1,47.8C64.1,47.8,64.1,47.8,64.1,47.8L64.1,47.8C64.1,47.8,64.1,47.8,64.1,47.8z"/>
</svg>
